<?xml version="1.0" standalone="no"?>
<!DOCTYPE svg PUBLIC "-//W3C//DTD SVG 1.1//EN" "http://www.w3.org/Graphics/SVG/1.1/DTD/svg11.dtd" >
<svg xmlns="http://www.w3.org/2000/svg">
<metadata></metadata>
<defs>
<font id="manifold_cfregular" horiz-adv-x="1013" >
<font-face units-per-em="2048" ascent="1638" descent="-410" />
<missing-glyph horiz-adv-x="645" />
<glyph unicode="&#xfb01;" horiz-adv-x="1157" d="M82 881v51q0 16 8 24q9 9 25 9h116v147q0 172 90 273.5t244 101.5h135q31 0 31 -31v-51q0 -31 -31 -31h-135q-103 0 -159 -69t-56 -193v-147h633q31 0 31 -31v-903q0 -31 -31 -31h-57q-31 0 -31 31v819h-545v-819q0 -31 -31 -31h-57q-31 0 -31 31v819h-118q-31 0 -31 31z M899 1354v102q0 31 31 31h51q31 0 31 -31v-102q0 -31 -31 -31h-51q-31 0 -31 31z" />
<glyph unicode="&#xfb02;" horiz-adv-x="1136" d="M82 881v51q0 31 31 31h118v149q0 172 90 273.5t244 101.5h410q29 0 29 -31v-1425q0 -31 -31 -31h-58q-30 0 -30 31v1343h-320q-103 0 -159 -69t-56 -193v-149h330q31 0 31 -31v-51q0 -31 -31 -31h-330v-819q0 -31 -31 -31h-57q-31 0 -31 31v819h-118q-31 0 -31 31z" />
<glyph horiz-adv-x="0" />
<glyph horiz-adv-x="682" />
<glyph unicode=" "  horiz-adv-x="645" />
<glyph unicode="&#x09;" horiz-adv-x="645" />
<glyph unicode="&#xa0;" horiz-adv-x="645" />
<glyph unicode="!" horiz-adv-x="446" d="M154 31v75q0 31 30 31h78q31 0 31 -31v-75q0 -31 -31 -31h-78q-30 0 -30 31zM162 383v1073q0 31 31 31h61q31 0 31 -31v-1073q0 -31 -31 -31h-61q-31 0 -31 31z" />
<glyph unicode="&#x22;" horiz-adv-x="790" d="M154 856v600q0 31 30 31h78q31 0 31 -31v-600q0 -31 -31 -31h-78q-30 0 -30 31zM498 856v600q0 31 30 31h78q31 0 31 -31v-600q0 -31 -31 -31h-78q-30 0 -30 31z" />
<glyph unicode="#" horiz-adv-x="1220" d="M143 432v62q0 30 31 30h143v439h-143q-31 0 -31 30v62q0 30 31 30h143v371q0 31 31 31h62q30 0 30 -31v-371h340v371q0 31 31 31h61q31 0 31 -31v-371h144q30 0 30 -30v-62q0 -30 -30 -30h-144v-439h144q30 0 30 -30v-62q0 -31 -30 -31h-144v-370q0 -31 -31 -31h-61 q-31 0 -31 31v370h-340v-370q0 -31 -30 -31h-62q-31 0 -31 31v370h-143q-31 0 -31 31zM440 524h340v439h-340v-439z" />
<glyph unicode="$" horiz-adv-x="970" d="M102 797q-1 13 7.5 21.5t23.5 8.5h66q29 0 32 -28q7 -59 64 -98.5t129 -47.5v312q-154 25 -236 84.5t-82 173.5q0 126 91 200t227 84v133q0 31 31 31h61q31 0 31 -31v-133q117 -16 210 -98t97 -195q0 -32 -29 -32h-63q-35 0 -35 26q-1 68 -54 114.5t-126 59.5v-311 q75 -12 129.5 -29t100 -46t68.5 -75.5t23 -109.5q0 -113 -94.5 -190.5t-226.5 -90.5v-133q0 -30 -31 -30h-61q-31 0 -31 30v133q-115 9 -213.5 86t-108.5 181zM229 1223q0 -63 47.5 -92t147.5 -44v297q-195 -11 -195 -161zM547 653q85 8 141.5 49.5t56.5 108.5q0 32 -10 55 t-25 37t-43.5 23.5t-53.5 14t-66 9.5v-297z" />
<glyph unicode="%" horiz-adv-x="1290" d="M82 1274v22q0 82 52.5 136.5t135.5 54.5h27q83 0 135.5 -54.5t52.5 -136.5v-22q0 -83 -52.5 -136t-135.5 -53h-27q-83 0 -135.5 53t-52.5 136zM160 8q-6 8 2 23l827 1425q10 17 18.5 24t22.5 7h86q16 0 22.5 -8t-1.5 -23l-828 -1425q-10 -17 -18.5 -24t-22.5 -7h-86 q-16 0 -22 8zM193 1278q0 -39 21 -60.5t60 -21.5h17q41 0 62.5 21.5t21.5 60.5v14q0 82 -84 82h-17q-81 0 -81 -82v-14zM805 188v23q0 82 52.5 136t135.5 54h27q83 0 135.5 -54t52.5 -136v-23q0 -83 -52.5 -135.5t-135.5 -52.5h-27q-83 0 -135.5 52.5t-52.5 135.5zM915 193 q0 -39 21.5 -60.5t60.5 -21.5h17q41 0 62.5 21.5t21.5 60.5v14q0 82 -84 82h-17q-82 0 -82 -82v-14z" />
<glyph unicode="&#x26;" horiz-adv-x="1478" d="M102 356v80q0 86 41.5 157t151.5 134l49 29l-27 22q-92 78 -122.5 152t-30.5 176v39q0 147 109 256.5t280 109.5h135q171 0 280 -109.5t109 -256.5v-39q0 -90 -30 -162.5t-82 -114.5l-66 -55q-19 -16 -49 -16h-78q-20 0 -27.5 14t7.5 25l51 32q62 40 106.5 115t44.5 162 v39q0 101 -71 172.5t-195 71.5h-135q-124 0 -195 -71.5t-71 -172.5v-39q0 -88 36.5 -150t116.5 -129l576 -491v20v156q0 122 47 160l100 80q25 18 37 18h94q21 0 28.5 -12.5t-7.5 -24.5l-137 -108q-9 -8 -16 -16.5t-11.5 -20t-7 -19t-3.5 -23.5t-1 -21.5v-24.5v-23v-121 q0 -46 -15 -112l242 -207q14 -11 8 -24t-26 -13h-105q-18 0 -37 16l-135 117q-55 -77 -144 -120.5t-198 -43.5h-217q-178 0 -294 108t-116 279zM225 356q0 -125 77.5 -194.5t209.5 -69.5h217q176 0 250 119l-539 461l-69 -33q-146 -71 -146 -203v-80z" />
<glyph unicode="'" horiz-adv-x="446" d="M154 856v600q0 31 30 31h78q31 0 31 -31v-600q0 -31 -31 -31h-78q-30 0 -30 31z" />
<glyph unicode="(" horiz-adv-x="684" d="M133 242v1003q0 173 90.5 279t243.5 106h53q31 0 31 -31v-61q0 -31 -31 -31h-53q-103 0 -157 -68.5t-54 -193.5v-1003q0 -125 54 -193.5t157 -68.5h53q31 0 31 -31v-62q0 -30 -31 -30h-53q-153 0 -243.5 106t-90.5 279z" />
<glyph unicode=")" horiz-adv-x="684" d="M133 -51q0 31 31 31h53q103 0 157 68.5t54 193.5v1003q0 125 -54 193.5t-157 68.5h-53q-31 0 -31 31v61q0 31 31 31h53q153 0 243.5 -106t90.5 -279v-1003q0 -173 -90.5 -279t-243.5 -106h-53q-31 0 -31 30v62z" />
<glyph unicode="*" horiz-adv-x="761" d="M129 1090q-14 22 8 36l152 84l-152 82q-24 12 -8 37l33 55q15 21 37 9l125 -95v164q0 25 24 25h66q26 0 26 -25v-164l123 95q25 12 37 -9l35 -55q13 -26 -10 -37l-150 -82l150 -84q21 -13 10 -36l-35 -56q-12 -21 -37 -8l-123 94v-164q0 -24 -26 -24h-66q-24 0 -24 24 v164l-125 -94q-22 -13 -37 8z" />
<glyph unicode="+" horiz-adv-x="1052" d="M123 631v61q0 31 31 31h313v332q0 30 31 30h61q31 0 31 -30v-332h311q29 0 29 -31v-61q0 -31 -31 -31h-309v-334q0 -30 -31 -30h-61q-31 0 -31 30v334h-313q-31 0 -31 31z" />
<glyph unicode="," horiz-adv-x="395" d="M104 31v145q0 31 31 31h127q31 0 31 -31v-184q0 -51 -2 -78.5t-10.5 -70.5t-30 -82t-57.5 -80q-11 -13 -18 -13.5t-23 13.5l-29 26q-15 15 -16 25t10 20q35 34 51.5 71t19 62.5t2.5 78.5v16l17 20h-72q-31 0 -31 31z" />
<glyph unicode="-" horiz-adv-x="888" d="M143 487v62q0 31 31 31h541q30 0 30 -31v-62q0 -30 -30 -30h-541q-31 0 -31 30z" />
<glyph unicode="." horiz-adv-x="315" d="M82 31v92q0 31 31 31h90q30 0 30 -31v-92q0 -31 -30 -31h-90q-31 0 -31 31z" />
<glyph unicode="/" horiz-adv-x="804" d="M44 8q-6 8 1 23l623 1425q12 31 41 31h73q33 0 21 -31l-623 -1425q-16 -31 -41 -31h-73q-16 0 -22 8z" />
<glyph unicode="0" horiz-adv-x="1200" d="M123 475v545q0 202 126.5 345.5t303.5 143.5h94q177 0 303.5 -143.5t126.5 -345.5v-545q0 -202 -126.5 -345.5t-303.5 -143.5h-94q-177 0 -303.5 143.5t-126.5 345.5zM246 475q0 -158 89 -266t222 -107h86q133 1 222 108.5t89 264.5v545q0 157 -89 264t-222 107h-86 q-133 0 -222 -107t-89 -264v-545z" />
<glyph unicode="1" horiz-adv-x="753" d="M154 1241q-20 20 0 43l194 193l6 6q12 4 21 4h57q31 0 31 -31v-1425q0 -31 -31 -31h-57q-31 0 -31 31v1269l-104 -102q-20 -23 -43 0z" />
<glyph unicode="2" horiz-adv-x="1159" d="M104 31q1 93 7.5 162.5t24.5 140t49.5 122t83.5 96t124 75.5l277 118q47 20 74.5 33t62.5 34.5t54.5 44.5t38 55.5t26.5 74.5t8 96q0 130 -90 215.5t-215 85.5h-86q-124 0 -214.5 -85t-90.5 -222v-35q0 -30 -31 -30h-64q-30 0 -30 30v35q0 121 62 220t160 152.5t208 53.5 h86q171 0 299.5 -122t128.5 -298q0 -81 -17.5 -145t-46 -109t-78.5 -84t-101 -65t-126 -57l-231 -95q-64 -26 -110 -77t-67.5 -112.5t-30.5 -114.5t-9 -105h772q30 0 30 -31v-57q0 -31 -30 -31h-877q-31 0 -31 31z" />
<glyph unicode="3" horiz-adv-x="1148" d="M96 391v39q0 31 31 31h63q31 0 31 -31v-39q0 -135 91 -213t216 -78h86q138 0 231 78t93 211q0 139 -90.5 221t-239.5 88h-127q-30 0 -30 31v57q0 31 30 31h127q144 6 222.5 84.5t78.5 210.5q0 119 -88 200t-211 81h-86q-118 0 -207.5 -85.5t-89.5 -224.5v-39 q0 -30 -30 -30h-64q-31 0 -31 30v39q0 93 36.5 174.5t96 136t135.5 86t154 31.5h86q110 0 207.5 -53t156 -145.5t58.5 -200.5q0 -123 -58 -206t-179 -146q127 -65 196.5 -153.5t69.5 -217.5q0 -119 -62.5 -213.5t-163.5 -144t-221 -49.5h-86q-110 0 -208 48.5t-161.5 144 t-62.5 216.5z" />
<glyph unicode="4" horiz-adv-x="1128" d="M47 569q-10 23 4 45l576 873q14 22 41 22h77q20 0 26 -10.5t-5 -25.5l-563 -850h516v309q0 31 31 31h61q31 0 31 -31v-309h164q30 0 30 -31v-57q0 -31 -30 -31h-164v-473q0 -31 -31 -31h-61q-31 0 -31 31v473h-621q-23 0 -32 20z" />
<glyph unicode="5" horiz-adv-x="1161" d="M102 393v33q0 31 31 31h64q30 0 30 -31v-33q0 -139 85 -219t216 -80h80q138 0 230 83.5t96 246.5q5 186 -77.5 290.5t-246.5 104.5h-43q-155 0 -321 -133h-92q-31 0 -31 31v39l20 700q0 31 31 31h787q30 0 30 -31v-51q0 -31 -30 -31h-693l-18 -547q140 105 317 105h43 q98 0 180.5 -31t145 -91.5t96 -158.5t29.5 -223q-4 -110 -42 -197t-101 -140.5t-142 -81t-168 -27.5h-80q-116 0 -212.5 49.5t-155 144.5t-58.5 217z" />
<glyph unicode="6" horiz-adv-x="1163" d="M115 422q-30 329 8 670q20 182 132 300.5t294 118.5h72q180 0 305 -119.5t125 -301.5v-29q0 -31 -31 -31h-62q-30 0 -30 31v29q0 136 -87 219.5t-220 83.5h-70q-133 0 -207 -78.5t-94 -192.5q-28 -157 -25 -307q41 52 123 87.5t193 35.5h75q228 0 342 -129t105 -387 q-4 -107 -40.5 -192t-97.5 -138.5t-138 -81.5t-164 -28h-97q-175 0 -283.5 115.5t-127.5 324.5zM238 422q27 -322 288 -322h97q135 0 224.5 81.5t92.5 240.5q3 198 -70.5 297.5t-253.5 99.5h-77q-180 0 -249.5 -99.5t-51.5 -297.5z" />
<glyph unicode="7" horiz-adv-x="1165" d="M92 1405v51q0 31 31 31h919q31 0 31 -31v-47q0 -31 -8 -47q-277 -308 -461.5 -628t-288.5 -699q-12 -35 -41 -35h-61q-14 0 -19.5 14t-0.5 29q203 729 741 1331h-811q-31 0 -31 31z" />
<glyph unicode="8" horiz-adv-x="1173" d="M96 379v53q0 108 57.5 198t153.5 142q-85 46 -132.5 134t-47.5 190v32q0 99 50 186t143.5 142t207.5 55h117q114 0 207.5 -55t144 -142t50.5 -186v-32q0 -102 -48 -190t-133 -134q96 -52 153.5 -142t57.5 -198v-53q0 -164 -125 -280.5t-299 -116.5h-133 q-174 0 -299 116.5t-125 280.5zM219 379q0 -119 86 -199t215 -80h133q130 0 217.5 80.5t83.5 198.5v53q0 119 -87 199t-218 80h-125q-131 0 -218 -80t-87 -199v-53zM250 1096q0 -114 73.5 -190.5t200.5 -76.5h125q127 0 201 76.5t74 190.5v32q0 107 -76.5 186t-202.5 79 h-117q-128 0 -206 -80t-72 -185v-32z" />
<glyph unicode="9" horiz-adv-x="1165" d="M102 1071q4 107 41 192t97.5 138.5t138 81.5t164.5 28h96q175 0 284 -115.5t128 -324.5q30 -324 -9 -670q-20 -182 -132 -300.5t-294 -118.5h-71q-180 0 -305 119.5t-125 301.5v29q0 31 30 31h62q31 0 31 -31v-29q0 -136 87 -219.5t220 -83.5h69q133 0 207 78.5t94 192.5 q28 157 25 307q-41 -52 -122.5 -87.5t-192.5 -35.5h-76q-228 0 -342 129t-105 387zM225 1071q-3 -198 70.5 -297.5t253.5 -99.5h78q180 0 249.5 99.5t51.5 297.5q-27 322 -289 322h-96q-135 0 -225 -81.5t-93 -240.5z" />
<glyph unicode=":" horiz-adv-x="466" d="M154 31v116q0 31 30 31h99q30 0 30 -31v-116q0 -31 -30 -31h-99q-30 0 -30 31zM154 815v117q0 31 30 31h99q30 0 30 -31v-117q0 -31 -30 -31h-99q-30 0 -30 31z" />
<glyph unicode=";" horiz-adv-x="471" d="M154 31v157q0 31 30 31h99q13 0 20.5 -10t9.5 -23q6 -82 2 -186q-1 -44 -4 -72t-15 -66t-34 -67q-14 -18 -31 -18h-26q-13 0 -19 11.5t2 23.5q26 37 34.5 91t2.5 89l8 8h-49q-30 0 -30 31zM154 815v117q0 31 30 31h99q30 0 30 -31v-117q0 -31 -30 -31h-99q-30 0 -30 31z " />
<glyph unicode="&#x3c;" horiz-adv-x="983" d="M123 483q0 33 18 45l686 396q13 7 23 1.5t10 -18.5v-69q0 -39 -20 -50l-531 -305l531 -305q20 -11 20 -49v-70q0 -12 -10 -17.5t-23 1.5l-686 395q-18 12 -18 45z" />
<glyph unicode="=" horiz-adv-x="929" d="M123 467v61q0 31 31 31h622q31 0 31 -31v-61q0 -31 -31 -31h-622q-31 0 -31 31zM123 795v61q0 31 31 31h622q31 0 31 -31v-61q0 -31 -31 -31h-622q-31 0 -31 31z" />
<glyph unicode="&#x3e;" horiz-adv-x="983" d="M123 59v70q0 38 20 49l531 305l-531 305q-20 11 -20 50v69q0 13 9.5 18.5t23.5 -1.5l686 -396q18 -12 18 -45t-18 -45l-686 -395q-14 -7 -23.5 -1.5t-9.5 17.5z" />
<glyph unicode="?" horiz-adv-x="1040" d="M72 1042v39q-1 185 118.5 308.5t284.5 123.5h86q169 0 288.5 -123t119.5 -303q0 -86 -22 -152t-62.5 -110t-84.5 -71.5t-102 -48.5q-51 -19 -72.5 -28t-48 -23.5t-35.5 -28.5t-15.5 -35.5t-6.5 -52.5v-154q0 -31 -31 -31h-61q-31 0 -31 31v154q0 74 23 123.5t66.5 81 t121.5 61.5q40 15 66.5 27t56.5 30t48.5 38t35 47t24 62.5t7.5 79.5q0 134 -81 219t-204 85h-86q-118 0 -198 -85.5t-80 -224.5v-39q0 -30 -31 -30h-64q-30 0 -30 30zM389 31v75q0 31 31 31h78q30 0 30 -31v-75q0 -31 -30 -31h-78q-31 0 -31 31z" />
<glyph unicode="@" horiz-adv-x="1282" d="M123 465v559q0 141 66.5 254t174.5 173t234 60h94q122 0 228.5 -60t172.5 -170t66 -243v-575q0 -75 -41.5 -120.5t-109.5 -45.5h-25q-40 0 -79 29t-54 73q-104 -104 -240 -104h-20q-111 0 -185.5 73t-74.5 177q0 110 79.5 183t208.5 73h207v10q0 112 -39 162.5t-124 50.5 h-35q-52 0 -93.5 -14t-57 -25.5t-48.5 -40.5q-26 -22 -45 0l-37 43q-18 22 -2 41q55 60 119 89.5t164 29.5h35q129 0 207.5 -90t78.5 -246v-348q0 -22 9 -33.5t34 -11.5q26 0 35.5 11.5t9.5 33.5v575q0 155 -101.5 253t-242.5 98h-94q-148 0 -250 -99.5t-102 -265.5v-559 q0 -167 102 -268t250 -101h94q80 0 156 47q37 23 37 -16v-76q0 -25 -23 -37q-87 -41 -170 -41h-94q-126 0 -234 61.5t-174.5 175.5t-66.5 255zM453 545q0 -58 36 -92.5t101 -34.5h20q41 0 72.5 9t59 32t41 38.5t42.5 51.5v129h-207q-165 0 -165 -133z" />
<glyph unicode="A" horiz-adv-x="1226" d="M86 33l457 1427q10 33 39 33h65q29 0 39 -33l455 -1427q3 -8 3 -14q0 -19 -28 -19h-63q-30 0 -39 33l-121 389h-559l-123 -389q-9 -33 -37 -33h-65q-26 0 -26 19q0 6 3 14zM373 541h483l-240 768z" />
<glyph unicode="B" horiz-adv-x="1200" d="M133 37v1413q0 37 37 37h477q177 0 289.5 -100t112.5 -277q0 -257 -179 -346q108 -49 162.5 -138t54.5 -233q0 -189 -108 -291t-309 -102h-500q-37 0 -37 37zM256 119h414q142 0 218.5 71t76.5 203q0 144 -78.5 225.5t-214.5 81.5h-416v-581zM256 819h416q119 0 186.5 81 t67.5 210q0 130 -75 194t-204 64h-391v-549z" />
<glyph unicode="C" horiz-adv-x="1159" d="M102 465v557q0 132 60.5 245t160.5 177.5t214 64.5h94q110 0 207.5 -64.5t157 -174t61.5 -234.5q0 -30 -31 -30h-61q-33 0 -33 30q0 144 -89.5 249.5t-211.5 105.5h-94q-129 0 -220.5 -107t-91.5 -262v-557q0 -156 92 -264.5t220 -108.5h94q122 0 212 106q89 105 89 250 q0 33 33 33h61q31 0 31 -30q-1 -125 -60.5 -236t-157.5 -176.5t-208 -65.5h-94q-85 0 -165 39.5t-139.5 105t-95 157t-35.5 190.5z" />
<glyph unicode="D" horiz-adv-x="1181" d="M123 31v1425q0 31 31 31h489q110 0 208.5 -65t158 -176.5t59.5 -239.5v-525q0 -128 -59.5 -239.5t-158 -176.5t-208.5 -65h-489q-31 0 -31 31zM246 119h393q126 0 216.5 106.5t90.5 259.5v516q0 153 -91 260t-216 107h-393v-1249z" />
<glyph unicode="E" horiz-adv-x="1097" d="M143 31v1425q0 31 31 31h760q31 0 31 -31v-57q0 -31 -31 -31h-668v-559h535q30 0 30 -31v-57q0 -31 -30 -31h-535v-571h668q31 0 31 -31v-57q0 -31 -31 -31h-760q-31 0 -31 31z" />
<glyph unicode="F" horiz-adv-x="1036" d="M143 31v1425q0 31 31 31h760q31 0 31 -31v-57q0 -31 -31 -31h-668v-580h535q30 0 30 -30v-58q0 -30 -30 -30h-535v-639q0 -31 -30 -31h-62q-31 0 -31 31z" />
<glyph unicode="G" horiz-adv-x="1181" d="M113 459v563q0 99 35.5 189.5t94.5 155.5t139 103.5t165 38.5h94q110 0 207.5 -64.5t157 -174t61.5 -234.5q0 -30 -31 -30h-61q-33 0 -33 30q0 146 -89.5 250.5t-211.5 104.5h-94q-129 0 -220 -107t-91 -262v-563q0 -155 90 -261t221 -106h94q125 0 214 106.5t89 260.5 v188h-299q-31 0 -31 31v57q0 31 31 31h393q31 0 31 -31v-276q0 -131 -59.5 -243.5t-158 -177.5t-210.5 -65h-94q-116 0 -216 65t-159 177t-59 244z" />
<glyph unicode="H" horiz-adv-x="1210" d="M133 31v1425q0 31 31 31h61q31 0 31 -31v-688h698v688q0 31 31 31h62q30 0 30 -31v-1425q0 -31 -30 -31h-62q-31 0 -31 31v618h-698v-618q0 -31 -31 -31h-61q-31 0 -31 31z" />
<glyph unicode="I" horiz-adv-x="409" d="M143 31v1425q0 31 31 31h62q30 0 30 -31v-1425q0 -31 -30 -31h-62q-31 0 -31 31z" />
<glyph unicode="J" horiz-adv-x="1081" d="M86 274q-4 8 -4 15q0 16 20 26l60 25q28 12 37 -18q40 -106 119 -162t210 -56t219.5 102t88.5 261v989q0 31 30 31h62q30 0 30 -31v-989q0 -207 -126 -344t-304 -137q-167 0 -278 76.5t-164 211.5z" />
<glyph unicode="K" horiz-adv-x="1138" d="M123 31v1425q0 31 31 31h61q31 0 31 -31v-749l604 743q27 37 51 37h72q16 0 20 -14.5t-12 -36.5l-571 -707l637 -680q10 -10 10 -23q0 -4 -1 -8q-3 -18 -22 -18h-73q-27 0 -56 29l-575 610l-84 -100v-508q0 -31 -31 -31h-61q-31 0 -31 31z" />
<glyph unicode="L" horiz-adv-x="1107" d="M133 31v1425q0 31 31 31h61q31 0 31 -31v-1337h709q30 0 30 -31v-57q0 -31 -30 -31h-801q-31 0 -31 31z" />
<glyph unicode="M" horiz-adv-x="1468" d="M133 31v1425q0 31 31 31h135q32 0 41 -31l393 -1259l395 1259q9 31 41 31h136q30 0 30 -31v-1425q0 -31 -30 -31h-62q-31 0 -31 31v1321l-413 -1321q-9 -31 -39 -31h-51q-30 0 -39 31l-414 1321v-1321q0 -31 -31 -31h-61q-31 0 -31 31z" />
<glyph unicode="N" horiz-adv-x="1255" d="M133 31v1425q0 31 31 31h135q25 0 37 -23l663 -1341v1333q0 31 31 31h62q30 0 30 -31v-1425q0 -31 -30 -31h-136q-24 0 -36 23l-664 1341v-1333q0 -31 -31 -31h-61q-31 0 -31 31z" />
<glyph unicode="O" horiz-adv-x="1200" d="M123 475v545q0 202 126.5 345.5t303.5 143.5h94q177 0 303.5 -143.5t126.5 -345.5v-545q0 -202 -126.5 -345.5t-303.5 -143.5h-94q-177 0 -303.5 143.5t-126.5 345.5zM246 475q0 -158 89 -266q88 -107 220 -107h2h86q133 1 222 108.5t89 264.5v545q0 157 -89 264 t-222 107h-86q-133 0 -222 -107t-89 -264v-545z" />
<glyph unicode="P" horiz-adv-x="1122" d="M133 31v1425q0 31 31 31h487q184 0 292 -112.5t108 -307.5t-108 -307.5t-292 -112.5h-395v-616q0 -31 -31 -31h-61q-31 0 -31 31zM256 766h395q277 0 277 301t-277 301h-395v-602z" />
<glyph unicode="Q" horiz-adv-x="1202" d="M123 475v545q0 202 126.5 345.5t303.5 143.5h94q177 0 303.5 -143.5t126.5 -345.5v-545q0 -167 -92 -303l84 -84q11 -10 11 -21.5t-11 -23.5l-43 -43q-22 -22 -43 0l-82 82q-113 -96 -254 -96h-94q-177 0 -303.5 143.5t-126.5 345.5zM246 475q0 -158 89 -266 q88 -107 220 -107h2h86q95 0 176 62l-127 127q-21 21 0 45l43 43q21 21 43 0l121 -121q55 96 55 217v545q0 157 -89 264t-222 107h-86q-133 0 -222 -107t-89 -264v-545z" />
<glyph unicode="R" horiz-adv-x="1161" d="M123 31v1425q0 31 31 31h487q184 0 291.5 -112t107.5 -308q0 -253 -178 -356q89 -45 138 -133.5t49 -210.5v-336q0 -13 -8.5 -22t-22.5 -9h-62q-13 0 -21.5 8.5t-8.5 22.5v329q0 144 -71.5 215.5t-190.5 71.5h-418v-616q0 -31 -31 -31h-61q-31 0 -31 31zM246 766h395 q277 0 277 301t-277 301h-395v-602z" />
<glyph unicode="S" horiz-adv-x="1179" d="M113 387v55q0 31 30 31h64q31 0 31 -31l2 -55q4 -135 95.5 -214t221.5 -79h72q133 0 224 81.5t91 217.5q0 73 -22.5 126t-66.5 85t-92 49.5t-116 30.5l-108 21q-418 78 -418 401q0 181 116 292t287 111h107q108 0 203.5 -53t156 -153t60.5 -224v-35q0 -30 -31 -30h-64 q-30 0 -30 30v35q0 141 -91.5 226.5t-218.5 85.5h-84q-129 0 -208.5 -75t-79.5 -210q0 -68 21 -117.5t62.5 -81.5t92 -51.5t119.5 -32.5l108 -20q71 -14 129.5 -34t114 -53t93.5 -76.5t60.5 -106.5t22.5 -140q0 -123 -60.5 -220t-158 -147.5t-211.5 -50.5h-94 q-82 0 -159.5 30t-137.5 82.5t-96.5 131t-36.5 168.5z" />
<glyph unicode="T" horiz-adv-x="1144" d="M92 1399v57q0 31 31 31h899q31 0 31 -31v-57q0 -31 -31 -31h-387v-1337q0 -31 -31 -31h-61q-31 0 -31 31v1337h-389q-31 0 -31 31z" />
<glyph unicode="U" horiz-adv-x="1171" d="M113 446v1010q0 31 30 31h62q31 0 31 -31v-1010q0 -153 88.5 -247.5t240.5 -94.5h41q152 0 241 94.5t89 247.5v1010q0 31 31 31h61q31 0 31 -31v-1010q0 -198 -125.5 -329t-321.5 -131h-53q-196 0 -321 131t-125 329z" />
<glyph unicode="V" horiz-adv-x="1222" d="M94 1454q-2 7 -2 12q0 21 27 21h69q28 0 37 -33l385 -1259l387 1259q9 33 37 33h70q26 0 26 -20q0 -6 -2 -13l-446 -1421q-10 -33 -39 -33h-63q-29 0 -39 33z" />
<glyph unicode="W" horiz-adv-x="1900" d="M94 1456q-2 6 -2 12q0 19 27 19h67q31 0 37 -31l293 -1255l361 1255q9 31 38 31h70q30 0 39 -31l362 -1255l291 1255q6 31 35 31h68q27 0 27 -22q0 -4 -1 -9l-348 -1425q-8 -31 -39 -31h-61q-31 0 -39 31l-369 1257l-368 -1257q-8 -31 -39 -31h-62q-34 0 -39 31z" />
<glyph unicode="X" horiz-adv-x="1114" d="M95 8q-3 4 -3 9q0 6 4 14l393 712l-393 713q-4 8 -4 14q0 5 3 9q6 8 22 8h73q26 0 41 -31l326 -590l326 590q15 31 41 31h73q16 0 22 -8q3 -4 3 -9q0 -6 -4 -14l-393 -713l393 -712q4 -8 4 -14q0 -5 -3 -9q-6 -8 -22 -8h-73q-26 0 -41 31l-326 590l-326 -590 q-15 -31 -41 -31h-73q-16 0 -22 8z" />
<glyph unicode="Y" horiz-adv-x="1212" d="M96 1479q7 8 23 8h80q14 0 22.5 -7t18.5 -24l364 -670l369 670q10 17 18.5 24t22.5 7h80q16 0 22 -8q3 -3 3 -8q0 -6 -5 -15l-448 -803v-622q0 -31 -31 -31h-62q-30 0 -30 31v622l-445 803q-4 8 -4 14q0 5 2 9z" />
<glyph unicode="Z" horiz-adv-x="1107" d="M102 31v65q0 9 7 19l749 1253h-725q-31 0 -31 31v57q0 31 31 31h842q31 0 31 -31v-65q0 -9 -7 -19l-749 -1253h725q31 0 31 -31v-57q0 -31 -31 -31h-842q-31 0 -31 31z" />
<glyph unicode="[" horiz-adv-x="595" d="M133 -113v1712q0 31 31 31h268q31 0 31 -31v-61q0 -31 -31 -31h-176v-1527h176q31 0 31 -31v-62q0 -30 -31 -30h-268q-31 0 -31 30z" />
<glyph unicode="\" horiz-adv-x="804" d="M2 1456q-12 31 21 31h73q29 0 41 -31l623 -1425q7 -15 1 -23t-22 -8h-73q-26 0 -41 31z" />
<glyph unicode="]" horiz-adv-x="595" d="M133 -51q0 31 31 31h176v1527h-176q-31 0 -31 31v61q0 31 31 31h268q31 0 31 -31v-1712q0 -30 -31 -30h-268q-31 0 -31 30v62z" />
<glyph unicode="^" horiz-adv-x="800" d="M104 963l218 493q10 31 40 31h74q27 0 41 -31l217 -493q12 -31 -20 -31h-74q-29 0 -41 31l-160 362l-159 -362q-12 -31 -41 -31h-74q-33 0 -21 31z" />
<glyph unicode="_" horiz-adv-x="1196" d="M102 31v61q0 31 31 31h930q31 0 31 -31v-61q0 -31 -31 -31h-930q-31 0 -31 31z" />
<glyph unicode="`" horiz-adv-x="522" d="M106 1602q-17 36 21 36h90q31 0 43 -36l154 -379q7 -17 1 -27t-22 -10h-65q-24 0 -43 37z" />
<glyph unicode="a" horiz-adv-x="978" d="M92 283q0 124 81.5 202t209.5 78h348v47q0 113 -55 179.5t-139 66.5h-97q-77 0 -123 -22t-92 -68q-23 -24 -47 0l-35 39q-20 20 -2 41q63 66 131 94.5t168 28.5h97q128 0 220.5 -101t92.5 -258v-561q0 -15 4 -31q1 -5 1 -9q0 -9 -7 -9h-84q-33 0 -33 49v74 q-121 -125 -239 -125h-109h-8q-109 0 -195 82q-88 86 -88 203zM211 283q0 -71 52.5 -121.5t119.5 -50.5h109q42 1 78.5 13.5t66.5 38t49 46.5t45 55v187h-348q-81 0 -126.5 -45t-45.5 -123z" />
<glyph unicode="b" horiz-adv-x="1007" d="M143 31v1425q0 31 31 31h57q31 0 31 -31v-596q44 47 104 75t126 28h63q146 0 248 -112t102 -255v-250q0 -137 -107 -241.5t-243 -104.5h-63q-126 0 -230 100v-69q0 -31 -31 -31h-57q-31 0 -31 31zM262 227q46 -46 112.5 -80t117.5 -34h63q91 0 161 70.5t70 162.5v250 q0 98 -65 176t-166 78h-63q-81 0 -154.5 -59t-75.5 -123v-441z" />
<glyph unicode="c" horiz-adv-x="968" d="M102 365v233q0 96 52.5 182.5t137 137.5t175.5 51h74q76 0 153.5 -42.5t129 -111.5t53.5 -139q0 -33 -31 -33h-55q-14 0 -24.5 7t-10.5 20q-1 65 -71.5 125.5t-143.5 60.5h-74q-95 0 -170.5 -77.5t-75.5 -180.5v-233q0 -103 75.5 -178.5t170.5 -75.5h74q121 0 235 135 q20 23 43 6l43 -35q24 -18 6 -43q-145 -176 -327 -176h-74q-91 0 -175.5 50t-137 135.5t-52.5 181.5z" />
<glyph unicode="d" horiz-adv-x="997" d="M102 346v250q0 92 45 176t127 137.5t179 53.5h63q133 0 229 -103v596q0 31 31 31h58q30 0 30 -31v-1425q0 -31 -30 -31h-58q-31 0 -31 31v69q-104 -100 -229 -100h-63q-136 0 -243.5 104.5t-107.5 241.5zM221 346q0 -92 70.5 -162.5t161.5 -70.5h63q51 0 117 34t112 80 v441q-2 64 -75 123t-154 59h-63q-101 0 -166.5 -78t-65.5 -176v-250z" />
<glyph unicode="e" horiz-adv-x="974" d="M92 365v233q0 146 113.5 258.5t255.5 112.5h69q59 0 121.5 -28t114 -76t84.5 -118t33 -147v-84q0 -29 -17.5 -46t-48.5 -17h-602v-99q0 -100 74 -171.5t172 -71.5h59q135 0 246 131q22 25 43 6l39 -31q23 -20 6 -43q-66 -80 -145.5 -128t-188.5 -48h-59 q-143 0 -256 110.5t-113 256.5zM215 561h545v37q0 113 -74 185.5t-156 72.5h-69q-98 0 -172 -75.5t-74 -182.5v-37z" />
<glyph unicode="f" horiz-adv-x="761" d="M82 881v51q0 31 31 31h118v149q0 172 90 273.5t244 101.5h135q31 0 31 -31v-51q0 -31 -31 -31h-135q-103 0 -159 -69t-56 -193v-149h330q31 0 31 -31v-51q0 -31 -31 -31h-330v-819q0 -31 -31 -31h-57q-31 0 -31 31v819h-118q-31 0 -31 31z" />
<glyph unicode="g" horiz-adv-x="1001" d="M102 365v233q0 90 50 176t132.5 139.5t172.5 53.5h73q61 0 125 -28t107 -79v72q0 31 31 31h55q31 0 31 -31v-1041q0 -121 -101 -211t-252 -90h-49q-102 0 -187.5 40t-135.5 114q-17 26 18 41l51 22q27 12 45 -14q31 -44 86.5 -67t122.5 -23h49q84 0 159 50.5t75 133.5 v213q-94 -102 -232 -102h-51q-90 0 -177.5 53t-142.5 138.5t-55 175.5zM221 365q0 -92 81 -173t175 -81h51q54 0 118 32.5t114 77.5v465q0 66 -74.5 117t-159.5 51h-69q-92 0 -164 -81t-72 -175v-233z" />
<glyph unicode="h" horiz-adv-x="1024" d="M123 31v1425q0 31 31 31h57q31 0 31 -31v-614q96 121 278 121h31q156 0 248 -101.5t92 -257.5v-573q0 -31 -31 -31h-57q-31 0 -31 31v571q0 110 -64 179t-178 69h-59q-86 0 -157.5 -59t-71.5 -134v-626q0 -31 -31 -31h-57q-31 0 -31 31z" />
<glyph unicode="i" horiz-adv-x="405" d="M143 31v903q0 31 31 31h57q31 0 31 -31v-903q0 -31 -31 -31h-57q-31 0 -31 31zM147 1354v102q0 31 31 31h51q31 0 31 -31v-102q0 -31 -31 -31h-51q-31 0 -31 31z" />
<glyph unicode="j" horiz-adv-x="442" d="M-8 -319q-2 7 -2 12q0 17 20 24q58 21 105 70.5t47 106.5v1040q0 31 31 31h51q30 0 30 -31v-1036q0 -90 -63.5 -173t-159.5 -118q-7 -3 -13 -3q-18 0 -26 23zM162 1354v102q0 31 31 31h51q30 0 30 -31v-102q0 -31 -30 -31h-51q-31 0 -31 31z" />
<glyph unicode="k" horiz-adv-x="1015" d="M143 31v1425q0 31 31 31h57q31 0 31 -31v-944l473 426q29 25 45 25h74q10 0 18 -10t5.5 -26.5t-17.5 -29.5l-381 -348l443 -502q11 -12 11 -25q-1 -3 -1 -6q-4 -16 -23 -16h-71q-31 0 -56 29l-393 446l-127 -108v-336q0 -31 -31 -31h-57q-31 0 -31 31z" />
<glyph unicode="l" horiz-adv-x="385" d="M133 31v1425q0 31 31 31h57q31 0 31 -31v-1425q0 -31 -31 -31h-57q-31 0 -31 31z" />
<glyph unicode="m" horiz-adv-x="1662" d="M123 31v901q0 31 31 31h57q31 0 31 -31v-90q51 65 116.5 93t153.5 28h31q92 0 167 -43.5t121 -116.5q113 160 330 160h31q152 0 250 -108.5t98 -258.5v-565q0 -31 -31 -31h-57q-31 0 -31 31v565q0 106 -63.5 180t-173.5 74h-64q-86 0 -157.5 -59t-71.5 -134v-626 q0 -31 -31 -31h-57q-31 0 -31 31v565q0 106 -63.5 180t-173.5 74h-64q-86 0 -157.5 -59t-71.5 -134v-626q0 -31 -31 -31h-57q-31 0 -31 31z" />
<glyph unicode="n" d="M123 31v901q0 31 31 31h57q31 0 31 -31v-90q96 121 278 121h31q156 0 248 -101.5t92 -257.5v-573q0 -31 -31 -31h-57q-31 0 -31 31v571q0 110 -64 179t-178 69h-59q-86 0 -157.5 -59t-71.5 -134v-626q0 -31 -31 -31h-57q-31 0 -31 31z" />
<glyph unicode="o" horiz-adv-x="1017" d="M102 385v193q0 156 107 273.5t260 117.5h80q150 0 258 -117.5t108 -273.5v-193q0 -155 -107.5 -271t-258.5 -116h-80q-153 0 -260 115.5t-107 271.5zM221 385q0 -111 70.5 -192.5t177.5 -81.5h80q105 0 176.5 82t71.5 192v193q0 110 -71.5 194t-176.5 84h-80 q-107 0 -177.5 -83.5t-70.5 -194.5v-193z" />
<glyph unicode="p" horiz-adv-x="1007" d="M143 -379v1311q0 31 31 31h57q31 0 31 -31v-72q44 47 104 75t126 28h63q146 0 248 -112t102 -255v-250q0 -137 -107 -241.5t-243 -104.5h-63q-126 0 -230 100v-479q0 -31 -31 -31h-57q-31 0 -31 31zM262 227q46 -46 112.5 -80t117.5 -34h63q91 0 161 70.5t70 162.5v250 q0 98 -65 176t-166 78h-63q-81 0 -154.5 -59t-75.5 -123v-441z" />
<glyph unicode="q" horiz-adv-x="1007" d="M102 346v250q0 92 45 176t127 137.5t179 53.5h63q133 0 229 -103v72q0 31 31 31h58q30 0 30 -31v-1311q0 -31 -30 -31h-58q-31 0 -31 31v479q-104 -100 -229 -100h-63q-136 0 -243.5 104.5t-107.5 241.5zM221 346q0 -92 70.5 -162.5t161.5 -70.5h63q51 0 117 34t112 80 v441q-2 64 -75 123t-154 59h-63q-101 0 -166.5 -78t-65.5 -176v-250z" />
<glyph unicode="r" horiz-adv-x="831" d="M123 31v901q0 31 31 31h57q31 0 31 -31v-86q97 117 233 117h68q125 0 225 -97q11 -11 11 -22.5t-11 -22.5l-35 -35q-21 -22 -43 0q-68 64 -147 64h-74q-87 0 -157 -56t-70 -126v-637q0 -31 -31 -31h-57q-31 0 -31 31z" />
<glyph unicode="s" horiz-adv-x="978" d="M102 263q0 11 7 17q9 8 24 9h62q29 0 32 -29q7 -68 77 -113t155 -45h51q104 0 176 42.5t72 123.5q0 21 -5 38.5t-11 30.5t-20.5 24t-25 18t-33.5 14t-36 10.5t-43 7.5t-45 5.5t-50 5.5q-72 8 -125.5 19.5t-103 32t-80 50t-49 74t-18.5 102.5q0 128 101.5 199.5 t250.5 71.5h57q131 0 238 -85t110 -210q0 -33 -28 -33h-60q-34 0 -34 27q-1 80 -70.5 134t-155.5 54h-57q-106 0 -170 -37.5t-64 -120.5q0 -43 17 -73t54 -48t79 -27.5t108 -16.5q63 -8 105.5 -15.5t91.5 -20.5t80 -31.5t58.5 -45.5t40 -65.5t12.5 -88.5q0 -85 -53.5 -149.5 t-136 -96.5t-177.5 -32h-51q-129 0 -238 78q-119 84 -119 195z" />
<glyph unicode="t" horiz-adv-x="602" d="M61 881v49q0 33 31 33h109v213q0 30 30 30h58q30 0 30 -30v-213h154q33 0 33 -31v-51q0 -31 -31 -31h-156v-569q0 -48 16.5 -82t43.5 -50.5t52.5 -23.5t53.5 -8q15 0 25 -7t10 -20v-61q0 -33 -26 -33h-14q-47 0 -90 12q-50 14 -93.5 44t-69.5 85t-26 129v584h-109 q-31 0 -31 31z" />
<glyph unicode="u" d="M123 358v574q0 31 31 31h57q31 0 31 -31v-572q0 -110 63.5 -178.5t177.5 -68.5h60q86 0 157.5 58.5t71.5 133.5v627q0 31 31 31h57q31 0 31 -31v-901q0 -31 -31 -31h-57q-31 0 -31 31v90q-96 -121 -278 -121h-31q-156 0 -248 101t-92 257z" />
<glyph unicode="v" horiz-adv-x="935" d="M86 928q-3 8 -3 14q1 7 5 12q8 9 23 9h65q25 0 37 -35l254 -735l256 735q12 35 37 35h65q15 0 23 -9q4 -5 5 -12q0 -6 -3 -14l-311 -895q-10 -33 -39 -33h-64q-26 0 -39 33z" />
<glyph unicode="w" horiz-adv-x="1425" d="M84 928q-2 7 -2 13q0 22 27 22h65q28 0 37 -35l188 -735l244 735q11 35 37 35h65q23 0 37 -35l242 -735l190 735q9 35 37 35h66q26 0 26 -22q0 -6 -2 -13l-241 -895q-10 -33 -39 -33h-64q-26 0 -39 33l-245 725l-246 -725q-10 -33 -39 -33h-63q-26 0 -39 33z" />
<glyph unicode="x" horiz-adv-x="915" d="M84 11q-2 4 -2 9q0 8 6 17l299 450l-291 439q-10 15 -4 26t25 11h67q25 0 47 -35l228 -342l225 342q22 35 47 35h68q18 0 23 -11t-5 -26l-289 -439l299 -450q6 -9 6 -17q0 -5 -2 -9q-6 -11 -26 -11h-66q-25 0 -47 35l-235 356l-234 -356q-22 -35 -47 -35h-67 q-19 0 -25 11z" />
<glyph unicode="y" d="M76 926q-5 12 -5 20q0 17 23 17h70q29 0 43 -35l297 -715l301 715q14 35 45 35h68q23 0 23 -17q0 -8 -5 -20l-545 -1301q-14 -35 -45 -35h-67q-36 0 -21 37l182 432z" />
<glyph unicode="z" horiz-adv-x="905" d="M82 31v59q0 18 10 31l586 729h-565q-31 0 -31 31v49q0 33 31 33h678q32 0 32 -31v-68q0 -13 -10 -26l-584 -725h562q32 0 32 -31v-51q0 -31 -30 -31h-680q-31 0 -31 31z" />
<glyph unicode="{" horiz-adv-x="798" d="M141 721q-14 23 0 45l92 113q15 18 15 36v330q0 173 90.5 279t243.5 106h53q31 0 31 -31v-61q0 -31 -31 -31h-53q-103 0 -157 -68.5t-54 -193.5v-350q0 -19 -15 -37l-88 -115l90 -114q13 -19 13 -37v-350q0 -125 54 -193.5t157 -68.5h53q31 0 31 -31v-62q0 -30 -31 -30 h-53q-153 0 -243.5 106t-90.5 279v329q0 19 -15 37z" />
<glyph unicode="|" horiz-adv-x="450" d="M164 -379v1987q0 30 31 30h61q31 0 31 -30v-1987q0 -31 -31 -31h-61q-31 0 -31 31z" />
<glyph unicode="}" horiz-adv-x="798" d="M133 -51q0 31 31 31h53q103 0 157 68.5t54 193.5v350q0 19 12 37l90 114l-88 115q-14 17 -14 37v350q0 125 -54 193.5t-157 68.5h-53q-31 0 -31 31v61q0 31 31 31h53q153 0 243.5 -106t90.5 -279v-330q0 -19 14 -36l92 -113q14 -22 0 -45l-92 -113q-14 -17 -14 -37v-329 q0 -173 -90.5 -279t-243.5 -106h-53q-31 0 -31 30v62z" />
<glyph unicode="~" horiz-adv-x="1075" d="M106 745q-13 23 21 46q102 74 212.5 76.5t213.5 -64.5q99 -61 174.5 -58.5t177.5 70.5q20 13 35 -16l29 -56q13 -23 -21 -45q-102 -74 -212.5 -76.5t-213.5 64.5q-99 61 -174.5 58.5t-177.5 -70.5q-20 -14 -35 16z" />
<glyph unicode="&#xa1;" horiz-adv-x="446" d="M154 971v76q0 30 30 30h78q31 0 31 -30v-76q0 -31 -31 -31h-78q-30 0 -30 31zM162 -379v1073q0 31 31 31h61q31 0 31 -31v-1073q0 -31 -31 -31h-61q-31 0 -31 31z" />
<glyph unicode="&#xa2;" horiz-adv-x="985" d="M102 365v233q0 139 103 249t237 122v225q0 31 31 31h62q30 0 30 -31v-227q112 -11 210.5 -100.5t101.5 -190.5q0 -33 -31 -33h-55q-14 0 -24.5 7t-10.5 20q-1 59 -61.5 116t-129.5 68v-741q111 14 211 133q20 23 43 6l43 -35q24 -18 6 -43q-133 -164 -303 -176v-229 q0 -31 -30 -31h-62q-31 0 -31 31v229q-134 11 -237 119.5t-103 247.5zM221 365q0 -97 66 -170t155 -82v741q-89 -11 -155 -85t-66 -171v-233z" />
<glyph unicode="&#xa3;" horiz-adv-x="1253" d="M104 698v62q0 31 31 31h168q-54 152 -65 233q-13 97 17 188.5t89 156t140 103.5t167 39h74q110 0 207.5 -64.5t157 -174t61.5 -234.5q0 -30 -31 -30h-61q-33 0 -33 30q0 144 -89.5 247.5t-211.5 103.5h-74q-132 0 -220 -107t-64 -258q3 -16 6.5 -33.5t6 -30.5t8.5 -32 t8.5 -27.5t9.5 -29.5t8.5 -26t10 -28.5t9.5 -25.5h352q31 0 31 -31v-62q0 -30 -31 -30h-315q13 -56 10 -107q-7 -116 -27.5 -208t-68.5 -189q57 24 110.5 28.5t102.5 -7t113 -38.5q98 -39 172.5 -36t181.5 49q14 6 22.5 -4.5t8.5 -26.5v-68q0 -4 -0.5 -7t-1 -5t-3 -4 t-3.5 -3.5t-4.5 -3t-5 -2t-6.5 -2.5t-7 -3q-108 -45 -195 -44.5t-190 44.5q-111 44 -190 35.5t-191 -68.5q-13 -7 -48.5 31t-29.5 53q68 165 95 259.5t34 219.5q3 51 -10 107h-205q-31 0 -31 30z" />
<glyph unicode="&#xa4;" horiz-adv-x="1128" d="M123 45q-21 21 0 43l86 84q-62 100 -62 213v193q0 113 62 213l-86 83q-22 22 0 44l43 43q22 21 43 0l78 -78q99 86 227 86h80q128 0 237 -97l89 89q22 21 43 0l43 -43q22 -22 0 -44l-99 -98q54 -97 54 -198v-193q0 -102 -54 -199l99 -98q22 -22 0 -43l-43 -43 q-21 -22 -43 0l-91 90q-100 -94 -235 -94h-80q-127 0 -225 82l-80 -78q-21 -22 -43 0zM266 385q0 -82 39 -149l70 -70l-6 -6q65 -49 145 -49h80q105 0 176.5 82t71.5 192v193q0 110 -71.5 194t-176.5 84h-80q-82 0 -145 -53l6 -6l-70 -70q-39 -70 -39 -149v-193z" />
<glyph unicode="&#xa5;" horiz-adv-x="1171" d="M96.5 1479q6.5 8 22.5 8h80q14 0 22.5 -7t18.5 -24l364 -670l369 670q10 17 18.5 24t22.5 7h80q16 0 22 -8t-2 -23l-448 -803v-78h317q31 0 31 -30v-62q0 -30 -31 -30h-317v-115h317q31 0 31 -31v-61q0 -31 -31 -31h-317v-184q0 -31 -31 -31h-62q-30 0 -30 31v184h-334 q-31 0 -31 31v61q0 31 31 31h334v115h-334q-31 0 -31 30v62q0 30 31 30h334v78l-445 803q-8 15 -1.5 23z" />
<glyph unicode="&#xa6;" horiz-adv-x="450" d="M164 -236v662q0 31 31 31h61q31 0 31 -31v-662q0 -30 -31 -30h-61q-31 0 -31 30zM164 803v661q0 31 31 31h61q31 0 31 -31v-661q0 -31 -31 -31h-61q-31 0 -31 31z" />
<glyph unicode="&#xa7;" horiz-adv-x="1241" d="M143 4v59q0 31 31 31h64q30 0 30 -31l2 -59q4 -131 92 -211t211 -80h95q129 0 218 81t89 216q0 71 -22.5 123.5t-66 85t-92.5 51t-116 31.5l-109 21q-194 36 -305.5 134.5t-111.5 268.5q0 146 75 242q-75 93 -75 229q0 179 116.5 292.5t286.5 113.5h107q80 0 156.5 -32.5 t134.5 -89t93.5 -138t34.5 -173.5v-39q0 -30 -30 -30h-64q-31 0 -31 30v39q0 138 -87 224t-207 86h-107q-125 0 -203 -75.5t-78 -207.5q0 -126 76.5 -190t218.5 -91l109 -20q89 -17 160.5 -47t132 -78.5t94 -122t33.5 -166.5q0 -128 -74 -237q74 -97 74 -234 q0 -120 -60 -217.5t-158 -150t-212 -52.5h-95q-110 0 -208 52t-160 148.5t-62 213.5zM274 725q0 -126 76.5 -190t218.5 -91l109 -20q156 -30 256 -98q41 65 41 155q0 71 -22.5 123.5t-66 85t-92.5 51t-116 31.5l-109 21q-151 28 -254 94q-41 -65 -41 -162z" />
<glyph unicode="&#xa8;" horiz-adv-x="1011" d="M123 1350v106q0 31 31 31h98q31 0 31 -31v-106q0 -31 -31 -31h-98q-31 0 -31 31zM729 1350v106q0 31 31 31h98q31 0 31 -31v-106q0 -31 -31 -31h-98q-31 0 -31 31z" />
<glyph unicode="&#xa9;" horiz-adv-x="1282" d="M123 463v559q0 99 37.5 190t99 156t144 104t169.5 39h136q87 0 169.5 -39t144 -104t99 -156t37.5 -190v-559q0 -132 -63 -245.5t-166.5 -179t-220.5 -65.5h-136q-117 0 -220.5 65.5t-166.5 179t-63 245.5zM246 463q0 -154 97 -260.5t230 -106.5h136q133 0 230 106.5 t97 260.5v559q0 154 -97 260.5t-230 106.5h-136q-133 0 -230 -106.5t-97 -260.5v-559zM362 528v428q0 130 71.5 208.5t180.5 78.5h60q105 0 175 -76.5t71 -199.5q0 -19 -21 -19h-82q-22 0 -22 19q0 149 -121 149h-60q-67 0 -98 -38t-31 -122v-428q0 -83 31.5 -122t97.5 -39 h60q124 0 121 153q0 19 22 19h82q21 0 21 -19q-1 -124 -70.5 -201t-175.5 -77h-60q-109 0 -180.5 78t-71.5 208z" />
<glyph unicode="&#xaa;" horiz-adv-x="653" d="M102 1122q0 73 52.5 117.5t138.5 44.5h172q-3 115 -100 115h-50q-85 0 -141 -49q-8 -6 -17 -6.5t-14 6.5l-24 32q-12 15 0 27q75 78 196 78h50q78 0 130 -60.5t52 -146.5v-285q0 -14 2 -20q2 -3 1 -7.5t-5 -4.5h-58q-22 0 -22 32v13q-63 -45 -141 -45h-31 q-79 0 -135 42.5t-56 116.5zM188 1122q0 -71 105 -71h31q84 0 141 53v92h-172q-105 0 -105 -74z" />
<glyph unicode="&#xab;" horiz-adv-x="1193" d="M113 489v74q0 7 1 11.5t4.5 9t5.5 6.5t9 7t10 7l385 285q14 10 25.5 4t11.5 -21v-114q0 -14 -8 -22t-29 -23l-254 -187l254 -186q15 -10 20.5 -14.5t11 -12.5t5.5 -18v-115q0 -15 -11.5 -20.5t-25.5 4.5l-385 285q-3 3 -8 6.5t-7.5 5t-6 5t-5 6.5t-2.5 7t-1 10zM629 489 v74q0 7 1 11.5t4.5 9t5.5 6.5t9 7t10 7l385 285q14 10 25.5 4t11.5 -21v-114q0 -14 -8 -22t-29 -23l-253 -187l253 -186q15 -10 20.5 -14.5t11 -12.5t5.5 -18v-115q0 -15 -11.5 -20.5t-25.5 4.5l-385 285q-3 3 -8 6.5t-7.5 5t-6 5t-5 6.5t-2.5 7t-1 10z" />
<glyph unicode="&#xac;" horiz-adv-x="1052" d="M123 631v61q0 31 31 31h745q31 0 31 -31v-403q0 -31 -31 -31h-61q-31 0 -31 31v311h-653q-31 0 -31 31z" />
<glyph unicode="&#xad;" horiz-adv-x="888" d="M143 487v62q0 31 31 31h541q30 0 30 -31v-62q0 -30 -30 -30h-541q-31 0 -31 30z" />
<glyph unicode="&#xae;" horiz-adv-x="1282" d="M123 463v559q0 99 37.5 190t99 156t144 104t169.5 39h136q87 0 169.5 -39t144 -104t99 -156t37.5 -190v-559q0 -132 -63 -245.5t-166.5 -179t-220.5 -65.5h-136q-117 0 -220.5 65.5t-166.5 179t-63 245.5zM246 463q0 -154 97 -260.5t230 -106.5h136q133 0 230 106.5 t97 260.5v559q0 154 -97 260.5t-230 106.5h-136q-133 0 -230 -106.5t-97 -260.5v-559zM389 319v830q0 25 17.5 42t42.5 17h221q110 0 174.5 -71.5t64.5 -194.5q0 -141 -88 -219q84 -72 84 -207v-197q0 -15 -9 -25.5t-22 -10.5h-55q-13 0 -22 10.5t-9 25.5v193 q0 82 -24.5 117t-93.5 35h-160v-345q0 -17 -8.5 -26.5t-22.5 -9.5h-59q-31 0 -31 36zM510 784h160q77 0 100 36t23 122q0 85 -22.5 115t-100.5 30h-160v-303z" />
<glyph unicode="&#xaf;" horiz-adv-x="1011" d="M143 1399v57q0 31 31 31h664q30 0 30 -31v-57q0 -31 -30 -31h-664q-31 0 -31 31z" />
<glyph unicode="&#xb0;" horiz-adv-x="923" d="M164 1165v23q0 133 76 216t206 83h31q128 0 205.5 -83.5t77.5 -215.5v-23q0 -132 -77.5 -215.5t-205.5 -83.5h-31q-130 0 -206 83t-76 216zM285 1167q0 -85 41.5 -131.5t124.5 -46.5h26q82 0 123 46.5t41 131.5v19q0 86 -41 133t-123 47h-26q-83 0 -124.5 -46.5 t-41.5 -133.5v-19z" />
<glyph unicode="&#xb1;" horiz-adv-x="1052" d="M123 31v61q0 31 31 31h747q29 0 29 -31v-61q0 -31 -31 -31h-745q-31 0 -31 31zM123 631v61q0 31 31 31h313v332q0 30 31 30h61q31 0 31 -30v-332h311q29 0 29 -31v-61q0 -31 -31 -31h-309v-334q0 -30 -31 -30h-61q-31 0 -31 30v334h-313q-31 0 -31 31z" />
<glyph unicode="&#xb2;" horiz-adv-x="655" d="M123 1290v27q0 68 51.5 119t124.5 51h51q79 0 129.5 -61t50.5 -136q0 -55 -33 -103.5t-98 -113.5l-104 -104l207 4q30 0 30 -31v-59q0 -31 -30 -31h-344q-31 0 -31 31v49q0 18 4.5 32t8.5 19.5t19.5 21t22.5 23.5l144 154q8 8 25 24t27 26t19 26t9 32q0 33 -24 56.5 t-60 23.5q-32 0 -54 -19t-22 -46v-15q0 -30 -31 -30h-61q-31 0 -31 30z" />
<glyph unicode="&#xb3;" horiz-adv-x="653" d="M123 1024v27q0 30 31 30h61q31 0 31 -30v-15q0 -27 22 -46t54 -19q38 0 61 19t23 52q0 32 -22 54t-56 22h-47q-31 0 -31 31v45q0 31 31 31h47q34 0 56 21.5t22 53.5q0 33 -23.5 52.5t-60.5 19.5q-32 0 -54 -19t-22 -46v-15q0 -30 -31 -30h-61q-31 0 -31 30v27 q0 68 51.5 119t124.5 51h51q80 0 130 -56t50 -130q0 -70 -69 -132q69 -62 69 -131q0 -74 -50 -130t-130 -56h-51q-73 0 -124.5 51t-51.5 119z" />
<glyph unicode="&#xb4;" horiz-adv-x="522" d="M105 1196q-6 10 1 27l154 379q12 36 43 36h90q38 0 21 -36l-178 -379q-19 -37 -43 -37h-66q-16 0 -22 10z" />
<glyph unicode="&#xb6;" horiz-adv-x="1153" d="M102 1067q0 195 108 307.5t292 112.5h487q31 0 31 -31v-1425q0 -31 -31 -31h-61q-31 0 -31 31v616h-135v-616q0 -31 -31 -31h-61q-31 0 -31 31v616h-137q-184 0 -292 112.5t-108 307.5zM225 1067q0 -297 277 -297h137v594h-137q-277 0 -277 -297zM762 770h135v594h-135 v-594z" />
<glyph unicode="&#xb7;" horiz-adv-x="364" d="M102 563v117q0 31 31 31h98q31 0 31 -31v-117q0 -31 -31 -31h-98q-31 0 -31 31z" />
<glyph unicode="&#xb8;" horiz-adv-x="700" d="M143 -242q0 21 19 21h82q8 0 14 -5t6 -12q1 -33 23 -47t69 -14h27q66 0 78 7q14 9 14 34q0 31 -35.5 42t-160.5 26q-24 2 -37 4q-12 1 -24.5 7.5t-24 21t-15.5 34t7.5 51.5t39.5 70q13 16 23 16h90q9 0 12.5 -5t-0.5 -11q-10 -14 -16 -25t-10 -19.5t-3 -16t1.5 -12 t7.5 -8.5t9 -6t13 -4.5t13.5 -3t15.5 -2t14 -1.5q101 -12 132 -26q70 -33 71 -132q0 -77 -43 -116.5t-139 -39.5h-92q-85 0 -132 47t-49 125z" />
<glyph unicode="&#xb9;" horiz-adv-x="618" d="M246 885v571q0 31 30 31h66q31 0 31 -31v-571q0 -31 -31 -31h-66q-30 0 -30 31z" />
<glyph unicode="&#xba;" horiz-adv-x="663" d="M102 219v88q0 88 60 152.5t147 64.5h45q85 0 146 -65t61 -152v-88q0 -90 -60.5 -154.5t-146.5 -64.5h-45q-87 0 -147 64.5t-60 154.5zM190 219q0 -54 33.5 -92.5t87.5 -38.5h41q52 0 87.5 39t35.5 92v88q0 53 -35.5 91t-87.5 38h-41q-54 0 -87.5 -37.5t-33.5 -91.5v-88z " />
<glyph unicode="&#xbb;" horiz-adv-x="1193" d="M113 180v115q0 14 8 22t29 23l253 186l-253 187q-15 10 -20.5 14.5t-11 12.5t-5.5 18v114q0 15 11.5 21t25.5 -4l385 -285q3 -2 10 -7t9 -7t5.5 -6.5t4.5 -9t1 -11.5v-74q0 -8 -3 -14.5t-4.5 -8.5t-11 -8.5t-11.5 -8.5l-385 -285q-14 -10 -25.5 -4.5t-11.5 20.5zM629 180 v115q0 14 8 22t29 23l254 186l-254 187q-15 10 -20.5 14.5t-11 12.5t-5.5 18v114q0 15 11.5 21t25.5 -4l385 -285q3 -2 10 -7t9 -7t5.5 -6.5t4.5 -9t1 -11.5v-74q0 -8 -3 -14.5t-4.5 -8.5t-11 -8.5t-11.5 -8.5l-385 -285q-14 -10 -25.5 -4.5t-11.5 20.5z" />
<glyph unicode="&#xbc;" horiz-adv-x="1511" d="M211 8q-6 8 2 23l827 1425q10 17 18.5 24t22.5 7h86q16 0 22.5 -8t-1.5 -23l-828 -1425q-10 -17 -18.5 -24t-22.5 -7h-86q-16 0 -22 8zM246 885v571q0 31 30 31h66q31 0 31 -31v-571q0 -31 -31 -31h-66q-30 0 -30 31zM946 209q0 8 8 24l217 388q7 14 29 14h98 q31 0 31 -31v-362h29q31 0 31 -31v-61q0 -31 -31 -31h-29v-88q0 -31 -31 -31h-61q-31 0 -31 31v88h-223q-28 0 -31 31zM1102 246h104v205z" />
<glyph unicode="&#xbd;" horiz-adv-x="1478" d="M211 8q-6 8 2 23l827 1425q10 17 18.5 24t22.5 7h86q16 0 22.5 -8t-1.5 -23l-828 -1425q-10 -17 -18.5 -24t-22.5 -7h-86q-16 0 -22 8zM246 885v571q0 31 30 31h66q31 0 31 -31v-571q0 -31 -31 -31h-66q-30 0 -30 31zM946 438v27q0 68 51.5 119t124.5 51h52 q79 0 129.5 -61t50.5 -136q0 -55 -33 -103.5t-98 -113.5l-105 -104l207 4q31 0 31 -31v-59q0 -31 -31 -31h-344q-31 0 -31 31v49q0 18 4.5 32t9 20t19.5 20.5t23 23.5l143 154q8 8 25 24t27 26t19 26t9 32q0 33 -24 56.5t-60 23.5q-32 0 -54 -19t-22 -46v-15q0 -30 -31 -30 h-61q-31 0 -31 30z" />
<glyph unicode="&#xbe;" horiz-adv-x="1546" d="M123 1024v27q0 30 31 30h61q31 0 31 -30v-15q0 -27 22 -46t54 -19q38 0 61 19t23 52q0 32 -22 54t-56 22h-47q-31 0 -31 31v45q0 31 31 31h47q34 0 56 21.5t22 53.5q0 33 -23.5 52.5t-60.5 19.5q-32 0 -54 -19t-22 -46v-15q0 -30 -31 -30h-61q-31 0 -31 30v27 q0 68 51.5 119t124.5 51h51q80 0 130 -56t50 -130q0 -70 -69 -132q69 -62 69 -131q0 -74 -50 -130t-130 -56h-51q-73 0 -124.5 51t-51.5 119zM246 8q-6 8 2 23l827 1425q10 17 18.5 24t22.5 7h86q16 0 22.5 -8t-1.5 -23l-828 -1425q-10 -17 -18.5 -24t-22.5 -7h-86 q-16 0 -22 8zM981 209q0 8 8 24l217 388q7 14 29 14h98q31 0 31 -31v-362h29q30 0 30 -31v-61q0 -31 -30 -31h-29v-88q0 -31 -31 -31h-61q-31 0 -31 31v88h-223q-28 0 -31 31zM1137 246h104v205z" />
<glyph unicode="&#xbf;" horiz-adv-x="1040" d="M72 -10q0 69 15 126t39.5 97t61 72t73 51.5t81.5 36.5q51 19 72.5 28t48 23.5t35.5 28.5t15.5 35.5t6.5 52.5v153q0 31 31 31h61q31 0 31 -31v-153q0 -108 -48 -165t-163 -102q-48 -18 -78.5 -32.5t-64 -38t-52 -51t-30.5 -68.5t-12 -94q0 -134 80.5 -218.5t203.5 -84.5 h86q119 0 199 85t80 224v39q0 31 30 31h64q31 0 31 -31v-39q1 -185 -119 -308.5t-285 -123.5h-86q-169 0 -288 123t-119 303zM512 971v76q0 30 31 30h78q30 0 30 -30v-76q0 -31 -30 -31h-78q-31 0 -31 31z" />
<glyph unicode="&#xc0;" horiz-adv-x="1226" d="M86 33l457 1427q10 33 39 33h65q29 0 39 -33l455 -1427q11 -33 -25 -33h-63q-30 0 -39 33l-121 389h-559l-123 -389q-9 -33 -37 -33h-65q-34 0 -23 33zM354 2126q-18 37 21 37h90q31 0 43 -37l154 -379q7 -17 1 -27t-22 -10h-66q-24 0 -43 37zM373 541h483l-240 768z" />
<glyph unicode="&#xc1;" horiz-adv-x="1226" d="M86 33l457 1427q10 33 39 33h65q29 0 39 -33l455 -1427q11 -33 -25 -33h-63q-30 0 -39 33l-121 389h-559l-123 -389q-9 -33 -37 -33h-65q-34 0 -23 33zM373 541h483l-240 768zM554 1720q-6 10 1 27l154 379q12 37 43 37h90q38 0 20 -37l-178 -379q-19 -37 -43 -37h-66 q-15 0 -21 10z" />
<glyph unicode="&#xc2;" horiz-adv-x="1226" d="M86 33l457 1427q10 33 39 33h65q29 0 39 -33l455 -1427q11 -33 -25 -33h-63q-30 0 -39 33l-121 389h-559l-123 -389q-9 -33 -37 -33h-65q-34 0 -23 33zM251.5 1737q-5.5 13 4.5 26l281 367q12 18 21.5 25.5t25.5 7.5h59q26 0 49 -33l281 -367q10 -13 4 -26t-21 -13h-84 q-14 0 -23 9t-24 30l-211 279l-211 -279q-10 -15 -15 -21t-14 -12t-18 -6h-84q-15 0 -20.5 13zM373 541h483l-240 768z" />
<glyph unicode="&#xc3;" horiz-adv-x="1226" d="M86 33l457 1427q10 33 39 33h65q29 0 39 -33l455 -1427q11 -33 -25 -33h-63q-30 0 -39 33l-121 389h-559l-123 -389q-9 -33 -37 -33h-65q-34 0 -23 33zM244 1954q-13 23 20 45q102 74 182 76.5t183 -64.5q72 -43 108 -53t73 3t110 62q20 13 34 -16l29 -55q13 -23 -20 -45 q-102 -75 -181.5 -77t-183.5 64q-72 43 -108 53t-73 -3t-110 -62q-20 -14 -35 16zM373 541h483l-240 768z" />
<glyph unicode="&#xc4;" horiz-adv-x="1226" d="M86 33l457 1427q10 33 39 33h65q29 0 39 -33l455 -1427q11 -33 -25 -33h-63q-30 0 -39 33l-121 389h-559l-123 -389q-9 -33 -37 -33h-65q-34 0 -23 33zM231 1874v106q0 31 31 31h98q31 0 31 -31v-106q0 -31 -31 -31h-98q-31 0 -31 31zM373 541h483l-240 768zM838 1874 v106q0 31 30 31h99q30 0 30 -31v-106q0 -31 -30 -31h-99q-30 0 -30 31z" />
<glyph unicode="&#xc5;" horiz-adv-x="1226" d="M86 33l457 1427q10 33 39 33h65q29 0 39 -33l455 -1427q11 -33 -25 -33h-63q-30 0 -39 33l-121 389h-559l-123 -389q-9 -33 -37 -33h-65q-34 0 -23 33zM373 541h483l-240 768zM412 1952v22q0 82 52.5 136.5t135.5 54.5h27q83 0 135.5 -54.5t52.5 -136.5v-22 q0 -83 -52.5 -136t-135.5 -53h-27q-83 0 -135.5 53t-52.5 136zM514 1956q0 -43 23 -66.5t67 -23.5h19q44 0 68 23.5t24 66.5v16q0 43 -24 66.5t-68 23.5h-19q-44 0 -67 -23.5t-23 -66.5v-16z" />
<glyph unicode="&#xc6;" horiz-adv-x="1826" d="M33.5 8q-5.5 8 1.5 23l786 1425q15 31 41 31h770q31 0 31 -31v-57q0 -31 -31 -31h-667v-559h534q31 0 31 -31v-57q0 -31 -31 -31h-534v-571h667q31 0 31 -31v-57q0 -31 -31 -31h-760q-30 0 -30 31v391h-457l-215 -391q-16 -31 -41 -31h-74q-16 0 -21.5 8zM453 545h389 v704z" />
<glyph unicode="&#xc7;" horiz-adv-x="1159" d="M102 465v557q0 132 60.5 245t160.5 177.5t214 64.5h94q110 0 207.5 -64.5t157 -174t61.5 -234.5q0 -30 -31 -30h-61q-33 0 -33 30q0 144 -89.5 249.5t-211.5 105.5h-94q-129 0 -220.5 -107t-91.5 -262v-557q0 -156 92 -264.5t220 -108.5h94q122 0 212 106.5t89 252.5 q0 30 33 30h61q31 0 31 -30q-1 -125 -60.5 -236t-157.5 -176.5t-208 -65.5h-49q-7 -12 -10 -22t-3.5 -17t4.5 -12.5t8.5 -8.5t13.5 -5.5t14.5 -3t17.5 -2.5t16 -2q101 -12 132 -26q70 -33 71 -132q0 -77 -43 -116.5t-139 -39.5h-93q-84 0 -131 47t-49 125q0 21 19 21h82 q8 0 14 -5t6 -12q1 -33 23 -47t69 -14h27q66 0 78 7q14 9 14 34q0 31 -33.5 41t-162.5 26q-25 3 -38 5q-14 2 -29 11.5t-27.5 28t-6.5 52.5t35 76q-151 31 -255 168t-104 315z" />
<glyph unicode="&#xc8;" horiz-adv-x="1097" d="M143 31v1425q0 31 31 31h760q31 0 31 -31v-57q0 -31 -31 -31h-668v-559h535q30 0 30 -31v-57q0 -31 -30 -31h-535v-571h668q31 0 31 -31v-57q0 -31 -31 -31h-760q-31 0 -31 31zM289 2126q-18 37 20 37h90q31 0 43 -37l154 -379q7 -17 1 -27t-22 -10h-65q-24 0 -43 37z " />
<glyph unicode="&#xc9;" horiz-adv-x="1097" d="M143 31v1425q0 31 31 31h760q31 0 31 -31v-57q0 -31 -31 -31h-668v-559h535q30 0 30 -31v-57q0 -31 -30 -31h-535v-571h668q31 0 31 -31v-57q0 -31 -31 -31h-760q-31 0 -31 31zM488 1720q-6 10 1 27l154 379q12 37 43 37h90q39 0 21 -37l-179 -379q-19 -37 -43 -37h-65 q-16 0 -22 10z" />
<glyph unicode="&#xca;" horiz-adv-x="1097" d="M143 31v1425q0 31 31 31h760q31 0 31 -31v-57q0 -31 -31 -31h-668v-559h535q30 0 30 -31v-57q0 -31 -30 -31h-535v-571h668q31 0 31 -31v-57q0 -31 -31 -31h-760q-31 0 -31 31zM186 1737q-6 13 4 26l281 367q12 18 21.5 25.5t25.5 7.5h60q26 0 49 -33l280 -367 q10 -13 4.5 -26t-20.5 -13h-84q-14 0 -23 9t-24 30l-211 279l-211 -279q-10 -15 -15 -21t-14 -12t-18 -6h-84q-15 0 -21 13z" />
<glyph unicode="&#xcb;" horiz-adv-x="1097" d="M143 31v1425q0 31 31 31h760q31 0 31 -31v-57q0 -31 -31 -31h-668v-559h535q30 0 30 -31v-57q0 -31 -30 -31h-535v-571h668q31 0 31 -31v-57q0 -31 -31 -31h-760q-31 0 -31 31zM166 1874v106q0 31 31 31h98q31 0 31 -31v-106q0 -31 -31 -31h-98q-31 0 -31 31zM772 1874 v106q0 31 31 31h98q31 0 31 -31v-106q0 -31 -31 -31h-98q-31 0 -31 31z" />
<glyph unicode="&#xcc;" horiz-adv-x="409" d="M-55 2126q-18 37 20 37h90q31 0 43 -37l154 -379q7 -17 1 -27t-22 -10h-65q-24 0 -43 37zM143 31v1425q0 31 31 31h62q30 0 30 -31v-1425q0 -31 -30 -31h-62q-31 0 -31 31z" />
<glyph unicode="&#xcd;" horiz-adv-x="409" d="M143 31v1425q0 31 31 31h62q30 0 30 -31v-1425q0 -31 -30 -31h-62q-31 0 -31 31zM144 1720q-6 10 1 27l154 379q12 37 43 37h90q39 0 21 -37l-179 -379q-19 -37 -43 -37h-65q-16 0 -22 10z" />
<glyph unicode="&#xce;" horiz-adv-x="409" d="M-158 1737q-6 13 4 26l281 367q12 18 21.5 25.5t25.5 7.5h59q27 0 50 -33l280 -367q10 -13 4.5 -26t-20.5 -13h-84q-14 0 -23 9t-24 30l-211 279l-211 -279q-10 -15 -15 -21t-14 -12t-18 -6h-84q-15 0 -21 13zM143 31v1425q0 31 31 31h62q30 0 30 -31v-1425 q0 -31 -30 -31h-62q-31 0 -31 31z" />
<glyph unicode="&#xcf;" horiz-adv-x="409" d="M-178 1874v106q0 31 31 31h98q31 0 31 -31v-106q0 -31 -31 -31h-98q-31 0 -31 31zM143 31v1425q0 31 31 31h62q30 0 30 -31v-1425q0 -31 -30 -31h-62q-31 0 -31 31zM428 1874v106q0 31 31 31h98q31 0 31 -31v-106q0 -31 -31 -31h-98q-31 0 -31 31z" />
<glyph unicode="&#xd0;" horiz-adv-x="1304" d="M123 750v61q0 31 31 31h92v614q0 31 30 31h490q110 0 208.5 -65t158 -176.5t59.5 -239.5v-525q0 -128 -59.5 -239.5t-158 -176.5t-208.5 -65h-490q-30 0 -30 31v688h-92q-31 0 -31 31zM369 119h393q126 0 216.5 106.5t90.5 259.5v516q0 153 -91 260t-216 107h-393v-526 h325q31 0 31 -31v-61q0 -31 -31 -31h-325v-600z" />
<glyph unicode="&#xd1;" horiz-adv-x="1255" d="M133 31v1425q0 31 31 31h135q25 0 37 -23l663 -1341v1333q0 31 31 31h62q30 0 30 -31v-1425q0 -31 -30 -31h-136q-24 0 -36 23l-664 1341v-1333q0 -31 -31 -31h-61q-31 0 -31 31zM258 1954q-13 23 21 45q102 74 181.5 76.5t182.5 -64.5q72 -43 108 -53t73 3t110 62 q20 13 35 -16l28 -55q13 -23 -20 -45q-102 -75 -181.5 -77t-183.5 64q-72 43 -107.5 53t-72.5 -3t-110 -62q-20 -14 -35 16z" />
<glyph unicode="&#xd2;" horiz-adv-x="1200" d="M123 475v545q0 202 126.5 345.5t303.5 143.5h94q177 0 303.5 -143.5t126.5 -345.5v-545q0 -202 -126.5 -345.5t-303.5 -143.5h-94q-177 0 -303.5 143.5t-126.5 345.5zM246 475q0 -158 89 -266t222 -107h86q133 1 222 108.5t89 264.5v545q0 157 -89 264t-222 107h-86 q-133 0 -222 -107t-89 -264v-545zM340 2126q-18 37 20 37h91q31 0 43 -37l153 -379q7 -17 1 -27t-21 -10h-66q-24 0 -43 37z" />
<glyph unicode="&#xd3;" horiz-adv-x="1200" d="M123 475v545q0 202 126.5 345.5t303.5 143.5h94q177 0 303.5 -143.5t126.5 -345.5v-545q0 -202 -126.5 -345.5t-303.5 -143.5h-94q-177 0 -303.5 143.5t-126.5 345.5zM246 475q0 -158 89 -266t222 -107h86q133 1 222 108.5t89 264.5v545q0 157 -89 264t-222 107h-86 q-133 0 -222 -107t-89 -264v-545zM540 1720q-6 10 1 27l153 379q12 37 43 37h90q39 0 21 -37l-178 -379q-19 -37 -43 -37h-66q-15 0 -21 10z" />
<glyph unicode="&#xd4;" horiz-adv-x="1200" d="M123 475v545q0 202 126.5 345.5t303.5 143.5h94q177 0 303.5 -143.5t126.5 -345.5v-545q0 -202 -126.5 -345.5t-303.5 -143.5h-94q-177 0 -303.5 143.5t-126.5 345.5zM237.5 1737q-5.5 13 4.5 26l280 367q12 18 21.5 25.5t25.5 7.5h60q26 0 49 -33l280 -367 q10 -13 4.5 -26t-20.5 -13h-84q-14 0 -23 9t-24 30l-211 279l-211 -279q-10 -15 -15 -21t-14 -12t-18 -6h-84q-15 0 -20.5 13zM246 475q0 -158 89 -266t222 -107h86q133 1 222 108.5t89 264.5v545q0 157 -89 264t-222 107h-86q-133 0 -222 -107t-89 -264v-545z" />
<glyph unicode="&#xd5;" horiz-adv-x="1200" d="M123 475v545q0 202 126.5 345.5t303.5 143.5h94q177 0 303.5 -143.5t126.5 -345.5v-545q0 -202 -126.5 -345.5t-303.5 -143.5h-94q-177 0 -303.5 143.5t-126.5 345.5zM229 1954q-13 23 21 45q102 74 181.5 76.5t182.5 -64.5q72 -43 108 -53t73 3t110 62q20 13 35 -16 l29 -55q13 -23 -21 -45q-102 -75 -181 -77t-183 64q-72 43 -108 53t-73 -3t-110 -62q-20 -14 -35 16zM246 475q0 -158 89 -266t222 -107h86q133 1 222 108.5t89 264.5v545q0 157 -89 264t-222 107h-86q-133 0 -222 -107t-89 -264v-545z" />
<glyph unicode="&#xd6;" horiz-adv-x="1200" d="M123 475v545q0 202 126.5 345.5t303.5 143.5h94q177 0 303.5 -143.5t126.5 -345.5v-545q0 -202 -126.5 -345.5t-303.5 -143.5h-94q-177 0 -303.5 143.5t-126.5 345.5zM217 1874v106q0 31 31 31h98q31 0 31 -31v-106q0 -31 -31 -31h-98q-31 0 -31 31zM246 475 q0 -158 89 -266t222 -107h86q133 1 222 108.5t89 264.5v545q0 157 -89 264t-222 107h-86q-133 0 -222 -107t-89 -264v-545zM823 1874v106q0 31 31 31h98q31 0 31 -31v-106q0 -31 -31 -31h-98q-31 0 -31 31z" />
<glyph unicode="&#xd7;" horiz-adv-x="841" d="M113 397q-21 21 0 43l223 224l-221 219q-21 21 0 43l43 43q22 21 43 0l221 -219l219 219q22 22 43 -2l45 -41q18 -25 -2 -45l-219 -219l221 -222q21 -22 0 -43l-43 -43q-22 -22 -43 0l-221 221l-221 -221q-24 -21 -45 0z" />
<glyph unicode="&#xd8;" horiz-adv-x="1200" d="M123 475v545q0 202 126.5 345.5t303.5 143.5h94q102 0 197 -53q12 31 41 31h73q33 0 21 -31l-35 -82q133 -146 133 -354v-545q0 -202 -126.5 -345.5t-303.5 -143.5h-94q-107 0 -193 53l-4 -8q-16 -31 -41 -31h-73q-16 0 -22 8t1 23l39 88q-64 67 -100.5 159.5 t-36.5 196.5zM246 475q0 -137 67 -235l482 1106q-67 45 -152 45h-86q-133 0 -222 -107t-89 -264v-545zM406 145q67 -43 151 -43h86q133 1 222 108.5t89 264.5v545q0 131 -65 231z" />
<glyph unicode="&#xd9;" horiz-adv-x="1171" d="M113 446v1010q0 31 30 31h62q31 0 31 -31v-1010q0 -153 88.5 -247.5t240.5 -94.5h41q152 0 241 94.5t89 247.5v1010q0 31 31 31h61q31 0 31 -31v-1010q0 -198 -125.5 -329t-321.5 -131h-53q-196 0 -321 131t-125 329zM326 2126q-18 37 20 37h90q31 0 43 -37l154 -379 q7 -17 1 -27t-22 -10h-65q-24 0 -43 37z" />
<glyph unicode="&#xda;" horiz-adv-x="1171" d="M113 446v1010q0 31 30 31h62q31 0 31 -31v-1010q0 -153 88.5 -247.5t240.5 -94.5h41q152 0 241 94.5t89 247.5v1010q0 31 31 31h61q31 0 31 -31v-1010q0 -198 -125.5 -329t-321.5 -131h-53q-196 0 -321 131t-125 329zM525 1720q-6 10 1 27l154 379q12 37 43 37h90 q39 0 21 -37l-179 -379q-19 -37 -43 -37h-65q-16 0 -22 10z" />
<glyph unicode="&#xdb;" horiz-adv-x="1171" d="M113 446v1010q0 31 30 31h62q31 0 31 -31v-1010q0 -153 88.5 -247.5t240.5 -94.5h41q152 0 241 94.5t89 247.5v1010q0 31 31 31h61q31 0 31 -31v-1010q0 -198 -125.5 -329t-321.5 -131h-53q-196 0 -321 131t-125 329zM223 1737q-6 13 4 26l281 367q12 18 21.5 25.5 t25.5 7.5h59q27 0 50 -33l280 -367q10 -13 4.5 -26t-20.5 -13h-84q-14 0 -23 9t-24 30l-211 279l-211 -279q-10 -15 -15 -21t-14 -12t-18 -6h-84q-15 0 -21 13z" />
<glyph unicode="&#xdc;" horiz-adv-x="1171" d="M113 446v1010q0 31 30 31h62q31 0 31 -31v-1010q0 -153 88.5 -247.5t240.5 -94.5h41q152 0 241 94.5t89 247.5v1010q0 31 31 31h61q31 0 31 -31v-1010q0 -198 -125.5 -329t-321.5 -131h-53q-196 0 -321 131t-125 329zM203 1874v106q0 31 30 31h99q30 0 30 -31v-106 q0 -31 -30 -31h-99q-30 0 -30 31zM809 1874v106q0 31 31 31h98q31 0 31 -31v-106q0 -31 -31 -31h-98q-31 0 -31 31z" />
<glyph unicode="&#xdd;" horiz-adv-x="1212" d="M96.5 1479q6.5 8 22.5 8h80q14 0 22.5 -7t18.5 -24l364 -670l369 670q10 17 18.5 24t22.5 7h80q16 0 22 -8t-2 -23l-448 -803v-622q0 -31 -31 -31h-62q-30 0 -30 31v622l-445 803q-8 15 -1.5 23zM546 1720q-6 10 1 27l153 379q12 37 43 37h91q38 0 20 -37l-178 -379 q-19 -37 -43 -37h-66q-15 0 -21 10z" />
<glyph unicode="&#xde;" horiz-adv-x="1153" d="M133 31v1425q0 31 31 31h61q31 0 31 -31v-293h395q184 0 292 -112.5t108 -307.5t-108 -307t-292 -112h-395v-293q0 -31 -31 -31h-61q-31 0 -31 31zM256 442h395q277 0 277 301t-277 301h-395v-602z" />
<glyph unicode="&#xdf;" horiz-adv-x="1073" d="M123 1169q0 146 95 238t251 92h63q155 0 266 -100t111 -238v-57q0 -86 -48.5 -166.5t-127.5 -134.5q51 -28 90 -59t74.5 -75t54.5 -104t19 -133v-45q0 -81 -39.5 -154.5t-102 -123.5t-140 -79.5t-154.5 -29.5h-43q-31 0 -31 31v57q0 31 31 31h43q74 0 145 32t119.5 95 t48.5 141v45q0 66 -29.5 125t-75 98t-98 61.5t-100.5 22.5h-53q-31 0 -31 31v57q0 31 31 31h53q93 0 167 76.5t74 169.5v57q0 93 -72.5 156t-181.5 63h-63q-111 0 -165 -55t-54 -156l-2 -1138q0 -31 -31 -31h-61q-31 0 -31 31z" />
<glyph unicode="&#xe0;" horiz-adv-x="978" d="M92 283q0 124 81.5 202t209.5 78h348v47q0 113 -55 179.5t-139 66.5h-97q-77 0 -123 -22t-92 -68q-23 -24 -47 0l-35 39q-20 20 -2 41q63 66 131 94.5t168 28.5h97q128 0 220.5 -101t92.5 -258v-561q0 -15 4 -31q4 -18 -6 -18h-84q-33 0 -33 49v74q-121 -125 -239 -125 h-109q-114 -3 -202.5 82.5t-88.5 202.5zM211 283q0 -71 52.5 -121.5t119.5 -50.5h109q42 1 78.5 13.5t66.5 38t49 46.5t45 55v187h-348q-81 0 -126.5 -45t-45.5 -123zM217 1602q-17 36 21 36h90q31 0 43 -36l153 -379q7 -17 1 -27t-21 -10h-66q-24 0 -43 37z" />
<glyph unicode="&#xe1;" horiz-adv-x="978" d="M92 283q0 124 81.5 202t209.5 78h348v47q0 113 -55 179.5t-139 66.5h-97q-77 0 -123 -22t-92 -68q-23 -24 -47 0l-35 39q-20 20 -2 41q63 66 131 94.5t168 28.5h97q128 0 220.5 -101t92.5 -258v-561q0 -15 4 -31q4 -18 -6 -18h-84q-33 0 -33 49v74q-121 -125 -239 -125 h-109q-114 -3 -202.5 82.5t-88.5 202.5zM211 283q0 -71 52.5 -121.5t119.5 -50.5h109q42 1 78.5 13.5t66.5 38t49 46.5t45 55v187h-348q-81 0 -126.5 -45t-45.5 -123zM417 1196q-6 10 1 27l153 379q12 36 43 36h91q37 0 20 -36l-178 -379q-19 -37 -43 -37h-66q-15 0 -21 10z " />
<glyph unicode="&#xe2;" horiz-adv-x="978" d="M92 283q0 124 81.5 202t209.5 78h348v47q0 113 -55 179.5t-139 66.5h-97q-77 0 -123 -22t-92 -68q-23 -24 -47 0l-35 39q-20 20 -2 41q63 66 131 94.5t168 28.5h97q128 0 220.5 -101t92.5 -258v-561q0 -15 4 -31q4 -18 -6 -18h-84q-33 0 -33 49v74q-121 -125 -239 -125 h-109q-114 -3 -202.5 82.5t-88.5 202.5zM114.5 1213q-5.5 13 4.5 26l280 367q22 32 47 32h60q27 0 49 -32l281 -367q10 -13 4 -26t-21 -13h-84q-14 0 -23 9t-24 30l-211 279l-211 -279q-10 -15 -15 -21t-14 -12t-18 -6h-84q-15 0 -20.5 13zM211 283q0 -71 52.5 -121.5 t119.5 -50.5h109q42 1 78.5 13.5t66.5 38t49 46.5t45 55v187h-348q-81 0 -126.5 -45t-45.5 -123z" />
<glyph unicode="&#xe3;" horiz-adv-x="978" d="M92 283q0 124 81.5 202t209.5 78h348v47q0 113 -55 179.5t-139 66.5h-97q-77 0 -123 -22t-92 -68q-23 -24 -47 0l-35 39q-20 20 -2 41q63 66 131 94.5t168 28.5h97q128 0 220.5 -101t92.5 -258v-561q0 -15 4 -31q4 -18 -6 -18h-84q-33 0 -33 49v74q-121 -125 -239 -125 h-109q-114 -3 -202.5 82.5t-88.5 202.5zM106 1430q-13 23 21 45q102 74 182 76.5t183 -64.5q72 -43 107.5 -53t72.5 3t110 62q20 13 35 -16l29 -56q13 -23 -21 -45q-102 -74 -181.5 -76.5t-182.5 64.5q-72 43 -108 53t-73 -3t-110 -62q-20 -14 -35 16zM211 283 q0 -71 52.5 -121.5t119.5 -50.5h109q42 1 78.5 13.5t66.5 38t49 46.5t45 55v187h-348q-81 0 -126.5 -45t-45.5 -123z" />
<glyph unicode="&#xe4;" horiz-adv-x="978" d="M92 283q0 124 81.5 202t209.5 78h348v47q0 113 -55 179.5t-139 66.5h-97q-77 0 -123 -22t-92 -68q-23 -24 -47 0l-35 39q-20 20 -2 41q63 66 131 94.5t168 28.5h97q128 0 220.5 -101t92.5 -258v-561q0 -15 4 -31q4 -18 -6 -18h-84q-33 0 -33 49v74q-121 -125 -239 -125 h-109q-114 -3 -202.5 82.5t-88.5 202.5zM94 1350v106q0 31 31 31h98q31 0 31 -31v-106q0 -31 -31 -31h-98q-31 0 -31 31zM211 283q0 -71 52.5 -121.5t119.5 -50.5h109q42 1 78.5 13.5t66.5 38t49 46.5t45 55v187h-348q-81 0 -126.5 -45t-45.5 -123zM700 1350v106q0 31 31 31 h98q31 0 31 -31v-106q0 -31 -31 -31h-98q-31 0 -31 31z" />
<glyph unicode="&#xe5;" horiz-adv-x="978" d="M92 283q0 124 81.5 202t209.5 78h348v47q0 113 -55 179.5t-139 66.5h-97q-77 0 -123 -22t-92 -68q-23 -24 -47 0l-35 39q-20 20 -2 41q63 66 131 94.5t168 28.5h97q128 0 220.5 -101t92.5 -258v-561q0 -15 4 -31q4 -18 -6 -18h-84q-33 0 -33 49v74q-121 -125 -239 -125 h-109q-114 -3 -202.5 82.5t-88.5 202.5zM211 283q0 -71 52.5 -121.5t119.5 -50.5h109q42 1 78.5 13.5t66.5 38t49 46.5t45 55v187h-348q-81 0 -126.5 -45t-45.5 -123zM274 1427v23q0 82 53 136t136 54h26q83 0 136 -54t53 -136v-23q0 -83 -53 -135.5t-136 -52.5h-26 q-83 0 -136 52.5t-53 135.5zM377 1432q0 -43 23 -67t67 -24h18q44 0 68.5 24t24.5 67v16q0 43 -24.5 66.5t-68.5 23.5h-18q-44 0 -67 -23.5t-23 -66.5v-16z" />
<glyph unicode="&#xe6;" horiz-adv-x="1617" d="M86 283q0 124 81.5 202t209.5 78h328v35q0 35 10 80q-17 78 -69 122t-120 44h-73q-137 0 -238 -80q-26 -22 -45 0l-37 43q-18 22 -2 41q116 119 322 119h73q74 0 144 -39.5t116 -106.5q54 68 130 108t157 40h70q80 0 160.5 -46.5t136 -133.5t55.5 -189v-84q0 -29 -17 -46 t-48 -17h-580v-199q31 -64 92 -103.5t131 -39.5h60q134 0 245 131q22 25 43 6l39 -31q23 -20 6 -43q-66 -80 -145 -128t-188 -48h-60q-82 0 -160 40.5t-131 108.5q-67 -72 -135.5 -110.5t-161.5 -38.5h-108q-114 -3 -202.5 82.5t-88.5 202.5zM209 283q0 -70 50 -116t118 -46 h108q78 1 131.5 38.5t104.5 102.5q-16 53 -16 103v75h-328q-82 0 -125 -39.5t-43 -117.5zM842 686q8 -50 8 -76v-49h522v37q0 113 -73.5 185.5t-155.5 72.5h-70q-76 0 -140.5 -47.5t-90.5 -122.5z" />
<glyph unicode="&#xe7;" horiz-adv-x="968" d="M102 365v233q0 96 52.5 182.5t137 137.5t175.5 51h74q76 0 153.5 -42.5t129 -111.5t53.5 -139q0 -33 -31 -33h-55q-14 0 -24.5 7t-10.5 20q-1 65 -71.5 125.5t-143.5 60.5h-74q-95 0 -170.5 -77.5t-75.5 -180.5v-233q0 -103 75.5 -178.5t170.5 -75.5h74q121 0 235 135 q20 23 43 6l43 -35q24 -18 6 -43q-145 -176 -327 -176h-19q-10 -14 -16 -25t-10 -19.5t-3 -16t1.5 -12t7.5 -8.5t9 -6t13 -4.5t13.5 -3t15.5 -2t14 -1.5q101 -12 132 -26q70 -33 71 -132q0 -77 -43 -116.5t-139 -39.5h-92q-85 0 -132 47t-49 125q0 21 19 21h82q8 0 14 -5 t6 -12q1 -33 23 -47t69 -14h27q66 0 78 7q14 9 14 34q0 31 -35.5 42t-160.5 26q-24 2 -37 4q-12 1 -24.5 7.5t-24 21t-15.5 34t7.5 51.5t39.5 70l6 6q-123 25 -212 129t-89 232z" />
<glyph unicode="&#xe8;" horiz-adv-x="974" d="M92 365v233q0 146 113.5 258.5t255.5 112.5h69q59 0 121.5 -28t114 -76t84.5 -118t33 -147v-84q0 -29 -17.5 -46t-48.5 -17h-602v-99q0 -100 74 -171.5t172 -71.5h59q135 0 246 131q22 25 43 6l39 -31q23 -20 6 -43q-66 -80 -145.5 -128t-188.5 -48h-59 q-143 0 -256 110.5t-113 256.5zM215 561h545v37q0 113 -74 185.5t-156 72.5h-69q-98 0 -172 -75.5t-74 -182.5v-37zM221 1602q-17 36 21 36h90q31 0 43 -36l153 -379q7 -17 1 -27t-21 -10h-66q-24 0 -43 37z" />
<glyph unicode="&#xe9;" horiz-adv-x="974" d="M92 365v233q0 146 113.5 258.5t255.5 112.5h69q59 0 121.5 -28t114 -76t84.5 -118t33 -147v-84q0 -29 -17.5 -46t-48.5 -17h-602v-99q0 -100 74 -171.5t172 -71.5h59q135 0 246 131q22 25 43 6l39 -31q23 -20 6 -43q-66 -80 -145.5 -128t-188.5 -48h-59 q-143 0 -256 110.5t-113 256.5zM215 561h545v37q0 113 -74 185.5t-156 72.5h-69q-98 0 -172 -75.5t-74 -182.5v-37zM421 1196q-6 10 1 27l153 379q12 36 43 36h91q37 0 20 -36l-178 -379q-19 -37 -43 -37h-66q-15 0 -21 10z" />
<glyph unicode="&#xea;" horiz-adv-x="974" d="M92 365v233q0 146 113.5 258.5t255.5 112.5h69q59 0 121.5 -28t114 -76t84.5 -118t33 -147v-84q0 -29 -17.5 -46t-48.5 -17h-602v-99q0 -100 74 -171.5t172 -71.5h59q135 0 246 131q22 25 43 6l39 -31q23 -20 6 -43q-66 -80 -145.5 -128t-188.5 -48h-59 q-143 0 -256 110.5t-113 256.5zM118.5 1213q-5.5 13 4.5 26l280 367q22 32 48 32h59q27 0 49 -32l281 -367q10 -13 4 -26t-21 -13h-84q-14 0 -23 9t-24 30l-211 279l-211 -279q-10 -15 -15 -21t-14 -12t-18 -6h-84q-15 0 -20.5 13zM215 561h545v37q0 113 -74 185.5 t-156 72.5h-69q-98 0 -172 -75.5t-74 -182.5v-37z" />
<glyph unicode="&#xeb;" horiz-adv-x="974" d="M92 365v233q0 146 113.5 258.5t255.5 112.5h69q59 0 121.5 -28t114 -76t84.5 -118t33 -147v-84q0 -29 -17.5 -46t-48.5 -17h-602v-99q0 -100 74 -171.5t172 -71.5h59q135 0 246 131q22 25 43 6l39 -31q23 -20 6 -43q-66 -80 -145.5 -128t-188.5 -48h-59 q-143 0 -256 110.5t-113 256.5zM98 1350v106q0 31 31 31h98q31 0 31 -31v-106q0 -31 -31 -31h-98q-31 0 -31 31zM215 561h545v37q0 113 -74 185.5t-156 72.5h-69q-98 0 -172 -75.5t-74 -182.5v-37zM705 1350v106q0 31 30 31h99q30 0 30 -31v-106q0 -31 -30 -31h-99 q-30 0 -30 31z" />
<glyph unicode="&#xec;" horiz-adv-x="446" d="M-37 1602q-17 36 21 36h90q31 0 43 -36l153 -379q7 -17 1 -27t-21 -10h-66q-24 0 -43 37zM164 31v903q0 31 31 31h57q31 0 31 -31v-903q0 -31 -31 -31h-57q-31 0 -31 31z" />
<glyph unicode="&#xed;" horiz-adv-x="446" d="M163 1196q-6 10 1 27l153 379q12 36 43 36h91q37 0 20 -36l-178 -379q-19 -37 -43 -37h-66q-15 0 -21 10zM164 31v903q0 31 31 31h57q31 0 31 -31v-903q0 -31 -31 -31h-57q-31 0 -31 31z" />
<glyph unicode="&#xee;" horiz-adv-x="446" d="M-139.5 1213q-5.5 13 4.5 26l280 367q22 32 48 32h59q27 0 49 -32l281 -367q10 -13 4 -26t-21 -13h-84q-14 0 -23 9t-24 30l-211 279l-211 -279q-10 -15 -15 -21t-14 -12t-18 -6h-84q-15 0 -20.5 13zM164 31v903q0 31 31 31h57q31 0 31 -31v-903q0 -31 -31 -31h-57 q-31 0 -31 31z" />
<glyph unicode="&#xef;" horiz-adv-x="446" d="M-160 1350v106q0 31 31 31h98q31 0 31 -31v-106q0 -31 -31 -31h-98q-31 0 -31 31zM164 31v903q0 31 31 31h57q31 0 31 -31v-903q0 -31 -31 -31h-57q-31 0 -31 31zM446 1350v106q0 31 31 31h98q31 0 31 -31v-106q0 -31 -31 -31h-98q-31 0 -31 31z" />
<glyph unicode="&#xf0;" horiz-adv-x="1112" d="M102 422q-5 255 99 375.5t329 120.5q120 0 209 -32.5t133 -78.5q11 147 -20 319q-10 52 -27 93l-80 -103q-24 -35 -47 -35h-86q-19 0 -25 11t5 26l158 205q-75 68 -193 68h-49q-31 0 -31 30v62q0 30 31 30h49q159 0 266 -96l27 35q19 23 27 29t20 6h86q19 0 24.5 -11 t-6.5 -26l-98 -127q64 -103 76 -227q39 -344 8 -682q-19 -204 -126 -319t-271 -115h-84q-87 0 -159 27.5t-126.5 81.5t-85.5 139t-33 194zM229 418q-1 -161 72 -238.5t205 -77.5h84q114 0 185.5 78.5t86.5 233.5q19 193 -56.5 282t-275.5 90q-80 1 -135 -15t-87 -42.5 t-49.5 -76t-23 -101t-6.5 -133.5z" />
<glyph unicode="&#xf1;" d="M123 31v901q0 31 31 31h57q31 0 31 -31v-90q96 121 278 121h31q156 0 248 -101.5t92 -257.5v-573q0 -31 -31 -31h-57q-31 0 -31 31v571q0 110 -64 179t-178 69h-59q-86 0 -157.5 -59t-71.5 -134v-626q0 -31 -31 -31h-57q-31 0 -31 31zM137 1430q-13 23 21 45 q102 74 181.5 76.5t182.5 -64.5q72 -43 108 -53t73 3t110 62q20 13 35 -16l29 -56q13 -23 -21 -45q-102 -74 -181.5 -76.5t-182.5 64.5q-72 43 -108 53t-73 -3t-110 -62q-20 -14 -35 16z" />
<glyph unicode="&#xf2;" horiz-adv-x="1017" d="M102 385v193q0 156 107 273.5t260 117.5h80q150 0 258 -117.5t108 -273.5v-193q0 -155 -107.5 -271t-258.5 -116h-80q-153 0 -260 115.5t-107 271.5zM221 385q0 -111 70.5 -192.5t177.5 -81.5h80q105 0 176.5 82t71.5 192v193q0 110 -71.5 194t-176.5 84h-80 q-107 0 -177.5 -83.5t-70.5 -194.5v-193zM250 1602q-17 36 20 36h90q31 0 43 -36l154 -379q7 -17 1 -27t-21 -10h-66q-24 0 -43 37z" />
<glyph unicode="&#xf3;" horiz-adv-x="1017" d="M102 385v193q0 156 107 273.5t260 117.5h80q150 0 258 -117.5t108 -273.5v-193q0 -155 -107.5 -271t-258.5 -116h-80q-153 0 -260 115.5t-107 271.5zM221 385q0 -111 70.5 -192.5t177.5 -81.5h80q105 0 176.5 82t71.5 192v193q0 110 -71.5 194t-176.5 84h-80 q-107 0 -177.5 -83.5t-70.5 -194.5v-193zM450 1196q-6 10 1 27l153 379q12 36 43 36h90q38 0 21 -36l-178 -379q-19 -37 -43 -37h-66q-15 0 -21 10z" />
<glyph unicode="&#xf4;" horiz-adv-x="1017" d="M102 385v193q0 156 107 273.5t260 117.5h80q150 0 258 -117.5t108 -273.5v-193q0 -155 -107.5 -271t-258.5 -116h-80q-153 0 -260 115.5t-107 271.5zM147.5 1213q-5.5 13 4.5 26l280 367q22 32 47 32h60q27 0 49 -32l280 -367q10 -13 4.5 -26t-20.5 -13h-84q-14 0 -23 9 t-24 30l-211 279l-211 -279q-10 -15 -15 -21t-14 -12t-18 -6h-84q-15 0 -20.5 13zM221 385q0 -111 70.5 -192.5t177.5 -81.5h80q105 0 176.5 82t71.5 192v193q0 110 -71.5 194t-176.5 84h-80q-107 0 -177.5 -83.5t-70.5 -194.5v-193z" />
<glyph unicode="&#xf5;" horiz-adv-x="1017" d="M102 385v193q0 156 107 273.5t260 117.5h80q150 0 258 -117.5t108 -273.5v-193q0 -155 -107.5 -271t-258.5 -116h-80q-153 0 -260 115.5t-107 271.5zM139 1430q-13 23 21 45q102 74 181.5 76.5t182.5 -64.5q72 -43 108 -53t73 3t110 62q20 13 35 -16l29 -56 q13 -23 -21 -45q-102 -74 -181.5 -76.5t-182.5 64.5q-72 43 -108 53t-73 -3t-110 -62q-20 -14 -35 16zM221 385q0 -111 70.5 -192.5t177.5 -81.5h80q105 0 176.5 82t71.5 192v193q0 110 -71.5 194t-176.5 84h-80q-107 0 -177.5 -83.5t-70.5 -194.5v-193z" />
<glyph unicode="&#xf6;" horiz-adv-x="1017" d="M102 385v193q0 156 107 273.5t260 117.5h80q150 0 258 -117.5t108 -273.5v-193q0 -155 -107.5 -271t-258.5 -116h-80q-153 0 -260 115.5t-107 271.5zM127 1350v106q0 31 31 31h98q31 0 31 -31v-106q0 -31 -31 -31h-98q-31 0 -31 31zM221 385q0 -111 70.5 -192.5 t177.5 -81.5h80q105 0 176.5 82t71.5 192v193q0 110 -71.5 194t-176.5 84h-80q-107 0 -177.5 -83.5t-70.5 -194.5v-193zM733 1350v106q0 31 31 31h98q31 0 31 -31v-106q0 -31 -31 -31h-98q-31 0 -31 31z" />
<glyph unicode="&#xf7;" horiz-adv-x="1052" d="M123 631v61q0 31 31 31h747q29 0 29 -31v-61q0 -31 -31 -31h-745q-31 0 -31 31zM449 293v117q0 30 30 30h99q30 0 30 -30v-117q0 -31 -30 -31h-99q-30 0 -30 31zM449 913v117q0 31 30 31h99q30 0 30 -31v-117q0 -30 -30 -30h-99q-30 0 -30 30z" />
<glyph unicode="&#xf8;" horiz-adv-x="1038" d="M102 385v193q0 156 107 273.5t260 117.5h80q56 0 108 -19q12 15 33 15h74q32 0 20 -31l-18 -43q69 -56 109 -139t40 -174v-193q0 -155 -107.5 -271t-258.5 -116h-80q-49 0 -92 12q-13 -10 -29 -10h-74q-32 0 -20 31l14 30q-76 55 -121 141t-45 183zM221 385 q0 -63 25 -120t69 -95l295 678q-36 8 -61 8h-80q-107 0 -177.5 -83.5t-70.5 -194.5v-193zM426 115q28 -4 43 -4h80q105 0 176.5 82t71.5 192v193q0 122 -80 202z" />
<glyph unicode="&#xf9;" d="M123 358v574q0 31 31 31h57q31 0 31 -31v-572q0 -110 63.5 -178.5t177.5 -68.5h60q86 0 157.5 58.5t71.5 133.5v627q0 31 31 31h57q31 0 31 -31v-901q0 -31 -31 -31h-57q-31 0 -31 31v90q-96 -121 -278 -121h-31q-156 0 -248 101t-92 257zM256 1602q-17 36 20 36h91 q31 0 43 -36l153 -379q7 -17 1 -27t-21 -10h-66q-24 0 -43 37z" />
<glyph unicode="&#xfa;" d="M123 358v574q0 31 31 31h57q31 0 31 -31v-572q0 -110 63.5 -178.5t177.5 -68.5h60q86 0 157.5 58.5t71.5 133.5v627q0 31 31 31h57q31 0 31 -31v-901q0 -31 -31 -31h-57q-31 0 -31 31v90q-96 -121 -278 -121h-31q-156 0 -248 101t-92 257zM456 1196q-6 10 1 27l153 379 q12 36 43 36h90q38 0 21 -36l-178 -379q-19 -37 -43 -37h-66q-15 0 -21 10z" />
<glyph unicode="&#xfb;" d="M123 358v574q0 31 31 31h57q31 0 31 -31v-572q0 -110 63.5 -178.5t177.5 -68.5h60q86 0 157.5 58.5t71.5 133.5v627q0 31 31 31h57q31 0 31 -31v-901q0 -31 -31 -31h-57q-31 0 -31 31v90q-96 -121 -278 -121h-31q-156 0 -248 101t-92 257zM153.5 1213q-5.5 13 4.5 26 l280 367q22 32 47 32h60q27 0 49 -32l280 -367q10 -13 4.5 -26t-20.5 -13h-84q-14 0 -23 9t-24 30l-211 279l-211 -279q-10 -15 -15 -21t-14 -12t-18 -6h-84q-15 0 -20.5 13z" />
<glyph unicode="&#xfc;" d="M123 358v574q0 31 31 31h57q31 0 31 -31v-572q0 -110 63.5 -178.5t177.5 -68.5h60q86 0 157.5 58.5t71.5 133.5v627q0 31 31 31h57q31 0 31 -31v-901q0 -31 -31 -31h-57q-31 0 -31 31v90q-96 -121 -278 -121h-31q-156 0 -248 101t-92 257zM133 1350v106q0 31 31 31h98 q31 0 31 -31v-106q0 -31 -31 -31h-98q-31 0 -31 31zM739 1350v106q0 31 31 31h98q31 0 31 -31v-106q0 -31 -31 -31h-98q-31 0 -31 31z" />
<glyph unicode="&#xfd;" d="M76 926q-15 37 18 37h70q29 0 43 -35l297 -715l301 715q14 35 45 35h68q33 0 18 -37l-545 -1301q-14 -35 -45 -35h-67q-36 0 -21 37l182 432zM448 1196q-6 10 1 27l153 379q12 36 43 36h90q38 0 21 -36l-178 -379q-19 -37 -43 -37h-66q-15 0 -21 10z" />
<glyph unicode="&#xfe;" horiz-adv-x="1007" d="M143 -379v1835q0 31 31 31h57q31 0 31 -31v-596q44 47 104 75t126 28h63q146 0 248 -112t102 -255v-250q0 -137 -107 -241.5t-243 -104.5h-63q-126 0 -230 100v-479q0 -31 -31 -31h-57q-31 0 -31 31zM262 227q46 -46 112.5 -80t117.5 -34h63q91 0 161 70.5t70 162.5v250 q0 98 -65 176t-166 78h-63q-81 0 -154.5 -59t-75.5 -123v-441z" />
<glyph unicode="&#xff;" d="M76 926q-15 37 18 37h70q29 0 43 -35l297 -715l301 715q14 35 45 35h68q33 0 18 -37l-545 -1301q-14 -35 -45 -35h-67q-36 0 -21 37l182 432zM125 1350v106q0 31 31 31h98q31 0 31 -31v-106q0 -31 -31 -31h-98q-31 0 -31 31zM731 1350v106q0 31 31 31h98q31 0 31 -31 v-106q0 -31 -31 -31h-98q-31 0 -31 31z" />
<glyph unicode="&#x152;" horiz-adv-x="1961" d="M123 475v545q0 202 126.5 345.5t303.5 143.5h94q97 0 183 -46.5t147 -129.5v123q0 31 31 31h759q31 0 31 -31v-57q0 -31 -31 -31h-667v-559h534q31 0 31 -31v-57q0 -31 -31 -31h-534v-571h667q31 0 31 -31v-57q0 -31 -31 -31h-759q-31 0 -31 31v131q-61 -83 -147 -129.5 t-183 -46.5h-94q-177 0 -303.5 143.5t-126.5 345.5zM246 475q0 -158 89 -266t222 -107h86q133 1 222 108.5t89 264.5v545q0 157 -89 264t-222 107h-86q-133 0 -222 -107t-89 -264v-545z" />
<glyph unicode="&#x153;" horiz-adv-x="1697" d="M102 385v193q0 156 107 273.5t260 117.5h80q91 0 169.5 -46t129.5 -124q54 77 135.5 123.5t169.5 46.5h70q80 0 160.5 -46.5t136 -133.5t55.5 -189v-84q0 -29 -17.5 -46t-48.5 -17h-594v-68q0 -36 -6 -66q13 -89 83.5 -148.5t160.5 -59.5h59q135 0 246 131q22 25 43 6 l39 -31q23 -20 6 -43q-66 -80 -145.5 -128t-188.5 -48h-59q-88 0 -170 46t-135 122q-51 -77 -129.5 -122.5t-169.5 -45.5h-80q-153 0 -260 115.5t-107 271.5zM221 385q0 -111 70.5 -192.5t177.5 -81.5h80q87 0 152 57.5t87 146.5q-4 32 -4 50v233q0 17 4 49 q-23 90 -88 149.5t-151 59.5h-80q-107 0 -177.5 -83.5t-70.5 -194.5v-193zM911 639q4 -20 4 -61v-17h537v37q0 113 -73.5 185.5t-155.5 72.5h-70q-87 0 -157 -62t-85 -155z" />
<glyph unicode="&#x178;" horiz-adv-x="1212" d="M96.5 1479q6.5 8 22.5 8h80q14 0 22.5 -7t18.5 -24l364 -670l369 670q10 17 18.5 24t22.5 7h80q16 0 22 -8t-2 -23l-448 -803v-622q0 -31 -31 -31h-62q-30 0 -30 31v622l-445 803q-8 15 -1.5 23zM223 1874v106q0 31 31 31h98q31 0 31 -31v-106q0 -31 -31 -31h-98 q-31 0 -31 31zM829 1874v106q0 31 31 31h98q31 0 31 -31v-106q0 -31 -31 -31h-98q-31 0 -31 31z" />
<glyph unicode="&#x2c6;" horiz-adv-x="937" d="M106.5 1213q-5.5 13 4.5 26l280 367q22 32 47 32h60q27 0 49 -32l280 -367q10 -13 4.5 -26t-20.5 -13h-84q-14 0 -23 9t-24 30l-211 279l-211 -279q-10 -15 -15 -21t-14 -12t-18 -6h-84q-15 0 -20.5 13z" />
<glyph unicode="&#x2dc;" horiz-adv-x="952" d="M106 1430q-13 23 21 45q102 74 182 76.5t183 -64.5q72 -43 107.5 -53t72.5 3t110 62q20 13 35 -16l29 -56q13 -23 -21 -45q-102 -74 -181.5 -76.5t-182.5 64.5q-72 43 -108 53t-73 -3t-110 -62q-20 -14 -35 16z" />
<glyph unicode="&#x2000;" horiz-adv-x="1082" />
<glyph unicode="&#x2001;" horiz-adv-x="2165" />
<glyph unicode="&#x2002;" horiz-adv-x="1082" />
<glyph unicode="&#x2003;" horiz-adv-x="2165" />
<glyph unicode="&#x2004;" horiz-adv-x="721" />
<glyph unicode="&#x2005;" horiz-adv-x="541" />
<glyph unicode="&#x2006;" horiz-adv-x="360" />
<glyph unicode="&#x2007;" horiz-adv-x="360" />
<glyph unicode="&#x2008;" horiz-adv-x="270" />
<glyph unicode="&#x2009;" horiz-adv-x="433" />
<glyph unicode="&#x200a;" horiz-adv-x="120" />
<glyph unicode="&#x2010;" horiz-adv-x="888" d="M143 487v62q0 31 31 31h541q30 0 30 -31v-62q0 -30 -30 -30h-541q-31 0 -31 30z" />
<glyph unicode="&#x2011;" horiz-adv-x="888" d="M143 487v62q0 31 31 31h541q30 0 30 -31v-62q0 -30 -30 -30h-541q-31 0 -31 30z" />
<glyph unicode="&#x2012;" horiz-adv-x="888" d="M143 487v62q0 31 31 31h541q30 0 30 -31v-62q0 -30 -30 -30h-541q-31 0 -31 30z" />
<glyph unicode="&#x2013;" horiz-adv-x="1271" d="M123 451v61q0 31 31 31h964q31 0 31 -31v-61q0 -31 -31 -31h-964q-31 0 -31 31z" />
<glyph unicode="&#x2014;" horiz-adv-x="1423" d="M123 451v61q0 31 31 31h1116q30 0 30 -31v-61q0 -31 -30 -31h-1116q-31 0 -31 31z" />
<glyph unicode="&#x2018;" horiz-adv-x="413" d="M102 963v204q0 99 20 176t87 154q11 12 19 12.5t22 -12.5l45 -41q14 -14 16 -23t-8 -20q-53 -52 -66.5 -101t-13.5 -132l-16 -21h53q31 0 31 -31v-165q0 -31 -31 -31h-127q-31 0 -31 31z" />
<glyph unicode="&#x2019;" horiz-adv-x="436" d="M117 1290v146q0 30 30 30h127q31 0 31 -30v-185q0 -51 -2 -78.5t-10.5 -70.5t-30 -82t-57.5 -80q-11 -13 -18 -13.5t-23 13.5l-29 27q-15 15 -16 25t10 20q23 22 37.5 45.5t22 39t11 47t3.5 42v53.5l16 21h-72q-30 0 -30 30z" />
<glyph unicode="&#x201a;" horiz-adv-x="413" d="M104 31v145q0 31 31 31h127q31 0 31 -31v-184q0 -51 -2 -78.5t-10.5 -70.5t-30 -82t-57.5 -80q-11 -13 -18 -13.5t-23 13.5l-29 26q-15 15 -16 25t10 20q35 34 51.5 71t19 62.5t2.5 78.5v16l17 20h-72q-31 0 -31 31z" />
<glyph unicode="&#x201c;" horiz-adv-x="757" d="M102 963v204q0 99 20 176t87 154q11 12 19 12.5t22 -12.5l45 -41q14 -14 16 -23t-8 -20q-53 -52 -66.5 -101t-13.5 -132l-16 -21h53q31 0 31 -31v-165q0 -31 -31 -31h-127q-31 0 -31 31zM446 963v204q0 99 20 176t87 154q11 12 19 12.5t22 -12.5l45 -41q14 -14 16 -23 t-8 -20q-53 -52 -66.5 -101t-13.5 -132l-16 -21h53q31 0 31 -31v-165q0 -31 -31 -31h-127q-31 0 -31 31z" />
<glyph unicode="&#x201d;" horiz-adv-x="776" d="M115 1290v146q0 30 30 30h127q31 0 31 -30v-185q0 -51 -2 -78.5t-10.5 -70.5t-30 -82t-57.5 -80q-11 -13 -18 -13.5t-23 13.5l-29 27q-15 15 -16 25t10 20q23 22 37.5 45.5t22 39t11 47t3.5 42v53.5l16 21h-72q-30 0 -30 30zM459 1290v146q0 30 30 30h127q31 0 31 -30 v-185q0 -51 -2 -78.5t-10.5 -70.5t-30 -82t-57.5 -80q-11 -13 -18 -13.5t-23 13.5l-29 27q-15 15 -16 25t10 20q23 22 37.5 45.5t22 39t11 47t3.5 42v53.5l16 21h-72q-30 0 -30 30z" />
<glyph unicode="&#x201e;" horiz-adv-x="757" d="M104 31v145q0 31 31 31h127q31 0 31 -31v-184q0 -51 -2 -78.5t-10.5 -70.5t-30 -82t-57.5 -80q-11 -13 -18 -13.5t-23 13.5l-29 26q-15 15 -16 25t10 20q35 34 51.5 71t19 62.5t2.5 78.5v16l17 20h-72q-31 0 -31 31zM449 31v145q0 31 30 31h127q31 0 31 -31v-184 q0 -51 -2 -78.5t-10.5 -70.5t-30 -82t-57.5 -80q-11 -13 -18 -13.5t-23 13.5l-29 26q-15 15 -16 25t10 20q28 27 44 52t22 59t7 50.5t1 66.5l16 20h-72q-30 0 -30 31z" />
<glyph unicode="&#x2022;" horiz-adv-x="598" d="M164 649v125q0 68 65 68h136q69 0 69 -68v-125q0 -67 -69 -67h-136q-65 0 -65 67z" />
<glyph unicode="&#x2026;" horiz-adv-x="983" d="M102 31v75q0 31 31 31h78q31 0 31 -31v-75q0 -31 -31 -31h-78q-31 0 -31 31zM422 31v75q0 31 31 31h77q31 0 31 -31v-75q0 -31 -31 -31h-77q-31 0 -31 31zM741 31v75q0 31 31 31h78q31 0 31 -31v-75q0 -31 -31 -31h-78q-31 0 -31 31z" />
<glyph unicode="&#x202f;" horiz-adv-x="433" />
<glyph unicode="&#x2039;" horiz-adv-x="677" d="M113 489v74q0 7 1 11.5t4.5 9t5.5 6.5t9 7t10 7l385 285q14 10 25.5 4t11.5 -21v-114q0 -14 -8 -22t-29 -23l-254 -187l254 -186q15 -10 20.5 -14.5t11 -12.5t5.5 -18v-115q0 -15 -11.5 -20.5t-25.5 4.5l-385 285q-3 3 -8 6.5t-7.5 5t-6 5t-5 6.5t-2.5 7t-1 10z" />
<glyph unicode="&#x203a;" horiz-adv-x="677" d="M113 180v115q0 14 8 22t29 23l253 186l-253 187q-15 10 -20.5 14.5t-11 12.5t-5.5 18v114q0 15 11.5 21t25.5 -4l385 -285q3 -2 10 -7t9 -7t5.5 -6.5t4.5 -9t1 -11.5v-74q0 -8 -3 -14.5t-4.5 -8.5t-11 -8.5t-11.5 -8.5l-385 -285q-14 -10 -25.5 -4.5t-11.5 20.5z" />
<glyph unicode="&#x205f;" horiz-adv-x="541" />
<glyph unicode="&#x20ac;" horiz-adv-x="1441" d="M102 592v61q0 31 31 31h252v115h-252q-31 0 -31 30v62q0 31 31 31h252v100q0 99 35.5 189.5t94.5 155.5t139 103.5t165 38.5h94q110 0 207.5 -64.5t157 -174t61.5 -234.5q0 -30 -30 -30h-62q-33 0 -33 30q0 144 -89.5 249.5t-211.5 105.5h-94q-129 0 -220 -107t-91 -262 v-100h399q31 0 31 -31v-62q0 -30 -31 -30h-399v-115h399q31 0 31 -31v-61q0 -31 -31 -31h-399v-96q0 -156 91.5 -264.5t219.5 -108.5h94q122 0 212 106.5t89 252.5q0 30 33 30h62q30 0 30 -30q-1 -125 -60.5 -236t-157.5 -176.5t-208 -65.5h-94q-174 0 -304 145.5 t-130 346.5v96h-252q-31 0 -31 31z" />
<glyph unicode="&#x2122;" horiz-adv-x="1595" d="M82 1395v61q0 31 31 31h489q31 0 31 -31v-61q0 -31 -31 -31h-182v-371q0 -30 -31 -30h-61q-31 0 -31 30v371h-184q-31 0 -31 31zM745 993v463q0 31 31 31h123q24 0 41 -31l188 -338l191 338q18 31 41 31h123q30 0 30 -31v-463q0 -30 -30 -30h-62q-30 0 -30 30v340 l-201 -340q-19 -30 -39 -30h-43q-20 0 -39 30l-201 340v-340q0 -30 -30 -30h-62q-31 0 -31 30z" />
<glyph unicode="&#x25fc;" horiz-adv-x="962" d="M0 0v963h963v-963h-963z" />
</font>
</defs>
</svg>
