<?xml version="1.0" standalone="no"?>
<!DOCTYPE svg PUBLIC "-//W3C//DTD SVG 1.1//EN" "http://www.w3.org/Graphics/SVG/1.1/DTD/svg11.dtd" >
<svg xmlns="http://www.w3.org/2000/svg" xmlns:xlink="http://www.w3.org/1999/xlink" version="1.1">
<metadata></metadata>
<defs>
<font id="manifold_cfitalic" horiz-adv-x="1191" >
<font-face units-per-em="2048" ascent="1638" descent="-410" />
<missing-glyph horiz-adv-x="645" />
<glyph unicode="&#xfb01;" horiz-adv-x="1187" d="M96 881l6 53q3 31 33 31h121l16 147q19 172 119.5 273.5t253.5 101.5h135q32 0 29 -31l-6 -51q-3 -31 -35 -31h-135q-104 0 -167 -69t-75 -193l-16 -147h629h6h8h57q32 0 29 -31l-96 -903q-3 -31 -33 -31h-57q-32 0 -29 31l88 819h-615l-86 -819q-3 -31 -32 -31h-58 q-31 0 -28 31l86 819h-121q-30 0 -27 31zM1032 1354l12 102q3 31 33 31h51q32 0 29 -31l-12 -102q-3 -31 -33 -31h-51q-32 0 -29 31z" />
<glyph unicode="&#xfb02;" horiz-adv-x="1198" d="M96 881l6 51q3 31 33 31h119l16 149q19 172 119.5 273.5t253.5 101.5h465q32 0 29 -31l-152 -1425q-3 -31 -33 -31h-57q-32 0 -29 31l144 1343h-379q-104 0 -167 -69t-75 -193l-16 -149h329q32 0 29 -31l-6 -51q-3 -31 -35 -31h-330l-86 -819q-3 -31 -32 -31h-58 q-31 0 -28 31l86 819h-119q-30 0 -27 31z" />
<glyph horiz-adv-x="0" />
<glyph horiz-adv-x="682" />
<glyph unicode=" "  horiz-adv-x="645" />
<glyph unicode="&#x09;" horiz-adv-x="645" />
<glyph unicode="&#xa0;" horiz-adv-x="645" />
<glyph unicode="!" horiz-adv-x="446" d="M78 31l8 75q3 31 35 31h78q29 0 26 -31l-8 -75q-3 -31 -33 -31h-78q-31 0 -28 31zM125 383l113 1073q3 31 32 31h62q31 0 28 -31l-112 -1073q-6 -31 -35 -31h-61q-33 0 -27 31z" />
<glyph unicode="&#x22;" horiz-adv-x="790" d="M166 856l63 600q3 31 33 31h78q32 0 29 -31l-64 -600q-3 -31 -35 -31h-77q-30 0 -27 31zM510 856l63 600q3 31 33 31h78q32 0 29 -31l-64 -600q-3 -31 -35 -31h-77q-30 0 -27 31z" />
<glyph unicode="#" horiz-adv-x="1220" d="M111 432l6 62q3 30 35 30h143l45 439h-143q-30 0 -27 30l6 62q3 30 35 30h143l39 371q3 31 33 31h61q32 0 29 -31l-39 -371h340l39 371q3 31 33 31h61q32 0 29 -31l-39 -371h143q30 0 27 -30l-6 -62q-3 -30 -35 -30h-143l-45 -439h143q30 0 27 -30l-7 -62q-3 -31 -34 -31 h-144l-39 -370q-3 -31 -32 -31h-62q-31 0 -28 31l38 370h-340l-38 -370q-3 -31 -33 -31h-62q-31 0 -28 31l39 370h-144q-29 0 -26 31zM418 524h340l47 439h-340z" />
<glyph unicode="$" horiz-adv-x="970" d="M109 797q0 30 32 30h66q31 0 31 -28q1 -59 53.5 -98.5t122.5 -47.5l32 312q-151 25 -226 84.5t-62 173.5q8 85 59 148.5t125 96.5t162 39l14 133q3 31 35 31h61q30 0 27 -31l-14 -133q115 -16 199 -98.5t77 -194.5q-3 -32 -33 -32h-63q-15 0 -23.5 6.5t-7.5 19.5 q6 68 -42.5 115.5t-119.5 58.5l-32 -311q74 -12 126 -29t94 -46t60.5 -75.5t11.5 -109.5q-10 -113 -114 -191.5t-236 -89.5l-14 -133q-3 -30 -33 -30h-61q-32 0 -29 30l14 133q-113 10 -203 86.5t-89 180.5zM281 1223q-7 -63 37.5 -92t142.5 -44l31 297q-195 -11 -211 -161z M537 653q87 8 147.5 49.5t67.5 108.5q4 32 -4 55t-21.5 37t-41 23.5t-52.5 14t-66 9.5z" />
<glyph unicode="%" horiz-adv-x="1290" d="M82.5 8q-5.5 8 3.5 23l979 1425q12 17 20.5 24t22.5 7h86q16 0 21.5 -8t-3.5 -23l-979 -1425q-12 -17 -20.5 -24t-22.5 -7h-86q-16 0 -21.5 8zM137 1274l2 22q9 82 67.5 136.5t141.5 54.5h27q83 0 130 -54.5t38 -136.5l-2 -22q-7 -83 -65.5 -136t-141.5 -53h-27 q-83 0 -130.5 53t-39.5 136zM248 1278q-3 -39 16 -60.5t58 -21.5h16q41 0 65 21.5t27 60.5l2 14q9 82 -76 82h-16q-81 0 -90 -82zM748 188l2 23q8 82 65.5 136t140.5 54h27q83 0 130.5 -54t39.5 -136l-2 -23q-9 -83 -67.5 -135.5t-141.5 -52.5h-27q-83 0 -129.5 52.5 t-37.5 135.5zM858 193q-5 -38 14.5 -60t59.5 -22h16q82 0 92 82v14q9 82 -73 82h-17q-40 0 -64 -21t-28 -61v-14z" />
<glyph unicode="&#x26;" horiz-adv-x="1478" d="M61 356l9 80q8 86 57.5 157t165.5 134l53 29l-24 22q-85 78 -108 152t-11 176l4 39q14 147 134.5 256.5t291.5 109.5h135q114 0 199 -52.5t123.5 -135.5t29.5 -178l-4 -39q-10 -91 -48 -163t-95 -114l-70 -55q-22 -16 -51 -16h-78q-21 0 -27 14t11 25l53 32 q67 40 119.5 115t62.5 162l4 39q10 102 -53.5 173t-187.5 71h-135q-125 0 -203 -71.5t-88 -172.5l-4 -39q-10 -87 20 -149t103 -130l524 -491l2 20l16 156q13 120 64 160l108 80q4 2 10.5 6.5t9.5 6.5t8 3.5t11 1.5h94q21 0 27.5 -12.5t-10.5 -24.5l-148 -108 q-10 -8 -18 -16.5t-13.5 -20t-9 -19t-6 -23.5t-3.5 -21.5t-3 -24.5t-2 -23l-12 -121q-5 -47 -27 -112l221 -207q12 -11 5 -24t-27 -13h-105q-19 0 -35 16l-124 117q-62 -77 -156 -120.5t-203 -43.5h-217q-178 0 -283 108t-86 279zM184 356q-12 -125 58 -194.5t202 -69.5h218 q176 0 262 119l-490 461l-74 -33q-154 -72 -167 -203z" />
<glyph unicode="'" horiz-adv-x="446" d="M166 856l63 600q3 31 33 31h78q32 0 29 -31l-64 -600q-3 -31 -35 -31h-77q-30 0 -27 31z" />
<glyph unicode="(" horiz-adv-x="684" d="M80 242l106 1003q19 173 120.5 279t254.5 106h53q30 0 27 -31l-6 -61q-3 -31 -35 -31h-53q-103 0 -164.5 -69t-73.5 -193l-106 -1003q-12 -125 34.5 -193.5t149.5 -68.5h53q30 0 27 -31l-6 -62q-3 -30 -35 -30h-53q-153 0 -232.5 106t-60.5 279z" />
<glyph unicode=")" horiz-adv-x="684" d="M43 -113l6 62q3 31 35 31h53q103 0 164.5 69t73.5 193l106 1003q12 125 -34.5 193.5t-149.5 68.5h-53q-30 0 -27 31l6 61q3 31 35 31h53q153 0 232.5 -106t60.5 -279l-106 -1003q-19 -173 -120.5 -279t-254.5 -106h-53q-30 0 -27 30z" />
<glyph unicode="*" horiz-adv-x="761" d="M166 1090q-11 23 12 36l160 84l-143 82q-23 13 -5 37l39 55q18 21 37 9l115 -95l18 164q3 25 27 25h66q27 0 24 -25l-18 -164l133 95q28 12 37 -9l28 -55q10 -26 -14 -37l-158 -82l142 -84q20 -14 6 -36l-41 -56q-15 -21 -37 -8l-115 94l-16 -164q-3 -24 -29 -24h-65 q-26 0 -23 24l16 164l-133 -94q-24 -12 -36 8z" />
<glyph unicode="+" horiz-adv-x="1052" d="M111 631l6 61q3 31 35 31h313l35 332q3 30 35 30h61q30 0 27 -30l-35 -332h311q28 0 25 -31l-6 -61q-3 -31 -33 -31h-310l-34 -334q-6 -30 -35 -30h-62q-32 0 -26 30l35 334h-314q-31 0 -28 31z" />
<glyph unicode="," horiz-adv-x="395" d="M12 -248q25 22 42.5 45.5t26.5 39.5t15.5 46.5t8.5 43t6 53.5l18 20h-72q-31 0 -28 31l16 145q3 31 33 31h127q31 0 28 -31l-20 -184q-4 -40 -7 -62t-11.5 -58t-21.5 -62.5t-36.5 -61t-56.5 -67.5q-11 -13 -19 -13.5t-22 13.5l-25 26q-24 26 -2 45z" />
<glyph unicode="-" horiz-adv-x="888" d="M117 487l6 62q3 31 35 31h540q30 0 27 -31l-6 -62q-3 -30 -35 -30h-541q-29 0 -26 30z" />
<glyph unicode="." horiz-adv-x="315" d="M6 31l10 92q3 31 35 31h90q30 0 27 -31l-10 -92q-3 -31 -33 -31h-90q-32 0 -29 31z" />
<glyph unicode="/" horiz-adv-x="804" d="M-33.5 8q-5.5 8 2.5 23l774 1425q15 31 43 31h74q34 0 19 -31l-775 -1425q-19 -31 -43 -31h-73q-16 0 -21.5 8z" />
<glyph unicode="0" d="M86 475l57 545q22 202 163.5 345.5t318.5 143.5h94q116 0 208.5 -65.5t138.5 -178t32 -245.5l-58 -545q-22 -202 -163 -345.5t-318 -143.5h-94q-116 0 -208.5 65.5t-138.5 178t-32 245.5zM209 475q-17 -158 61 -266t211 -107h86q133 1 233.5 108.5t117.5 264.5l57 545 q17 157 -61.5 264t-211.5 107h-86q-133 0 -233 -106.5t-117 -264.5z" />
<glyph unicode="1" horiz-adv-x="753" d="M207 1241q-19 19 4 43l215 193l6 4q6 6 21 6h57q32 0 29 -31l-152 -1425q-3 -31 -33 -31h-57q-32 0 -29 31l135 1272l-116 -105q-20 -23 -43 0z" />
<glyph unicode="2" horiz-adv-x="1159" d="M29 31q14 118 34 201t58 163t102.5 137t157.5 95l289 118q42 17 67 28t58.5 29t53.5 35t43 42t36.5 53t24.5 66.5t16 84.5q15 130 -66.5 215.5t-206.5 85.5h-86q-124 0 -224 -85t-114 -222l-4 -35q-3 -30 -32 -30h-64q-32 0 -29 30l4 35q13 121 85.5 220t176.5 152.5 t214 53.5h86q83 0 157.5 -32.5t128 -87.5t80.5 -133.5t17 -166.5q-9 -81 -32.5 -145t-57 -109.5t-86.5 -84t-107 -65t-133 -56.5l-242 -95q-67 -26 -118 -77t-79.5 -112t-43 -114.5t-19.5 -105.5h772q30 0 27 -31l-6 -57q-3 -31 -33 -31h-877q-31 0 -28 31z" />
<glyph unicode="3" horiz-adv-x="1148" d="M59 391l4 39q3 31 33 31h64q31 0 28 -31l-4 -39q-14 -135 69 -213t208 -78h86q137 0 238 78t116 211q13 139 -68.5 221t-228.5 88h-127q-31 0 -28 31l6 57q3 31 34 31h127q145 6 231.5 84.5t100.5 210.5q12 119 -67.5 200t-202.5 81h-86q-75 0 -146 -36t-122.5 -108.5 t-61.5 -165.5l-4 -39q-3 -30 -33 -30h-63q-32 0 -29 30l4 39q14 123 86.5 223t174 152.5t206.5 52.5h86q169 0 283.5 -117.5t97.5 -281.5q-13 -123 -80 -205.5t-194 -146.5q120 -65 180 -153.5t47 -217.5q-13 -119 -85 -213.5t-178.5 -144t-225.5 -49.5h-86q-82 0 -156.5 29 t-130.5 80.5t-85 130t-18 169.5z" />
<glyph unicode="4" horiz-adv-x="1128" d="M29 569q-7 21 8 45l668 873q17 22 43 22h77q20 0 24.5 -10.5t-7.5 -25.5l-652 -850h517l32 309q3 31 33 31h62q31 0 28 -31l-33 -309h164q30 0 27 -31l-6 -57q-3 -31 -33 -31h-164l-51 -473q-3 -31 -33 -31h-61q-32 0 -29 31l51 473h-620q-24 0 -31 20z" />
<glyph unicode="5" horiz-adv-x="1161" d="M66 393l4 33q3 31 32 31h64q32 0 29 -31l-5 -33q-15 -139 62 -219t209 -80h80q138 0 238 83.5t122 246.5q24 186 -47.5 290.5t-235.5 104.5h-43q-67 0 -139 -25.5t-109.5 -49t-86.5 -58.5h-93q-29 0 -26 31l4 39l94 700q3 31 33 31h786q32 0 29 -31l-6 -51 q-3 -31 -35 -31h-692l-76 -547q152 105 330 105h43q98 0 177 -31t135 -91.5t79 -158.5t6 -223q-21 -146 -97 -249t-179.5 -150t-223.5 -47h-79q-116 0 -207.5 49.5t-140 144.5t-35.5 217z" />
<glyph unicode="6" horiz-adv-x="1163" d="M80 422q6 334 80 670q39 182 163 300.5t306 118.5h71q180 0 292.5 -119.5t94.5 -301.5l-4 -29q-3 -31 -32 -31h-62q-31 0 -28 31l4 29q13 136 -65.5 219.5t-211.5 83.5h-70q-69 0 -127 -23t-97 -63t-64.5 -86t-40.5 -99q-46 -168 -56 -307q46 52 131.5 87.5t196.5 35.5 h76q228 0 327.5 -128.5t63.5 -387.5q-20 -141 -93 -243t-174 -149.5t-218 -47.5h-97q-175 0 -272 115.5t-94 324.5zM203 422q-6 -322 256 -322h96q87 0 159.5 33t125 107.5t65.5 181.5q13 94 4.5 167.5t-39 124.5t-92 78t-153.5 27h-78q-180 0 -259.5 -99.5t-84.5 -297.5z " />
<glyph unicode="7" horiz-adv-x="1165" d="M116.5 15q-4.5 15 2.5 28q283 731 880 1331h-811q-29 0 -26 31l6 51q3 31 33 31h919q32 0 29 -31l-6 -47q0 -26 -13 -47q-310 -306 -527 -626.5t-361 -700.5q-16 -35 -45 -35h-62q-14 0 -18.5 15z" />
<glyph unicode="8" horiz-adv-x="1173" d="M57 379l6 53q12 108 78.5 198t167.5 142q-78 47 -117 135t-28 189l4 32q16 153 142 268t298 115h117q114 0 202 -55t129 -142t31 -186l-4 -32q-11 -102 -68 -190t-147 -134q91 -52 139.5 -142t36.5 -198l-6 -53q-11 -108 -78 -199.5t-170 -144.5t-217 -53h-133 q-174 0 -287 116.5t-96 280.5zM180 379q-12 -119 66 -199t207 -80h133q130 0 226 80.5t103 198.5l7 53q12 119 -67 199t-210 80h-125q-132 0 -227 -80t-107 -199zM287 1096q-11 -114 53.5 -190.5t191.5 -76.5h125q128 0 210.5 77t93.5 190l4 32q11 107 -57.5 186t-194.5 79 h-117q-128 0 -214 -79.5t-91 -185.5z" />
<glyph unicode="9" horiz-adv-x="1165" d="M156 403l4 29q3 31 33 31h61q32 0 29 -31l-4 -29q-13 -136 65 -219.5t211 -83.5h70q69 0 127 23t97 63t64.5 86t40.5 99q46 168 56 307q-46 -52 -131.5 -87.5t-196.5 -35.5h-76q-228 0 -327.5 128.5t-63.5 387.5q20 141 93 243t174 149.5t218 47.5h97q175 0 272 -115.5 t94 -324.5q-6 -334 -80 -670q-39 -182 -163 -300.5t-306 -118.5h-71q-180 0 -292.5 119.5t-94.5 301.5zM333.5 903.5q8.5 -73.5 39 -124.5t92 -78t153.5 -27h78q180 0 259.5 99.5t84.5 297.5q6 322 -256 322h-96q-87 0 -159.5 -33t-125 -107.5t-65.5 -181.5 q-13 -94 -4.5 -167.5z" />
<glyph unicode=":" horiz-adv-x="466" d="M78 31l12 116q3 31 35 31h98q30 0 27 -31l-12 -116q-3 -31 -33 -31h-99q-31 0 -28 31zM162 815l12 117q3 31 33 31h98q32 0 29 -31l-12 -117q-3 -31 -35 -31h-99q-29 0 -26 31z" />
<glyph unicode=";" horiz-adv-x="471" d="M78 31l18 157q3 31 33 31h98q13 0 20 -10t7 -23q0 -50 -16 -186q-7 -46 -12.5 -72.5t-21.5 -65t-42 -67.5q-14 -18 -33 -18h-27q-13 0 -17.5 11.5t5.5 23.5q31 37 45 91.5t10 88.5l11 8h-50q-31 0 -28 31zM162 815l12 117q3 31 33 31h98q32 0 29 -31l-12 -117 q-3 -31 -35 -31h-99q-29 0 -26 31z" />
<glyph unicode="&#x3c;" horiz-adv-x="983" d="M96 483q3 31 23 45l727 396q15 7 24 1.5t7 -18.5l-7 -69q-4 -39 -26 -50l-561 -305l497 -305q22 -14 15 -49l-7 -70q-2 -13 -11 -18t-23 2l-645 395q-18 14 -13 45z" />
<glyph unicode="=" horiz-adv-x="929" d="M94 467l6 61q3 31 35 31h623q29 0 26 -31l-6 -61q-3 -31 -35 -31h-622q-30 0 -27 31zM129 795l6 61q3 31 33 31h623q31 0 28 -31l-6 -61q-3 -31 -35 -31h-622q-30 0 -27 31z" />
<glyph unicode="&#x3e;" horiz-adv-x="983" d="M51 59l6 70q3 14 4.5 20t7.5 15t15 14l563 305l-500 305q-18 11 -14 50l6 69q2 12 12.5 18t22.5 -1l645 -396q18 -12 15 -45q-5 -34 -25 -45l-727 -395q-13 -7 -23 -1.5t-8 17.5z" />
<glyph unicode="?" horiz-adv-x="1040" d="M102 1042l4 39q12 122 79 222.5t166 155t206 54.5h86q110 0 198 -55.5t132.5 -153.5t32.5 -217q-10 -86 -39 -152t-74 -110t-92 -71.5t-107 -48.5q-53 -19 -75.5 -28t-50.5 -23.5t-38.5 -28.5t-19 -35.5t-12.5 -52.5l-15 -154q-6 -31 -34 -31h-62q-33 0 -27 31l15 154 q12 109 65 165t174 101q64 23 102 42t77.5 51t61 79t28.5 112q13 134 -59 219t-195 85h-86q-119 0 -208 -85.5t-104 -224.5l-4 -39q-3 -30 -32 -30h-64q-32 0 -29 30zM313 31l9 75q3 31 34 31h78q30 0 27 -31l-8 -75q-3 -31 -33 -31h-78q-32 0 -29 31z" />
<glyph unicode="@" horiz-adv-x="1282" d="M94 465l58 559q15 141 93 254t192.5 173t240.5 60h94q91 0 172.5 -36t139.5 -97.5t87.5 -150.5t18.5 -189l-60 -575q-9 -75 -55.5 -120.5t-113.5 -45.5h-25q-40 0 -76.5 29t-46.5 73q-115 -104 -250 -104h-20q-111 0 -178 73t-56 177q11 110 99 183t217 73h206v10 q12 112 -22 162.5t-119 50.5h-35q-33 0 -61.5 -5.5t-44 -10t-40.5 -20.5t-29.5 -19.5t-30.5 -24.5q-11 -9 -24 -9.5t-22 9.5l-30 43q-18 21 2 41q60 60 127.5 89.5t167.5 29.5h35q129 0 197.5 -90t51.5 -246l-12 -133l-14 -127l-8 -88q-3 -22 4 -33.5t32 -11.5 q26 0 37.5 11.5t14.5 33.5l59 575q17 155 -74.5 253t-232.5 98h-94q-148 0 -261 -99.5t-131 -265.5l-57 -559q-18 -167 73.5 -268t239.5 -101h95q80 0 159 47q19 11 28.5 7t6.5 -23l-8 -76q0 -25 -25 -37q-93 -41 -176 -41h-94q-126 0 -227.5 61.5t-155.5 175.5t-39 255z M432 545q-6 -58 26 -92.5t97 -34.5h20q41 0 73.5 9t62.5 32t45.5 38.5t48.5 51.5l14 129h-207q-167 0 -180 -133z" />
<glyph unicode="A" horiz-adv-x="1216" d="M16 33l607 1427q13 33 41 33h65q30 0 37 -33l305 -1427q6 -33 -29 -33h-65q-29 0 -35 33l-82 399h-547l-166 -399q-14 -33 -41 -33h-71q-36 0 -19 33zM358 541h482l-160 778z" />
<glyph unicode="B" horiz-adv-x="1200" d="M59 37l148 1413q6 37 41 37h477q177 0 279 -100q86 -85 86 -225q0 -25 -3 -52q-28 -258 -215 -346q102 -49 148 -138q34 -67 35 -165q0 -32 -4 -68q-20 -189 -139 -291t-320 -102h-500q-39 0 -33 37zM190 119h414q143 0 227 71t97 203q3 26 3 49q1 108 -57 176 q-70 82 -206 82h-416zM264 819h416q119 0 195 81t90 210q2 21 2 40q0 100 -57 154q-68 64 -197 64h-391z" />
<glyph unicode="C" horiz-adv-x="1163" d="M76 465l57 557q14 132 86 244.5t178.5 177.5t220.5 65h95q110 0 201 -64.5t139 -174.5q39 -89 39 -188q0 -23 -2 -46q-3 -30 -35 -30h-62q-31 0 -28 30q2 23 2 45q0 117 -66 205q-79 106 -201 105h-94q-128 0 -230.5 -106.5t-119.5 -262.5l-57 -557q-3 -27 -3 -53 q0 -122 66 -212q80 -108 209 -108h94q122 0 223.5 106.5t114.5 252.5q3 30 37 30h61q30 0 27 -30q-14 -125 -85.5 -236t-176.5 -176.5t-215 -65.5h-94q-114 0 -207 66q-92 66 -140 180q-37 88 -37 187q0 29 3 59z" />
<glyph unicode="D" horiz-adv-x="1167" d="M43 31l152 1425q3 31 32 31h490q110 0 201 -65q92 -64 140 -176q37 -86 37 -183q0 -28 -3 -57l-54 -525q-14 -128 -85.5 -239.5t-176.5 -176.5t-215 -65h-489q-32 0 -29 31zM176 119h393q125 0 227 106.5t119 259.5l54 516q3 27 3 52q0 119 -66 207q-80 108 -206 108 h-391z" />
<glyph unicode="E" horiz-adv-x="1099" d="M74 31l151 1425q3 31 33 31h760q32 0 29 -31l-7 -57q-3 -31 -34 -31h-668l-59 -559h534q32 0 29 -31l-6 -57q-3 -31 -35 -31h-535l-59 -571h667q30 0 27 -31l-6 -57q-3 -31 -33 -31h-760q-31 0 -28 31z" />
<glyph unicode="F" horiz-adv-x="1058" d="M74 31l151 1425q3 31 33 31h760q32 0 29 -31l-7 -57q-3 -31 -34 -31h-668l-62 -580h535q32 0 29 -30l-6 -58q-3 -30 -35 -30h-535l-67 -639q-3 -31 -33 -31h-62q-31 0 -28 31z" />
<glyph unicode="G" horiz-adv-x="1181" d="M82 459l59 563q11 99 56 189.5t111 155.5t150 103.5t169 38.5h94q110 0 201 -64.5t139 -174.5q39 -89 39 -188q0 -23 -2 -46q-3 -30 -35 -30h-62q-31 0 -28 30q2 23 2 46q0 117 -65 204q-79 105 -201 105h-95q-128 0 -230.5 -106.5t-119.5 -262.5l-59 -563q-2 -25 -2 -48 q0 -124 66 -213q79 -106 210 -106h94q126 0 225.5 106.5t114.5 260.5l21 188h-299q-30 0 -27 31l6 57q3 31 33 31h393q32 0 29 -31l-31 -276q-13 -131 -84.5 -243.5t-177 -177.5t-217.5 -65h-94q-116 0 -209 65t-140 177q-37 88 -37 188q0 27 3 56z" />
<glyph unicode="H" horiz-adv-x="1210" d="M57 31l152 1425q3 31 33 31h61q32 0 29 -31l-74 -688h698l74 688q3 31 33 31h61q32 0 29 -31l-152 -1425q-3 -31 -32 -31h-62q-31 0 -28 31l65 618h-698l-66 -618q-3 -31 -33 -31h-61q-32 0 -29 31z" />
<glyph unicode="I" horiz-adv-x="380" d="M43 31l152 1425q3 31 32 31h62q31 0 28 -31l-151 -1425q-3 -31 -33 -31h-61q-32 0 -29 31z" />
<glyph unicode="J" horiz-adv-x="1081" d="M37 274q-9 27 20 41l62 25q29 12 35 -18q29 -106 102.5 -162t204.5 -56t230 102t116 261l104 989q3 31 33 31h62q31 0 28 -31l-104 -989q-23 -207 -163 -344t-318 -137q-167 0 -270.5 76.5t-141.5 211.5z" />
<glyph unicode="K" horiz-adv-x="1138" d="M47 31l152 1425q3 31 32 31h62q32 0 29 -31l-80 -749l682 743q34 37 55 37h72q10 0 15.5 -6.5t3 -18.5t-14.5 -26l-647 -707l565 -680q12 -12 7 -30.5t-24 -18.5h-73q-28 0 -54 29l-510 610l-96 -100l-53 -508q-3 -31 -33 -31h-61q-32 0 -29 31z" />
<glyph unicode="L" horiz-adv-x="1077" d="M53 31l152 1425q3 31 33 31h61q32 0 29 -31l-142 -1337h709q30 0 27 -31l-7 -57q-3 -31 -32 -31h-801q-32 0 -29 31z" />
<glyph unicode="M" horiz-adv-x="1460" d="M43 31l152 1425q3 31 32 31h135q33 0 39 -31l261 -1259l528 1259q12 31 43 31h135q32 0 29 -31l-152 -1425q-3 -31 -33 -31h-61q-32 0 -29 31l140 1321l-553 -1321q-12 -31 -41 -31h-52q-30 0 -36 31l-275 1321l-139 -1321q-3 -31 -33 -31h-61q-32 0 -29 31z" />
<glyph unicode="N" horiz-adv-x="1247" d="M43 31l152 1425q3 31 32 31h135q26 0 35 -23l523 -1341l141 1333q3 31 33 31h61q32 0 29 -31l-152 -1425q-3 -31 -33 -31h-135q-26 0 -35 23l-522 1341l-141 -1333q-3 -31 -33 -31h-61q-32 0 -29 31z" />
<glyph unicode="O" d="M86 475l57 545q22 202 163.5 345.5t318.5 143.5h94q116 0 208.5 -65.5t138.5 -177.5q35 -86 35 -185q0 -30 -3 -61l-58 -545q-22 -202 -163 -345.5t-318 -143.5h-94q-116 0 -209 66q-92 66 -138 178q-35 86 -35 184q0 30 3 61zM209 475q-3 -28 -3 -55q0 -122 64 -211 q77 -107 209 -107h2h86q133 1 233.5 108.5t117.5 264.5l57 545q3 28 3 54q0 122 -64 210q-78 107 -212 107h-86q-133 0 -233 -106.5t-117 -264.5z" />
<glyph unicode="P" horiz-adv-x="1116" d="M53 31l66 616l12 119l64 602l10 88q3 31 33 31h487q184 0 280 -112q79 -93 79 -243q0 -31 -3 -65q-22 -196 -141 -308t-303 -112h-395l-66 -616q-3 -31 -33 -31h-61q-32 0 -29 31zM254 766h395q275 0 309 301q3 30 3 56q0 245 -248 245h-396z" />
<glyph unicode="Q" horiz-adv-x="1202" d="M8 475l58 545q22 202 163 345.5t318 143.5h94q116 0 208.5 -65.5t138.5 -177.5q35 -87 35 -185q0 -30 -3 -61l-57 -545q-15 -133 -86 -250l122 -137q21 -20 -4 -45l-47 -43q-25 -22 -43 0l-110 125q-65 -65 -147 -102t-167 -37h-94q-116 0 -208.5 65.5t-138.5 178.5 q-35 86 -35 184q0 30 3 61zM131 475q-3 -28 -3 -55q0 -122 64 -211q77 -107 209 -107h2h86q128 0 230 105l-74 84q-19 22 4 45l47 43q25 21 43 0l56 -62q36 74 45 158l57 545q3 28 3 55q0 121 -64 209q-78 107 -211 107h-86q-133 0 -233.5 -107t-117.5 -264z" />
<glyph unicode="R" horiz-adv-x="1161" d="M47 31l66 616l12 119l63 602l11 88q3 31 32 31h488q184 0 280 -112q79 -93 79 -243q0 -31 -3 -65q-28 -253 -217 -356q84 -45 124 -133q31 -68 31 -156q0 -26 -3 -55l-37 -336q-2 -14 -11 -22.5t-22 -8.5h-61q-14 0 -22 9t-7 22l35 329q3 29 3 54q0 104 -52 162 q-64 72 -183 71h-417l-66 -616q-3 -31 -33 -31h-61q-32 0 -29 31zM248 766h395q275 0 309 301q3 30 3 56q0 245 -248 245h-396z" />
<glyph unicode="S" horiz-adv-x="1179" d="M76 387l6 55q3 31 33 31h63q32 0 29 -31l-4 -55q-1 -15 -1 -28q0 -115 74 -186q83 -79 213 -79h72q133 0 232 81.5t114 217.5q2 21 2 41q0 48 -12 85q-17 53 -57.5 85t-86.5 49.5t-112 30.5l-106 21q-378 72 -378 351q0 24 3 50q12 120 76 213t160 141.5t208 48.5h107 q80 0 152.5 -31.5t124.5 -87.5q53 -54 80 -136q20 -59 20 -126q0 -24 -3 -49l-4 -35q-3 -30 -32 -30h-64q-32 0 -29 30l5 35q2 21 2 40q0 115 -70 187q-82 86 -209 85h-84q-129 0 -216.5 -75t-100.5 -210q-2 -21 -2 -41q1 -43 11 -77q16 -50 53.5 -81.5t85.5 -51t116 -32.5 l106 -20q70 -14 126.5 -34t108.5 -53t86 -76q32 -44 48 -107q10 -42 11 -89q0 -25 -3 -51q-20 -185 -158.5 -301.5t-314.5 -116.5h-94q-82 0 -156.5 30t-129.5 82.5t-83 130.5q-21 58 -21 122q0 23 3 47z" />
<glyph unicode="T" horiz-adv-x="1134" d="M145 1399l7 57q3 31 32 31h899q32 0 29 -31l-6 -57q-3 -31 -35 -31h-387l-141 -1337q-3 -31 -33 -31h-61q-32 0 -29 31l141 1337h-389q-30 0 -27 31z" />
<glyph unicode="U" horiz-adv-x="1171" d="M86 446l107 1010q3 31 32 31h62q31 0 28 -31l-106 -1010q-3 -27 -3 -52q0 -118 65 -196q79 -94 231 -94h41q151 0 249.5 94.5t116.5 247.5l107 1010q3 31 33 31h61q32 0 29 -31l-107 -1010q-22 -199 -160.5 -329.5t-334.5 -130.5h-54q-195 0 -307 131q-93 109 -94 266 q0 30 4 63z" />
<glyph unicode="V" horiz-adv-x="1222" d="M168 1454q-3 33 29 33h69q30 0 33 -33l254 -1259l518 1259q14 33 41 33h70q34 0 20 -33l-594 -1421q-16 -33 -43 -33h-63q-14 0 -24 9t-11 24z" />
<glyph unicode="W" horiz-adv-x="1900" d="M170 1456q-6 31 27 31h67q32 0 35 -31l160 -1255l493 1255q12 31 41 31h70q31 0 37 -31l229 -1255l424 1255q9 31 37 31h68q33 0 24 -31l-500 -1425q-11 -31 -41 -31h-61q-32 0 -37 31l-235 1257l-502 -1257q-11 -31 -41 -31h-62q-33 0 -36 31z" />
<glyph unicode="X" horiz-adv-x="1114" d="M17.5 8q-5.5 8 2.5 23l469 712l-317 713q-6 15 0.5 23t22.5 8h73q27 0 39 -31l262 -590l389 590q19 31 43 31h74q16 0 21.5 -8t-2.5 -23l-469 -713l317 -712q12 -31 -22 -31h-74q-27 0 -39 31l-262 590l-389 -590q-19 -31 -43 -31h-74q-16 0 -21.5 8z" />
<glyph unicode="Y" d="M147 1456q-7 14 0 22.5t23 8.5h80q24 0 39 -31l293 -670l440 670q12 17 20.5 24t22.5 7h80q16 0 21.5 -8t-3.5 -23l-534 -803l-66 -622q-3 -31 -33 -31h-61q-32 0 -29 31l66 622z" />
<glyph unicode="Z" horiz-adv-x="1107" d="M27 31l8 65q0 11 8 19l881 1253h-725q-30 0 -27 31l6 57q3 31 33 31h842q31 0 28 -31l-8 -65q0 -11 -8 -19l-881 -1253h725q30 0 27 -31l-6 -57q-3 -31 -33 -31h-842q-31 0 -28 31z" />
<glyph unicode="[" horiz-adv-x="595" d="M43 -113l180 1712q3 31 35 31h268q30 0 27 -31l-6 -61q-3 -31 -35 -31h-176l-160 -1527h176q30 0 27 -31l-6 -62q-3 -30 -35 -30h-268q-30 0 -27 30z" />
<glyph unicode="\" horiz-adv-x="804" d="M78 1456q-9 31 22 31h74q30 0 39 -31l471 -1425q12 -31 -22 -31h-74q-27 0 -39 31z" />
<glyph unicode="]" horiz-adv-x="595" d="M43 -113l6 62q3 31 35 31h176l160 1527h-176q-30 0 -27 31l6 61q3 31 35 31h268q30 0 27 -31l-180 -1712q-3 -30 -35 -30h-268q-30 0 -27 30z" />
<glyph unicode="^" horiz-adv-x="800" d="M127 963l270 493q14 31 43 31h74q29 0 39 -31l164 -493q9 -31 -23 -31h-73q-30 0 -39 31l-121 362l-199 -362q-16 -31 -43 -31h-74q-33 0 -18 31z" />
<glyph unicode="_" horiz-adv-x="1196" d="M27 31l8 61q3 31 33 31h929q14 0 22 -8t7 -23l-8 -61q-3 -31 -33 -31h-930q-31 0 -28 31z" />
<glyph unicode="`" horiz-adv-x="522" d="M197 1602q-14 36 24 36h90q30 0 39 -36l115 -379q4 -17 -3 -27t-22 -10h-65q-26 0 -39 37z" />
<glyph unicode="a" horiz-adv-x="952" d="M43 283q13 124 103.5 202t218.5 78h348l4 47q2 23 2 43q0 83 -38 137q-48 66 -132 66h-96q-77 0 -126 -22t-100 -68q-27 -23 -47 0l-30 39q-16 19 2 41q70 66 141.5 94.5t171.5 28.5h96q128 0 210 -101q68 -84 68 -206q0 -25 -3 -52l-60 -561q0 -23 2 -31q0 -18 -8 -18 h-84q-29 0 -29 41v8l9 74q-135 -125 -252 -125h-109h-8q-109 0 -186 82q-70 74 -70 173q0 15 2 30zM162 283q-1 -9 -1 -18q-1 -59 41 -103q48 -50 115 -51h109q55 1 105.5 26t79.5 52.5t69 72.5l20 189h-348q-81 0 -131 -44.5t-59 -123.5z" />
<glyph unicode="b" horiz-adv-x="970" d="M53 31l152 1425q3 31 33 31h57q32 0 29 -31l-64 -596q49 47 111.5 75t128.5 28h63q97 0 173 -53.5t112 -137.5q28 -66 28 -136q0 -20 -2 -40l-24 -250q-15 -137 -133 -241.5t-254 -104.5h-64q-126 0 -219 100l-8 -69q-3 -31 -33 -31h-57q-32 0 -29 31zM193 227 q41 -46 104.5 -80t114.5 -34h63q91 0 168.5 70.5t87.5 162.5l25 250q2 16 2 31q0 80 -48 145q-58 78 -159 78h-64q-78 0 -157 -58t-90 -120z" />
<glyph unicode="c" horiz-adv-x="956" d="M55 365l25 233q15 146 139 258.5t264 112.5h74q117 -1 215 -93q91 -86 91 -186q0 -7 -1 -14q-7 -33 -35 -33h-55q-15 0 -24.5 7t-8.5 20q1 6 1 11q0 59 -58 115q-64 60 -137 60h-74q-95 0 -178.5 -77.5t-93.5 -180.5l-25 -233q-2 -15 -1 -30q1 -83 57 -148 q68 -76 163 -76h74q121 0 248 135q23 23 45 6l39 -35q23 -19 2 -43q-164 -176 -346 -176h-74q-139 0 -241 111q-87 95 -87 215q0 20 2 41z" />
<glyph unicode="d" horiz-adv-x="995" d="M63 346l25 250q16 143 129.5 255t259.5 112h64q65 0 122 -28t97 -75l63 596q3 31 33 31h57q32 0 29 -31l-151 -1425q-3 -31 -33 -31h-58q-31 0 -28 31l8 69q-115 -100 -240 -100h-63q-137 0 -233 104q-84 90 -83 206q0 18 2 36zM182 346q-1 -13 -1 -25q0 -77 54 -137 q63 -70 154 -71h64q49 0 118 34t121 80l47 441v9q-1 59 -63 114q-68 59 -148 59h-63q-101 0 -174 -78t-84 -176z" />
<glyph unicode="e" horiz-adv-x="964" d="M55 365l25 233q15 146 140 258.5t267 112.5h70q59 0 118.5 -28t106 -76t71.5 -118q19 -53 19 -110q0 -18 -2 -37l-10 -84q-3 -29 -22 -46t-50 -17h-602l-10 -99q-1 -13 -1 -26q-1 -84 57 -146q66 -72 165 -71h60q134 0 258 131q24 24 45 6l35 -31q21 -21 2 -43 q-75 -80 -159.5 -128t-193.5 -48h-59q-69 0 -133.5 30t-110.5 79.5t-70 117.5q-18 51 -18 104q0 18 2 36zM199 561h544l5 37q2 16 2 31q0 93 -57 155q-66 72 -148 72h-70q-98 0 -180 -75.5t-92 -182.5z" />
<glyph unicode="f" horiz-adv-x="761" d="M96 881l6 51q3 31 33 31h119l16 149q19 172 119.5 273.5t253.5 101.5h135q32 0 29 -31l-6 -51q-3 -31 -35 -31h-135q-104 0 -167 -69t-75 -193l-16 -149h329q32 0 29 -31l-6 -51q-3 -31 -35 -31h-330l-86 -819q-3 -31 -32 -31h-58q-31 0 -28 31l86 819h-119q-30 0 -27 31 z" />
<glyph unicode="g" horiz-adv-x="1001" d="M49 -256q-14 26 23 41l53 22q28 12 43 -14q27 -44 80.5 -67t120.5 -23h49q53 0 107 20.5t96.5 64t48.5 99.5l22 213q-105 -102 -241 -102h-52q-90 0 -172 53t-128 139q-38 70 -38 143q0 16 2 32l25 233q14 139 134 254t257 115h74q61 0 122.5 -28.5t98.5 -78.5l8 72 q3 31 33 31h55q32 0 29 -31l-111 -1041q-12 -121 -121.5 -211t-260.5 -90h-50q-103 0 -184 40t-123 114zM182 365q-1 -11 -1 -22q0 -80 64 -151q73 -81 167 -81h51q53 0 119 32t123 78l49 465q1 6 1 12q0 59 -63 105q-68 51 -153 51h-70q-92 0 -172.5 -81t-89.5 -175z" />
<glyph unicode="h" horiz-adv-x="1024" d="M57 31l152 1425q3 31 33 31h57q32 0 29 -31l-66 -614q110 121 291 121h31q156 1 237 -101q68 -86 69 -211q0 -23 -3 -47l-62 -573q-3 -31 -32 -31h-58q-31 0 -28 31l61 571q2 18 2 35q0 87 -48 144q-57 69 -171 69h-59q-86 0 -163.5 -59t-84.5 -134l-68 -626 q-3 -31 -33 -31h-57q-32 0 -29 31z" />
<glyph unicode="i" horiz-adv-x="374" d="M53 31l97 903q3 31 32 31h58q31 0 28 -31l-96 -903q-3 -31 -33 -31h-57q-32 0 -29 31zM197 1354l12 102q3 31 33 31h51q32 0 29 -31l-13 -102q-3 -31 -33 -31h-51q-31 0 -28 31z" />
<glyph unicode="j" horiz-adv-x="473" d="M-49 -319q-6 27 22 36q60 21 112 70.5t58 106.5l111 1040q3 31 33 31h51q32 0 29 -31l-109 -1036q-11 -90 -83 -173t-171 -118q-31 -9 -37 20zM297 1354l12 102q3 31 33 31h51q32 0 29 -31l-12 -102q-3 -31 -33 -31h-51q-32 0 -29 31z" />
<glyph unicode="k" horiz-adv-x="974" d="M72 31l151 1425q3 31 33 31h57q32 0 29 -31l-100 -950l514 432q33 25 47 25h78q10 0 16.5 -10t3 -26.5t-19.5 -29.5l-418 -348l389 -502q13 -15 8.5 -31t-24.5 -16h-72q-30 0 -53 29l-346 446l-138 -108l-37 -336q-3 -31 -32 -31h-58q-31 0 -28 31z" />
<glyph unicode="l" horiz-adv-x="376" d="M53 31l152 1425q3 31 33 31h57q32 0 29 -31l-152 -1425q-3 -31 -33 -31h-57q-32 0 -29 31z" />
<glyph unicode="m" horiz-adv-x="1662" d="M47 31l96 901q3 31 33 31h57q32 0 29 -31l-10 -90q59 65 127 93t156 28h30q92 0 163.5 -43.5t109.5 -116.5q131 160 346 160h30q152 -1 239 -109q73 -92 74 -212q0 -22 -3 -46l-60 -565q-3 -31 -32 -31h-58q-31 0 -28 31l59 565q2 17 2 34q0 84 -47 146q-56 74 -166 74 h-64q-86 0 -163 -59t-84 -134l-68 -626q-3 -31 -33 -31h-57q-32 0 -29 31l60 565q2 17 2 34q0 84 -47 146q-56 74 -166 74h-64q-86 0 -163.5 -59t-84.5 -134l-67 -626q-3 -31 -33 -31h-57q-32 0 -29 31z" />
<glyph unicode="n" horiz-adv-x="1024" d="M57 31l97 901q3 31 32 31h58q31 0 28 -31l-10 -90q110 121 291 121h31q156 1 237 -101q68 -86 69 -211q0 -23 -3 -47l-62 -573q-3 -31 -32 -31h-58q-31 0 -28 31l61 571q2 18 2 35q0 87 -48 144q-57 69 -171 69h-59q-86 0 -163.5 -59t-84.5 -134l-68 -626q-3 -31 -33 -31 h-57q-32 0 -29 31z" />
<glyph unicode="o" horiz-adv-x="983" d="M55 385l19 193q11 102 69 191.5t148.5 144.5t191.5 55h80q99 0 178 -55t118 -145q30 -70 30 -147q0 -22 -2 -44l-19 -193q-17 -156 -137 -271.5t-270 -115.5h-80q-153 0 -248 116q-81 98 -81 225q0 22 3 46zM174 385q-2 -18 -2 -35q0 -88 52 -157q62 -82 169 -82h80 q105 0 185 82t92 192l18 193q2 18 2 35q0 89 -52 159q-62 84 -167 84h-80q-107 0 -186.5 -83.5t-91.5 -194.5z" />
<glyph unicode="p" horiz-adv-x="1013" d="M53 -379l140 1311q3 31 32 31h58q31 0 28 -31l-8 -72q111 103 240 103h63q97 0 173.5 -53.5t112.5 -137.5q28 -66 28 -136q0 -20 -2 -40l-25 -250q-15 -137 -133 -241.5t-254 -104.5h-64q-126 0 -219 100l-51 -479q-3 -31 -33 -31h-57q-32 0 -29 31zM236 227 q41 -46 104.5 -80t114.5 -34h63q91 0 168.5 70.5t87.5 162.5l25 250q2 16 2 31q0 80 -49 145q-57 78 -158 78h-64q-77 0 -155 -56t-92 -118z" />
<glyph unicode="q" horiz-adv-x="997" d="M61 346l25 250q16 143 129.5 255t259.5 112h64q65 0 122 -28t97 -75l8 72q3 31 33 31h57q32 0 29 -31l-140 -1311q-3 -31 -32 -31h-58q-31 0 -28 31l51 479q-115 -100 -240 -100h-63q-136 0 -233 104q-83 91 -83 206q0 18 2 36zM180 346q-1 -13 -1 -25q0 -77 54 -137 q63 -71 154 -71h64q50 0 118.5 33.5t122.5 80.5l45 441v9q0 59 -63 114q-67 59 -148 59h-63q-101 0 -174 -78t-84 -176z" />
<glyph unicode="r" horiz-adv-x="827" d="M53 31l97 901q3 31 32 31h58q31 0 28 -31l-10 -86q108 117 246 117h67q125 0 215 -97q22 -22 -4 -45l-39 -35q-25 -22 -43 0q-60 64 -141 64h-74q-87 0 -162.5 -56t-82.5 -126l-68 -637q-3 -31 -33 -31h-57q-32 0 -29 31z" />
<glyph unicode="s" horiz-adv-x="958" d="M61 280q10 9 25 9h61q29 0 29 -29q0 -68 65 -113t150 -45h51q104 0 181.5 42.5t85.5 123.5q2 21 -1 38.5t-8 30.5t-18.5 24t-23 18.5t-31.5 14t-35.5 10t-42.5 7.5t-44 5.5t-50 5.5q-89 10 -150 26.5t-111 47t-71 81.5q-16 38 -16 88q0 17 2 35q13 128 122 199.5 t258 71.5h58q84 0 158 -37q73 -36 119 -105q40 -61 41 -134q0 -10 -1 -19q-3 -17 -10 -25t-23 -8h-59q-15 0 -24.5 7t-8.5 20q1 8 1 16q0 70 -56 118q-62 54 -149 54h-58q-68 0 -120 -14.5t-88 -51t-42 -92.5q-1 -10 -1 -19q0 -67 51 -97q58 -34 190 -49q75 -9 124 -18.5 t101 -28.5t80.5 -46t44.5 -71q12 -32 12 -72q0 -15 -2 -31q-9 -84 -69.5 -149t-146.5 -97t-181 -32h-51q-129 0 -229 78q-99 77 -99 188q0 15 10 24z" />
<glyph unicode="t" horiz-adv-x="602" d="M76 881l6 49q3 33 33 33h108l23 213q3 30 35 30h57q30 0 27 -30l-23 -213h154q33 0 30 -31l-6 -51q-3 -31 -35 -31h-155l-60 -569q-1 -13 -1 -26q0 -32 9 -56q13 -34 38.5 -50.5t50.5 -23.5t53 -8q14 0 23 -7t8 -20l-7 -61q-3 -33 -28 -33h-14q-48 0 -90 12 q-48 14 -88 44t-60 85q-14 39 -14 88q0 20 2 41l61 584h-111q-29 0 -26 31z" />
<glyph unicode="u" horiz-adv-x="958" d="M55 358l62 574q3 31 33 31h57q32 0 29 -31l-62 -572q-2 -18 -1 -35q0 -87 47 -143q57 -68 171 -69h60q86 0 163 58.5t84 133.5l68 627q3 31 33 31h57q32 0 29 -31l-97 -901q-3 -31 -32 -31h-58q-31 0 -28 31l10 90q-110 -121 -291 -121h-31q-156 0 -237 101 q-68 85 -68 210q0 23 2 47z" />
<glyph unicode="v" horiz-adv-x="874" d="M53 928q-3 17 5 26t24 9h65q27 0 33 -35l178 -735l332 735q18 35 41 35h66q16 0 22 -9t-2 -26l-403 -895q-16 -33 -43 -33h-64q-28 0 -35 33z" />
<glyph unicode="w" horiz-adv-x="1425" d="M102 928q-3 35 29 35h66q29 0 32 -35l113 -735l320 735q18 35 40 35h66q26 0 33 -35l166 -735l266 735q15 35 41 35h65q16 0 22 -9t-1 -26l-334 -895q-16 -33 -43 -33h-63q-28 0 -35 33l-170 725l-322 -725q-17 -33 -43 -33h-63q-28 0 -35 33z" />
<glyph unicode="x" horiz-adv-x="915" d="M7 11q-5 11 7 26l346 450l-245 439q-9 15 -2 26t26 11h68q26 0 43 -35l192 -342l260 342q28 35 52 35h67q18 0 22 -11t-7 -26l-334 -439l252 -450q8 -15 0.5 -26t-27.5 -11h-65q-27 0 -44 35l-198 356l-270 -356q-28 -35 -52 -35h-67q-19 0 -24 11z" />
<glyph unicode="y" horiz-adv-x="1013" d="M94 926q-5 16 1 26.5t22 10.5h69q29 0 39 -35l224 -715l374 715q19 35 49 35h68q32 0 14 -37l-680 -1301q-19 -35 -49 -35h-67q-36 0 -17 37l228 432z" />
<glyph unicode="z" horiz-adv-x="913" d="M12 31l6 59q3 15 15 31l661 729h-565q-30 0 -27 31l7 49q3 33 32 33h678q34 0 31 -31l-8 -68q0 -9 -13 -26l-659 -725h561q32 0 29 -31l-6 -51q-3 -31 -33 -31h-680q-32 0 -29 31z" />
<glyph unicode="{" horiz-adv-x="798" d="M139 721q-12 24 4 45l105 113q15 15 18 36l35 330q19 173 120.5 279t254.5 106h53q30 0 27 -31l-6 -61q-3 -31 -35 -31h-53q-103 0 -164.5 -69t-73.5 -193l-37 -350q-3 -22 -18 -37l-101 -115l78 -114q10 -21 8 -37l-37 -350q-12 -125 35 -193.5t150 -68.5h53 q30 0 27 -31l-7 -62q-3 -30 -34 -30h-54q-153 0 -232 106t-60 279l34 329q3 18 -10 37z" />
<glyph unicode="|" horiz-adv-x="450" d="M45 -379l209 1987q3 30 35 30h61q30 0 27 -30l-209 -1987q-3 -31 -33 -31h-61q-32 0 -29 31z" />
<glyph unicode="}" horiz-adv-x="798" d="M43 -113l6 62q3 31 35 31h53q103 0 164.5 69t73.5 193l37 350q3 21 16 37l102 114l-75 115q-13 20 -11 37l37 350q12 125 -34.5 193.5t-149.5 68.5h-53q-30 0 -27 31l6 61q3 31 35 31h53q153 0 232.5 -106t60.5 -279l-35 -330q-2 -16 11 -36l79 -113q12 -24 -4 -45 l-104 -113q-16 -16 -19 -37l-34 -329q-19 -173 -120.5 -279t-254.5 -106h-53q-30 0 -27 30z" />
<glyph unicode="~" horiz-adv-x="1075" d="M106 745q-10 23 25 46q111 74 221.5 76.5t206.5 -64.5q93 -61 169 -58.5t185 70.5q22 14 33 -16l23 -56q10 -22 -25 -45q-109 -74 -220 -76.5t-208 64.5q-93 61 -169 58.5t-185 -70.5q-22 -14 -33 16z" />
<glyph unicode="&#xa1;" horiz-adv-x="446" d="M43 -379l113 1073q6 31 34 31h62q33 0 27 -31l-113 -1073q-3 -31 -33 -31h-61q-32 0 -29 31zM178 971l8 76q3 30 33 30h78q32 0 29 -30l-9 -76q-3 -31 -34 -31h-78q-30 0 -27 31z" />
<glyph unicode="&#xa2;" horiz-adv-x="968" d="M55 365l25 233q15 138 129 247.5t248 121.5l22 227q3 31 35 31h61q30 0 27 -31l-22 -225q112 -11 200.5 -100.5t81.5 -192.5q-7 -33 -35 -33h-55q-15 0 -24.5 7t-8.5 20q6 61 -48.5 118t-123.5 66l-78 -741q113 11 226 133q23 23 45 6l39 -35q23 -19 2 -43 q-151 -166 -324 -176l-24 -229q-3 -31 -35 -31h-62q-29 0 -26 31l24 231q-131 11 -222.5 119.5t-76.5 245.5zM174 365q-10 -95 48 -168t145 -84l77 741q-89 -12 -162 -86.5t-83 -169.5z" />
<glyph unicode="&#xa3;" horiz-adv-x="1253" d="M100 698l6 62q3 31 33 31h168q-2 11 -9.5 41t-11 46.5t-8.5 43t-8 51.5t-4 51q-3 97 37 188.5t106 156t151 103.5t171 39h74q110 0 201 -64.5t139 -174.5t37 -234q-3 -30 -33 -30h-62q-33 0 -30 30q15 144 -63.5 247.5t-200.5 103.5h-74q-132 0 -231.5 -107t-92.5 -258 q2 -32 7.5 -67.5t9.5 -54t14 -61t12 -50.5h353q31 0 28 -31l-6 -62q-3 -30 -35 -30h-315q7 -63 0 -107q-21 -118 -51.5 -209.5t-87.5 -187.5q60 24 113.5 28.5t101 -7t108.5 -38.5q95 -39 170.5 -36t186.5 49q14 6 21.5 -4.5t4.5 -26.5l-6 -68q-1 -14 -7.5 -18.5 t-27.5 -11.5q-112 -45 -199 -44.5t-186 44.5q-105 44 -184.5 35.5t-198.5 -68.5q-15 -7 -46 31t-23 53q86 168 123 261.5t57 217.5q7 44 0 107h-205q-30 0 -27 30z" />
<glyph unicode="&#xa4;" horiz-adv-x="1173" d="M72 45q-19 23 4 43l106 94q-44 93 -32 203l18 193q12 108 78 202l-86 94q-22 22 4 44l47 43q25 21 43 0l78 -87q117 95 246 95h79q130 0 222 -92l86 84q23 23 43 0l39 -43q18 -21 -5 -44l-96 -92q47 -93 35 -204l-18 -193q-12 -111 -84 -209l79 -88q19 -23 -4 -43 l-47 -43q-25 -21 -43 0l-73 80q-112 -84 -236 -84h-80q-132 0 -225 90l-96 -86q-25 -22 -43 0zM268 385q-12 -110 50 -192t169 -82h80q105 0 185 82t92 192l18 193q12 110 -50 194t-167 84h-80q-107 0 -186.5 -83.5t-91.5 -194.5z" />
<glyph unicode="&#xa5;" horiz-adv-x="1171" d="M69.5 1479q6.5 8 22.5 8h80q24 0 39 -31l293 -670l440 670q12 17 20.5 24t22.5 7h80q16 0 21.5 -8t-3.5 -23l-534 -803l-8 -78h422q31 0 28 -30l-6 -62q-3 -30 -35 -30h-422l-12 -115h422q32 0 29 -31l-8 -61q-3 -31 -33 -31h-424l-19 -184q-3 -31 -32 -31h-62 q-32 0 -29 31l19 184h-227q-32 0 -29 31l8 61q3 31 33 31h229l13 115h-230q-29 0 -26 30l6 62q3 30 32 30h230l8 78l-358 803q-7 15 -0.5 23z" />
<glyph unicode="&#xa6;" horiz-adv-x="450" d="M61 -236l70 662q3 31 33 31h61q32 0 29 -31l-70 -662q-3 -30 -34 -30h-62q-30 0 -27 30zM170 803l70 661q3 31 34 31h62q29 0 26 -31l-69 -661q-3 -31 -35 -31h-61q-30 0 -27 31z" />
<glyph unicode="&#xa7;" horiz-adv-x="1241" d="M66 4l6 59q3 31 34 31h64q30 0 27 -31l-4 -59q-9 -131 70 -211t202 -80h94q130 0 227.5 81t110.5 216q7 71 -10 123.5t-56.5 85t-86.5 51t-113 31.5l-107 21q-91 17 -162 48.5t-122.5 80t-75 118t-14.5 156.5q14 135 100 242q-65 94 -51 229q20 179 148 292.5t298 113.5 h107q80 0 153 -32.5t125.5 -89t79.5 -138t16 -173.5l-4 -39q-3 -30 -35 -30h-63q-30 0 -27 30l4 39q15 138 -63.5 224t-198.5 86h-106q-125 0 -211.5 -75.5t-99.5 -207.5q-13 -126 57 -190t209 -91l106 -20q87 -17 156 -47t124 -78.5t81 -122t16 -166.5q-15 -131 -100 -237 q64 -92 49 -234q-12 -120 -82.5 -217.5t-173.5 -150t-217 -52.5h-94q-82 0 -156.5 31t-128.5 84.5t-82.5 132t-19.5 166.5zM272 725q-7 -66 9.5 -115t54.5 -81t86.5 -52t116.5 -33l106 -20q151 -30 246 -98q48 67 57 155q7 71 -10 123.5t-57.5 85t-87.5 51t-113 31.5 l-105 21q-151 28 -243 94q-51 -66 -60 -162z" />
<glyph unicode="&#xa8;" horiz-adv-x="1011" d="M186 1350l13 106q3 31 32 31h99q31 0 28 -31l-12 -106q-3 -31 -33 -31h-98q-32 0 -29 31zM793 1350l12 106q3 31 33 31h98q32 0 29 -31l-13 -106q-3 -31 -32 -31h-99q-31 0 -28 31z" />
<glyph unicode="&#xa9;" horiz-adv-x="1282" d="M94 463l58 559q22 200 172 344.5t329 144.5h135q87 0 166 -39t134 -104t83 -156t17 -190l-58 -559q-22 -200 -173 -345t-330 -145h-135q-117 0 -213.5 65.5t-147.5 179t-37 245.5zM217 463q-17 -154 69.5 -260.5t219.5 -106.5h135q133 0 241.5 106.5t125.5 260.5l57 559 q17 154 -69.5 260.5t-219.5 106.5h-135q-133 0 -241.5 -106.5t-125.5 -260.5zM340 528l45 428q13 130 93 208.5t190 78.5h59q105 0 166 -76.5t49 -199.5q0 -19 -20 -19h-82q-23 0 -23 19q18 149 -104 149h-60q-66 0 -101 -38t-44 -122l-45 -428q-9 -83 18.5 -122t93.5 -39 h60q122 0 137 153q0 19 23 19h82q20 0 20 -19q-15 -124 -92.5 -201t-183.5 -77h-60q-109 0 -171.5 78t-49.5 208z" />
<glyph unicode="&#xaa;" horiz-adv-x="653" d="M141 1122q7 73 64.5 117.5t144.5 44.5h172q10 115 -88 115h-49q-87 0 -147 -49q-8 -6 -17 -6.5t-14 6.5l-21 32q-11 14 2 27q84 78 205 78h49q78 0 124 -60.5t38 -146.5l-31 -285v-20q2 -3 0 -7.5t-6 -4.5h-57q-22 0 -18 32l2 13q-70 -45 -148 -45h-31q-78 0 -129.5 42.5 t-44.5 116.5zM227 1122q-4 -40 23.5 -55.5t75.5 -15.5h30q86 0 148 55l10 90h-174q-104 0 -113 -74z" />
<glyph unicode="&#xab;" horiz-adv-x="1193" d="M86 489l8 74q1 7 2.5 11.5t5.5 9t6.5 6.5t10 7l10.5 7l414 285q15 10 27 4t10 -21l-13 -114q-1 -9 -7.5 -17.5t-12.5 -12.5t-23 -15l-272 -187l233 -186q2 -1 8 -6t7.5 -6.5t6 -5.5t6 -6t3.5 -6t2 -7.5v-7.5l-12 -115q-2 -15 -13.5 -20.5t-25.5 4.5l-354 285 q-3 3 -10.5 8.5t-10 8.5t-5 9t-1.5 14zM602 489l8 74q1 7 2.5 11.5t5.5 9t6.5 6.5t10 7l10.5 7l414 285q15 10 27 4t10 -21l-13 -114q-1 -9 -7.5 -17.5t-12.5 -12.5t-23 -15l-272 -187l233 -186q2 -1 8 -6t7.5 -6.5t6 -5.5t6 -6t3.5 -6t2 -7.5v-7.5l-12 -115 q-2 -15 -13.5 -20.5t-25.5 4.5l-354 285q-3 3 -10.5 8.5t-10 8.5t-5 9t-1.5 14z" />
<glyph unicode="&#xac;" horiz-adv-x="1052" d="M111 631l6 61q3 31 35 31h745q30 0 27 -31l-2 -24l-39 -379q-3 -31 -35 -31h-62q-29 0 -26 31l33 311h-654q-31 0 -28 31z" />
<glyph unicode="&#xad;" horiz-adv-x="888" d="M39 487l6 62q3 31 35 31h541q29 0 26 -31l-6 -62q-3 -30 -35 -30h-540q-30 0 -27 30z" />
<glyph unicode="&#xae;" horiz-adv-x="1282" d="M94 463l58 559q22 200 172 344.5t329 144.5h135q87 0 166 -39t134 -104t83 -156t17 -190l-58 -559q-22 -200 -173 -345t-330 -145h-135q-117 0 -213.5 65.5t-147.5 179t-37 245.5zM217 463q-17 -154 69.5 -260.5t219.5 -106.5h135q133 0 241.5 106.5t125.5 260.5l57 559 q17 154 -69.5 260.5t-219.5 106.5h-135q-133 0 -241.5 -106.5t-125.5 -260.5zM344 319l88 830q1 24 21 41.5t45 17.5h221q110 0 167 -71.5t44 -194.5q-15 -139 -111 -219q77 -71 62 -207l-21 -197q-2 -15 -12 -25.5t-23 -10.5h-55q-13 0 -21 10.5t-6 25.5l21 193 q8 82 -12.5 117t-89.5 35h-160l-37 -345q-1 -17 -11 -26.5t-24 -9.5h-59q-30 0 -27 36zM514 784h160q77 0 104 36t35 122q10 85 -9 115t-97 30h-160z" />
<glyph unicode="&#xaf;" horiz-adv-x="1011" d="M213 1399l6 57q3 31 33 31h663q14 0 22 -8t7 -23l-6 -57q-3 -31 -35 -31h-663q-30 0 -27 31z" />
<glyph unicode="&#xb0;" horiz-adv-x="923" d="M209 1165l2 23q14 133 98.5 216t214.5 83h31q128 0 197 -83.5t55 -215.5l-2 -23q-14 -132 -101 -215.5t-215 -83.5h-30q-130 0 -197 83t-53 216zM330 1167q-9 -85 27.5 -131.5t119.5 -46.5h27q82 0 127.5 46.5t54.5 131.5l2 19q16 180 -145 180h-27q-83 0 -129.5 -47 t-54.5 -133z" />
<glyph unicode="&#xb1;" horiz-adv-x="1052" d="M47 31l8 61q3 31 33 31h748q29 0 26 -31l-8 -61q-3 -31 -33 -31h-745q-32 0 -29 31zM111 631l6 61q3 31 35 31h313l35 332q3 30 35 30h61q30 0 27 -30l-35 -332h311q28 0 25 -31l-6 -61q-3 -31 -33 -31h-310l-34 -334q-6 -30 -35 -30h-62q-32 0 -26 30l35 334h-314 q-31 0 -28 31z" />
<glyph unicode="&#xb2;" horiz-adv-x="655" d="M123 1290v27q0 68 51.5 119t124.5 51h51q79 0 129.5 -61t50.5 -136q0 -55 -33 -103.5t-98 -113.5l-104 -104l207 4q30 0 30 -31v-59q0 -31 -30 -31h-344q-31 0 -31 31v49q0 18 4.5 32t8.5 19.5t19.5 21t22.5 23.5l144 154q8 8 25 24t27 26t19 26t9 32q0 33 -24 56.5 t-60 23.5q-32 0 -54 -19t-22 -46v-15q0 -30 -31 -30h-61q-31 0 -31 30z" />
<glyph unicode="&#xb3;" horiz-adv-x="653" d="M123 1024v27q0 30 31 30h61q31 0 31 -30v-15q0 -27 22 -46t54 -19q38 0 61 19t23 52q0 32 -22 54t-56 22h-47q-31 0 -31 31v45q0 31 31 31h47q34 0 56 21.5t22 53.5q0 33 -23.5 52.5t-60.5 19.5q-32 0 -54 -19t-22 -46v-15q0 -30 -31 -30h-61q-31 0 -31 30v27 q0 68 51.5 119t124.5 51h51q80 0 130 -56t50 -130q0 -70 -69 -132q69 -62 69 -131q0 -74 -50 -130t-130 -56h-51q-73 0 -124.5 51t-51.5 119z" />
<glyph unicode="&#xb4;" horiz-adv-x="522" d="M153 1196q-5 10 5 27l192 379q14 36 47 36h90q37 0 17 -36l-217 -379q-14 -20 -23.5 -28.5t-23.5 -8.5h-66q-16 0 -21 10z" />
<glyph unicode="&#xb6;" horiz-adv-x="1153" d="M137 1067q20 195 139.5 307.5t303.5 112.5h487q32 0 29 -31l-152 -1425q-3 -31 -33 -31h-61q-32 0 -29 31l66 616h-135l-66 -616q-3 -31 -33 -31h-61q-32 0 -29 31l66 616h-137q-184 0 -280.5 112.5t-74.5 307.5zM260 1067q-34 -297 244 -297h137l64 594h-138 q-277 0 -307 -297zM764 770h135l64 594h-136z" />
<glyph unicode="&#xb7;" horiz-adv-x="364" d="M84 563l12 117q3 31 33 31h98q32 0 29 -31l-12 -117q-3 -31 -35 -31h-98q-30 0 -27 31z" />
<glyph unicode="&#xb8;" horiz-adv-x="700" d="M39 -242q3 21 20 21h82q8 0 14.5 -5t6.5 -12q-3 -33 18 -47t68 -14h26q66 0 79 7q14 10 18 34q3 31 -29.5 41t-161.5 26q-24 3 -37 5q-12 1 -24 7.5t-22 21t-11 34t13.5 51.5t47.5 70q13 16 25 16h90q9 0 12 -5t-2 -11q-11 -14 -18.5 -25t-12.5 -19.5t-4.5 -16t0 -12 t6.5 -8.5t9 -6t12.5 -4.5t13 -3t15.5 -2t14 -1.5q98 -12 128 -26q68 -30 59 -127v-5q-9 -78 -56.5 -117t-142.5 -39h-92q-85 0 -127.5 47t-36.5 125z" />
<glyph unicode="&#xb9;" horiz-adv-x="618" d="M246 885v571q0 31 30 31h66q31 0 31 -31v-571q0 -31 -31 -31h-66q-30 0 -30 31z" />
<glyph unicode="&#xba;" horiz-adv-x="663" d="M47 219l10 88q8 87 75.5 152t154.5 65h45q85 0 138.5 -64.5t45.5 -152.5l-10 -88q-9 -90 -76.5 -154.5t-153.5 -64.5h-45q-87 0 -140 64.5t-44 154.5zM135 219q-5 -55 24 -93t83 -38h41q52 0 92 39t45 92l10 88q5 53 -27 91t-84 38h-40q-54 0 -91.5 -37.5t-42.5 -91.5z " />
<glyph unicode="&#xbb;" horiz-adv-x="1193" d="M53 180l13 115q1 14 9.5 22.5t30.5 22.5l275 186l-236 187q-13 10 -18 14.5t-9 12.5t-3 18l12 114q2 15 13.5 21t23.5 -4l356 -285q3 -2 11 -8.5t10 -9t4.5 -9t1.5 -14.5l-8 -74q-1 -8 -4.5 -14.5t-5.5 -8.5t-12 -8.5t-13 -8.5l-416 -285q-13 -10 -25 -4.5t-10 20.5z M569 180l13 115q1 14 10 22.5t31 22.5l274 186l-235 187q-14 11 -18.5 15t-9 12.5t-3.5 17.5l12 114q2 15 13.5 21t23.5 -4l356 -285q3 -2 11 -8.5t10 -9t4.5 -9t1.5 -14.5l-8 -74q-1 -8 -4.5 -14.5t-5.5 -8.5t-12 -8.5t-13 -8.5l-416 -285q-13 -10 -25 -4.5t-10 20.5z" />
<glyph unicode="&#xbc;" horiz-adv-x="1511" d="M211 8q-6 8 2 23l827 1425q10 17 18.5 24t22.5 7h86q16 0 22.5 -8t-1.5 -23l-828 -1425q-10 -17 -18.5 -24t-22.5 -7h-86q-16 0 -22 8zM246 885v571q0 31 30 31h66q31 0 31 -31v-571q0 -31 -31 -31h-66q-30 0 -30 31zM946 209q0 8 8 24l217 388q7 14 29 14h98 q31 0 31 -31v-362h29q31 0 31 -31v-61q0 -31 -31 -31h-29v-88q0 -31 -31 -31h-61q-31 0 -31 31v88h-223q-28 0 -31 31zM1102 246h104v205z" />
<glyph unicode="&#xbd;" horiz-adv-x="1478" d="M211 8q-6 8 2 23l827 1425q10 17 18.5 24t22.5 7h86q16 0 22.5 -8t-1.5 -23l-828 -1425q-10 -17 -18.5 -24t-22.5 -7h-86q-16 0 -22 8zM246 885v571q0 31 30 31h66q31 0 31 -31v-571q0 -31 -31 -31h-66q-30 0 -30 31zM946 438v27q0 68 51.5 119t124.5 51h52 q79 0 129.5 -61t50.5 -136q0 -55 -33 -103.5t-98 -113.5l-105 -104l207 4q31 0 31 -31v-59q0 -31 -31 -31h-344q-31 0 -31 31v49q0 18 4.5 32t9 20t19.5 20.5t23 23.5l143 154q8 8 25 24t27 26t19 26t9 32q0 33 -24 56.5t-60 23.5q-32 0 -54 -19t-22 -46v-15q0 -30 -31 -30 h-61q-31 0 -31 30z" />
<glyph unicode="&#xbe;" horiz-adv-x="1546" d="M123 1024v27q0 30 31 30h61q31 0 31 -30v-15q0 -27 22 -46t54 -19q38 0 61 19t23 52q0 32 -22 54t-56 22h-47q-31 0 -31 31v45q0 31 31 31h47q34 0 56 21.5t22 53.5q0 33 -23.5 52.5t-60.5 19.5q-32 0 -54 -19t-22 -46v-15q0 -30 -31 -30h-61q-31 0 -31 30v27 q0 68 51.5 119t124.5 51h51q80 0 130 -56t50 -130q0 -70 -69 -132q69 -62 69 -131q0 -74 -50 -130t-130 -56h-51q-73 0 -124.5 51t-51.5 119zM246 8q-6 8 2 23l827 1425q10 17 18.5 24t22.5 7h86q16 0 22.5 -8t-1.5 -23l-828 -1425q-10 -17 -18.5 -24t-22.5 -7h-86 q-16 0 -22 8zM981 209q0 8 8 24l217 388q7 14 29 14h98q31 0 31 -31v-362h29q30 0 30 -31v-61q0 -31 -30 -31h-29v-88q0 -31 -31 -31h-61q-31 0 -31 31v88h-223q-28 0 -31 31zM1137 246h104v205z" />
<glyph unicode="&#xbf;" horiz-adv-x="1040" d="M-8 -10q8 69 29 126t50 97t68.5 72t78 51.5t85.5 36.5q118 42 153.5 69t43.5 99l14 153q6 31 35 31h61q33 0 27 -31l-14 -153q-12 -109 -65.5 -165.5t-174.5 -101.5q-50 -18 -82.5 -32.5t-68 -38t-57 -51t-38 -68.5t-22.5 -94q-13 -134 59 -218.5t195 -84.5h86 q119 0 207.5 85t103.5 224l4 39q3 31 33 31h63q32 0 29 -31l-4 -39q-12 -122 -79 -222.5t-166 -155t-206 -54.5h-86q-110 0 -197.5 55.5t-132 153.5t-32.5 217zM537 971l8 76q3 30 33 30h77q32 0 29 -30l-8 -76q-3 -31 -35 -31h-78q-29 0 -26 31z" />
<glyph unicode="&#xc0;" horiz-adv-x="1216" d="M16 33l607 1427q13 33 41 33h65q30 0 37 -33l305 -1427q6 -33 -29 -33h-65q-29 0 -35 33l-82 399h-547l-166 -399q-14 -33 -41 -33h-71q-36 0 -19 33zM358 541h482l-160 778zM504 2126q-15 37 24 37h90q30 0 39 -37l115 -379q4 -17 -2.5 -27t-21.5 -10h-66q-26 0 -39 37z " />
<glyph unicode="&#xc1;" horiz-adv-x="1216" d="M16 33l607 1427q13 33 41 33h65q30 0 37 -33l305 -1427q6 -33 -29 -33h-65q-29 0 -35 33l-82 399h-547l-166 -399q-14 -33 -41 -33h-71q-36 0 -19 33zM358 541h482l-160 778zM661 1720q-5 10 5 27l192 379q15 37 47 37h90q38 0 17 -37l-217 -379q-14 -20 -23.5 -28.5 t-23.5 -8.5h-66q-16 0 -21 10z" />
<glyph unicode="&#xc2;" horiz-adv-x="1216" d="M16 33l607 1427q13 33 41 33h65q30 0 37 -33l305 -1427q6 -33 -29 -33h-65q-29 0 -35 33l-82 399h-547l-166 -399q-14 -33 -41 -33h-71q-36 0 -19 33zM358 541h482l-160 778zM359.5 1737q-4.5 13 7.5 26l319 367q26 33 51 33h60q16 0 25.5 -8t19.5 -25l241 -367 q9 -13 2 -26t-22 -13h-84q-13 0 -21.5 8.5t-21.5 30.5l-180 279l-242 -279q-16 -21 -26.5 -30t-24.5 -9h-84q-15 0 -19.5 13z" />
<glyph unicode="&#xc3;" horiz-adv-x="1216" d="M16 33l607 1427q13 33 41 33h65q30 0 37 -33l305 -1427q6 -33 -29 -33h-65q-29 0 -35 33l-82 399h-547l-166 -399q-14 -33 -41 -33h-71q-36 0 -19 33zM358 541h482l-160 778zM375 1954q-10 23 26 45q109 74 189 76.5t176 -64.5q67 -43 102 -53t74 3t117 62q22 14 33 -16 l22 -55q10 -22 -24 -45q-110 -75 -189.5 -77t-177.5 64q-67 43 -102 53t-73.5 -3t-115.5 -62q-16 -6 -22 -2.5t-13 18.5z" />
<glyph unicode="&#xc4;" horiz-adv-x="1216" d="M16 33l607 1427q13 33 41 33h65q30 0 37 -33l305 -1427q6 -33 -29 -33h-65q-29 0 -35 33l-82 399h-547l-166 -399q-14 -33 -41 -33h-71q-36 0 -19 33zM354 1874l13 106q3 31 32 31h99q31 0 28 -31l-12 -106q-3 -31 -33 -31h-98q-32 0 -29 31zM358 541h482l-160 778z M961 1874l12 106q3 31 33 31h98q32 0 29 -31l-13 -106q-3 -31 -33 -31h-98q-31 0 -28 31z" />
<glyph unicode="&#xc5;" horiz-adv-x="1216" d="M16 33l607 1427q13 33 41 33h65q30 0 37 -33l305 -1427q6 -33 -29 -33h-65q-29 0 -35 33l-82 399h-547l-166 -399q-14 -33 -41 -33h-71q-36 0 -19 33zM358 541h482l-160 778zM543 1952l2 22q9 82 67.5 136.5t141.5 54.5h26q83 0 130 -54.5t38 -136.5l-2 -22 q-9 -83 -67.5 -136t-141.5 -53h-26q-83 0 -130 53t-38 136zM645 1956q-5 -43 16.5 -66.5t65.5 -23.5h18q44 0 70 23.5t31 66.5l2 16q5 43 -16.5 66.5t-65.5 23.5h-18q-44 0 -70 -23.5t-31 -66.5z" />
<glyph unicode="&#xc6;" horiz-adv-x="1826" d="M33.5 8q-5.5 8 1.5 23l786 1425q15 31 41 31h74l10 -2q2 2 10 2h760q32 0 29 -31l-6 -57q-3 -31 -35 -31h-668l-59 -559h534q32 0 29 -31l-6 -57q-3 -31 -35 -31h-534l-60 -571h668q29 0 26 -31l-6 -57q-3 -31 -32 -31h-760q-32 0 -29 31l41 391h-428l-215 -391 q-16 -31 -41 -31h-74q-16 0 -21.5 8zM453 545h372l90 837z" />
<glyph unicode="&#xc7;" horiz-adv-x="1163" d="M76 465l57 557q14 132 86 244.5t178.5 177.5t220.5 65h95q110 0 201 -64.5t139 -174.5t37 -234q-3 -30 -35 -30h-62q-31 0 -28 30q15 144 -64 249.5t-201 105.5h-94q-128 0 -230.5 -106.5t-119.5 -262.5l-57 -557q-17 -156 63.5 -264.5t208.5 -108.5h94 q122 0 223.5 106.5t114.5 252.5q3 30 37 30h61q30 0 27 -30q-14 -125 -85.5 -236t-176.5 -176.5t-215 -65.5h-47q-9 -14 -14 -25t-2 -18.5t4.5 -12t13 -8t14.5 -4.5t19.5 -3t17.5 -2q98 -12 128 -26q67 -31 58 -129v-3q-9 -78 -56 -117t-142 -39h-92q-85 0 -127.5 47 t-36.5 125q3 21 20 21h82q8 0 14.5 -5t6.5 -12q-3 -33 18 -47t68 -14h26q66 0 79 7q14 10 18 34q3 31 -29.5 41t-161.5 26q-24 3 -37 5q-11 1 -22 7t-21 19t-12 31.5t9 47.5t38 63q-149 31 -238 167.5t-71 315.5z" />
<glyph unicode="&#xc8;" horiz-adv-x="1099" d="M74 31l151 1425q3 31 33 31h760q32 0 29 -31l-7 -57q-3 -31 -34 -31h-668l-59 -559h534q32 0 29 -31l-6 -57q-3 -31 -35 -31h-535l-59 -571h667q30 0 27 -31l-6 -57q-3 -31 -33 -31h-760q-31 0 -28 31zM440 2126q-15 37 25 37h90q30 0 39 -37l115 -379q4 -17 -3 -27 t-22 -10h-66q-25 0 -38 37z" />
<glyph unicode="&#xc9;" horiz-adv-x="1099" d="M74 31l151 1425q3 31 33 31h760q32 0 29 -31l-7 -57q-3 -31 -34 -31h-668l-59 -559h534q32 0 29 -31l-6 -57q-3 -31 -35 -31h-535l-59 -571h667q30 0 27 -31l-6 -57q-3 -31 -33 -31h-760q-31 0 -28 31zM597 1720q-5 10 5 27l193 379q15 37 47 37h90q37 0 16 -37 l-217 -379q-14 -20 -23.5 -28.5t-23.5 -8.5h-66q-16 0 -21 10z" />
<glyph unicode="&#xca;" horiz-adv-x="1099" d="M74 31l151 1425q3 31 33 31h760q32 0 29 -31l-7 -57q-3 -31 -34 -31h-668l-59 -559h534q32 0 29 -31l-6 -57q-3 -31 -35 -31h-535l-59 -571h667q30 0 27 -31l-6 -57q-3 -31 -33 -31h-760q-31 0 -28 31zM295.5 1737q-4.5 13 7.5 26l320 367q26 33 51 33h59q16 0 25.5 -8 t19.5 -25l242 -367q9 -13 1.5 -26t-22.5 -13h-84q-13 0 -21.5 8.5t-21.5 30.5l-180 279l-241 -279q-31 -39 -52 -39h-84q-15 0 -19.5 13z" />
<glyph unicode="&#xcb;" horiz-adv-x="1099" d="M74 31l151 1425q3 31 33 31h760q32 0 29 -31l-7 -57q-3 -31 -34 -31h-668l-59 -559h534q32 0 29 -31l-6 -57q-3 -31 -35 -31h-535l-59 -571h667q30 0 27 -31l-6 -57q-3 -31 -33 -31h-760q-31 0 -28 31zM291 1874l12 106q3 31 33 31h98q32 0 29 -31l-12 -106 q-3 -31 -33 -31h-99q-31 0 -28 31zM897 1874l12 106q3 31 33 31h98q32 0 29 -31l-12 -106q-3 -31 -33 -31h-98q-32 0 -29 31z" />
<glyph unicode="&#xcc;" horiz-adv-x="380" d="M43 31l152 1425q3 31 32 31h62q31 0 28 -31l-151 -1425q-3 -31 -33 -31h-61q-32 0 -29 31zM66 2126q-15 37 24 37h90q30 0 39 -37l115 -379q4 -17 -3 -27t-22 -10h-65q-26 0 -39 37z" />
<glyph unicode="&#xcd;" horiz-adv-x="380" d="M43 31l152 1425q3 31 32 31h62q31 0 28 -31l-151 -1425q-3 -31 -33 -31h-61q-32 0 -29 31zM222.5 1720q-5.5 10 4.5 27l193 379q15 37 47 37h90q37 0 16 -37l-217 -379q-14 -20 -23.5 -28.5t-23.5 -8.5h-65q-16 0 -21.5 10z" />
<glyph unicode="&#xce;" horiz-adv-x="380" d="M-79 1737q-5 13 7 26l320 367q26 33 51 33h59q16 0 25.5 -8t19.5 -25l242 -367q9 -13 2 -26t-22 -13h-84q-13 0 -21.5 8.5t-21.5 30.5l-181 279l-241 -279q-16 -21 -26.5 -30t-24.5 -9h-84q-15 0 -20 13zM43 31l152 1425q3 31 32 31h62q31 0 28 -31l-151 -1425 q-3 -31 -33 -31h-61q-32 0 -29 31z" />
<glyph unicode="&#xcf;" horiz-adv-x="380" d="M-84 1874l12 106q3 31 33 31h98q32 0 29 -31l-12 -106q-3 -31 -33 -31h-98q-32 0 -29 31zM43 31l152 1425q3 31 32 31h62q31 0 28 -31l-151 -1425q-3 -31 -33 -31h-61q-32 0 -29 31zM522 1874l13 106q3 31 32 31h99q31 0 28 -31l-12 -106q-3 -31 -33 -31h-98 q-32 0 -29 31z" />
<glyph unicode="&#xd0;" horiz-adv-x="1304" d="M96 750l6 61q3 31 35 31h115l65 614q3 31 33 31h490q110 0 201.5 -65t139 -176.5t33.5 -239.5l-53 -525q-14 -128 -85.5 -239.5t-176.5 -176.5t-215 -65h-489q-32 0 -29 31l74 688h-117q-30 0 -27 31zM299 119h393q125 0 227 106.5t119 259.5l54 516q17 152 -63 259.5 t-206 107.5h-391l-55 -526h301q30 0 27 -31l-7 -61q-3 -31 -34 -31h-302z" />
<glyph unicode="&#xd1;" horiz-adv-x="1247" d="M43 31l152 1425q3 31 32 31h135q26 0 35 -23l523 -1341l141 1333q3 31 33 31h61q32 0 29 -31l-152 -1425q-3 -31 -33 -31h-135q-26 0 -35 23l-522 1341l-141 -1333q-3 -31 -33 -31h-61q-32 0 -29 31zM371 1954q-10 23 26 45q109 74 189 76.5t176 -64.5q67 -43 102 -53 t74 3t117 62q21 14 32 -16l23 -55q10 -22 -25 -45q-110 -75 -189 -77t-177 64q-67 43 -102 53t-73.5 -3t-115.5 -62q-16 -6 -22 -2.5t-13 18.5z" />
<glyph unicode="&#xd2;" d="M86 475l57 545q22 202 163.5 345.5t318.5 143.5h94q116 0 208.5 -65.5t138.5 -178t32 -245.5l-58 -545q-22 -202 -163 -345.5t-318 -143.5h-94q-116 0 -208.5 65.5t-138.5 178t-32 245.5zM209 475q-17 -158 61 -266t211 -107h86q133 1 233.5 108.5t117.5 264.5l57 545 q17 157 -61.5 264t-211.5 107h-86q-133 0 -233 -106.5t-117 -264.5zM477 2126q-15 37 25 37h90q30 0 39 -37l114 -379q4 -17 -2.5 -27t-21.5 -10h-66q-26 0 -39 37z" />
<glyph unicode="&#xd3;" d="M86 475l57 545q22 202 163.5 345.5t318.5 143.5h94q116 0 208.5 -65.5t138.5 -178t32 -245.5l-58 -545q-22 -202 -163 -345.5t-318 -143.5h-94q-116 0 -208.5 65.5t-138.5 178t-32 245.5zM209 475q-17 -158 61 -266t211 -107h86q133 1 233.5 108.5t117.5 264.5l57 545 q17 157 -61.5 264t-211.5 107h-86q-133 0 -233 -106.5t-117 -264.5zM634 1720q-5 10 5 27l192 379q15 37 48 37h90q37 0 16 -37l-217 -379q-14 -20 -23.5 -28.5t-23.5 -8.5h-66q-16 0 -21 10z" />
<glyph unicode="&#xd4;" d="M86 475l57 545q22 202 163.5 345.5t318.5 143.5h94q116 0 208.5 -65.5t138.5 -178t32 -245.5l-58 -545q-22 -202 -163 -345.5t-318 -143.5h-94q-116 0 -208.5 65.5t-138.5 178t-32 245.5zM209 475q-17 -158 61 -266t211 -107h86q133 1 233.5 108.5t117.5 264.5l57 545 q17 157 -61.5 264t-211.5 107h-86q-133 0 -233 -106.5t-117 -264.5zM332.5 1737q-4.5 13 7.5 26l319 367q26 33 52 33h59q16 0 25.5 -8t19.5 -25l242 -367q9 -13 1.5 -26t-22.5 -13h-84q-13 0 -21.5 8.5t-21.5 30.5l-180 279l-242 -279q-16 -21 -26.5 -30t-24.5 -9h-84 q-15 0 -19.5 13z" />
<glyph unicode="&#xd5;" d="M86 475l57 545q22 202 163.5 345.5t318.5 143.5h94q116 0 208.5 -65.5t138.5 -178t32 -245.5l-58 -545q-22 -202 -163 -345.5t-318 -143.5h-94q-116 0 -208.5 65.5t-138.5 178t-32 245.5zM209 475q-17 -158 61 -266t211 -107h86q133 1 233.5 108.5t117.5 264.5l57 545 q17 157 -61.5 264t-211.5 107h-86q-133 0 -233 -106.5t-117 -264.5zM348 1954q-10 23 27 45q109 74 188.5 76.5t175.5 -64.5q67 -43 102 -53t74 3t117 62q22 14 33 -16l22 -55q10 -22 -24 -45q-110 -75 -189.5 -77t-177.5 64q-67 43 -102 53t-72.5 -3t-115.5 -62 q-16 -6 -22 -2.5t-13 18.5z" />
<glyph unicode="&#xd6;" d="M86 475l57 545q22 202 163.5 345.5t318.5 143.5h94q116 0 208.5 -65.5t138.5 -178t32 -245.5l-58 -545q-22 -202 -163 -345.5t-318 -143.5h-94q-116 0 -208.5 65.5t-138.5 178t-32 245.5zM209 475q-17 -158 61 -266t211 -107h86q133 1 233.5 108.5t117.5 264.5l57 545 q17 157 -61.5 264t-211.5 107h-86q-133 0 -233 -106.5t-117 -264.5zM328 1874l12 106q3 31 33 31h98q32 0 29 -31l-13 -106q-3 -31 -32 -31h-99q-31 0 -28 31zM934 1874l12 106q3 31 33 31h98q32 0 29 -31l-12 -106q-3 -31 -33 -31h-98q-32 0 -29 31z" />
<glyph unicode="&#xd7;" horiz-adv-x="841" d="M76 397q-18 21 4 43l246 222l-197 221q-18 21 4 43l49 43q22 21 43 0l197 -219l244 219q23 23 41 -2l41 -41q17 -23 -7 -45l-241 -219l196 -222q21 -21 -4 -43l-47 -43q-25 -22 -43 0l-199 221l-243 -221q-27 -21 -45 0z" />
<glyph unicode="&#xd8;" d="M86 475l57 545q22 202 163.5 345.5t318.5 143.5h94q113 0 199 -59l2 6q16 31 43 31h73q34 0 19 -31l-47 -88q111 -143 90 -348l-58 -545q-22 -202 -163 -345.5t-318 -143.5h-94q-96 0 -180 49l-4 -4q-19 -31 -43 -31h-74q-16 0 -21.5 8t2.5 23l45 82q-125 145 -104 362z M209 475q-15 -137 45 -244l602 1110q-69 50 -154 50h-86q-133 0 -233 -106.5t-117 -264.5zM340 141q64 -39 141 -39h86q133 1 233.5 108.5t117.5 264.5l57 545q12 126 -37 223z" />
<glyph unicode="&#xd9;" horiz-adv-x="1171" d="M86 446l107 1010q3 31 32 31h62q31 0 28 -31l-106 -1010q-17 -153 62 -247.5t231 -94.5h41q151 0 249.5 94.5t116.5 247.5l107 1010q3 31 33 31h61q32 0 29 -31l-107 -1010q-22 -199 -160.5 -329.5t-334.5 -130.5h-54q-196 0 -307.5 131t-89.5 329zM475 2126 q-15 37 25 37h90q30 0 39 -37l114 -379q4 -17 -2.5 -27t-21.5 -10h-66q-26 0 -39 37z" />
<glyph unicode="&#xda;" horiz-adv-x="1171" d="M86 446l107 1010q3 31 32 31h62q31 0 28 -31l-106 -1010q-17 -153 62 -247.5t231 -94.5h41q151 0 249.5 94.5t116.5 247.5l107 1010q3 31 33 31h61q32 0 29 -31l-107 -1010q-22 -199 -160.5 -329.5t-334.5 -130.5h-54q-196 0 -307.5 131t-89.5 329zM632 1720q-5 10 5 27 l192 379q15 37 48 37h90q37 0 16 -37l-217 -379q-14 -20 -23.5 -28.5t-23.5 -8.5h-66q-16 0 -21 10z" />
<glyph unicode="&#xdb;" horiz-adv-x="1171" d="M86 446l107 1010q3 31 32 31h62q31 0 28 -31l-106 -1010q-17 -153 62 -247.5t231 -94.5h41q151 0 249.5 94.5t116.5 247.5l107 1010q3 31 33 31h61q32 0 29 -31l-107 -1010q-22 -199 -160.5 -329.5t-334.5 -130.5h-54q-196 0 -307.5 131t-89.5 329zM330.5 1737 q-4.5 13 7.5 26l319 367q26 33 52 33h59q16 0 25.5 -8t19.5 -25l242 -367q9 -13 1.5 -26t-22.5 -13h-84q-13 0 -21.5 8.5t-21.5 30.5l-180 279l-242 -279q-16 -21 -26.5 -30t-24.5 -9h-84q-15 0 -19.5 13z" />
<glyph unicode="&#xdc;" horiz-adv-x="1171" d="M86 446l107 1010q3 31 32 31h62q31 0 28 -31l-106 -1010q-17 -153 62 -247.5t231 -94.5h41q151 0 249.5 94.5t116.5 247.5l107 1010q3 31 33 31h61q32 0 29 -31l-107 -1010q-22 -199 -160.5 -329.5t-334.5 -130.5h-54q-196 0 -307.5 131t-89.5 329zM326 1874l12 106 q3 31 33 31h98q32 0 29 -31l-13 -106q-3 -31 -32 -31h-99q-31 0 -28 31zM932 1874l12 106q3 31 33 31h98q32 0 29 -31l-12 -106q-3 -31 -33 -31h-98q-32 0 -29 31z" />
<glyph unicode="&#xdd;" d="M147 1456q-7 14 0 22.5t23 8.5h80q24 0 39 -31l293 -670l440 670q12 17 20.5 24t22.5 7h80q16 0 21.5 -8t-3.5 -23l-534 -803l-66 -622q-3 -31 -33 -31h-61q-32 0 -29 31l66 622zM622 1720q-5 10 5 27l192 379q15 37 47 37h90q38 0 17 -37l-217 -379q-14 -20 -23.5 -28.5 t-23.5 -8.5h-66q-16 0 -21 10z" />
<glyph unicode="&#xde;" horiz-adv-x="1153" d="M57 31l31 293l4 28l72 692l10 91l35 321q3 31 33 31h61q32 0 29 -31l-31 -293h395q184 0 279.5 -112t75.5 -308q-20 -195 -140.5 -307t-304.5 -112h-395l-31 -293q-3 -31 -33 -31h-61q-32 0 -29 31zM223 442h398q277 0 307 301t-246 301h-395z" />
<glyph unicode="&#xdf;" horiz-adv-x="1073" d="M123 1169q0 146 95 238t251 92h63q155 0 266 -100t111 -238v-57q0 -86 -48.5 -166.5t-127.5 -134.5q51 -28 90 -59t74.5 -75t54.5 -104t19 -133v-45q0 -81 -39.5 -154.5t-102 -123.5t-140 -79.5t-154.5 -29.5h-43q-31 0 -31 31v57q0 31 31 31h43q74 0 145 32t119.5 95 t48.5 141v45q0 66 -29.5 125t-75 98t-98 61.5t-100.5 22.5h-53q-31 0 -31 31v57q0 31 31 31h53q93 0 167 76.5t74 169.5v57q0 93 -72.5 156t-181.5 63h-63q-111 0 -165 -55t-54 -156l-2 -1138q0 -31 -31 -31h-61q-31 0 -31 31z" />
<glyph unicode="&#xe0;" horiz-adv-x="952" d="M43 283q13 124 103.5 202t218.5 78h348l4 47q12 113 -36 179.5t-132 66.5h-96q-77 0 -126 -22t-100 -68q-27 -23 -47 0l-30 39q-16 19 2 41q70 66 141.5 94.5t171.5 28.5h96q128 0 210 -101t65 -258l-60 -561q0 -23 2 -31q0 -18 -8 -18h-84q-32 0 -29 49l9 74 q-135 -125 -252 -125h-109q-114 -3 -194 82.5t-68 202.5zM162 283q-7 -71 40.5 -121.5t114.5 -50.5h109q55 1 105.5 26t79.5 52.5t69 72.5l20 189h-348q-81 0 -131 -44.5t-59 -123.5zM307 1602q-14 36 25 36h90q30 0 39 -36l114 -379q4 -17 -2.5 -27t-21.5 -10h-66 q-26 0 -39 37z" />
<glyph unicode="&#xe1;" horiz-adv-x="952" d="M43 283q13 124 103.5 202t218.5 78h348l4 47q12 113 -36 179.5t-132 66.5h-96q-77 0 -126 -22t-100 -68q-27 -23 -47 0l-30 39q-16 19 2 41q70 66 141.5 94.5t171.5 28.5h96q128 0 210 -101t65 -258l-60 -561q0 -23 2 -31q0 -18 -8 -18h-84q-32 0 -29 49l9 74 q-135 -125 -252 -125h-109q-114 -3 -194 82.5t-68 202.5zM162 283q-7 -71 40.5 -121.5t114.5 -50.5h109q55 1 105.5 26t79.5 52.5t69 72.5l20 189h-348q-81 0 -131 -44.5t-59 -123.5zM464 1196q-5 10 5 27l193 379q14 36 47 36h90q36 0 16 -36l-217 -379 q-14 -20 -23.5 -28.5t-23.5 -8.5h-66q-16 0 -21 10z" />
<glyph unicode="&#xe2;" horiz-adv-x="952" d="M43 283q13 124 103.5 202t218.5 78h348l4 47q12 113 -36 179.5t-132 66.5h-96q-77 0 -126 -22t-100 -68q-27 -23 -47 0l-30 39q-16 19 2 41q70 66 141.5 94.5t171.5 28.5h96q128 0 210 -101t65 -258l-60 -561q0 -23 2 -31q0 -18 -8 -18h-84q-32 0 -29 49l9 74 q-135 -125 -252 -125h-109q-114 -3 -194 82.5t-68 202.5zM162 283q-7 -71 40.5 -121.5t114.5 -50.5h109q55 1 105.5 26t79.5 52.5t69 72.5l20 189h-348q-81 0 -131 -44.5t-59 -123.5zM162.5 1213q-4.5 13 7.5 26l319 367q26 32 52 32h59q26 0 45 -32l242 -367q9 -13 1.5 -26 t-22.5 -13h-84q-13 0 -21.5 8.5t-21.5 30.5l-180 279l-242 -279q-16 -21 -26.5 -30t-24.5 -9h-84q-15 0 -19.5 13z" />
<glyph unicode="&#xe3;" horiz-adv-x="952" d="M43 283q13 124 103.5 202t218.5 78h348l4 47q12 113 -36 179.5t-132 66.5h-96q-77 0 -126 -22t-100 -68q-27 -23 -47 0l-30 39q-16 19 2 41q70 66 141.5 94.5t171.5 28.5h96q128 0 210 -101t65 -258l-60 -561q0 -23 2 -31q0 -18 -8 -18h-84q-32 0 -29 49l9 74 q-135 -125 -252 -125h-109q-114 -3 -194 82.5t-68 202.5zM162 283q-7 -71 40.5 -121.5t114.5 -50.5h109q55 1 105.5 26t79.5 52.5t69 72.5l20 189h-348q-81 0 -131 -44.5t-59 -123.5zM178 1430q-10 23 27 45q109 74 188.5 76.5t175.5 -64.5q67 -43 102 -53t74 3t117 62 q22 14 33 -16l23 -56q10 -22 -25 -45q-109 -74 -189.5 -76.5t-177.5 64.5q-67 43 -102 53t-72.5 -3t-115.5 -62q-16 -6 -22 -2.5t-13 18.5z" />
<glyph unicode="&#xe4;" horiz-adv-x="952" d="M43 283q13 124 103.5 202t218.5 78h348l4 47q12 113 -36 179.5t-132 66.5h-96q-77 0 -126 -22t-100 -68q-27 -23 -47 0l-30 39q-16 19 2 41q70 66 141.5 94.5t171.5 28.5h96q128 0 210 -101t65 -258l-60 -561q0 -23 2 -31q0 -18 -8 -18h-84q-32 0 -29 49l9 74 q-135 -125 -252 -125h-109q-114 -3 -194 82.5t-68 202.5zM158 1350l12 106q3 31 33 31h98q32 0 29 -31l-13 -106q-3 -31 -32 -31h-99q-31 0 -28 31zM162 283q-7 -71 40.5 -121.5t114.5 -50.5h109q55 1 105.5 26t79.5 52.5t69 72.5l20 189h-348q-81 0 -131 -44.5t-59 -123.5z M764 1350l12 106q3 31 33 31h98q32 0 29 -31l-12 -106q-3 -31 -33 -31h-98q-32 0 -29 31z" />
<glyph unicode="&#xe5;" horiz-adv-x="952" d="M43 283q13 124 103.5 202t218.5 78h348l4 47q12 113 -36 179.5t-132 66.5h-96q-77 0 -126 -22t-100 -68q-27 -23 -47 0l-30 39q-16 19 2 41q70 66 141.5 94.5t171.5 28.5h96q128 0 210 -101t65 -258l-60 -561q0 -23 2 -31q0 -18 -8 -18h-84q-32 0 -29 49l9 74 q-135 -125 -252 -125h-109q-114 -3 -194 82.5t-68 202.5zM162 283q-7 -71 40.5 -121.5t114.5 -50.5h109q55 1 105.5 26t79.5 52.5t69 72.5l20 189h-348q-81 0 -131 -44.5t-59 -123.5zM346 1427l2 23q9 82 67.5 136t141.5 54h27q83 0 130 -54t38 -136l-2 -23 q-9 -83 -67.5 -135.5t-141.5 -52.5h-27q-83 0 -130 52.5t-38 135.5zM449 1432q-5 -43 16 -67t65 -24h19q44 0 69.5 24t30.5 67l2 16q5 43 -16.5 66.5t-65.5 23.5h-18q-44 0 -69.5 -23.5t-30.5 -66.5z" />
<glyph unicode="&#xe6;" horiz-adv-x="1613" d="M43 283q13 124 103.5 202t218.5 78h344l4 47q12 108 -38 171t-132 63h-74q-137 0 -246 -80q-29 -22 -45 0l-33 43q-14 21 2 41q129 119 334 119h74q79 0 148.5 -44t105.5 -118q62 74 146.5 119t170.5 45h70q59 0 118.5 -28t106 -76t71.5 -118t17 -147l-10 -84 q-3 -29 -22 -46t-50 -17h-602l-10 -99q-10 -100 56.5 -171.5t164.5 -71.5h60q134 0 258 131q24 24 45 6l35 -31q21 -21 2 -43q-75 -80 -159.5 -128t-193.5 -48h-59q-86 0 -163 44.5t-122 117.5q-81 -79 -154 -120.5t-171 -41.5h-109q-114 -3 -194 82.5t-68 202.5zM166 283 q-7 -70 38 -116t113 -46h109q78 1 136 38.5t114 102.5l18 178h-344q-166 0 -184 -157zM838 561h544l4 37q11 113 -54.5 185.5t-147.5 72.5h-70q-98 0 -180 -75.5t-92 -182.5z" />
<glyph unicode="&#xe7;" horiz-adv-x="956" d="M55 365l25 233q15 146 139 258.5t264 112.5h74q117 0 214.5 -92.5t90.5 -200.5q-7 -33 -35 -33h-55q-15 0 -24.5 7t-8.5 20q6 65 -57.5 125.5t-136.5 60.5h-74q-95 0 -178.5 -77.5t-93.5 -180.5l-25 -233q-12 -102 55.5 -178t163.5 -76h74q121 0 248 135q23 23 45 6 l39 -35q23 -19 2 -43q-164 -176 -346 -176h-19q-11 -14 -18.5 -25t-12.5 -19.5t-4.5 -16t0 -12t6.5 -8.5t9 -6t12.5 -4.5t13 -3t15.5 -2t14 -1.5q98 -12 128 -26q67 -31 58 -129v-3q-9 -78 -56 -117t-142 -39h-92q-85 0 -127.5 47t-36.5 125q3 21 20 21h82q8 0 14.5 -5 t6.5 -12q-3 -33 18 -47t68 -14h26q66 0 79 7q14 10 18 34q3 31 -29.5 41t-161.5 26q-24 3 -37 5q-12 1 -24 7.5t-22 21t-11 34t13.5 51.5t47.5 70l6 6q-121 27 -199 130t-63 231z" />
<glyph unicode="&#xe8;" horiz-adv-x="964" d="M55 365l25 233q15 146 140 258.5t267 112.5h70q59 0 118.5 -28t106 -76t71.5 -118t17 -147l-10 -84q-3 -29 -22 -46t-50 -17h-602l-10 -99q-10 -100 56.5 -171.5t164.5 -71.5h60q134 0 258 131q24 24 45 6l35 -31q21 -21 2 -43q-75 -80 -159.5 -128t-193.5 -48h-59 q-69 0 -133.5 30t-110.5 79.5t-70 117.5t-16 140zM199 561h544l5 37q11 113 -55 185.5t-148 72.5h-70q-98 0 -180 -75.5t-92 -182.5zM313 1602q-14 36 25 36h90q30 0 39 -36l115 -379q4 -17 -3 -27t-22 -10h-65q-26 0 -39 37z" />
<glyph unicode="&#xe9;" horiz-adv-x="964" d="M55 365l25 233q15 146 140 258.5t267 112.5h70q59 0 118.5 -28t106 -76t71.5 -118t17 -147l-10 -84q-3 -29 -22 -46t-50 -17h-602l-10 -99q-10 -100 56.5 -171.5t164.5 -71.5h60q134 0 258 131q24 24 45 6l35 -31q21 -21 2 -43q-75 -80 -159.5 -128t-193.5 -48h-59 q-69 0 -133.5 30t-110.5 79.5t-70 117.5t-16 140zM199 561h544l5 37q11 113 -55 185.5t-148 72.5h-70q-98 0 -180 -75.5t-92 -182.5zM470.5 1196q-5.5 10 4.5 27l193 379q14 36 47 36h90q36 0 16 -36l-217 -379q-14 -20 -23.5 -28.5t-23.5 -8.5h-65q-16 0 -21.5 10z" />
<glyph unicode="&#xea;" horiz-adv-x="964" d="M55 365l25 233q15 146 140 258.5t267 112.5h70q59 0 118.5 -28t106 -76t71.5 -118t17 -147l-10 -84q-3 -29 -22 -46t-50 -17h-602l-10 -99q-10 -100 56.5 -171.5t164.5 -71.5h60q134 0 258 131q24 24 45 6l35 -31q21 -21 2 -43q-75 -80 -159.5 -128t-193.5 -48h-59 q-69 0 -133.5 30t-110.5 79.5t-70 117.5t-16 140zM168.5 1213q-4.5 13 7.5 26l320 367q26 32 51 32h59q26 0 45 -32l242 -367q9 -13 1.5 -26t-22.5 -13h-84q-13 0 -21.5 8.5t-21.5 30.5l-180 279l-241 -279q-31 -39 -52 -39h-84q-15 0 -19.5 13zM199 561h544l5 37 q11 113 -55 185.5t-148 72.5h-70q-98 0 -180 -75.5t-92 -182.5z" />
<glyph unicode="&#xeb;" horiz-adv-x="964" d="M55 365l25 233q15 146 140 258.5t267 112.5h70q59 0 118.5 -28t106 -76t71.5 -118t17 -147l-10 -84q-3 -29 -22 -46t-50 -17h-602l-10 -99q-10 -100 56.5 -171.5t164.5 -71.5h60q134 0 258 131q24 24 45 6l35 -31q21 -21 2 -43q-75 -80 -159.5 -128t-193.5 -48h-59 q-69 0 -133.5 30t-110.5 79.5t-70 117.5t-16 140zM164 1350l12 106q3 31 33 31h98q32 0 29 -31l-12 -106q-3 -31 -33 -31h-98q-32 0 -29 31zM199 561h544l5 37q11 113 -55 185.5t-148 72.5h-70q-98 0 -180 -75.5t-92 -182.5zM770 1350l12 106q3 31 33 31h98q32 0 29 -31 l-12 -106q-3 -31 -33 -31h-98q-32 0 -29 31z" />
<glyph unicode="&#xec;" horiz-adv-x="446" d="M53 1602q-14 36 25 36h90q30 0 39 -36l115 -379q4 -17 -3 -27t-22 -10h-66q-25 0 -38 37zM88 31l96 903q3 31 33 31h57q32 0 29 -31l-96 -903q-3 -31 -33 -31h-57q-32 0 -29 31z" />
<glyph unicode="&#xed;" horiz-adv-x="446" d="M88 31l96 903q3 31 33 31h57q32 0 29 -31l-96 -903q-3 -31 -33 -31h-57q-32 0 -29 31zM210 1196q-5 10 5 27l193 379q14 36 47 36h90q36 0 16 -36l-217 -379q-14 -20 -23.5 -28.5t-23.5 -8.5h-66q-16 0 -21 10z" />
<glyph unicode="&#xee;" horiz-adv-x="446" d="M-91.5 1213q-4.5 13 7.5 26l320 367q26 32 51 32h59q26 0 45 -32l242 -367q9 -13 1.5 -26t-22.5 -13h-84q-13 0 -21.5 8.5t-21.5 30.5l-180 279l-242 -279q-16 -21 -26.5 -30t-24.5 -9h-84q-15 0 -19.5 13zM88 31l96 903q3 31 33 31h57q32 0 29 -31l-96 -903 q-3 -31 -33 -31h-57q-32 0 -29 31z" />
<glyph unicode="&#xef;" horiz-adv-x="446" d="M-96 1350l12 106q3 31 33 31h98q32 0 29 -31l-13 -106q-3 -31 -32 -31h-99q-31 0 -28 31zM88 31l96 903q3 31 33 31h57q32 0 29 -31l-96 -903q-3 -31 -33 -31h-57q-32 0 -29 31zM510 1350l12 106q3 31 33 31h98q32 0 29 -31l-12 -106q-3 -31 -33 -31h-98q-32 0 -29 31z " />
<glyph unicode="&#xf0;" horiz-adv-x="1112" d="M68 422q23 255 139.5 375.5t341.5 120.5q120 0 205.5 -33t124.5 -78q25 143 14 319q-3 47 -19 93l-90 -103q-28 -35 -51 -35h-86q-19 0 -23.5 11t7.5 26l180 205q-71 68 -186 68h-50q-29 0 -26 30l6 62q3 30 35 30h49q159 0 256 -94l29 33q22 23 30.5 29t20.5 6h86 q19 0 23 -11t-9 -26l-110 -127q51 -96 51 -227q3 -336 -64 -682q-39 -204 -158.5 -319t-283.5 -115h-84q-179 0 -277.5 113t-80.5 329zM195 418q-18 -161 46.5 -238.5t196.5 -77.5h84q114 0 194 78t111 234q39 193 -26.5 282t-265.5 90q-80 1 -136.5 -15t-91.5 -42.5 t-57.5 -76.5t-33.5 -101t-21 -133z" />
<glyph unicode="&#xf1;" horiz-adv-x="1024" d="M57 31l97 901q3 31 32 31h58q31 0 28 -31l-10 -90q110 121 291 121h31q156 0 237 -101.5t66 -257.5l-62 -573q-3 -31 -32 -31h-58q-31 0 -28 31l61 571q11 110 -46 179t-171 69h-59q-86 0 -163.5 -59t-84.5 -134l-68 -626q-3 -31 -33 -31h-57q-32 0 -29 31zM219 1430 q-10 23 27 45q109 74 188.5 76.5t175.5 -64.5q67 -43 102 -53t74 3t117 62q22 14 33 -16l22 -56q10 -22 -24 -45q-109 -74 -189.5 -76.5t-177.5 64.5q-67 43 -102 53t-73.5 -3t-115.5 -62q-16 -6 -21 -2.5t-13 18.5z" />
<glyph unicode="&#xf2;" horiz-adv-x="983" d="M55 385l19 193q11 102 69 191.5t148.5 144.5t191.5 55h80q99 0 178 -55t118 -145t28 -191l-19 -193q-17 -156 -137 -271.5t-270 -115.5h-80q-153 0 -248 115.5t-78 271.5zM174 385q-12 -110 50 -192t169 -82h80q105 0 185 82t92 192l18 193q12 110 -50 194t-167 84h-80 q-107 0 -186.5 -83.5t-91.5 -194.5zM330 1602q-14 36 24 36h90q30 0 39 -36l115 -379q4 -17 -3 -27t-22 -10h-65q-26 0 -39 37z" />
<glyph unicode="&#xf3;" horiz-adv-x="983" d="M55 385l19 193q11 102 69 191.5t148.5 144.5t191.5 55h80q99 0 178 -55t118 -145t28 -191l-19 -193q-17 -156 -137 -271.5t-270 -115.5h-80q-153 0 -248 115.5t-78 271.5zM174 385q-12 -110 50 -192t169 -82h80q105 0 185 82t92 192l18 193q12 110 -50 194t-167 84h-80 q-107 0 -186.5 -83.5t-91.5 -194.5zM487 1196q-5 10 5 27l192 379q14 36 47 36h90q37 0 17 -36l-217 -379q-26 -37 -48 -37h-65q-16 0 -21 10z" />
<glyph unicode="&#xf4;" horiz-adv-x="983" d="M55 385l19 193q11 102 69 191.5t148.5 144.5t191.5 55h80q99 0 178 -55t118 -145t28 -191l-19 -193q-17 -156 -137 -271.5t-270 -115.5h-80q-153 0 -248 115.5t-78 271.5zM174 385q-12 -110 50 -192t169 -82h80q105 0 185 82t92 192l18 193q12 110 -50 194t-167 84h-80 q-107 0 -186.5 -83.5t-91.5 -194.5zM185.5 1213q-4.5 13 7.5 26l319 367q26 32 51 32h60q26 0 45 -32l241 -367q9 -13 2 -26t-22 -13h-84q-13 0 -21.5 8.5t-21.5 30.5l-180 279l-242 -279q-16 -21 -26.5 -30t-24.5 -9h-84q-15 0 -19.5 13z" />
<glyph unicode="&#xf5;" horiz-adv-x="983" d="M55 385l19 193q11 102 69 191.5t148.5 144.5t191.5 55h80q99 0 178 -55t118 -145t28 -191l-19 -193q-17 -156 -137 -271.5t-270 -115.5h-80q-153 0 -248 115.5t-78 271.5zM174 385q-12 -110 50 -192t169 -82h80q105 0 185 82t92 192l18 193q12 110 -50 194t-167 84h-80 q-107 0 -186.5 -83.5t-91.5 -194.5zM201 1430q-10 23 26 45q109 74 189 76.5t176 -64.5q67 -43 102 -53t74 3t117 62q22 14 33 -16l22 -56q10 -22 -25 -45q-109 -74 -189 -76.5t-177 64.5q-67 43 -102 53t-73.5 -3t-115.5 -62q-16 -6 -22 -2.5t-13 18.5z" />
<glyph unicode="&#xf6;" horiz-adv-x="983" d="M55 385l19 193q11 102 69 191.5t148.5 144.5t191.5 55h80q99 0 178 -55t118 -145t28 -191l-19 -193q-17 -156 -137 -271.5t-270 -115.5h-80q-153 0 -248 115.5t-78 271.5zM174 385q-12 -110 50 -192t169 -82h80q105 0 185 82t92 192l18 193q12 110 -50 194t-167 84h-80 q-107 0 -186.5 -83.5t-91.5 -194.5zM180 1350l13 106q3 31 32 31h99q31 0 28 -31l-12 -106q-3 -31 -33 -31h-98q-32 0 -29 31zM786 1350l13 106q3 31 32 31h99q31 0 28 -31l-12 -106q-3 -31 -33 -31h-98q-32 0 -29 31z" />
<glyph unicode="&#xf7;" horiz-adv-x="1052" d="M111 631l6 61q3 31 35 31h747q28 0 25 -31l-6 -61q-3 -31 -33 -31h-746q-31 0 -28 31zM401 293l13 117q3 30 32 30h99q31 0 28 -30l-12 -117q-3 -31 -35 -31h-98q-30 0 -27 31zM467 913l12 117q3 31 33 31h98q32 0 29 -31l-12 -117q-3 -30 -35 -30h-98q-30 0 -27 30z" />
<glyph unicode="&#xf8;" horiz-adv-x="1017" d="M55 385l19 193q11 102 69 191.5t148.5 144.5t191.5 55h80q55 0 107 -19q12 15 32 15h74q34 0 19 -31l-25 -43q64 -56 95.5 -139t21.5 -174l-19 -193q-17 -156 -137 -271.5t-270 -115.5h-80q-49 0 -92 12q-13 -10 -29 -10h-74q-15 0 -20 8t2 23l18 32q-71 53 -106 138.5 t-25 183.5zM174 385q-7 -63 11.5 -120t58.5 -95l368 678q-40 8 -61 8h-80q-107 0 -186.5 -83.5t-91.5 -194.5zM348 115q28 -4 45 -4h80q105 0 185 82t92 192l18 193q6 57 -9.5 110t-47.5 92z" />
<glyph unicode="&#xf9;" horiz-adv-x="958" d="M55 358l62 574q3 31 33 31h57q32 0 29 -31l-62 -572q-11 -110 46 -178.5t171 -68.5h60q86 0 163 58.5t84 133.5l68 627q3 31 33 31h57q32 0 29 -31l-97 -901q-3 -31 -32 -31h-58q-31 0 -28 31l10 90q-110 -121 -291 -121h-31q-156 0 -237 101t-66 257zM309 1602 q-14 36 25 36h90q30 0 39 -36l115 -379q4 -17 -3 -27t-22 -10h-66q-25 0 -38 37z" />
<glyph unicode="&#xfa;" horiz-adv-x="958" d="M55 358l62 574q3 31 33 31h57q32 0 29 -31l-62 -572q-11 -110 46 -178.5t171 -68.5h60q86 0 163 58.5t84 133.5l68 627q3 31 33 31h57q32 0 29 -31l-97 -901q-3 -31 -32 -31h-58q-31 0 -28 31l10 90q-110 -121 -291 -121h-31q-156 0 -237 101t-66 257zM466 1196 q-5 10 5 27l193 379q14 36 47 36h90q36 0 16 -36l-217 -379q-14 -20 -23.5 -28.5t-23.5 -8.5h-66q-16 0 -21 10z" />
<glyph unicode="&#xfb;" horiz-adv-x="958" d="M55 358l62 574q3 31 33 31h57q32 0 29 -31l-62 -572q-11 -110 46 -178.5t171 -68.5h60q86 0 163 58.5t84 133.5l68 627q3 31 33 31h57q32 0 29 -31l-97 -901q-3 -31 -32 -31h-58q-31 0 -28 31l10 90q-110 -121 -291 -121h-31q-156 0 -237 101t-66 257zM164.5 1213 q-4.5 13 7.5 26l320 367q26 32 51 32h59q26 0 45 -32l242 -367q9 -13 1.5 -26t-22.5 -13h-84q-13 0 -21.5 8.5t-21.5 30.5l-180 279l-242 -279q-16 -21 -26.5 -30t-24.5 -9h-84q-15 0 -19.5 13z" />
<glyph unicode="&#xfc;" horiz-adv-x="958" d="M55 358l62 574q3 31 33 31h57q32 0 29 -31l-62 -572q-11 -110 46 -178.5t171 -68.5h60q86 0 163 58.5t84 133.5l68 627q3 31 33 31h57q32 0 29 -31l-97 -901q-3 -31 -32 -31h-58q-31 0 -28 31l10 90q-110 -121 -291 -121h-31q-156 0 -237 101t-66 257zM160 1350l12 106 q3 31 33 31h98q32 0 29 -31l-13 -106q-3 -31 -32 -31h-99q-31 0 -28 31zM766 1350l12 106q3 31 33 31h98q32 0 29 -31l-12 -106q-3 -31 -33 -31h-98q-32 0 -29 31z" />
<glyph unicode="&#xfd;" horiz-adv-x="1013" d="M94 926q-5 16 1 26.5t22 10.5h69q29 0 39 -35l224 -715l374 715q19 35 49 35h68q32 0 14 -37l-680 -1301q-19 -35 -49 -35h-67q-36 0 -17 37l228 432zM495 1196q-5 10 5 27l192 379q14 36 47 36h90q37 0 17 -36l-217 -379q-14 -20 -23.5 -28.5t-23.5 -8.5h-66 q-16 0 -21 10z" />
<glyph unicode="&#xfe;" horiz-adv-x="1007" d="M25 -379l194 1835q3 31 33 31h57q32 0 29 -31l-64 -596q111 103 240 103h64q97 0 173 -53.5t112 -137.5t26 -176l-25 -250q-15 -137 -133 -241.5t-254 -104.5h-63q-126 0 -219 100l-52 -479q-3 -31 -32 -31h-58q-31 0 -28 31zM207 227q43 -46 105.5 -80t113.5 -34h63 q91 0 168.5 70.5t87.5 162.5l25 250q11 98 -46.5 176t-158.5 78h-63q-77 0 -154.5 -56t-91.5 -118z" />
<glyph unicode="&#xff;" horiz-adv-x="1013" d="M94 926q-5 16 1 26.5t22 10.5h69q29 0 39 -35l224 -715l374 715q19 35 49 35h68q32 0 14 -37l-680 -1301q-19 -35 -49 -35h-67q-36 0 -17 37l228 432zM188 1350l13 106q3 31 32 31h99q31 0 28 -31l-12 -106q-3 -31 -33 -31h-98q-32 0 -29 31zM795 1350l12 106q3 31 33 31 h98q32 0 29 -31l-13 -106q-3 -31 -32 -31h-99q-31 0 -28 31z" />
<glyph unicode="&#x152;" horiz-adv-x="1902" d="M86 475l57 545q22 202 163.5 345.5t318.5 143.5h94q91 0 168.5 -41t130.5 -114l10 102q3 31 33 31h760q31 0 28 -31l-6 -57q-3 -31 -35 -31h-667l-60 -559h535q32 0 29 -31l-7 -57q-3 -31 -34 -31h-535l-59 -571h667q30 0 27 -31l-6 -57q-3 -31 -33 -31h-760 q-31 0 -28 31l12 110q-69 -73 -154 -114t-176 -41h-94q-116 0 -208.5 65.5t-138.5 178t-32 245.5zM209 475q-17 -158 61 -266t211 -107h86q133 1 233.5 108.5t117.5 264.5l57 545q17 157 -61.5 264t-211.5 107h-86q-133 0 -233 -106.5t-117 -264.5z" />
<glyph unicode="&#x153;" horiz-adv-x="1697" d="M55 385l19 193q11 102 69 191.5t148.5 144.5t191.5 55h80q94 0 170 -49.5t117 -131.5q61 81 150 131t180 50h69q59 0 118.5 -28t106 -76t72 -118t17.5 -147l-11 -84q-3 -29 -21.5 -46t-49.5 -17h-602l-11 -99q-10 -100 57 -171.5t165 -71.5h59q134 0 258 131q24 24 45 6 l35 -31q21 -21 2 -43q-75 -81 -159 -128.5t-193 -47.5h-60q-91 0 -170.5 48.5t-122.5 127.5q-58 -80 -144 -128t-179 -48h-80q-153 0 -248 115.5t-78 271.5zM174 385q-12 -110 50 -192t169 -82h80q105 0 185 82t92 192l18 193q12 110 -50 194t-167 84h-80 q-107 0 -186.5 -83.5t-91.5 -194.5zM891 561h545l4 37q11 113 -55 185.5t-148 72.5h-70q-98 0 -180 -75.5t-92 -182.5z" />
<glyph unicode="&#x178;" d="M147 1456q-7 14 0 22.5t23 8.5h80q24 0 39 -31l293 -670l440 670q12 17 20.5 24t22.5 7h80q16 0 21.5 -8t-3.5 -23l-534 -803l-66 -622q-3 -31 -33 -31h-61q-32 0 -29 31l66 622zM315 1874l13 106q3 31 32 31h99q31 0 28 -31l-12 -106q-3 -31 -33 -31h-98q-32 0 -29 31z M922 1874l12 106q3 31 33 31h98q32 0 29 -31l-13 -106q-3 -31 -32 -31h-99q-31 0 -28 31z" />
<glyph unicode="&#x2c6;" horiz-adv-x="937" d="M154.5 1213q-4.5 13 7.5 26l319 367q26 32 51 32h60q26 0 45 -32l242 -367q9 -13 1.5 -26t-22.5 -13h-84q-13 0 -21.5 8.5t-21.5 30.5l-180 279l-242 -279q-16 -21 -26.5 -30t-24.5 -9h-84q-15 0 -19.5 13z" />
<glyph unicode="&#x2dc;" horiz-adv-x="952" d="M178 1430q-10 23 27 45q109 74 188.5 76.5t175.5 -64.5q67 -43 102 -53t74 3t117 62q22 14 33 -16l23 -56q10 -22 -25 -45q-109 -74 -189.5 -76.5t-177.5 64.5q-67 43 -102 53t-72.5 -3t-115.5 -62q-16 -6 -22 -2.5t-13 18.5z" />
<glyph unicode="&#x2000;" horiz-adv-x="1082" />
<glyph unicode="&#x2001;" horiz-adv-x="2165" />
<glyph unicode="&#x2002;" horiz-adv-x="1082" />
<glyph unicode="&#x2003;" horiz-adv-x="2165" />
<glyph unicode="&#x2004;" horiz-adv-x="721" />
<glyph unicode="&#x2005;" horiz-adv-x="541" />
<glyph unicode="&#x2006;" horiz-adv-x="360" />
<glyph unicode="&#x2007;" horiz-adv-x="360" />
<glyph unicode="&#x2008;" horiz-adv-x="270" />
<glyph unicode="&#x2009;" horiz-adv-x="433" />
<glyph unicode="&#x200a;" horiz-adv-x="120" />
<glyph unicode="&#x2010;" horiz-adv-x="888" d="M117 487l6 62q3 31 35 31h540q30 0 27 -31l-6 -62q-3 -30 -35 -30h-541q-29 0 -26 30z" />
<glyph unicode="&#x2011;" horiz-adv-x="888" d="M117 487l6 62q3 31 35 31h540q30 0 27 -31l-6 -62q-3 -30 -35 -30h-541q-29 0 -26 30z" />
<glyph unicode="&#x2012;" horiz-adv-x="888" d="M117 487l6 62q3 31 35 31h540q30 0 27 -31l-6 -62q-3 -30 -35 -30h-541q-29 0 -26 30z" />
<glyph unicode="&#x2013;" horiz-adv-x="1271" d="M92 451l6 61q3 31 35 31h965q29 0 26 -31l-6 -61q-3 -31 -35 -31h-964q-30 0 -27 31z" />
<glyph unicode="&#x2014;" horiz-adv-x="1423" d="M92 451l6 61q3 31 35 31h1116q30 0 27 -31l-6 -61q-3 -31 -35 -31h-1116q-30 0 -27 31z" />
<glyph unicode="&#x2018;" horiz-adv-x="413" d="M125 963l22 204q9 98 37.5 175t104.5 155q12 12 20.5 12.5t20.5 -12.5l41 -41q12 -14 13 -23t-11 -20q-59 -52 -77.5 -101t-27.5 -132l-18 -21h53q32 0 29 -31l-19 -165q-3 -31 -32 -31h-127q-32 0 -29 31z" />
<glyph unicode="&#x2019;" horiz-adv-x="436" d="M78 1012q39 34 60 72t25.5 61t10.5 80q1 3 1 4.5t0.5 4.5t0.5 5l19 21h-72q-32 0 -29 30l17 146q3 30 32 30h127q32 0 29 -30l-20 -185q-5 -49 -10 -78t-18 -71t-39 -81.5t-67 -80.5q-11 -13 -19 -13.5t-22 13.5l-24 27q-24 26 -2 45z" />
<glyph unicode="&#x201a;" horiz-adv-x="413" d="M-77.5 -268.5q-0.5 9.5 11.5 20.5q25 22 42.5 45.5t26.5 39.5t15.5 46.5t8.5 43t6 53.5l18 20h-71q-32 0 -29 31l16 145q3 31 33 31h127q32 0 29 -31l-21 -184q-4 -40 -7 -62t-11.5 -58t-21.5 -62.5t-36.5 -61t-56.5 -67.5q-11 -13 -19 -13.5t-22 13.5l-24 26 q-14 15 -14.5 24.5z" />
<glyph unicode="&#x201c;" horiz-adv-x="757" d="M47 963l23 204q10 99 37.5 176t103.5 154q12 12 20.5 12.5t20.5 -12.5l41 -41q12 -14 13 -23t-11 -20q-59 -52 -77.5 -101t-27.5 -132l-18 -21h53q32 0 29 -31l-18 -165q-3 -31 -33 -31h-127q-32 0 -29 31zM391 963l23 204q10 99 37.5 176t103.5 154q12 12 20.5 12.5 t20.5 -12.5l41 -41q12 -14 13 -23t-11 -20q-58 -52 -76.5 -100.5t-27.5 -132.5l-19 -21h53q32 0 29 -31l-18 -165q-3 -31 -33 -31h-127q-32 0 -29 31z" />
<glyph unicode="&#x201d;" horiz-adv-x="776" d="M-2 1012q39 34 60 72t25.5 61t10.5 80q1 3 1 4.5t0.5 4.5t0.5 5l19 21h-72q-32 0 -29 30l17 146q3 30 32 30h127q32 0 29 -30l-20 -185q-4 -40 -7 -62t-11.5 -58t-21.5 -62.5t-36.5 -61t-56.5 -67.5q-11 -13 -19 -13.5t-22 13.5l-25 27q-24 26 -2 45zM342 1012 q39 34 60 72t25.5 61t10.5 80q1 3 1 4.5t0.5 4.5t0.5 5l19 21h-72q-32 0 -29 30l17 146q3 30 33 30h127q31 0 28 -30l-20 -185q-4 -40 -7 -62t-11.5 -58t-21.5 -62.5t-36.5 -61t-56.5 -67.5q-11 -13 -19 -13.5t-22 13.5l-25 27q-24 26 -2 45z" />
<glyph unicode="&#x201e;" horiz-adv-x="757" d="M-77.5 -268.5q-0.5 9.5 11.5 20.5q25 22 42.5 45.5t26.5 39.5t15.5 46.5t8.5 43t6 53.5l18 20h-71q-32 0 -29 31l16 145q3 31 33 31h127q32 0 29 -31l-21 -184q-4 -40 -7 -62t-11.5 -58t-21.5 -62.5t-36.5 -61t-56.5 -67.5q-11 -13 -19 -13.5t-22 13.5l-24 26 q-14 15 -14.5 24.5zM279 -248q25 22 42.5 46t26 38.5t15.5 47.5t8 42.5t6 53.5l18 20h-71q-32 0 -29 31l16 145q3 31 33 31h127q32 0 29 -31l-21 -184q-4 -40 -7 -62t-11.5 -58t-21.5 -62.5t-36.5 -61t-56.5 -67.5q-11 -13 -19 -13.5t-22 13.5l-24 26q-24 26 -2 45z" />
<glyph unicode="&#x2022;" horiz-adv-x="598" d="M154 649l14 125q6 68 72 68h135q69 0 63 -68l-14 -125q-6 -67 -76 -67h-135q-65 0 -59 67z" />
<glyph unicode="&#x2026;" horiz-adv-x="983" d="M27 31l8 75q3 31 35 31h77q30 0 27 -31l-8 -75q-3 -31 -33 -31h-78q-31 0 -28 31zM346 31l8 75q3 31 35 31h78q30 0 27 -31l-9 -75q-3 -31 -32 -31h-78q-32 0 -29 31zM666 31l8 75q3 31 35 31h77q30 0 27 -31l-8 -75q-3 -31 -33 -31h-78q-31 0 -28 31z" />
<glyph unicode="&#x202f;" horiz-adv-x="433" />
<glyph unicode="&#x2039;" horiz-adv-x="677" d="M86 489l8 74q1 7 2.5 11.5t5.5 9t6.5 6.5t10 7l10.5 7l414 285q15 10 27 4t10 -21l-13 -114q-1 -9 -7.5 -17.5t-12.5 -12.5t-23 -15l-272 -187l233 -186q2 -1 8 -6t7.5 -6.5t6 -5.5t6 -6t3.5 -6t2 -7.5v-7.5l-12 -115q-2 -15 -13.5 -20.5t-25.5 4.5l-354 285 q-3 3 -10.5 8.5t-10 8.5t-5 9t-1.5 14z" />
<glyph unicode="&#x203a;" horiz-adv-x="677" d="M53 180l13 115q1 14 9.5 22.5t30.5 22.5l275 186l-236 187q-13 10 -18 14.5t-9 12.5t-3 18l12 114q2 15 13.5 21t23.5 -4l356 -285q3 -2 11 -8.5t10 -9t4.5 -9t1.5 -14.5l-8 -74q-1 -8 -4.5 -14.5t-5.5 -8.5t-12 -8.5t-13 -8.5l-416 -285q-13 -10 -25 -4.5t-10 20.5z" />
<glyph unicode="&#x205f;" horiz-adv-x="541" />
<glyph unicode="&#x20ac;" horiz-adv-x="1441" d="M86 592l6 61q3 31 35 31h176l12 115h-176q-31 0 -28 30l8 62q3 31 33 31h176l10 100q14 132 86 244.5t178.5 177.5t220.5 65h95q82 0 156 -38.5t125 -102.5t77 -151.5t18 -180.5q-3 -30 -34 -30h-62q-32 0 -29 30q15 144 -63.5 249.5t-200.5 105.5h-94 q-128 0 -230.5 -106.5t-119.5 -262.5l-10 -100h475q31 0 28 -31l-8 -62q-3 -30 -33 -30h-475l-12 -115h475q30 0 27 -31l-6 -61q-3 -31 -33 -31h-475l-11 -96q-17 -156 63.5 -264.5t209.5 -108.5h94q122 0 223.5 106.5t114.5 252.5q3 30 37 30h61q30 0 27 -30 q-14 -125 -85.5 -236t-176.5 -176.5t-215 -65.5h-94q-114 0 -207 66t-140.5 180t-33.5 246l10 96h-176q-32 0 -29 31z" />
<glyph unicode="&#x2122;" horiz-adv-x="1595" d="M150 1395l8 61q3 31 32 31h490q32 0 29 -31l-9 -61q-3 -31 -32 -31h-183l-39 -371q-3 -30 -34 -30h-62q-29 0 -26 30l38 371h-184q-31 0 -28 31zM772 993l49 463q3 31 33 31h123q25 0 39 -31l151 -338l228 338q18 31 43 31h123q31 0 28 -31l-49 -463q-3 -30 -35 -30h-61 q-30 0 -27 30l35 340l-235 -340q-23 -30 -43 -30h-44q-19 0 -34 30l-166 340l-35 -340q-3 -30 -35 -30h-61q-30 0 -27 30z" />
<glyph unicode="&#x25fc;" horiz-adv-x="962" d="M0 0v963h963v-963h-963z" />
</font>
</defs>
</svg>
