<?xml version="1.0" standalone="no"?>
<!DOCTYPE svg PUBLIC "-//W3C//DTD SVG 1.1//EN" "http://www.w3.org/Graphics/SVG/1.1/DTD/svg11.dtd" >
<svg xmlns="http://www.w3.org/2000/svg" xmlns:xlink="http://www.w3.org/1999/xlink" version="1.1">
<metadata></metadata>
<defs>
<font id="manifold_cflight_oblique" horiz-adv-x="1187" >
<font-face units-per-em="2048" ascent="1638" descent="-410" />
<missing-glyph horiz-adv-x="645" />
<glyph unicode="&#xfb01;" horiz-adv-x="1157" d="M100 907l2 27q3 31 33 31h121l16 145q19 172 119.5 274.5t253.5 102.5h135q32 0 29 -31l-2 -24q-3 -31 -37 -31h-135q-119 0 -190 -78.5t-85 -218.5l-14 -139h627q16 0 22 -9q6 9 23 9h26q32 0 29 -31l-96 -903q-3 -31 -33 -31h-26q-32 0 -29 31l90 848q-4 -2 -16 -2 h-627l-90 -846q-3 -31 -33 -31h-27q-31 0 -28 31l90 846h-123q-28 0 -25 30zM1036 1384l8 72q3 31 33 31h21q31 0 28 -31l-10 -72q-3 -30 -31 -30h-20q-32 0 -29 30z" />
<glyph unicode="&#xfb02;" horiz-adv-x="1167" d="M100 907l2 25q3 31 33 31h119l16 147q19 172 119.5 274.5t253.5 102.5h434q32 0 29 -31l-152 -1425q-3 -31 -32 -31h-27q-32 0 -29 31l146 1370h-379q-119 0 -190 -78.5t-85 -218.5l-14 -141h358q32 0 29 -31l-2 -25q-3 -30 -37 -30h-358l-90 -846q-3 -31 -33 -31h-27 q-31 0 -28 31l90 846h-121q-28 0 -25 30z" />
<glyph horiz-adv-x="0" />
<glyph horiz-adv-x="682" />
<glyph unicode=" "  horiz-adv-x="645" />
<glyph unicode="&#x09;" horiz-adv-x="645" />
<glyph unicode="&#xa0;" horiz-adv-x="645" />
<glyph unicode="!" horiz-adv-x="403" d="M78 31l2 32q3 31 35 31h47q29 0 26 -31l-4 -32q-3 -31 -32 -31h-46q-31 0 -28 31zM119 342l117 1114q3 31 32 31h31q32 0 29 -31l-117 -1114q-6 -31 -35 -31h-31q-32 0 -26 31z" />
<glyph unicode="&#x22;" horiz-adv-x="729" d="M166 856l63 600q3 31 33 31h47q32 0 29 -31l-64 -600q-3 -31 -34 -31h-47q-30 0 -27 31zM479 856l64 600q3 31 32 31h48q31 0 28 -31l-63 -600q-3 -31 -35 -31h-47q-30 0 -27 31z" />
<glyph unicode="#" horiz-adv-x="1220" d="M111 432l4 31q0 15 10 23t25 8h147l53 499h-149q-30 0 -27 31l2 31q3 30 35 30h149l39 371q3 31 33 31h31q32 0 29 -31l-39 -371h391l39 371q3 31 32 31h31q32 0 29 -31l-39 -371h147q30 0 27 -30l-2 -31q-3 -31 -35 -31h-147l-54 -499h150q27 0 27 -31l-5 -31 q-3 -31 -34 -31h-148l-39 -370q-3 -31 -32 -31h-31q-32 0 -29 31l39 370h-391l-39 -370q-3 -31 -33 -31h-31q-31 0 -28 31l39 370h-150q-29 0 -26 31zM389 494h391l54 499h-392z" />
<glyph unicode="$" horiz-adv-x="970" d="M109 797q0 30 32 30h52q30 0 30 -28q1 -64 61 -109t134 -51l35 330q-155 24 -231.5 81.5t-63.5 172.5q13 127 114 202.5t238 83.5l14 131q3 31 35 31h51q30 0 27 -31l-14 -133q74 -9 140 -48.5t106 -105t34 -139.5q-3 -32 -33 -32h-47q-14 0 -22.5 6.5t-7.5 19.5 q6 73 -49.5 126.5t-131.5 64.5l-34 -330q75 -12 127 -28.5t95.5 -45t62 -74.5t11.5 -110q-10 -114 -115 -192t-239 -89l-14 -133q-3 -30 -33 -30h-51q-32 0 -29 30l15 131q-114 9 -206.5 88t-92.5 181zM266 1223q-8 -67 41 -96t158 -44l35 320q-218 -15 -234 -180zM530 639 q94 8 161.5 53t76.5 119q4 34 -5 58.5t-24.5 39t-45.5 24.5t-58 14.5t-72 8.5z" />
<glyph unicode="%" horiz-adv-x="1306" d="M99 8q-6 8 3 23l979 1425q12 17 20.5 24t22.5 7h56q16 0 21.5 -8t-3.5 -23l-979 -1425q-12 -17 -20.5 -24t-22.5 -7h-55q-16 0 -22 8zM137 1274l2 22q9 82 67.5 136.5t141.5 54.5h27q83 0 130 -54.5t38 -136.5l-2 -22q-7 -83 -65.5 -136t-141.5 -53h-27q-83 0 -130.5 53 t-39.5 136zM236 1278q-6 -94 83 -94h19q47 0 74 24.5t30 69.5l4 16q5 44 -18 68t-70 24h-18q-90 0 -102 -92zM748 188l2 23q8 82 65.5 136t140.5 54h27q83 0 130.5 -54t39.5 -136l-2 -23q-9 -83 -67.5 -135.5t-141.5 -52.5h-27q-83 0 -129.5 52.5t-37.5 135.5zM846 193 q-5 -44 17.5 -69.5t66.5 -25.5h18q94 0 107 95v16q9 92 -84 92h-19q-46 0 -74 -24t-32 -68v-16z" />
<glyph unicode="&#x26;" horiz-adv-x="1478" d="M61 352l9 74q7 85 57 156.5t166 134.5l61 35l-18 16q-91 82 -117.5 157t-15.5 181l4 39q14 147 134.5 256.5t291.5 109.5h135q114 0 199 -52.5t123.5 -135.5t29.5 -178l-4 -39q-21 -197 -145 -287l-68 -55q-22 -16 -51 -16h-53q-21 0 -27.5 14t10.5 24l54 33 q68 41 123 120.5t65 172.5l4 33q11 110 -59 192t-205 82h-146q-134 0 -221 -82t-98 -192l-4 -33q-10 -93 25 -159.5t112 -135.5l565 -514q1 3 7 39l18 160q4 38 8 60.5t16.5 53t32.5 46.5l109 79q4 3 10.5 7t9.5 6t8 4t11 2h69q21 0 27 -12.5t-12 -24.5l-146 -109 q-10 -8 -18 -16.5t-13.5 -20t-9 -19t-6 -23t-3.5 -21t-3 -24.5t-2 -23l-12 -121q-6 -58 -27 -108l221 -201q12 -11 5 -24t-27 -13h-74q-19 0 -35 16l-141 127q-60 -82 -158 -128t-215 -46h-217q-179 0 -283.5 106.5t-85.5 276.5zM154 352q-13 -142 63.5 -216.5t218.5 -74.5 h228q98 0 175 36t119 104l-536 487l-68 -31q-81 -37 -132.5 -88.5t-59.5 -132.5z" />
<glyph unicode="'" horiz-adv-x="415" d="M166 856l63 600q3 31 33 31h47q32 0 29 -31l-64 -600q-3 -31 -34 -31h-47q-30 0 -27 31z" />
<glyph unicode="(" horiz-adv-x="669" d="M80 242l106 1003q19 173 120.5 279t254.5 106h39q30 0 27 -31l-4 -30q-3 -31 -35 -31h-58q-103 0 -170 -74t-79 -198l-111 -1045q-12 -124 40 -198t155 -74h57q30 0 27 -31l-3 -31q-3 -30 -34 -30h-39q-153 0 -232.5 106t-60.5 279z" />
<glyph unicode=")" horiz-adv-x="669" d="M43 -113l2 31q3 31 37 31h57q103 0 170.5 74t79.5 198l111 1045q12 124 -40 198t-155 74h-57q-30 0 -27 31l2 30q3 31 35 31h39q153 0 232.5 -106t60.5 -279l-107 -1003q-19 -173 -120.5 -279t-253.5 -106h-39q-30 0 -27 30z" />
<glyph unicode="*" horiz-adv-x="751" d="M166 1081q-12 23 10 37l176 92l-157 93q-22 11 -2 34l26 41q19 19 35 6l131 -102l21 182q3 23 24 23h47q28 0 25 -23l-21 -182l150 102q28 12 37 -6l20 -41q10 -26 -14 -34l-172 -93l153 -92q21 -15 7 -37l-29 -39q-15 -21 -37 -8l-129 105l-18 -185q-3 -22 -29 -22h-47 q-24 0 -21 22l19 185l-152 -105q-23 -13 -35 8z" />
<glyph unicode="+" horiz-adv-x="1052" d="M113 647l2 31q3 31 35 31h329l37 346q3 30 35 30h31q29 0 26 -30l-37 -346h326q28 0 25 -31l-2 -31q-3 -31 -33 -31h-324l-37 -350q-6 -30 -34 -30h-31q-33 0 -27 30l37 350h-330q-31 0 -28 31z" />
<glyph unicode="," horiz-adv-x="364" d="M0 -250q30 26 48 50t27.5 53t13 48.5t7.5 59.5q1 13 2 19l19 20h-60q-31 0 -28 31l14 125q3 30 33 30h98q32 0 29 -30l-19 -164q-5 -47 -6.5 -62.5t-10 -55t-20 -62.5t-34.5 -57.5t-56 -67.5q-11 -13 -19 -13.5t-22 13.5l-14 18q-25 25 -2 45z" />
<glyph unicode="-" horiz-adv-x="888" d="M119 504l2 31q3 30 35 30h540q30 0 27 -30l-2 -31q-3 -31 -35 -31h-541q-29 0 -26 31z" />
<glyph unicode="." horiz-adv-x="282" d="M6 31l6 61q3 31 37 31h57q30 0 27 -31l-8 -61q-3 -31 -33 -31h-57q-32 0 -29 31z" />
<glyph unicode="/" horiz-adv-x="774" d="M-33.5 8q-5.5 8 2.5 23l774 1425q15 31 43 31h43q15 0 20.5 -8t-1.5 -23l-774 -1425q-19 -31 -43 -31h-43q-16 0 -21.5 8z" />
<glyph unicode="0" d="M86 479l57 541q22 202 163.5 345.5t318.5 143.5h92q116 0 208.5 -65.5t138.5 -178t32 -245.5l-58 -541q-14 -133 -83.5 -246t-175.5 -179t-222 -66h-92q-116 0 -208.5 66t-138.5 179t-32 246zM180 485q-13 -114 21.5 -208t107.5 -147t168 -52h86q145 3 254.5 118.5 t128.5 288.5l55 529q19 171 -67 287t-229 116h-89q-143 0 -252 -115.5t-128 -287.5z" />
<glyph unicode="1" horiz-adv-x="710" d="M209 1253q-19 19 4 43l201 181l6 4q6 6 20 6h27q32 0 29 -31l-152 -1425q-3 -31 -33 -31h-26q-32 0 -29 31l139 1317l-127 -115q-19 -22 -41 0z" />
<glyph unicode="2" horiz-adv-x="1159" d="M29 31q11 88 25.5 156t41 136t63.5 119t93.5 95t130.5 75l289 121q129 53 176 84q113 74 142 211q6 26 9 55q8 72 -13 134t-63.5 104t-100.5 66t-122 24h-86q-135 0 -244 -92t-126 -242l-4 -35q-3 -30 -33 -30h-33q-32 0 -29 30l5 35q12 119 84 218.5t176 154t213 53.5 h86q83 0 157.5 -33t128 -88.5t80.5 -134t17 -164.5q-8 -79 -34.5 -142t-61.5 -107t-92.5 -82.5t-110.5 -64t-134 -56.5l-241 -94q-70 -27 -124.5 -83.5t-85 -124t-46.5 -126t-21 -111.5h803q30 0 27 -31l-4 -30q-3 -31 -33 -31h-877q-31 0 -28 31z" />
<glyph unicode="3" horiz-adv-x="1148" d="M59 391l4 39q3 31 33 31h35q32 0 29 -31l-4 -39q-9 -78 13 -140.5t66 -100t101 -57t121 -19.5h88q96 0 178.5 34t140.5 106.5t70 172.5q13 144 -79.5 232t-250.5 94h-121q-31 0 -28 30l2 29q3 31 35 31h122q155 6 253 90t112 221q13 129 -77 217t-222 88h-88 q-81 0 -157 -36.5t-134 -115.5t-70 -184l-4 -39q-3 -30 -32 -30h-33q-32 0 -29 30l4 39q14 123 86.5 223t174 152.5t206.5 52.5h86q169 0 283.5 -117.5t97.5 -281.5q-12 -115 -79 -198t-197 -154q122 -71 182 -159t49 -210q-20 -180 -162.5 -294.5t-328.5 -114.5h-86 q-82 0 -156.5 29t-130.5 80.5t-85 130t-18 169.5z" />
<glyph unicode="4" horiz-adv-x="1128" d="M29 569q-7 20 8 43l674 875q17 22 43 22h43q19 0 23 -10.5t-7 -23.5l-672 -873h580l35 330q3 31 32 31h31q32 0 29 -31l-35 -330h178q30 0 27 -31l-4 -30q-3 -31 -33 -31h-178l-51 -479q-3 -31 -33 -31h-31q-32 0 -29 31l52 479h-637q-22 0 -31 20z" />
<glyph unicode="5" horiz-adv-x="1161" d="M66 393l4 33q3 31 32 31h33q32 0 29 -31l-4 -33q-8 -77 12 -140t61.5 -103t99.5 -62t126 -22h78q71 0 135 21.5t118 63.5t91 113t49 162q24 195 -53 308.5t-256 113.5h-43q-54 0 -108.5 -14t-105 -40.5t-81 -45t-70.5 -46.5h-63q-30 0 -27 31l4 39l92 684q3 31 33 31h784 q32 0 29 -31l-4 -22q-3 -31 -35 -31h-719l-80 -590q164 119 357 119h45q98 0 177 -31t135 -91t79 -157.5t6 -222.5q-16 -111 -63 -198t-115 -141t-150 -81.5t-172 -27.5h-77q-116 0 -207.5 49.5t-140 144.5t-35.5 217z" />
<glyph unicode="6" horiz-adv-x="1163" d="M80 422q6 333 80 670q39 182 163 300.5t306 118.5h69q180 0 292.5 -119.5t94.5 -301.5l-4 -29q-3 -31 -32 -31h-31q-32 0 -29 31l4 29q15 149 -71 239t-234 90h-67q-78 0 -142 -25.5t-106 -69t-69.5 -92.5t-43.5 -106q-50 -170 -61 -333q47 61 136 101t214 40h86 q230 0 329.5 -125.5t63.5 -388.5q-30 -208 -166 -323t-317 -115h-101q-175 0 -271 116.5t-93 323.5zM172 422q-3 -176 65 -262t218 -86h100q150 0 255 88t126 260q24 209 -46 314.5t-265 105.5h-86q-357 0 -367 -420z" />
<glyph unicode="7" horiz-adv-x="1165" d="M122 15q-4 15 3 28q150 378 385 724.5t530 635.5h-850q-27 0 -24 31l2 22q3 31 33 31h919q32 0 29 -31l-4 -26q0 -29 -12 -48q-315 -301 -539 -627t-375 -720q-16 -35 -45 -35h-35q-13 0 -17 15z" />
<glyph unicode="8" horiz-adv-x="1173" d="M61 385l5 45q12 108 79 198t170 146q-79 51 -120.5 139t-30.5 185l4 26q16 153 145.5 270t302.5 117h101q116 0 205.5 -56t132 -144t32.5 -187l-4 -26q-11 -99 -69.5 -186.5t-151.5 -137.5q93 -56 142.5 -146t37.5 -198l-6 -45q-11 -110 -78.5 -203t-171.5 -146.5 t-219 -53.5h-121q-114 0 -207 53.5t-141.5 146.5t-36.5 203zM152 379q-14 -132 72 -218.5t231 -86.5h125q144 0 249.5 87t114.5 218l4 45q14 131 -73 216t-234 85h-113q-149 0 -252.5 -85t-117.5 -216zM258 1108q-13 -125 59 -208t213 -83h125q143 0 234.5 83t103.5 208 l2 20q8 76 -20.5 141.5t-96.5 107.5t-163 42h-115q-143 0 -239 -87t-101 -204z" />
<glyph unicode="9" horiz-adv-x="1165" d="M158 403l4 29q3 31 33 31h30q32 0 29 -31l-4 -29q-13 -148 72 -238.5t233 -90.5h68q78 0 142 25.5t106 69.5t69 93t43 105q50 174 61 335q-48 -62 -136.5 -102.5t-211.5 -40.5h-88q-465 0 -391 514q19 140 91 241.5t172.5 149t217.5 47.5h101q175 0 271 -115.5t93 -324.5 q-6 -331 -80 -668q-39 -182 -163.5 -301.5t-305.5 -119.5h-67q-180 0 -293.5 119.5t-95.5 301.5zM309 1071q-26 -209 44 -314.5t265 -105.5h87q356 0 366 420q3 176 -65 262t-218 86h-98q-97 0 -176.5 -36t-135.5 -116t-69 -196z" />
<glyph unicode=":" horiz-adv-x="430" d="M78 31l8 84q3 30 35 30h61q30 0 27 -30l-8 -84q-3 -31 -33 -31h-62q-31 0 -28 31zM166 848l8 84q3 31 33 31h61q32 0 29 -31l-10 -84q-3 -31 -35 -31h-59q-30 0 -27 31z" />
<glyph unicode=";" horiz-adv-x="434" d="M78 31l16 135q3 31 33 31h59q12 0 19.5 -10.5t7.5 -22.5q3 -7 -2 -67t-10 -95q-1 -7 -4.5 -29.5t-5 -30.5t-6 -26t-9 -28t-12 -24t-17.5 -26q-6 -9 -30 -24l-15 -19q-12 -3 -18 9t4 24q27 36 39.5 90t7.5 76l8 6h-37q-31 0 -28 31zM166 848l8 84q3 31 33 31h61 q32 0 29 -31l-10 -84q-3 -31 -35 -31h-59q-30 0 -27 31z" />
<glyph unicode="&#x3c;" horiz-adv-x="983" d="M96 483q2 20 19 33l731 408q15 7 24 1.5t7 -18.5l-3 -39q-4 -38 -26 -49l-606 -336l536 -336q23 -16 13 -49l-3 -39q-2 -13 -11 -18t-23 2l-648 408q-14 14 -10 32z" />
<glyph unicode="=" horiz-adv-x="929" d="M96 492l4 34q3 31 35 31h623q29 0 26 -31l-4 -34q-3 -31 -35 -31h-622q-30 0 -27 31zM133 821l2 35q3 31 33 31h623q31 0 28 -31l-2 -35q-3 -30 -37 -30h-622q-28 0 -25 30z" />
<glyph unicode="&#x3e;" horiz-adv-x="983" d="M51 59l2 39q1 2 4 13.5t4.5 15.5t7 10t13.5 10l606 336l-536 336q-19 12 -15 49l2 39q2 12 12.5 18t22.5 -1l649 -408q13 -10 11 -33q-5 -24 -19 -32l-733 -408q-13 -7 -23 -1.5t-8 17.5z" />
<glyph unicode="?" horiz-adv-x="1046" d="M102 1042l4 39q12 121 79 221t166 155.5t206 55.5h86q110 0 198 -56.5t132.5 -154.5t32.5 -215q-10 -83 -40 -151t-74.5 -113.5t-93 -75t-104.5 -47.5q-50 -17 -73 -25.5t-52 -22t-40 -23.5t-24 -27.5t-17.5 -37t-8.5 -48.5l-14 -174q-9 -31 -35 -31h-31q-16 0 -23 8 t-3 23l14 164q12 109 63.5 167t157.5 95q71 25 114 46t88 57t70 89t33 127q15 148 -66.5 241t-213.5 93h-86q-129 0 -229 -92t-117 -248l-4 -39q-3 -30 -33 -30h-33q-32 0 -29 30zM330 31l4 32q3 31 35 31h45q29 0 26 -31l-4 -32q-3 -31 -33 -31h-45q-31 0 -28 31z" />
<glyph unicode="@" horiz-adv-x="1251" d="M94 461l58 569q11 104 59.5 195t119 153t157.5 97.5t176 35.5h94q85 0 162.5 -36t134 -96.5t86 -148.5t18.5 -186l-59 -585q-9 -72 -56.5 -114t-113.5 -42h-2q-39 0 -78 31t-49 78q-130 -111 -252 -111h-21q-111 0 -177.5 70t-55.5 170q9 106 99.5 178t213.5 72h226v8 q13 126 -23 180.5t-131 54.5h-35q-22 0 -43 -2.5t-35.5 -5t-31.5 -9.5t-26 -11t-24 -14t-19.5 -13.5t-19.5 -16t-18 -14.5q-26 -22 -45 0l-27 29q-18 21 2 41q60 60 127.5 89.5t167.5 29.5h33q129 0 199 -91t53 -245l-10 -125l-17 -137l-8 -95q-7 -45 39 -45q27 0 38.5 11 t14.5 34l64 609q8 77 -13.5 144.5t-64 113t-101 72t-122.5 26.5h-115q-144 0 -256.5 -103.5t-130.5 -271.5l-59 -579q-18 -167 72.5 -273t234.5 -106h98q81 0 160 47q19 11 28.5 6.5t6.5 -23.5l-6 -55q0 -25 -25 -37q-93 -41 -176 -41h-88q-89 0 -168.5 37t-136.5 100.5 t-85.5 155.5t-17.5 195zM399 541q-6 -63 29.5 -101.5t108.5 -38.5h20q30 0 57 6.5t44.5 13t41.5 24.5t34 27.5t36.5 35.5t36.5 35l16 145h-221q-92 0 -143.5 -38.5t-59.5 -108.5z" />
<glyph unicode="A" horiz-adv-x="1202" d="M16 33l611 1427q13 33 41 33h45q30 0 37 -33l307 -1427q6 -33 -29 -33h-35q-29 0 -35 33l-86 416h-581l-174 -416q-14 -33 -39 -33h-43q-36 0 -19 33zM326 530h530l-176 848z" />
<glyph unicode="B" horiz-adv-x="1198" d="M59 37l148 1413q6 37 41 37h475q177 0 279 -99q86 -84 85 -224q0 -25 -2 -52q-28 -260 -217 -348q104 -50 150 -138q34 -66 35 -165q0 -32 -4 -68q-20 -189 -138 -291t-319 -102h-500q-39 0 -33 37zM158 92h454q151 0 240 76.5t104 216.5q3 29 3 55q0 114 -60 186 q-74 88 -219 89h-457zM231 807h459q124 0 206.5 88t96.5 225q2 23 2 43q0 108 -61 165q-73 67 -213 67h-428z" />
<glyph unicode="C" horiz-adv-x="1163" d="M76 465l57 557q14 130 87 243t180 178.5t218 65.5h95q108 0 199 -65.5t140 -175.5q40 -90 40 -188q0 -22 -2 -44q-3 -30 -35 -30h-31q-32 0 -29 30q3 23 3 45q0 75 -29 144q-37 90 -108.5 144t-155.5 54h-95q-136 0 -251 -119t-134 -282l-57 -557q-3 -26 -3 -50 q0 -131 77 -233q91 -120 227 -121h94q85 0 167.5 54t138.5 145t65 191q3 30 37 30h30q30 0 27 -30q-14 -122 -86 -233t-178 -178t-213 -67h-94q-111 0 -204 67q-93 68 -142 182q-38 89 -38 186q0 28 3 57z" />
<glyph unicode="D" horiz-adv-x="1167" d="M43 31l152 1425q3 31 32 31h33h457q110 0 201 -65q92 -64 140 -176q37 -86 38 -183q0 -28 -4 -57l-54 -525q-14 -128 -85.5 -239.5t-176.5 -176.5t-215 -65h-489q-32 0 -29 31zM141 92h434q85 0 166.5 54t137.5 146t67 195l53 514q3 24 3 48q0 77 -28 147 q-36 92 -106 145.5t-155 53.5h-432z" />
<glyph unicode="E" horiz-adv-x="1089" d="M74 31l151 1425q3 31 33 31h750q31 0 28 -31l-2 -31q-3 -30 -35 -30h-688l-63 -598h555q31 0 28 -31l-4 -31q-3 -30 -34 -30h-555l-64 -613h688q30 0 27 -31l-4 -30q-3 -31 -33 -31h-750q-31 0 -28 31z" />
<glyph unicode="F" horiz-adv-x="1048" d="M74 31l151 1425q3 31 33 31h750q31 0 28 -31l-2 -24q-3 -31 -35 -31h-688l-67 -629h555q33 0 30 -31l-4 -24q-3 -31 -34 -31h-555l-70 -655q-3 -31 -33 -31h-31q-31 0 -28 31z" />
<glyph unicode="G" horiz-adv-x="1181" d="M82 457l59 565q14 130 87.5 243t180.5 178.5t218 65.5h94q108 0 199 -65.5t140 -175.5q40 -90 40 -188q0 -22 -2 -44q-3 -30 -35 -30h-31q-31 0 -28 30q3 24 3 48q0 122 -75 218q-90 115 -219 115h-97q-136 0 -250 -116t-133 -279l-59 -565q-2 -23 -2 -45q0 -133 76 -231 q89 -115 227 -115h98q133 0 244.5 116.5t126.5 278.5l25 215h-330q-30 0 -27 31l2 30q3 31 33 31h393q34 0 31 -31l-33 -276q-19 -197 -164.5 -342.5t-314.5 -145.5h-94q-114 0 -207 66t-141 178q-38 88 -38 186q0 27 3 54z" />
<glyph unicode="H" horiz-adv-x="1210" d="M57 31l152 1425q3 31 33 31h30q32 0 29 -31l-74 -700h760l74 700q3 31 33 31h30q32 0 29 -31l-152 -1425q-3 -31 -32 -31h-31q-32 0 -29 31l68 633h-760l-67 -633q-3 -31 -33 -31h-31q-32 0 -29 31z" />
<glyph unicode="I" horiz-adv-x="350" d="M43 31l152 1425q3 31 32 31h31q32 0 29 -31l-152 -1425q-3 -31 -33 -31h-30q-32 0 -29 31z" />
<glyph unicode="J" horiz-adv-x="1064" d="M37 279q-9 26 20 40l41 9q29 9 35 -19q48 -231 318 -231q136 0 243.5 109t124.5 276l107 993q3 31 32 31h31q32 0 29 -31l-105 -989q-23 -203 -160.5 -342t-310.5 -139q-322 0 -405 293z" />
<glyph unicode="K" horiz-adv-x="1114" d="M47 31l152 1425q3 31 32 31h31q32 0 29 -31l-84 -788l733 780q36 39 57 39h31q10 0 16 -6.5t3.5 -18.5t-15.5 -26l-680 -725l596 -662q12 -12 7.5 -30.5t-23.5 -18.5h-37q-24 0 -53 29l-547 610l-102 -107l-54 -501q-3 -31 -33 -31h-30q-32 0 -29 31z" />
<glyph unicode="L" horiz-adv-x="1069" d="M53 31l152 1425q3 31 33 31h30q32 0 29 -31l-143 -1364h733q29 0 26 -31l-2 -30q-3 -31 -32 -31h-797q-32 0 -29 31z" />
<glyph unicode="M" horiz-adv-x="1445" d="M43 31l152 1425q3 31 32 31h109q33 0 39 -31l272 -1325l557 1325q12 31 43 31h107q31 0 28 -31l-151 -1425q-3 -31 -33 -31h-31q-31 0 -28 31l149 1419l-594 -1419q-12 -31 -41 -31h-37q-30 0 -36 31l-295 1419l-150 -1419q-3 -31 -33 -31h-30q-32 0 -29 31z" />
<glyph unicode="N" horiz-adv-x="1239" d="M43 31l152 1425q3 31 32 31h119q26 0 35 -23l551 -1429l151 1421q3 31 33 31h31q32 0 29 -31l-152 -1425q-3 -31 -33 -31h-119q-25 0 -34 23l-551 1423l-152 -1415q-3 -31 -33 -31h-30q-32 0 -29 31z" />
<glyph unicode="O" d="M86 479l57 541q22 202 163.5 345.5t318.5 143.5h92q116 0 208.5 -65.5t138.5 -177.5q35 -86 35 -185q0 -30 -3 -61l-58 -541q-14 -133 -83.5 -246t-175.5 -179t-222 -66h-92q-116 0 -208.5 66t-138.5 179q-35 87 -35 185q0 30 3 61zM180 485q-4 -31 -3 -61q1 -79 25 -147 q34 -94 107 -147q72 -52 164 -52h4h86q145 3 254.5 118.5t128.5 288.5l55 529q3 31 3 60q0 132 -70 227q-86 116 -229 116h-89q-143 0 -252 -115.5t-128 -287.5z" />
<glyph unicode="P" horiz-adv-x="1116" d="M53 31l66 622l10 92l68 650l8 61q3 31 33 31h487q184 1 280 -111q79 -92 79 -242q0 -31 -3 -65q-22 -195 -141 -305.5t-303 -110.5h-426l-66 -622q-3 -31 -32 -31h-31q-32 0 -29 31zM221 745h434q299 0 334 324q3 33 3 62q0 115 -52 181q-66 83 -215 83h-434z" />
<glyph unicode="Q" horiz-adv-x="1202" d="M8 479l58 541q22 202 163 345.5t318 143.5h92q116 0 208.5 -65.5t138.5 -177.5q35 -87 35 -185q0 -30 -3 -61l-57 -541q-14 -138 -93 -260l131 -147q21 -20 -4 -45l-24 -21q-25 -25 -43 0l-121 135q-67 -72 -152 -112.5t-176 -40.5h-92q-116 0 -208.5 66t-138.5 179 q-35 87 -35 185q0 30 3 61zM102 485q-4 -31 -4 -61q0 -79 26 -147q34 -94 107 -147q72 -52 164 -52h4h86q75 1 143.5 35t121.5 94l-82 90q-16 22 4 45l24 20q25 22 43 0l68 -75q49 88 61 198l56 529q3 31 3 60q0 132 -71 227q-86 116 -229 116h-88q-143 0 -252.5 -116 t-128.5 -287z" />
<glyph unicode="R" horiz-adv-x="1159" d="M45 31l66 622l10 92l67 650l9 61q3 31 32 31h488q184 1 280 -111q79 -92 79 -242q0 -31 -3 -65q-13 -127 -71 -220.5t-152 -143.5q86 -45 128 -133q33 -69 32 -156q0 -25 -2 -51l-37 -334q-2 -14 -11 -22.5t-22 -8.5h-31q-14 0 -21.5 9t-6.5 22l34 342q3 29 3 55 q0 225 -254 225h-459l-66 -622q-3 -31 -33 -31h-30q-32 0 -29 31zM213 745h434q296 0 334 324q3 32 3 62q0 115 -52 181q-66 84 -215 83h-434z" />
<glyph unicode="S" horiz-adv-x="1179" d="M76 387l6 55q3 31 33 31h32q32 0 29 -31l-4 -55q-1 -16 -2 -31q0 -126 82 -202q92 -84 233 -84h76q144 0 252 86.5t125 236.5q2 22 2 42q0 40 -9 73q-14 50 -39 80t-70 53t-83 34t-96 23l-104 21q-95 18 -164.5 45.5t-123.5 71.5q-53 44 -77 112q-16 47 -17 106 q0 25 3 52q18 181 145 292t297 111h109q80 0 152.5 -31.5t125 -86.5t79.5 -137q20 -59 19 -125q0 -24 -2 -50l-4 -32q-3 -31 -32 -31h-33q-32 0 -29 31l4 32q2 23 2 45q0 124 -76 202q-90 92 -229 91h-88q-141 0 -236 -79t-112 -230q-2 -21 -2 -41q0 -37 8 -67 q13 -48 37 -78t66.5 -53t84 -35t99.5 -23l104 -20q72 -15 127.5 -33t109 -50t86.5 -73q34 -41 50 -103q11 -42 10 -90q0 -24 -2 -49q-20 -185 -158.5 -301.5t-314.5 -116.5h-96q-81 0 -155.5 30t-129 82.5t-82.5 130.5q-21 58 -21 122q0 23 3 47z" />
<glyph unicode="T" horiz-adv-x="1136" d="M152 1425l2 31q3 31 32 31h899q32 0 29 -31l-2 -31q-3 -30 -37 -30h-399l-146 -1364q-3 -31 -32 -31h-31q-32 0 -29 31l146 1364h-408q-27 0 -24 30z" />
<glyph unicode="U" horiz-adv-x="1171" d="M86 446l107 1010q3 31 32 31h31q32 0 29 -31l-107 -1020q-4 -30 -4 -58q0 -124 73 -203q89 -97 251 -97h43q162 0 270.5 96.5t128.5 261.5l107 1020q3 31 32 31h31q32 0 29 -31l-107 -1010q-22 -199 -160.5 -329.5t-334.5 -130.5h-54q-195 0 -307 131q-93 109 -94 266 q0 30 4 63z" />
<glyph unicode="V" horiz-adv-x="1222" d="M168 1454q-3 33 29 33h39q29 0 32 -33l281 -1309l553 1309q14 33 41 33h39q34 0 20 -33l-604 -1421q-16 -33 -43 -33h-41q-14 0 -24 9t-11 24z" />
<glyph unicode="W" horiz-adv-x="1900" d="M170 1456q-6 31 27 31h34q32 0 35 -31l180 -1325l519 1325q12 31 41 31h47q31 0 37 -31l237 -1325l459 1325q9 31 37 31h35q33 0 24 -31l-510 -1425q-11 -31 -41 -31h-41q-32 0 -37 31l-237 1323l-520 -1323q-11 -31 -41 -31h-41q-34 0 -37 31z" />
<glyph unicode="X" horiz-adv-x="1110" d="M17.5 8q-5.5 8 2.5 23l484 712l-332 713q-6 15 0.5 23t22.5 8h43q26 0 38 -31l289 -620l420 620q19 31 43 31h43q16 0 21.5 -8t-2.5 -23l-482 -713l330 -712q6 -15 -0.5 -23t-22.5 -8h-43q-26 0 -38 31l-289 620l-420 -620q-19 -31 -43 -31h-43q-16 0 -21.5 8z" />
<glyph unicode="Y" horiz-adv-x="1181" d="M147 1456q-7 14 0 22.5t23 8.5h49q23 0 39 -31l315 -700l469 700q12 17 20.5 24t22.5 7h50q16 0 21.5 -8t-3.5 -23l-545 -803l-65 -622q-3 -31 -33 -31h-31q-31 0 -28 31l65 622z" />
<glyph unicode="Z" horiz-adv-x="1107" d="M27 31l8 61q0 6 8 12l922 1291h-764q-28 0 -25 30l2 31q3 31 33 31h842q31 0 28 -31l-8 -59q0 -9 -6 -15l-924 -1290h764q30 0 27 -31l-4 -30q-3 -31 -33 -31h-842q-31 0 -28 31z" />
<glyph unicode="[" horiz-adv-x="565" d="M43 -113l180 1712q3 31 35 31h238q29 0 26 -31l-2 -30q-3 -31 -35 -31h-176l-168 -1589h178q28 0 25 -31l-2 -31q-3 -30 -35 -30h-237q-30 0 -27 30z" />
<glyph unicode="\" horiz-adv-x="774" d="M78 1456q-9 31 22 31h43q30 0 39 -31l471 -1425q12 -31 -22 -31h-43q-27 0 -39 31z" />
<glyph unicode="]" horiz-adv-x="565" d="M43 -113l2 31q3 31 37 31h174l168 1589h-176q-30 0 -27 31l2 30q3 31 35 31h238q29 0 26 -31l-180 -1712q-3 -30 -35 -30h-237q-30 0 -27 30z" />
<glyph unicode="^" horiz-adv-x="770" d="M127 963l260 493q10 31 43 31h64q28 0 38 -31l154 -493q9 -31 -22 -31h-43q-30 0 -39 31l-131 403l-220 -403q-15 -31 -43 -31h-43q-33 0 -18 31z" />
<glyph unicode="_" d="M27 31l6 30q3 31 33 31h929q14 0 22 -8t7 -23l-6 -30q-3 -31 -33 -31h-930q-31 0 -28 31z" />
<glyph unicode="`" horiz-adv-x="497" d="M197 1602q-14 36 24 36h64q30 0 39 -36l114 -379q4 -17 -2.5 -27t-21.5 -10h-39q-26 0 -39 37z" />
<glyph unicode="a" horiz-adv-x="948" d="M43 279q14 120 101.5 197t213.5 77h377l6 53q3 26 3 50q0 94 -42 153q-52 74 -143 74h-104q-81 0 -131.5 -22.5t-106.5 -72.5q-26 -23 -47 -2l-20 21q-15 18 4 41q70 67 138.5 94t168.5 27h100q127 0 207 -100q65 -82 66 -205q0 -26 -3 -54l-59 -561q0 -23 2 -31 q0 -18 -8 -18h-55q-29 0 -29 41v8l10 90q-67 -66 -130.5 -103.5t-139.5 -37.5h-117h-12q-105 0 -181 80q-70 74 -71 171q0 15 2 30zM131 279q-1 -9 -1 -18q0 -69 48 -120q54 -57 129 -57h115q46 1 87.5 15.5t78 44t60.5 53.5t57 63l22 207h-381q-92 0 -148 -49.5t-67 -138.5 z" />
<glyph unicode="b" horiz-adv-x="966" d="M53 31l152 1425q3 31 33 31h26q32 0 29 -31l-66 -616q52 57 123 90t146 33h63q147 0 237 -112q77 -95 76 -211q0 -21 -2 -42l-24 -252q-15 -137 -133 -241.5t-254 -104.5h-64q-143 0 -243 119l-11 -88q-3 -31 -32 -31h-27q-32 0 -29 31zM160 211q50 -49 122.5 -87 t125.5 -38h61q99 0 188 82t101 184l22 238q2 18 2 35q0 87 -54 163q-65 90 -179 89h-60q-58 0 -122.5 -31t-108 -77t-49.5 -87z" />
<glyph unicode="c" horiz-adv-x="956" d="M55 365l25 233q15 145 141 258t262 113h74q72 0 145.5 -42.5t119.5 -111.5q41 -62 41 -125q0 -7 -1 -14q-6 -31 -37 -31h-24q-15 0 -24.5 6t-8.5 19q1 7 1 15q-1 41 -29 83q-34 50 -87 82.5t-104 32.5h-76q-106 0 -199.5 -85.5t-105.5 -199.5l-23 -233q-2 -17 -2 -33 q1 -92 65 -164q76 -84 183 -84h72q69 0 140.5 40t131.5 103q22 22 43 9l21 -19q24 -17 2 -43q-164 -176 -346 -176h-74q-88 0 -167.5 50t-124.5 136q-36 69 -36 144q0 18 2 37z" />
<glyph unicode="d" horiz-adv-x="991" d="M63 346l25 252q16 142 129 253.5t260 111.5h64q74 0 137.5 -32t105.5 -87l64 612q3 31 33 31h28q32 0 29 -31l-152 -1425q-3 -31 -32 -31h-29q-32 0 -29 31l11 86q-130 -117 -267 -117h-63q-137 0 -233 104q-83 90 -83 206q0 17 2 36zM154 352q-2 -14 -2 -28 q0 -84 62 -156q72 -82 173 -82h59q51 0 128 36.5t141 84.5l51 469v10q0 62 -72 124q-78 67 -166 67h-61q-114 0 -196 -89t-95 -198z" />
<glyph unicode="e" horiz-adv-x="964" d="M55 365l25 233q10 96 73 182.5t154 137.5t182 51h68q58 0 117 -28t106 -76q46 -48 72 -118q19 -53 19 -111q0 -18 -1 -36l-8 -72q-3 -29 -23 -46t-51 -17h-630l-13 -107q-1 -13 -1 -26q0 -94 66 -166q76 -82 185 -82h56q148 0 284 143q23 23 39 6l21 -16q21 -21 2 -43 q-164 -176 -355 -176h-55q-91 0 -172 50t-126 136q-36 69 -36 144q0 18 2 37zM168 551h606l4 39q1 16 1 31q-1 49 -15 93q-20 58 -54.5 93.5t-77 55.5t-83.5 20h-68q-112 0 -204.5 -85t-104.5 -208z" />
<glyph unicode="f" horiz-adv-x="761" d="M100 907l2 25q3 31 33 31h119l16 147q19 172 119.5 274.5t253.5 102.5h135q32 0 29 -31l-2 -24q-3 -31 -37 -31h-135q-119 0 -190 -78.5t-85 -218.5l-14 -141h358q32 0 29 -31l-2 -25q-3 -30 -37 -30h-358l-90 -846q-3 -31 -33 -31h-27q-31 0 -28 31l90 846h-121 q-28 0 -25 30z" />
<glyph unicode="g" horiz-adv-x="1001" d="M53 -262q-14 25 21 37l41 12q12 4 22 -0.5t15 -15.5q28 -48 85 -71.5t130 -23.5h47q59 0 120 22t109 70.5t55 112.5l25 238q-121 -121 -272 -121h-50q-65 0 -130.5 32.5t-113 83.5t-74.5 118q-21 53 -21 106q0 13 1 27l25 233q9 89 68 175t146.5 140t174.5 54h80 q66 0 134 -31t106 -86l10 82q3 31 33 31h30q32 0 29 -31l-111 -1043q-12 -120 -121 -209.5t-264 -89.5h-47q-99 0 -180 38.5t-123 109.5zM152 365q-1 -10 -1 -19q0 -40 17 -82q20 -51 56.5 -90.5t87.5 -64.5t102 -25h47q102 0 270 121l53 485q1 6 1 12q0 67 -72 120 q-78 59 -172 59h-70q-103 0 -193.5 -89.5t-101.5 -193.5z" />
<glyph unicode="h" horiz-adv-x="1019" d="M59 31l152 1425q3 31 33 31h28q32 0 29 -31l-68 -622q67 72 142.5 100.5t173.5 28.5h26q155 0 239 -101q71 -86 71 -210q0 -22 -2 -46l-62 -575q-3 -31 -33 -31h-26q-32 0 -29 31l62 571q2 19 2 38q0 97 -54 161q-64 76 -192 76h-59q-94 0 -180 -62.5t-95 -142.5 l-67 -641q-3 -31 -33 -31h-29q-32 0 -29 31z" />
<glyph unicode="i" horiz-adv-x="344" d="M53 31l97 903q3 31 32 31h27q32 0 29 -31l-97 -903q-3 -31 -32 -31h-27q-32 0 -29 31zM201 1384l8 72q3 31 33 31h20q32 0 29 -31l-10 -72q-3 -30 -31 -30h-21q-31 0 -28 30z" />
<glyph unicode="j" horiz-adv-x="444" d="M-49 -319q-6 25 22 34q62 21 115 71.5t59 107.5l111 1040q3 31 33 31h18q32 0 29 -31l-109 -1032q-9 -78 -75.5 -156t-157.5 -113q-34 -9 -37 21zM303 1384l10 72q3 31 33 31h19q31 0 28 -31l-8 -72q-3 -30 -33 -30h-20q-32 0 -29 30z" />
<glyph unicode="k" horiz-adv-x="960" d="M72 31l151 1425q3 31 33 31h27q31 0 28 -31l-104 -991l579 473q33 25 48 25h43q10 0 16.5 -10t3 -26.5t-19.5 -29.5l-431 -344l392 -508q14 -13 9.5 -29t-24.5 -16h-37q-30 0 -53 29l-364 471l-172 -133l-37 -336q-3 -31 -33 -31h-27q-31 0 -28 31z" />
<glyph unicode="l" horiz-adv-x="346" d="M53 31l152 1425q3 31 33 31h26q32 0 29 -31l-152 -1425q-3 -31 -32 -31h-27q-32 0 -29 31z" />
<glyph unicode="m" horiz-adv-x="1677" d="M45 31l96 901q3 31 33 31h27q31 0 28 -31l-10 -98q68 73 138 101t167 28h25q97 0 170.5 -48t111.5 -127q144 175 365 175h27q99 0 176 -52t113 -136q28 -66 29 -138q0 -20 -3 -41l-59 -565q-3 -31 -33 -31h-27q-31 0 -28 31l59 565q2 18 2 34q0 96 -54 166 q-63 82 -186 81h-63q-94 0 -180 -62.5t-95 -142.5l-67 -641q-3 -31 -33 -31h-29q-31 0 -28 31l59 565q2 20 2 40q0 92 -52 160q-62 82 -185 81h-64q-94 0 -180.5 -62.5t-93.5 -142.5l-70 -641q-3 -31 -33 -31h-26q-32 0 -29 31z" />
<glyph unicode="n" horiz-adv-x="1024" d="M59 31l97 901q3 31 32 31h27q32 0 29 -31l-13 -98q67 72 142.5 100.5t173.5 28.5h26q155 0 239 -101q72 -87 73 -213q0 -21 -2 -43l-64 -575q-3 -31 -33 -31h-26q-32 0 -29 31l62 571q2 20 2 38q1 97 -53 161q-64 76 -193 76h-60q-93 0 -179 -62.5t-93 -142.5l-70 -641 q-3 -31 -32 -31h-27q-32 0 -29 31z" />
<glyph unicode="o" horiz-adv-x="980" d="M55 391l17 182q19 157 139 276.5t272 119.5h78q99 0 178 -56q79 -55 117 -147q29 -70 30 -146q0 -23 -3 -47l-17 -182q-17 -157 -137 -275t-270 -118h-78q-101 0 -181 55t-118 145q-30 70 -29 148q0 22 2 45zM143 391q-2 -18 -1 -36q0 -101 58 -179q70 -92 191 -92h78 q117 0 206 92t103 215l17 182q2 20 2 40q0 98 -58 176q-70 94 -188 94h-78q-119 0 -208 -93.5t-103 -216.5z" />
<glyph unicode="p" horiz-adv-x="1009" d="M53 -379l140 1311q3 31 32 31h27q32 0 29 -31l-11 -90q52 55 123.5 88t145.5 33h63q146 0 236 -112q77 -95 77 -211q0 -21 -2 -42l-24 -252q-15 -137 -133 -241.5t-254 -104.5h-64q-147 0 -243 119l-54 -498q-3 -31 -32 -31h-27q-32 0 -29 31zM205 211q51 -49 122 -87 t124 -38h61q99 0 188 82t101 184l22 238q2 18 2 35q0 88 -54 163q-65 89 -179 89h-60q-88 0 -177.5 -64.5t-98.5 -128.5z" />
<glyph unicode="q" horiz-adv-x="993" d="M61 346l25 252q16 142 129 253.5t260 111.5h64q74 0 137.5 -32t105.5 -87l9 88q3 31 32 31h29q32 0 29 -31l-140 -1311q-3 -31 -32 -31h-29q-32 0 -29 31l54 496q-130 -117 -267 -117h-63q-137 0 -233 104q-83 91 -83 206q0 17 2 36zM152 352q-2 -14 -2 -28 q0 -85 62 -156q72 -82 173 -82h59q52 0 128.5 36t142.5 85l49 469v10q0 62 -72 124q-77 67 -166 67h-61q-114 0 -196 -89t-95 -198z" />
<glyph unicode="r" horiz-adv-x="821" d="M53 31l97 901q3 31 32 31h27q32 0 29 -31l-11 -94q117 125 260 125h70q130 0 223 -103q22 -22 -4 -45l-18 -14q-25 -25 -43 0q-28 33 -68.5 54.5t-81.5 21.5h-82q-94 0 -179.5 -61t-92.5 -134l-70 -651q-3 -31 -32 -31h-27q-32 0 -29 31z" />
<glyph unicode="s" horiz-adv-x="958" d="M61 280q10 9 25 9h37q12 0 18.5 -8t3.5 -21v-2q-1 -80 73 -130q74 -52 171 -52h47q76 0 139.5 18.5t110 63t53.5 108.5q1 9 1 18q0 85 -79 117q-43 18 -173 31q-18 3 -31 4q-70 8 -119 18.5t-98 30t-77 47t-43 71.5q-11 31 -11 70q0 15 2 32q9 85 65 146.5t137 90.5 t176 29h58q82 0 156.5 -36.5t120.5 -106.5q41 -61 40 -133v-19q-3 -17 -10 -25t-23 -8h-34q-13 0 -22.5 7t-6.5 18q1 13 1 25q0 77 -60 131q-70 62 -166 61h-58q-268 0 -286 -180q-1 -10 -1 -19q0 -28 10 -52q12 -30 32.5 -48.5t60.5 -32t74 -20t90 -13.5q54 -6 87 -11 t78 -15t71.5 -21t55.5 -30t43 -43q15 -22 23 -56q5 -22 5 -49q0 -13 -1 -27q-9 -85 -70 -150t-146.5 -96.5t-178.5 -31.5h-53q-129 0 -229 78q-100 77 -99 188q0 15 10 24z" />
<glyph unicode="t" horiz-adv-x="583" d="M80 907l2 23q3 33 33 33h110l23 213q3 30 35 30h26q30 0 27 -30l-23 -213h160q34 0 31 -31l-2 -25q-3 -30 -37 -30h-160l-65 -619q-1 -12 -1 -22q-1 -28 7 -52q10 -32 27.5 -48t43 -26.5t44 -13.5t38.5 -4q15 0 23.5 -5.5t7.5 -18.5l-4 -39q-3 -33 -27 -33h-13 q-41 0 -80 11q-45 13 -83 43q-37 30 -57 84q-14 39 -14 86q0 19 2 40l63 617h-113q-27 0 -24 30z" />
<glyph unicode="u" horiz-adv-x="952" d="M55 356l62 576q3 31 33 31h28q32 0 29 -31l-62 -572q-2 -20 -2 -38q-1 -96 53 -160q64 -76 193 -76h57q95 0 181.5 62.5t93.5 142.5l70 641q3 31 32 31h27q32 0 29 -31l-97 -901q-3 -31 -32 -31h-27q-32 0 -29 31l11 100q-68 -72 -143 -101.5t-173 -29.5h-24 q-157 0 -241 100q-72 85 -71 211q0 22 2 45z" />
<glyph unicode="v" horiz-adv-x="868" d="M53 928q-3 17 5 26t24 9h35q27 0 33 -35l200 -776l363 776q12 20 19.5 27.5t21.5 7.5h37q16 0 22 -9t-2 -26l-412 -895q-17 -33 -43 -33h-43q-24 0 -34 33z" />
<glyph unicode="w" horiz-adv-x="1425" d="M102 928q-3 35 29 35h35q30 0 33 -35l123 -778l350 778q18 35 41 35h45q26 0 33 -35l186 -778l287 778q15 35 41 35h34q16 0 22 -9t-1 -26l-334 -895q-16 -33 -43 -33h-41q-28 0 -35 33l-188 774l-348 -774q-17 -33 -43 -33h-41q-28 0 -35 33z" />
<glyph unicode="x" horiz-adv-x="899" d="M6.5 11q-5.5 11 7.5 26l355 452l-252 437q-9 15 -2 26t26 11h35q26 0 43 -35l213 -367l285 367q28 35 51 35h35q18 0 21.5 -11t-7.5 -26l-340 -437l260 -452q8 -15 1 -26t-27 -11h-33q-24 0 -43 35l-221 387l-297 -387q-30 -35 -51 -35h-35q-19 0 -24.5 11z" />
<glyph unicode="y" horiz-adv-x="989" d="M94 926q-5 16 1 26.5t22 10.5h39q29 0 39 -35l237 -756l397 756q19 35 50 35h36q33 0 15 -37l-680 -1301q-19 -35 -49 -35h-37q-36 0 -17 37l224 424z" />
<glyph unicode="z" horiz-adv-x="913" d="M12 31l4 45q2 12 15 28l708 773h-608q-28 0 -25 30l3 23q3 33 32 33h678q34 0 31 -31l-6 -53q0 -8 -13 -25l-704 -768h602q32 0 29 -31l-4 -24q-3 -31 -33 -31h-680q-32 0 -29 31z" />
<glyph unicode="{" horiz-adv-x="768" d="M139 721q-12 24 4 45l105 113q15 15 18 36l35 330q19 173 120.5 279t254.5 106h22q30 0 27 -31l-2 -30q-3 -31 -35 -31h-43q-104 0 -170 -69.5t-78 -192.5l-41 -381q-3 -22 -18 -37l-100 -115l77 -114q11 -22 9 -37l-41 -381q-11 -124 40.5 -193t155.5 -69h43 q28 0 25 -31l-2 -31q-3 -30 -35 -30h-23q-153 0 -232 106t-60 279l34 329q3 18 -10 37z" />
<glyph unicode="|" horiz-adv-x="419" d="M45 -379l209 1987q3 30 35 30h30q30 0 27 -30l-209 -1987q-3 -31 -33 -31h-30q-32 0 -29 31z" />
<glyph unicode="}" horiz-adv-x="768" d="M43 -113l2 31q3 31 37 31h43q104 0 170 69.5t76 192.5l41 381q3 21 16 37l102 114l-75 115q-13 20 -11 37l41 381q12 123 -39 192.5t-155 69.5h-43q-30 0 -27 31l2 30q3 31 35 31h23q153 0 232 -106t60 -279l-34 -330q-2 -17 10 -36l80 -113q12 -24 -4 -45l-105 -113 q-15 -15 -18 -37l-35 -329q-19 -173 -120.5 -279t-254.5 -106h-22q-30 0 -27 30z" />
<glyph unicode="~" horiz-adv-x="1058" d="M106 745q-10 23 25 46q214 143 414 6q95 -63 169.5 -61.5t192.5 73.5q18 14 33 -16l14 -35q10 -22 -24 -45q-211 -147 -416 -6q-95 63 -169 61t-191 -74q-22 -15 -33 17z" />
<glyph unicode="&#xa1;" horiz-adv-x="415" d="M43 -379l117 1114q6 31 35 31h30q33 0 27 -31l-117 -1114q-3 -31 -33 -31h-30q-32 0 -29 31zM182 1014l4 33q3 30 33 30h47q32 0 29 -30l-4 -33q-3 -31 -35 -31h-47q-30 0 -27 31z" />
<glyph unicode="&#xa2;" horiz-adv-x="968" d="M55 365l25 233q15 137 130 247t247 122l22 227q3 31 35 31h61q30 0 27 -31l-22 -225q109 -11 199 -101t83 -192q-6 -31 -37 -31h-24q-15 0 -24.5 6t-8.5 19q9 69 -56.5 135.5t-142.5 75.5l-82 -795q125 11 248 141q22 22 43 9l21 -19q24 -17 2 -43q-150 -166 -324 -176 l-24 -229q-3 -31 -35 -31h-62q-29 0 -26 31l24 231q-83 7 -155.5 58t-113 134t-30.5 173zM145 365q-12 -105 54.5 -186.5t165.5 -92.5l81 795q-100 -11 -183 -94t-95 -189z" />
<glyph unicode="&#xa3;" horiz-adv-x="1253" d="M102 715l2 30q3 31 33 31h174q-1 6 -10.5 43t-12.5 51t-9 44.5t-9 56.5t-4 53q-2 96 38 187t105.5 156t151 104.5t170.5 39.5h74q109 0 200.5 -65.5t139.5 -175t37 -232.5q-3 -30 -33 -30h-31q-16 0 -24 7.5t-7 22.5q15 151 -71.5 266t-218.5 115h-74q-145 0 -255 -118 t-103 -277q2 -27 5 -53.5t9 -55.5t10 -45.5t12.5 -50.5t10.5 -43h376q32 0 29 -31l-2 -30q-3 -31 -35 -31h-350q10 -67 2 -123q-44 -246 -143 -424q65 26 124 31t110.5 -7.5t113.5 -41.5q99 -41 176 -38.5t188 48.5q13 6 21.5 -5t3.5 -26l-2 -37q-1 -14 -7.5 -18.5 t-27.5 -11.5q-112 -45 -199 -44.5t-186 44.5q-105 44 -184.5 35.5t-198.5 -68.5q-15 -7 -45 28t-22 50q83 165 120.5 262.5t57.5 222.5q8 56 -2 123h-201q-30 0 -27 31z" />
<glyph unicode="&#xa4;" horiz-adv-x="1155" d="M72 35q-19 23 4 43l108 94q-53 100 -41 219l17 182q15 121 88 218l-84 96q-24 21 4 43l22 20q25 21 43 0l80 -86q120 105 258 105h78q136 0 232 -103l84 84q23 23 43 0l18 -20q18 -21 -4 -43l-92 -92q56 -105 41 -222l-17 -182q-12 -124 -96 -229l78 -84q19 -23 -4 -43 l-23 -23q-25 -22 -43 0l-75 80q-115 -94 -244 -94h-78q-140 0 -236 102l-98 -88q-25 -22 -43 0zM231 391q-8 -82 25 -164l53 -59l-8 -8q70 -76 178 -76h78q117 0 206 92t103 215l17 182q14 122 -56 216t-188 94h-78q-107 0 -192 -78l8 -10l-68 -60q-50 -74 -59 -162z" />
<glyph unicode="&#xa5;" horiz-adv-x="1177" d="M69.5 1479q6.5 8 22.5 8h49q23 0 39 -31l316 -700l469 700q12 17 20.5 24t22.5 7h49q16 0 21.5 -8t-3.5 -23l-545 -803l-10 -90h443q33 0 30 -31l-4 -36q-3 -31 -35 -31h-444l-12 -125h442q32 0 29 -31l-6 -35q-3 -30 -31 -30h-445l-22 -213q-3 -31 -33 -31h-31 q-31 0 -28 31l22 213h-237q-15 0 -23.5 7.5t-7.5 22.5l6 35q3 31 33 31h240l12 125h-238q-29 0 -26 31l4 36q3 31 30 31h240l10 90l-368 803q-7 15 -0.5 23z" />
<glyph unicode="&#xa6;" horiz-adv-x="419" d="M61 -236l70 662q3 31 33 31h31q31 0 28 -31l-69 -662q-3 -30 -35 -30h-31q-30 0 -27 30zM170 803l70 661q3 31 34 31h31q30 0 27 -31l-70 -661q-3 -31 -35 -31h-30q-30 0 -27 31z" />
<glyph unicode="&#xa7;" horiz-adv-x="1241" d="M66 6l6 60q3 30 34 30h33q30 0 27 -30l-4 -60q-10 -147 77.5 -235t223.5 -88h94q91 0 171 37.5t135 113.5t65 176q11 105 -31 172l-6 -6l-45 66q-71 54 -213 82l-105 20q-92 18 -161.5 46t-123.5 72.5t-78 111t-15 153.5q18 152 110 258q-73 92 -59 234q20 179 148 292 t298 113h107q80 0 153 -32.5t125.5 -88.5t79.5 -137.5t16 -173.5l-4 -39q-3 -31 -34 -31h-33q-30 0 -27 31l4 39q8 77 -12 142t-61 107.5t-97 66.5t-119 24h-106q-139 0 -235 -82t-111 -229q-7 -73 12.5 -127.5t64 -88.5t96 -53.5t122.5 -33.5l104 -21q71 -15 127 -33.5 t109 -50t86 -73t50 -102t9 -136.5q-17 -142 -108 -254q70 -88 55 -236q-12 -121 -82.5 -219t-173.5 -150.5t-217 -52.5h-94q-82 0 -156.5 31t-128.5 85t-82.5 132.5t-19.5 167.5zM242 729q-6 -59 7 -105t37.5 -76t67 -52.5t84.5 -35t101 -24.5l104 -20q165 -34 262 -107 q64 80 76 193q7 63 -7 111.5t-39.5 79t-69.5 54t-84 35.5t-97 23l-102 20q-169 32 -260 103q-68 -81 -80 -199z" />
<glyph unicode="&#xa8;" horiz-adv-x="1005" d="M190 1382l9 74q3 31 32 31h64q32 0 29 -31l-9 -74q-3 -30 -32 -30h-64q-32 0 -29 30zM825 1382l11 74q3 31 32 31h62q31 0 28 -31l-8 -74q-3 -30 -32 -30h-64q-32 0 -29 30z" />
<glyph unicode="&#xa9;" horiz-adv-x="1267" d="M94 459l58 569q14 131 90.5 243.5t186.5 176t224 63.5h121q85 0 163 -38t134 -102t85 -154.5t18 -188.5l-60 -569q-14 -131 -90.5 -244t-187 -177.5t-224.5 -64.5h-120q-114 0 -210.5 64.5t-149 177.5t-38.5 244zM197 463q-18 -165 73.5 -278t227.5 -113h131 q88 0 171.5 50t142.5 141t71 200l57 561q18 165 -74 278t-229 113h-129q-89 0 -172.5 -50t-142 -141t-70.5 -200zM330 524l45 439q14 129 93 213t191 84h64q103 0 164 -82.5t49 -200.5q0 -9 -2.5 -10.5t-10.5 -1.5h-5h-68q-25 0 -25 18q11 84 -16.5 124t-97.5 40h-66 q-75 0 -112.5 -41.5t-47.5 -138.5l-47 -449q-11 -94 18.5 -138t104.5 -44h66q70 0 106 41.5t45 128.5q0 18 23 18h67q21 0 21 -14q-14 -119 -93.5 -201t-183.5 -82h-63q-110 0 -171.5 84t-47.5 213z" />
<glyph unicode="&#xaa;" horiz-adv-x="653" d="M141 1122q7 73 65.5 117.5t143.5 44.5h182q10 123 -90 123h-53q-98 0 -156 -51q-20 -16 -30 0l-17 26q-11 14 2 27q84 78 205 78h49q78 0 124 -61t38 -146l-31 -287v-18q2 -3 0 -7.5t-6 -4.5h-47q-21 0 -18 30l2 23q-75 -53 -158 -53h-31q-77 0 -129 42.5t-45 116.5z M217 1122q-5 -46 25.5 -63t83.5 -17h30q57 0 90 16.5t68 49.5l10 96h-182q-116 0 -125 -82z" />
<glyph unicode="&#xab;" horiz-adv-x="1189" d="M86 496l8 61q1 11 4 16t14.5 12t16.5 11l414 293q15 10 27 4t10 -21l-9 -88q0 -4 -1.5 -7.5t-3 -6t-4.5 -5.5l-5 -5t-6.5 -5t-7 -4.5t-8.5 -5.5l-9 -6l-299 -213l256 -211q5 -5 13 -11.5t11.5 -10.5t6.5 -10t2 -13l-10 -90q-2 -15 -13.5 -20.5t-25.5 4.5l-352 295 q-4 4 -11 8.5t-10.5 7t-6 8t-1.5 13.5zM600 496l6 61q1 11 4 16t14.5 12t16.5 11l414 293q15 10 27 4t10 -21l-9 -88q0 -5 -2.5 -9.5t-4.5 -7.5t-7 -7.5t-8 -6t-10.5 -7t-10.5 -7.5l-301 -213l256 -211q3 -3 13 -11t12.5 -11t5.5 -9.5t2 -13.5l-10 -90q-2 -15 -13.5 -20.5 t-25.5 4.5l-352 295q-3 3 -13 9.5t-12.5 11.5t-1.5 16z" />
<glyph unicode="&#xac;" horiz-adv-x="1052" d="M115 662l2 30q3 31 35 31h745q30 0 27 -31l-2 -30l-2 -9l-37 -364q-3 -31 -35 -31h-31q-29 0 -26 31l34 342h-682q-31 0 -28 31z" />
<glyph unicode="&#xad;" horiz-adv-x="888" d="M41 504l2 31q3 30 35 30h540q30 0 27 -30l-2 -31q-3 -31 -35 -31h-540q-30 0 -27 31z" />
<glyph unicode="&#xae;" horiz-adv-x="1267" d="M94 459l58 569q14 131 90.5 243.5t186.5 176t224 63.5h121q85 0 163 -38t134 -102t85 -154.5t18 -188.5l-60 -569q-14 -131 -90.5 -244t-187 -177.5t-224.5 -64.5h-120q-114 0 -210.5 64.5t-149 177.5t-38.5 244zM197 463q-18 -165 73.5 -278t227.5 -113h131 q88 0 171.5 50t142.5 141t71 200l57 561q18 165 -74 278t-229 113h-129q-89 0 -172.5 -50t-142 -141t-70.5 -200zM332 313l90 842q1 23 20.5 40t42.5 17h232q111 0 167.5 -72t43.5 -196q-15 -139 -111 -219q77 -71 62 -207l-23 -205q-2 -14 -11.5 -24t-21.5 -10h-45 q-12 0 -19 10t-5 24l20 203q8 86 -12.5 120t-99.5 34h-183l-39 -357q-1 -15 -10.5 -24.5t-21.5 -9.5h-52q-27 0 -24 34zM492 778h182q87 0 115 38t36 132q7 56 3 90.5t-30.5 50t-86.5 15.5h-185z" />
<glyph unicode="&#xaf;" horiz-adv-x="1011" d="M217 1425l2 31q3 31 33 31h663q14 0 22 -8t7 -23l-2 -31q-3 -30 -37 -30h-663q-28 0 -25 30z" />
<glyph unicode="&#xb0;" horiz-adv-x="923" d="M209 1165l2 23q14 133 98.5 216t214.5 83h31q128 0 197 -83.5t55 -215.5l-2 -23q-14 -132 -101 -215.5t-215 -83.5h-30q-130 0 -197 83t-53 216zM313 1167q-11 -94 29.5 -145t132.5 -51h29q179 0 201 196l2 19q16 198 -160 198h-29q-92 0 -143.5 -51.5t-59.5 -146.5z" />
<glyph unicode="&#xb1;" horiz-adv-x="1052" d="M47 31l6 30q3 31 33 31h748q29 0 26 -31l-6 -30q-3 -31 -33 -31h-745q-32 0 -29 31zM111 637l4 31q3 30 35 30h329l37 357q3 30 35 30h31q29 0 26 -30l-37 -357h326q28 0 25 -30l-4 -31q-3 -31 -33 -31h-324l-37 -360q-9 -31 -35 -31h-30q-16 0 -23.5 8.5t-3.5 22.5 l37 360h-330q-31 0 -28 31z" />
<glyph unicode="&#xb2;" horiz-adv-x="655" d="M123 1290v27q0 68 51.5 119t124.5 51h51q79 0 129.5 -61t50.5 -136q0 -55 -33 -103.5t-98 -113.5l-104 -104l207 4q30 0 30 -31v-59q0 -31 -30 -31h-344q-31 0 -31 31v49q0 18 4.5 32t8.5 19.5t19.5 21t22.5 23.5l144 154q8 8 25 24t27 26t19 26t9 32q0 33 -24 56.5 t-60 23.5q-32 0 -54 -19t-22 -46v-15q0 -30 -31 -30h-61q-31 0 -31 30z" />
<glyph unicode="&#xb3;" horiz-adv-x="653" d="M129 1024v27q0 30 31 30h61q31 0 31 -30v-15q0 -27 22 -46t54 -19q38 0 61 19t23 52q0 32 -22 54t-56 22h-47q-31 0 -31 31v45q0 31 31 31h47q34 0 56 21.5t22 53.5q0 33 -23.5 52.5t-60.5 19.5q-32 0 -54 -19t-22 -46v-15q0 -30 -31 -30h-61q-31 0 -31 30v27 q0 68 51.5 119t124.5 51h51q80 0 130.5 -56t50.5 -130q0 -69 -70 -132q70 -63 70 -131q0 -74 -50.5 -130t-130.5 -56h-51q-73 0 -124.5 51t-51.5 119z" />
<glyph unicode="&#xb4;" horiz-adv-x="491" d="M153 1196q-5 10 5 27l192 379q14 36 47 36h60q36 0 16 -36l-217 -379q-14 -20 -23.5 -28.5t-23.5 -8.5h-35q-16 0 -21 10z" />
<glyph unicode="&#xb6;" horiz-adv-x="1153" d="M137 1069q20 195 139.5 306.5t303.5 111.5h485q32 0 29 -31l-152 -1425q-3 -31 -33 -31h-30q-32 0 -29 31l65 622h-149l-66 -622q-3 -31 -32 -31h-31q-32 0 -29 31l66 622h-182q-185 0 -281 110.5t-74 305.5zM229 1069q-35 -324 267 -324h188l70 650h-189 q-300 0 -336 -326zM776 745h150l69 650h-149z" />
<glyph unicode="&#xb7;" horiz-adv-x="327" d="M86 580l8 84q3 30 33 30h61q32 0 29 -30l-8 -84q-3 -31 -37 -31h-59q-30 0 -27 31z" />
<glyph unicode="&#xb8;" horiz-adv-x="679" d="M39 -242q3 21 20 21h66q8 0 14 -5t6 -12q-3 -36 19.5 -51.5t75.5 -15.5h22q71 0 83 6q18 7 22 37q3 38 -37.5 50t-192.5 28q-10 1 -21.5 7t-21 20.5t-11 34t13 51t46.5 69.5q13 16 25 16h70q9 0 12 -5t-2 -11q-23 -27 -32 -47t-7.5 -30.5t13.5 -17.5t22.5 -9t29.5 -4 q6 -1 9 -1q11 -2 34 -4q30 -3 45 -5.5t38.5 -8.5t34.5 -15t23 -24t15 -37.5t0 -52.5q-9 -78 -54 -117t-140 -39h-76q-85 0 -127.5 47t-36.5 125z" />
<glyph unicode="&#xb9;" horiz-adv-x="618" d="M246 885v571q0 31 30 31h66q31 0 31 -31v-571q0 -31 -31 -31h-66q-30 0 -30 31z" />
<glyph unicode="&#xba;" horiz-adv-x="663" d="M47 219l10 88q8 87 75.5 152t154.5 65h45q85 0 138.5 -64.5t45.5 -152.5l-10 -88q-9 -90 -76.5 -154.5t-153.5 -64.5h-45q-87 0 -140 64.5t-44 154.5zM125 215q-5 -58 26 -98.5t89 -40.5h43q56 0 99 41.5t48 97.5l10 96q5 57 -28.5 97.5t-89.5 40.5h-43 q-58 0 -97.5 -40.5t-44.5 -97.5z" />
<glyph unicode="&#xbb;" horiz-adv-x="1189" d="M53 180l10 90q0 4 1 7.5t3.5 7t4.5 6t6.5 6t7 5t9 6.5t9.5 7l304 211l-261 213q-13 11 -16.5 15t-8 12.5t-3.5 17.5l8 88q2 15 13.5 21t23.5 -4l356 -293q4 -4 13.5 -11t12 -12t1.5 -16l-8 -61q-1 -8 -4 -13.5t-5.5 -8t-10.5 -7.5t-13 -8l-418 -295q-13 -10 -25 -4.5 t-10 20.5zM565 180l10 90q0 4 1 7.5t3.5 7t4.5 6t6.5 6t7 5t9 6.5t9.5 7l304 211l-258 213q-14 11 -18.5 15t-9 12.5t-3.5 17.5l8 88q2 15 13.5 21t23.5 -4l356 -293q4 -4 13.5 -11t12 -12t1.5 -16l-6 -61q-1 -8 -4 -13.5t-6.5 -8t-11.5 -7t-13 -8.5l-418 -295 q-13 -10 -25 -4.5t-10 20.5z" />
<glyph unicode="&#xbc;" horiz-adv-x="1511" d="M211 8q-6 8 2 23l827 1425q10 17 18.5 24t22.5 7h86q16 0 22.5 -8t-1.5 -23l-828 -1425q-10 -17 -18.5 -24t-22.5 -7h-86q-16 0 -22 8zM246 885v571q0 31 30 31h66q31 0 31 -31v-571q0 -31 -31 -31h-66q-30 0 -30 31zM946 209q0 8 8 24l217 388q7 14 29 14h98 q31 0 31 -31v-362h29q31 0 31 -31v-61q0 -31 -31 -31h-29v-88q0 -31 -31 -31h-61q-31 0 -31 31v88h-223q-28 0 -31 31zM1102 246h104v205z" />
<glyph unicode="&#xbd;" horiz-adv-x="1478" d="M211 8q-6 8 2 23l827 1425q10 17 18.5 24t22.5 7h86q16 0 22.5 -8t-1.5 -23l-828 -1425q-10 -17 -18.5 -24t-22.5 -7h-86q-16 0 -22 8zM246 885v571q0 31 30 31h66q31 0 31 -31v-571q0 -31 -31 -31h-66q-30 0 -30 31zM946 438v27q0 68 51.5 119t124.5 51h52 q79 0 129.5 -61t50.5 -136q0 -55 -33 -103.5t-98 -113.5l-105 -104l207 4q31 0 31 -31v-59q0 -31 -31 -31h-344q-31 0 -31 31v49q0 18 4.5 32t9 20t19.5 20.5t23 23.5l143 154q8 8 25 24t27 26t19 26t9 32q0 33 -24 56.5t-60 23.5q-32 0 -54 -19t-22 -46v-15q0 -30 -31 -30 h-61q-31 0 -31 30z" />
<glyph unicode="&#xbe;" horiz-adv-x="1546" d="M123 1024v27q0 30 31 30h61q31 0 31 -30v-15q0 -27 22 -46t54 -19q38 0 61 19t23 52q0 32 -22 54t-56 22h-47q-31 0 -31 31v45q0 31 31 31h47q34 0 56 21.5t22 53.5q0 33 -23.5 52.5t-60.5 19.5q-32 0 -54 -19t-22 -46v-15q0 -30 -31 -30h-61q-31 0 -31 30v27 q0 68 51.5 119t124.5 51h51q80 0 130 -56t50 -130q0 -70 -69 -132q69 -62 69 -131q0 -74 -50 -130t-130 -56h-51q-73 0 -124.5 51t-51.5 119zM246 8q-6 8 2 23l827 1425q10 17 18.5 24t22.5 7h86q16 0 22.5 -8t-1.5 -23l-828 -1425q-10 -17 -18.5 -24t-22.5 -7h-86 q-16 0 -22 8zM981 209q0 8 8 24l217 388q7 14 29 14h98q31 0 31 -31v-362h29q30 0 30 -31v-61q0 -31 -30 -31h-29v-88q0 -31 -31 -31h-61q-31 0 -31 31v88h-223q-28 0 -31 31zM1137 246h104v205z" />
<glyph unicode="&#xbf;" horiz-adv-x="1040" d="M-8 -10q10 84 40 152t74.5 113.5t92.5 75t104 48.5q59 20 85.5 30t56 25t40.5 31t20 38.5t13 57.5l17 174q6 31 34 31h31q33 0 27 -31l-17 -164q-12 -108 -63 -165.5t-156 -96.5q-47 -17 -77.5 -29.5t-67 -32t-60 -42t-46.5 -53t-36.5 -71t-19.5 -91.5 q-15 -147 68 -240.5t215 -93.5h86q129 0 228 91.5t116 248.5l4 39q3 31 33 31h32q32 0 29 -31l-4 -39q-17 -182 -151.5 -307t-299.5 -125h-86q-110 0 -197.5 56.5t-132 154.5t-32.5 215zM557 1014l4 33q3 30 33 30h45q32 0 29 -30l-2 -33q-3 -31 -35 -31h-47q-30 0 -27 31z " />
<glyph unicode="&#xc0;" horiz-adv-x="1202" d="M16 33l611 1427q13 33 41 33h45q30 0 37 -33l307 -1427q6 -33 -29 -33h-35q-29 0 -35 33l-86 416h-581l-174 -416q-14 -33 -39 -33h-43q-36 0 -19 33zM326 530h530l-176 848zM512 2126q-15 37 25 37h63q30 0 39 -37l115 -379q4 -17 -3 -27t-22 -10h-39q-26 0 -39 37z" />
<glyph unicode="&#xc1;" horiz-adv-x="1202" d="M16 33l611 1427q13 33 41 33h45q30 0 37 -33l307 -1427q6 -33 -29 -33h-35q-29 0 -35 33l-86 416h-581l-174 -416q-14 -33 -39 -33h-43q-36 0 -19 33zM326 530h530l-176 848zM667 1720q-5 10 5 27l192 379q15 37 47 37h60q37 0 16 -37l-217 -379q-14 -20 -23.5 -28.5 t-23.5 -8.5h-35q-16 0 -21 10z" />
<glyph unicode="&#xc2;" horiz-adv-x="1202" d="M16 33l611 1427q13 33 41 33h45q30 0 37 -33l307 -1427q6 -33 -29 -33h-35q-29 0 -35 33l-86 416h-581l-174 -416q-14 -33 -39 -33h-43q-36 0 -19 33zM326 530h530l-176 848zM357.5 1737q-4.5 13 7.5 26l329 367q26 33 51 33h29q16 0 25.5 -8t19.5 -25l252 -367 q9 -13 2 -26t-22 -13h-58q-6 0 -10.5 1.5t-9.5 7t-7 8t-8 11.5t-8 11l-198 299l-267 -299q-3 -3 -8.5 -9.5t-8.5 -9.5l-8 -8t-8.5 -7t-8 -3.5t-9.5 -1.5h-57q-15 0 -19.5 13z" />
<glyph unicode="&#xc3;" horiz-adv-x="1202" d="M16 33l611 1427q13 33 41 33h45q30 0 37 -33l307 -1427q6 -33 -29 -33h-35q-29 0 -35 33l-86 416h-581l-174 -416q-14 -33 -39 -33h-43q-36 0 -19 33zM326 530h530l-176 848zM373 1950q-10 23 26 45q108 73 181.5 73t173.5 -67q38 -24 56.5 -35t44 -19.5t39.5 -7.5 t41.5 10t52.5 23t69 41q22 14 33 -16l14 -35q10 -22 -25 -45q-108 -75 -182 -75t-174 69q-37 24 -56 35t-44.5 19t-40 7.5t-41.5 -9.5t-51.5 -23.5t-67.5 -41.5q-16 -7 -22 -3t-13 20z" />
<glyph unicode="&#xc4;" horiz-adv-x="1202" d="M16 33l611 1427q13 33 41 33h45q30 0 37 -33l307 -1427q6 -33 -29 -33h-35q-29 0 -35 33l-86 416h-581l-174 -416q-14 -33 -39 -33h-43q-36 0 -19 33zM326 530h530l-176 848zM356 1907l9 73q3 31 32 31h64q31 0 28 -31l-8 -73q-3 -31 -32 -31h-64q-32 0 -29 31zM991 1907 l10 73q3 31 33 31h62q31 0 28 -31l-8 -73q-3 -31 -33 -31h-63q-32 0 -29 31z" />
<glyph unicode="&#xc5;" horiz-adv-x="1202" d="M16 33l611 1427q13 33 41 33h45q30 0 37 -33l307 -1427q6 -33 -29 -33h-35q-29 0 -35 33l-86 416h-581l-174 -416q-14 -33 -39 -33h-43q-36 0 -19 33zM326 530h530l-176 848zM537 1952l2 22q9 82 67.5 136.5t141.5 54.5h26q83 0 130 -54.5t38 -136.5l-2 -22 q-9 -83 -67.5 -136t-141.5 -53h-26q-83 0 -130 53t-38 136zM629 1954q-6 -48 16.5 -73.5t73.5 -25.5h20q102 0 111 99l2 20q6 48 -17 73.5t-73 25.5h-21q-101 0 -110 -99z" />
<glyph unicode="&#xc6;" horiz-adv-x="1822" d="M33.5 8q-5.5 8 1.5 23l786 1425q15 31 41 31h43q20 0 23 -10q10 10 26 10h750q32 0 29 -31l-2 -31q-3 -30 -37 -30h-688l-64 -598h555q32 0 29 -31l-2 -31q-3 -30 -35 -30h-555l-64 -613h689q29 0 26 -31l-4 -30q-3 -31 -33 -31h-749q-32 0 -29 31l43 407h-448l-226 -407 q-15 -31 -41 -31h-43q-16 0 -21.5 8zM416 530h407l99 918z" />
<glyph unicode="&#xc7;" horiz-adv-x="1163" d="M76 465l57 557q14 130 87 243t180 178.5t218 65.5h95q108 0 199 -65.5t140 -175.5t38 -232q-3 -30 -35 -30h-31q-32 0 -29 30q11 99 -26 189t-108.5 144t-155.5 54h-95q-136 0 -251 -119t-134 -282l-57 -557q-17 -163 74 -283.5t227 -120.5h94q85 0 167.5 54t138.5 145 t65 191q3 30 37 30h30q30 0 27 -30q-14 -122 -86 -233t-178 -178t-213 -67h-78q-9 -13 -14.5 -23.5t-6 -18t0 -13.5t6.5 -10t9 -7t13 -5t14 -3t16 -2.5t15 -1.5q12 -2 34 -4q30 -3 45 -5.5t38.5 -8.5t35 -15t23.5 -24t15 -37.5t0 -52.5q-9 -78 -54.5 -117t-140.5 -39h-76 q-84 0 -126.5 47t-36.5 125q3 21 20 21h66q8 0 14 -5t6 -12q-3 -36 19 -51.5t75 -15.5h23q71 0 83 6q17 8 21 37q3 38 -37 50t-192 28q-10 1 -20.5 7t-20 19t-11.5 31t9.5 47t38.5 64q-142 36 -230.5 173.5t-70.5 307.5z" />
<glyph unicode="&#xc8;" horiz-adv-x="1089" d="M74 31l151 1425q3 31 33 31h750q31 0 28 -31l-2 -31q-3 -30 -35 -30h-688l-63 -598h555q31 0 28 -31l-4 -31q-3 -30 -34 -30h-555l-64 -613h688q30 0 27 -31l-4 -30q-3 -31 -33 -31h-750q-31 0 -28 31zM446 2126q-15 37 25 37h64q29 0 38 -37l115 -379q4 -17 -2.5 -27 t-21.5 -10h-39q-26 0 -39 37z" />
<glyph unicode="&#xc9;" horiz-adv-x="1089" d="M74 31l151 1425q3 31 33 31h750q31 0 28 -31l-2 -31q-3 -30 -35 -30h-688l-63 -598h555q31 0 28 -31l-4 -31q-3 -30 -34 -30h-555l-64 -613h688q30 0 27 -31l-4 -30q-3 -31 -33 -31h-750q-31 0 -28 31zM601.5 1720q-5.5 10 4.5 27l193 379q15 37 47 37h59q38 0 17 -37 l-217 -379q-26 -37 -48 -37h-34q-16 0 -21.5 10z" />
<glyph unicode="&#xca;" horiz-adv-x="1089" d="M74 31l151 1425q3 31 33 31h750q31 0 28 -31l-2 -31q-3 -30 -35 -30h-688l-63 -598h555q31 0 28 -31l-4 -31q-3 -30 -34 -30h-555l-64 -613h688q30 0 27 -31l-4 -30q-3 -31 -33 -31h-750q-31 0 -28 31zM291.5 1737q-4.5 13 7.5 26l330 367q26 33 51 33h29q16 0 25.5 -8 t19.5 -25l252 -367q9 -13 1.5 -26t-22.5 -13h-57q-6 0 -10.5 1.5t-9.5 7t-7 8t-8 11.5t-8 11l-199 299l-266 -299q-3 -3 -8.5 -9.5t-8.5 -9.5l-8 -8t-8.5 -7t-8 -3.5t-9.5 -1.5h-58q-15 0 -19.5 13z" />
<glyph unicode="&#xcb;" horiz-adv-x="1089" d="M74 31l151 1425q3 31 33 31h750q31 0 28 -31l-2 -31q-3 -30 -35 -30h-688l-63 -598h555q31 0 28 -31l-4 -31q-3 -30 -34 -30h-555l-64 -613h688q30 0 27 -31l-4 -30q-3 -31 -33 -31h-750q-31 0 -28 31zM291 1907l8 73q3 31 33 31h63q32 0 29 -31l-8 -73q-3 -31 -33 -31 h-64q-31 0 -28 31zM926 1907l10 73q3 31 33 31h61q32 0 29 -31l-8 -73q-3 -31 -33 -31h-64q-31 0 -28 31z" />
<glyph unicode="&#xcc;" horiz-adv-x="350" d="M43 31l152 1425q3 31 32 31h31q32 0 29 -31l-152 -1425q-3 -31 -33 -31h-30q-32 0 -29 31zM63 2126q-15 37 25 37h64q29 0 38 -37l115 -379q4 -17 -2.5 -27t-21.5 -10h-39q-26 0 -39 37z" />
<glyph unicode="&#xcd;" horiz-adv-x="350" d="M43 31l152 1425q3 31 32 31h31q32 0 29 -31l-152 -1425q-3 -31 -33 -31h-30q-32 0 -29 31zM218.5 1720q-5.5 10 4.5 27l193 379q15 37 47 37h59q38 0 17 -37l-217 -379q-26 -37 -48 -37h-34q-16 0 -21.5 10z" />
<glyph unicode="&#xce;" horiz-adv-x="350" d="M-91.5 1737q-4.5 13 7.5 26l330 367q26 33 51 33h29q16 0 25.5 -8t19.5 -25l252 -367q9 -13 1.5 -26t-22.5 -13h-57q-6 0 -10.5 1.5t-9.5 7t-7 8t-8 11.5t-8 11l-199 299l-266 -299q-3 -3 -8.5 -9.5t-8.5 -9.5l-8 -8t-8.5 -7t-8 -3.5t-9.5 -1.5h-58q-15 0 -19.5 13z M43 31l152 1425q3 31 32 31h31q32 0 29 -31l-152 -1425q-3 -31 -33 -31h-30q-32 0 -29 31z" />
<glyph unicode="&#xcf;" horiz-adv-x="350" d="M-92 1907l8 73q3 31 33 31h63q32 0 29 -31l-8 -73q-3 -31 -35 -31h-61q-32 0 -29 31zM43 31l152 1425q3 31 32 31h31q32 0 29 -31l-152 -1425q-3 -31 -33 -31h-30q-32 0 -29 31zM543 1907l10 73q3 31 33 31h61q32 0 29 -31l-8 -73q-3 -31 -33 -31h-64q-31 0 -28 31z" />
<glyph unicode="&#xd0;" horiz-adv-x="1300" d="M96 774l2 31q3 31 35 31h117l65 620q3 31 33 31h33h457q110 0 201.5 -65t139 -176.5t33.5 -239.5l-53 -525q-14 -128 -85.5 -239.5t-176.5 -176.5t-215 -65h-489q-32 0 -29 31l76 712h-117q-30 0 -27 31zM262 92h434q85 0 166.5 54t137.5 146t67 195l53 514 q11 103 -25 194.5t-106 145.5t-155 54h-433l-59 -559h332q29 0 26 -31l-2 -31q-3 -31 -34 -31h-332z" />
<glyph unicode="&#xd1;" horiz-adv-x="1239" d="M43 31l152 1425q3 31 32 31h119q26 0 35 -23l551 -1429l151 1421q3 31 33 31h31q32 0 29 -31l-152 -1425q-3 -31 -33 -31h-119q-25 0 -34 23l-551 1423l-152 -1415q-3 -31 -33 -31h-30q-32 0 -29 31zM371 1950q-10 23 26 45q108 73 181.5 73t173.5 -67q38 -24 56.5 -35 t44 -19.5t39.5 -7.5t41.5 10t52.5 23t69 41q21 14 32 -16l15 -35q10 -22 -25 -45q-108 -75 -182 -75t-174 69q-37 24 -56 35t-44.5 19t-40 7.5t-41.5 -9.5t-51.5 -23.5t-67.5 -41.5q-16 -7 -22 -3t-13 20z" />
<glyph unicode="&#xd2;" d="M86 479l57 541q22 202 163.5 345.5t318.5 143.5h92q116 0 208.5 -65.5t138.5 -178t32 -245.5l-58 -541q-14 -133 -83.5 -246t-175.5 -179t-222 -66h-92q-116 0 -208.5 66t-138.5 179t-32 246zM180 485q-13 -114 21.5 -208t107.5 -147t168 -52h86q145 3 254.5 118.5 t128.5 288.5l55 529q19 171 -67 287t-229 116h-89q-143 0 -252 -115.5t-128 -287.5zM489 2126q-15 37 25 37h64q29 0 38 -37l115 -379q4 -17 -2.5 -27t-21.5 -10h-39q-26 0 -39 37z" />
<glyph unicode="&#xd3;" d="M86 479l57 541q22 202 163.5 345.5t318.5 143.5h92q116 0 208.5 -65.5t138.5 -178t32 -245.5l-58 -541q-14 -133 -83.5 -246t-175.5 -179t-222 -66h-92q-116 0 -208.5 66t-138.5 179t-32 246zM180 485q-13 -114 21.5 -208t107.5 -147t168 -52h86q145 3 254.5 118.5 t128.5 288.5l55 529q19 171 -67 287t-229 116h-89q-143 0 -252 -115.5t-128 -287.5zM644.5 1720q-5.5 10 4.5 27l193 379q15 37 47 37h59q38 0 17 -37l-217 -379q-26 -37 -48 -37h-34q-16 0 -21.5 10z" />
<glyph unicode="&#xd4;" d="M86 479l57 541q22 202 163.5 345.5t318.5 143.5h92q116 0 208.5 -65.5t138.5 -178t32 -245.5l-58 -541q-14 -133 -83.5 -246t-175.5 -179t-222 -66h-92q-116 0 -208.5 66t-138.5 179t-32 246zM180 485q-13 -114 21.5 -208t107.5 -147t168 -52h86q145 3 254.5 118.5 t128.5 288.5l55 529q19 171 -67 287t-229 116h-89q-143 0 -252 -115.5t-128 -287.5zM336.5 1737q-4.5 13 7.5 26l330 367q26 33 51 33h29q16 0 25.5 -8t19.5 -25l252 -367q9 -13 1.5 -26t-22.5 -13h-57q-6 0 -10.5 1.5t-9.5 7t-7 8t-8 11.5t-8 11l-199 299l-266 -299 q-3 -3 -8.5 -9.5t-8.5 -9.5l-8 -8t-8.5 -7t-8 -3.5t-9.5 -1.5h-58q-15 0 -19.5 13z" />
<glyph unicode="&#xd5;" d="M86 479l57 541q22 202 163.5 345.5t318.5 143.5h92q116 0 208.5 -65.5t138.5 -178t32 -245.5l-58 -541q-14 -133 -83.5 -246t-175.5 -179t-222 -66h-92q-116 0 -208.5 66t-138.5 179t-32 246zM180 485q-13 -114 21.5 -208t107.5 -147t168 -52h86q145 3 254.5 118.5 t128.5 288.5l55 529q19 171 -67 287t-229 116h-89q-143 0 -252 -115.5t-128 -287.5zM352 1950q-10 23 27 45q108 73 181 73t173 -67q38 -24 56.5 -35t44 -19.5t39.5 -7.5t41.5 10t52.5 23t69 41q22 14 33 -16l14 -35q10 -22 -24 -45q-108 -75 -182.5 -75t-174.5 69 q-37 24 -56 35t-44.5 19t-40 7.5t-41.5 -9.5t-51.5 -23.5t-67.5 -41.5q-16 -7 -21.5 -3t-12.5 20z" />
<glyph unicode="&#xd6;" d="M86 479l57 541q22 202 163.5 345.5t318.5 143.5h92q116 0 208.5 -65.5t138.5 -178t32 -245.5l-58 -541q-14 -133 -83.5 -246t-175.5 -179t-222 -66h-92q-116 0 -208.5 66t-138.5 179t-32 246zM180 485q-13 -114 21.5 -208t107.5 -147t168 -52h86q145 3 254.5 118.5 t128.5 288.5l55 529q19 171 -67 287t-229 116h-89q-143 0 -252 -115.5t-128 -287.5zM334 1907l8 73q3 31 33 31h63q32 0 29 -31l-8 -73q-3 -31 -33 -31h-64q-31 0 -28 31zM969 1907l10 73q3 31 33 31h61q32 0 29 -31l-8 -73q-3 -31 -33 -31h-64q-31 0 -28 31z" />
<glyph unicode="&#xd7;" horiz-adv-x="813" d="M72 387q-18 21 4 43l258 234l-203 227q-18 21 4 43l25 20q22 22 43 0l203 -227l256 231q22 22 40 -2l23 -18q17 -25 -8 -47l-254 -229l205 -230q22 -19 -4 -41l-25 -22q-23 -21 -41 0l-205 229l-256 -233q-29 -21 -47 0z" />
<glyph unicode="&#xd8;" d="M86 479l57 541q22 202 163.5 345.5t318.5 143.5h92q119 0 213 -69l8 16q16 31 43 31h43q15 0 20 -8t-2 -23l-45 -82q56 -67 82.5 -159t16.5 -195l-58 -541q-14 -133 -83.5 -246t-175.5 -179t-222 -66h-92q-105 0 -191 55l-6 -12q-19 -31 -43 -31h-43q-16 0 -21 8t3 23 l39 71q-66 69 -97.5 167t-19.5 210zM180 485q-21 -179 70 -297l633 1168q-77 61 -178 61h-89q-143 0 -252 -115.5t-128 -287.5zM319 125q68 -47 158 -47h86q145 3 254.5 118.5t128.5 288.5l55 529q17 150 -53 268z" />
<glyph unicode="&#xd9;" horiz-adv-x="1171" d="M86 446l107 1010q3 31 32 31h31q32 0 29 -31l-107 -1020q-20 -164 69 -261t251 -97h43q162 0 270.5 96.5t128.5 261.5l107 1020q3 31 32 31h31q32 0 29 -31l-107 -1010q-22 -199 -160.5 -329.5t-334.5 -130.5h-54q-196 0 -307.5 131t-89.5 329zM489 2126q-15 37 25 37h64 q29 0 38 -37l115 -379q4 -17 -2.5 -27t-21.5 -10h-39q-26 0 -39 37z" />
<glyph unicode="&#xda;" horiz-adv-x="1171" d="M86 446l107 1010q3 31 32 31h31q32 0 29 -31l-107 -1020q-20 -164 69 -261t251 -97h43q162 0 270.5 96.5t128.5 261.5l107 1020q3 31 32 31h31q32 0 29 -31l-107 -1010q-22 -199 -160.5 -329.5t-334.5 -130.5h-54q-196 0 -307.5 131t-89.5 329zM644.5 1720 q-5.5 10 4.5 27l193 379q15 37 47 37h59q38 0 17 -37l-217 -379q-26 -37 -48 -37h-34q-16 0 -21.5 10z" />
<glyph unicode="&#xdb;" horiz-adv-x="1171" d="M86 446l107 1010q3 31 32 31h31q32 0 29 -31l-107 -1020q-20 -164 69 -261t251 -97h43q162 0 270.5 96.5t128.5 261.5l107 1020q3 31 32 31h31q32 0 29 -31l-107 -1010q-22 -199 -160.5 -329.5t-334.5 -130.5h-54q-196 0 -307.5 131t-89.5 329zM334.5 1737 q-4.5 13 7.5 26l330 367q26 33 51 33h29q16 0 25.5 -8t19.5 -25l252 -367q9 -13 1.5 -26t-22.5 -13h-57q-6 0 -10.5 1.5t-9.5 7t-7 8t-8 11.5t-8 11l-199 299l-266 -299q-3 -3 -8.5 -9.5t-8.5 -9.5l-8 -8t-8.5 -7t-8 -3.5t-9.5 -1.5h-58q-15 0 -19.5 13z" />
<glyph unicode="&#xdc;" horiz-adv-x="1171" d="M86 446l107 1010q3 31 32 31h31q32 0 29 -31l-107 -1020q-20 -164 69 -261t251 -97h43q162 0 270.5 96.5t128.5 261.5l107 1020q3 31 32 31h31q32 0 29 -31l-107 -1010q-22 -199 -160.5 -329.5t-334.5 -130.5h-54q-196 0 -307.5 131t-89.5 329zM334 1907l8 73q3 31 33 31 h63q32 0 29 -31l-8 -73q-3 -31 -33 -31h-64q-31 0 -28 31zM969 1907l10 73q3 31 33 31h61q32 0 29 -31l-8 -73q-3 -31 -33 -31h-64q-31 0 -28 31z" />
<glyph unicode="&#xdd;" horiz-adv-x="1181" d="M147 1456q-7 14 0 22.5t23 8.5h49q23 0 39 -31l315 -700l469 700q12 17 20.5 24t22.5 7h50q16 0 21.5 -8t-3.5 -23l-545 -803l-65 -622q-3 -31 -33 -31h-31q-31 0 -28 31l65 622zM632 1720q-5 10 5 27l192 379q15 37 48 37h59q37 0 16 -37l-217 -379q-14 -20 -23.5 -28.5 t-23.5 -8.5h-35q-16 0 -21 10z" />
<glyph unicode="&#xde;" horiz-adv-x="1153" d="M57 31l31 295l4 22l74 721l8 70l35 317q3 31 33 31h30q32 0 29 -31l-31 -295h426q184 0 279.5 -111.5t75.5 -306.5t-140 -306t-305 -111h-426l-30 -295q-3 -31 -33 -31h-31q-32 0 -29 31zM190 418h435q302 0 333 325q17 160 -50 243t-218 83h-430z" />
<glyph unicode="&#xdf;" horiz-adv-x="1075" d="M123 1169q0 146 94.5 238t249.5 92h63q155 0 268 -101.5t113 -238.5v-45q0 -83 -51 -164.5t-131 -146.5q52 -31 89.5 -61.5t76 -75.5t58.5 -105t20 -133v-35q0 -107 -70.5 -200t-170 -143t-195.5 -50h-43q-31 0 -31 31v26q0 31 31 31h43q76 0 154.5 37.5t133 108 t54.5 153.5v25q0 72 -34 138t-84.5 110t-108 70t-105.5 26h-53q-31 0 -31 30v27q0 31 31 31h53q96 0 183 88.5t87 187.5v49q0 100 -82.5 171t-204.5 71h-63q-125 0 -185.5 -60.5t-60.5 -170.5l-2 -1149q0 -31 -31 -31h-32q-31 0 -31 31z" />
<glyph unicode="&#xe0;" horiz-adv-x="948" d="M43 279q14 120 101.5 197t213.5 77h377l6 53q13 129 -38.5 203t-143.5 74h-104q-81 0 -131.5 -22.5t-106.5 -72.5q-26 -23 -47 -2l-20 21q-15 18 4 41q70 67 138.5 94t168.5 27h100q128 0 207.5 -100t62.5 -259l-59 -561q0 -23 2 -31q0 -18 -8 -18h-55q-32 0 -29 49 l10 90q-67 -66 -130.5 -103.5t-139.5 -37.5h-117q-113 -5 -193.5 80t-68.5 201zM131 279q-7 -81 47.5 -138t128.5 -57h115q46 1 87.5 15.5t78 44t60.5 53.5t57 63l22 207h-381q-92 0 -148 -49.5t-67 -138.5zM317 1602q-14 36 25 36h64q29 0 38 -36l115 -379q4 -17 -2.5 -27 t-21.5 -10h-39q-26 0 -39 37z" />
<glyph unicode="&#xe1;" horiz-adv-x="948" d="M43 279q14 120 101.5 197t213.5 77h377l6 53q13 129 -38.5 203t-143.5 74h-104q-81 0 -131.5 -22.5t-106.5 -72.5q-26 -23 -47 -2l-20 21q-15 18 4 41q70 67 138.5 94t168.5 27h100q128 0 207.5 -100t62.5 -259l-59 -561q0 -23 2 -31q0 -18 -8 -18h-55q-32 0 -29 49 l10 90q-67 -66 -130.5 -103.5t-139.5 -37.5h-117q-113 -5 -193.5 80t-68.5 201zM131 279q-7 -81 47.5 -138t128.5 -57h115q46 1 87.5 15.5t78 44t60.5 53.5t57 63l22 207h-381q-92 0 -148 -49.5t-67 -138.5zM472.5 1196q-5.5 10 4.5 27l193 379q14 36 47 36h59q37 0 17 -36 l-218 -379q-14 -20 -23.5 -28.5t-23.5 -8.5h-34q-16 0 -21.5 10z" />
<glyph unicode="&#xe2;" horiz-adv-x="948" d="M43 279q14 120 101.5 197t213.5 77h377l6 53q13 129 -38.5 203t-143.5 74h-104q-81 0 -131.5 -22.5t-106.5 -72.5q-26 -23 -47 -2l-20 21q-15 18 4 41q70 67 138.5 94t168.5 27h100q128 0 207.5 -100t62.5 -259l-59 -561q0 -23 2 -31q0 -18 -8 -18h-55q-32 0 -29 49 l10 90q-67 -66 -130.5 -103.5t-139.5 -37.5h-117q-113 -5 -193.5 80t-68.5 201zM131 279q-7 -81 47.5 -138t128.5 -57h115q46 1 87.5 15.5t78 44t60.5 53.5t57 63l22 207h-381q-92 0 -148 -49.5t-67 -138.5zM162.5 1213q-4.5 13 7.5 26l330 367q26 32 51 32h29q26 0 45 -32 l252 -367q9 -13 1.5 -26t-22.5 -13h-57q-6 0 -10.5 1.5t-9.5 7t-7 8t-8 11.5t-8 11l-199 299l-266 -299q-3 -3 -8.5 -9.5t-8.5 -9.5l-8 -8t-8.5 -7t-8 -3.5t-9.5 -1.5h-58q-15 0 -19.5 13z" />
<glyph unicode="&#xe3;" horiz-adv-x="948" d="M43 279q14 120 101.5 197t213.5 77h377l6 53q13 129 -38.5 203t-143.5 74h-104q-81 0 -131.5 -22.5t-106.5 -72.5q-26 -23 -47 -2l-20 21q-15 18 4 41q70 67 138.5 94t168.5 27h100q128 0 207.5 -100t62.5 -259l-59 -561q0 -23 2 -31q0 -18 -8 -18h-55q-32 0 -29 49 l10 90q-67 -66 -130.5 -103.5t-139.5 -37.5h-117q-113 -5 -193.5 80t-68.5 201zM131 279q-7 -81 47.5 -138t128.5 -57h115q46 1 87.5 15.5t78 44t60.5 53.5t57 63l22 207h-381q-92 0 -148 -49.5t-67 -138.5zM178 1425q-10 23 27 45q108 74 183 74t171 -67q38 -24 56.5 -35 t44 -19.5t39.5 -7.5t41.5 10t52.5 23t69 41q22 14 33 -16l14 -35q10 -22 -24 -45q-108 -75 -184.5 -75.5t-172.5 68.5q-45 28 -67.5 39.5t-48 19.5t-51 -1t-54.5 -23.5t-80 -46.5q-16 -7 -21.5 -3t-12.5 20z" />
<glyph unicode="&#xe4;" horiz-adv-x="948" d="M43 279q14 120 101.5 197t213.5 77h377l6 53q13 129 -38.5 203t-143.5 74h-104q-81 0 -131.5 -22.5t-106.5 -72.5q-26 -23 -47 -2l-20 21q-15 18 4 41q70 67 138.5 94t168.5 27h100q128 0 207.5 -100t62.5 -259l-59 -561q0 -23 2 -31q0 -18 -8 -18h-55q-32 0 -29 49 l10 90q-67 -66 -130.5 -103.5t-139.5 -37.5h-117q-113 -5 -193.5 80t-68.5 201zM131 279q-7 -81 47.5 -138t128.5 -57h115q46 1 87.5 15.5t78 44t60.5 53.5t57 63l22 207h-381q-92 0 -148 -49.5t-67 -138.5zM160 1382l8 74q3 31 33 31h63q32 0 29 -31l-8 -74q-3 -30 -33 -30 h-64q-31 0 -28 30zM795 1382l10 74q3 31 33 31h61q32 0 29 -31l-8 -74q-3 -30 -33 -30h-64q-31 0 -28 30z" />
<glyph unicode="&#xe5;" horiz-adv-x="948" d="M43 279q14 120 101.5 197t213.5 77h377l6 53q13 129 -38.5 203t-143.5 74h-104q-81 0 -131.5 -22.5t-106.5 -72.5q-26 -23 -47 -2l-20 21q-15 18 4 41q70 67 138.5 94t168.5 27h100q128 0 207.5 -100t62.5 -259l-59 -561q0 -23 2 -31q0 -18 -8 -18h-55q-32 0 -29 49 l10 90q-67 -66 -130.5 -103.5t-139.5 -37.5h-117q-113 -5 -193.5 80t-68.5 201zM131 279q-7 -81 47.5 -138t128.5 -57h115q46 1 87.5 15.5t78 44t60.5 53.5t57 63l22 207h-381q-92 0 -148 -49.5t-67 -138.5zM342 1427l2 23q9 82 67.5 136t141.5 54h27q83 0 130 -54t38 -136 l-3 -23q-9 -83 -67 -135.5t-141 -52.5h-27q-83 0 -130 52.5t-38 135.5zM434 1430q-6 -48 17 -73.5t73 -25.5h21q101 0 110 99l2 20q12 98 -90 98h-20q-102 0 -111 -98z" />
<glyph unicode="&#xe6;" horiz-adv-x="1646" d="M43 281q14 122 101 199t214 77h381l4 53q13 123 -42.5 193.5t-145.5 70.5h-72q-150 0 -272 -88q-12 -11 -25.5 -11.5t-21.5 9.5l-19 23q-14 21 2 41q129 119 334 119h74q87 0 160 -51t108 -138q61 85 152.5 138t183.5 53h68q59 0 118.5 -28t106 -76t72.5 -118t18 -147 l-10 -72q-3 -29 -22 -46t-50 -17h-631l-14 -119q-6 -106 69.5 -184t182.5 -78h55q151 0 283 143q14 12 20.5 13.5t20.5 -7.5l20 -16q21 -21 2 -43q-164 -176 -354 -176h-57q-92 0 -172 50t-123 132q-94 -92 -170.5 -137t-177.5 -45h-109q-114 -5 -194 80.5t-68 202.5z M135 276q-9 -81 45 -133.5t133 -52.5h121q43 1 83 15t75 40.5t59.5 50.5t55.5 60l20 205h-377q-194 0 -215 -185zM838 551h606l6 39q6 67 -13.5 124t-54.5 93t-78 56t-85 20h-68q-111 0 -203 -85t-104 -208z" />
<glyph unicode="&#xe7;" horiz-adv-x="956" d="M55 365l25 233q15 145 141 258t262 113h74q72 0 145.5 -42.5t119 -111.5t40.5 -139q-6 -31 -37 -31h-24q-15 0 -24.5 6t-8.5 19q6 48 -27.5 98.5t-87 82.5t-104.5 32h-76q-106 0 -199.5 -85.5t-105.5 -199.5l-23 -233q-13 -114 62.5 -197.5t183.5 -83.5h72q69 0 140.5 40 t131.5 103q22 22 43 9l21 -19q24 -17 2 -43q-164 -176 -346 -176h-37q-23 -27 -32 -47t-7.5 -30.5t13.5 -17.5t22.5 -9t29.5 -4q6 -1 9 -1q11 -2 34 -4q30 -3 45 -5.5t38.5 -8.5t34.5 -15t23 -24t15 -37.5t0 -52.5q-9 -78 -54 -117t-140 -39h-76q-85 0 -127.5 47t-36.5 125 q3 21 20 21h66q8 0 14 -5t6 -12q-3 -36 19.5 -51.5t75.5 -15.5h22q71 0 83 6q18 7 22 37q3 38 -37.5 50t-192.5 28q-10 1 -21.5 7t-21 20.5t-11 34t13 51t46.5 69.5l6 6q-119 26 -199 130t-65 231z" />
<glyph unicode="&#xe8;" horiz-adv-x="964" d="M55 365l25 233q10 96 73 182.5t154 137.5t182 51h68q58 0 117 -28t106 -76t72.5 -118t17.5 -147l-8 -72q-3 -29 -23 -46t-51 -17h-630l-13 -107q-10 -111 65.5 -192.5t184.5 -81.5h56q148 0 284 143q23 23 39 6l21 -16q21 -21 2 -43q-164 -176 -355 -176h-55 q-91 0 -172 50t-126 136t-34 181zM168 551h606l4 39q6 66 -13.5 123.5t-54.5 93.5t-77.5 56t-83.5 20h-68q-112 0 -204.5 -85t-104.5 -208zM330 1602q-14 36 24 36h64q30 0 39 -36l114 -379q4 -17 -2.5 -27t-21.5 -10h-39q-26 0 -39 37z" />
<glyph unicode="&#xe9;" horiz-adv-x="964" d="M55 365l25 233q10 96 73 182.5t154 137.5t182 51h68q58 0 117 -28t106 -76t72.5 -118t17.5 -147l-8 -72q-3 -29 -23 -46t-51 -17h-630l-13 -107q-10 -111 65.5 -192.5t184.5 -81.5h56q148 0 284 143q23 23 39 6l21 -16q21 -21 2 -43q-164 -176 -355 -176h-55 q-91 0 -172 50t-126 136t-34 181zM168 551h606l4 39q6 66 -13.5 123.5t-54.5 93.5t-77.5 56t-83.5 20h-68q-112 0 -204.5 -85t-104.5 -208zM484.5 1196q-5.5 10 4.5 27l193 379q14 36 47 36h59q37 0 17 -36l-217 -379q-14 -20 -23.5 -28.5t-23.5 -8.5h-35q-16 0 -21.5 10z " />
<glyph unicode="&#xea;" horiz-adv-x="964" d="M55 365l25 233q10 96 73 182.5t154 137.5t182 51h68q58 0 117 -28t106 -76t72.5 -118t17.5 -147l-8 -72q-3 -29 -23 -46t-51 -17h-630l-13 -107q-10 -111 65.5 -192.5t184.5 -81.5h56q148 0 284 143q23 23 39 6l21 -16q21 -21 2 -43q-164 -176 -355 -176h-55 q-91 0 -172 50t-126 136t-34 181zM168 551h606l4 39q6 66 -13.5 123.5t-54.5 93.5t-77.5 56t-83.5 20h-68q-112 0 -204.5 -85t-104.5 -208zM175 1213q-5 13 7 26l330 367q26 32 51 32h29q26 0 45 -32l252 -367q9 -13 1.5 -26t-22.5 -13h-57q-6 0 -10.5 1.5t-9.5 7t-7 8 t-8 11.5t-8 11l-199 299l-266 -299q-3 -3 -8.5 -9.5t-8.5 -9.5l-8 -8t-8.5 -7t-8 -3.5t-9.5 -1.5h-57q-15 0 -20 13z" />
<glyph unicode="&#xeb;" horiz-adv-x="964" d="M55 365l25 233q10 96 73 182.5t154 137.5t182 51h68q58 0 117 -28t106 -76t72.5 -118t17.5 -147l-8 -72q-3 -29 -23 -46t-51 -17h-630l-13 -107q-10 -111 65.5 -192.5t184.5 -81.5h56q148 0 284 143q23 23 39 6l21 -16q21 -21 2 -43q-164 -176 -355 -176h-55 q-91 0 -172 50t-126 136t-34 181zM168 551h606l4 39q6 66 -13.5 123.5t-54.5 93.5t-77.5 56t-83.5 20h-68q-112 0 -204.5 -85t-104.5 -208zM172 1382l8 74q3 31 33 31h63q32 0 29 -31l-8 -74q-3 -30 -33 -30h-63q-32 0 -29 30zM807 1382l10 74q3 31 33 31h61q32 0 29 -31 l-8 -74q-3 -30 -33 -30h-63q-32 0 -29 30z" />
<glyph unicode="&#xec;" horiz-adv-x="415" d="M53 1602q-14 36 25 36h63q30 0 39 -36l115 -379q4 -17 -3 -27t-22 -10h-39q-25 0 -38 37zM88 31l96 903q3 31 33 31h27q31 0 28 -31l-96 -903q-3 -31 -33 -31h-26q-32 0 -29 31z" />
<glyph unicode="&#xed;" horiz-adv-x="415" d="M88 31l96 903q3 31 33 31h27q31 0 28 -31l-96 -903q-3 -31 -33 -31h-26q-32 0 -29 31zM208 1196q-5 10 5 27l193 379q14 36 47 36h59q36 0 16 -36l-217 -379q-14 -20 -23.5 -28.5t-23.5 -8.5h-35q-16 0 -21 10z" />
<glyph unicode="&#xee;" horiz-adv-x="415" d="M-101.5 1213q-4.5 13 7.5 26l330 367q26 32 51 32h28q26 0 45 -32l252 -367q9 -13 2 -26t-22 -13h-57q-6 0 -10.5 1.5t-9.5 7t-7 8t-8 11.5t-8 11l-199 299l-266 -299q-2 -2 -7.5 -8t-7.5 -8.5t-6.5 -7t-7.5 -6.5t-7 -4.5t-8 -3.5t-8 -1h-57q-15 0 -19.5 13zM88 31 l96 903q3 31 33 31h27q31 0 28 -31l-96 -903q-3 -31 -33 -31h-26q-32 0 -29 31z" />
<glyph unicode="&#xef;" horiz-adv-x="415" d="M-104 1382l8 74q3 31 33 31h63q32 0 29 -31l-9 -74q-3 -30 -34 -30h-62q-31 0 -28 30zM88 31l96 903q3 31 33 31h27q31 0 28 -31l-96 -903q-3 -31 -33 -31h-26q-32 0 -29 31zM530 1382l11 74q3 31 32 31h62q32 0 29 -31l-9 -74q-3 -30 -32 -30h-64q-32 0 -29 30z" />
<glyph unicode="&#xf0;" horiz-adv-x="1112" d="M68 422q23 256 140.5 376t346.5 120q118 0 214.5 -39t133.5 -88q31 177 21 335q-3 58 -31 115l-109 -125q-28 -35 -51 -35h-55q-19 0 -23.5 11t7.5 26l180 205q-84 98 -213 98h-49q-30 0 -27 31l2 31q3 30 35 30h49q170 0 272 -110l43 49q21 23 30.5 29t21.5 6h55 q19 0 23 -11t-9 -26l-110 -127q51 -96 51 -227q3 -336 -64 -682q-39 -204 -159 -319t-287 -115h-74q-183 0 -282.5 113t-81.5 329zM164 418q-19 -176 54 -261t218 -85h88q125 0 211 90.5t119 251.5q40 199 -30.5 300.5t-284.5 102.5q-64 0 -114 -8.5t-86.5 -23t-63.5 -42 t-44.5 -56.5t-30.5 -75t-20.5 -88t-15.5 -106z" />
<glyph unicode="&#xf1;" horiz-adv-x="1024" d="M59 31l97 901q3 31 32 31h27q32 0 29 -31l-13 -98q67 72 142.5 100.5t173.5 28.5h26q155 0 239.5 -101t70.5 -256l-64 -575q-3 -31 -33 -31h-26q-32 0 -29 31l62 571q12 123 -51.5 199t-192.5 76h-60q-93 0 -179 -62.5t-93 -142.5l-70 -641q-3 -31 -32 -31h-27 q-32 0 -29 31zM225 1425q-10 23 27 45q108 74 183 74t171 -67q38 -24 56.5 -35t44 -19.5t39.5 -7.5t41.5 10t52.5 23t69 41q22 14 33 -16l14 -35q10 -22 -24 -45q-108 -75 -184.5 -75.5t-172.5 68.5q-45 28 -67.5 39.5t-48 19.5t-51 -1t-54.5 -23.5t-80 -46.5 q-16 -7 -21.5 -3t-12.5 20z" />
<glyph unicode="&#xf2;" horiz-adv-x="980" d="M55 391l17 182q19 157 139 276.5t272 119.5h78q99 0 178 -56t117.5 -147.5t26.5 -192.5l-17 -182q-17 -157 -137 -275t-270 -118h-78q-101 0 -180.5 55t-118 145t-27.5 193zM143 391q-12 -124 57.5 -215.5t190.5 -91.5h78q117 0 206 92t103 215l17 182q14 122 -56 216 t-188 94h-78q-119 0 -208 -93.5t-103 -216.5zM342 1602q-14 36 25 36h63q30 0 39 -36l115 -379q4 -17 -3 -27t-22 -10h-39q-26 0 -39 37z" />
<glyph unicode="&#xf3;" horiz-adv-x="980" d="M55 391l17 182q19 157 139 276.5t272 119.5h78q99 0 178 -56t117.5 -147.5t26.5 -192.5l-17 -182q-17 -157 -137 -275t-270 -118h-78q-101 0 -180.5 55t-118 145t-27.5 193zM143 391q-12 -124 57.5 -215.5t190.5 -91.5h78q117 0 206 92t103 215l17 182q14 122 -56 216 t-188 94h-78q-119 0 -208 -93.5t-103 -216.5zM497 1196q-5 10 5 27l192 379q14 36 47 36h60q36 0 16 -36l-217 -379q-14 -20 -23.5 -28.5t-23.5 -8.5h-35q-16 0 -21 10z" />
<glyph unicode="&#xf4;" horiz-adv-x="980" d="M55 391l17 182q19 157 139 276.5t272 119.5h78q99 0 178 -56t117.5 -147.5t26.5 -192.5l-17 -182q-17 -157 -137 -275t-270 -118h-78q-101 0 -180.5 55t-118 145t-27.5 193zM143 391q-12 -124 57.5 -215.5t190.5 -91.5h78q117 0 206 92t103 215l17 182q14 122 -56 216 t-188 94h-78q-119 0 -208 -93.5t-103 -216.5zM189.5 1213q-4.5 13 7.5 26l329 367q26 32 52 32h28q26 0 45 -32l252 -367q9 -13 2 -26t-22 -13h-58q-6 0 -10.5 1.5t-9.5 7t-7 8t-8 11.5t-8 11l-198 299l-267 -299q-3 -3 -8.5 -9.5t-8.5 -9.5l-8 -8t-8.5 -7t-8 -3.5 t-9.5 -1.5h-57q-15 0 -19.5 13z" />
<glyph unicode="&#xf5;" horiz-adv-x="980" d="M55 391l17 182q19 157 139 276.5t272 119.5h78q99 0 178 -56t117.5 -147.5t26.5 -192.5l-17 -182q-17 -157 -137 -275t-270 -118h-78q-101 0 -180.5 55t-118 145t-27.5 193zM143 391q-12 -124 57.5 -215.5t190.5 -91.5h78q117 0 206 92t103 215l17 182q14 122 -56 216 t-188 94h-78q-119 0 -208 -93.5t-103 -216.5zM205 1425q-10 23 26 45q108 74 183.5 74t171.5 -67q38 -24 56.5 -35t44 -19.5t39.5 -7.5t41.5 10t52.5 23t69 41q22 14 33 -16l14 -35q10 -22 -25 -45q-108 -75 -184 -75.5t-172 68.5q-45 28 -67.5 39.5t-48 19.5t-51 -1 t-54.5 -23.5t-80 -46.5q-16 -7 -22 -3t-13 20z" />
<glyph unicode="&#xf6;" horiz-adv-x="980" d="M55 391l17 182q19 157 139 276.5t272 119.5h78q99 0 178 -56t117.5 -147.5t26.5 -192.5l-17 -182q-17 -157 -137 -275t-270 -118h-78q-101 0 -180.5 55t-118 145t-27.5 193zM143 391q-12 -124 57.5 -215.5t190.5 -91.5h78q117 0 206 92t103 215l17 182q14 122 -56 216 t-188 94h-78q-119 0 -208 -93.5t-103 -216.5zM186 1382l9 74q3 31 32 31h64q31 0 28 -31l-8 -74q-3 -30 -32 -30h-64q-32 0 -29 30zM821 1382l10 74q3 31 33 31h62q31 0 28 -31l-8 -74q-3 -30 -33 -30h-63q-32 0 -29 30z" />
<glyph unicode="&#xf7;" horiz-adv-x="1052" d="M113 647l2 31q3 31 35 31h747q28 0 25 -31l-2 -31q-3 -31 -33 -31h-746q-31 0 -28 31zM420 322l8 94q3 30 33 30h71q32 0 29 -30l-10 -94q-3 -31 -35 -31h-72q-27 0 -24 31zM481 909l11 95q3 30 32 30h70q32 0 29 -30l-11 -95q-3 -30 -34 -30h-70q-30 0 -27 30z" />
<glyph unicode="&#xf8;" horiz-adv-x="1015" d="M55 391l17 182q19 157 139 276.5t272 119.5h78q64 0 119 -25q15 21 37 21h43q15 0 20 -8t-2 -23l-18 -37q67 -56 101 -143t22 -181l-17 -182q-17 -157 -137 -275t-270 -118h-78q-52 0 -105 16q-11 -14 -32 -14h-43q-15 0 -20.5 8t1.5 23l15 24q-75 55 -113.5 145 t-28.5 191zM143 391q-7 -76 18.5 -144.5t78.5 -111.5l397 731q-46 17 -86 17h-78q-119 0 -208 -93.5t-103 -216.5zM322 94q38 -10 69 -10h78q117 0 206 92t103 215l17 182q9 70 -12.5 134.5t-67.5 109.5z" />
<glyph unicode="&#xf9;" horiz-adv-x="952" d="M55 356l62 576q3 31 33 31h28q32 0 29 -31l-62 -572q-12 -123 51.5 -198.5t192.5 -75.5h57q95 0 181.5 62.5t93.5 142.5l70 641q3 31 32 31h27q32 0 29 -31l-97 -901q-3 -31 -32 -31h-27q-32 0 -29 31l11 100q-68 -72 -143 -101.5t-173 -29.5h-24q-156 0 -240.5 100.5 t-69.5 255.5zM317 1602q-14 36 25 36h64q29 0 38 -36l115 -379q4 -17 -2.5 -27t-21.5 -10h-39q-26 0 -39 37z" />
<glyph unicode="&#xfa;" horiz-adv-x="952" d="M55 356l62 576q3 31 33 31h28q32 0 29 -31l-62 -572q-12 -123 51.5 -198.5t192.5 -75.5h57q95 0 181.5 62.5t93.5 142.5l70 641q3 31 32 31h27q32 0 29 -31l-97 -901q-3 -31 -32 -31h-27q-32 0 -29 31l11 100q-68 -72 -143 -101.5t-173 -29.5h-24q-156 0 -240.5 100.5 t-69.5 255.5zM472.5 1196q-5.5 10 4.5 27l193 379q14 36 47 36h59q37 0 17 -36l-218 -379q-14 -20 -23.5 -28.5t-23.5 -8.5h-34q-16 0 -21.5 10z" />
<glyph unicode="&#xfb;" horiz-adv-x="952" d="M55 356l62 576q3 31 33 31h28q32 0 29 -31l-62 -572q-12 -123 51.5 -198.5t192.5 -75.5h57q95 0 181.5 62.5t93.5 142.5l70 641q3 31 32 31h27q32 0 29 -31l-97 -901q-3 -31 -32 -31h-27q-32 0 -29 31l11 100q-68 -72 -143 -101.5t-173 -29.5h-24q-156 0 -240.5 100.5 t-69.5 255.5zM164.5 1213q-4.5 13 7.5 26l330 367q26 32 51 32h29q26 0 45 -32l252 -367q9 -13 1.5 -26t-22.5 -13h-57q-6 0 -10.5 1.5t-9.5 7t-7 8t-8 11.5t-8 11l-199 299l-266 -299q-3 -3 -8.5 -9.5t-8.5 -9.5l-8 -8t-8.5 -7t-8 -3.5t-9.5 -1.5h-58q-15 0 -19.5 13z" />
<glyph unicode="&#xfc;" horiz-adv-x="952" d="M55 356l62 576q3 31 33 31h28q32 0 29 -31l-62 -572q-12 -123 51.5 -198.5t192.5 -75.5h57q95 0 181.5 62.5t93.5 142.5l70 641q3 31 32 31h27q32 0 29 -31l-97 -901q-3 -31 -32 -31h-27q-32 0 -29 31l11 100q-68 -72 -143 -101.5t-173 -29.5h-24q-156 0 -240.5 100.5 t-69.5 255.5zM162 1382l8 74q3 31 33 31h63q32 0 29 -31l-8 -74q-3 -30 -33 -30h-64q-31 0 -28 30zM797 1382l10 74q3 31 33 31h61q32 0 29 -31l-8 -74q-3 -30 -33 -30h-64q-31 0 -28 30z" />
<glyph unicode="&#xfd;" horiz-adv-x="989" d="M94 926q-5 16 1 26.5t22 10.5h39q29 0 39 -35l237 -756l397 756q19 35 50 35h36q33 0 15 -37l-680 -1301q-19 -35 -49 -35h-37q-36 0 -17 37l224 424zM495 1196q-5 10 5 27l192 379q14 36 47 36h60q36 0 16 -36l-217 -379q-14 -20 -23.5 -28.5t-23.5 -8.5h-35 q-16 0 -21 10z" />
<glyph unicode="&#xfe;" horiz-adv-x="1003" d="M25 -379l194 1835q3 31 33 31h27q31 0 28 -31l-63 -610q54 54 123.5 85.5t142.5 31.5h63q97 0 173.5 -53.5t112.5 -137t26 -174.5l-25 -252q-15 -137 -133 -241.5t-254 -104.5h-63q-143 0 -244 117l-53 -496q-3 -31 -33 -31h-27q-31 0 -28 31zM176 207 q54 -48 124.5 -84.5t121.5 -36.5h61q99 0 188 82t101 184l23 238q13 108 -52.5 197.5t-179.5 89.5h-59q-88 0 -176.5 -62.5t-100.5 -128.5z" />
<glyph unicode="&#xff;" horiz-adv-x="989" d="M94 926q-5 16 1 26.5t22 10.5h39q29 0 39 -35l237 -756l397 756q19 35 50 35h36q33 0 15 -37l-680 -1301q-19 -35 -49 -35h-37q-36 0 -17 37l224 424zM182 1382l8 74q3 31 33 31h64q31 0 28 -31l-8 -74q-3 -30 -33 -30h-63q-32 0 -29 30zM817 1382l10 74q3 31 33 31h62 q31 0 28 -31l-8 -74q-3 -30 -33 -30h-63q-32 0 -29 30z" />
<glyph unicode="&#x152;" horiz-adv-x="1921" d="M86 479l57 541q22 202 163.5 345.5t318.5 143.5h92q104 0 188.5 -53t134.5 -145l17 145q3 31 33 31h749q32 0 29 -31l-4 -31q-3 -30 -35 -30h-688l-64 -598h555q32 0 29 -31l-2 -31q-3 -30 -37 -30h-555l-61 -613h688q27 0 24 -31l-2 -30q-3 -31 -33 -31h-749 q-32 0 -29 31l17 155q-70 -92 -166 -145t-199 -53h-92q-116 0 -208.5 66t-138.5 179t-32 246zM180 485q-13 -114 21.5 -208t107.5 -147t168 -52h86q145 3 254.5 118.5t128.5 288.5l55 529q19 171 -67 287t-229 116h-89q-143 0 -252 -115.5t-128 -287.5z" />
<glyph unicode="&#x153;" horiz-adv-x="1726" d="M55 391l17 182q19 157 139 276.5t272 119.5h78q102 0 181.5 -59t117.5 -154q58 93 155.5 153t194.5 60h68q59 0 118.5 -28t106 -76t72.5 -118t18 -147l-10 -72q-3 -29 -22 -46t-50 -17h-632l-11 -107q-12 -111 64 -192.5t186 -81.5h56q150 0 282 143q14 12 20.5 13.5 t20.5 -7.5l21 -16q21 -21 2 -43q-164 -176 -355 -176h-57q-98 0 -183.5 58.5t-123.5 150.5q-57 -93 -148.5 -151t-193.5 -58h-78q-101 0 -180.5 55t-118 145t-27.5 193zM143 391q-12 -124 57.5 -215.5t190.5 -91.5h78q117 0 206 92t103 215l17 182q14 122 -56 216t-188 94 h-78q-119 0 -208 -93.5t-103 -216.5zM889 551h606l6 39q6 67 -13.5 124t-54.5 93t-78 56t-85 20h-68q-111 0 -203 -85t-104 -208z" />
<glyph unicode="&#x178;" horiz-adv-x="1181" d="M147 1456q-7 14 0 22.5t23 8.5h49q23 0 39 -31l315 -700l469 700q12 17 20.5 24t22.5 7h50q16 0 21.5 -8t-3.5 -23l-545 -803l-65 -622q-3 -31 -33 -31h-31q-31 0 -28 31l65 622zM319 1907l9 73q3 31 32 31h64q32 0 29 -31l-9 -73q-3 -31 -32 -31h-64q-32 0 -29 31z M954 1907l11 73q3 31 32 31h62q31 0 28 -31l-8 -73q-3 -31 -32 -31h-64q-32 0 -29 31z" />
<glyph unicode="&#x2c6;" horiz-adv-x="929" d="M154.5 1213q-4.5 13 7.5 26l330 367q26 32 51 32h28q26 0 45 -32l252 -367q9 -13 2 -26t-22 -13h-57q-6 0 -10.5 1.5t-9.5 7t-7 8t-8 11.5t-8 11l-199 299l-266 -299q-2 -2 -7.5 -8t-7.5 -8.5t-6.5 -7t-7.5 -6.5t-7 -4.5t-8 -3.5t-8 -1h-57q-15 0 -19.5 13z" />
<glyph unicode="&#x2dc;" horiz-adv-x="942" d="M178 1425q-10 23 27 45q108 74 183 74t171 -67q38 -24 56.5 -35t44 -19.5t39.5 -7.5t41.5 10t52.5 23t69 41q22 14 33 -16l14 -35q10 -22 -24 -45q-108 -75 -184.5 -75.5t-172.5 68.5q-45 28 -67.5 39.5t-48 19.5t-51 -1t-54.5 -23.5t-80 -46.5q-16 -7 -21.5 -3t-12.5 20 z" />
<glyph unicode="&#x2000;" horiz-adv-x="1082" />
<glyph unicode="&#x2001;" horiz-adv-x="2165" />
<glyph unicode="&#x2002;" horiz-adv-x="1082" />
<glyph unicode="&#x2003;" horiz-adv-x="2165" />
<glyph unicode="&#x2004;" horiz-adv-x="721" />
<glyph unicode="&#x2005;" horiz-adv-x="541" />
<glyph unicode="&#x2006;" horiz-adv-x="360" />
<glyph unicode="&#x2007;" horiz-adv-x="360" />
<glyph unicode="&#x2008;" horiz-adv-x="270" />
<glyph unicode="&#x2009;" horiz-adv-x="433" />
<glyph unicode="&#x200a;" horiz-adv-x="120" />
<glyph unicode="&#x2010;" horiz-adv-x="888" d="M119 504l2 31q3 30 35 30h540q30 0 27 -30l-2 -31q-3 -31 -35 -31h-541q-29 0 -26 31z" />
<glyph unicode="&#x2011;" horiz-adv-x="888" d="M119 504l2 31q3 30 35 30h540q30 0 27 -30l-2 -31q-3 -31 -35 -31h-541q-29 0 -26 31z" />
<glyph unicode="&#x2012;" horiz-adv-x="888" d="M119 504l2 31q3 30 35 30h540q30 0 27 -30l-2 -31q-3 -31 -35 -31h-541q-29 0 -26 31z" />
<glyph unicode="&#x2013;" horiz-adv-x="1271" d="M94 467l2 31q3 30 35 30h965q29 0 26 -30l-2 -31q-3 -31 -35 -31h-964q-30 0 -27 31z" />
<glyph unicode="&#x2014;" horiz-adv-x="1423" d="M94 467l2 31q3 30 35 30h1116q30 0 27 -30l-2 -31q-3 -31 -35 -31h-1116q-30 0 -27 31z" />
<glyph unicode="&#x2018;" horiz-adv-x="389" d="M125 963l20 184q5 49 10 80t18.5 74.5t40.5 84.5t67 82q12 12 20.5 12.5t20.5 -12.5l32 -32q23 -25 0 -43q-60 -53 -78.5 -101t-27.5 -133l-19 -20h41q32 0 29 -31l-16 -145q-3 -31 -33 -31h-96q-32 0 -29 31z" />
<glyph unicode="&#x2019;" horiz-adv-x="411" d="M68 1030q15 13 27 25t21 25.5t15.5 22.5t11.5 25t7.5 22.5t5.5 26t4 25t3 29t3 29.5l18 20h-57q-32 0 -29 31l15 125q3 30 30 30h99q31 0 28 -30l-18 -164q-4 -47 -6 -62.5t-10.5 -54t-20 -61.5t-34.5 -57.5t-56 -67.5q-12 -14 -19 -15t-22 15l-14 16q-24 26 -2 45z" />
<glyph unicode="&#x201a;" horiz-adv-x="389" d="M-78 -250q30 26 48 50t27.5 53t13 48.5t7.5 59.5q1 13 2 19l19 20h-59q-32 0 -29 31l14 125q3 30 33 30h98q32 0 29 -30l-19 -164q-5 -56 -8.5 -78.5t-16 -66.5t-38 -81.5t-66.5 -78.5q-10 -13 -18 -13.5t-22 13.5l-13 18q-25 25 -2 45z" />
<glyph unicode="&#x201c;" horiz-adv-x="702" d="M47 963l21 184q6 67 14 107t38 100t83 114q12 12 20.5 12.5t20.5 -12.5l32 -32q23 -25 0 -43q-60 -53 -78.5 -101t-27.5 -133l-18 -20h41q31 0 28 -31l-16 -145q-3 -31 -33 -31h-96q-32 0 -29 31zM362 963l21 184q5 52 9.5 80.5t17.5 73.5t39.5 85.5t66.5 81.5 q23 23 41 0l33 -32q12 -14 13 -23t-11 -20q-60 -53 -79 -101t-30 -133l-18 -20h41q34 0 31 -31l-17 -145q-3 -31 -33 -31h-96q-32 0 -29 31z" />
<glyph unicode="&#x201d;" horiz-adv-x="720" d="M-12 1030q30 26 48 50t27.5 53t13 48.5t7.5 59.5q1 13 2 19l18 20h-59q-32 0 -29 31l15 125q3 30 32 30h99q31 0 28 -30l-18 -164q-4 -47 -6 -62.5t-10.5 -54t-20 -61.5t-34.5 -57.5t-56 -67.5q-12 -14 -19 -15t-22 15l-14 16q-25 25 -2 45zM301 1030q30 26 49 50t29 54 t13 47.5t7 60.5q1 12 2 18l19 20h-60q-31 0 -28 31l14 125q3 30 33 30h96q15 0 23.5 -7.5t7.5 -22.5l-19 -164q-5 -53 -9 -77.5t-16.5 -67t-37.5 -80t-66 -78.5q-12 -14 -19 -15t-22 15l-14 16q-24 26 -2 45z" />
<glyph unicode="&#x201e;" horiz-adv-x="702" d="M-78 -250q30 26 48 50t27.5 53t13 48.5t7.5 59.5q1 13 2 19l19 20h-59q-32 0 -29 31l14 125q3 30 33 30h98q32 0 29 -30l-19 -164q-5 -56 -8.5 -78.5t-16 -66.5t-38 -81.5t-66.5 -78.5q-10 -13 -18 -13.5t-22 13.5l-13 18q-25 25 -2 45zM236 -250q30 26 49 50t29 54 t13 47.5t7 60.5q1 12 2 18l18 20h-59q-32 0 -29 31l15 125q3 30 32 30h97q33 0 30 -30l-18 -164q-4 -44 -6.5 -62.5t-10.5 -55.5t-20.5 -61.5t-35.5 -58.5t-56 -67q-11 -13 -19 -13.5t-22 13.5l-14 18q-24 26 -2 45z" />
<glyph unicode="&#x2022;" horiz-adv-x="567" d="M156 666l10 94q6 67 72 67h104q70 0 64 -67l-11 -94q-6 -68 -76 -68h-104q-65 0 -59 68z" />
<glyph unicode="&#x2026;" horiz-adv-x="790" d="M27 31l4 32q3 31 35 31h34q30 0 27 -31l-4 -32q-3 -31 -33 -31h-35q-31 0 -28 31zM272 31l2 32q3 31 35 31h35q30 0 27 -31l-2 -32q-3 -31 -33 -31h-35q-32 0 -29 31zM516 31l4 32q3 31 35 31h35q29 0 26 -31l-4 -32q-3 -31 -32 -31h-35q-32 0 -29 31z" />
<glyph unicode="&#x202f;" horiz-adv-x="433" />
<glyph unicode="&#x2039;" horiz-adv-x="677" d="M86 496l8 61q1 11 4 16t14.5 12t16.5 11l414 293q15 10 27 4t10 -21l-9 -88q0 -4 -1.5 -7.5t-3 -6t-4.5 -5.5l-5 -5t-6.5 -5t-7 -4.5t-8.5 -5.5l-9 -6l-299 -213l256 -211q5 -5 13 -11.5t11.5 -10.5t6.5 -10t2 -13l-10 -90q-2 -15 -13.5 -20.5t-25.5 4.5l-352 295 q-4 4 -11 8.5t-10.5 7t-6 8t-1.5 13.5z" />
<glyph unicode="&#x203a;" horiz-adv-x="677" d="M53 180l10 90q0 4 1 7.5t3.5 7t4.5 6t6.5 6t7 5t9 6.5t9.5 7l304 211l-261 213q-13 11 -16.5 15t-8 12.5t-3.5 17.5l8 88q2 15 13.5 21t23.5 -4l356 -293q4 -4 13.5 -11t12 -12t1.5 -16l-8 -61q-1 -8 -4 -13.5t-5.5 -8t-10.5 -7.5t-13 -8l-418 -295q-13 -10 -25 -4.5 t-10 20.5z" />
<glyph unicode="&#x205f;" horiz-adv-x="541" />
<glyph unicode="&#x20ac;" horiz-adv-x="1445" d="M88 612l4 37q3 31 35 31h180l12 125h-180q-31 0 -28 31l6 34q3 31 33 31h180l12 121q14 130 87 243t180 178.5t218 65.5h95q108 0 199 -65.5t139.5 -175.5t37.5 -232q-3 -30 -34 -30h-31q-32 0 -29 30q11 99 -26 189t-109 144t-156 54h-94q-136 0 -251 -119t-134 -282 l-12 -121h502q31 0 28 -31l-6 -34q-3 -31 -33 -31h-501l-13 -125h502q30 0 27 -31l-4 -37q-3 -30 -33 -30h-502l-12 -117q-17 -163 74 -283.5t227 -120.5h94q85 0 167.5 54t138.5 145t65 191q3 30 37 30h30q30 0 27 -30q-14 -122 -86 -233t-178 -178t-213 -67h-94 q-111 0 -204 67t-142 181.5t-35 243.5l12 117h-180q-32 0 -29 30z" />
<glyph unicode="&#x2122;" horiz-adv-x="1595" d="M150 1395l8 61q3 31 32 31h490q32 0 29 -31l-9 -61q-3 -31 -32 -31h-183l-39 -371q-3 -30 -34 -30h-62q-29 0 -26 30l38 371h-184q-31 0 -28 31zM772 993l49 463q3 31 33 31h123q25 0 39 -31l151 -338l228 338q18 31 43 31h123q31 0 28 -31l-49 -463q-3 -30 -35 -30h-61 q-30 0 -27 30l35 340l-235 -340q-23 -30 -43 -30h-44q-19 0 -34 30l-166 340l-35 -340q-3 -30 -35 -30h-61q-30 0 -27 30z" />
<glyph unicode="&#x25fc;" horiz-adv-x="962" d="M0 0v963h963v-963h-963z" />
</font>
</defs>
</svg>
