<?xml version="1.0" standalone="no"?>
<!DOCTYPE svg PUBLIC "-//W3C//DTD SVG 1.1//EN" "http://www.w3.org/Graphics/SVG/1.1/DTD/svg11.dtd" >
<svg xmlns="http://www.w3.org/2000/svg">
<metadata></metadata>
<defs>
<font id="manifold_cfextra_bold_oblique" horiz-adv-x="1208" >
<font-face units-per-em="2048" ascent="1638" descent="-410" />
<missing-glyph horiz-adv-x="645" />
<glyph unicode="&#xfb01;" horiz-adv-x="1337" d="M82 750l20 184q3 31 33 31h121l16 159q19 171 118.5 267t254.5 96h135q32 0 29 -31l-21 -182q-3 -31 -32 -31h-135q-72 0 -80 -90l-21 -188h701q31 0 28 -31l-96 -903q-3 -31 -33 -31h-202q-32 0 -29 31l74 688h-467l-74 -688q-3 -31 -33 -31h-203q-31 0 -28 31l71 688 h-118q-32 0 -29 31zM1016 1204l26 252q3 31 33 31h203q32 0 29 -31l-27 -252q-3 -30 -35 -30h-205q-27 0 -24 30z" />
<glyph unicode="&#xfb02;" horiz-adv-x="1343" d="M82 750l20 182q3 31 33 31h119l16 161q19 171 118.5 267t254.5 96h610q32 0 29 -31l-152 -1425q-3 -31 -32 -31h-203q-32 0 -29 31l129 1212h-377q-71 0 -79 -90l-21 -190h184q32 0 29 -31l-20 -182q-3 -31 -33 -31h-184l-74 -688q-3 -31 -33 -31h-203q-31 0 -28 31 l71 688h-116q-32 0 -29 31z" />
<glyph horiz-adv-x="0" />
<glyph horiz-adv-x="682" />
<glyph unicode=" "  horiz-adv-x="645" />
<glyph unicode="&#x09;" horiz-adv-x="645" />
<glyph unicode="&#xa0;" horiz-adv-x="645" />
<glyph unicode="!" horiz-adv-x="653" d="M82 31l31 282q3 31 34 31h232q30 0 27 -31l-31 -282q-3 -31 -33 -31h-231q-32 0 -29 31zM152 580l94 876q3 31 33 31h208q32 0 29 -31l-94 -876q-3 -31 -35 -31h-209q-29 0 -26 31z" />
<glyph unicode="&#x22;" horiz-adv-x="1085" d="M166 856l63 600q3 31 33 31h225q32 0 29 -31l-63 -600q-3 -31 -35 -31h-225q-30 0 -27 31zM657 856l64 600q3 31 33 31h225q32 0 29 -31l-64 -600q-3 -31 -35 -31h-225q-30 0 -27 31z" />
<glyph unicode="#" horiz-adv-x="1220" d="M111 432l20 209q6 31 35 31h119l16 143h-119q-32 0 -26 31l20 209q3 30 35 30h119l39 371q3 31 32 31h209q32 0 29 -31l-39 -371h94l39 371q3 31 33 31h209q32 0 29 -31l-39 -371h118q30 0 27 -30l-20 -209q-6 -31 -35 -31h-119l-16 -143h118q33 0 27 -31l-21 -209 q-3 -31 -34 -31h-119l-39 -370q-3 -31 -33 -31h-209q-31 0 -28 31l39 370h-95l-39 -370q-3 -31 -32 -31h-209q-32 0 -29 31l39 370h-119q-29 0 -26 31zM555 672h94l15 143h-95z" />
<glyph unicode="$" horiz-adv-x="970" d="M109 797q3 30 32 30h140q30 0 30 -28q0 -61 86 -72l25 221q-286 62 -264 275q11 120 102 194t219 88l15 135q3 31 34 31h111q30 0 27 -31l-15 -137q112 -19 186 -94t66 -195q-3 -32 -33 -32h-137q-15 0 -23.5 6.5t-7.5 19.5q5 79 -71 99l-23 -220q140 -32 209.5 -95 t56.5 -181q-10 -106 -104 -182.5t-221 -96.5l-14 -135q-3 -30 -33 -30h-111q-32 0 -29 30l15 135q-53 7 -101 27t-87.5 52t-61.5 80t-18 106zM354 1223q-6 -44 14 -67.5t70 -35.5l21 191q-49 -5 -75 -25t-30 -63zM569 729q103 20 109 82q6 54 -14.5 76.5t-73.5 32.5z" />
<glyph unicode="%" horiz-adv-x="1216" d="M9 8q-6 8 3 23l979 1425q12 17 20.5 24t22.5 7h234q16 0 21.5 -8t-3.5 -23l-979 -1425q-12 -17 -20.5 -24t-22.5 -7h-233q-16 0 -22 8zM137 1274l2 22q9 82 67.5 136.5t141.5 54.5h27q83 0 130 -54.5t38 -136.5l-2 -22q-7 -83 -65.5 -136t-141.5 -53h-27q-83 0 -130.5 53 t-39.5 136zM309 1282q-3 -12 4 -18.5t19 -6.5h6q25 0 31 25v6q0 27 -25 27h-6q-29 0 -29 -27v-6zM748 188l2 23q8 82 65.5 136t140.5 54h27q83 0 130.5 -54t39.5 -136l-2 -23q-9 -83 -67.5 -135.5t-141.5 -52.5h-27q-83 0 -129.5 52.5t-37.5 135.5zM918 197q-3 -25 22 -25h6 q28 0 31 25v6q6 26 -25 26h-6q-22 0 -28 -26v-6z" />
<glyph unicode="&#x26;" horiz-adv-x="1478" d="M63 381l11 104q6 42 18 76.5t36 72.5t66.5 73.5t102.5 68.5l-45 51q-18 20 -30.5 40.5t-18.5 45t-10 40t-2 44.5t2 37t5 39.5t5 32.5l4 39q14 147 134.5 256.5t291.5 109.5h135q114 0 199 -52.5t123.5 -135.5t29.5 -178l-4 -39q-8 -57 -46 -122t-89 -105l-74 -56 q-22 -16 -51 -16h-201q-21 0 -27 14.5t11 24.5l57 33q59 37 100 92t48 110l6 64q6 56 -24.5 76t-108.5 20h-86q-79 0 -113.5 -20t-40.5 -76l-6 -64q-1 -7 -4 -26t-3.5 -25t-1 -21.5t1.5 -23l6 -22.5t11.5 -26.5t18.5 -27t26 -32.5l318 -349l4 33q5 44 29 91t59 69l113 80 q2 2 5.5 5t5 4.5t4.5 3.5t5.5 3t6 1.5t7.5 0.5h217q20 0 27 -12.5t-6 -24.5l-152 -108q-10 -8 -18 -16.5t-13.5 -20t-9 -19t-6 -23.5t-3.5 -21.5t-3 -24.5t-2 -23l-12 -120q-6 -64 -31 -125l221 -244q12 -12 5 -24.5t-27 -12.5h-252q-19 0 -35 16l-55 62 q-125 -109 -281 -109h-217q-176 0 -281 119.5t-86 292.5zM334 381q-2 -19 4.5 -41.5t21.5 -45.5t47 -38.5t76 -15.5h168q61 0 103 30l-283 316l-76 -37q-10 -5 -18 -12t-13.5 -13t-9.5 -15.5t-6.5 -15t-4 -16.5t-2 -14.5t-1 -14.5t-0.5 -12z" />
<glyph unicode="'" horiz-adv-x="593" d="M166 856l63 600q3 31 33 31h225q32 0 29 -31l-63 -600q-3 -31 -35 -31h-225q-30 0 -27 31z" />
<glyph unicode="(" horiz-adv-x="757" d="M80 242l106 1003q19 173 120.5 279t254.5 106h127q30 0 27 -31l-23 -208q-3 -31 -33 -31h-28q-102 0 -137.5 -43t-47.5 -170l-86 -807q-10 -81 -1.5 -128t40 -66t101.5 -19h28q32 0 29 -31l-22 -209q-3 -30 -35 -30h-127q-153 0 -232.5 106t-60.5 279z" />
<glyph unicode=")" horiz-adv-x="757" d="M43 -113l23 209q3 31 32 31h29q102 0 137 43t47 170l86 807q10 81 2 128t-39.5 66t-101.5 19h-29q-31 0 -28 31l22 208q3 31 35 31h127q153 0 232.5 -106t60.5 -279l-107 -1003q-19 -173 -120.5 -279t-253.5 -106h-127q-30 0 -27 30z" />
<glyph unicode="*" horiz-adv-x="808" d="M168 1126q-14 31 18 45l86 39l-79 37q-23 17 -7 45l93 127q17 26 47 11l39 -48l8 72q3 33 33 33h151q34 0 31 -33l-8 -72l49 48q29 16 41 -11l65 -127q17 -26 -14 -45l-86 -37l80 -39q24 -15 4 -45l-92 -127q-16 -28 -45 -10l-39 47l-8 -71q-3 -33 -35 -33h-152 q-32 0 -29 33l9 71l-49 -47q-29 -15 -46 10z" />
<glyph unicode="+" horiz-adv-x="1052" d="M102 557l25 209q3 31 33 31h239l27 258q3 30 35 30h209q29 0 26 -30l-26 -258h237q30 0 27 -31l-25 -209q-3 -31 -35 -31h-233l-27 -260q-6 -30 -34 -30h-209q-33 0 -27 30l27 260h-242q-30 0 -27 31z" />
<glyph unicode="," horiz-adv-x="540" d="M27 31l26 243q3 31 35 31h266q30 0 27 -31l-31 -282q-20 -206 -157 -346q-12 -12 -19.5 -12.5t-21.5 12.5l-76 73q-24 24 -2 43q49 43 68 93t28 125l18 20h-133q-31 0 -28 31z" />
<glyph unicode="-" horiz-adv-x="888" d="M109 414l22 209q3 30 35 30h541q29 0 26 -30l-22 -209q-3 -31 -35 -31h-541q-29 0 -26 31z" />
<glyph unicode="." horiz-adv-x="471" d="M6 31l27 241q3 31 33 31h245q32 0 29 -31l-27 -241q-3 -31 -32 -31h-246q-32 0 -29 31z" />
<glyph unicode="/" horiz-adv-x="954" d="M-33.5 8q-5.5 8 2.5 23l774 1425q15 31 43 31h222q15 0 20 -8t-2 -23l-774 -1425q-19 -31 -43 -31h-221q-16 0 -21.5 8z" />
<glyph unicode="0" d="M86 461l57 559q22 202 163.5 345.5t318.5 143.5h108q116 0 208.5 -65.5t138.5 -178t32 -245.5l-57 -559q-22 -202 -164.5 -346t-319.5 -144h-108q-116 0 -208 65.5t-137.5 178.5t-31.5 246zM352 428q-8 -85 31.5 -147.5t120.5 -63.5h80q83 0 135.5 63t60.5 148l68 625 q8 85 -31.5 148t-122.5 63h-80q-82 0 -135 -63.5t-61 -147.5z" />
<glyph unicode="1" horiz-adv-x="960" d="M197 1182q-17 18 6 41l284 254l7 4q6 6 20 6h203q31 0 28 -31l-151 -1425q-3 -31 -33 -31h-203q-31 0 -28 31l112 1067l-69 -64q-8 -9 -21 -9.5t-24 9.5z" />
<glyph unicode="2" horiz-adv-x="1159" d="M29 31q7 66 12.5 107.5t14.5 97.5t18 92t23.5 81t31.5 75.5t41 64.5t53.5 58.5t67 47.5t82.5 41l286 111q32 13 56 26t40.5 24.5t28 29t18 29t10.5 35t5.5 37t3.5 45t4 50.5q10 75 -26 124.5t-117 49.5h-86q-76 0 -125.5 -51t-58.5 -129l-4 -35q-3 -30 -33 -30h-207 q-32 0 -29 30l4 35q10 99 56.5 181t114 134t147.5 80.5t162 30.5h86q84 0 158.5 -29t128.5 -81.5t81.5 -133t16.5 -176.5q-10 -94 -24 -158.5t-37.5 -118.5t-61.5 -92t-90 -68.5t-129 -59.5l-242 -92q-53 -20 -87 -44.5t-51 -58.5t-24 -63.5t-12 -81.5h622q32 0 29 -31 l-20 -184q-3 -31 -33 -31h-877q-31 0 -28 31z" />
<glyph unicode="3" horiz-adv-x="1148" d="M57 391l4 39q3 31 33 31h209q32 0 29 -31l-4 -39q-5 -52 38.5 -108t118.5 -56h72q81 0 134.5 55.5t58.5 118.5q11 113 -19.5 166.5t-126.5 59.5h-151q-32 0 -29 30l20 201q3 31 35 31h152q49 3 80.5 17.5t49 45t25 62t13.5 86.5q8 73 -22 119.5t-109 46.5h-74 q-75 0 -127 -60t-59 -123l-5 -39q-3 -30 -32 -30h-209q-32 0 -29 30l4 39q14 123 86.5 223t174 152.5t206.5 52.5h88q110 0 201.5 -52.5t140 -144t37.5 -198.5q-17 -158 -82.5 -243.5t-179.5 -112.5q111 -28 168.5 -123t38.5 -260q-17 -174 -162 -284.5t-322 -110.5h-86 q-80 0 -154 29t-130.5 80.5t-85.5 130t-19 169.5z" />
<glyph unicode="4" horiz-adv-x="1128" d="M29 569q-7 31 10 54l641 864q16 22 43 22h246q20 0 24.5 -11t-8.5 -30l-553 -743h211l23 207q3 31 32 31h209q32 0 29 -31l-23 -207h91q31 0 28 -31l-20 -184q-3 -31 -33 -31h-90l-49 -448q-3 -31 -33 -31h-209q-32 0 -29 31l49 448h-546q-26 0 -31 21z" />
<glyph unicode="5" horiz-adv-x="1163" d="M66 393l4 33q3 31 32 31h211q32 0 29 -31l-4 -33q-8 -77 21 -120.5t114 -43.5h88q86 0 138 47.5t65 139.5q44 268 -158 268h-35q-19 0 -37 -1.5t-32 -3.5t-28 -6t-23 -6.5t-20 -8.5l-16.5 -9t-15 -10t-12 -9t-11 -9.5t-9.5 -8.5h-228q-31 0 -28 31l4 39l104 774 q3 31 33 31h799q31 0 28 -31l-20 -186q-3 -31 -33 -31h-567l-53 -338q30 15 66 22t60.5 8t71.5 1h39q97 0 175.5 -31t134.5 -92t79.5 -161t5.5 -228q-15 -107 -63.5 -192.5t-118.5 -138t-151.5 -80t-167.5 -27.5h-88q-116 0 -207.5 49.5t-140 144.5t-35.5 217z" />
<glyph unicode="6" horiz-adv-x="1163" d="M80 420q3 308 80 676q38 181 163 298t306 117h86q88 0 163 -31.5t126.5 -87t77 -135t16.5 -170.5l-4 -24q-3 -31 -33 -31h-207q-32 0 -29 31l4 24q7 81 -35.5 130t-103.5 49h-82q-55 0 -107 -46t-73 -120q-18 -89 -27 -172q36 11 106.5 22t117.5 11h24 q219 0 318.5 -144.5t64.5 -386.5q-16 -111 -63.5 -198t-115.5 -141t-149 -81.5t-169 -27.5h-80q-177 0 -277.5 115t-97.5 323zM348 422q-1 -51 15 -92t40 -61.5t44 -31t32 -10.5h80q64 0 125.5 48.5t77.5 148.5q12 87 10 151.5t-37.5 101t-107.5 36.5h-43q-52 0 -87.5 -5 t-62 -19.5t-41.5 -33.5t-25 -55t-14 -75.5t-6 -102.5z" />
<glyph unicode="7" horiz-adv-x="1165" d="M86 43q106 318 280.5 606t440.5 590h-631q-32 0 -29 31l21 186q3 31 33 31h919q32 0 29 -31l-16 -147q-2 -26 -15 -47q-295 -343 -480 -630.5t-288 -596.5q-4 -13 -18.5 -24t-28.5 -11h-190q-17 0 -23.5 13.5t-3.5 29.5z" />
<glyph unicode="8" horiz-adv-x="1173" d="M43 350l10 96q11 106 73.5 193.5t154.5 122.5q-144 63 -117 325l6 62q15 152 126.5 257t274.5 105h191q163 0 253 -105t75 -257l-7 -62q-12 -122 -59 -207t-127 -118q83 -35 128 -122.5t34 -193.5l-10 -96q-15 -146 -146.5 -257t-296.5 -111h-198q-165 0 -272.5 110.5 t-92.5 257.5zM317 383q-6 -56 33.5 -106t98.5 -50h165q59 0 110.5 50t57.5 106l9 94q8 58 -31.5 113t-93.5 55h-181q-55 0 -103 -54t-56 -114zM430 1038q-8 -59 22 -103t89 -44h125q57 0 96 44t47 103l8 88q5 54 -26.5 97t-85.5 43h-125q-55 0 -95.5 -43t-46.5 -97z" />
<glyph unicode="9" horiz-adv-x="1165" d="M145 406l5 24q3 31 32 31h207q32 0 29 -31l-4 -24q-7 -81 35.5 -130t103.5 -49h82q55 0 107 46t73 120q18 89 27 172q-36 -11 -106.5 -22t-117.5 -11h-24q-219 0 -318.5 144.5t-64.5 386.5q16 111 63.5 198t116 141t149.5 81.5t169 27.5h79q177 0 277.5 -115t97.5 -323 q-3 -308 -80 -676q-38 -181 -163 -298t-306 -117h-86q-88 0 -163 31.5t-126.5 87t-77 135t-16.5 170.5zM471 917.5q2 -64.5 37.5 -101t107.5 -36.5h43q52 0 87.5 5t62 19.5t41.5 33.5t25 55t14 75.5t6 102.5q1 51 -15 92t-40 61.5t-44 31t-32 10.5h-80q-64 0 -125.5 -48.5 t-77.5 -148.5q-12 -87 -10 -151.5z" />
<glyph unicode=":" horiz-adv-x="649" d="M78 31l28 274q3 31 35 31h281q30 0 27 -31l-29 -274q-3 -31 -33 -31h-281q-31 0 -28 31zM145 657l29 275q3 31 33 31h280q32 0 29 -31l-31 -275q-3 -30 -34 -30h-279q-30 0 -27 30z" />
<glyph unicode=";" horiz-adv-x="647" d="M78 31l28 266q3 31 35 31h281q30 0 27 -31l-35 -307q-9 -96 -54 -205t-129 -195q-13 -13 -21.5 -12.5t-21.5 16.5l-86 95q-25 25 -2 45t40 44t26 41.5t16.5 51.5t9.5 48.5t7 57.5l20 23h-113q-31 0 -28 31zM145 657l29 275q3 31 33 31h280q32 0 29 -31l-31 -275 q-3 -30 -34 -30h-279q-30 0 -27 30z" />
<glyph unicode="&#x3c;" horiz-adv-x="983" d="M96 483q7 86 47 105l703 336q15 7 24 1.5t7 -18.5l-21 -217q-8 -41 -27 -49l-350 -158l316 -157q20 -9 16 -50l-23 -217q-2 -13 -11 -18t-23 2l-631 336q-37 21 -27 104z" />
<glyph unicode="=" horiz-adv-x="929" d="M82 354l18 185q3 30 35 30h623q29 0 26 -30l-18 -185q-3 -30 -35 -30h-622q-30 0 -27 30zM115 672l20 184q3 31 33 31h623q31 0 28 -31l-20 -184q-3 -31 -33 -31h-623q-31 0 -28 31z" />
<glyph unicode="&#x3e;" horiz-adv-x="983" d="M51 59l23 217q4 41 24 50l353 157l-318 158q-22 10 -14 49l20 217q2 12 12.5 18t22.5 -1l631 -336q36 -19 29 -105q-5 -43 -15.5 -68t-34.5 -36l-702 -336q-13 -7 -23 -1.5t-8 17.5z" />
<glyph unicode="?" horiz-adv-x="1015" d="M102 1042l4 39q21 199 151.5 315.5t299.5 116.5h86q84 0 154.5 -29.5t120.5 -83.5t74 -135t14 -178q-4 -39 -11.5 -72t-15 -58.5t-21 -48t-24 -38t-30 -31.5t-33 -25.5t-39 -22.5t-40.5 -20t-46.5 -20.5t-49.5 -21.5q-9 -4 -29.5 -13.5t-30.5 -15.5t-24 -16t-20.5 -22 t-7.5 -27l-6 -55q-3 -31 -35 -31h-209q-30 0 -27 31l10 104q4 38 11.5 66t26.5 53t38.5 42.5t62 40t82 40t111.5 47.5q53 23 67 44.5t19 69.5q4 46 -2.5 78t-35.5 55t-83 23h-86q-70 0 -105.5 -49t-43.5 -113l-4 -39q-3 -30 -33 -30h-211q-32 0 -29 30zM238 31l30 282 q3 31 35 31h229q30 0 27 -31l-31 -282q-3 -31 -32 -31h-230q-31 0 -28 31z" />
<glyph unicode="@" horiz-adv-x="1429" d="M96 485l54 514q25 234 190 373t412 139h94q239 0 375.5 -137t113.5 -360l-55 -529q-10 -96 -51.5 -154.5t-122.5 -58.5h-125q-36 0 -60.5 13.5t-32 25t-16.5 31.5q-13 -22 -91 -47t-148 -25h-21q-111 0 -176 86t-53 209q13 137 86 211t231 74h121l2 18q6 46 -21 76.5 t-61 30.5h-34q-88 0 -156 -51q-11 -10 -24 -10.5t-21 10.5l-57 112q-14 25 2 41q60 60 128.5 89.5t168.5 29.5h51q126 0 188 -82.5t45 -253.5l-18 -168l-8 -78l-9 -63q0 -15 0.5 -19t3 -12.5t9 -11t18.5 -2.5q20 0 27.5 11t9.5 34l43 422q20 160 -67.5 238.5t-264.5 78.5 q-169 0 -279 -78.5t-128 -236.5l-50 -461q-18 -163 77.5 -241t267.5 -78h69q81 0 160 47q40 22 37 -17l-21 -174q0 -25 -24 -37q-93 -41 -176 -41h-119q-249 0 -384.5 135t-109.5 377zM588 565q-4 -31 14.5 -51t40.5 -20h21q61 0 98 25t31 65l6 45h-137q-71 0 -74 -64z" />
<glyph unicode="A" horiz-adv-x="1286" d="M16 33l592 1427q13 33 41 33h164q30 0 37 -33l291 -1427q0 -33 -29 -33h-213q-33 0 -39 33l-57 325h-383l-127 -325q-11 -33 -43 -33h-215q-23 0 -23 16q0 7 4 17zM512 594h250l-78 440z" />
<glyph unicode="B" d="M59 37l148 1413q6 37 41 37h487q175 0 279 -105q87 -88 87 -225q0 -27 -3 -55q-24 -246 -201 -338q93 -42 135 -138q31 -71 31 -164q0 -33 -4 -69q-20 -190 -141.5 -291.5t-323.5 -101.5h-502q-34 0 -34 28q0 4 1 9zM350 246h217q98 0 157 47t69 141q1 15 1 28 q0 76 -43 122q-51 52 -143 53h-217zM420 883h215q93 0 136.5 45t53.5 133q1 13 1 24q0 61 -34 105q-41 52 -114 51h-221z" />
<glyph unicode="C" horiz-adv-x="1165" d="M76 465l57 557q23 220 157.5 353.5t327.5 133.5h95q186 0 291 -132q89 -112 88 -279q0 -30 -2 -62q-3 -30 -35 -30h-209q-32 0 -29 30q3 31 3 57q0 65 -20 99q-30 48 -114 47h-94q-91 0 -133.5 -48.5t-55.5 -168.5l-57 -557q-4 -37 -4 -68q0 -69 22 -103q32 -50 121 -50 h95q84 0 124.5 48.5t51.5 158.5q3 30 37 30h208q30 0 27 -30q-23 -210 -157 -344t-320 -134h-94q-193 -1 -299 135q-87 111 -86 281q0 36 4 76z" />
<glyph unicode="D" horiz-adv-x="1167" d="M43 31l152 1425q3 31 32 31h490q110 0 201 -65q92 -64 140 -176q37 -86 37 -183q0 -28 -3 -57l-54 -525q-14 -128 -85.5 -239.5t-176.5 -176.5t-215 -65h-489q-29 0 -29 26v5zM336 246h201q106 0 161 53t70 182l53 525q4 33 4 61q-1 81 -33 121q-44 54 -149 53h-201z" />
<glyph unicode="E" horiz-adv-x="1146" d="M72 31l151 1425q3 31 33 31h809q29 0 29 -26v-5l-21 -184q-3 -31 -33 -31h-569l-41 -369h436q32 0 29 -30l-21 -185q-3 -30 -32 -30h-436l-41 -381h569q32 0 29 -31l-21 -184q-3 -31 -33 -31h-809q-28 0 -28 26v5z" />
<glyph unicode="F" horiz-adv-x="1105" d="M72 31l151 1425q3 31 33 31h809q29 0 29 -26v-5l-25 -209q-3 -30 -31 -30h-569l-37 -353h436q28 0 25 -30l-21 -209q-6 -31 -34 -31h-437l-59 -563q-3 -31 -33 -31h-209q-28 0 -28 26v5z" />
<glyph unicode="G" horiz-adv-x="1179" d="M84 467l57 555q23 220 158 353.5t328 133.5h94q186 0 291 -132q89 -112 89 -279q0 -30 -3 -62q-3 -30 -35 -30h-209q-32 0 -29 30q4 33 4 61q0 69 -23 109q-31 58 -118 58h-78q-94 0 -139 -58.5t-59 -183.5l-58 -555q-4 -38 -4 -69q0 -75 23 -118q33 -61 127 -61h78 q87 0 130 58.5t56 171.5l6 63h-149q-30 0 -27 31l18 184q3 31 35 31h391q30 0 27 -31l-29 -278q-22 -209 -156.5 -342.5t-320.5 -133.5h-94q-193 0 -299 136q-86 112 -86 281q0 37 4 77z" />
<glyph unicode="H" horiz-adv-x="1210" d="M57 31l152 1425q3 31 33 31h209q31 0 28 -31l-65 -625h403l66 625q3 31 32 31h209q29 0 29 -26v-5l-152 -1425q-3 -31 -32 -31h-209q-32 0 -29 31l60 555h-404l-59 -555q-3 -31 -33 -31h-209q-29 0 -29 26v5z" />
<glyph unicode="I" horiz-adv-x="532" d="M43 31l152 1425q3 31 32 31h213q29 0 30 -26q0 -2 -1 -5l-152 -1425q-3 -31 -32 -31h-213q-29 0 -29 26v5z" />
<glyph unicode="J" horiz-adv-x="1165" d="M35 258q-1 4 -1 9q0 16 21 32l166 104q19 12 35 -18q56 -88 110 -121t144 -33q102 0 161.5 69.5t73.5 191.5l103 964q3 31 33 31h209q28 0 28 -26v-5l-104 -989q-12 -117 -61.5 -210.5t-123 -151.5t-162 -88.5t-184.5 -30.5q-161 0 -286 71.5t-162 200.5z" />
<glyph unicode="K" horiz-adv-x="1253" d="M47 31l152 1425q3 31 32 31h209q32 0 29 -31l-59 -561l440 565q23 27 39 27h268q10 0 14 -7q2 -4 2 -11q-1 -4 -1 -8q-2 -12 -11 -25l-487 -621l418 -766q9 -12 5.5 -30.5t-22.5 -18.5h-252q-35 0 -53 29l-328 614l-67 -70l-58 -542q-3 -31 -32 -31h-209q-29 0 -29 26v5z " />
<glyph unicode="L" horiz-adv-x="1116" d="M53 31l152 1425q3 31 33 31h208q32 0 29 -31l-129 -1210h586q29 0 30 -26q0 -2 -1 -5l-21 -184q-3 -31 -33 -31h-825q-29 0 -29 26v5z" />
<glyph unicode="M" horiz-adv-x="1529" d="M43 31l152 1425q3 31 32 31h269q33 0 39 -31l196 -940l395 940q12 31 43 31h269q28 0 28 -26v-5l-151 -1425q-3 -31 -33 -31h-209q-32 0 -29 31l91 854l-361 -854q-12 -31 -41 -31h-115q-30 0 -36 31l-179 854l-90 -854q-3 -31 -32 -31h-209q-29 0 -29 26v5z" />
<glyph unicode="N" horiz-adv-x="1292" d="M43 31l152 1425q3 31 32 31h219q26 0 35 -23l381 -919l96 911q3 31 33 31h209q29 0 29 -26v-5l-152 -1425q-3 -31 -33 -31h-219q-25 0 -34 23l-381 946l-97 -938q-3 -31 -32 -31h-209q-29 0 -29 26v5z" />
<glyph unicode="O" d="M86 461l57 559q22 202 163.5 345.5t318.5 143.5h108q116 0 208.5 -65.5t138.5 -177.5q35 -86 35 -185q0 -30 -3 -61l-57 -559q-22 -202 -164.5 -346t-319.5 -144h-108q-116 0 -208 65q-91 66 -137 179q-35 86 -35 185q0 30 3 61zM352 428q-1 -14 -1 -28q1 -68 33 -120 q40 -62 120 -63h80q83 0 135.5 63t60.5 148l68 625q1 14 1 28q-1 68 -33 120q-40 63 -122 63h-80q-82 0 -135 -63.5t-61 -147.5z" />
<glyph unicode="P" horiz-adv-x="1114" d="M53 31l152 1425q3 31 33 31h487q183 0 279 -117q79 -95 79 -243q0 -34 -4 -70q-20 -197 -141 -315.5t-303 -118.5h-248l-63 -592q-3 -31 -33 -31h-209q-29 0 -29 26v5zM412 868h209q167 0 188 189q2 21 2 39q0 72 -32 104q-40 40 -120 41h-208z" />
<glyph unicode="Q" horiz-adv-x="1200" d="M8 461l58 559q22 202 163 345.5t318 143.5h108q116 0 208.5 -65.5t138.5 -177.5q35 -87 35 -185q0 -30 -3 -61l-57 -559q-12 -110 -59 -199l86 -96q19 -22 -7 -45l-159 -146q-12 -11 -23 -11t-20 11l-64 72q-116 -76 -237 -76h-109q-116 0 -208 65.5t-137 178.5 q-35 86 -35 185q0 30 3 61zM274 428q-1 -14 -1 -28q0 -68 33 -120q39 -62 120 -63h80q30 0 63 10l-34 39q-22 22 4 45l161 146l7 4l63 592q1 14 1 28q0 68 -33 120q-39 63 -122 63h-79q-82 0 -135.5 -63.5t-61.5 -147.5z" />
<glyph unicode="R" horiz-adv-x="1173" d="M59 31l152 1425q3 31 33 31h487q183 0 279 -117q79 -95 79 -243q0 -34 -4 -70q-23 -216 -190 -320q132 -73 132 -278q0 -38 -5 -80l-37 -348q-2 -14 -11 -22.5t-22 -8.5h-209q-14 0 -21.5 9t-6.5 22l30 268q1 7 3.5 36t4.5 48.5t2 52t-4 55.5t-13.5 49.5t-24.5 43 t-40.5 28t-58.5 11.5h-221l-63 -592q-3 -31 -33 -31h-209q-29 0 -29 26v5zM418 868h205q81 0 131 41.5t61 147.5q2 21 2 39q0 75 -33 106q-41 39 -122 39h-205z" />
<glyph unicode="S" horiz-adv-x="1179" d="M76 385l6 59q3 31 33 31h211q31 0 28 -31l-4 -59q0 -4 -1 -8q1 -61 43 -109q44 -51 120 -51h49q83 0 138 52.5t61 123.5q4 25 4 50v22q-2 37 -11.5 68t-39.5 55t-80 33l-119 20q-180 32 -277 160q-80 106 -80 246q0 29 3 59q19 177 148.5 290t309.5 113h93q107 0 197 -55 t140 -155q39 -79 39 -171q0 -24 -2 -49l-4 -39q-3 -30 -32 -30h-211q-32 0 -29 30l4 39q1 12 1 23q0 57 -33 105q-40 57 -113 57h-64q-76 0 -123.5 -55.5t-52.5 -114.5q-3 -31 -2 -55q0 -38 6 -60q23 -74 123 -92l119 -21q172 -28 274 -158q86 -108 85 -257q0 -29 -3 -60 q-13 -120 -83.5 -217.5t-174 -150t-217.5 -52.5h-82q-115 0 -211 52q-95 53 -147 149q-42 77 -42 167q0 23 3 46z" />
<glyph unicode="T" horiz-adv-x="1124" d="M121 1272l20 184q3 31 33 31h899q29 0 30 -26q0 -2 -1 -5l-21 -184q-3 -31 -32 -31h-314l-129 -1210q-3 -31 -33 -31h-208q-32 0 -29 31l129 1210h-315q-29 0 -29 26v5z" />
<glyph unicode="U" horiz-adv-x="1171" d="M86 446l107 1010q3 31 32 31h209q32 0 29 -31l-103 -960q0 -30 -2 -66q0 -5 -1 -10q1 -32 9 -62q10 -36 25.5 -63.5t48.5 -45.5t78 -18h37q56 0 97.5 26t64 69.5t34 84t15.5 85.5l102 960q3 31 33 31h209q29 0 29 -26v-5l-107 -1010q-22 -199 -160.5 -329.5 t-334.5 -130.5h-54q-195 0 -307 131q-93 109 -94 266q0 30 4 63z" />
<glyph unicode="V" horiz-adv-x="1222" d="M168 1454v5q0 28 29 28h217q29 0 32 -33l132 -1022l346 1022q14 33 41 33h217q24 0 24 -17q0 -7 -4 -16l-540 -1421q-16 -33 -44 -33h-169q-14 0 -24 9t-11 24z" />
<glyph unicode="W" horiz-adv-x="1900" d="M170 1456v5q0 26 27 26h225q32 0 35 -31l63 -924l379 924q12 31 41 31h176q31 0 37 -31l184 -924l258 924q9 31 37 31h226q26 0 26 -19q0 -5 -2 -12l-450 -1425q-8 -31 -41 -31h-160q-29 0 -37 31l-221 940l-418 -940q-13 -31 -41 -31h-160q-34 0 -37 31z" />
<glyph unicode="X" horiz-adv-x="1138" d="M18 8q-2 3 -3 8q0 6 5 15l408 712l-256 713q-6 15 0.5 23t22.5 8h221q27 0 39 -31l147 -409l234 409q19 31 43 31h221q16 0 21 -8q2 -3 2 -7q0 -7 -5 -16l-407 -713l256 -712q6 -15 -0.5 -23t-22.5 -8h-221q-27 0 -39 31l-147 409l-234 -409q-19 -31 -43 -31h-221 q-15 0 -21 8z" />
<glyph unicode="Y" horiz-adv-x="1239" d="M147 1456q-3 7 -3 13t4 10q6 8 22 8h227q27 0 39 -31l187 -522l301 522q19 31 43 31h227q16 0 21 -8q2 -3 2 -7q0 -7 -5 -16l-485 -803l-65 -622q-3 -31 -33 -31h-209q-32 0 -29 31l66 622z" />
<glyph unicode="Z" horiz-adv-x="1107" d="M27 31l10 90q0 13 10 43l680 1077h-541q-31 0 -28 31l20 184q3 31 33 31h842q28 0 28 -26v-5l-10 -90q0 -13 -10 -43l-680 -1077h541q31 0 28 -31l-20 -184q-3 -31 -33 -31h-842q-28 0 -28 26v5z" />
<glyph unicode="[" horiz-adv-x="743" d="M43 -113l180 1712q3 31 35 31h416q29 0 26 -31l-22 -208q-3 -31 -33 -31h-176l-131 -1233h176q32 0 29 -31l-23 -209q-3 -30 -35 -30h-415q-30 0 -27 30z" />
<glyph unicode="\" horiz-adv-x="952" d="M78 1456q-9 31 22 31h222q29 0 38 -31l471 -1425q12 -31 -22 -31h-221q-27 0 -39 31z" />
<glyph unicode="]" horiz-adv-x="743" d="M43 -113l23 209q3 31 32 31h176l132 1233h-177q-31 0 -28 31l22 208q3 31 35 31h416q29 0 26 -31l-180 -1712q-3 -30 -35 -30h-415q-30 0 -27 30z" />
<glyph unicode="^" horiz-adv-x="950" d="M126 940q-5 8 3 23l320 493q2 2 6.5 8l6 8t5.5 6t7 5l7.5 2.5t10.5 1.5h122q16 0 24 -7.5t15 -23.5l213 -493q12 -31 -22 -31h-221q-28 0 -39 31l-70 165l-102 -165q-16 -31 -43 -31h-222q-16 0 -21 8z" />
<glyph unicode="_" horiz-adv-x="1234" d="M27 31l22 209q3 30 33 30h930q31 0 28 -30l-22 -209q-3 -31 -33 -31h-930q-31 0 -28 31z" />
<glyph unicode="`" horiz-adv-x="645" d="M199 1602q-14 36 24 36h213q30 0 39 -36l115 -379q4 -17 -3 -27t-22 -10h-188q-26 0 -39 37z" />
<glyph unicode="a" horiz-adv-x="976" d="M43 303q14 146 114 228.5t234 82.5h205l2 17v7q0 30 -25 57q-28 30 -73 30h-56q-17 0 -33 -2.5t-31 -7.5t-25.5 -9t-24.5 -12.5t-20 -12.5t-19 -13.5t-15 -10.5q-12 -6 -27.5 -3.5t-21.5 14.5l-80 125q-19 27 0 43q62 59 149.5 96t188.5 37h78q84 0 155 -45 q72 -44 112 -128q32 -66 32 -143q0 -21 -2 -43l-59 -561q0 -23 2 -31q0 -18 -8 -18h-224q-17 0 -26.5 13.5t-7.5 35.5v6q-83 -57 -164 -57h-64q-118 0 -198 90q-70 78 -70 183q0 16 2 32zM307 307q-1 -5 -1 -9q0 -21 12 -37q14 -19 47 -19h86h8q33 0 55 8q24 8 47 29l10 94 h-192q-28 0 -48.5 -20.5t-23.5 -45.5z" />
<glyph unicode="b" horiz-adv-x="993" d="M53 31l152 1425q3 31 33 31h202q32 0 29 -31l-55 -522q53 29 108 29h62q96 0 172.5 -52.5t114.5 -137.5q30 -67 30 -141q0 -20 -2 -40l-25 -242q-15 -140 -135.5 -245t-255.5 -105h-61q-56 0 -105 27q-6 -27 -32 -27h-203q-29 0 -29 26v5zM350 340l6 4q-4 -20 -4 -35 q0 -28 13 -43q20 -22 67 -22h78q46 0 69.5 16t26.5 59l35 304v11q-1 38 -19 60q-22 24 -61 25h-78q-36 0 -63 -22t-39 -66z" />
<glyph unicode="c" horiz-adv-x="960" d="M55 365l25 233q15 150 132 260.5t271 110.5h78q131 0 222 -91q84 -84 84 -184q0 -9 -1 -18q-3 -13 -4.5 -19t-8 -12t-17.5 -6h-201q-30 0 -33 29q-9 29 -23.5 43t-50.5 14h-69q-40 0 -75.5 -37.5t-39.5 -87.5l-27 -238q-1 -9 -1 -17q0 -39 23 -68q28 -35 69 -35h84 q20 0 39.5 10.5t29.5 19.5t30 32t25 28q13 14 30.5 14t29.5 -12l121 -117q21 -21 2 -43q-33 -35 -52 -54t-53.5 -46t-65 -41t-75 -24.5t-94.5 -10.5h-78q-155 0 -249 108q-80 92 -80 214q0 22 3 45z" />
<glyph unicode="d" horiz-adv-x="1019" d="M63 350l25 242q15 147 131 259t262 112h62q55 0 104 -27l55 520q3 31 33 31h203q29 0 29 -26v-5l-152 -1425q-3 -31 -33 -31h-202q-29 0 -29 23q-57 -23 -109 -23h-61q-87 0 -164 47t-121 129q-35 67 -35 140q0 17 2 34zM322 319q0 -6 -1 -11q-1 -34 17 -48 q20 -16 65 -16h78q92 0 103 80l30 305q-6 90 -82 90h-77q-41 0 -68.5 -25t-30.5 -71z" />
<glyph unicode="e" horiz-adv-x="966" d="M55 365l25 233q15 150 132 260.5t271 110.5h78q65 0 125 -28t104 -76t66 -118q17 -52 16 -107q0 -20 -2 -40l-14 -143q-6 -62 -68 -62h-458l-8 -61q-1 -9 -2 -17q0 -32 20 -51q24 -24 68 -24h77q70 0 136 73q15 14 34 15t33 -11l107 -102q21 -21 2 -43q-39 -42 -66.5 -67 t-70 -53.5t-93 -42t-110.5 -13.5h-76q-155 0 -249 108q-80 92 -80 214q0 22 3 45zM350 610h250l2 29v8q0 27 -16 51q-20 27 -56 27h-79q-37 0 -66.5 -27.5t-32.5 -60.5z" />
<glyph unicode="f" horiz-adv-x="761" d="M82 750l20 182q3 31 33 31h119l16 161q19 171 118.5 267t254.5 96h135q29 0 29 -26v-5l-21 -182q-3 -31 -32 -31h-136q-71 0 -79 -90l-21 -190h184q32 0 29 -31l-20 -182q-3 -31 -33 -31h-184l-74 -688q-3 -31 -33 -31h-203q-31 0 -28 31l71 688h-116q-29 0 -29 26v5z " />
<glyph unicode="g" horiz-adv-x="1005" d="M27 -223q-2 5 -2 10q0 20 34 43l115 74q26 15 43 12.5t27 -16.5q50 -66 139 -66h51q41 0 67 24t31 62l11 92q-70 -14 -90 -14h-58q-159 0 -254 108q-81 92 -81 214q0 22 3 45l25 233q15 152 132 261.5t274 109.5h45q72 0 125 -58l4 21q1 14 9.5 22.5t18.5 8.5h178 q29 0 29 -26v-5l-110 -1036q-12 -121 -126 -213.5t-249 -92.5h-60q-248 0 -331 187zM328 365q-1 -10 -1 -19q0 -37 19 -67q25 -37 62 -37h69q40 0 71.5 17t24.5 44l37 361v5q0 21 -22 39q-25 19 -60 19h-67q-36 0 -71 -40t-38 -89z" />
<glyph unicode="h" horiz-adv-x="1044" d="M45 31l152 1425q3 31 32 31h203q32 0 29 -31l-62 -569q10 24 66 50t108 26h52q160 0 229 -104q53 -81 54 -196q0 -33 -5 -69l-57 -563q-3 -31 -33 -31h-203q-31 0 -28 31l61 569q1 8 1 16q0 39 -20 68q-24 35 -69 35h-63q-49 0 -83 -36t-40 -91l-60 -561q-3 -31 -33 -31 h-202q-29 0 -29 26v5z" />
<glyph unicode="i" horiz-adv-x="524" d="M53 31l97 903q3 31 32 31h203q32 0 29 -31l-97 -903q-3 -31 -32 -31h-203q-29 0 -29 26v5zM180 1204l27 252q3 31 33 31h202q29 0 30 -26q0 -2 -1 -5l-27 -252q-3 -30 -34 -30h-205q-25 0 -25 24v6z" />
<glyph unicode="j" horiz-adv-x="612" d="M-51 -317q-2 7 -2 13q0 18 24 25q58 21 105 68t53 105l111 1040q3 31 32 31h203q32 0 29 -31l-111 -1061q-17 -144 -112.5 -253t-235.5 -144q-6 -2 -11 -2q-16 0 -26 22zM268 1204l27 252q3 31 33 31h202q29 0 29 -26v-5l-27 -252q-3 -30 -34 -30h-205q-25 0 -25 24v6z " />
<glyph unicode="k" horiz-adv-x="1040" d="M74 31l151 1425q3 31 33 31h203q31 0 28 -31l-79 -756l200 238q25 25 47 25h240q10 0 17 -9.5t4 -25.5t-17 -31l-354 -369l371 -473q7 -12 7 -23q0 -7 -3 -14q-7 -18 -27 -18h-233q-30 0 -54 31l-237 301l-33 -301q-3 -31 -33 -31h-203q-28 0 -28 26v5z" />
<glyph unicode="l" horiz-adv-x="522" d="M53 31l152 1425q3 31 33 31h202q29 0 30 -26q0 -2 -1 -5l-152 -1425q-3 -31 -32 -31h-203q-29 0 -29 26v5z" />
<glyph unicode="m" horiz-adv-x="1593" d="M59 31l97 901q3 31 32 31h203q32 0 29 -31l-6 -45q10 23 66.5 49.5t107.5 26.5h53q143 0 221 -91q37 39 108.5 65t153.5 26h54q82 0 141 -28.5t91 -78.5t43 -116q6 -34 6 -73q0 -34 -5 -71l-59 -565q-3 -31 -33 -31h-201q-31 0 -28 31l61 569q1 9 1 17q-1 41 -21 69 q-24 34 -68 33h-64q-49 0 -82.5 -36t-39.5 -91l-60 -561q-3 -31 -33 -31h-202q-32 0 -29 31l51 477l10 92q1 9 1 17q0 41 -20 69q-24 34 -69 33h-63q-49 0 -83 -36t-40 -91l-59 -561q-3 -31 -33 -31h-203q-29 0 -29 26v5z" />
<glyph unicode="n" horiz-adv-x="1024" d="M53 31l97 901q3 31 32 31h201q32 0 29 -31l-4 -45q8 23 64.5 49.5t107.5 26.5h53q82 0 141.5 -29t91.5 -80q30 -52 42 -118q6 -37 7 -77q0 -32 -4 -65l-59 -563q-3 -31 -33 -31h-203q-31 0 -28 31l61 569q1 9 1 18q0 38 -20 66q-24 36 -67 35h-63q-50 0 -83.5 -36 t-39.5 -91l-62 -561q-3 -31 -32 -31h-201q-29 0 -29 26v5z" />
<glyph unicode="o" horiz-adv-x="997" d="M55 360l27 242q14 151 132 259t271 108h90q153 1 248 -107q82 -93 82 -219q0 -20 -2 -41l-24 -242q-17 -151 -135 -256.5t-271 -105.5h-90q-153 0 -249 106q-81 90 -82 211q0 22 3 45zM319 360q-2 -11 -2 -22q0 -37 20 -63q25 -33 71 -33h90q46 0 78 32.5t38 85.5l27 242 q1 9 1 17q0 42 -22 71q-26 35 -71 35h-90q-45 0 -77 -35t-38 -88z" />
<glyph unicode="p" horiz-adv-x="1036" d="M53 -379l140 1311q3 31 32 31h203q32 0 29 -29q56 29 108 29h62q96 0 172.5 -52.5t114.5 -137.5q30 -67 30 -141q0 -20 -2 -40l-24 -242q-15 -140 -136 -245t-256 -105h-61q-56 0 -105 27l-43 -406q-3 -31 -32 -31h-203q-29 0 -29 26v5zM393 340l6 4q-4 -20 -4 -35 q0 -29 13 -43q20 -22 67 -22h78q46 0 69.5 16t26.5 59l35 304v11q0 39 -18 60q-22 25 -62 25h-78q-76 0 -100 -84z" />
<glyph unicode="q" horiz-adv-x="1021" d="M61 350l25 242q15 147 131 259t262 112h62q55 0 104 -27v-4q3 31 33 31h203q28 0 28 -26v-5l-139 -1311q-3 -31 -33 -31h-202q-32 0 -29 31l45 404q-55 -25 -111 -25h-61q-87 0 -164 47t-121 129q-35 67 -35 140q0 17 2 34zM319 319v-11q0 -35 17 -48q19 -16 65 -16h78 q92 0 103 80l30 305q-6 90 -82 90h-77q-41 0 -68.5 -25t-30.5 -71z" />
<glyph unicode="r" horiz-adv-x="862" d="M53 31l97 901q3 31 32 31h203q32 0 29 -31l-6 -49q11 24 63.5 52t108.5 28h57q113 0 184 -64q10 -8 10 -18q0 -12 -16 -25l-141 -133q-13 -16 -45 -6q-10 3 -23.5 3.5t-37.5 -0.5t-38 -1h-34q-50 0 -81.5 -30.5t-37.5 -84.5l-60 -573q-3 -31 -32 -31h-203q-29 0 -29 26v5 z" />
<glyph unicode="s" horiz-adv-x="956" d="M61 280q10 9 25 9h180q37 0 56 -27q1 -1 11 -7.5t17.5 -10t22.5 -7.5t33 -4h69q33 0 60.5 16t29.5 30q2 5 3 11t-3 17.5t-14.5 20.5t-36 18t-63.5 12q-205 18 -287 94q-69 65 -68 183q0 22 2 45q15 139 122 215t269 76h58q139 -1 233 -85q83 -75 83 -182q0 -14 -1 -28 q-3 -17 -10 -25t-23 -8h-178q-43 0 -51 35q-49 49 -100 49h-62q-24 0 -49 -14t-27 -27q0 -1 -2.5 -11t-2.5 -16t5 -16.5t16.5 -17.5t36 -14t60.5 -11q203 -22 287 -96q69 -61 70 -181q0 -24 -3 -51q-13 -123 -130 -202.5t-273 -79.5h-47q-135 0 -232 76q-96 76 -96 190 q0 15 10 24z" />
<glyph unicode="t" horiz-adv-x="692" d="M61 750l21 180q3 33 33 33h98l23 213q3 30 34 30h203q30 0 27 -30l-23 -213h127q34 0 31 -31l-21 -182q-3 -31 -32 -31h-129l-35 -326q-4 -41 -4 -75.5t25 -57.5t77 -24q15 0 25.5 -10t9.5 -25l-16 -168q-6 -37 -35 -37h-20q-76 0 -136 14q-68 16 -117 50.5t-71 95.5 q-16 43 -16 98q0 22 3 47l43 418h-96q-29 0 -29 26v5z" />
<glyph unicode="u" horiz-adv-x="987" d="M55 369l60 563q3 31 32 31h203q32 0 29 -31l-62 -570q-1 -9 -1 -18q0 -37 20 -65q24 -35 67 -35h64q50 0 83.5 36t39.5 91l61 561q3 31 33 31h201q28 0 28 -26v-5l-96 -901q-3 -31 -33 -31h-200q-32 0 -29 31l4 45q-8 -23 -64.5 -49.5t-107.5 -26.5h-53q-82 0 -141.5 29 t-91.5 81q-31 50 -43 116q-6 37 -7 78q0 31 4 65z" />
<glyph unicode="v" horiz-adv-x="907" d="M53 928q-1 5 -1 9q0 11 6 17q8 9 24 9h211q30 0 33 -35l69 -535l185 535q15 35 41 35h210q16 0 22 -9q3 -4 3 -10q0 -7 -4 -16l-373 -895q-17 -33 -43 -33h-162q-14 0 -23.5 9t-10.5 24z" />
<glyph unicode="w" horiz-adv-x="1429" d="M102 928v6q0 29 29 29h213q30 0 33 -35l67 -529l170 529q15 35 41 35h164q30 0 33 -35l63 -529l175 529q15 35 40 35h213q16 0 22 -9q3 -4 3 -10q0 -7 -4 -16l-338 -895q-16 -33 -43 -33h-166q-14 0 -24.5 9.5t-10.5 23.5l-90 493l-190 -493q-16 -33 -43 -33h-168 q-14 0 -24 9t-11 24z" />
<glyph unicode="x" horiz-adv-x="993" d="M10 11q-2 3 -2 7q0 8 8 19l306 440l-218 449q-8 15 -0.5 26t25.5 11h227q29 0 43 -35l95 -219l139 219q24 35 51 35h227q18 0 22 -11q1 -3 1 -6q0 -9 -8 -20l-303 -447l208 -442q8 -15 1 -26t-27 -11h-225q-29 0 -43 35l-91 213l-135 -213q-24 -35 -51 -35h-227 q-18 0 -23 11z" />
<glyph unicode="y" horiz-adv-x="1134" d="M94 926q-2 7 -2 13q0 8 3 13q6 11 22 11h217q29 0 39 -35l155 -514l271 514q19 35 49 35h215q21 0 21 -15q0 -8 -7 -22l-680 -1301q-19 -35 -49 -35h-215q-35 0 -16 37l241 461z" />
<glyph unicode="z" horiz-adv-x="913" d="M12 31l17 133q0 20 12 35l442 520h-366q-32 0 -29 31l21 180q3 33 32 33h678q34 0 31 -31l-16 -137q0 -16 -13 -33l-442 -518h364q34 0 31 -31l-20 -182q-3 -31 -33 -31h-680q-29 0 -29 26v5z" />
<glyph unicode="{" horiz-adv-x="946" d="M139 721q-12 24 4 45l105 113q15 15 18 36l35 330q19 173 120.5 279t254.5 106h201q29 0 26 -31l-22 -208q-3 -31 -33 -31h-103q-97 0 -136 -62.5t-54 -199.5l-20 -203q-3 -21 -19 -37l-100 -115l78 -114q10 -21 8 -37l-21 -203q-8 -83 -4 -141t37 -89.5t100 -31.5h103 q31 0 28 -31l-22 -209q-3 -30 -35 -30h-201q-153 0 -232 106t-60 279l34 329q3 18 -10 37z" />
<glyph unicode="|" horiz-adv-x="598" d="M45 -379l209 1987q3 30 35 30h209q29 0 26 -30l-209 -1987q-3 -31 -32 -31h-209q-32 0 -29 31z" />
<glyph unicode="}" horiz-adv-x="946" d="M43 -113l23 209q3 31 32 31h103q97 0 136 62.5t54 199.5l21 203q3 21 16 37l102 114l-75 115q-13 20 -11 37l21 203q8 83 4 141t-37 89.5t-100 31.5h-103q-31 0 -28 31l22 208q3 31 35 31h201q153 0 232.5 -106t60.5 -279l-35 -330q-2 -17 10 -36l80 -113q12 -24 -4 -45 l-105 -113q-15 -15 -18 -37l-35 -329q-19 -173 -120.5 -279t-254.5 -106h-200q-30 0 -27 30z" />
<glyph unicode="~" horiz-adv-x="1157" d="M106 750q-9 24 27 45q112 73 255.5 85.5t240.5 -49.5q49 -34 107 -40.5t110.5 8t101.5 45.5q24 14 33 -17l61 -153q12 -21 -24 -45q-114 -71 -252.5 -83.5t-241.5 46.5q-84 48 -165 42.5t-158 -54.5l-7 -3.5t-6 -0.5t-5 1.5t-4.5 3.5t-3.5 4.5t-3.5 5.5t-3.5 5z" />
<glyph unicode="&#xa1;" horiz-adv-x="598" d="M45 -379l94 877q0 30 35 30h209q27 0 27 -30l-95 -877q-3 -31 -32 -31h-209q-32 0 -29 31zM156 764l30 283q3 30 33 30h230q31 0 28 -30l-28 -283q-3 -31 -35 -31h-232q-29 0 -26 31z" />
<glyph unicode="&#xa2;" horiz-adv-x="972" d="M55 365l25 233q14 143 122.5 252t254.5 119l24 225q3 31 35 31h62q29 0 26 -31l-24 -225q123 -7 207.5 -96.5t78.5 -196.5q-3 -13 -4.5 -19t-8 -12t-17.5 -6h-201q-30 0 -33 29q-7 23 -17.5 36.5t-31.5 18.5l-49 -481q17 3 34.5 14t26.5 20t27 29.5t24 26.5 q13 14 30.5 14t29.5 -12l121 -117q21 -21 2 -43q-42 -44 -64.5 -65t-64 -51t-88.5 -44t-105 -16l-22 -229q-3 -31 -35 -31h-62q-29 0 -26 31l22 229q-145 10 -230.5 117.5t-68.5 249.5zM317 362q-4 -41 15 -73t51 -43l49 475q-33 -12 -58.5 -46t-29.5 -75z" />
<glyph unicode="&#xa3;" horiz-adv-x="1253" d="M92 625l23 209q3 30 35 30h141q-20 80 -25 160q-4 106 35.5 199t106 155t151.5 97.5t172 35.5h74q172 0 283.5 -134t93.5 -339q-3 -30 -33 -30h-209q-16 0 -24 7.5t-7 22.5q12 116 -24 159.5t-107 43.5h-73q-67 0 -117 -50.5t-45 -166.5q4 -63 24 -160h234q29 0 26 -30 l-22 -209q-6 -31 -35 -31h-156l-4 -33q-20 -110 -38.5 -156t-75.5 -110q56 22 88.5 19.5t109.5 -31.5t145 -24t179 48q16 6 23.5 -4t5.5 -27l-23 -215q-1 -14 -7.5 -18.5t-27.5 -11.5q-112 -45 -199 -44.5t-186 44.5q-105 44 -184.5 35.5t-198.5 -68.5q-15 -7 -48.5 45.5 t-25.5 67.5q15 28 54.5 102t49.5 95t31.5 71t31.5 90t18 92l4 33h-217q-33 0 -27 31z" />
<glyph unicode="&#xa4;" horiz-adv-x="1267" d="M70 98q-18 21 4 43l110 101q-12 56 -6 118l27 242q6 64 33 119l-93 100q-18 20 5 43l163 148q25 22 43 0l76 -86q88 43 178 43h88q96 0 172 -45l97 88q25 22 43 0l133 -148q21 -21 -4 -43l-117 -104q12 -56 6 -115l-27 -242q-6 -62 -30 -114l94 -105q21 -21 -4 -43 l-166 -147q-21 -21 -43 0l-78 90q-79 -43 -178 -43h-88q-95 0 -166 41l-98 -88q-18 -21 -43 0zM442 360q-6 -52 19 -85t71 -33h89q47 0 78.5 32.5t37.5 85.5l27 242q5 54 -20.5 88.5t-71.5 34.5h-90q-45 0 -76.5 -35t-36.5 -88z" />
<glyph unicode="&#xa5;" horiz-adv-x="1142" d="M70 1456q-12 31 22 31h227q27 0 39 -31l187 -522l301 522q19 31 43 31h227q16 0 21.5 -8t-2.5 -23l-486 -803l-2 -16h326q27 0 24 -31l-18 -184q-3 -31 -35 -31h-321l-9 -65h326q30 0 27 -31l-19 -184q-3 -31 -35 -31h-323l-6 -49q-3 -31 -33 -31h-209q-32 0 -29 31l6 49 h-180q-29 0 -26 31l18 184q3 31 35 31h178l8 65h-182q-30 0 -27 31l19 184q3 31 37 31h178l2 16z" />
<glyph unicode="&#xa6;" horiz-adv-x="598" d="M61 -236l70 662q3 31 33 31h209q31 0 28 -31l-69 -662q-3 -30 -35 -30h-209q-30 0 -27 30zM170 803l70 661q3 31 34 31h209q30 0 27 -31l-70 -661q-3 -31 -34 -31h-209q-30 0 -27 31z" />
<glyph unicode="&#xa7;" horiz-adv-x="1241" d="M66 0l6 59q3 31 32 31h211q32 0 29 -31l-4 -59q-3 -60 36.5 -100.5t102.5 -40.5h94q70 0 120.5 42t56.5 107q4 49 1.5 86.5t-34 65t-96.5 39.5l-119 20q-176 29 -273.5 172t-78.5 324q5 81 53 182l8 -4q-35 87 -23 197q18 177 146.5 290t298.5 113h106q80 0 153 -32 t126 -88t80 -137t16 -173l-4 -39q-3 -31 -33 -31h-211q-31 0 -28 31l4 39q7 68 -30.5 115t-98.5 47h-107q-62 0 -102 -45t-47 -103q-5 -26 -3 -52t11 -48t40 -39.5t83 -26.5l119 -20q168 -30 270 -175t82 -335q-3 -37 -21 -92t-39 -84q33 -93 21 -199q-12 -119 -82.5 -216 t-174 -149.5t-216.5 -52.5h-94q-82 0 -156.5 31t-128.5 84.5t-82.5 131.5t-19.5 165zM414.5 623.5q3.5 -30.5 12.5 -58t38.5 -49.5t75.5 -31l118 -20q77 -13 134 -41q2 50 -4.5 86t-37 69t-85.5 42l-119 20q-72 12 -131 39q-5 -26 -1.5 -56.5z" />
<glyph unicode="&#xa8;" horiz-adv-x="1038" d="M170 1192l29 264q3 31 32 31h269q31 0 28 -31l-30 -264q-3 -31 -33 -31h-266q-32 0 -29 31zM633 1192l29 264q3 31 32 31h269q31 0 28 -31l-28 -264q-3 -31 -33 -31h-268q-32 0 -29 31z" />
<glyph unicode="&#xa9;" horiz-adv-x="1355" d="M96 487l54 508q11 100 55 194t109.5 164.5t154.5 113t184 42.5h209q126 0 223.5 -72t143 -190t31.5 -252l-54 -508q-14 -135 -84.5 -252.5t-183 -189.5t-238.5 -72h-208q-126 0 -223 72t-142 190t-31 252zM315 467q-11 -101 51.5 -175.5t176.5 -74.5h159q115 0 192.5 74 t88.5 176l57 547q9 104 -51.5 177t-175.5 73h-160q-115 0 -193 -74t-87 -176zM393 553l41 379q24 237 275 237h41q58 0 97 -9.5t72 -35t45.5 -77t4.5 -129.5q0 -12 -7.5 -28t-17.5 -16h-149q-19 0 -19 19q3 35 -15 55.5t-40 20.5h-27q-23 0 -47.5 -17.5t-25.5 -44.5 l-35 -329q-1 -26 19 -45t42 -19h25q22 0 45.5 22.5t27.5 57.5q0 18 25 18h148q16 0 16 -43q-9 -79 -33 -131t-62.5 -78t-80 -35.5t-99.5 -9.5h-38q-252 0 -228 238z" />
<glyph unicode="&#xaa;" horiz-adv-x="653" d="M141 1122q8 74 64 118t145 44h121q4 40 -15 57t-59 17h-35q-20 0 -36.5 -4.5t-23.5 -8t-22 -14t-20 -14.5q-22 -15 -31 0l-43 65q-11 14 2 27q43 40 89 59t114 19h51q81 0 126 -58t36 -149l-31 -274v-31q2 -3 0 -7.5t-6 -4.5h-108q-13 0 -17 18q-44 -18 -96 -18h-31 q-81 0 -131 42t-43 117zM281 1124q-2 -18 8.5 -26t36.5 -8h34q51 0 91 16l6 51h-121q-52 0 -55 -33z" />
<glyph unicode="&#xab;" horiz-adv-x="1210" d="M84 461l12 131q3 37 37 57l410 240q15 9 27 3.5t10 -20.5l-27 -237q-1 -15 -10.5 -24.5t-30.5 -20.5l-137 -64l125 -63q33 -20 30 -45l-24 -238q-2 -15 -13.5 -20t-25.5 4l-358 239q-28 21 -25 58zM616 461l15 131q3 37 37 57l407 240q15 9 27 3.5t10 -20.5l-27 -237 q-2 -15 -10.5 -25t-30.5 -20l-137 -64l127 -63q32 -19 29 -45l-25 -238q-2 -15 -13.5 -20t-25.5 4l-358 239q-28 21 -25 58z" />
<glyph unicode="&#xac;" horiz-adv-x="1052" d="M96 483l21 209q3 31 35 31h745q30 0 27 -31l-2 -24l-9 -78l-10 -107l-2 -6l-18 -188q-3 -31 -35 -31h-209q-30 0 -27 31l17 164h-506q-30 0 -27 30z" />
<glyph unicode="&#xad;" horiz-adv-x="888" d="M31 414l22 209q3 30 35 30h541q29 0 26 -30l-22 -209q-3 -31 -35 -31h-541q-29 0 -26 31z" />
<glyph unicode="&#xae;" horiz-adv-x="1355" d="M96 487l54 508q11 100 55 194t109.5 164.5t154.5 113t184 42.5h209q126 0 223.5 -72t143 -190t31.5 -252l-54 -508q-14 -135 -84.5 -252.5t-183 -189.5t-238.5 -72h-208q-126 0 -223 72t-142 190t-31 252zM315 467q-11 -101 51.5 -175.5t176.5 -74.5h159q115 0 192.5 74 t88.5 176l57 547q9 104 -51.5 177t-175.5 73h-160q-115 0 -193 -74t-87 -176zM403 352l78 764q5 32 25.5 51t52.5 19h172q110 0 167.5 -70t45.5 -186q-16 -141 -113 -219q78 -72 64 -203l-14 -156q-9 -47 -47 -47h-101q-41 0 -35 47l15 137q7 71 -8.5 106.5t-40.5 35.5h-52 l-28 -279q-9 -47 -47 -47h-101q-21 0 -28.5 11t-4.5 36zM625 811h47q31 0 55.5 24.5t28.5 79.5q5 49 -14 70t-50 21h-47z" />
<glyph unicode="&#xaf;" horiz-adv-x="1011" d="M199 1272l20 184q3 31 33 31h663q14 0 22 -8t7 -23l-20 -184q-3 -31 -33 -31h-664q-31 0 -28 31z" />
<glyph unicode="&#xb0;" horiz-adv-x="923" d="M209 1165l2 23q14 133 98.5 216t214.5 83h31q128 0 197 -83.5t55 -215.5l-2 -23q-14 -132 -101 -215.5t-215 -83.5h-30q-130 0 -197 83t-53 216zM414 1171q-5 -41 16 -66.5t62 -25.5h14q40 0 65.5 25.5t28.5 66.5l2 13q5 42 -16 67t-60 25h-14q-42 0 -67.5 -25t-28.5 -67 z" />
<glyph unicode="&#xb1;" horiz-adv-x="1052" d="M47 31l23 209q3 30 32 30h748q30 0 27 -30l-23 -209q-3 -31 -33 -31h-745q-32 0 -29 31zM109 606l22 209q3 31 33 31h239l23 209q3 30 35 30h209q29 0 26 -30l-22 -209h237q30 0 27 -31l-23 -209q-3 -31 -32 -31h-236l-22 -210q-3 -31 -35 -31h-209q-30 0 -27 31l23 210 h-240q-31 0 -28 31z" />
<glyph unicode="&#xb2;" horiz-adv-x="655" d="M123 1290v27q0 68 51.5 119t124.5 51h51q79 0 129.5 -61t50.5 -136q0 -55 -33 -103.5t-98 -113.5l-104 -104l207 4q30 0 30 -31v-59q0 -31 -30 -31h-344q-31 0 -31 31v49q0 18 4.5 32t8.5 19.5t19.5 21t22.5 23.5l144 154q8 8 25 24t27 26t19 26t9 32q0 33 -24 56.5 t-60 23.5q-32 0 -54 -19t-22 -46v-15q0 -30 -31 -30h-61q-31 0 -31 30z" />
<glyph unicode="&#xb3;" horiz-adv-x="653" d="M98 1024v27q0 30 31 30h61q31 0 31 -30v-15q0 -27 22 -46t54 -19q38 0 61 19t23 52q0 32 -22 54t-56 22h-47q-31 0 -31 31v45q0 31 31 31h47q34 0 56 21.5t22 53.5q0 33 -23.5 52.5t-60.5 19.5q-32 0 -54 -19t-22 -46v-15q0 -30 -31 -30h-61q-31 0 -31 30v27 q0 68 51.5 119t124.5 51h52q80 0 130 -56t50 -130q0 -69 -70 -132q70 -63 70 -131q0 -74 -50 -130t-130 -56h-52q-73 0 -124.5 51t-51.5 119z" />
<glyph unicode="&#xb4;" horiz-adv-x="669" d="M153 1196q-5 10 5 27l192 379q14 36 47 36h238q36 0 16 -36l-217 -379q-14 -20 -23.5 -28.5t-23.5 -8.5h-213q-16 0 -21 10z" />
<glyph unicode="&#xb6;" horiz-adv-x="1155" d="M135 1057q20 177 120 290t255 136q8 4 18 4h553q32 0 29 -31l-25 -239l-34 -324l-29 -270l-64 -592q-3 -31 -32 -31h-209q-32 0 -29 31l64 592h-74l-64 -592q-3 -31 -32 -31h-209q-32 0 -29 31l66 598q-145 26 -218.5 140.5t-56.5 287.5zM406 1057q-11 -107 32 -139 l31 278q-52 -31 -63 -139zM707 893h73l35 324h-74z" />
<glyph unicode="&#xb7;" horiz-adv-x="546" d="M74 487l30 275q3 31 35 31h281q27 0 24 -31l-28 -275q-3 -30 -33 -30h-281q-31 0 -28 30z" />
<glyph unicode="&#xb8;" horiz-adv-x="798" d="M39 -242q3 21 20 21h164q8 0 14.5 -5t6.5 -12q-3 -17 9 -22.5t36 -5.5h45q55 0 57 22q1 8 -6 12t-28 8t-57 8q-75 9 -130 17q-15 2 -29.5 10t-25 24t-12 37.5t15 54.5t51.5 71q13 16 25 16h186q9 0 12 -5t-2 -11q-14 -16 -17.5 -26t2.5 -14.5t16.5 -7t27.5 -4.5 q7 -1 10 -1q99 -11 135.5 -55.5t26.5 -147.5q-9 -75 -65 -115.5t-154 -40.5h-170q-85 0 -127.5 47t-36.5 125z" />
<glyph unicode="&#xb9;" horiz-adv-x="618" d="M246 885v571q0 31 30 31h66q31 0 31 -31v-571q0 -31 -31 -31h-66q-30 0 -30 31z" />
<glyph unicode="&#xba;" horiz-adv-x="663" d="M47 219l10 88q8 87 75.5 152t154.5 65h45q85 0 138.5 -64.5t45.5 -152.5l-10 -88q-9 -90 -76.5 -154.5t-153.5 -64.5h-45q-87 0 -140 64.5t-44 154.5zM184 236q-5 -36 15.5 -62.5t56.5 -26.5h29q32 0 57.5 26.5t30.5 62.5l6 57q4 35 -16.5 59.5t-53.5 24.5h-28 q-36 0 -61 -24t-30 -60z" />
<glyph unicode="&#xbb;" horiz-adv-x="1210" d="M53 180l25 238q2 24 43 45l137 63l-125 64q-19 11 -26.5 21t-6.5 24l27 237q2 15 13.5 20.5t23.5 -3.5l360 -240q28 -21 25 -57l-12 -131q-3 -38 -37 -58l-412 -239q-14 -9 -25 -4t-10 20zM586 180l24 238q2 24 45 45l136 63l-125 64q-19 11 -26.5 21t-6.5 24l26 237 q2 15 13.5 20.5t23.5 -3.5l363 -240q27 -20 24 -57l-14 -131q-3 -38 -37 -58l-411 -239q-14 -9 -25 -4t-10 20z" />
<glyph unicode="&#xbc;" horiz-adv-x="1511" d="M211 8q-6 8 2 23l827 1425q10 17 18.5 24t22.5 7h86q16 0 22.5 -8t-1.5 -23l-828 -1425q-10 -17 -18.5 -24t-22.5 -7h-86q-16 0 -22 8zM246 885v571q0 31 30 31h66q31 0 31 -31v-571q0 -31 -31 -31h-66q-30 0 -30 31zM946 209q0 8 8 24l217 388q7 14 29 14h98 q31 0 31 -31v-362h29q31 0 31 -31v-61q0 -31 -31 -31h-29v-88q0 -31 -31 -31h-61q-31 0 -31 31v88h-223q-28 0 -31 31zM1102 246h104v205z" />
<glyph unicode="&#xbd;" horiz-adv-x="1478" d="M211 8q-6 8 2 23l827 1425q10 17 18.5 24t22.5 7h86q16 0 22.5 -8t-1.5 -23l-828 -1425q-10 -17 -18.5 -24t-22.5 -7h-86q-16 0 -22 8zM246 885v571q0 31 30 31h66q31 0 31 -31v-571q0 -31 -31 -31h-66q-30 0 -30 31zM946 438v27q0 68 51.5 119t124.5 51h52 q79 0 129.5 -61t50.5 -136q0 -55 -33 -103.5t-98 -113.5l-105 -104l207 4q31 0 31 -31v-59q0 -31 -31 -31h-344q-31 0 -31 31v49q0 18 4.5 32t9 20t19.5 20.5t23 23.5l143 154q8 8 25 24t27 26t19 26t9 32q0 33 -24 56.5t-60 23.5q-32 0 -54 -19t-22 -46v-15q0 -30 -31 -30 h-61q-31 0 -31 30z" />
<glyph unicode="&#xbe;" horiz-adv-x="1546" d="M123 1024v27q0 30 31 30h61q31 0 31 -30v-15q0 -27 22 -46t54 -19q38 0 61 19t23 52q0 32 -22 54t-56 22h-47q-31 0 -31 31v45q0 31 31 31h47q34 0 56 21.5t22 53.5q0 33 -23.5 52.5t-60.5 19.5q-32 0 -54 -19t-22 -46v-15q0 -30 -31 -30h-61q-31 0 -31 30v27 q0 68 51.5 119t124.5 51h51q80 0 130 -56t50 -130q0 -70 -69 -132q69 -62 69 -131q0 -74 -50 -130t-130 -56h-51q-73 0 -124.5 51t-51.5 119zM246 8q-6 8 2 23l827 1425q10 17 18.5 24t22.5 7h86q16 0 22.5 -8t-1.5 -23l-828 -1425q-10 -17 -18.5 -24t-22.5 -7h-86 q-16 0 -22 8zM981 209q0 8 8 24l217 388q7 14 29 14h98q31 0 31 -31v-362h29q30 0 30 -31v-61q0 -31 -30 -31h-29v-88q0 -31 -31 -31h-61q-31 0 -31 31v88h-223q-28 0 -31 31zM1137 246h104v205z" />
<glyph unicode="&#xbf;" horiz-adv-x="1040" d="M-8 -10q4 39 11.5 72t15 58.5t21 48t24 38t30 31.5t32.5 25.5t38.5 22.5t40.5 20t46.5 20.5t49.5 21.5q9 4 29.5 13.5t31 15.5t24.5 16t20.5 22t7.5 27l6 56q3 30 35 30h209q29 0 26 -30l-10 -105q-4 -38 -11.5 -66t-26.5 -53t-38.5 -42.5t-62 -40t-82 -40t-111.5 -47.5 q-53 -23 -67 -44.5t-19 -69.5q-4 -46 2.5 -78t35.5 -55t83 -23h86q70 0 105.5 49t43.5 113l5 39q3 31 32 31h211q32 0 29 -31l-4 -39q-21 -199 -151.5 -315.5t-299.5 -116.5h-86q-84 0 -154.5 29.5t-120 83.5t-73.5 135t-14 178zM438 764l31 283q3 30 33 30h229q32 0 29 -30 l-31 -283q-3 -31 -35 -31h-229q-30 0 -27 31z" />
<glyph unicode="&#xc0;" horiz-adv-x="1286" d="M16 33l592 1427q13 33 41 33h164q30 0 37 -33l291 -1427q0 -33 -29 -33h-213q-33 0 -39 33l-57 325h-383l-127 -325q-11 -33 -43 -33h-215q-33 0 -19 33zM467 2126q-15 37 25 37h213q29 0 38 -37l115 -379q4 -17 -2.5 -27t-21.5 -10h-189q-26 0 -39 37zM512 594h250 l-78 440z" />
<glyph unicode="&#xc1;" horiz-adv-x="1286" d="M16 33l592 1427q13 33 41 33h164q30 0 37 -33l291 -1427q0 -33 -29 -33h-213q-33 0 -39 33l-57 325h-383l-127 -325q-11 -33 -43 -33h-215q-33 0 -19 33zM512 594h250l-78 440zM632 1720q-5 10 5 27l192 379q15 37 48 37h237q37 0 16 -37l-217 -379q-14 -20 -23.5 -28.5 t-23.5 -8.5h-213q-16 0 -21 10z" />
<glyph unicode="&#xc2;" horiz-adv-x="1286" d="M16 33l592 1427q13 33 41 33h164q30 0 37 -33l291 -1427q0 -33 -29 -33h-213q-33 0 -39 33l-57 325h-383l-127 -325q-11 -33 -43 -33h-215q-33 0 -19 33zM366.5 1736q-3.5 12 6.5 27l270 367q26 33 51 33h207q29 0 45 -33l193 -367q9 -15 1.5 -27t-22.5 -12h-213 q-14 0 -23 8.5t-20 30.5l-86 181l-129 -181q-26 -39 -51 -39h-211q-15 0 -18.5 12zM512 594h250l-78 440z" />
<glyph unicode="&#xc3;" horiz-adv-x="1286" d="M16 33l592 1427q13 33 41 33h164q30 0 37 -33l291 -1427q0 -33 -29 -33h-213q-33 0 -39 33l-57 325h-383l-127 -325q-11 -33 -43 -33h-215q-33 0 -19 33zM383 1978q-9 24 27 45q245 156 415 37q49 -34 89.5 -40t71 6.5t83.5 46.5q24 14 33 -17l61 -153q11 -22 -24 -45 q-239 -150 -418 -37q-39 25 -67.5 35.5t-58.5 5t-53 -16.5t-65 -37q-20 -13 -33 17zM512 594h250l-78 440z" />
<glyph unicode="&#xc4;" horiz-adv-x="1286" d="M16 33l592 1427q13 33 41 33h164q30 0 37 -33l291 -1427q0 -33 -29 -33h-213q-33 0 -39 33l-57 325h-383l-127 -325q-11 -33 -43 -33h-215q-33 0 -19 33zM352 1716l29 264q3 31 33 31h268q32 0 29 -31l-31 -264q-3 -30 -33 -30h-266q-32 0 -29 30zM512 594h250l-78 440z M815 1716l29 264q3 31 33 31h268q32 0 29 -31l-29 -264q-3 -30 -33 -30h-268q-32 0 -29 30z" />
<glyph unicode="&#xc5;" horiz-adv-x="1286" d="M16 33l592 1427q13 33 41 33h164q30 0 37 -33l291 -1427q0 -33 -29 -33h-213q-33 0 -39 33l-57 325h-383l-127 -325q-11 -33 -43 -33h-215q-33 0 -19 33zM512 594h250l-78 440zM571 1952l2 22q9 82 67.5 136.5t141.5 54.5h27q83 0 130 -54.5t38 -136.5l-2 -22 q-9 -83 -67.5 -136t-141.5 -53h-27q-83 0 -130 53t-38 136zM727 1964q-2 -20 10 -34.5t31 -14.5h4q20 0 35 14t18 35v4q0 18 -12 31.5t-31 13.5h-4q-19 0 -34 -14t-17 -31v-4z" />
<glyph unicode="&#xc6;" horiz-adv-x="1851" d="M33.5 8q-5.5 8 1.5 23l786 1425q10 17 18.5 24t22.5 7h914q31 0 28 -31l-20 -184q-3 -31 -33 -31h-569l-41 -369h436q32 0 29 -30l-21 -185q-3 -30 -33 -30h-436l-41 -381h570q31 0 28 -31l-20 -184q-3 -31 -33 -31h-809q-32 0 -29 31l33 317h-321l-177 -317 q-15 -31 -41 -31h-221q-16 0 -21.5 8zM641 618h203l49 457z" />
<glyph unicode="&#xc7;" horiz-adv-x="1165" d="M76 465l57 557q23 220 157.5 353.5t327.5 133.5h95q186 0 291 -132t86 -341q-3 -30 -35 -30h-209q-32 0 -29 30q12 108 -17.5 155.5t-113.5 47.5h-94q-91 0 -133.5 -48.5t-55.5 -168.5l-57 -557q-14 -121 17.5 -171t121.5 -50h95q84 0 124.5 48.5t51.5 158.5q3 30 37 30 h208q30 0 27 -30q-20 -175 -118 -299t-242 -164q-15 -16 -11 -24.5t14.5 -11.5t32.5 -6q7 0 11 -1q99 -11 135.5 -55.5t26.5 -147.5q-9 -75 -65.5 -115.5t-154.5 -40.5h-170q-84 0 -126.5 47t-36.5 125q4 21 20 21h164q8 0 14 -5t6 -12q-3 -17 9 -22.5t36 -5.5h45 q56 0 58 22q1 8 -6 12t-28 8t-57 8q-75 9 -130 17q-18 3 -34.5 14t-27.5 30.5t-2 53.5t41 74q-182 9 -280.5 143.5t-75.5 348.5z" />
<glyph unicode="&#xc8;" horiz-adv-x="1146" d="M72 31l151 1425q3 31 33 31h809q32 0 29 -31l-21 -184q-3 -31 -33 -31h-569l-41 -369h436q32 0 29 -30l-21 -185q-3 -30 -32 -30h-436l-41 -381h569q32 0 29 -31l-21 -184q-3 -31 -33 -31h-809q-31 0 -28 31zM414 2126q-15 37 24 37h213q30 0 39 -37l115 -379 q4 -17 -3 -27t-22 -10h-188q-26 0 -39 37z" />
<glyph unicode="&#xc9;" horiz-adv-x="1146" d="M72 31l151 1425q3 31 33 31h809q32 0 29 -31l-21 -184q-3 -31 -33 -31h-569l-41 -369h436q32 0 29 -30l-21 -185q-3 -30 -32 -30h-436l-41 -381h569q32 0 29 -31l-21 -184q-3 -31 -33 -31h-809q-31 0 -28 31zM577 1720q-5 10 5 27l192 379q15 37 47 37h238q37 0 16 -37 l-217 -379q-14 -20 -23.5 -28.5t-23.5 -8.5h-213q-16 0 -21 10z" />
<glyph unicode="&#xca;" horiz-adv-x="1146" d="M72 31l151 1425q3 31 33 31h809q32 0 29 -31l-21 -184q-3 -31 -33 -31h-569l-41 -369h436q32 0 29 -30l-21 -185q-3 -30 -32 -30h-436l-41 -381h569q32 0 29 -31l-21 -184q-3 -31 -33 -31h-809q-31 0 -28 31zM311 1736q-4 12 6 27l271 367q26 33 51 33h207q28 0 45 -33 l192 -367q9 -15 2 -27t-22 -12h-213q-14 0 -23 8.5t-20 30.5l-86 181l-129 -181q-26 -39 -51 -39h-211q-15 0 -19 12z" />
<glyph unicode="&#xcb;" horiz-adv-x="1146" d="M72 31l151 1425q3 31 33 31h809q32 0 29 -31l-21 -184q-3 -31 -33 -31h-569l-41 -369h436q32 0 29 -30l-21 -185q-3 -30 -32 -30h-436l-41 -381h569q32 0 29 -31l-21 -184q-3 -31 -33 -31h-809q-31 0 -28 31zM299 1716l29 264q3 31 32 31h269q31 0 28 -31l-30 -264 q-3 -30 -33 -30h-266q-32 0 -29 30zM762 1716l29 264q3 31 32 31h269q31 0 28 -31l-28 -264q-3 -30 -33 -30h-268q-32 0 -29 30z" />
<glyph unicode="&#xcc;" horiz-adv-x="532" d="M43 31l152 1425q3 31 32 31h213q32 0 29 -31l-152 -1425q-3 -31 -32 -31h-213q-32 0 -29 31zM76 2126q-15 37 24 37h213q30 0 39 -37l115 -379q4 -17 -3 -27t-22 -10h-188q-26 0 -39 37z" />
<glyph unicode="&#xcd;" horiz-adv-x="532" d="M43 31l152 1425q3 31 32 31h213q32 0 29 -31l-152 -1425q-3 -31 -32 -31h-213q-32 0 -29 31zM239 1720q-5 10 5 27l192 379q15 37 47 37h238q37 0 16 -37l-217 -379q-14 -20 -23.5 -28.5t-23.5 -8.5h-213q-16 0 -21 10z" />
<glyph unicode="&#xce;" horiz-adv-x="532" d="M-26.5 1736q-3.5 12 6.5 27l270 367q26 33 51 33h207q28 0 45 -33l192 -367q9 -15 2 -27t-22 -12h-213q-14 0 -23 8.5t-20 30.5l-86 181l-129 -181q-26 -39 -51 -39h-211q-15 0 -18.5 12zM43 31l152 1425q3 31 32 31h213q32 0 29 -31l-152 -1425q-3 -31 -32 -31h-213 q-32 0 -29 31z" />
<glyph unicode="&#xcf;" horiz-adv-x="532" d="M-39 1716l29 264q3 31 33 31h268q31 0 28 -31l-30 -264q-3 -30 -33 -30h-266q-32 0 -29 30zM43 31l152 1425q3 31 32 31h213q32 0 29 -31l-152 -1425q-3 -31 -32 -31h-213q-32 0 -29 31zM424 1716l29 264q3 31 32 31h269q31 0 28 -31l-28 -264q-3 -30 -33 -30h-268 q-32 0 -29 30z" />
<glyph unicode="&#xd0;" horiz-adv-x="1327" d="M100 631l23 209q3 30 35 30h108l62 586q3 31 32 31h490q110 0 201.5 -65t139.5 -176.5t34 -239.5l-54 -525q-14 -128 -85.5 -239.5t-176.5 -176.5t-215 -65h-489q-32 0 -29 31l62 569h-111q-30 0 -27 31zM469 246h201q106 0 161 53t70 182l53 525q15 128 -28.5 181.5 t-149.5 53.5h-201l-40 -371h163q30 0 27 -30l-23 -209q-3 -31 -34 -31h-162z" />
<glyph unicode="&#xd1;" horiz-adv-x="1292" d="M43 31l152 1425q3 31 32 31h219q26 0 35 -23l381 -919l96 911q3 31 33 31h209q32 0 29 -31l-152 -1425q-3 -31 -33 -31h-219q-25 0 -34 23l-381 946l-97 -938q-3 -31 -32 -31h-209q-32 0 -29 31zM371 1978q-9 24 26 45q246 156 416 37q49 -34 89.5 -40t71 6.5t83.5 46.5 q24 14 33 -17l61 -153q11 -21 -25 -45q-239 -150 -417 -37q-39 25 -67.5 35.5t-58.5 5t-53 -16.5t-65 -37q-20 -13 -33 17z" />
<glyph unicode="&#xd2;" d="M86 461l57 559q22 202 163.5 345.5t318.5 143.5h108q116 0 208.5 -65.5t138.5 -178t32 -245.5l-57 -559q-22 -202 -164.5 -346t-319.5 -144h-108q-116 0 -208 65.5t-137.5 178.5t-31.5 246zM352 428q-8 -85 31.5 -147.5t120.5 -63.5h80q83 0 135.5 63t60.5 148l68 625 q8 85 -31.5 148t-122.5 63h-80q-82 0 -135 -63.5t-61 -147.5zM418 2126q-15 37 24 37h213q30 0 39 -37l115 -379q4 -17 -3 -27t-22 -10h-188q-26 0 -39 37z" />
<glyph unicode="&#xd3;" d="M86 461l57 559q22 202 163.5 345.5t318.5 143.5h108q116 0 208.5 -65.5t138.5 -178t32 -245.5l-57 -559q-22 -202 -164.5 -346t-319.5 -144h-108q-116 0 -208 65.5t-137.5 178.5t-31.5 246zM352 428q-8 -85 31.5 -147.5t120.5 -63.5h80q83 0 135.5 63t60.5 148l68 625 q8 85 -31.5 148t-122.5 63h-80q-82 0 -135 -63.5t-61 -147.5zM583 1720q-5 10 5 27l192 379q15 37 47 37h238q37 0 16 -37l-217 -379q-14 -20 -23.5 -28.5t-23.5 -8.5h-213q-16 0 -21 10z" />
<glyph unicode="&#xd4;" d="M86 461l57 559q22 202 163.5 345.5t318.5 143.5h108q116 0 208.5 -65.5t138.5 -178t32 -245.5l-57 -559q-22 -202 -164.5 -346t-319.5 -144h-108q-116 0 -208 65.5t-137.5 178.5t-31.5 246zM317.5 1736q-3.5 12 6.5 27l270 367q26 33 51 33h207q28 0 45 -33l193 -367 q9 -15 1.5 -27t-22.5 -12h-213q-14 0 -23 8.5t-20 30.5l-86 181l-129 -181q-26 -39 -51 -39h-211q-15 0 -18.5 12zM352 428q-8 -85 31.5 -147.5t120.5 -63.5h80q83 0 135.5 63t60.5 148l68 625q8 85 -31.5 148t-122.5 63h-80q-82 0 -135 -63.5t-61 -147.5z" />
<glyph unicode="&#xd5;" d="M86 461l57 559q22 202 163.5 345.5t318.5 143.5h108q116 0 208.5 -65.5t138.5 -178t32 -245.5l-57 -559q-22 -202 -164.5 -346t-319.5 -144h-108q-116 0 -208 65.5t-137.5 178.5t-31.5 246zM334 1978q-9 24 26 45q246 156 416 37q49 -34 89.5 -40t71 6.5t83.5 46.5 q24 14 33 -17l61 -153q11 -22 -24 -45q-239 -150 -418 -37q-39 25 -67.5 35.5t-58.5 5t-53 -16.5t-65 -37q-20 -13 -33 17zM352 428q-8 -85 31.5 -147.5t120.5 -63.5h80q83 0 135.5 63t60.5 148l68 625q8 85 -31.5 148t-122.5 63h-80q-82 0 -135 -63.5t-61 -147.5z" />
<glyph unicode="&#xd6;" d="M86 461l57 559q22 202 163.5 345.5t318.5 143.5h108q116 0 208.5 -65.5t138.5 -178t32 -245.5l-57 -559q-22 -202 -164.5 -346t-319.5 -144h-108q-116 0 -208 65.5t-137.5 178.5t-31.5 246zM303 1716l29 264q3 31 33 31h268q32 0 29 -31l-31 -264q-3 -30 -33 -30h-266 q-32 0 -29 30zM352 428q-8 -85 31.5 -147.5t120.5 -63.5h80q83 0 135.5 63t60.5 148l68 625q8 85 -31.5 148t-122.5 63h-80q-82 0 -135 -63.5t-61 -147.5zM766 1716l29 264q3 31 32 31h269q31 0 28 -31l-28 -264q-3 -30 -33 -30h-268q-32 0 -29 30z" />
<glyph unicode="&#xd7;" horiz-adv-x="978" d="M98 449q-23 23 6 45l187 168l-166 186q-24 21 4 43l164 149q21 22 43 0l166 -186l186 168q22 20 41 -2l131 -148q19 -22 -4 -43l-184 -165l168 -187q15 -23 -4 -45l-164 -147q-26 -23 -45 0l-168 186l-187 -168q-25 -21 -43 0z" />
<glyph unicode="&#xd8;" d="M58.5 8q-5.5 8 2.5 23l76 141q-68 131 -51 289l57 559q22 202 163.5 345.5t318.5 143.5h108q69 0 131 -24q4 2 15 2h221q15 0 20 -8t-2 -23l-69 -129q81 -133 63 -307l-57 -559q-22 -202 -164.5 -346t-319.5 -144h-108q-78 0 -148 31q-4 -2 -14 -2h-221q-16 0 -21.5 8z M371 600l358 660q-20 4 -35 4h-80q-82 0 -135 -63.5t-61 -147.5zM451 227q27 -10 53 -10h80q83 0 135.5 63t60.5 148l56 506z" />
<glyph unicode="&#xd9;" horiz-adv-x="1171" d="M86 446l107 1010q3 31 32 31h209q32 0 29 -31l-103 -960q-1 -31 -2.5 -66.5t8 -71t25.5 -63.5t49 -46t78 -18h37q56 0 97.5 26t64 69.5t34 84t15.5 85.5l102 960q3 31 33 31h209q32 0 29 -31l-107 -1010q-22 -199 -160.5 -329.5t-334.5 -130.5h-54q-196 0 -307.5 131 t-89.5 329zM408 2126q-15 37 24 37h213q30 0 39 -37l115 -379q4 -17 -3 -27t-22 -10h-188q-26 0 -39 37z" />
<glyph unicode="&#xda;" horiz-adv-x="1171" d="M86 446l107 1010q3 31 32 31h209q32 0 29 -31l-103 -960q-1 -31 -2.5 -66.5t8 -71t25.5 -63.5t49 -46t78 -18h37q56 0 97.5 26t64 69.5t34 84t15.5 85.5l102 960q3 31 33 31h209q32 0 29 -31l-107 -1010q-22 -199 -160.5 -329.5t-334.5 -130.5h-54q-196 0 -307.5 131 t-89.5 329zM573 1720q-5 10 5 27l192 379q15 37 47 37h238q37 0 16 -37l-217 -379q-14 -20 -23.5 -28.5t-23.5 -8.5h-213q-16 0 -21 10z" />
<glyph unicode="&#xdb;" horiz-adv-x="1171" d="M86 446l107 1010q3 31 32 31h209q32 0 29 -31l-103 -960q-1 -31 -2.5 -66.5t8 -71t25.5 -63.5t49 -46t78 -18h37q56 0 97.5 26t64 69.5t34 84t15.5 85.5l102 960q3 31 33 31h209q32 0 29 -31l-107 -1010q-22 -199 -160.5 -329.5t-334.5 -130.5h-54q-196 0 -307.5 131 t-89.5 329zM307 1736q-4 12 6 27l271 367q26 33 51 33h207q28 0 45 -33l192 -367q9 -15 2 -27t-22 -12h-213q-14 0 -23 8.5t-20 30.5l-86 181l-129 -181q-26 -39 -51 -39h-211q-15 0 -19 12z" />
<glyph unicode="&#xdc;" horiz-adv-x="1171" d="M86 446l107 1010q3 31 32 31h209q32 0 29 -31l-103 -960q-1 -31 -2.5 -66.5t8 -71t25.5 -63.5t49 -46t78 -18h37q56 0 97.5 26t64 69.5t34 84t15.5 85.5l102 960q3 31 33 31h209q32 0 29 -31l-107 -1010q-22 -199 -160.5 -329.5t-334.5 -130.5h-54q-196 0 -307.5 131 t-89.5 329zM295 1716l29 264q3 31 32 31h269q31 0 28 -31l-30 -264q-3 -30 -33 -30h-266q-32 0 -29 30zM758 1716l28 264q3 31 33 31h268q32 0 29 -31l-29 -264q-3 -30 -32 -30h-269q-31 0 -28 30z" />
<glyph unicode="&#xdd;" horiz-adv-x="1239" d="M147 1456q-6 15 0.5 23t22.5 8h227q27 0 39 -31l187 -522l301 522q19 31 43 31h227q16 0 21 -8t-3 -23l-485 -803l-65 -622q-3 -31 -33 -31h-209q-32 0 -29 31l66 622zM575 1720q-5 10 5 27l192 379q15 37 47 37h238q37 0 16 -37l-217 -379q-14 -20 -23.5 -28.5 t-23.5 -8.5h-213q-16 0 -21 10z" />
<glyph unicode="&#xde;" horiz-adv-x="1153" d="M57 31l45 422l11 104l51 477l14 142l31 280q3 31 33 31h209q31 0 28 -31l-30 -280h247q183 0 280 -117.5t75 -313.5q-20 -197 -141 -315.5t-304 -118.5h-248l-30 -280q-3 -31 -33 -31h-209q-32 0 -29 31zM383 557h223q72 0 117.5 41.5t56.5 146.5t-25 145t-108 40h-225z " />
<glyph unicode="&#xdf;" horiz-adv-x="1064" d="M123 1171q0 146 98.5 237t255.5 91h70q154 0 254 -89.5t100 -235.5v-119q0 -49 -6 -87t-21.5 -74.5t-46.5 -60t-77 -30.5q111 -33 162 -114t51 -232v-95q0 -170 -114.5 -266t-322.5 -96h-43q-30 0 -30 31v205q0 30 30 30h43q42 0 65 1.5t47.5 8t36 19.5t18.5 35.5t7 56.5 v143q0 81 -35.5 108.5t-127.5 27.5h-54q-30 0 -30 30v205q0 31 30 31h54q26 0 43.5 1t29 6t17.5 7.5t9 14.5t3.5 16.5t0 24.5t-0.5 28v94q0 63 -19.5 86t-72.5 23h-70q-88 0 -88 -111l-2 -1091q0 -31 -31 -31h-200q-31 0 -31 31z" />
<glyph unicode="&#xe0;" horiz-adv-x="976" d="M43 303q14 146 114 228.5t234 82.5h205l2 17q3 34 -25 64t-73 30h-56q-17 0 -33 -2.5t-31 -7.5t-25.5 -9t-24.5 -12.5t-20 -12.5t-19 -13.5t-15 -10.5q-12 -6 -27.5 -3.5t-21.5 14.5l-80 125q-19 27 0 43q62 59 149.5 96t188.5 37h78q84 0 155.5 -45t112 -128.5 t29.5 -185.5l-59 -561q0 -23 2 -31q0 -18 -8 -18h-224q-17 0 -26.5 13.5t-7.5 35.5v6q-83 -57 -164 -57h-64q-118 0 -198 90t-68 215zM264 1602q-14 36 25 36h213q30 0 39 -36l114 -379q4 -17 -2.5 -27t-21.5 -10h-189q-26 0 -39 37zM307 307q-3 -27 11.5 -46t46.5 -19h86 q39 -1 62.5 7.5t47.5 29.5l10 94h-192q-28 0 -48.5 -20.5t-23.5 -45.5z" />
<glyph unicode="&#xe1;" horiz-adv-x="976" d="M43 303q14 146 114 228.5t234 82.5h205l2 17q3 34 -25 64t-73 30h-56q-17 0 -33 -2.5t-31 -7.5t-25.5 -9t-24.5 -12.5t-20 -12.5t-19 -13.5t-15 -10.5q-12 -6 -27.5 -3.5t-21.5 14.5l-80 125q-19 27 0 43q62 59 149.5 96t188.5 37h78q84 0 155.5 -45t112 -128.5 t29.5 -185.5l-59 -561q0 -23 2 -31q0 -18 -8 -18h-224q-17 0 -26.5 13.5t-7.5 35.5v6q-83 -57 -164 -57h-64q-118 0 -198 90t-68 215zM307 307q-3 -27 11.5 -46t46.5 -19h86q39 -1 62.5 7.5t47.5 29.5l10 94h-192q-28 0 -48.5 -20.5t-23.5 -45.5zM429.5 1196q-5.5 10 4.5 27 l193 379q14 36 47 36h237q37 0 17 -36l-217 -379q-14 -20 -23.5 -28.5t-23.5 -8.5h-213q-16 0 -21.5 10z" />
<glyph unicode="&#xe2;" horiz-adv-x="976" d="M43 303q14 146 114 228.5t234 82.5h205l2 17q3 34 -25 64t-73 30h-56q-17 0 -33 -2.5t-31 -7.5t-25.5 -9t-24.5 -12.5t-20 -12.5t-19 -13.5t-15 -10.5q-12 -6 -27.5 -3.5t-21.5 14.5l-80 125q-19 27 0 43q62 59 149.5 96t188.5 37h78q84 0 155.5 -45t112 -128.5 t29.5 -185.5l-59 -561q0 -23 2 -31q0 -18 -8 -18h-224q-17 0 -26.5 13.5t-7.5 35.5v6q-83 -57 -164 -57h-64q-118 0 -198 90t-68 215zM163.5 1212q-3.5 12 6.5 27l270 367q26 32 52 32h206q29 0 45 -32l193 -367q9 -15 1.5 -27t-22.5 -12h-213q-14 0 -23 8.5t-20 30.5 l-86 180l-129 -180q-26 -39 -51 -39h-211q-15 0 -18.5 12zM307 307q-3 -27 11.5 -46t46.5 -19h86q39 -1 62.5 7.5t47.5 29.5l10 94h-192q-28 0 -48.5 -20.5t-23.5 -45.5z" />
<glyph unicode="&#xe3;" horiz-adv-x="976" d="M43 303q14 146 114 228.5t234 82.5h205l2 17q3 34 -25 64t-73 30h-56q-17 0 -33 -2.5t-31 -7.5t-25.5 -9t-24.5 -12.5t-20 -12.5t-19 -13.5t-15 -10.5q-12 -6 -27.5 -3.5t-21.5 14.5l-80 125q-19 27 0 43q62 59 149.5 96t188.5 37h78q84 0 155.5 -45t112 -128.5 t29.5 -185.5l-59 -561q0 -23 2 -31q0 -18 -8 -18h-224q-17 0 -26.5 13.5t-7.5 35.5v6q-83 -57 -164 -57h-64q-118 0 -198 90t-68 215zM180 1454q-9 24 27 45q246 156 416 37q38 -26 67 -36.5t59 -5.5t53.5 16.5t63.5 37.5q24 15 33 -16l62 -154q11 -21 -25 -45 q-239 -150 -418 -37q-39 25 -67.5 35.5t-58.5 5.5t-53 -16t-65 -37q-20 -13 -32 16zM307 307q-3 -27 11.5 -46t46.5 -19h86q39 -1 62.5 7.5t47.5 29.5l10 94h-192q-28 0 -48.5 -20.5t-23.5 -45.5z" />
<glyph unicode="&#xe4;" horiz-adv-x="976" d="M43 303q14 146 114 228.5t234 82.5h205l2 17q3 34 -25 64t-73 30h-56q-17 0 -33 -2.5t-31 -7.5t-25.5 -9t-24.5 -12.5t-20 -12.5t-19 -13.5t-15 -10.5q-12 -6 -27.5 -3.5t-21.5 14.5l-80 125q-19 27 0 43q62 59 149.5 96t188.5 37h78q84 0 155.5 -45t112 -128.5 t29.5 -185.5l-59 -561q0 -23 2 -31q0 -18 -8 -18h-224q-17 0 -26.5 13.5t-7.5 35.5v6q-83 -57 -164 -57h-64q-118 0 -198 90t-68 215zM152 1192l28 264q3 31 33 31h268q32 0 29 -31l-31 -264q-3 -31 -33 -31h-266q-31 0 -28 31zM307 307q-3 -27 11.5 -46t46.5 -19h86 q39 -1 62.5 7.5t47.5 29.5l10 94h-192q-28 0 -48.5 -20.5t-23.5 -45.5zM614 1192l29 264q3 31 33 31h268q32 0 29 -31l-29 -264q-3 -31 -33 -31h-268q-32 0 -29 31z" />
<glyph unicode="&#xe5;" horiz-adv-x="976" d="M43 303q14 146 114 228.5t234 82.5h205l2 17q3 34 -25 64t-73 30h-56q-17 0 -33 -2.5t-31 -7.5t-25.5 -9t-24.5 -12.5t-20 -12.5t-19 -13.5t-15 -10.5q-12 -6 -27.5 -3.5t-21.5 14.5l-80 125q-19 27 0 43q62 59 149.5 96t188.5 37h78q84 0 155.5 -45t112 -128.5 t29.5 -185.5l-59 -561q0 -23 2 -31q0 -18 -8 -18h-224q-17 0 -26.5 13.5t-7.5 35.5v6q-83 -57 -164 -57h-64q-118 0 -198 90t-68 215zM307 307q-3 -27 11.5 -46t46.5 -19h86q39 -1 62.5 7.5t47.5 29.5l10 94h-192q-28 0 -48.5 -20.5t-23.5 -45.5zM371 1427l2 23 q9 82 67.5 136t141.5 54h26q83 0 130 -54t38 -136l-2 -23q-9 -83 -67.5 -135.5t-141.5 -52.5h-26q-83 0 -130 52.5t-38 135.5zM526 1440q-2 -20 10 -34.5t31 -14.5h4q20 0 35.5 14.5t18.5 34.5v4q0 18 -12 31.5t-31 13.5h-4q-19 0 -34.5 -14t-17.5 -31v-4z" />
<glyph unicode="&#xe6;" horiz-adv-x="1458" d="M45 291q13 134 113.5 217.5t232.5 83.5h172v6l2 18q2 34 -17 57t-59 23h-83q-45 0 -71 -7t-50 -27q-26 -16 -41 4l-99 141q-14 21 2 41q129 119 334 119h74q104 0 184 -74q102 76 228 76h80q86 0 160.5 -47t116 -133t30.5 -189l-15 -143q-6 -62 -67 -62h-459l-2 -16 l-6 -66q1 -34 24.5 -52.5t61.5 -18.5h80q66 0 135 73q14 14 33.5 15t34.5 -11l104 -102q22 -20 2 -43q-39 -42 -66.5 -67t-70 -53.5t-93 -42t-110.5 -13.5h-76q-128 0 -219 78q-107 -78 -231 -78h-109q-114 0 -193 88t-67 205zM315 309q-2 -15 5.5 -28t19.5 -13h51h17 q40 0 57 0.5t34.5 5.5t30.5 15l7 57h-189q-9 0 -21 -12.5t-12 -24.5zM836 610h249l2 29q3 32 -17 59t-56 27h-80q-36 0 -64.5 -27.5t-31.5 -60.5z" />
<glyph unicode="&#xe7;" horiz-adv-x="960" d="M55 365l25 233q15 150 132 260.5t271 110.5h78q131 0 222 -91t83 -202q-3 -13 -4.5 -19t-8 -12t-17.5 -6h-201q-30 0 -33 29q-9 29 -23.5 43t-50.5 14h-69q-40 0 -75.5 -37.5t-39.5 -87.5l-27 -238q-6 -50 22 -85t69 -35h84q20 0 39.5 10.5t29.5 19.5t30 32t25 28 q13 14 30.5 14t29.5 -12l121 -117q21 -21 2 -43q-34 -37 -56.5 -58.5t-57 -48t-73.5 -42t-84 -21.5l-2 -6q-14 -16 -17.5 -26t2.5 -14.5t16.5 -7t27.5 -4.5q7 -1 10 -1q99 -11 135.5 -55.5t26.5 -147.5q-9 -75 -65 -115.5t-154 -40.5h-170q-85 0 -127.5 47t-36.5 125 q4 21 21 21h163q8 0 14.5 -5t6.5 -12q-3 -17 9 -22.5t36 -5.5h45q55 0 57 22q1 8 -6 12t-28 8t-57 8q-75 9 -130 17q-15 2 -29.5 10t-25 24t-12 37.5t15 54.5t51.5 71l6 6q-127 25 -199 127.5t-57 233.5z" />
<glyph unicode="&#xe8;" horiz-adv-x="966" d="M55 365l25 233q15 150 132 260.5t271 110.5h78q65 0 125 -28t103.5 -76t66 -118t14.5 -147l-14 -143q-6 -62 -68 -62h-458l-8 -61q-6 -44 18.5 -68t67.5 -24h77q70 0 136 73q15 14 34 15t33 -11l107 -102q21 -21 2 -43q-39 -42 -66.5 -67t-70 -53.5t-93 -42t-110.5 -13.5 h-76q-155 0 -249 108.5t-77 258.5zM242 1602q-14 36 24 36h213q30 0 39 -36l115 -379q4 -17 -3 -27t-22 -10h-188q-26 0 -39 37zM350 610h250l2 29q3 32 -16.5 59t-55.5 27h-79q-37 0 -66.5 -27.5t-32.5 -60.5z" />
<glyph unicode="&#xe9;" horiz-adv-x="966" d="M55 365l25 233q15 150 132 260.5t271 110.5h78q65 0 125 -28t103.5 -76t66 -118t14.5 -147l-14 -143q-6 -62 -68 -62h-458l-8 -61q-6 -44 18.5 -68t67.5 -24h77q70 0 136 73q15 14 34 15t33 -11l107 -102q21 -21 2 -43q-39 -42 -66.5 -67t-70 -53.5t-93 -42t-110.5 -13.5 h-76q-155 0 -249 108.5t-77 258.5zM350 610h250l2 29q3 32 -16.5 59t-55.5 27h-79q-37 0 -66.5 -27.5t-32.5 -60.5zM407 1196q-5 10 5 27l192 379q14 36 47 36h238q36 0 16 -36l-217 -379q-14 -20 -23.5 -28.5t-23.5 -8.5h-213q-16 0 -21 10z" />
<glyph unicode="&#xea;" horiz-adv-x="966" d="M55 365l25 233q15 150 132 260.5t271 110.5h78q65 0 125 -28t103.5 -76t66 -118t14.5 -147l-14 -143q-6 -62 -68 -62h-458l-8 -61q-6 -44 18.5 -68t67.5 -24h77q70 0 136 73q15 14 34 15t33 -11l107 -102q21 -21 2 -43q-39 -42 -66.5 -67t-70 -53.5t-93 -42t-110.5 -13.5 h-76q-155 0 -249 108.5t-77 258.5zM141 1212q-4 12 6 27l271 367q26 32 51 32h207q29 0 45 -32l192 -367q9 -15 2 -27t-22 -12h-213q-14 0 -23 8.5t-20 30.5l-86 180l-129 -180q-26 -39 -51 -39h-211q-15 0 -19 12zM350 610h250l2 29q3 32 -16.5 59t-55.5 27h-79 q-37 0 -66.5 -27.5t-32.5 -60.5z" />
<glyph unicode="&#xeb;" horiz-adv-x="966" d="M55 365l25 233q15 150 132 260.5t271 110.5h78q65 0 125 -28t103.5 -76t66 -118t14.5 -147l-14 -143q-6 -62 -68 -62h-458l-8 -61q-6 -44 18.5 -68t67.5 -24h77q70 0 136 73q15 14 34 15t33 -11l107 -102q21 -21 2 -43q-39 -42 -66.5 -67t-70 -53.5t-93 -42t-110.5 -13.5 h-76q-155 0 -249 108.5t-77 258.5zM127 1192l29 264q3 31 32 31h269q31 0 28 -31l-30 -264q-3 -31 -33 -31h-266q-32 0 -29 31zM350 610h250l2 29q3 32 -16.5 59t-55.5 27h-79q-37 0 -66.5 -27.5t-32.5 -60.5zM590 1192l28 264q3 31 33 31h269q31 0 28 -31l-28 -264 q-3 -31 -33 -31h-269q-31 0 -28 31z" />
<glyph unicode="&#xec;" horiz-adv-x="591" d="M55 1602q-14 36 25 36h213q30 0 39 -36l114 -379q4 -17 -2.5 -27t-21.5 -10h-189q-25 0 -38 37zM88 31l96 903q3 31 33 31h203q32 0 29 -31l-97 -903q-3 -31 -33 -31h-202q-32 0 -29 31z" />
<glyph unicode="&#xed;" horiz-adv-x="591" d="M88 31l96 903q3 31 33 31h203q32 0 29 -31l-97 -903q-3 -31 -33 -31h-202q-32 0 -29 31zM220.5 1196q-5.5 10 4.5 27l193 379q14 36 47 36h237q37 0 17 -36l-217 -379q-14 -20 -23.5 -28.5t-23.5 -8.5h-213q-16 0 -21.5 10z" />
<glyph unicode="&#xee;" horiz-adv-x="591" d="M-45.5 1212q-3.5 12 6.5 27l270 367q26 32 52 32h206q30 0 46 -32l192 -367q9 -15 2 -27t-22 -12h-213q-14 0 -23 8.5t-20 30.5l-86 180l-129 -180q-26 -39 -52 -39h-211q-15 0 -18.5 12zM88 31l96 903q3 31 33 31h203q32 0 29 -31l-97 -903q-3 -31 -33 -31h-202 q-32 0 -29 31z" />
<glyph unicode="&#xef;" horiz-adv-x="591" d="M-59 1192l28 264q3 31 33 31h268q32 0 29 -31l-31 -264q-3 -31 -32 -31h-267q-31 0 -28 31zM88 31l96 903q3 31 33 31h203q32 0 29 -31l-97 -903q-3 -31 -33 -31h-202q-32 0 -29 31zM403 1192l29 264q3 31 33 31h268q32 0 29 -31l-29 -264q-3 -31 -33 -31h-268 q-32 0 -29 31z" />
<glyph unicode="&#xf0;" horiz-adv-x="1112" d="M68 422q23 254 135.5 375t320.5 121q43 0 73 -0.5t53.5 -2.5t36 -3t26 -5t17.5 -5.5t17.5 -8.5t18.5 -10q4 49 3.5 62t-8.5 60t-11 78q-6 -2 -17 -2h-233q-19 0 -24 11t7 26l111 125h-33q-32 0 -29 31l23 209q3 30 35 30h49q91 0 166 -32q12 6 22 6h234q19 0 23 -11 t-9 -26l-110 -127q51 -96 51 -227q3 -336 -64 -682q-39 -202 -154 -318t-263 -116h-134q-162 0 -256.5 114t-76.5 328zM342 418q-8 -94 16.5 -131t94.5 -37h59q7 0 28 -2.5t35 -2.5t35.5 7.5t37 24t31.5 51.5t26 86q8 38 11 67.5t4 52t-4.5 39.5t-10 28t-18 18.5t-22.5 11 t-29.5 5.5t-33.5 2t-39.5 0.5t-42.5 0.5q-88 3 -127.5 -51t-50.5 -170z" />
<glyph unicode="&#xf1;" horiz-adv-x="1024" d="M53 31l97 901q3 31 32 31h201q32 0 29 -31l-4 -45q8 23 64.5 49.5t107.5 26.5h53q82 0 141.5 -29t91 -80.5t43 -117t2.5 -142.5l-59 -563q-3 -31 -33 -31h-203q-31 0 -28 31l61 569q6 48 -18.5 83.5t-67.5 35.5h-63q-50 0 -83.5 -36t-39.5 -91l-62 -561q-3 -31 -32 -31 h-201q-32 0 -29 31zM195 1454q-9 24 26 45q246 156 416 37q38 -26 67.5 -36.5t59.5 -5.5t53.5 17t63.5 37q23 14 32 -16l62 -154q11 -21 -25 -45q-239 -150 -418 -37q-39 25 -67.5 35.5t-58 5.5t-52.5 -16t-65 -37q-20 -14 -33 16z" />
<glyph unicode="&#xf2;" horiz-adv-x="997" d="M55 360l27 242q14 151 132 259t271 108h90q153 0 248 -107.5t80 -259.5l-24 -242q-17 -151 -135 -256.5t-271 -105.5h-90q-154 0 -249.5 105.5t-78.5 256.5zM270 1602q-14 36 25 36h213q30 0 39 -36l115 -379q4 -17 -3 -27t-22 -10h-188q-26 0 -39 37zM319 360 q-7 -52 18 -85t71 -33h90q46 0 78 32.5t38 85.5l27 242q5 53 -21 88t-71 35h-90q-45 0 -77 -35t-38 -88z" />
<glyph unicode="&#xf3;" horiz-adv-x="997" d="M55 360l27 242q14 151 132 259t271 108h90q153 0 248 -107.5t80 -259.5l-24 -242q-17 -151 -135 -256.5t-271 -105.5h-90q-154 0 -249.5 105.5t-78.5 256.5zM319 360q-7 -52 18 -85t71 -33h90q46 0 78 32.5t38 85.5l27 242q5 53 -21 88t-71 35h-90q-45 0 -77 -35t-38 -88 zM435.5 1196q-5.5 10 4.5 27l193 379q14 36 47 36h238q36 0 16 -36l-217 -379q-14 -20 -23.5 -28.5t-23.5 -8.5h-213q-16 0 -21.5 10z" />
<glyph unicode="&#xf4;" horiz-adv-x="997" d="M55 360l27 242q14 151 132 259t271 108h90q153 0 248 -107.5t80 -259.5l-24 -242q-17 -151 -135 -256.5t-271 -105.5h-90q-154 0 -249.5 105.5t-78.5 256.5zM169.5 1212q-3.5 12 6.5 27l270 367q26 32 52 32h207q29 0 45 -32l192 -367q9 -15 2 -27t-22 -12h-213 q-14 0 -23 8.5t-20 30.5l-86 180l-129 -180q-26 -39 -52 -39h-211q-15 0 -18.5 12zM319 360q-7 -52 18 -85t71 -33h90q46 0 78 32.5t38 85.5l27 242q5 53 -21 88t-71 35h-90q-45 0 -77 -35t-38 -88z" />
<glyph unicode="&#xf5;" horiz-adv-x="997" d="M55 360l27 242q14 151 132 259t271 108h90q153 0 248 -107.5t80 -259.5l-24 -242q-17 -151 -135 -256.5t-271 -105.5h-90q-154 0 -249.5 105.5t-78.5 256.5zM186 1454q-9 24 27 45q246 156 416 37q38 -26 67 -36.5t59 -5.5t53.5 16.5t63.5 37.5q24 15 33 -16l62 -154 q11 -21 -25 -45q-239 -150 -418 -37q-39 25 -67.5 35.5t-58 5.5t-52.5 -16t-65 -37q-20 -14 -33 16zM319 360q-7 -52 18 -85t71 -33h90q46 0 78 32.5t38 85.5l27 242q5 53 -21 88t-71 35h-90q-45 0 -77 -35t-38 -88z" />
<glyph unicode="&#xf6;" horiz-adv-x="997" d="M55 360l27 242q14 151 132 259t271 108h90q153 0 248 -107.5t80 -259.5l-24 -242q-17 -151 -135 -256.5t-271 -105.5h-90q-154 0 -249.5 105.5t-78.5 256.5zM156 1192l28 264q3 31 33 31h268q32 0 29 -31l-31 -264q-3 -31 -32 -31h-267q-31 0 -28 31zM319 360 q-7 -52 18 -85t71 -33h90q46 0 78 32.5t38 85.5l27 242q5 53 -21 88t-71 35h-90q-45 0 -77 -35t-38 -88zM618 1192l29 264q3 31 33 31h268q32 0 29 -31l-29 -264q-3 -31 -33 -31h-268q-32 0 -29 31z" />
<glyph unicode="&#xf7;" horiz-adv-x="1052" d="M102 557l25 209q3 31 33 31h747q30 0 27 -31l-25 -209q-3 -31 -35 -31h-745q-30 0 -27 31zM317 160l25 225q3 31 33 31h231q32 0 29 -31l-25 -225q-3 -31 -32 -31h-232q-32 0 -29 31zM401 938l21 225q3 31 37 31h229q30 0 27 -31l-23 -225q-3 -31 -35 -31h-229 q-30 0 -27 31z" />
<glyph unicode="&#xf8;" horiz-adv-x="1028" d="M55 360l27 242q14 151 132 259t271 108h90q20 0 56 -4h6h221q34 0 19 -31l-46 -82q84 -105 72 -250l-24 -242q-17 -151 -135 -256.5t-271 -105.5h-90q-27 0 -41 2h-221q-15 0 -20.5 8t1.5 23l37 67q-102 107 -84 262zM328 446l151 279h-20q-45 0 -77 -35t-38 -88z M500 242q45 2 76.5 34t37.5 84l13 115z" />
<glyph unicode="&#xf9;" horiz-adv-x="987" d="M55 369l60 563q3 31 32 31h203q32 0 29 -31l-62 -570q-6 -48 18.5 -83t67.5 -35h64q50 0 83.5 36t39.5 91l61 561q3 31 33 31h201q31 0 28 -31l-96 -901q-3 -31 -33 -31h-200q-32 0 -29 31l4 45q-8 -23 -64.5 -49.5t-107.5 -26.5h-53q-82 0 -141.5 29t-91.5 80.5 t-43.5 117t-2.5 142.5zM270 1602q-14 36 25 36h213q30 0 39 -36l115 -379q4 -17 -3 -27t-22 -10h-188q-26 0 -39 37z" />
<glyph unicode="&#xfa;" horiz-adv-x="987" d="M55 369l60 563q3 31 32 31h203q32 0 29 -31l-62 -570q-6 -48 18.5 -83t67.5 -35h64q50 0 83.5 36t39.5 91l61 561q3 31 33 31h201q31 0 28 -31l-96 -901q-3 -31 -33 -31h-200q-32 0 -29 31l4 45q-8 -23 -64.5 -49.5t-107.5 -26.5h-53q-82 0 -141.5 29t-91.5 80.5 t-43.5 117t-2.5 142.5zM433.5 1196q-5.5 10 4.5 27l193 379q14 36 47 36h237q37 0 17 -36l-217 -379q-14 -20 -23.5 -28.5t-23.5 -8.5h-213q-16 0 -21.5 10z" />
<glyph unicode="&#xfb;" horiz-adv-x="987" d="M55 369l60 563q3 31 32 31h203q32 0 29 -31l-62 -570q-6 -48 18.5 -83t67.5 -35h64q50 0 83.5 36t39.5 91l61 561q3 31 33 31h201q31 0 28 -31l-96 -901q-3 -31 -33 -31h-200q-32 0 -29 31l4 45q-8 -23 -64.5 -49.5t-107.5 -26.5h-53q-82 0 -141.5 29t-91.5 80.5 t-43.5 117t-2.5 142.5zM167.5 1212q-3.5 12 6.5 27l270 367q26 32 52 32h206q30 0 46 -32l192 -367q9 -15 2 -27t-22 -12h-213q-14 0 -23 8.5t-20 30.5l-86 180l-129 -180q-26 -39 -52 -39h-211q-15 0 -18.5 12z" />
<glyph unicode="&#xfc;" horiz-adv-x="987" d="M55 369l60 563q3 31 32 31h203q32 0 29 -31l-62 -570q-6 -48 18.5 -83t67.5 -35h64q50 0 83.5 36t39.5 91l61 561q3 31 33 31h201q31 0 28 -31l-96 -901q-3 -31 -33 -31h-200q-32 0 -29 31l4 45q-8 -23 -64.5 -49.5t-107.5 -26.5h-53q-82 0 -141.5 29t-91.5 80.5 t-43.5 117t-2.5 142.5zM156 1192l28 264q3 31 33 31h268q32 0 29 -31l-31 -264q-3 -31 -32 -31h-267q-31 0 -28 31zM618 1192l29 264q3 31 33 31h268q32 0 29 -31l-29 -264q-3 -31 -33 -31h-268q-32 0 -29 31z" />
<glyph unicode="&#xfd;" horiz-adv-x="1134" d="M94 926q-5 16 1 26.5t22 10.5h217q29 0 39 -35l155 -514l271 514q19 35 49 35h215q33 0 14 -37l-680 -1301q-19 -35 -49 -35h-215q-35 0 -16 37l241 461zM495 1196q-5 10 5 27l192 379q14 36 47 36h238q36 0 16 -36l-217 -379q-14 -20 -23.5 -28.5t-23.5 -8.5h-213 q-16 0 -21 10z" />
<glyph unicode="&#xfe;" horiz-adv-x="1032" d="M25 -379l194 1835q3 31 33 31h203q31 0 28 -31l-53 -520q50 27 107 27h61q96 0 172.5 -52.5t114.5 -137.5t28 -181l-24 -242q-15 -140 -135.5 -245t-255.5 -105h-62q-59 0 -104 25l-43 -404q-3 -31 -33 -31h-203q-31 0 -28 31zM362 326q-8 -82 84 -82h78q47 0 70.5 16 t26.5 59l34 304q3 47 -18.5 71.5t-61.5 24.5h-77q-78 0 -103 -88z" />
<glyph unicode="&#xff;" horiz-adv-x="1134" d="M94 926q-5 16 1 26.5t22 10.5h217q29 0 39 -35l155 -514l271 514q19 35 49 35h215q33 0 14 -37l-680 -1301q-19 -35 -49 -35h-215q-35 0 -16 37l241 461zM217 1192l29 264q3 31 33 31h268q31 0 28 -31l-30 -264q-3 -31 -33 -31h-266q-32 0 -29 31zM680 1192l29 264 q3 31 32 31h269q31 0 28 -31l-28 -264q-3 -31 -33 -31h-268q-32 0 -29 31z" />
<glyph unicode="&#x152;" horiz-adv-x="1816" d="M86 461l57 559q22 202 163.5 345.5t318.5 143.5h108q88 0 164 -39q7 17 29 17h809q31 0 28 -31l-20 -184q-3 -31 -33 -31h-569l-39 -369h436q32 0 29 -30l-23 -185q-3 -30 -31 -30h-436l-43 -381h570q31 0 28 -31l-20 -184q-3 -31 -33 -31h-809q-18 0 -25 10 q-86 -39 -174 -39h-108q-116 0 -208 65.5t-137.5 178.5t-31.5 246zM352 428q-8 -85 31.5 -147.5t120.5 -63.5h80q83 0 135.5 63t60.5 148l68 625q8 85 -31.5 148t-122.5 63h-80q-82 0 -135 -63.5t-61 -147.5z" />
<glyph unicode="&#x153;" horiz-adv-x="1564" d="M55 360l27 242q14 151 132 259t271 108h90q130 0 220 -80q111 80 235 80h80q86 0 160.5 -47t116 -133t30.5 -189l-14 -143q-6 -62 -68 -62h-452l-4 -35q-2 -16 -11 -53q9 -65 86 -65h80q66 0 135 73q14 14 33 15t33 -11l106 -102q21 -21 2 -43q-39 -42 -66.5 -67 t-70 -53.5t-92.5 -42t-110 -13.5h-76q-129 0 -217 78q-108 -78 -238 -78h-90q-154 0 -249.5 105.5t-78.5 256.5zM319 360q-7 -52 18 -85t71 -33h90q69 0 102 67q0 38 2 56l25 233q3 24 10 57q-9 32 -32 51t-56 19h-90q-45 0 -77 -35t-38 -88zM903 610h246v29q3 32 -16.5 59 t-55.5 27h-80q-31 0 -57 -20t-37 -48q3 -23 0 -47z" />
<glyph unicode="&#x178;" horiz-adv-x="1239" d="M147 1456q-6 15 0.5 23t22.5 8h227q27 0 39 -31l187 -522l301 522q19 31 43 31h227q16 0 21 -8t-3 -23l-485 -803l-65 -622q-3 -31 -33 -31h-209q-32 0 -29 31l66 622zM297 1716l29 264q3 31 32 31h269q31 0 28 -31l-30 -264q-3 -30 -33 -30h-266q-32 0 -29 30zM760 1716 l28 264q3 31 33 31h269q31 0 28 -31l-28 -264q-3 -30 -33 -30h-269q-31 0 -28 30z" />
<glyph unicode="&#x2c6;" horiz-adv-x="983" d="M153.5 1212q-3.5 12 6.5 27l270 367q26 32 51 32h207q29 0 45 -32l193 -367q9 -15 1.5 -27t-22.5 -12h-213q-14 0 -23 8.5t-20 30.5l-86 180l-129 -180q-26 -39 -51 -39h-211q-15 0 -18.5 12z" />
<glyph unicode="&#x2dc;" horiz-adv-x="999" d="M178 1454q-9 24 27 45q246 156 416 37q38 -26 67 -36.5t59 -5.5t53.5 16.5t63.5 37.5q24 15 33 -16l61 -154q11 -22 -24 -45q-239 -150 -418 -37q-39 25 -67.5 35.5t-58.5 5.5t-53 -16t-65 -37q-20 -13 -32 16z" />
<glyph unicode="&#x2000;" horiz-adv-x="1082" />
<glyph unicode="&#x2001;" horiz-adv-x="2165" />
<glyph unicode="&#x2002;" horiz-adv-x="1082" />
<glyph unicode="&#x2003;" horiz-adv-x="2165" />
<glyph unicode="&#x2004;" horiz-adv-x="721" />
<glyph unicode="&#x2005;" horiz-adv-x="541" />
<glyph unicode="&#x2006;" horiz-adv-x="360" />
<glyph unicode="&#x2007;" horiz-adv-x="360" />
<glyph unicode="&#x2008;" horiz-adv-x="270" />
<glyph unicode="&#x2009;" horiz-adv-x="433" />
<glyph unicode="&#x200a;" horiz-adv-x="120" />
<glyph unicode="&#x2010;" horiz-adv-x="888" d="M109 414l22 209q3 30 35 30h541q29 0 26 -30l-22 -209q-3 -31 -35 -31h-541q-29 0 -26 31z" />
<glyph unicode="&#x2011;" horiz-adv-x="888" d="M109 414l22 209q3 30 35 30h541q29 0 26 -30l-22 -209q-3 -31 -35 -31h-541q-29 0 -26 31z" />
<glyph unicode="&#x2012;" horiz-adv-x="888" d="M109 414l22 209q3 30 35 30h541q29 0 26 -30l-22 -209q-3 -31 -35 -31h-541q-29 0 -26 31z" />
<glyph unicode="&#x2013;" horiz-adv-x="1271" d="M84 377l22 209q3 30 35 30h965q30 0 27 -30l-23 -209q-3 -31 -35 -31h-964q-30 0 -27 31z" />
<glyph unicode="&#x2014;" horiz-adv-x="1423" d="M84 377l22 209q3 30 35 30h1116q30 0 27 -30l-22 -209q-3 -31 -35 -31h-1116q-30 0 -27 31z" />
<glyph unicode="&#x2018;" horiz-adv-x="536" d="M125 963l33 303q9 90 51.5 192.5t120.5 181.5q12 12 19.5 12.5t21.5 -12.5l84 -86q23 -24 4 -43q-26 -22 -43.5 -49t-26.5 -61.5t-12.5 -57.5t-7.5 -65l-19 -21h113q29 0 26 -30l-28 -264q-3 -31 -33 -31h-274q-32 0 -29 31z" />
<glyph unicode="&#x2019;" horiz-adv-x="557" d="M80 1192l26 244q3 30 35 30h267q29 0 26 -30l-31 -283q-20 -206 -157 -346q-12 -12 -19.5 -12.5t-21.5 12.5l-76 74q-24 24 -2 43q49 43 68 92.5t28 124.5l19 20h-133q-32 0 -29 31z" />
<glyph unicode="&#x201a;" horiz-adv-x="536" d="M-51 31l26 243q3 31 35 31h266q30 0 27 -31l-31 -282q-20 -206 -157 -346q-12 -12 -19.5 -12.5t-21.5 12.5l-76 73q-24 24 -2 43q49 43 68 93t28 125l19 20h-134q-31 0 -28 31z" />
<glyph unicode="&#x201c;" horiz-adv-x="1024" d="M47 963l33 303q9 90 51.5 192.5t120.5 181.5q12 12 19.5 12.5t21.5 -12.5l84 -86q23 -24 4 -43q-26 -22 -43.5 -49t-26.5 -61.5t-12.5 -57.5t-7.5 -65l-19 -21h113q30 0 27 -30l-29 -264q-3 -31 -33 -31h-274q-32 0 -29 31zM535 963l30 303q9 89 52.5 191.5t121.5 182.5 q12 12 19.5 12.5t21.5 -12.5l82 -86q23 -23 6 -43q-26 -22 -43.5 -49t-26.5 -61.5t-12.5 -57.5t-7.5 -65l-18 -21h112q28 0 25 -30l-27 -264q-3 -31 -32 -31h-275q-31 0 -28 31z" />
<glyph unicode="&#x201d;" horiz-adv-x="1044" d="M2 1192l27 244q3 30 34 30h267q29 0 26 -30l-30 -283q-20 -205 -158 -346q-12 -12 -19.5 -12.5t-21.5 12.5l-76 74q-24 24 -2 43q49 43 68 92.5t28 124.5l19 20h-133q-32 0 -29 31zM489 1192l25 244q3 30 37 30h266q30 0 27 -30l-31 -283q-20 -205 -158 -346 q-12 -12 -19.5 -12.5t-21.5 12.5l-75 74q-24 24 -2 43q49 43 68 92.5t28 124.5l18 20h-133q-32 0 -29 31z" />
<glyph unicode="&#x201e;" horiz-adv-x="1024" d="M-51 31l26 243q3 31 35 31h266q30 0 27 -31l-31 -282q-20 -206 -157 -346q-12 -12 -19.5 -12.5t-21.5 12.5l-76 73q-24 24 -2 43q49 43 68 93t28 125l19 20h-134q-31 0 -28 31zM434 31l27 243q3 31 35 31h268q30 0 27 -31l-31 -282q-20 -205 -158 -346 q-12 -12 -19.5 -12.5t-21.5 12.5l-76 73q-24 24 -2 43q48 43 67 93.5t28 124.5l18 20h-133q-32 0 -29 31z" />
<glyph unicode="&#x2022;" horiz-adv-x="745" d="M145 575l31 273q6 67 72 67h282q70 0 64 -67l-31 -273q-6 -67 -76 -67h-282q-66 0 -60 67z" />
<glyph unicode="&#x2026;" horiz-adv-x="1906" d="M27 31l30 282q3 31 35 31h285q29 0 26 -31l-30 -282q-3 -31 -33 -31h-285q-31 0 -28 31zM705 31l30 282q3 31 35 31h285q29 0 26 -31l-30 -282q-3 -31 -33 -31h-285q-31 0 -28 31zM1382 31l31 282q3 31 35 31h285q29 0 26 -31l-30 -282q-3 -31 -33 -31h-285q-32 0 -29 31 z" />
<glyph unicode="&#x202f;" horiz-adv-x="433" />
<glyph unicode="&#x2039;" horiz-adv-x="677" d="M84 461l12 131q3 37 37 57l410 240q15 9 27 3.5t10 -20.5l-27 -237q-1 -15 -10.5 -24.5t-30.5 -20.5l-137 -64l125 -63q33 -20 30 -45l-24 -238q-2 -15 -13.5 -20t-25.5 4l-358 239q-28 21 -25 58z" />
<glyph unicode="&#x203a;" horiz-adv-x="677" d="M53 180l25 238q2 24 43 45l137 63l-125 64q-19 11 -26.5 21t-6.5 24l27 237q2 15 13.5 20.5t23.5 -3.5l360 -240q28 -21 25 -57l-12 -131q-3 -38 -37 -58l-412 -239q-14 -9 -25 -4t-10 20z" />
<glyph unicode="&#x205f;" horiz-adv-x="541" />
<glyph unicode="&#x20ac;" horiz-adv-x="1421" d="M76 494l18 184q3 31 35 31h156l8 65h-156q-31 0 -28 31l20 184q3 31 33 31h155v2q25 220 159 353.5t327 133.5h94q186 0 291.5 -132t85.5 -341q-3 -30 -35 -30h-209q-32 0 -29 30q12 108 -17.5 155.5t-113.5 47.5h-94q-91 0 -132.5 -48.5t-55.5 -168.5v-2h348 q32 0 29 -31l-21 -184q-3 -31 -33 -31h-348l-8 -65h348q30 0 27 -31l-19 -184q-3 -31 -34 -31h-347q-12 -119 20 -169t122 -50h94q84 0 124.5 48.5t49.5 158.5q3 30 37 30h209q29 0 26 -30q-23 -210 -157 -344t-320 -134h-94q-193 0 -298.5 135.5t-82.5 354.5h-158 q-29 0 -26 31z" />
<glyph unicode="&#x2122;" horiz-adv-x="1595" d="M150 1395l8 61q3 31 32 31h490q32 0 29 -31l-9 -61q-3 -31 -32 -31h-183l-39 -371q-3 -30 -34 -30h-62q-29 0 -26 30l38 371h-184q-31 0 -28 31zM772 993l49 463q3 31 33 31h123q25 0 39 -31l151 -338l228 338q18 31 43 31h123q31 0 28 -31l-49 -463q-3 -30 -35 -30h-61 q-30 0 -27 30l35 340l-235 -340q-23 -30 -43 -30h-44q-19 0 -34 30l-166 340l-35 -340q-3 -30 -35 -30h-61q-30 0 -27 30z" />
<glyph unicode="&#x25fc;" horiz-adv-x="962" d="M0 0v963h963v-963h-963z" />
</font>
</defs>
</svg>
