<?xml version="1.0" standalone="no"?>
<!DOCTYPE svg PUBLIC "-//W3C//DTD SVG 1.1//EN" "http://www.w3.org/Graphics/SVG/1.1/DTD/svg11.dtd" >
<svg xmlns="http://www.w3.org/2000/svg" xmlns:xlink="http://www.w3.org/1999/xlink" version="1.1">
<metadata></metadata>
<defs>
<font id="manifold_cfdemi_bold" horiz-adv-x="1253" >
<font-face units-per-em="2048" ascent="1638" descent="-410" />
<missing-glyph horiz-adv-x="645" />
<glyph unicode="&#xfb01;" horiz-adv-x="1218" d="M82 827v105q0 16 8 24q9 9 25 9h116v153q0 171 90 270t244 99h135q31 0 31 -31v-104q0 -31 -31 -31h-135q-74 0 -113.5 -49.5t-39.5 -141.5v-165h632q31 0 31 -31v-903q0 -31 -31 -31h-118q-31 0 -31 31v766h-483v-766q0 -31 -31 -31h-119q-31 0 -31 31v766h-118 q-31 0 -31 30zM897 1292v164q0 31 31 31h114q31 0 31 -31v-164q0 -30 -31 -30h-114q-31 0 -31 30z" />
<glyph unicode="&#xfb02;" horiz-adv-x="1198" d="M82 827v105q0 31 31 31h118v155q0 171 90 270t244 99h469q31 0 31 -31v-1425q0 -31 -31 -31h-119q-30 0 -30 31v1290h-320q-74 0 -113.5 -49.5t-39.5 -141.5v-167h268q31 0 31 -31v-105q0 -30 -31 -30h-268v-766q0 -31 -31 -31h-119q-31 0 -31 31v766h-118q-31 0 -31 30z " />
<glyph horiz-adv-x="0" />
<glyph horiz-adv-x="682" />
<glyph unicode=" "  horiz-adv-x="645" />
<glyph unicode="&#x09;" horiz-adv-x="645" />
<glyph unicode="&#xa0;" horiz-adv-x="645" />
<glyph unicode="!" horiz-adv-x="532" d="M156 31v162q0 30 30 30h142q30 0 30 -30v-162q0 -31 -30 -31h-142q-30 0 -30 31zM166 465v991q0 31 31 31h122q31 0 31 -31v-991q0 -31 -31 -31h-122q-31 0 -31 31z" />
<glyph unicode="&#x22;" horiz-adv-x="913" d="M154 856v600q0 31 30 31h140q30 0 30 -31v-600q0 -31 -30 -31h-140q-30 0 -30 31zM559 856v600q0 31 31 31h139q31 0 31 -31v-600q0 -31 -31 -31h-139q-31 0 -31 31z" />
<glyph unicode="#" horiz-adv-x="1220" d="M143 432v123q0 31 31 31h133v315h-133q-31 0 -31 31v123q0 30 31 30h133v371q0 31 31 31h123q31 0 31 -31v-371h237v371q0 31 31 31h123q30 0 30 -31v-371h134q30 0 30 -30v-123q0 -31 -30 -31h-134v-315h134q30 0 30 -31v-123q0 -31 -30 -31h-134v-370q0 -31 -30 -31 h-123q-31 0 -31 31v370h-237v-370q0 -31 -31 -31h-123q-31 0 -31 31v370h-133q-31 0 -31 31zM492 586h237v315h-237v-315z" />
<glyph unicode="$" horiz-adv-x="970" d="M102 797q0 30 31 30h96q30 0 33 -28q6 -49 49 -78t103 -37v272q-148 28 -228 91t-80 176q0 123 88 197t220 87v133q0 31 30 31h82q31 0 31 -31v-135q74 -10 139.5 -47.5t110 -101.5t47.5 -142q0 -32 -29 -32h-94q-35 0 -35 26q-1 58 -40 94.5t-99 47.5v-271 q151 -28 231 -88t80 -180q0 -110 -91 -187.5t-220 -93.5v-133q0 -30 -31 -30h-82q-30 0 -30 30v133q-74 8 -142 41.5t-116.5 93.5t-53.5 132zM260 1223q0 -56 37 -82t117 -39v252q-154 -10 -154 -131zM557 686q70 8 114 40.5t44 84.5q0 66 -38 91.5t-120 35.5v-252z" />
<glyph unicode="%" horiz-adv-x="1259" d="M82 1274v22q0 82 52.5 136.5t135.5 54.5h27q83 0 135.5 -54.5t52.5 -136.5v-22q0 -83 -52.5 -136t-135.5 -53h-27q-83 0 -135.5 53t-52.5 136zM129.5 8q-6.5 8 1.5 23l827 1425q10 17 18.5 24t22.5 7h148q16 0 22 -8t-2 -23l-827 -1425q-10 -17 -18.5 -24t-22.5 -7h-147 q-16 0 -22.5 8zM217 1280q0 -57 59 -57h13q59 0 59 57v10q0 60 -59 60h-13q-59 0 -59 -60v-10zM805 188v23q0 82 52.5 136t135.5 54h27q83 0 135.5 -54t52.5 -136v-23q0 -83 -52.5 -135.5t-135.5 -52.5h-27q-83 0 -135.5 52.5t-52.5 135.5zM940 195q0 -58 59 -58h13 q59 0 59 58v10q0 59 -59 59h-13q-59 0 -59 -59v-10z" />
<glyph unicode="&#x26;" horiz-adv-x="1478" d="M102 367v90q0 86 41.5 157t151.5 134l29 16l-37 35q-42 37 -68.5 75.5t-37.5 80.5t-14 73t-3 78v39q0 147 109 256.5t280 109.5h135q171 0 280 -109.5t109 -256.5v-39q0 -76 -30.5 -145.5t-81.5 -110.5l-66 -55q-20 -17 -49 -17h-129q-20 0 -28 14t7 25l52 33 q60 39 100.5 106t40.5 140v49q0 82 -55.5 132t-159.5 50h-115q-104 0 -159.5 -50t-55.5 -132v-49q0 -77 26 -130t97 -118l483 -438v122q0 117 58 160l100 80q3 2 9 7t9 6.5t8 3.5t11 2h145q21 0 28.5 -12.5t-7.5 -24.5l-137 -109q-9 -8 -16 -16.5t-11.5 -20t-7 -19t-3.5 -23 t-1 -21v-24.5v-23v-121q0 -56 -17 -119l244 -221q14 -11 8 -24t-26 -13h-166q-18 0 -37 16l-103 93q-57 -66 -137.5 -103t-175.5 -37h-217q-177 0 -293.5 113t-116.5 285zM287 367q0 -92 62 -152.5t173 -60.5h197q125 0 188 79l-444 406l-74 -37q-102 -52 -102 -166v-69z " />
<glyph unicode="'" horiz-adv-x="507" d="M154 856v600q0 31 30 31h140q30 0 30 -31v-600q0 -31 -30 -31h-140q-30 0 -30 31z" />
<glyph unicode="(" horiz-adv-x="714" d="M133 242v1003q0 173 90.5 279t243.5 106h84q31 0 31 -31v-122q0 -31 -31 -31h-43q-102 0 -146.5 -58.5t-44.5 -183.5v-921q0 -125 44.5 -183.5t146.5 -58.5h43q31 0 31 -31v-123q0 -30 -31 -30h-84q-153 0 -243.5 106t-90.5 279z" />
<glyph unicode=")" horiz-adv-x="714" d="M133 10q0 31 31 31h43q102 0 146 58t44 184v921q0 126 -44 184t-146 58h-43q-31 0 -31 31v122q0 31 31 31h84q153 0 243.5 -106t90.5 -279v-1003q0 -173 -90.5 -279t-243.5 -106h-84q-31 0 -31 30v123z" />
<glyph unicode="*" horiz-adv-x="782" d="M129 1106q-16 25 10 39l123 65l-123 64q-25 14 -10 41l53 84q14 22 39 10l92 -76v127q0 27 27 27h102q29 0 29 -27v-127l90 76q27 14 39 -10l53 -84q15 -27 -10 -41l-121 -64l121 -65q26 -14 10 -39l-53 -86q-12 -25 -39 -8l-90 73v-124q0 -29 -29 -29h-102q-27 0 -27 29 v124l-92 -73q-24 -15 -39 8z" />
<glyph unicode="+" horiz-adv-x="1052" d="M123 600v123q0 31 31 31h282v301q0 30 31 30h123q31 0 31 -30v-301h280q29 0 29 -31v-123q0 -31 -31 -31h-278v-303q0 -30 -31 -30h-123q-31 0 -31 30v303h-282q-31 0 -31 31z" />
<glyph unicode="," horiz-adv-x="456" d="M104 31v186q0 31 31 31h184q31 0 31 -31v-225q0 -97 -20 -172.5t-88 -153.5q-11 -13 -18 -13.5t-23 13.5l-51 45q-28 26 -9 45q35 33 52 72t19.5 67t2.5 85l16 20h-96q-31 0 -31 31z" />
<glyph unicode="-" horiz-adv-x="888" d="M143 457v123q0 30 31 30h541q30 0 30 -30v-123q0 -31 -30 -31h-541q-31 0 -31 31z" />
<glyph unicode="." horiz-adv-x="380" d="M82 31v155q0 31 31 31h155q31 0 31 -31v-155q0 -31 -31 -31h-155q-31 0 -31 31z" />
<glyph unicode="/" horiz-adv-x="866" d="M44 8q-6 8 1 23l623 1425q12 31 41 31h135q32 0 20 -31l-622 -1425q-16 -31 -41 -31h-135q-16 0 -22 8z" />
<glyph unicode="0" horiz-adv-x="1206" d="M123 469v551q0 202 126.5 345.5t303.5 143.5h100q177 0 303.5 -143.5t126.5 -345.5v-551q0 -202 -126.5 -345.5t-303.5 -143.5h-100q-177 0 -303.5 143.5t-126.5 345.5zM307 457q0 -128 71.5 -217t182.5 -88h84q113 0 183.5 88.5t70.5 216.5v577q0 128 -70.5 215.5 t-183.5 87.5h-84q-112 0 -183 -88t-71 -215v-577z" />
<glyph unicode="1" horiz-adv-x="839" d="M154 1217q-20 20 0 43l221 217l8 6q8 4 18 4h117q31 0 31 -31v-1425q0 -31 -31 -31h-117q-30 0 -30 31v1186l-88 -87q-7 -10 -20 -10t-23 10z" />
<glyph unicode="2" horiz-adv-x="1159" d="M104 31q1 85 4.5 146t13.5 127.5t29.5 115t50 94.5t77 80.5t108.5 60.5l277 117q84 35 127 69.5t63 90.5t20 151q0 107 -69.5 177.5t-175.5 70.5h-86q-104 0 -175 -70.5t-71 -183.5v-35q0 -30 -31 -30h-125q-30 0 -30 30v35q0 94 37 175.5t98 135t138 84t159 31.5h86 q112 0 210 -52t159 -149.5t61 -218.5q0 -86 -13.5 -151t-38 -113.5t-67 -86.5t-93 -66.5t-124.5 -57.5l-231 -94q-189 -75 -189 -342h709q30 0 30 -31v-110q0 -31 -30 -31h-877q-31 0 -31 31z" />
<glyph unicode="3" horiz-adv-x="1148" d="M96 391v39q0 31 31 31h123q31 0 31 -31v-39q0 -100 75 -168.5t179 -68.5h79q114 0 187 68t73 173q0 128 -67.5 198.5t-194.5 76.5h-137q-31 0 -31 30v117q0 31 31 31h137q236 11 236 260q0 98 -66 164.5t-170 66.5h-82q-99 0 -170 -74.5t-71 -181.5v-39q0 -30 -31 -30 h-125q-31 0 -31 30v39q0 93 36.5 174.5t96 136t135.5 86t154 31.5h88q169 0 294.5 -116.5t125.5 -280.5q0 -137 -57.5 -221t-173.5 -133q258 -105 258 -375q0 -118 -63.5 -211.5t-164.5 -142.5t-217 -49h-86q-109 0 -207 48.5t-162 144t-63 216.5z" />
<glyph unicode="4" horiz-adv-x="1128" d="M47 569q-9 28 4 49l565 869q14 22 41 22h148q20 0 26 -11t-6 -28l-526 -804h389v266q0 31 31 31h123q30 0 30 -31v-266h134q30 0 30 -31v-111q0 -30 -30 -30h-134v-463q0 -31 -30 -31h-123q-31 0 -31 31v463h-590q-23 0 -32 20z" />
<glyph unicode="5" horiz-adv-x="1163" d="M102 393v33q0 31 31 31h125q31 0 31 -31v-33q0 -113 63.5 -177t175.5 -64h84q116 0 189.5 68t77.5 202q6 166 -63.5 254t-203.5 88h-41q-50 0 -93 -10t-78 -30t-53.5 -33.5t-43.5 -35.5h-149q-31 0 -31 31v39l20 731q0 31 31 31h793q30 0 30 -31v-106q0 -31 -30 -31h-641 l-17 -461q108 74 266 74h41q97 0 179.5 -31t145.5 -91.5t96.5 -159t29.5 -224.5q-4 -109 -43 -195.5t-102.5 -140t-142.5 -81t-167 -27.5h-84q-116 0 -212.5 49.5t-155 144.5t-58.5 217z" />
<glyph unicode="6" horiz-adv-x="1163" d="M115 422q-31 328 8 672q20 181 132.5 299t293.5 118h78q179 0 303.5 -119.5t124.5 -301.5v-27q0 -31 -31 -31h-121q-31 0 -31 31v27q0 112 -71 180.5t-174 68.5h-74q-100 0 -164 -64.5t-80 -160.5q-18 -113 -18 -252q38 35 114 60.5t162 25.5h54q225 0 339 -135t105 -387 q-4 -109 -41.5 -195t-99 -139.5t-139 -81.5t-164.5 -28h-91q-176 0 -286 115.5t-129 324.5zM299 422q10 -133 75.5 -200.5t155.5 -67.5h91q49 0 93.5 15.5t81.5 46.5t60 84.5t25 123.5q2 85 -9 147t-39.5 109.5t-80.5 71.5t-129 24h-64q-166 0 -221 -81t-39 -273z" />
<glyph unicode="7" horiz-adv-x="1165" d="M92 1350v106q0 31 31 31h919q31 0 31 -31v-88q0 -31 -8 -47q-270 -322 -442.5 -629t-262.5 -657q-3 -14 -14.5 -24.5t-26.5 -10.5h-114q-16 0 -23 14t-2 29q175 677 680 1276h-737q-31 0 -31 31z" />
<glyph unicode="8" horiz-adv-x="1173" d="M92 367v71q0 107 55.5 196t147.5 134q-81 40 -124.5 128t-43.5 198v43q0 152 109 263t278 111h148q167 0 276 -111t109 -263v-43q0 -110 -43.5 -198t-124.5 -128q92 -45 148 -134t56 -196v-71q0 -156 -122.5 -270.5t-292.5 -114.5h-160q-171 0 -293.5 114.5t-122.5 270.5 zM276 381q0 -92 69 -159.5t169 -67.5h148q99 0 169.5 68t67.5 159v70q0 95 -69 164t-168 69h-148q-100 0 -169 -69t-69 -164v-70zM311 1073q0 -92 57.5 -154.5t155.5 -62.5h125q99 0 156 62.5t57 154.5v55q0 84 -59 147.5t-156 63.5h-121q-96 0 -157 -64t-58 -147v-55z" />
<glyph unicode="9" horiz-adv-x="1165" d="M102 1069q4 108 41.5 194t99 139t139.5 81t165 28h90q176 0 285.5 -115t128.5 -323q30 -326 -9 -674q-20 -182 -132 -299.5t-294 -117.5h-77q-117 0 -215 53.5t-155.5 151.5t-57.5 219v26q0 31 30 31h123q31 0 31 -31v-26q0 -114 70.5 -183t173.5 -69h75q101 0 164.5 65 t77.5 162q21 129 21 250q-37 -34 -114.5 -59t-162.5 -25h-55q-224 0 -338 135t-105 387zM287 1071q-5 -174 52 -263t204 -89h63q167 0 222.5 81t39.5 271q-11 133 -76 200.5t-155 67.5h-90q-106 0 -181.5 -67.5t-78.5 -200.5z" />
<glyph unicode=":" horiz-adv-x="542" d="M154 31v182q0 31 30 31h174q31 0 31 -31v-182q0 -31 -31 -31h-174q-30 0 -30 31zM154 750v182q0 31 30 31h174q31 0 31 -31v-182q0 -31 -31 -31h-174q-30 0 -30 31z" />
<glyph unicode=";" horiz-adv-x="544" d="M154 31v202q0 31 30 31h174q31 0 31 -31q2 -61 2 -237q-4 -180 -92 -287q-16 -20 -35 -8l-55 39q-33 15 -12 39q60 67 51 207l12 14h-76q-30 0 -30 31zM154 750v182q0 31 30 31h174q31 0 31 -31v-182q0 -31 -31 -31h-174q-30 0 -30 31z" />
<glyph unicode="&#x3c;" horiz-adv-x="983" d="M123 483q0 57 27 70l677 371q13 7 23 1.5t10 -18.5v-131q0 -38 -20 -49l-449 -244l449 -243q20 -9 20 -50v-131q0 -12 -10 -17.5t-23 1.5l-677 371q-27 16 -27 69z" />
<glyph unicode="=" horiz-adv-x="929" d="M123 420v112q0 31 31 31h622q31 0 31 -31v-112q0 -31 -31 -31h-622q-31 0 -31 31zM123 743v113q0 31 31 31h622q31 0 31 -31v-113q0 -30 -31 -30h-622q-31 0 -31 30z" />
<glyph unicode="&#x3e;" horiz-adv-x="983" d="M123 59v131q0 41 20 50l449 243l-449 244q-20 11 -20 49v131q0 13 9.5 18.5t23.5 -1.5l678 -371q26 -13 26 -70q0 -53 -26 -69l-678 -371q-14 -7 -23.5 -1.5t-9.5 17.5z" />
<glyph unicode="?" horiz-adv-x="1030" d="M72 1042v39q0 191 118 311.5t285 120.5h86q83 0 157.5 -31.5t130 -86.5t88 -135.5t32.5 -172.5q0 -72 -15 -128t-36 -91.5t-61 -66t-72 -47t-87 -39.5q-35 -14 -46.5 -18.5t-35 -15.5t-30.5 -18.5t-18 -20.5t-14 -28.5t-3 -35.5v-113q0 -31 -31 -31h-123q-30 0 -30 31 v133q0 108 51 161.5t198 114.5q92 37 130 79.5t38 133.5q0 107 -60 174.5t-163 67.5h-86q-98 0 -157.5 -70.5t-59.5 -177.5v-39q0 -30 -31 -30h-125q-30 0 -30 30zM358 31v162q0 30 31 30h141q31 0 31 -30v-162q0 -31 -31 -31h-141q-31 0 -31 31z" />
<glyph unicode="@" horiz-adv-x="1343" d="M123 473v541q0 147 67.5 261.5t182.5 175t256 60.5h94q209 0 353.5 -136.5t144.5 -346.5v-555q0 -83 -39.5 -134.5t-112.5 -51.5h-65q-45 0 -78.5 26t-48.5 64q-31 -36 -98.5 -64t-137.5 -28h-20q-111 0 -186 78.5t-75 189.5q0 122 73.5 195t215.5 73h170v15 q0 84 -35 126t-98 42h-35q-63 0 -100.5 -16.5t-77.5 -51.5q-11 -9 -24 -9.5t-21 9.5l-51 72q-17 23 -2 41q55 60 118.5 89t163.5 29h41q129 0 205 -87t76 -249v-331q0 -23 7.5 -34t31.5 -11q23 0 31 11t8 34v512q0 157 -99 246.5t-256 89.5h-53q-157 0 -259.5 -90.5 t-102.5 -253.5v-519q0 -166 102 -257t260 -91h84q80 0 156 47q37 23 37 -16v-117q0 -25 -23 -37q-87 -41 -170 -41h-104q-217 0 -361.5 138t-144.5 362zM516 553q0 -45 30.5 -73.5t76.5 -28.5h20q128 0 176 112v94h-178q-125 0 -125 -104z" />
<glyph unicode="A" d="M86 33l451 1427q10 33 38 33h107q29 0 39 -33l448 -1427q9 -33 -24 -33h-125q-32 0 -41 33l-109 358h-487l-111 -358q-9 -33 -36 -33h-127q-34 0 -23 33zM436 563h383l-188 629z" />
<glyph unicode="B" horiz-adv-x="1204" d="M133 37v1413q0 37 37 37h481q177 0 290.5 -101.5t113.5 -277.5q0 -255 -174 -344q211 -92 211 -371q0 -189 -109.5 -291t-310.5 -102h-502q-37 0 -37 37zM317 172h332q124 0 191 61t67 179q0 124 -69.5 193t-186.5 69h-334v-502zM317 846h334q107 0 163 66.5t56 177.5 q0 108 -63.5 166.5t-167.5 58.5h-322v-469z" />
<glyph unicode="C" horiz-adv-x="1159" d="M102 465v557q0 209 126 348t309 139h94q175 0 299 -137.5t127 -335.5q0 -30 -31 -30h-123q-33 0 -33 30q0 129 -66.5 210t-172.5 81h-94q-113 0 -181.5 -82.5t-68.5 -222.5v-557q0 -141 68.5 -225t181.5 -84h94q106 0 173 82q66 81 66 209q0 34 33 34h123q31 0 31 -30 q-1 -131 -58.5 -241t-155 -173.5t-212.5 -63.5h-94q-183 0 -309 141.5t-126 350.5z" />
<glyph unicode="D" horiz-adv-x="1187" d="M129 31v1425q0 31 31 31h489q110 0 208.5 -65t158 -176.5t59.5 -239.5v-525q0 -128 -59.5 -239.5t-158 -176.5t-208.5 -65h-489q-31 0 -31 31zM313 172h314q117 0 190.5 84t73.5 227v521q0 143 -73.5 227t-190.5 84h-314v-1143z" />
<glyph unicode="E" horiz-adv-x="1118" d="M143 31v1425q0 31 31 31h780q31 0 31 -31v-110q0 -31 -31 -31h-626v-479h493q31 0 31 -31v-111q0 -30 -31 -30h-493v-492h626q31 0 31 -31v-110q0 -31 -31 -31h-780q-31 0 -31 31z" />
<glyph unicode="F" horiz-adv-x="1056" d="M143 31v1425q0 31 31 31h780q31 0 31 -31v-121q0 -30 -31 -30h-626v-484h493q31 0 31 -30v-121q0 -31 -31 -31h-493v-608q0 -31 -31 -31h-123q-31 0 -31 31z" />
<glyph unicode="G" horiz-adv-x="1181" d="M113 463v559q0 209 125.5 348t308.5 139h94q175 0 299 -137.5t127 -335.5q0 -30 -31 -30h-123q-32 0 -32 30q0 131 -67.5 216t-174.5 85h-88q-115 0 -184.5 -86.5t-69.5 -228.5v-559q0 -142 69 -230t185 -88h88q108 0 176 87t68 223v137h-238q-31 0 -31 31v110 q0 31 31 31h393q31 0 31 -31v-278q0 -203 -125 -342.5t-303 -139.5h-94q-184 0 -309 140t-125 350z" />
<glyph unicode="H" horiz-adv-x="1210" d="M133 31v1425q0 31 31 31h123q30 0 30 -31v-661h576v661q0 31 31 31h123q30 0 30 -31v-1425q0 -31 -30 -31h-123q-31 0 -31 31v592h-576v-592q0 -31 -30 -31h-123q-31 0 -31 31z" />
<glyph unicode="I" horiz-adv-x="473" d="M143 31v1425q0 31 31 31h125q31 0 31 -31v-1425q0 -31 -31 -31h-125q-31 0 -31 31z" />
<glyph unicode="J" horiz-adv-x="1116" d="M86 268q-11 24 16 41l101 58q21 13 37 -19q51 -99 120.5 -144.5t182.5 -45.5q120 0 193 88t73 231v979q0 31 31 31h123q30 0 30 -31v-989q0 -144 -62.5 -255t-164 -168.5t-223.5 -57.5q-163 0 -283.5 75t-173.5 207z" />
<glyph unicode="K" horiz-adv-x="1187" d="M123 31v1425q0 31 31 31h122q31 0 31 -31v-670l512 668q23 33 45 33h154q16 0 19 -14.5t-11 -36.5l-510 -670l580 -717q12 -12 9 -30.5t-22 -18.5h-147q-29 0 -55 29l-500 612l-74 -88v-522q0 -31 -31 -31h-122q-31 0 -31 31z" />
<glyph unicode="L" horiz-adv-x="1118" d="M133 31v1425q0 31 31 31h123q30 0 30 -31v-1284h658q31 0 31 -31v-110q0 -31 -31 -31h-811q-31 0 -31 31z" />
<glyph unicode="M" horiz-adv-x="1497" d="M133 31v1425q0 31 31 31h190q32 0 41 -31l353 -1126l354 1126q9 31 41 31h190q31 0 31 -31v-1425q0 -31 -31 -31h-123q-30 0 -30 31v1126l-353 -1126q-9 -31 -39 -31h-77q-30 0 -39 31l-355 1126v-1126q0 -31 -30 -31h-123q-31 0 -31 31z" />
<glyph unicode="N" horiz-adv-x="1273" d="M133 31v1425q0 31 31 31h170q26 0 37 -23l585 -1147v1139q0 31 31 31h123q31 0 31 -31v-1425q0 -31 -31 -31h-170q-26 0 -37 23l-586 1146v-1138q0 -31 -30 -31h-123q-31 0 -31 31z" />
<glyph unicode="O" horiz-adv-x="1206" d="M123 469v551q0 202 126.5 345.5t303.5 143.5h100q177 0 303.5 -143.5t126.5 -345.5v-551q0 -202 -126.5 -345.5t-303.5 -143.5h-100q-177 0 -303.5 143.5t-126.5 345.5zM307 457q-1 -128 71 -217q71 -88 181 -88h2h84q113 0 183.5 88.5t70.5 216.5v577q0 128 -70.5 215.5 t-183.5 87.5h-84q-112 0 -183 -88t-71 -215v-577z" />
<glyph unicode="P" horiz-adv-x="1122" d="M133 31v1425q0 31 31 31h487q184 0 292 -114t108 -310t-108.5 -311t-291.5 -115h-334v-606q0 -31 -30 -31h-123q-31 0 -31 31zM317 809h318q231 0 231 254q0 252 -231 252h-318v-506z" />
<glyph unicode="Q" horiz-adv-x="1202" d="M123 469v551q0 202 126.5 345.5t303.5 143.5h100q177 0 303.5 -143.5t126.5 -345.5v-551q0 -156 -79 -285l63 -63q23 -23 0 -45l-86 -86q-21 -22 -43 0l-61 61q-104 -71 -224 -71h-100q-177 0 -303.5 143.5t-126.5 345.5zM307 457q0 -128 71 -217q71 -88 181 -88h2h84 q57 0 107 24l-105 105q-21 21 0 45l86 86q21 22 43 0l96 -97q27 73 27 142v577q0 128 -70.5 215.5t-183.5 87.5h-84q-112 0 -183 -88t-71 -215v-577z" />
<glyph unicode="R" horiz-adv-x="1167" d="M127 637v172h2v506h-2v141q0 31 31 31h489q184 0 292 -114t108 -310q0 -235 -170 -340q88 -45 133 -135t45 -215v-342q0 -13 -8.5 -22t-22.5 -9h-123q-13 0 -22 9t-9 22v305q0 59 -12 110.5t-36.5 95.5t-69 69.5t-103.5 25.5h-336v-606q0 -31 -30 -31h-123q-31 0 -31 31 v606h-2zM313 809h316q233 0 233 254q0 252 -233 252h-316v-506z" />
<glyph unicode="S" horiz-adv-x="1179" d="M113 387v57q0 31 30 31h125q31 0 31 -31l2 -57q4 -106 78.5 -174t181.5 -68h64q111 0 184.5 70t73.5 178q0 116 -59 179.5t-177 84.5l-112 21q-190 35 -302 144.5t-112 283.5q0 180 117 291.5t292 111.5h101q108 0 203.5 -53.5t156 -153.5t60.5 -223v-37q0 -30 -31 -30 h-125q-31 0 -31 30v37q0 112 -72.5 185t-177.5 73h-73q-107 0 -171.5 -66t-64.5 -169q0 -104 57 -166.5t177 -85.5l114 -21q87 -16 159.5 -49.5t130.5 -85.5t91 -129.5t33 -171.5q0 -122 -60.5 -219.5t-158 -149t-211.5 -51.5h-88q-113 0 -212.5 51.5t-161.5 147.5t-62 215z " />
<glyph unicode="T" horiz-adv-x="1144" d="M92 1346v110q0 31 31 31h899q31 0 31 -31v-110q0 -31 -31 -31h-356v-1284q0 -31 -31 -31h-123q-31 0 -31 31v1284h-358q-31 0 -31 31z" />
<glyph unicode="U" horiz-adv-x="1171" d="M113 446v1010q0 31 30 31h123q31 0 31 -31v-989q0 -62 16.5 -116.5t48.5 -98t85 -69t120 -25.5h39q130 0 199 89.5t69 219.5v989q0 31 31 31h123q31 0 31 -31v-1010q0 -198 -125.5 -329t-321.5 -131h-53q-196 0 -321 131t-125 329z" />
<glyph unicode="V" horiz-adv-x="1222" d="M94 1454q-9 33 25 33h131q28 0 37 -33l323 -1159l326 1159q9 33 37 33h131q33 0 24 -33l-423 -1421q-10 -33 -39 -33h-109q-29 0 -39 33z" />
<glyph unicode="W" horiz-adv-x="1900" d="M94 1456q-6 31 25 31h133q31 0 37 -31l239 -1116l326 1116q9 31 39 31h115q30 0 39 -31l329 -1116l236 1116q6 31 35 31h133q32 0 26 -31l-327 -1425q-5 -31 -39 -31h-103q-28 0 -39 31l-348 1126l-348 -1126q-8 -31 -39 -31h-102q-34 0 -39 31z" />
<glyph unicode="X" horiz-adv-x="1124" d="M95 8q-6 8 1 23l369 712l-369 713q-7 15 -1 23t22 8h135q26 0 41 -31l270 -522l268 522q15 31 41 31h136q16 0 21.5 -8t-1.5 -23l-366 -713l366 -712q7 -15 1.5 -23t-21.5 -8h-136q-26 0 -41 31l-268 522l-270 -522q-15 -31 -41 -31h-135q-16 0 -22 8z" />
<glyph unicode="Y" horiz-adv-x="1230" d="M96.5 1479q6.5 8 22.5 8h141q14 0 22.5 -7t18.5 -24l313 -608l318 608q16 31 41 31h141q16 0 22 -8t-1 -23l-428 -803v-622q0 -31 -31 -31h-123q-31 0 -31 31v622l-424 803q-8 15 -1.5 23z" />
<glyph unicode="Z" horiz-adv-x="1107" d="M102 31v75q0 18 7 29l673 1180h-649q-31 0 -31 31v110q0 31 31 31h842q31 0 31 -31v-76q0 -18 -7 -28l-671 -1180h647q31 0 31 -31v-110q0 -31 -31 -31h-842q-31 0 -31 31z" />
<glyph unicode="[" horiz-adv-x="657" d="M133 -113v1712q0 31 31 31h330q30 0 30 -31v-122q0 -31 -30 -31h-177v-1405h177q30 0 30 -31v-123q0 -30 -30 -30h-330q-31 0 -31 30z" />
<glyph unicode="\" horiz-adv-x="866" d="M2 1456q-12 31 21 31h135q29 0 41 -31l622 -1425q7 -15 1.5 -23t-21.5 -8h-135q-26 0 -41 31z" />
<glyph unicode="]" horiz-adv-x="657" d="M133 10q0 31 31 31h176v1405h-176q-31 0 -31 31v122q0 31 31 31h330q30 0 30 -31v-1712q0 -30 -30 -30h-330q-31 0 -31 30v123z" />
<glyph unicode="^" horiz-adv-x="862" d="M105 940q-6 8 1 23l238 493q14 31 41 31h94q16 0 24 -7.5t17 -23.5l238 -493q12 -31 -21 -31h-135q-29 0 -41 31l-129 280l-129 -280q-15 -31 -41 -31h-135q-16 0 -22 8z" />
<glyph unicode="_" horiz-adv-x="1212" d="M102 31v123q0 30 31 30h930q31 0 31 -30v-123q0 -31 -31 -31h-930q-31 0 -31 31z" />
<glyph unicode="`" horiz-adv-x="573" d="M109 1602q-17 36 20 36h141q31 0 43 -36l154 -379q7 -17 1 -27t-22 -10h-116q-24 0 -43 37z" />
<glyph unicode="a" horiz-adv-x="989" d="M92 291q0 134 85.5 214.5t215.5 80.5h289v32q0 81 -45 133t-113 52h-80q-66 0 -108.5 -21.5t-83.5 -60.5q-10 -9 -24.5 -8.5t-24.5 12.5l-60 76q-18 22 -2 41q121 127 310 127h88q129 0 226 -102t97 -257v-561q0 -15 4 -31q4 -18 -6 -18h-143q-35 0 -35 49v43 q-101 -94 -207 -94h-88h-5q-114 0 -201 86q-89 88 -89 207zM272 293q0 -53 37 -90t90 -37h99q62 1 102 27t82 75v150h-283q-59 0 -93 -34.5t-34 -90.5z" />
<glyph unicode="b" horiz-adv-x="1017" d="M143 31v1425q0 31 31 31h119q31 0 31 -31v-561q81 68 178 68h61q147 0 249.5 -112t102.5 -257v-246q0 -138 -108 -243t-244 -105h-61q-96 0 -178 68v-37q0 -31 -31 -31h-119q-31 0 -31 31zM324 260q28 -40 77 -66t95 -26h69q72 0 122 48t50 120v272q0 76 -48.5 132.5 t-123.5 56.5h-69q-60 0 -111 -40.5t-61 -97.5v-399z" />
<glyph unicode="c" horiz-adv-x="970" d="M102 365v233q0 148 109.5 259.5t255.5 111.5h76q123 0 228 -92t108 -201q0 -35 -29 -35h-117q-14 0 -24 8t-11 21q-5 49 -52.5 91t-104.5 42h-72q-73 0 -129.5 -61t-56.5 -142v-235q0 -82 56.5 -140.5t129.5 -58.5h78q52 0 94.5 31t89.5 86q23 26 51 4l80 -70 q23 -20 6 -43q-44 -53 -82.5 -87.5t-103 -61.5t-139.5 -27h-76q-146 0 -255.5 109.5t-109.5 257.5z" />
<glyph unicode="d" horiz-adv-x="1007" d="M102 348v246q0 144 103.5 256.5t249.5 112.5h63q98 0 178 -70v563q0 31 31 31h117q30 0 30 -31v-1425q0 -31 -30 -31h-117q-31 0 -31 31v37q-82 -68 -178 -68h-63q-135 0 -244 105t-109 243zM283 336q0 -72 50 -120t122 -48h69q45 0 94 26.5t78 67.5v377q-1 62 -54.5 110 t-117.5 48h-69q-75 0 -123.5 -56.5t-48.5 -132.5v-272z" />
<glyph unicode="e" horiz-adv-x="974" d="M92 365v233q0 148 110 259.5t257 111.5h73q83 0 163 -47t134 -133.5t54 -188.5v-108q0 -29 -16.5 -45.5t-47.5 -16.5h-543v-84q0 -77 55 -128.5t130 -51.5h67q106 0 197 106q11 14 25 15.5t26 -8.5l72 -62q24 -19 6 -43q-32 -39 -61 -66.5t-69 -54.5t-90 -41t-108 -14 h-67q-148 0 -257.5 109.5t-109.5 257.5zM276 582h422v34q0 80 -52 133.5t-116 53.5h-73q-72 0 -126.5 -56.5t-54.5 -132.5v-32z" />
<glyph unicode="f" horiz-adv-x="761" d="M82 827v105q0 31 31 31h118v155q0 171 90 270t244 99h135q31 0 31 -31v-104q0 -31 -31 -31h-135q-74 0 -113.5 -49.5t-39.5 -141.5v-167h268q31 0 31 -31v-105q0 -30 -31 -30h-268v-766q0 -31 -31 -31h-119q-31 0 -31 31v766h-118q-31 0 -31 30z" />
<glyph unicode="g" horiz-adv-x="1003" d="M102 365v233q0 94 48.5 179.5t132.5 138.5t180 53h61q49 0 101 -22.5t90 -63.5v49q0 31 28 31h107q31 0 31 -31v-1038q0 -122 -102.5 -213t-246.5 -91h-53q-231 0 -336 166q-14 26 23 47l74 43q33 19 55 -10q29 -38 78.5 -59t105.5 -21h49q66 0 120 40.5t54 103.5v163 q-71 -65 -172 -65h-55q-147 0 -260 112t-113 255zM283 365q0 -74 59 -136.5t129 -62.5h59q47 0 98 26.5t74 63.5v422q0 48 -54.5 85.5t-119.5 37.5h-67q-69 0 -123.5 -63.5t-54.5 -139.5v-233z" />
<glyph unicode="h" horiz-adv-x="1038" d="M123 31v1425q0 31 31 31h118q31 0 31 -31v-596q32 47 95 75t137 28h38q158 0 245 -102t87 -261v-569q0 -31 -31 -31h-118q-31 0 -31 31v571q0 86 -48.5 140.5t-133.5 54.5h-62q-70 0 -124 -49.5t-54 -116.5v-600q0 -31 -31 -31h-118q-31 0 -31 31z" />
<glyph unicode="i" horiz-adv-x="466" d="M143 31v903q0 31 31 31h119q31 0 31 -31v-903q0 -31 -31 -31h-119q-31 0 -31 31zM145 1292v164q0 31 31 31h115q31 0 31 -31v-164q0 -30 -31 -30h-115q-31 0 -31 30z" />
<glyph unicode="j" horiz-adv-x="505" d="M-8 -319q-12 28 18 38q57 21 102.5 69.5t45.5 105.5v1040q0 31 30 31h115q31 0 31 -31v-1047q0 -112 -71.5 -206.5t-184.5 -129.5q-29 -10 -39 21zM158 1292v164q0 31 30 31h115q31 0 31 -31v-164q0 -30 -31 -30h-115q-30 0 -30 30z" />
<glyph unicode="k" horiz-adv-x="1040" d="M143 31v1425q0 31 31 31h119q31 0 31 -31v-862l350 344q25 25 45 25h141q17 0 23 -21.5t-15 -44.5l-354 -356l434 -490q14 -17 10 -34t-24 -17h-139q-29 0 -56 31l-352 397l-63 -59v-338q0 -31 -31 -31h-119q-31 0 -31 31z" />
<glyph unicode="l" horiz-adv-x="446" d="M133 31v1425q0 31 31 31h119q30 0 30 -31v-1425q0 -31 -30 -31h-119q-31 0 -31 31z" />
<glyph unicode="m" horiz-adv-x="1634" d="M129 31v901q0 31 31 31h116q31 0 31 -31v-72q34 47 95 75t133 28h40q85 0 152.5 -34.5t110.5 -94.5q98 129 299 129h41q155 0 244 -106t89 -261v-565q0 -31 -30 -31h-117q-31 0 -31 31v567q0 83 -49 141t-131 58h-63q-71 0 -126 -49.5t-55 -116.5v-600q0 -31 -30 -31 h-117q-31 0 -31 31v567q0 83 -49 141t-131 58h-64q-71 0 -125.5 -49.5t-54.5 -116.5v-600q0 -31 -31 -31h-116q-31 0 -31 31z" />
<glyph unicode="n" horiz-adv-x="1028" d="M123 31v901q0 31 31 31h118q31 0 31 -31v-72q32 47 95 75t137 28h38q158 0 245 -102t87 -261v-569q0 -31 -31 -31h-118q-31 0 -31 31v571q0 86 -48.5 140.5t-133.5 54.5h-62q-70 0 -124 -49.5t-54 -116.5v-600q0 -31 -31 -31h-118q-31 0 -31 31z" />
<glyph unicode="o" horiz-adv-x="1021" d="M102 375v213q0 154 107.5 267.5t259.5 113.5h84q152 0 259.5 -113.5t107.5 -267.5v-213q0 -154 -107.5 -265.5t-259.5 -111.5h-84q-152 0 -259.5 111.5t-107.5 265.5zM283 375q0 -87 52.5 -148t133.5 -61h84q82 0 135 61t53 148v213q0 87 -53.5 151t-134.5 64h-84 q-81 0 -133.5 -64t-52.5 -151v-213z" />
<glyph unicode="p" horiz-adv-x="1017" d="M143 -379v1311q0 31 31 31h119q31 0 31 -31v-37q81 68 178 68h61q147 0 249.5 -112t102.5 -257v-246q0 -138 -108 -243t-244 -105h-61q-96 0 -178 68v-447q0 -31 -31 -31h-119q-31 0 -31 31zM324 260q28 -40 77 -66t95 -26h69q72 0 122 48t50 120v272q0 76 -48.5 132.5 t-123.5 56.5h-69q-60 0 -111 -40.5t-61 -97.5v-399z" />
<glyph unicode="q" horiz-adv-x="1017" d="M102 348v246q0 144 103.5 256.5t249.5 112.5h63q98 0 178 -70v39q0 31 31 31h117q30 0 30 -31v-1311q0 -31 -30 -31h-117q-31 0 -31 31v447q-82 -68 -178 -68h-63q-135 0 -244 105t-109 243zM283 336q0 -72 50 -120t122 -48h69q45 0 94 26.5t78 67.5v377q-1 62 -54.5 110 t-117.5 48h-69q-75 0 -123.5 -56.5t-48.5 -132.5v-272z" />
<glyph unicode="r" horiz-adv-x="843" d="M123 31v901q0 31 31 31h118q31 0 31 -31v-70q32 44 88 72.5t117 28.5h63q120 0 209 -82q24 -21 0 -45l-71 -76q-20 -17 -45 -2q-53 39 -127 39h-58q-71 0 -123.5 -46t-52.5 -110v-610q0 -31 -31 -31h-118q-31 0 -31 31z" />
<glyph unicode="s" horiz-adv-x="980" d="M102 258q-2 13 7 22t24 9h111q33 0 45 -27q9 -44 58 -74t112 -30h59q75 0 127.5 30.5t52.5 83.5q0 59 -48 85.5t-161 37.5q-194 20 -286 86.5t-92 210.5q0 133 99.5 206t254.5 73h57q87 0 166 -36.5t130 -105.5t52 -153q0 -33 -28 -33h-109q-37 0 -45 31q-6 53 -58 92 t-116 39h-59q-71 0 -118.5 -28.5t-47.5 -82.5q0 -59 44 -89t156 -42q98 -12 163.5 -29t120 -49.5t80.5 -85.5t26 -129q0 -125 -109.5 -202.5t-261.5 -77.5h-49q-85 0 -164 34t-132.5 96.5t-60.5 137.5z" />
<glyph unicode="t" horiz-adv-x="641" d="M61 827v103q0 33 31 33h105v213q0 30 30 30h119q31 0 31 -30v-213h141q33 0 33 -31v-105q0 -30 -31 -30h-143v-469q0 -81 39 -120.5t104 -41.5q16 0 26.5 -8t10.5 -21v-106q0 -35 -29 -35h-16q-60 0 -110 12q-58 14 -104.5 47t-73.5 90.5t-27 135.5v516h-105 q-31 0 -31 30z" />
<glyph unicode="u" horiz-adv-x="1028" d="M125 362v570q0 31 31 31h116q31 0 31 -31v-570q0 -85 49 -139.5t133 -54.5h62q71 0 125.5 49.5t54.5 116.5v598q0 31 31 31h116q31 0 31 -31v-901q0 -31 -31 -31h-116q-31 0 -31 31v71q-34 -47 -96.5 -74.5t-134.5 -27.5h-41q-157 0 -243.5 102t-86.5 260z" />
<glyph unicode="v" horiz-adv-x="950" d="M86 928q-6 17 1.5 26t23.5 9h127q24 0 36 -35l201 -652l203 652q9 35 37 35h125q16 0 23 -9t1 -26l-297 -895q-10 -33 -39 -33h-104q-29 0 -39 33z" />
<glyph unicode="w" horiz-adv-x="1427" d="M84 928q-9 35 25 35h127q27 0 36 -35l162 -649l191 649q9 35 37 35h106q25 0 37 -35l188 -649l162 649q9 35 37 35h127q33 0 24 -35l-243 -895q-10 -33 -39 -33h-107q-26 0 -39 33l-200 629l-203 -629q-10 -33 -39 -33h-106q-26 0 -39 33z" />
<glyph unicode="x" horiz-adv-x="948" d="M86 11q-6 11 4 26l283 446l-281 443q-9 15 -3 26t24 11h135q25 0 47 -35l180 -291l180 291q22 35 47 35h136q18 0 23 -11t-5 -26l-276 -441l280 -448q10 -15 4 -26t-26 -11h-131q-29 0 -48 35l-184 297l-184 -297q-19 -35 -47 -35h-133q-19 0 -25 11z" />
<glyph unicode="y" horiz-adv-x="1064" d="M76 926q-15 37 18 37h131q29 0 43 -35l260 -633l267 633q14 35 45 35h129q33 0 18 -37l-545 -1301q-14 -35 -45 -35h-129q-35 0 -20 37l186 445z" />
<glyph unicode="z" horiz-adv-x="905" d="M82 31v90q0 21 10 33l504 643h-483q-31 0 -31 30v103q0 33 31 33h678q32 0 32 -31v-96q0 -16 -10 -29l-502 -639h480q32 0 32 -31v-106q0 -31 -30 -31h-680q-31 0 -31 31z" />
<glyph unicode="{" horiz-adv-x="860" d="M141 721q-14 23 0 45l92 113q15 18 15 36v330q0 173 90.5 279t243.5 106h114q31 0 31 -31v-122q0 -31 -31 -31h-73q-101 0 -146 -67t-45 -195v-289q0 -20 -14 -37l-88 -115l90 -114q12 -18 12 -37v-289q0 -128 45 -195t146 -67h73q31 0 31 -31v-123q0 -30 -31 -30h-114 q-153 0 -243.5 106t-90.5 279v329q0 19 -15 37z" />
<glyph unicode="|" horiz-adv-x="512" d="M164 -379v1987q0 30 31 30h122q31 0 31 -30v-1987q0 -31 -31 -31h-122q-31 0 -31 31z" />
<glyph unicode="}" horiz-adv-x="860" d="M133 10q0 31 31 31h74q101 0 145.5 67t44.5 195v289q0 19 12 37l90 114l-88 115q-14 17 -14 37v289q0 128 -44.5 195t-145.5 67h-74q-31 0 -31 31v122q0 31 31 31h115q153 0 243 -106t90 -279v-330q0 -18 15 -36l92 -113q14 -22 0 -45l-92 -113q-15 -18 -15 -37v-329 q0 -173 -90 -279t-243 -106h-115q-31 0 -31 30v123z" />
<glyph unicode="~" horiz-adv-x="1107" d="M106 748q-11 24 21 45q104 74 227.5 80.5t227.5 -58.5q94 -56 171 -52t167 64q15 7 21 3t13 -19l50 -96q14 -22 -21 -45q-104 -73 -226 -80t-227 57q-95 56 -173 52.5t-167 -64.5q-7 -8 -15 -4.5t-11 7.5t-8 13z" />
<glyph unicode="&#xa1;" horiz-adv-x="509" d="M154 885v162q0 30 30 30h142q30 0 30 -30v-162q0 -31 -30 -31h-142q-30 0 -30 31zM164 -379v991q0 31 31 31h122q31 0 31 -31v-991q0 -31 -31 -31h-122q-31 0 -31 31z" />
<glyph unicode="&#xa2;" horiz-adv-x="985" d="M102 365v233q0 144 105.5 254.5t247.5 116.5v225q0 31 30 31h62q31 0 31 -31v-227q114 -14 206 -102t95 -189q0 -35 -29 -35h-117q-14 0 -24 8t-11 21q-5 40 -39 78t-81 51v-629q29 6 59 25.5t48 37.5t46 50q23 26 51 4l80 -70q23 -20 6 -43q-62 -76 -128.5 -121.5 t-161.5 -52.5v-231q0 -31 -31 -31h-62q-30 0 -30 31v229q-142 6 -247.5 114.5t-105.5 252.5zM283 365q0 -77 51.5 -135t120.5 -64v637q-68 -8 -120 -67.5t-52 -135.5v-235z" />
<glyph unicode="&#xa3;" d="M104 668v123q0 30 31 30h158q-39 105 -55 203q-14 101 16 193t89.5 155.5t140.5 101t167 37.5h74q169 0 296 -138.5t130 -334.5q0 -30 -31 -30h-123q-32 0 -32 30q0 132 -69.5 210.5t-170.5 78.5h-74q-49 0 -93.5 -20.5t-78 -58t-48 -96t-3.5 -128.5q11 -68 55 -203h303 q31 0 31 -30v-123q0 -31 -31 -31h-247q7 -41 4 -76q-6 -112 -24.5 -185t-67.5 -157q78 29 130.5 25t143.5 -39q89 -35 161.5 -31.5t178.5 47.5q14 6 22.5 -4.5t8.5 -26.5v-129q0 -4 -0.5 -7t-1 -5t-3 -4t-3.5 -3.5t-4.5 -3t-5 -2t-6.5 -2.5t-7 -3q-108 -45 -195 -44.5 t-190 44.5q-111 44 -190 35.5t-191 -68.5q-13 -7 -49.5 37t-30.5 59q52 126 71 177t37 127.5t23 162.5q3 35 -4 76h-211q-31 0 -31 31z" />
<glyph unicode="&#xa4;" horiz-adv-x="1175" d="M123 68q-21 22 0 43l90 88q-43 84 -43 176v213q0 92 43 176l-90 88q-21 22 0 43l88 88q21 21 43 0l80 -80q92 66 203 66h84q120 0 213 -74l88 88q22 21 43 0l88 -88q21 -21 0 -43l-103 -100q37 -73 37 -164v-213q0 -91 -37 -164l101 -100q21 -21 0 -43l-86 -88 q-21 -22 -43 0l-88 90q-94 -72 -213 -72h-84q-115 0 -203 63l-80 -81q-22 -22 -43 0zM350 375q0 -87 52.5 -148t134.5 -61h84q82 0 135 61t53 148v213q0 87 -53.5 151t-134.5 64h-84q-81 0 -134 -64t-53 -151v-213z" />
<glyph unicode="&#xa5;" horiz-adv-x="1159" d="M96.5 1479q6.5 8 22.5 8h141q14 0 22.5 -7t18.5 -24l313 -608l318 608q16 31 41 31h141q16 0 22 -8t-1 -23l-428 -803v-51h276q31 0 31 -31v-112q0 -31 -31 -31h-276v-94h276q31 0 31 -31v-113q0 -30 -31 -30h-276v-129q0 -31 -31 -31h-123q-31 0 -31 31v129h-313 q-31 0 -31 30v113q0 31 31 31h313v94h-313q-31 0 -31 31v112q0 31 31 31h313v51l-424 803q-8 15 -1.5 23z" />
<glyph unicode="&#xa6;" horiz-adv-x="512" d="M164 -236v662q0 31 31 31h122q31 0 31 -31v-662q0 -30 -31 -30h-122q-31 0 -31 30zM164 803v661q0 31 31 31h122q31 0 31 -31v-661q0 -31 -31 -31h-122q-31 0 -31 31z" />
<glyph unicode="&#xa7;" horiz-adv-x="1241" d="M143 2v59q0 31 31 31h125q31 0 31 -31l2 -59q4 -102 73.5 -165.5t167.5 -63.5h95q104 0 174.5 65t70.5 172q0 112 -57.5 169.5t-177.5 78.5l-113 21q-187 33 -300 150.5t-113 291.5q0 121 59 215q-59 92 -59 217q0 177 116.5 290t286.5 113h107q167 0 293.5 -123.5 t125.5 -306.5v-39q0 -30 -30 -30h-125q-31 0 -31 30v39q0 109 -69 178.5t-164 69.5h-107q-98 0 -158.5 -63t-60.5 -164q0 -99 55.5 -155t177.5 -79l115 -20q178 -33 296 -151.5t118 -301.5q0 -118 -62 -209q62 -97 62 -223q0 -120 -60 -217.5t-158 -150t-212 -52.5h-95 q-110 0 -208 52t-160 148.5t-62 213.5zM336 717q0 -212 233 -254l115 -21q125 -22 215 -80q14 35 14 78q0 228 -235 269l-113 20q-120 21 -213 76q-16 -43 -16 -88z" />
<glyph unicode="&#xa8;" horiz-adv-x="1024" d="M123 1284v172q0 31 31 31h170q30 0 30 -31v-172q0 -31 -30 -31h-170q-31 0 -31 31zM670 1284v172q0 31 30 31h170q31 0 31 -31v-172q0 -31 -31 -31h-170q-30 0 -30 31z" />
<glyph unicode="&#xa9;" horiz-adv-x="1312" d="M123 473v539q0 133 60.5 248t164.5 183t225 68h166q121 0 225 -68t165 -183t61 -248v-539q0 -133 -61 -248.5t-165 -183.5t-225 -68h-166q-90 0 -173.5 40.5t-144 108t-96.5 160t-36 191.5zM287 465q0 -132 86.5 -225t210.5 -93h145q125 0 211 92.5t86 225.5v555 q0 133 -86 225t-211 92h-145q-124 0 -210.5 -92.5t-86.5 -224.5v-555zM385 539v407q0 132 72 199t180 67h51q110 0 177.5 -66t68.5 -200q0 -28 -21 -28h-110q-23 0 -23 18q0 58 -26 88.5t-70 30.5h-45q-49 0 -76.5 -29.5t-27.5 -89.5v-387q0 -59 28 -90t76 -31h45 q44 0 70.5 32.5t25.5 90.5q0 18 23 18h110q10 0 15.5 -9t5.5 -19q-1 -135 -68.5 -202t-177.5 -67h-51q-108 0 -180 67.5t-72 199.5z" />
<glyph unicode="&#xaa;" horiz-adv-x="653" d="M102 1122q0 74 52 118t139 44h151q0 98 -92 98h-43q-31 0 -56 -7.5t-36.5 -14.5t-32.5 -23q-18 -15 -30 0l-35 45q-12 15 0 27q75 78 196 78h50q81 0 131.5 -59t50.5 -148v-281q0 -18 2 -24q2 -3 1 -7.5t-5 -4.5h-78q-19 0 -23 32q-53 -32 -120 -32h-31 q-80 0 -135.5 42.5t-55.5 116.5zM211 1124q0 -57 82 -57h33q67 0 118 35v78h-151q-82 0 -82 -56z" />
<glyph unicode="&#xab;" horiz-adv-x="1202" d="M113 477v98q0 28 30 48l385 266q14 10 25.5 4t11.5 -21v-165q0 -14 -8 -23t-29 -22l-202 -136l202 -135q37 -21 37 -45v-166q0 -15 -11.5 -20t-25.5 4l-385 266q-30 23 -30 47zM637 477v98q0 27 31 48l385 266q13 10 25 4t12 -21v-165q0 -10 -5.5 -18t-11 -12.5 t-20.5 -14.5l-203 -136l203 -135q19 -12 28 -21.5t9 -23.5v-166q0 -15 -12 -20t-25 4l-385 266q-12 9 -17 13.5t-9.5 13.5t-4.5 20z" />
<glyph unicode="&#xac;" horiz-adv-x="1052" d="M123 569v123q0 31 31 31h745q31 0 31 -31v-403q0 -31 -31 -31h-123q-31 0 -31 31v250h-591q-31 0 -31 30z" />
<glyph unicode="&#xad;" horiz-adv-x="888" d="M143 457v123q0 30 31 30h541q30 0 30 -30v-123q0 -31 -30 -31h-541q-31 0 -31 31z" />
<glyph unicode="&#xae;" horiz-adv-x="1312" d="M123 473v539q0 133 60.5 248t164.5 183t225 68h166q121 0 225 -68t165 -183t61 -248v-539q0 -133 -61 -248.5t-165 -183.5t-225 -68h-166q-90 0 -173.5 40.5t-144 108t-96.5 160t-36 191.5zM287 465q0 -132 86.5 -225t210.5 -93h145q125 0 211 92.5t86 225.5v555 q0 133 -86 225t-211 92h-145q-124 0 -210.5 -92.5t-86.5 -224.5v-555zM412 334v803q0 28 17.5 45.5t45.5 17.5h201q110 0 174.5 -71t64.5 -191q0 -141 -88 -219q84 -72 84 -205v-180q0 -41 -34 -41h-74q-35 0 -35 41v170q0 77 -22.5 112t-73.5 35h-115v-317q0 -41 -35 -41 h-76q-34 0 -34 41zM555 797h113q57 0 79.5 31.5t22.5 103.5q0 69 -22 96t-80 27h-113v-258z" />
<glyph unicode="&#xaf;" horiz-adv-x="1011" d="M143 1346v110q0 31 31 31h664q30 0 30 -31v-110q0 -31 -30 -31h-664q-31 0 -31 31z" />
<glyph unicode="&#xb0;" horiz-adv-x="923" d="M164 1165v23q0 133 76 216t206 83h31q128 0 205.5 -83.5t77.5 -215.5v-23q0 -132 -77.5 -215.5t-205.5 -83.5h-31q-130 0 -206 83t-76 216zM319 1169q0 -66 34.5 -103.5t99.5 -37.5h22q63 0 97 37.5t34 103.5v17q0 67 -33.5 105t-97.5 38h-22q-65 0 -99.5 -38t-34.5 -105 v-17z" />
<glyph unicode="&#xb1;" horiz-adv-x="1052" d="M123 31v123q0 30 31 30h747q29 0 29 -30v-123q0 -31 -31 -31h-745q-31 0 -31 31zM123 621v122q0 31 31 31h282v281q0 30 31 30h123q31 0 31 -30v-281h280q29 0 29 -31v-122q0 -31 -31 -31h-278v-283q0 -31 -31 -31h-123q-31 0 -31 31v283h-282q-31 0 -31 31z" />
<glyph unicode="&#xb2;" horiz-adv-x="655" d="M123 1290v27q0 68 51.5 119t124.5 51h51q79 0 129.5 -61t50.5 -136q0 -55 -33 -103.5t-98 -113.5l-104 -104l207 4q30 0 30 -31v-59q0 -31 -30 -31h-344q-31 0 -31 31v49q0 18 4.5 32t8.5 19.5t19.5 21t22.5 23.5l144 154q8 8 25 24t27 26t19 26t9 32q0 33 -24 56.5 t-60 23.5q-32 0 -54 -19t-22 -46v-15q0 -30 -31 -30h-61q-31 0 -31 30z" />
<glyph unicode="&#xb3;" horiz-adv-x="653" d="M113 1024v27q0 30 30 30h62q31 0 31 -30v-15q0 -27 21.5 -46t53.5 -19q38 0 61 19t23 52q0 32 -22 54t-56 22h-47q-30 0 -30 31v45q0 31 30 31h47q34 0 56 21.5t22 53.5q0 33 -23.5 52.5t-60.5 19.5q-32 0 -53.5 -19t-21.5 -46v-15q0 -30 -31 -30h-62q-30 0 -30 30v27 q0 68 51.5 119t124.5 51h51q80 0 130 -56t50 -130q0 -70 -69 -132q69 -62 69 -131q0 -74 -50 -130t-130 -56h-51q-73 0 -124.5 51t-51.5 119z" />
<glyph unicode="&#xb4;" horiz-adv-x="583" d="M105 1196q-6 10 1 27l154 379q12 36 43 36h152q37 0 20 -36l-178 -379q-19 -37 -43 -37h-127q-16 0 -22 10z" />
<glyph unicode="&#xb6;" horiz-adv-x="1155" d="M102 1063q0 196 108 310t292 114h493q31 0 31 -31v-1425q0 -31 -31 -31h-123q-30 0 -30 31v606h-109v-606q0 -31 -31 -31h-122q-31 0 -31 31v606h-47q-183 0 -291.5 115t-108.5 311zM287 1063q0 -130 57 -186t168 -56h37v482h-37q-111 0 -168 -55t-57 -185zM733 821h109 v482h-109v-482z" />
<glyph unicode="&#xb7;" horiz-adv-x="440" d="M102 532v183q0 30 31 30h174q31 0 31 -30v-183q0 -30 -31 -30h-174q-31 0 -31 30z" />
<glyph unicode="&#xb8;" horiz-adv-x="741" d="M143 -242q0 21 19 21h117q8 0 14 -5t6 -12q0 -49 74 -49h35q24 0 34 0.5t21.5 3.5t15.5 10.5t4 20.5q0 22 -25 29.5t-117 18.5q-53 7 -87 11q-13 2 -27 9t-26 22.5t-15 36t8.5 53t41.5 70.5q13 16 22 16h129q9 0 13 -5t-1 -11q-8 -11 -12.5 -20l-8 -16t-2 -13t1.5 -9.5 t6.5 -7t8 -5t11.5 -3.5t12 -2.5t14.5 -2t13.5 -1.5q51 -6 82.5 -14t59.5 -26.5t40.5 -51.5t12.5 -84q0 -156 -190 -156h-125q-85 0 -132 47t-49 125z" />
<glyph unicode="&#xb9;" horiz-adv-x="618" d="M246 885v571q0 31 30 31h66q31 0 31 -31v-571q0 -31 -31 -31h-66q-30 0 -30 31z" />
<glyph unicode="&#xba;" horiz-adv-x="663" d="M102 219v88q0 88 60 152.5t147 64.5h45q85 0 146 -65t61 -152v-88q0 -90 -60.5 -154.5t-146.5 -64.5h-45q-87 0 -147 64.5t-60 154.5zM211 227q0 -47 29 -80.5t75 -33.5h35q44 0 74.5 34t30.5 80v74q0 46 -30.5 78.5t-74.5 32.5h-35q-46 0 -75 -32t-29 -79v-74z" />
<glyph unicode="&#xbb;" horiz-adv-x="1202" d="M113 180v166q0 14 9 23.5t28 21.5l202 135l-202 136q-15 10 -20.5 14.5t-11 12.5t-5.5 18v165q0 15 11.5 21t25.5 -4l385 -266q30 -20 30 -48v-98q0 -24 -30 -47l-385 -266q-14 -9 -25.5 -4t-11.5 20zM637 180v166q0 24 37 45l203 135l-203 136q-21 13 -29 22t-8 23v165 q0 15 11.5 21t25.5 -4l385 -266q31 -21 31 -48v-98q0 -16 -7 -25t-24 -22l-385 -266q-14 -9 -25.5 -4t-11.5 20z" />
<glyph unicode="&#xbc;" horiz-adv-x="1511" d="M211 8q-6 8 2 23l827 1425q10 17 18.5 24t22.5 7h86q16 0 22.5 -8t-1.5 -23l-828 -1425q-10 -17 -18.5 -24t-22.5 -7h-86q-16 0 -22 8zM246 885v571q0 31 30 31h66q31 0 31 -31v-571q0 -31 -31 -31h-66q-30 0 -30 31zM946 209q0 8 8 24l217 388q7 14 29 14h98 q31 0 31 -31v-362h29q31 0 31 -31v-61q0 -31 -31 -31h-29v-88q0 -31 -31 -31h-61q-31 0 -31 31v88h-223q-28 0 -31 31zM1102 246h104v205z" />
<glyph unicode="&#xbd;" horiz-adv-x="1478" d="M211 8q-6 8 2 23l827 1425q10 17 18.5 24t22.5 7h86q16 0 22.5 -8t-1.5 -23l-828 -1425q-10 -17 -18.5 -24t-22.5 -7h-86q-16 0 -22 8zM246 885v571q0 31 30 31h66q31 0 31 -31v-571q0 -31 -31 -31h-66q-30 0 -30 31zM946 438v27q0 68 51.5 119t124.5 51h52 q79 0 129.5 -61t50.5 -136q0 -55 -33 -103.5t-98 -113.5l-105 -104l207 4q31 0 31 -31v-59q0 -31 -31 -31h-344q-31 0 -31 31v49q0 18 4.5 32t9 20t19.5 20.5t23 23.5l143 154q8 8 25 24t27 26t19 26t9 32q0 33 -24 56.5t-60 23.5q-32 0 -54 -19t-22 -46v-15q0 -30 -31 -30 h-61q-31 0 -31 30z" />
<glyph unicode="&#xbe;" horiz-adv-x="1546" d="M123 1024v27q0 30 31 30h61q31 0 31 -30v-15q0 -27 22 -46t54 -19q38 0 61 19t23 52q0 32 -22 54t-56 22h-47q-31 0 -31 31v45q0 31 31 31h47q34 0 56 21.5t22 53.5q0 33 -23.5 52.5t-60.5 19.5q-32 0 -54 -19t-22 -46v-15q0 -30 -31 -30h-61q-31 0 -31 30v27 q0 68 51.5 119t124.5 51h51q80 0 130 -56t50 -130q0 -70 -69 -132q69 -62 69 -131q0 -74 -50 -130t-130 -56h-51q-73 0 -124.5 51t-51.5 119zM246 8q-6 8 2 23l827 1425q10 17 18.5 24t22.5 7h86q16 0 22.5 -8t-1.5 -23l-828 -1425q-10 -17 -18.5 -24t-22.5 -7h-86 q-16 0 -22 8zM981 209q0 8 8 24l217 388q7 14 29 14h98q31 0 31 -31v-362h29q30 0 30 -31v-61q0 -31 -30 -31h-29v-88q0 -31 -31 -31h-61q-31 0 -31 31v88h-223q-28 0 -31 31zM1137 246h104v205z" />
<glyph unicode="&#xbf;" horiz-adv-x="1040" d="M72 -10q0 72 14.5 128t36 92t60.5 66.5t72 47t87 38.5q89 37 111 53q36 29 36 85v112q0 31 31 31h123q31 0 31 -31v-133q0 -75 -25.5 -122.5t-74.5 -79t-148 -72.5q-93 -37 -131.5 -80.5t-38.5 -134.5q0 -107 60 -174.5t163 -67.5h86q98 0 157.5 70.5t59.5 177.5v39 q0 31 31 31h125q31 0 31 -31v-39q1 -191 -118 -311.5t-286 -120.5h-86q-170 0 -288.5 120t-118.5 306zM481 885v162q0 30 31 30h141q31 0 31 -30v-162q0 -31 -31 -31h-141q-31 0 -31 31z" />
<glyph unicode="&#xc0;" d="M86 33l451 1427q10 33 38 33h107q29 0 39 -33l448 -1427q9 -33 -24 -33h-125q-32 0 -41 33l-109 358h-487l-111 -358q-9 -33 -36 -33h-127q-34 0 -23 33zM340 2126q-18 37 20 37h142q31 0 43 -37l153 -379q7 -17 1 -27t-21 -10h-117q-24 0 -43 37zM436 563h383l-188 629z " />
<glyph unicode="&#xc1;" d="M86 33l451 1427q10 33 38 33h107q29 0 39 -33l448 -1427q9 -33 -24 -33h-125q-32 0 -41 33l-109 358h-487l-111 -358q-9 -33 -36 -33h-127q-34 0 -23 33zM436 563h383l-188 629zM542 1720q-6 10 1 27l153 379q12 37 43 37h152q38 0 20 -37l-178 -379q-19 -37 -43 -37 h-127q-15 0 -21 10z" />
<glyph unicode="&#xc2;" d="M86 33l451 1427q10 33 38 33h107q29 0 39 -33l448 -1427q9 -33 -24 -33h-125q-32 0 -41 33l-109 358h-487l-111 -358q-9 -33 -36 -33h-127q-34 0 -23 33zM253.5 1737q-5.5 13 4.5 26l260 367q12 18 21.5 25.5t25.5 7.5h121q26 0 49 -33l260 -367q10 -13 4.5 -26 t-20.5 -13h-137q-14 0 -23.5 9t-23.5 30l-168 238l-168 -238q-14 -21 -23.5 -30t-23.5 -9h-138q-15 0 -20.5 13zM436 563h383l-188 629z" />
<glyph unicode="&#xc3;" d="M86 33l451 1427q10 33 38 33h107q29 0 39 -33l448 -1427q9 -33 -24 -33h-125q-32 0 -41 33l-109 358h-487l-111 -358q-9 -33 -36 -33h-127q-34 0 -23 33zM246 1964q-13 23 20 45q105 75 192.5 81.5t192.5 -58.5q63 -39 101.5 -47.5t72 4t97.5 55.5q20 13 34 -16l50 -97 q14 -22 -21 -45q-105 -73 -192 -79t-193 57q-64 39 -102 47.5t-71 -4t-97 -56.5q-8 -8 -15.5 -4t-11 8t-8.5 13zM436 563h383l-188 629z" />
<glyph unicode="&#xc4;" d="M86 33l451 1427q10 33 38 33h107q29 0 39 -33l448 -1427q9 -33 -24 -33h-125q-32 0 -41 33l-109 358h-487l-111 -358q-9 -33 -36 -33h-127q-34 0 -23 33zM238 1808v172q0 31 30 31h170q31 0 31 -31v-172q0 -30 -31 -30h-170q-30 0 -30 30zM436 563h383l-188 629z M784 1808v172q0 31 31 31h170q31 0 31 -31v-172q0 -30 -31 -30h-170q-31 0 -31 30z" />
<glyph unicode="&#xc5;" d="M86 33l451 1427q10 33 38 33h107q29 0 39 -33l448 -1427q9 -33 -24 -33h-125q-32 0 -41 33l-109 358h-487l-111 -358q-9 -33 -36 -33h-127q-34 0 -23 33zM424 1952v22q0 82 52.5 136.5t135.5 54.5h27q83 0 135.5 -54.5t52.5 -136.5v-22q0 -83 -52.5 -136t-135.5 -53h-27 q-83 0 -135.5 53t-52.5 136zM436 563h383l-188 629zM549 1960q0 -34 19 -54t53 -20h12q34 0 54 20t20 54v10q0 32 -20 52t-54 20h-12q-33 0 -52.5 -19.5t-19.5 -52.5v-10z" />
<glyph unicode="&#xc6;" horiz-adv-x="1837" d="M33.5 8q-5.5 8 1.5 23l786 1425q10 17 18.5 24t22.5 7h797q31 0 31 -31v-110q0 -31 -31 -31h-627v-479h494q30 0 30 -31v-111q0 -30 -30 -30h-494v-492h627q31 0 31 -31v-110q0 -31 -31 -31h-780q-31 0 -31 31v360h-418l-199 -360q-15 -31 -41 -31h-135q-16 0 -21.5 8z M532 575h316v574z" />
<glyph unicode="&#xc7;" horiz-adv-x="1159" d="M102 465v557q0 209 126 348t309 139h94q175 0 299 -137.5t127 -335.5q0 -30 -31 -30h-123q-33 0 -33 30q0 129 -66.5 210t-172.5 81h-94q-113 0 -181.5 -82.5t-68.5 -222.5v-557q0 -141 68.5 -225t181.5 -84h94q106 0 173 82.5t66 212.5q0 30 33 30h123q31 0 31 -30 q-1 -128 -56 -236t-149 -172.5t-205 -69.5q-4 -8 -6.5 -14.5t-1.5 -11.5t2.5 -8.5t6.5 -6.5t8.5 -4.5t11 -3.5t12 -2.5t14 -1.5t13.5 -2q51 -6 82 -14t59 -26.5t40.5 -51.5t12.5 -84q0 -156 -190 -156h-125q-84 0 -131 47t-49 125q0 21 18 21h117q8 0 14 -5t6 -12 q0 -49 74 -49h35q24 0 34 0.5t21.5 3.5t15.5 10.5t4 20.5q0 22 -25 29.5t-117 18.5q-53 7 -87 11q-17 3 -32.5 13t-28.5 29t-7.5 52.5t33.5 75.5q-163 22 -271 158.5t-108 329.5z" />
<glyph unicode="&#xc8;" horiz-adv-x="1118" d="M143 31v1425q0 31 31 31h780q31 0 31 -31v-110q0 -31 -31 -31h-626v-479h493q31 0 31 -31v-111q0 -30 -31 -30h-493v-492h626q31 0 31 -31v-110q0 -31 -31 -31h-780q-31 0 -31 31zM281 2126q-18 37 20 37h141q31 0 43 -37l154 -379q7 -17 1 -27t-22 -10h-116 q-24 0 -43 37z" />
<glyph unicode="&#xc9;" horiz-adv-x="1118" d="M143 31v1425q0 31 31 31h780q31 0 31 -31v-110q0 -31 -31 -31h-626v-479h493q31 0 31 -31v-111q0 -30 -31 -30h-493v-492h626q31 0 31 -31v-110q0 -31 -31 -31h-780q-31 0 -31 31zM482 1720q-6 10 1 27l154 379q12 37 43 37h151q39 0 21 -37l-178 -379q-19 -37 -43 -37 h-127q-16 0 -22 10z" />
<glyph unicode="&#xca;" horiz-adv-x="1118" d="M143 31v1425q0 31 31 31h780q31 0 31 -31v-110q0 -31 -31 -31h-626v-479h493q31 0 31 -31v-111q0 -30 -31 -30h-493v-492h626q31 0 31 -31v-110q0 -31 -31 -31h-780q-31 0 -31 31zM194.5 1737q-5.5 13 4.5 26l260 367q12 18 21.5 25.5t25.5 7.5h121q26 0 49 -33l260 -367 q10 -13 4.5 -26t-20.5 -13h-138q-14 0 -23.5 9t-23.5 30l-168 238l-168 -238q-14 -21 -23.5 -30t-23.5 -9h-137q-15 0 -20.5 13z" />
<glyph unicode="&#xcb;" horiz-adv-x="1118" d="M143 31v1425q0 31 31 31h780q31 0 31 -31v-110q0 -31 -31 -31h-626v-479h493q31 0 31 -31v-111q0 -30 -31 -30h-493v-492h626q31 0 31 -31v-110q0 -31 -31 -31h-780q-31 0 -31 31zM178 1808v172q0 31 31 31h170q31 0 31 -31v-172q0 -30 -31 -30h-170q-31 0 -31 30z M725 1808v172q0 31 31 31h170q30 0 30 -31v-172q0 -30 -30 -30h-170q-31 0 -31 30z" />
<glyph unicode="&#xcc;" horiz-adv-x="473" d="M-53 2126q-18 37 20 37h144q31 0 43 -37l153 -379q7 -17 1 -27t-21 -10h-117q-24 0 -43 37zM143 31v1425q0 31 31 31h125q31 0 31 -31v-1425q0 -31 -31 -31h-125q-31 0 -31 31z" />
<glyph unicode="&#xcd;" horiz-adv-x="473" d="M143 31v1425q0 31 31 31h125q31 0 31 -31v-1425q0 -31 -31 -31h-125q-31 0 -31 31zM153 1720q-6 10 1 27l153 379q12 37 43 37h152q38 0 20 -37l-178 -379q-19 -37 -43 -37h-127q-15 0 -21 10z" />
<glyph unicode="&#xce;" horiz-adv-x="473" d="M-137 1737q-5 13 4 26l262 367q12 18 21.5 25.5t25.5 7.5h121q26 0 49 -33l260 -367q10 -13 4.5 -26t-20.5 -13h-137q-14 0 -23.5 9t-23.5 30l-168 238l-168 -238q-14 -21 -23.5 -30t-23.5 -9h-140q-15 0 -20 13zM143 31v1425q0 31 31 31h125q31 0 31 -31v-1425 q0 -31 -31 -31h-125q-31 0 -31 31z" />
<glyph unicode="&#xcf;" horiz-adv-x="473" d="M-154 1808v172q0 31 31 31h170q31 0 31 -31v-172q0 -30 -31 -30h-170q-31 0 -31 30zM143 31v1425q0 31 31 31h125q31 0 31 -31v-1425q0 -31 -31 -31h-125q-31 0 -31 31zM393 1808v172q0 31 31 31h170q31 0 31 -31v-172q0 -30 -31 -30h-170q-31 0 -31 30z" />
<glyph unicode="&#xd0;" horiz-adv-x="1314" d="M129 700v123q0 31 31 31h96v602q0 31 31 31h489q110 0 208.5 -65t158 -176.5t59.5 -239.5v-525q0 -128 -59.5 -239.5t-158 -176.5t-208.5 -65h-489q-31 0 -31 31v639h-96q-31 0 -31 30zM440 172h314q117 0 190.5 84t73.5 227v521q0 143 -73.5 227t-190.5 84h-314v-461 h260q31 0 31 -31v-123q0 -30 -31 -30h-260v-498z" />
<glyph unicode="&#xd1;" horiz-adv-x="1273" d="M133 31v1425q0 31 31 31h170q26 0 37 -23l585 -1147v1139q0 31 31 31h123q31 0 31 -31v-1425q0 -31 -31 -31h-170q-26 0 -37 23l-586 1146v-1138q0 -31 -30 -31h-123q-31 0 -31 31zM258 1964q-13 23 21 45q105 75 192.5 81.5t192.5 -58.5q63 -39 101.5 -47.5t71.5 4 t97 55.5q20 14 35 -16l49 -97q14 -22 -21 -45q-105 -73 -192 -79t-193 57q-64 39 -102 47.5t-71 -4t-97 -56.5q-8 -8 -15.5 -4t-11 8t-8.5 13z" />
<glyph unicode="&#xd2;" horiz-adv-x="1206" d="M123 469v551q0 202 126.5 345.5t303.5 143.5h100q177 0 303.5 -143.5t126.5 -345.5v-551q0 -202 -126.5 -345.5t-303.5 -143.5h-100q-177 0 -303.5 143.5t-126.5 345.5zM307 457q0 -128 71.5 -217t182.5 -88h84q113 0 183.5 88.5t70.5 216.5v577q0 128 -70.5 215.5 t-183.5 87.5h-84q-112 0 -183 -88t-71 -215v-577zM317 2126q-18 37 21 37h141q31 0 43 -37l154 -379q7 -17 1 -27t-22 -10h-116q-24 0 -43 37z" />
<glyph unicode="&#xd3;" horiz-adv-x="1206" d="M123 469v551q0 202 126.5 345.5t303.5 143.5h100q177 0 303.5 -143.5t126.5 -345.5v-551q0 -202 -126.5 -345.5t-303.5 -143.5h-100q-177 0 -303.5 143.5t-126.5 345.5zM307 457q0 -128 71.5 -217t182.5 -88h84q113 0 183.5 88.5t70.5 216.5v577q0 128 -70.5 215.5 t-183.5 87.5h-84q-112 0 -183 -88t-71 -215v-577zM519 1720q-6 10 1 27l154 379q12 37 43 37h151q39 0 21 -37l-178 -379q-19 -37 -43 -37h-127q-16 0 -22 10z" />
<glyph unicode="&#xd4;" horiz-adv-x="1206" d="M123 469v551q0 202 126.5 345.5t303.5 143.5h100q177 0 303.5 -143.5t126.5 -345.5v-551q0 -202 -126.5 -345.5t-303.5 -143.5h-100q-177 0 -303.5 143.5t-126.5 345.5zM231.5 1737q-5.5 13 4.5 26l260 367q12 18 21.5 25.5t25.5 7.5h121q26 0 49 -33l260 -367 q10 -13 4 -26t-21 -13h-137q-14 0 -23.5 9t-23.5 30l-168 238l-168 -238q-14 -21 -23.5 -30t-23.5 -9h-137q-15 0 -20.5 13zM307 457q0 -128 71.5 -217t182.5 -88h84q113 0 183.5 88.5t70.5 216.5v577q0 128 -70.5 215.5t-183.5 87.5h-84q-112 0 -183 -88t-71 -215v-577z " />
<glyph unicode="&#xd5;" horiz-adv-x="1206" d="M123 469v551q0 202 126.5 345.5t303.5 143.5h100q177 0 303.5 -143.5t126.5 -345.5v-551q0 -202 -126.5 -345.5t-303.5 -143.5h-100q-177 0 -303.5 143.5t-126.5 345.5zM223 1964q-13 23 21 45q105 75 192.5 81.5t192.5 -58.5q63 -39 101.5 -47.5t71.5 4t97 55.5 q20 14 35 -16l49 -97q14 -22 -20 -45q-105 -73 -192 -79t-193 57q-64 39 -102.5 47.5t-71.5 -4t-97 -56.5q-8 -8 -15.5 -4t-11 8t-8.5 13zM307 457q0 -128 71.5 -217t182.5 -88h84q113 0 183.5 88.5t70.5 216.5v577q0 128 -70.5 215.5t-183.5 87.5h-84q-112 0 -183 -88 t-71 -215v-577z" />
<glyph unicode="&#xd6;" horiz-adv-x="1206" d="M123 469v551q0 202 126.5 345.5t303.5 143.5h100q177 0 303.5 -143.5t126.5 -345.5v-551q0 -202 -126.5 -345.5t-303.5 -143.5h-100q-177 0 -303.5 143.5t-126.5 345.5zM215 1808v172q0 31 31 31h170q30 0 30 -31v-172q0 -30 -30 -30h-170q-31 0 -31 30zM307 457 q0 -128 71.5 -217t182.5 -88h84q113 0 183.5 88.5t70.5 216.5v577q0 128 -70.5 215.5t-183.5 87.5h-84q-112 0 -183 -88t-71 -215v-577zM762 1808v172q0 31 31 31h170q30 0 30 -31v-172q0 -30 -30 -30h-170q-31 0 -31 30z" />
<glyph unicode="&#xd7;" horiz-adv-x="899" d="M115 868q-21 22 0 43l86 88q21 21 43 0l207 -206l198 198q21 21 41 -2l88 -86q22 -21 0 -43l-198 -196l206 -207q21 -24 0 -45l-86 -86q-22 -22 -43 0l-206 206l-201 -198q-22 -22 -43 0l-86 86q-25 22 0 43l201 201z" />
<glyph unicode="&#xd8;" horiz-adv-x="1206" d="M123 469v551q0 202 126.5 345.5t303.5 143.5h100q91 0 164 -36q11 14 33 14h135q33 0 21 -31l-43 -98q120 -139 120 -338v-551q0 -202 -126.5 -345.5t-303.5 -143.5h-100q-95 0 -174 43q-16 -23 -37 -23h-135q-16 0 -22 8t1 23l47 110q-110 139 -110 328zM307 457 q0 -53 17 -113l424 971q-49 22 -103 22h-84q-112 0 -183 -88t-71 -215v-577zM449 180q51 -28 112 -28h84q113 0 183.5 88.5t70.5 216.5v577q0 64 -20 129z" />
<glyph unicode="&#xd9;" horiz-adv-x="1171" d="M113 446v1010q0 31 30 31h123q31 0 31 -31v-989q0 -62 16.5 -116.5t48.5 -98t85 -69t120 -25.5h39q130 0 199 89.5t69 219.5v989q0 31 31 31h123q31 0 31 -31v-1010q0 -198 -125.5 -329t-321.5 -131h-53q-196 0 -321 131t-125 329zM299 2126q-18 37 20 37h142 q31 0 43 -37l153 -379q7 -17 1 -27t-21 -10h-117q-24 0 -43 37z" />
<glyph unicode="&#xda;" horiz-adv-x="1171" d="M113 446v1010q0 31 30 31h123q31 0 31 -31v-989q0 -62 16.5 -116.5t48.5 -98t85 -69t120 -25.5h39q130 0 199 89.5t69 219.5v989q0 31 31 31h123q31 0 31 -31v-1010q0 -198 -125.5 -329t-321.5 -131h-53q-196 0 -321 131t-125 329zM501 1720q-6 10 1 27l153 379 q12 37 43 37h152q38 0 20 -37l-178 -379q-19 -37 -43 -37h-127q-15 0 -21 10z" />
<glyph unicode="&#xdb;" horiz-adv-x="1171" d="M113 446v1010q0 31 30 31h123q31 0 31 -31v-989q0 -62 16.5 -116.5t48.5 -98t85 -69t120 -25.5h39q130 0 199 89.5t69 219.5v989q0 31 31 31h123q31 0 31 -31v-1010q0 -198 -125.5 -329t-321.5 -131h-53q-196 0 -321 131t-125 329zM215 1737q-6 13 4 26l260 367 q12 18 21.5 25.5t25.5 7.5h121q26 0 49 -33l260 -367q10 -13 4.5 -26t-20.5 -13h-137q-14 0 -23.5 9t-23.5 30l-168 238l-168 -238q-14 -21 -23.5 -30t-23.5 -9h-137q-15 0 -21 13z" />
<glyph unicode="&#xdc;" horiz-adv-x="1171" d="M113 446v1010q0 31 30 31h123q31 0 31 -31v-989q0 -62 16.5 -116.5t48.5 -98t85 -69t120 -25.5h39q130 0 199 89.5t69 219.5v989q0 31 31 31h123q31 0 31 -31v-1010q0 -198 -125.5 -329t-321.5 -131h-53q-196 0 -321 131t-125 329zM197 1808v172q0 31 30 31h170 q31 0 31 -31v-172q0 -30 -31 -30h-170q-30 0 -30 30zM743 1808v172q0 31 31 31h170q31 0 31 -31v-172q0 -30 -31 -30h-170q-31 0 -31 30z" />
<glyph unicode="&#xdd;" horiz-adv-x="1230" d="M96.5 1479q6.5 8 22.5 8h141q14 0 22.5 -7t18.5 -24l313 -608l318 608q16 31 41 31h141q16 0 22 -8t-1 -23l-428 -803v-622q0 -31 -31 -31h-123q-31 0 -31 31v622l-424 803q-8 15 -1.5 23zM525 1720q-6 10 1 27l154 379q12 37 43 37h151q39 0 21 -37l-178 -379 q-19 -37 -43 -37h-127q-16 0 -22 10z" />
<glyph unicode="&#xde;" horiz-adv-x="1153" d="M133 31v1425q0 31 31 31h123q30 0 30 -31v-287h334q184 0 292 -114t108 -310t-108.5 -311t-291.5 -115h-334v-288q0 -31 -30 -31h-123q-31 0 -31 31zM317 492h324q225 0 225 253q0 252 -225 252h-324v-505z" />
<glyph unicode="&#xdf;" horiz-adv-x="1071" d="M123 1171q0 145 97 236.5t253 91.5h66q154 0 261 -96t107 -236v-84q0 -92 -42.5 -168.5t-123.5 -111.5q108 -46 168 -131.5t60 -229.5v-65q0 -165 -128 -271t-309 -106h-43q-30 0 -30 31v119q0 30 30 30h43q109 0 181.5 52.5t72.5 154.5v86q0 109 -72.5 172.5 t-170.5 63.5h-54q-30 0 -30 30v119q0 31 30 31h54q87 0 134.5 52t47.5 132v74q0 80 -50 126t-136 46h-66q-164 0 -164 -168l-2 -1120q0 -31 -31 -31h-120q-31 0 -31 31z" />
<glyph unicode="&#xe0;" horiz-adv-x="989" d="M92 291q0 134 85.5 214.5t215.5 80.5h289v32q0 81 -45 133t-113 52h-80q-66 0 -108.5 -21.5t-83.5 -60.5q-10 -9 -24.5 -8.5t-24.5 12.5l-60 76q-18 22 -2 41q121 127 310 127h88q129 0 226 -102t97 -257v-561q0 -15 4 -31q4 -18 -6 -18h-143q-35 0 -35 49v43 q-101 -94 -207 -94h-88q-117 -2 -206 85.5t-89 207.5zM203 1602q-17 36 20 36h142q31 0 43 -36l153 -379q7 -17 1 -27t-21 -10h-117q-24 0 -43 37zM272 293q0 -53 37 -90t90 -37h99q62 1 102 27t82 75v150h-283q-59 0 -93 -34.5t-34 -90.5z" />
<glyph unicode="&#xe1;" horiz-adv-x="989" d="M92 291q0 134 85.5 214.5t215.5 80.5h289v32q0 81 -45 133t-113 52h-80q-66 0 -108.5 -21.5t-83.5 -60.5q-10 -9 -24.5 -8.5t-24.5 12.5l-60 76q-18 22 -2 41q121 127 310 127h88q129 0 226 -102t97 -257v-561q0 -15 4 -31q4 -18 -6 -18h-143q-35 0 -35 49v43 q-101 -94 -207 -94h-88q-117 -2 -206 85.5t-89 207.5zM272 293q0 -53 37 -90t90 -37h99q62 1 102 27t82 75v150h-283q-59 0 -93 -34.5t-34 -90.5zM405 1196q-6 10 1 27l153 379q12 36 43 36h152q37 0 20 -36l-178 -379q-19 -37 -43 -37h-127q-15 0 -21 10z" />
<glyph unicode="&#xe2;" horiz-adv-x="989" d="M92 291q0 134 85.5 214.5t215.5 80.5h289v32q0 81 -45 133t-113 52h-80q-66 0 -108.5 -21.5t-83.5 -60.5q-10 -9 -24.5 -8.5t-24.5 12.5l-60 76q-18 22 -2 41q121 127 310 127h88q129 0 226 -102t97 -257v-561q0 -15 4 -31q4 -18 -6 -18h-143q-35 0 -35 49v43 q-101 -94 -207 -94h-88q-117 -2 -206 85.5t-89 207.5zM116.5 1213q-5.5 13 4.5 26l260 367q22 32 47 32h121q27 0 49 -32l260 -367q10 -13 4.5 -26t-20.5 -13h-137q-23 0 -48 39l-168 238l-167 -238q-25 -39 -48 -39h-137q-15 0 -20.5 13zM272 293q0 -53 37 -90t90 -37h99 q62 1 102 27t82 75v150h-283q-59 0 -93 -34.5t-34 -90.5z" />
<glyph unicode="&#xe3;" horiz-adv-x="989" d="M92 291q0 134 85.5 214.5t215.5 80.5h289v32q0 81 -45 133t-113 52h-80q-66 0 -108.5 -21.5t-83.5 -60.5q-10 -9 -24.5 -8.5t-24.5 12.5l-60 76q-18 22 -2 41q121 127 310 127h88q129 0 226 -102t97 -257v-561q0 -15 4 -31q4 -18 -6 -18h-143q-35 0 -35 49v43 q-101 -94 -207 -94h-88q-117 -2 -206 85.5t-89 207.5zM109 1440q-13 23 20 45q104 75 192.5 81t192.5 -59q48 -30 77 -42t61 -8.5t57.5 17t74.5 46.5q20 13 35 -17l49 -96q14 -22 -20 -45q-105 -73 -192 -79.5t-193 56.5q-64 39 -102 48t-71 -3.5t-97 -56.5q-19 -12 -35 16z M272 293q0 -53 37 -90t90 -37h99q62 1 102 27t82 75v150h-283q-59 0 -93 -34.5t-34 -90.5z" />
<glyph unicode="&#xe4;" horiz-adv-x="989" d="M92 291q0 134 85.5 214.5t215.5 80.5h289v32q0 81 -45 133t-113 52h-80q-66 0 -108.5 -21.5t-83.5 -60.5q-10 -9 -24.5 -8.5t-24.5 12.5l-60 76q-18 22 -2 41q121 127 310 127h88q129 0 226 -102t97 -257v-561q0 -15 4 -31q4 -18 -6 -18h-143q-35 0 -35 49v43 q-101 -94 -207 -94h-88q-117 -2 -206 85.5t-89 207.5zM98 1284v172q0 31 31 31h170q31 0 31 -31v-172q0 -31 -31 -31h-170q-31 0 -31 31zM272 293q0 -53 37 -90t90 -37h99q62 1 102 27t82 75v150h-283q-59 0 -93 -34.5t-34 -90.5zM645 1284v172q0 31 31 31h170q31 0 31 -31 v-172q0 -31 -31 -31h-170q-31 0 -31 31z" />
<glyph unicode="&#xe5;" horiz-adv-x="989" d="M92 291q0 134 85.5 214.5t215.5 80.5h289v32q0 81 -45 133t-113 52h-80q-66 0 -108.5 -21.5t-83.5 -60.5q-10 -9 -24.5 -8.5t-24.5 12.5l-60 76q-18 22 -2 41q121 127 310 127h88q129 0 226 -102t97 -257v-561q0 -15 4 -31q4 -18 -6 -18h-143q-35 0 -35 49v43 q-101 -94 -207 -94h-88q-117 -2 -206 85.5t-89 207.5zM272 293q0 -53 37 -90t90 -37h99q62 1 102 27t82 75v150h-283q-59 0 -93 -34.5t-34 -90.5zM287 1427v23q0 82 52.5 136t135.5 54h27q83 0 135.5 -54t52.5 -136v-23q0 -83 -52.5 -135.5t-135.5 -52.5h-27 q-83 0 -135.5 52.5t-52.5 135.5zM412 1436q0 -34 19 -54t52 -20h13q34 0 53.5 20t19.5 54v10q0 32 -19.5 52t-53.5 20h-13q-33 0 -52 -19.5t-19 -52.5v-10z" />
<glyph unicode="&#xe6;" horiz-adv-x="1558" d="M86 287q0 129 85.5 208.5t215.5 79.5h254v23q0 26 8 80q-13 49 -50.5 76.5t-88.5 27.5h-78q-115 0 -186 -61q-26 -18 -43 2l-70 84q-18 22 -2 41q116 119 322 119h73q63 0 123.5 -28t104.5 -79q112 109 254 109h73q83 0 163 -47t134 -133.5t54 -188.5v-108 q0 -29 -16.5 -45.5t-47.5 -16.5h-520v-172q23 -43 66 -67.5t94 -24.5h67q106 0 197 106q25 29 53 7l72 -62q23 -20 6 -43q-32 -39 -61 -66.5t-69 -54.5t-90.5 -41t-109.5 -14h-65q-147 0 -260 113q-117 -113 -263 -113h-108q-114 -2 -202.5 85t-88.5 204zM270 295 q0 -48 33 -80.5t78 -32.5h84q66 1 109.5 23.5t80.5 62.5q-14 43 -14 97v36h-260q-53 0 -82 -27.5t-29 -78.5zM840 688q8 -50 8 -78v-28h399v34q0 79 -53 133t-115 54h-73q-53 0 -98.5 -31.5t-67.5 -83.5z" />
<glyph unicode="&#xe7;" horiz-adv-x="970" d="M102 365v233q0 148 109.5 259.5t255.5 111.5h76q123 0 228 -92t108 -201q0 -35 -29 -35h-117q-14 0 -24 8t-11 21q-5 49 -52.5 91t-104.5 42h-72q-73 0 -129.5 -61t-56.5 -142v-235q0 -82 56.5 -140.5t129.5 -58.5h78q52 0 94.5 31t89.5 86q23 26 51 4l80 -70 q23 -20 6 -43q-66 -79 -136.5 -125.5t-172.5 -50.5q-8 -11 -12.5 -20l-8 -16t-2 -13t1.5 -9.5t6.5 -7t8 -5t11.5 -3.5t12 -2.5t14.5 -2t13.5 -1.5q51 -6 82.5 -14t59.5 -26.5t40.5 -51.5t12.5 -84q0 -156 -191 -156h-125q-84 0 -131 47t-49 125q0 21 19 21h116q8 0 14.5 -5 t6.5 -12q0 -49 73 -49h35q24 0 34 0.5t22 3.5t16 10.5t4 20.5q0 22 -25 29.5t-117 18.5q-53 7 -87 11q-18 3 -34.5 14.5t-28.5 33t-2 59t46 84.5l6 6q-126 25 -212.5 128.5t-86.5 232.5z" />
<glyph unicode="&#xe8;" horiz-adv-x="974" d="M92 365v233q0 148 110 259.5t257 111.5h73q83 0 163 -47t134 -133.5t54 -188.5v-108q0 -29 -16.5 -45.5t-47.5 -16.5h-543v-84q0 -77 55 -128.5t130 -51.5h67q106 0 197 106q11 14 25 15.5t26 -8.5l72 -62q24 -19 6 -43q-32 -39 -61 -66.5t-69 -54.5t-90 -41t-108 -14 h-67q-148 0 -257.5 109.5t-109.5 257.5zM193 1602q-17 36 20 36h141q31 0 43 -36l154 -379q7 -17 1 -27t-22 -10h-116q-24 0 -43 37zM276 582h422v34q0 80 -52 133.5t-116 53.5h-73q-72 0 -126.5 -56.5t-54.5 -132.5v-32z" />
<glyph unicode="&#xe9;" horiz-adv-x="974" d="M92 365v233q0 148 110 259.5t257 111.5h73q83 0 163 -47t134 -133.5t54 -188.5v-108q0 -29 -16.5 -45.5t-47.5 -16.5h-543v-84q0 -77 55 -128.5t130 -51.5h67q106 0 197 106q11 14 25 15.5t26 -8.5l72 -62q24 -19 6 -43q-32 -39 -61 -66.5t-69 -54.5t-90 -41t-108 -14 h-67q-148 0 -257.5 109.5t-109.5 257.5zM276 582h422v34q0 80 -52 133.5t-116 53.5h-73q-72 0 -126.5 -56.5t-54.5 -132.5v-32zM394 1196q-6 10 1 27l154 379q12 36 43 36h151q38 0 21 -36l-178 -379q-19 -37 -43 -37h-127q-16 0 -22 10z" />
<glyph unicode="&#xea;" horiz-adv-x="974" d="M92 365v233q0 148 110 259.5t257 111.5h73q83 0 163 -47t134 -133.5t54 -188.5v-108q0 -29 -16.5 -45.5t-47.5 -16.5h-543v-84q0 -77 55 -128.5t130 -51.5h67q106 0 197 106q11 14 25 15.5t26 -8.5l72 -62q24 -19 6 -43q-32 -39 -61 -66.5t-69 -54.5t-90 -41t-108 -14 h-67q-148 0 -257.5 109.5t-109.5 257.5zM108.5 1213q-5.5 13 4.5 26l260 367q22 32 47 32h121q27 0 49 -32l260 -367q10 -13 4.5 -26t-20.5 -13h-138q-14 0 -23.5 9t-23.5 30l-168 238l-168 -238q-14 -21 -23.5 -30t-23.5 -9h-137q-15 0 -20.5 13zM276 582h422v34 q0 80 -52 133.5t-116 53.5h-73q-72 0 -126.5 -56.5t-54.5 -132.5v-32z" />
<glyph unicode="&#xeb;" horiz-adv-x="974" d="M90 1284v172q0 31 31 31h170q31 0 31 -31v-172q0 -31 -31 -31h-170q-31 0 -31 31zM92 365v233q0 148 110 259.5t257 111.5h73q83 0 163 -47t134 -133.5t54 -188.5v-108q0 -29 -16.5 -45.5t-47.5 -16.5h-543v-84q0 -77 55 -128.5t130 -51.5h67q106 0 197 106 q11 14 25 15.5t26 -8.5l72 -62q24 -19 6 -43q-32 -39 -61 -66.5t-69 -54.5t-90 -41t-108 -14h-67q-148 0 -257.5 109.5t-109.5 257.5zM276 582h422v34q0 80 -52 133.5t-116 53.5h-73q-72 0 -126.5 -56.5t-54.5 -132.5v-32zM637 1284v172q0 31 31 31h170q30 0 30 -31v-172 q0 -31 -30 -31h-170q-31 0 -31 31z" />
<glyph unicode="&#xec;" horiz-adv-x="507" d="M-37 1602q-17 36 21 36h143q31 0 43 -36l154 -379q7 -17 1 -27t-22 -10h-117q-24 0 -43 37zM164 31v903q0 31 31 31h118q31 0 31 -31v-903q0 -31 -31 -31h-118q-31 0 -31 31z" />
<glyph unicode="&#xed;" horiz-adv-x="507" d="M164 31v903q0 31 31 31h118q31 0 31 -31v-903q0 -31 -31 -31h-118q-31 0 -31 31zM167 1196q-6 10 1 27l154 379q12 36 43 36h151q38 0 21 -36l-179 -379q-19 -37 -43 -37h-127q-15 0 -21 10z" />
<glyph unicode="&#xee;" horiz-adv-x="507" d="M-122.5 1213q-5.5 13 3.5 26l262 367q22 32 47 32h121q27 0 49 -32l261 -367q10 -13 4 -26t-21 -13h-137q-14 0 -23.5 9t-23.5 30l-168 238l-168 -238q-14 -21 -23.5 -30t-23.5 -9h-139q-15 0 -20.5 13zM164 31v903q0 31 31 31h118q31 0 31 -31v-903q0 -31 -31 -31h-118 q-31 0 -31 31z" />
<glyph unicode="&#xef;" horiz-adv-x="507" d="M-137 1284v172q0 31 31 31h169q31 0 31 -31v-172q0 -31 -31 -31h-169q-31 0 -31 31zM164 31v903q0 31 31 31h118q31 0 31 -31v-903q0 -31 -31 -31h-118q-31 0 -31 31zM410 1284v172q0 31 30 31h170q31 0 31 -31v-172q0 -31 -31 -31h-170q-30 0 -30 31z" />
<glyph unicode="&#xf0;" horiz-adv-x="1112" d="M102 422q-4 255 97.5 375.5t320.5 120.5q125 0 189.5 -20.5t111.5 -57.5q4 55 -3 115.5t-27 170.5l-9 39l-37 -49q-24 -35 -47 -35h-147q-19 0 -25 11t4 26l150 195q-50 16 -123 16h-49q-31 0 -31 31v123q0 30 31 30h49q130 0 227 -65l4 4q18 23 27 29t21 6h147 q19 0 24.5 -11t-6.5 -26l-98 -127q64 -103 76 -227q39 -344 8 -682q-18 -203 -123.5 -318.5t-263.5 -115.5h-104q-83 0 -153 27.5t-123.5 81.5t-84.5 139t-33 194zM291 418q0 -133 54.5 -193.5t160.5 -60.5h74q44 0 78.5 9.5t68.5 35t55.5 77t28.5 128.5q9 94 -1.5 154.5 t-47 95t-91 47.5t-141.5 14q-62 1 -105 -11.5t-69.5 -35.5t-40.5 -64t-19 -85.5t-5 -110.5z" />
<glyph unicode="&#xf1;" horiz-adv-x="1028" d="M123 31v901q0 31 31 31h118q31 0 31 -31v-72q32 47 95 75t137 28h38q158 0 245 -102t87 -261v-569q0 -31 -31 -31h-118q-31 0 -31 31v571q0 86 -48.5 140.5t-133.5 54.5h-62q-70 0 -124 -49.5t-54 -116.5v-600q0 -31 -31 -31h-118q-31 0 -31 31zM129 1440q-13 23 21 45 q104 75 192.5 81t192.5 -59q48 -30 77 -42t61 -8.5t57.5 17t74.5 46.5q20 13 35 -17l49 -96q14 -22 -21 -45q-105 -73 -192 -79.5t-193 56.5q-64 39 -102 48t-71 -3.5t-97 -56.5q-19 -12 -35 16z" />
<glyph unicode="&#xf2;" horiz-adv-x="1021" d="M102 375v213q0 154 107.5 267.5t259.5 113.5h84q152 0 259.5 -113.5t107.5 -267.5v-213q0 -154 -107.5 -265.5t-259.5 -111.5h-84q-152 0 -259.5 111.5t-107.5 265.5zM225 1602q-17 36 21 36h141q31 0 43 -36l154 -379q7 -17 1 -27t-22 -10h-117q-24 0 -43 37zM283 375 q0 -87 52.5 -148t133.5 -61h84q82 0 135 61t53 148v213q0 87 -53.5 151t-134.5 64h-84q-81 0 -133.5 -64t-52.5 -151v-213z" />
<glyph unicode="&#xf3;" horiz-adv-x="1021" d="M102 375v213q0 154 107.5 267.5t259.5 113.5h84q152 0 259.5 -113.5t107.5 -267.5v-213q0 -154 -107.5 -265.5t-259.5 -111.5h-84q-152 0 -259.5 111.5t-107.5 265.5zM283 375q0 -87 52.5 -148t133.5 -61h84q82 0 135 61t53 148v213q0 87 -53.5 151t-134.5 64h-84 q-81 0 -133.5 -64t-52.5 -151v-213zM427 1196q-6 10 1 27l154 379q12 36 43 36h151q38 0 21 -36l-179 -379q-19 -37 -43 -37h-126q-16 0 -22 10z" />
<glyph unicode="&#xf4;" horiz-adv-x="1021" d="M102 375v213q0 154 107.5 267.5t259.5 113.5h84q152 0 259.5 -113.5t107.5 -267.5v-213q0 -154 -107.5 -265.5t-259.5 -111.5h-84q-152 0 -259.5 111.5t-107.5 265.5zM141 1213q-6 13 4 26l261 367q22 32 47 32h120q28 0 50 -32l260 -367q10 -13 4 -26t-21 -13h-137 q-14 0 -23.5 9t-23.5 30l-168 238l-168 -238q-14 -21 -23.5 -30t-23.5 -9h-137q-15 0 -21 13zM283 375q0 -87 52.5 -148t133.5 -61h84q82 0 135 61t53 148v213q0 87 -53.5 151t-134.5 64h-84q-81 0 -133.5 -64t-52.5 -151v-213z" />
<glyph unicode="&#xf5;" horiz-adv-x="1021" d="M102 375v213q0 154 107.5 267.5t259.5 113.5h84q152 0 259.5 -113.5t107.5 -267.5v-213q0 -154 -107.5 -265.5t-259.5 -111.5h-84q-152 0 -259.5 111.5t-107.5 265.5zM133 1440q-13 23 21 45q104 75 192.5 81t192.5 -59q48 -30 77 -42t61 -8.5t57.5 17t74.5 46.5 q20 13 35 -17l49 -96q14 -22 -21 -45q-105 -73 -192 -79.5t-193 56.5q-64 39 -102 48t-71 -3.5t-97 -56.5q-19 -12 -35 16zM283 375q0 -87 52.5 -148t133.5 -61h84q82 0 135 61t53 148v213q0 87 -53.5 151t-134.5 64h-84q-81 0 -133.5 -64t-52.5 -151v-213z" />
<glyph unicode="&#xf6;" horiz-adv-x="1021" d="M102 375v213q0 154 107.5 267.5t259.5 113.5h84q152 0 259.5 -113.5t107.5 -267.5v-213q0 -154 -107.5 -265.5t-259.5 -111.5h-84q-152 0 -259.5 111.5t-107.5 265.5zM123 1284v172q0 31 31 31h170q30 0 30 -31v-172q0 -31 -30 -31h-170q-31 0 -31 31zM283 375 q0 -87 52.5 -148t133.5 -61h84q82 0 135 61t53 148v213q0 87 -53.5 151t-134.5 64h-84q-81 0 -133.5 -64t-52.5 -151v-213zM670 1284v172q0 31 30 31h170q31 0 31 -31v-172q0 -31 -31 -31h-170q-30 0 -30 31z" />
<glyph unicode="&#xf7;" horiz-adv-x="1052" d="M123 600v123q0 31 31 31h747q29 0 29 -31v-123q0 -31 -31 -31h-745q-31 0 -31 31zM420 238v161q0 31 31 31h153q31 0 31 -31v-161q0 -31 -31 -31h-153q-31 0 -31 31zM420 924v161q0 31 31 31h153q31 0 31 -31v-161q0 -31 -31 -31h-153q-31 0 -31 31z" />
<glyph unicode="&#xf8;" horiz-adv-x="1038" d="M102 375v213q0 154 107.5 267.5t259.5 113.5h84q35 0 84 -11q11 7 22 7h136q32 0 20 -31l-24 -57q61 -55 95 -130t34 -159v-213q0 -154 -107.5 -265.5t-259.5 -111.5h-84q-36 0 -70 6q-12 -4 -20 -4h-135q-33 0 -21 31l21 47q-66 54 -104 131.5t-38 165.5zM283 375 q0 -75 36 -125l242 553h-8h-84q-81 0 -133.5 -64t-52.5 -151v-213zM479 166h74q82 0 135 61t53 148v213q0 61 -28 112z" />
<glyph unicode="&#xf9;" horiz-adv-x="1028" d="M125 362v570q0 31 31 31h116q31 0 31 -31v-570q0 -85 49 -139.5t133 -54.5h62q71 0 125.5 49.5t54.5 116.5v598q0 31 31 31h116q31 0 31 -31v-901q0 -31 -31 -31h-116q-31 0 -31 31v71q-34 -47 -96.5 -74.5t-134.5 -27.5h-41q-157 0 -243.5 102t-86.5 260zM231 1602 q-17 36 21 36h141q31 0 43 -36l154 -379q7 -17 1 -27t-22 -10h-116q-24 0 -43 37z" />
<glyph unicode="&#xfa;" horiz-adv-x="1028" d="M125 362v570q0 31 31 31h116q31 0 31 -31v-570q0 -85 49 -139.5t133 -54.5h62q71 0 125.5 49.5t54.5 116.5v598q0 31 31 31h116q31 0 31 -31v-901q0 -31 -31 -31h-116q-31 0 -31 31v71q-34 -47 -96.5 -74.5t-134.5 -27.5h-41q-157 0 -243.5 102t-86.5 260zM433 1196 q-6 10 1 27l154 379q12 36 43 36h151q38 0 21 -36l-178 -379q-19 -37 -43 -37h-127q-16 0 -22 10z" />
<glyph unicode="&#xfb;" horiz-adv-x="1028" d="M125 362v570q0 31 31 31h116q31 0 31 -31v-570q0 -85 49 -139.5t133 -54.5h62q71 0 125.5 49.5t54.5 116.5v598q0 31 31 31h116q31 0 31 -31v-901q0 -31 -31 -31h-116q-31 0 -31 31v71q-34 -47 -96.5 -74.5t-134.5 -27.5h-41q-157 0 -243.5 102t-86.5 260zM145.5 1213 q-5.5 13 4.5 26l260 367q22 32 47 32h121q27 0 49 -32l260 -367q10 -13 4 -26t-21 -13h-137q-14 0 -23.5 9t-23.5 30l-168 238l-168 -238q-14 -21 -23.5 -30t-23.5 -9h-137q-15 0 -20.5 13z" />
<glyph unicode="&#xfc;" horiz-adv-x="1028" d="M125 362v570q0 31 31 31h116q31 0 31 -31v-570q0 -85 49 -139.5t133 -54.5h62q71 0 125.5 49.5t54.5 116.5v598q0 31 31 31h116q31 0 31 -31v-901q0 -31 -31 -31h-116q-31 0 -31 31v71q-34 -47 -96.5 -74.5t-134.5 -27.5h-41q-157 0 -243.5 102t-86.5 260zM129 1284v172 q0 31 31 31h170q30 0 30 -31v-172q0 -31 -30 -31h-170q-31 0 -31 31zM676 1284v172q0 31 31 31h170q30 0 30 -31v-172q0 -31 -30 -31h-170q-31 0 -31 31z" />
<glyph unicode="&#xfd;" horiz-adv-x="1064" d="M76 926q-15 37 18 37h131q29 0 43 -35l260 -633l267 633q14 35 45 35h129q33 0 18 -37l-545 -1301q-14 -35 -45 -35h-129q-35 0 -20 37l186 445zM448 1196q-6 10 1 27l153 379q12 36 43 36h152q37 0 20 -36l-178 -379q-19 -37 -43 -37h-127q-15 0 -21 10z" />
<glyph unicode="&#xfe;" horiz-adv-x="1017" d="M143 -379v1835q0 31 31 31h119q31 0 31 -31v-561q81 68 178 68h61q147 0 249.5 -112t102.5 -257v-246q0 -138 -108 -243t-244 -105h-61q-96 0 -178 68v-447q0 -31 -31 -31h-119q-31 0 -31 31zM324 260q28 -40 77 -66t95 -26h69q72 0 122 48t50 120v272q0 76 -48.5 132.5 t-123.5 56.5h-69q-60 0 -111 -40.5t-61 -97.5v-399z" />
<glyph unicode="&#xff;" horiz-adv-x="1064" d="M76 926q-15 37 18 37h131q29 0 43 -35l260 -633l267 633q14 35 45 35h129q33 0 18 -37l-545 -1301q-14 -35 -45 -35h-129q-35 0 -20 37l186 445zM143 1284v172q0 31 31 31h170q31 0 31 -31v-172q0 -31 -31 -31h-170q-31 0 -31 31zM690 1284v172q0 31 31 31h170 q31 0 31 -31v-172q0 -31 -31 -31h-170q-31 0 -31 31z" />
<glyph unicode="&#x152;" horiz-adv-x="1908" d="M123 469v551q0 202 126.5 345.5t303.5 143.5h100q152 0 267 -106v53q0 31 30 31h781q30 0 30 -31v-110q0 -31 -30 -31h-627v-479h493q31 0 31 -31v-111q0 -30 -31 -30h-493v-492h627q30 0 30 -31v-110q0 -31 -30 -31h-781q-30 0 -30 31v55q-115 -106 -267 -106h-100 q-177 0 -303.5 143.5t-126.5 345.5zM307 457q0 -128 71.5 -217t182.5 -88h84q113 0 183.5 88.5t70.5 216.5v577q0 128 -70.5 215.5t-183.5 87.5h-84q-112 0 -183 -88t-71 -215v-577z" />
<glyph unicode="&#x153;" horiz-adv-x="1642" d="M102 375v213q0 154 107.5 267.5t259.5 113.5h84q158 0 270 -125q52 58 122.5 91.5t146.5 33.5h73q83 0 163 -47t134 -133.5t54 -188.5v-108q0 -29 -16.5 -45.5t-47.5 -16.5h-532v-55q0 -28 -7 -68q13 -63 63.5 -102t115.5 -39h67q106 0 197 106q25 29 53 7l72 -62 q23 -20 6 -43q-32 -39 -61 -66.5t-69 -54.5t-90.5 -41t-109.5 -14h-65q-77 0 -147 32.5t-122 90.5q-110 -123 -270 -123h-84q-152 0 -259.5 111.5t-107.5 265.5zM283 375q0 -87 52.5 -148t133.5 -61h84q62 0 109.5 38t68.5 99q-6 30 -6 62v233q0 31 6 61q-19 63 -67 103.5 t-111 40.5h-84q-81 0 -133.5 -64t-52.5 -151v-213zM913 655q7 -40 7 -67v-6h411v34q0 79 -53 133t-115 54h-73q-63 0 -113 -42.5t-64 -105.5z" />
<glyph unicode="&#x178;" horiz-adv-x="1230" d="M96.5 1479q6.5 8 22.5 8h141q14 0 22.5 -7t18.5 -24l313 -608l318 608q16 31 41 31h141q16 0 22 -8t-1 -23l-428 -803v-622q0 -31 -31 -31h-123q-31 0 -31 31v622l-424 803q-8 15 -1.5 23zM221 1808v172q0 31 31 31h170q31 0 31 -31v-172q0 -30 -31 -30h-170 q-31 0 -31 30zM768 1808v172q0 31 31 31h170q30 0 30 -31v-172q0 -30 -30 -30h-170q-31 0 -31 30z" />
<glyph unicode="&#x2c6;" horiz-adv-x="956" d="M106.5 1213q-5.5 13 4.5 26l260 367q22 32 47 32h121q27 0 49 -32l260 -367q10 -13 4 -26t-21 -13h-137q-14 0 -23.5 9t-23.5 30l-168 238l-168 -238q-14 -21 -23.5 -30t-23.5 -9h-137q-15 0 -20.5 13z" />
<glyph unicode="&#x2dc;" horiz-adv-x="970" d="M106 1440q-13 23 21 45q104 75 192.5 81t192.5 -59q48 -30 77 -42t61 -8.5t57.5 17t74.5 46.5q20 13 35 -17l49 -96q14 -22 -20 -45q-105 -73 -192 -79.5t-193 56.5q-64 39 -102 48t-71.5 -3.5t-97.5 -56.5q-7 -8 -15 -4.5t-11 7.5t-8 13z" />
<glyph unicode="&#x2000;" horiz-adv-x="1082" />
<glyph unicode="&#x2001;" horiz-adv-x="2165" />
<glyph unicode="&#x2002;" horiz-adv-x="1082" />
<glyph unicode="&#x2003;" horiz-adv-x="2165" />
<glyph unicode="&#x2004;" horiz-adv-x="721" />
<glyph unicode="&#x2005;" horiz-adv-x="541" />
<glyph unicode="&#x2006;" horiz-adv-x="360" />
<glyph unicode="&#x2007;" horiz-adv-x="360" />
<glyph unicode="&#x2008;" horiz-adv-x="270" />
<glyph unicode="&#x2009;" horiz-adv-x="433" />
<glyph unicode="&#x200a;" horiz-adv-x="120" />
<glyph unicode="&#x2010;" horiz-adv-x="888" d="M143 457v123q0 30 31 30h541q30 0 30 -30v-123q0 -31 -30 -31h-541q-31 0 -31 31z" />
<glyph unicode="&#x2011;" horiz-adv-x="888" d="M143 457v123q0 30 31 30h541q30 0 30 -30v-123q0 -31 -30 -31h-541q-31 0 -31 31z" />
<glyph unicode="&#x2012;" horiz-adv-x="888" d="M143 457v123q0 30 31 30h541q30 0 30 -30v-123q0 -31 -30 -31h-541q-31 0 -31 31z" />
<glyph unicode="&#x2013;" horiz-adv-x="1271" d="M123 420v123q0 30 31 30h964q31 0 31 -30v-123q0 -31 -31 -31h-964q-31 0 -31 31z" />
<glyph unicode="&#x2014;" horiz-adv-x="1423" d="M123 420v123q0 30 31 30h1116q30 0 30 -30v-123q0 -31 -30 -31h-1116q-31 0 -31 31z" />
<glyph unicode="&#x2018;" horiz-adv-x="464" d="M102 963v245q0 211 119 348q11 12 18.5 12.5t22.5 -12.5l64 -59q27 -24 8 -43q-34 -33 -51 -74t-20 -72t-3 -87l-16 -21h78q30 0 30 -31v-206q0 -31 -30 -31h-189q-31 0 -31 31z" />
<glyph unicode="&#x2019;" horiz-adv-x="487" d="M115 1249v187q0 30 30 30h187q30 0 30 -30v-226q0 -96 -21 -171.5t-89 -153.5q-11 -12 -18.5 -12.5t-22.5 12.5l-51 47q-24 24 -6 43q26 26 41.5 51.5t22 56t8 52.5t1.5 63l17 21h-99q-30 0 -30 30z" />
<glyph unicode="&#x201a;" horiz-adv-x="464" d="M104 31v186q0 31 31 31h184q31 0 31 -31v-225q0 -97 -20 -172.5t-88 -153.5q-11 -13 -18 -13.5t-23 13.5l-51 45q-28 26 -9 45q35 33 52 72t19.5 67t2.5 85l16 20h-96q-31 0 -31 31z" />
<glyph unicode="&#x201c;" horiz-adv-x="868" d="M102 963v245q0 211 119 348q11 12 18.5 12.5t22.5 -12.5l64 -59q27 -24 8 -43q-34 -33 -51 -74t-20 -72t-3 -87l-16 -21h78q30 0 30 -31v-206q0 -31 -30 -31h-189q-31 0 -31 31zM506 963v245q0 211 119 348q11 12 18.5 12.5t22.5 -12.5l63 -59q27 -24 8 -43 q-34 -33 -51 -74t-19.5 -71.5t-2.5 -87.5l-17 -21h78q31 0 31 -31v-206q0 -31 -31 -31h-188q-31 0 -31 31z" />
<glyph unicode="&#x201d;" horiz-adv-x="888" d="M115 1249v187q0 30 30 30h185q30 0 30 -30v-226q0 -97 -20 -172t-88 -153q-11 -12 -18.5 -12.5t-22.5 12.5l-51 47q-27 24 -8 43q27 26 42.5 51t22 56.5t7.5 51.5t1 64l17 21h-97q-30 0 -30 30zM518 1249v187q0 30 31 30h184q31 0 31 -30v-226q0 -96 -20.5 -171.5 t-88.5 -153.5q-11 -12 -18.5 -12.5t-22.5 12.5l-51 47q-27 24 -8 43q35 34 52 73t19.5 66.5t2.5 83.5l16 21h-96q-31 0 -31 30z" />
<glyph unicode="&#x201e;" horiz-adv-x="868" d="M104 31v186q0 31 31 31h184q31 0 31 -31v-225q0 -97 -20 -172.5t-88 -153.5q-11 -13 -18 -13.5t-23 13.5l-51 45q-28 26 -9 45q35 33 52 72t19.5 67t2.5 85l16 20h-96q-31 0 -31 31zM508 31v186q0 31 31 31h184q31 0 31 -31v-225q0 -96 -20.5 -172t-88.5 -154 q-11 -13 -18 -13.5t-23 13.5l-51 45q-28 25 -8 45q27 25 42.5 50t22 56.5t7.5 52t1 65.5l17 20h-96q-31 0 -31 31z" />
<glyph unicode="&#x2022;" horiz-adv-x="659" d="M164 618v187q0 67 65 67h197q70 0 70 -67v-187q0 -67 -70 -67h-197q-65 0 -65 67z" />
<glyph unicode="&#x2026;" horiz-adv-x="1368" d="M102 31v162q0 30 31 30h164q31 0 31 -30v-162q0 -31 -31 -31h-164q-31 0 -31 31zM571 31v162q0 30 31 30h164q31 0 31 -30v-162q0 -31 -31 -31h-164q-31 0 -31 31zM1040 31v162q0 30 31 30h164q31 0 31 -30v-162q0 -31 -31 -31h-164q-31 0 -31 31z" />
<glyph unicode="&#x202f;" horiz-adv-x="433" />
<glyph unicode="&#x2039;" horiz-adv-x="677" d="M113 477v98q0 28 30 48l385 266q14 10 25.5 4t11.5 -21v-165q0 -14 -8 -23t-29 -22l-202 -136l202 -135q37 -21 37 -45v-166q0 -15 -11.5 -20t-25.5 4l-385 266q-30 23 -30 47z" />
<glyph unicode="&#x203a;" horiz-adv-x="677" d="M113 180v166q0 14 9 23.5t28 21.5l202 135l-202 136q-15 10 -20.5 14.5t-11 12.5t-5.5 18v165q0 15 11.5 21t25.5 -4l385 -266q30 -20 30 -48v-98q0 -24 -30 -47l-385 -266q-14 -9 -25.5 -4t-11.5 20z" />
<glyph unicode="&#x205f;" horiz-adv-x="541" />
<glyph unicode="&#x20ac;" horiz-adv-x="1433" d="M102 551v113q0 30 31 30h244v94h-244q-31 0 -31 31v113q0 31 31 31h244v59q0 209 125.5 348t308.5 139h94q175 0 299 -137.5t127 -335.5q0 -30 -31 -30h-122q-33 0 -33 30q0 129 -67 210t-173 81h-94q-113 0 -181.5 -82.5t-68.5 -222.5v-59h346q31 0 31 -31v-113 q0 -31 -31 -31h-346v-94h346q31 0 31 -30v-113q0 -31 -31 -31h-346v-55q0 -141 68.5 -225t181.5 -84h94q106 0 173.5 82.5t66.5 212.5q0 30 33 30h122q31 0 31 -30q-1 -131 -58.5 -241t-155 -173.5t-212.5 -63.5h-94q-120 0 -219.5 64t-157 177t-57.5 251v55h-244 q-31 0 -31 31z" />
<glyph unicode="&#x2122;" horiz-adv-x="1595" d="M82 1395v61q0 31 31 31h489q31 0 31 -31v-61q0 -31 -31 -31h-182v-371q0 -30 -31 -30h-61q-31 0 -31 30v371h-184q-31 0 -31 31zM745 993v463q0 31 31 31h123q24 0 41 -31l188 -338l191 338q18 31 41 31h123q30 0 30 -31v-463q0 -30 -30 -30h-62q-30 0 -30 30v340 l-201 -340q-19 -30 -39 -30h-43q-20 0 -39 30l-201 340v-340q0 -30 -30 -30h-62q-31 0 -31 30z" />
<glyph unicode="&#x25fc;" horiz-adv-x="962" d="M0 0v963h963v-963h-963z" />
</font>
</defs>
</svg>
