<?xml version="1.0" standalone="no"?>
<!DOCTYPE svg PUBLIC "-//W3C//DTD SVG 1.1//EN" "http://www.w3.org/Graphics/SVG/1.1/DTD/svg11.dtd" >
<svg xmlns="http://www.w3.org/2000/svg" xmlns:xlink="http://www.w3.org/1999/xlink" version="1.1">
<metadata></metadata>
<defs>
<font id="manifold_cfbold" horiz-adv-x="1206" >
<font-face units-per-em="2048" ascent="1638" descent="-410" />
<missing-glyph horiz-adv-x="645" />
<glyph unicode="&#xfb01;" horiz-adv-x="1312" d="M84 772l18 162q3 31 33 31h121l16 157q19 171 119 268t254 97h135q32 0 29 -31l-18 -160q-3 -30 -33 -30h-135q-44 0 -72.5 -29.5t-34.5 -89.5l-18 -182h698q32 0 29 -31l-97 -903q-3 -31 -32 -31h-178q-32 0 -29 31l76 710h-492l-76 -710q-3 -31 -32 -31h-179 q-31 0 -28 31l73 710h-118q-32 0 -29 31zM1018 1229l24 227q3 31 33 31h178q32 0 29 -31l-25 -227q-3 -31 -34 -31h-179q-29 0 -26 31z" />
<glyph unicode="&#xfb02;" horiz-adv-x="1318" d="M84 772l18 160q3 31 33 31h119l16 159q19 171 119 268t254 97h586q31 0 28 -31l-151 -1425q-3 -31 -33 -31h-178q-32 0 -29 31l131 1235h-376q-44 0 -72.5 -29.5t-34.5 -89.5l-20 -184h208q32 0 29 -31l-18 -160q-3 -31 -33 -31h-209l-76 -710q-3 -31 -33 -31h-178 q-31 0 -28 31l73 710h-116q-32 0 -29 31z" />
<glyph horiz-adv-x="0" />
<glyph horiz-adv-x="682" />
<glyph unicode=" "  horiz-adv-x="645" />
<glyph unicode="&#x09;" horiz-adv-x="645" />
<glyph unicode="&#xa0;" horiz-adv-x="645" />
<glyph unicode="!" horiz-adv-x="618" d="M82 31l27 248q3 30 34 30h205q30 0 27 -30l-27 -248q-3 -31 -33 -31h-204q-32 0 -29 31zM147 547l97 909q3 31 32 31h185q31 0 28 -31l-96 -909q-3 -31 -35 -31h-184q-30 0 -27 31z" />
<glyph unicode="&#x22;" horiz-adv-x="1036" d="M166 856l63 600q3 31 33 31h201q32 0 29 -31l-64 -600q-3 -31 -35 -31h-200q-30 0 -27 31zM633 856l63 600q3 31 33 31h201q31 0 28 -31l-63 -600q-3 -31 -35 -31h-201q-29 0 -26 31z" />
<glyph unicode="#" horiz-adv-x="1220" d="M111 432l18 184q6 31 35 31h123l20 193h-123q-32 0 -26 30l18 185q3 30 35 30h123l39 371q3 31 33 31h184q31 0 28 -31l-38 -371h135l39 371q3 31 32 31h185q31 0 28 -31l-38 -371h122q30 0 27 -30l-18 -185q-6 -30 -35 -30h-123l-21 -193h123q33 0 27 -31l-19 -184 q-3 -31 -34 -31h-123l-39 -370q-3 -31 -33 -31h-184q-32 0 -29 31l39 370h-135l-39 -370q-3 -31 -33 -31h-184q-32 0 -29 31l39 370h-123q-29 0 -26 31zM532 647h136l20 193h-135z" />
<glyph unicode="$" horiz-adv-x="970" d="M109 797q3 30 32 30h127q31 0 31 -28q0 -73 102 -84l25 235q-290 62 -268 273q13 121 105 195t222 87l13 135q3 31 34 31h103q30 0 27 -31l-15 -137q114 -19 190 -95t66 -194q-3 -32 -33 -32h-125q-14 0 -22.5 6.5t-7.5 19.5q8 90 -86 111l-25 -234q68 -15 117.5 -35.5 t88 -52t55 -78.5t9.5 -108q-10 -108 -105.5 -184.5t-223.5 -94.5l-15 -135q-3 -30 -32 -30h-103q-31 0 -28 30l14 135q-53 6 -101.5 26.5t-88.5 52.5t-62.5 80.5t-19.5 105.5zM342 1223q-6 -48 17.5 -71.5t82.5 -37.5l21 209q-57 -7 -87 -28.5t-34 -71.5zM563 717 q118 20 127 94q6 57 -18.5 81t-85.5 34z" />
<glyph unicode="%" horiz-adv-x="1228" d="M21.5 8q-5.5 8 3.5 23l979 1425q12 17 20.5 24t22.5 7h208q16 0 22 -8t-3 -23l-979 -1425q-12 -17 -20.5 -24t-22.5 -7h-209q-16 0 -21.5 8zM137 1274l2 22q9 82 67.5 136.5t141.5 54.5h27q83 0 130 -54.5t38 -136.5l-2 -22q-7 -83 -65.5 -136t-141.5 -53h-27 q-83 0 -130.5 53t-39.5 136zM299 1282q-6 -35 31 -35h8q35 0 41 35v6q3 37 -33 37h-8q-36 0 -39 -37v-6zM748 188l2 23q8 82 65.5 136t140.5 54h27q83 0 130.5 -54t39.5 -136l-2 -23q-9 -83 -67.5 -135.5t-141.5 -52.5h-27q-83 0 -129.5 52.5t-37.5 135.5zM907 197 q-3 -35 31 -35h8q38 0 41 35v6q6 37 -33 37h-8q-33 0 -39 -37v-6z" />
<glyph unicode="&#x26;" horiz-adv-x="1478" d="M63 377l11 100q10 87 59 157.5t164 133.5l10 6l-43 45q-31 33 -48 68t-20 74.5t-1.5 63t6.5 65.5q1 11 2 16l4 39q14 147 134.5 256.5t291.5 109.5h135q114 0 199 -52.5t123.5 -135.5t29.5 -178l-4 -39q-8 -62 -46 -128.5t-91 -107.5l-72 -55q-22 -16 -51 -16h-180 q-21 0 -27.5 14.5t10.5 24.5l56 32q61 37 103.5 95.5t49.5 119.5l6 60q6 64 -30 92.5t-121 28.5h-94q-86 0 -128 -28.5t-48 -92.5l-7 -60q-5 -41 -5.5 -72.5t16.5 -66.5t57 -78l352 -376l6 61q5 46 27.5 92t56.5 68l111 80q25 18 37 18h196q20 0 27 -12.5t-8 -24.5 l-150 -108q-10 -8 -18 -16.5t-13.5 -20t-9 -19t-6 -23.5t-3.5 -21.5t-3 -24.5t-2 -23l-12 -121q-6 -60 -31 -125l221 -235q12 -12 5 -24.5t-27 -12.5h-228q-18 0 -34 16l-66 70q-130 -117 -295 -117h-217q-176 0 -281 117.5t-86 290.5zM309 377q-3 -37 10.5 -72t54.5 -62.5 t103 -27.5h176q78 0 131 43l-317 342l-78 -37q-65 -32 -74 -127z" />
<glyph unicode="'" horiz-adv-x="569" d="M166 856l63 600q3 31 33 31h201q32 0 29 -31l-64 -600q-3 -31 -35 -31h-200q-30 0 -27 31z" />
<glyph unicode="(" horiz-adv-x="745" d="M80 242l106 1003q19 173 120.5 279t254.5 106h115q29 0 26 -31l-20 -184q-3 -31 -33 -31h-33q-102 0 -141 -47.5t-51 -173.5l-90 -839q-12 -127 17 -174.5t130 -47.5h33q32 0 29 -30l-21 -185q-3 -30 -35 -30h-114q-153 0 -232.5 106t-60.5 279z" />
<glyph unicode=")" horiz-adv-x="745" d="M43 -113l20 185q3 30 33 30h33q102 0 141.5 48t51.5 174l90 839q12 127 -17 174t-131 47h-33q-31 0 -28 31l20 184q3 31 35 31h115q153 0 232.5 -106t60.5 -279l-107 -1003q-19 -173 -120.5 -279t-254.5 -106h-114q-30 0 -27 30z" />
<glyph unicode="*" horiz-adv-x="800" d="M168 1120q-13 29 16 43l99 47l-90 45q-23 14 -7 43l84 115q17 26 45 10l52 -55l10 88q3 31 33 31h137q31 0 28 -31l-10 -88l64 55q29 16 41 -10l59 -115q16 -28 -14 -43l-99 -45l91 -47q23 -14 4 -43l-84 -114q-16 -28 -43 -11l-52 56l-10 -88q-3 -31 -33 -31h-137 q-31 0 -28 31l10 88l-64 -56q-29 -14 -43 11z" />
<glyph unicode="+" horiz-adv-x="1052" d="M104 569l21 185q3 30 33 30h252l28 271q3 30 35 30h184q30 0 27 -30l-29 -271h250q30 0 27 -30l-21 -185q-3 -30 -34 -30h-246l-29 -273q-6 -30 -35 -30h-184q-33 0 -27 30l29 273h-254q-30 0 -27 30z" />
<glyph unicode="," horiz-adv-x="516" d="M27 31l24 227q3 31 35 31h244q29 0 26 -31l-28 -266q-20 -203 -154 -340q-12 -12 -19.5 -12.5t-21.5 12.5l-67 65q-24 24 -3 43q51 45 69.5 94t27.5 126l18 20h-123q-31 0 -28 31z" />
<glyph unicode="-" horiz-adv-x="888" d="M111 426l18 184q3 31 35 31h541q29 0 26 -31l-18 -184q-3 -31 -35 -31h-541q-29 0 -26 31z" />
<glyph unicode="." horiz-adv-x="444" d="M6 31l25 217q3 31 32 31h220q31 0 28 -31l-24 -217q-3 -31 -33 -31h-219q-32 0 -29 31z" />
<glyph unicode="/" horiz-adv-x="929" d="M-33.5 8q-5.5 8 2.5 23l774 1425q15 31 43 31h197q33 0 18 -31l-774 -1425q-19 -31 -43 -31h-196q-16 0 -21.5 8z" />
<glyph unicode="0" d="M86 463l57 557q22 202 163.5 345.5t318.5 143.5h106q116 0 208.5 -65.5t138.5 -178t32 -245.5l-57 -557q-22 -202 -164.5 -346t-319.5 -144h-106q-116 0 -208 65.5t-137.5 178.5t-31.5 246zM328 436q-10 -98 36 -167.5t136 -69.5h82q91 0 151 69.5t70 167.5l65 611 q10 98 -35.5 167.5t-136.5 69.5h-82q-90 0 -151 -70t-70 -167z" />
<glyph unicode="1" horiz-adv-x="925" d="M199 1192q-17 18 6 41l272 244l6 4q6 6 21 6h178q32 0 29 -31l-152 -1425q-3 -31 -33 -31h-178q-32 0 -29 31l117 1099l-78 -69q-8 -9 -21 -9.5t-24 9.5z" />
<glyph unicode="2" horiz-adv-x="1159" d="M29 31q8 71 14.5 118t17 106t23 98.5t30.5 85.5t42 78.5t55.5 65t72.5 57t91 44.5l287 113q42 17 70.5 32.5t48.5 35.5t31 37.5t18.5 47t11 53.5t7.5 69q0 3 0.5 5.5t0.5 5.5q9 85 -34.5 140t-131.5 55h-86q-84 0 -142 -57t-67 -144l-4 -35q-3 -30 -33 -30h-184 q-32 0 -29 30l4 35q10 98 56.5 179.5t114 134t147.5 81.5t162 31h86q84 0 158.5 -29.5t128.5 -82.5t81.5 -133t16.5 -175q-16 -152 -52.5 -240.5t-105.5 -145.5t-197 -105l-241 -92q-45 -17 -78 -41t-52.5 -47.5t-32 -57.5t-17.5 -61t-9 -68h647q32 0 29 -30l-18 -164 q-3 -31 -33 -31h-877q-31 0 -28 31z" />
<glyph unicode="3" horiz-adv-x="1148" d="M57 391l4 39q3 31 33 31h185q31 0 28 -31l-4 -39q-6 -66 44.5 -125t133.5 -59h74q90 0 151.5 59t67.5 133q12 117 -26.5 175.5t-143.5 64.5h-147q-32 0 -29 31l18 176q3 31 35 31h148q53 3 89 19t57 46.5t31.5 67.5t16.5 92q10 80 -28.5 132t-124.5 52h-76 q-82 0 -142.5 -64t-68.5 -139l-4 -39q-3 -30 -33 -30h-184q-32 0 -29 30l4 39q14 123 86.5 223t174 152.5t206.5 52.5h88q110 0 201.5 -52.5t140 -144t37.5 -198.5q-17 -153 -82.5 -238t-181.5 -118q113 -35 171 -128.5t40 -252.5q-12 -117 -86 -209t-179.5 -140t-220.5 -48 h-86q-80 0 -154 29t-130.5 80.5t-85.5 130t-19 169.5z" />
<glyph unicode="4" horiz-adv-x="1128" d="M29 569q-7 30 10 52l645 866q16 22 43 22h217q20 0 25 -11t-8 -30l-570 -759h262l25 223q3 31 33 31h184q32 0 29 -31l-25 -223h102q32 0 29 -31l-18 -164q-3 -31 -33 -31h-102l-50 -452q-3 -31 -32 -31h-185q-31 0 -28 31l49 452h-559q-26 0 -31 21z" />
<glyph unicode="5" horiz-adv-x="1163" d="M66 393l4 33q3 31 32 31h187q31 0 28 -31l-4 -33q-20 -186 158 -186h86q95 0 154.5 53.5t74.5 157.5q46 289 -178 289h-37q-48 0 -85 -7t-66.5 -23.5t-39.5 -24t-34 -27.5h-205q-31 0 -28 30l4 39l102 762q3 31 33 31h797q31 0 28 -31l-18 -164q-3 -30 -33 -30h-588 l-57 -373q81 43 221 43h39q97 0 175.5 -31t134.5 -92t79.5 -160.5t5.5 -226.5q-15 -108 -63.5 -193.5t-118 -138.5t-151 -80.5t-168.5 -27.5h-86q-116 0 -207.5 49.5t-140 144.5t-35.5 217z" />
<glyph unicode="6" horiz-adv-x="1163" d="M80 420q3 308 80 676q38 181 163 298t306 117h84q88 0 163 -31.5t126.5 -87t77 -135t16.5 -170.5l-4 -24q-3 -31 -33 -31h-182q-32 0 -29 31l4 24q9 90 -40 144.5t-122 54.5h-80q-67 0 -124.5 -51t-79.5 -131q-22 -91 -33 -195q37 18 109 32.5t132 14.5h33 q221 0 320 -141t65 -387q-21 -146 -96.5 -249t-178 -150t-220.5 -47h-84q-177 0 -276.5 114.5t-96.5 323.5zM324 422q-1 -56 15 -100.5t41 -68t49.5 -35t45.5 -11.5h84q34 0 68.5 12t67.5 36t57.5 68t33.5 101q12 93 7.5 161.5t-45.5 107t-121 38.5h-49q-80 0 -127.5 -14 t-75.5 -53t-38 -93t-13 -149z" />
<glyph unicode="7" horiz-adv-x="1165" d="M92 43q113 327 295 623t453 596h-662q-31 0 -28 30l18 164q3 31 33 31h919q32 0 29 -31l-14 -131q-2 -27 -15 -47q-297 -334 -487.5 -627.5t-300.5 -615.5q-5 -14 -18.5 -24.5t-28.5 -10.5h-168q-17 0 -23.5 14t-1.5 29z" />
<glyph unicode="8" horiz-adv-x="1173" d="M45 354l10 90q10 105 73.5 193.5t156.5 126.5q-74 34 -103.5 120t-17.5 206l6 55q15 152 129.5 259t278.5 107h178q164 0 256.5 -107t77.5 -259l-7 -55q-12 -119 -60.5 -205.5t-129.5 -120.5q84 -38 129 -126.5t35 -193.5l-10 -90q-15 -149 -147.5 -260.5t-299.5 -111.5 h-186q-167 0 -275.5 111.5t-93.5 260.5zM295 383q-8 -66 38 -121t116 -55h161q71 0 130 55t65 121l8 86q8 69 -37.5 127.5t-113.5 58.5h-170q-67 0 -124 -58t-65 -128zM406 1049q-8 -68 28 -118t105 -50h125q69 0 115.5 50t54.5 118l8 77q6 63 -31.5 111.5t-103.5 48.5h-125 q-66 0 -114 -48.5t-54 -111.5z" />
<glyph unicode="9" horiz-adv-x="1165" d="M147 406l5 24q3 31 32 31h183q31 0 28 -31l-4 -24q-9 -90 40 -144.5t122 -54.5h80q68 0 125.5 51.5t79.5 130.5q20 83 32 195q-37 -18 -109 -32.5t-132 -14.5h-33q-221 0 -320 141t-65 387q16 110 63 197t115.5 140.5t149 81t168.5 27.5h84q177 0 276 -114.5t96 -323.5 q-3 -308 -80 -676q-38 -181 -163 -298t-306 -117h-84q-88 0 -163 31.5t-126.5 87t-77 135t-16.5 170.5zM449.5 907.5q4.5 -68.5 45.5 -107t121 -38.5h50q80 0 127.5 14t75.5 53t38 93t13 149q1 56 -15 100.5t-41.5 68t-50 35t-45.5 11.5h-84q-34 0 -68.5 -12t-67.5 -36 t-57.5 -68t-33.5 -101q-12 -93 -7.5 -161.5z" />
<glyph unicode=":" horiz-adv-x="618" d="M78 31l26 248q3 30 35 30h250q30 0 27 -30l-27 -248q-3 -31 -33 -31h-250q-31 0 -28 31zM147 684l27 248q3 31 33 31h250q31 0 28 -31l-26 -248q-3 -31 -35 -31h-250q-30 0 -27 31z" />
<glyph unicode=";" horiz-adv-x="618" d="M78 31l26 248q3 30 35 30h250q30 0 27 -30l-31 -287q-9 -90 -49.5 -189t-116.5 -178q-12 -12 -19.5 -12.5t-21.5 12.5l-76 78q-26 23 -4 43q35 31 55 74.5t25 72t12 87.5l19 20h-103q-31 0 -28 31zM147 684l27 248q3 31 33 31h250q31 0 28 -31l-26 -248q-3 -31 -35 -31 h-250q-30 0 -27 31z" />
<glyph unicode="&#x3c;" horiz-adv-x="983" d="M96 483q7 78 43 95l707 346q15 7 24 1.5t7 -18.5l-19 -192q-8 -41 -27 -49l-385 -183l347 -182q20 -9 16 -49l-21 -193q-2 -13 -11 -18t-23 2l-633 346q-35 18 -25 94z" />
<glyph unicode="=" horiz-adv-x="929" d="M84 373l16 164q3 30 35 30h623q29 0 26 -30l-16 -164q-3 -31 -35 -31h-622q-30 0 -27 31zM117 692l18 164q3 31 33 31h623q31 0 28 -31l-18 -164q-3 -30 -33 -30h-623q-31 0 -28 30z" />
<glyph unicode="&#x3e;" horiz-adv-x="983" d="M51 59l21 193q4 40 24 49l387 182l-348 183q-22 10 -14 49l18 192q2 12 12.5 18t22.5 -1l633 -346q34 -16 27 -95q-10 -78 -46 -94l-706 -346q-13 -7 -23 -1.5t-8 17.5z" />
<glyph unicode="?" horiz-adv-x="1019" d="M102 1042l4 39q14 131 81.5 231.5t164 150.5t205.5 50h86q83 0 154.5 -30t121 -84.5t73.5 -135t14 -176.5q-8 -70 -26 -122.5t-38.5 -84.5t-58.5 -59.5t-68 -42t-84 -38.5q-23 -10 -35 -15q-6 -2 -24 -10t-23.5 -10.5t-19.5 -9.5t-19.5 -11.5t-15 -12.5t-13 -15t-7.5 -17 t-5 -21l-8 -71q-3 -31 -35 -31h-184q-30 0 -27 31l13 112q4 46 17 79t32 58t59.5 50t84.5 45.5t122 52.5q65 27 88 55.5t29 87.5q8 81 -25.5 131t-118.5 50h-86q-78 0 -122.5 -55.5t-53.5 -131.5l-4 -39q-3 -30 -33 -30h-186q-32 0 -29 30zM250 31l26 248q3 30 35 30h205 q30 0 27 -30l-27 -248q-3 -31 -33 -31h-204q-32 0 -29 31z" />
<glyph unicode="@" horiz-adv-x="1404" d="M96 481l54 523q16 153 97 268.5t208.5 177t283.5 61.5h95q231 0 365.5 -137t111.5 -356l-56 -537q-10 -92 -52.5 -148.5t-121.5 -56.5h-108q-83 0 -111 76q-20 -26 -95.5 -52t-145.5 -26h-21q-111 0 -176 83.5t-53 203.5q27 281 317 281h135l2 16q6 57 -22 91t-70 34h-35 q-90 0 -163 -55q-11 -10 -24.5 -10.5t-21.5 10.5l-53 100q-14 25 2 41q60 60 128.5 89.5t168.5 29.5h47q127 0 191 -84t47 -252l-19 -162l-8 -86l-8 -67q-2 -24 3 -34.5t28 -10.5q22 0 29.5 11t9.5 34l47 446q18 160 -70 242t-260 82h-12q-166 0 -278 -82.5t-130 -241.5 l-49 -477q-18 -164 76 -246t262 -82h74q80 0 159 47q40 22 37 -16l-18 -158q0 -25 -25 -37q-93 -41 -176 -41h-114q-117 0 -212 34.5t-159.5 98.5t-94 160t-16.5 215zM561 561q-4 -35 17.5 -57.5t50.5 -22.5h20q64 0 103.5 27t42.5 70l8 59h-150q-86 0 -92 -76z" />
<glyph unicode="A" horiz-adv-x="1273" d="M16 33l594 1427q13 33 41 33h148q30 0 37 -33l292 -1427q3 -33 -28 -33h-189q-31 0 -37 33l-61 338h-412l-133 -338q-11 -33 -43 -33h-190q-33 0 -19 33zM487 586h287l-90 495z" />
<glyph unicode="B" d="M59 37l148 1413q6 37 41 37h485q175 0 279 -104q87 -87 87 -224q0 -26 -3 -55q-24 -248 -203 -340q95 -44 137 -138q31 -70 31 -164q0 -33 -4 -69q-20 -190 -140.5 -291.5t-322.5 -101.5h-502q-39 0 -33 37zM324 225h249q105 0 168.5 51t73.5 152q2 16 2 32q0 82 -46 130 q-54 57 -153 57h-249zM393 872h250q185 0 205 197q1 14 1 28q1 67 -37 111q-46 54 -128 54h-250z" />
<glyph unicode="C" horiz-adv-x="1165" d="M76 465l57 557q23 217 159 352t326 135h95q183 1 289 -133q90 -113 91 -279q0 -30 -3 -61q-3 -30 -35 -30h-185q-31 0 -28 30q3 27 3 51q0 177 -157 177h-94q-97 0 -149.5 -58.5t-65.5 -183.5l-57 -557q-4 -33 -4 -62q0 -80 29 -124q39 -60 136 -60h95q181 0 202 232 q3 30 37 30h184q30 0 27 -30q-23 -207 -158.5 -342.5t-318.5 -135.5h-94q-190 -1 -297 137q-88 113 -88 281q0 36 4 74z" />
<glyph unicode="D" horiz-adv-x="1167" d="M43 31l152 1425q3 31 32 31h490q110 0 201 -65q92 -64 140 -176q37 -86 37 -183q0 -28 -3 -57l-54 -525q-14 -128 -85.5 -239.5t-176.5 -176.5t-215 -65h-489q-32 0 -29 31zM309 225h234q222 0 250 256l53 525q3 29 3 54q0 202 -196 202h-233z" />
<glyph unicode="E" horiz-adv-x="1138" d="M72 31l151 1425q3 31 33 31h801q31 0 28 -31l-18 -164q-3 -30 -33 -30h-585l-43 -400h452q32 0 29 -31l-19 -163q-3 -31 -32 -31h-453l-45 -412h586q31 0 28 -30l-18 -164q-3 -31 -33 -31h-801q-31 0 -28 31z" />
<glyph unicode="F" horiz-adv-x="1097" d="M72 31l151 1425q3 31 33 31h801q31 0 28 -31l-20 -184q-3 -31 -33 -31h-586l-40 -389h452q30 0 27 -31l-19 -184q-6 -31 -35 -31h-452l-62 -575q-3 -31 -32 -31h-185q-31 0 -28 31z" />
<glyph unicode="G" horiz-adv-x="1179" d="M84 465l57 557q23 217 159.5 352t326.5 135h94q183 0 289 -133q91 -114 91 -279q0 -30 -3 -61q-3 -30 -35 -30h-184q-32 0 -29 30q3 28 3 53q0 80 -29 130q-39 65 -132 65h-82q-195 0 -223 -262l-57 -557q-4 -34 -4 -63q0 -203 170 -203h82q93 0 145.5 66.5t64.5 185.5 l9 84h-174q-30 0 -27 30l16 164q3 31 35 31h391q30 0 27 -31l-29 -278q-22 -207 -158 -342.5t-319 -135.5h-94q-190 0 -297 137q-88 114 -88 281q0 36 4 74z" />
<glyph unicode="H" horiz-adv-x="1210" d="M57 31l152 1425q3 31 33 31h184q32 0 29 -31l-68 -635h453l67 635q3 31 33 31h184q32 0 29 -31l-152 -1425q-3 -31 -32 -31h-185q-31 0 -28 31l59 565h-453l-59 -565q-3 -31 -33 -31h-184q-32 0 -29 31z" />
<glyph unicode="I" horiz-adv-x="507" d="M43 31l152 1425q3 31 32 31h189q31 0 28 -31l-151 -1425q-3 -31 -33 -31h-188q-32 0 -29 31z" />
<glyph unicode="J" horiz-adv-x="1150" d="M35 260q-8 24 20 41l150 92q19 12 35 -18q52 -92 108.5 -128t153.5 -36q107 0 173.5 74t80.5 202l102 969q3 31 33 31h184q32 0 29 -31l-105 -989q-12 -115 -60.5 -207.5t-120.5 -151.5t-159.5 -90.5t-181.5 -31.5q-161 0 -283 72.5t-159 201.5z" />
<glyph unicode="K" horiz-adv-x="1234" d="M47 31l152 1425q3 31 32 31h185q31 0 28 -31l-63 -592l481 594q25 29 41 29h236q15 0 17 -15.5t-13 -35.5l-514 -635l442 -752q10 -12 6.5 -30.5t-22.5 -18.5h-221q-36 0 -54 29l-358 614l-72 -76l-57 -536q-3 -31 -33 -31h-184q-32 0 -29 31z" />
<glyph unicode="L" horiz-adv-x="1110" d="M53 31l152 1425q3 31 33 31h184q32 0 29 -31l-132 -1231h607q31 0 28 -30l-18 -164q-3 -31 -33 -31h-821q-32 0 -29 31z" />
<glyph unicode="M" horiz-adv-x="1517" d="M43 31l152 1425q3 31 32 31h246q33 0 39 -31l207 -993l418 993q12 31 43 31h245q32 0 29 -31l-151 -1425q-3 -31 -33 -31h-185q-31 0 -28 31l98 932l-391 -932q-12 -31 -41 -31h-105q-30 0 -36 31l-195 932l-98 -932q-3 -31 -33 -31h-184q-32 0 -29 31z" />
<glyph unicode="N" horiz-adv-x="1284" d="M43 31l152 1425q3 31 32 31h205q26 0 35 -23l405 -989l103 981q3 31 33 31h184q32 0 29 -31l-152 -1425q-3 -31 -33 -31h-205q-25 0 -34 23l-404 1011l-104 -1003q-3 -31 -33 -31h-184q-32 0 -29 31z" />
<glyph unicode="O" d="M86 463l57 557q22 202 163.5 345.5t318.5 143.5h106q116 0 208.5 -65.5t138.5 -177.5q35 -86 35 -185q0 -30 -3 -61l-57 -557q-22 -202 -164.5 -346t-319.5 -144h-106q-116 0 -208 65q-91 66 -137 179q-35 86 -35 185q0 30 3 61zM328 436q-2 -18 -1 -34q0 -76 37 -134 q46 -70 136 -69h82q91 0 151 69.5t70 167.5l65 611q2 18 2 34q0 75 -38 133q-46 70 -136 70h-82q-90 0 -151 -70t-70 -167z" />
<glyph unicode="P" horiz-adv-x="1114" d="M53 31l152 1425q3 31 33 31h487q183 0 279 -116q79 -94 79 -242q0 -34 -4 -70q-20 -197 -140.5 -314.5t-303.5 -117.5h-273l-63 -596q-3 -31 -33 -31h-184q-32 0 -29 31zM387 852h238q188 0 209 207q2 22 2 42q0 78 -34 115q-44 46 -134 46h-238z" />
<glyph unicode="Q" horiz-adv-x="1200" d="M8 463l58 557q22 202 163 345.5t318 143.5h106q116 0 208.5 -65.5t138.5 -177.5q35 -87 35 -185q0 -30 -3 -61l-57 -557q-12 -107 -64 -207l93 -102q19 -22 -7 -45l-141 -129q-25 -22 -43 0l-70 79q-119 -86 -251 -86h-107q-116 0 -208 65.5t-137 178.5q-35 86 -35 185 q0 30 3 61zM250 436q-2 -18 -2 -34q0 -76 38 -134q46 -69 136 -69h82q50 0 92 22l-43 49q-22 22 4 45l143 129q14 14 27 11l64 592q2 17 2 34q0 76 -38 133q-46 70 -137 70h-81q-90 0 -151.5 -70t-70.5 -167z" />
<glyph unicode="R" horiz-adv-x="1171" d="M57 31l152 1425q3 31 33 31h487q183 0 279 -116q79 -94 79 -242q0 -34 -4 -70q-23 -222 -194 -326q135 -75 135 -278q0 -37 -4 -78l-37 -346q-2 -14 -11 -22.5t-22 -8.5h-184q-14 0 -22 9t-7 22l31 278q3 30 4.5 49.5t1.5 56t-3.5 61.5t-14 56t-27 50t-44 32t-64.5 13 h-254l-64 -596q-3 -31 -33 -31h-184q-32 0 -29 31zM391 852h236q91 0 145.5 47t65.5 160q2 23 2 42q0 80 -35 116q-44 45 -135 45h-236z" />
<glyph unicode="S" horiz-adv-x="1179" d="M76 385l6 59q3 31 33 31h186q32 0 29 -31l-4 -59q0 -7 -1 -13q0 -68 47 -119q51 -56 136 -56h53q91 0 153 57t70 139q3 24 3 47q1 16 -1 34q-4 40 -18.5 71t-48 54t-84.5 32l-117 20q-182 33 -280 155q-81 102 -81 242q0 28 3 58q19 178 148 290.5t308 112.5h95 q80 0 152.5 -32.5t125 -88.5t79.5 -137q20 -59 19 -124q0 -24 -2 -48l-4 -39q-3 -30 -32 -30h-187q-31 0 -28 30l4 39q1 13 1 26q1 65 -39 117q-48 62 -130 62h-66q-85 0 -139.5 -58t-61.5 -130q-3 -18 -3 -38q0 -16 2 -30q4 -36 16 -65t46.5 -52.5t88.5 -33.5l117 -21 q172 -31 276 -155q87 -104 87 -251q0 -28 -3 -59q-13 -120 -83.5 -217.5t-174 -150t-217.5 -52.5h-84q-85 0 -162 31t-132 85t-83 132q-21 57 -21 120q0 23 3 46z" />
<glyph unicode="T" horiz-adv-x="1126" d="M125 1292l18 164q3 31 33 31h899q32 0 29 -31l-19 -164q-3 -30 -32 -30h-326l-131 -1231q-3 -31 -33 -31h-184q-32 0 -29 31l131 1231h-327q-32 0 -29 30z" />
<glyph unicode="U" horiz-adv-x="1171" d="M86 446l107 1010q3 31 32 31h185q31 0 28 -31l-102 -969q-2 -36 -2 -74t12 -74.5t31.5 -64.5t55 -45.5t83.5 -17.5h37q48 0 87.5 17.5t65 45t44 65t28 74t13.5 74.5l102 969q3 31 33 31h184q32 0 29 -31l-107 -1010q-22 -199 -160.5 -329.5t-334.5 -130.5h-54 q-195 0 -307 131q-93 109 -94 266q0 30 4 63z" />
<glyph unicode="V" horiz-adv-x="1222" d="M168 1454q-3 33 29 33h192q30 0 33 -33l151 -1061l375 1061q14 33 41 33h193q34 0 20 -33l-549 -1421q-17 -33 -43 -33h-153q-14 0 -24 9t-11 24z" />
<glyph unicode="W" horiz-adv-x="1900" d="M170 1456q-3 31 27 31h198q32 0 35 -31l80 -979l397 979q12 31 41 31h160q31 0 37 -31l190 -979l287 979q9 31 37 31h199q33 0 24 -31l-459 -1425q-8 -31 -41 -31h-143q-29 0 -37 31l-223 993l-432 -993q-13 -31 -41 -31h-144q-33 0 -36 31z" />
<glyph unicode="X" horiz-adv-x="1134" d="M17.5 8q-5.5 8 2.5 23l418 712l-266 713q-6 15 0.5 23t22.5 8h196q27 0 39 -31l166 -444l260 444q19 31 43 31h197q16 0 21 -8t-3 -23l-418 -713l267 -712q6 -15 -0.5 -23t-22.5 -8h-197q-26 0 -38 31l-166 444l-260 -444q-19 -31 -43 -31h-197q-16 0 -21.5 8z" />
<glyph unicode="Y" horiz-adv-x="1230" d="M147 1456q-6 15 0.5 23t22.5 8h203q27 0 39 -31l204 -547l324 547q19 31 43 31h203q16 0 21 -8t-3 -23l-493 -803l-66 -622q-3 -31 -33 -31h-184q-32 0 -29 31l66 622z" />
<glyph unicode="Z" horiz-adv-x="1107" d="M27 31l10 86q0 5 3.5 20t6.5 19l713 1106h-572q-31 0 -28 30l18 164q3 31 33 31h842q31 0 28 -31l-10 -86q0 -5 -3.5 -20t-6.5 -19l-713 -1106h572q31 0 28 -30l-18 -164q-3 -31 -33 -31h-842q-31 0 -28 31z" />
<glyph unicode="[" horiz-adv-x="718" d="M43 -113l180 1712q3 31 35 31h391q30 0 27 -31l-21 -184q-3 -31 -32 -31h-177l-135 -1282h176q32 0 29 -30l-20 -185q-3 -30 -35 -30h-391q-30 0 -27 30z" />
<glyph unicode="\" horiz-adv-x="927" d="M78 1456q-9 31 22 31h197q30 0 39 -31l471 -1425q6 -15 -0.5 -23t-22.5 -8h-196q-27 0 -39 31z" />
<glyph unicode="]" horiz-adv-x="718" d="M43 -113l20 185q3 30 33 30h176l136 1282h-177q-31 0 -28 31l20 184q3 31 35 31h391q30 0 27 -31l-180 -1712q-3 -30 -35 -30h-391q-30 0 -27 30z" />
<glyph unicode="^" horiz-adv-x="925" d="M126 940q-5 8 3 23l311 493q8 12 12 17t12 9.5t19 4.5h115q16 0 24 -7.5t15 -23.5l205 -493q6 -15 -0.5 -23t-22.5 -8h-196q-28 0 -39 31l-78 198l-119 -198q-16 -31 -43 -31h-197q-16 0 -21 8z" />
<glyph unicode="_" horiz-adv-x="1228" d="M27 31l20 184q3 31 33 31h930q31 0 28 -31l-20 -184q-3 -31 -33 -31h-930q-31 0 -28 31z" />
<glyph unicode="`" horiz-adv-x="624" d="M199 1602q-14 36 24 36h193q30 0 39 -36l114 -379q4 -17 -2.5 -27t-21.5 -10h-168q-26 0 -39 37z" />
<glyph unicode="a" horiz-adv-x="972" d="M43 299q10 95 60 166t124 106t160 35h229l2 21q1 7 1 13q1 40 -27 72q-32 36 -84 36h-62q-14 0 -27.5 -1.5t-26.5 -5t-23 -6t-22 -8.5t-18.5 -9.5t-18 -11t-15 -10t-15 -11t-12.5 -9.5q-12 -8 -27 -6t-22 14l-72 111q-18 25 0 43q142 131 334 131h82q83 0 154 -45 q71 -44 111 -128q31 -65 31 -142q0 -21 -3 -44l-59 -561q0 -23 2 -31q0 -18 -8 -18h-201q-17 0 -26 13.5t-7 35.5l2 17q-96 -68 -180 -68h-70q-118 0 -198 89q-70 77 -70 180q0 16 2 32zM283 303q-3 -34 16.5 -59t56.5 -25h90q78 0 136 55l10 111h-217q-37 0 -62 -24 t-30 -58z" />
<glyph unicode="b" horiz-adv-x="989" d="M53 31l152 1425q3 31 33 31h178q31 0 28 -31l-57 -532q64 39 131 39h62q97 0 173.5 -52.5t114.5 -137.5q30 -67 29 -141q0 -20 -2 -40l-25 -242q-15 -140 -135 -245t-256 -105h-61q-69 0 -125 37v-6q-3 -31 -33 -31h-178q-32 0 -29 31zM324 311q1 -45 30.5 -67.5 t73.5 -22.5h76q114 0 123 103l32 294q1 9 1 17q0 45 -23 73q-27 34 -78 33h-76q-42 0 -77 -27.5t-48 -76.5z" />
<glyph unicode="c" horiz-adv-x="960" d="M55 365l25 233q15 150 133 260.5t270 110.5h78q129 0 221 -91q85 -84 85 -184q0 -9 -1 -18q-7 -37 -32 -37h-177q-29 0 -32 29q-5 34 -28.5 57t-66.5 23h-69q-50 0 -93 -44.5t-49 -103.5l-26 -238q-1 -9 -1 -17q0 -48 30 -84q34 -42 84 -42h81q15 0 30.5 5t25.5 10 t25.5 18.5t21.5 19t23 24t20 21.5q13 15 29 15t28 -13l107 -102q21 -21 2 -43q-40 -42 -66.5 -66.5t-69 -53.5t-93 -42.5t-111.5 -13.5h-78q-153 0 -248 109q-81 92 -81 214q0 21 3 44z" />
<glyph unicode="d" horiz-adv-x="1015" d="M63 350l25 242q15 147 130.5 259t262.5 112h62q68 0 123 -39l57 532q3 31 33 31h178q32 0 29 -31l-152 -1425q-3 -31 -33 -31h-178q-32 0 -29 31l2 6q-63 -37 -131 -37h-61q-66 0 -127.5 28.5t-105.5 75.5q-44 46 -68 112q-18 50 -19 103q0 15 2 31zM299 324 q-1 -8 -1 -15q0 -88 103 -88h76q44 0 78 22t47 64l33 328q-1 49 -30.5 77.5t-72.5 28.5h-75q-51 0 -86 -34t-39 -89z" />
<glyph unicode="e" horiz-adv-x="966" d="M55 365l25 233q15 150 133 260.5t270 110.5h78q85 0 160 -47t117 -133q34 -68 35 -147q0 -20 -3 -42l-14 -133q-6 -61 -68 -61h-483l-8 -68q-1 -9 -1 -17q0 -41 26 -69q32 -32 84 -33h75q79 0 156 84q14 14 31.5 15t31.5 -11l95 -90q21 -21 2 -43q-79 -85 -154.5 -130.5 t-187.5 -45.5h-74q-153 0 -248 109q-81 92 -81 214q0 21 3 44zM326 602h299l2 31q1 7 1 13q0 37 -24 67q-28 35 -72 35h-77q-46 0 -84 -36t-43 -81z" />
<glyph unicode="f" horiz-adv-x="761" d="M84 772l18 160q3 31 33 31h119l16 159q19 171 119 268t254 97h135q32 0 29 -31l-19 -160q-3 -30 -32 -30h-135q-44 0 -72.5 -29.5t-34.5 -89.5l-20 -184h208q32 0 29 -31l-18 -160q-3 -31 -33 -31h-209l-76 -710q-3 -31 -33 -31h-178q-31 0 -28 31l73 710h-116 q-32 0 -29 31z" />
<glyph unicode="g" horiz-adv-x="1005" d="M31 -229q-2 5 -2 11q0 20 32 40l105 65q18 12 33 12q19 0 32 -18q23 -32 63.5 -50.5t86.5 -18.5h51q48 0 83.5 29t39.5 73l12 113q-60 -29 -114 -29h-58q-155 0 -252 109q-83 93 -83 214q0 22 3 44l25 233q15 150 132.5 260.5t271.5 110.5h49q83 0 141 -66l4 29 q1 14 10.5 22.5t20.5 8.5h157q32 0 29 -31l-110 -1036q-12 -122 -125.5 -214t-251.5 -92h-58q-243 0 -327 181zM303 365q-1 -9 -1 -17q0 -47 28 -84q32 -45 78 -45h67q41 0 79.5 20.5t41.5 49.5l39 379v5q0 28 -29 51q-33 24 -76 24h-67q-46 0 -88.5 -46.5t-46.5 -103.5z " />
<glyph unicode="h" horiz-adv-x="1040" d="M47 31l152 1425q3 31 32 31h179q31 0 28 -31l-61 -577q18 31 76 57.5t116 26.5h49q108 0 177 -50.5t93 -131.5q16 -54 17 -119q0 -32 -4 -66l-59 -565q-3 -31 -33 -31h-178q-32 0 -29 31l62 569q1 10 1 20q-1 46 -25 80q-30 40 -85 41h-63q-55 0 -96.5 -40t-47.5 -99 l-61 -571q-3 -31 -33 -31h-178q-32 0 -29 31z" />
<glyph unicode="i" horiz-adv-x="499" d="M53 31l97 903q3 31 32 31h178q32 0 29 -31l-96 -903q-3 -31 -33 -31h-178q-32 0 -29 31zM182 1229l25 227q3 31 33 31h178q31 0 28 -31l-24 -227q-3 -31 -35 -31h-178q-30 0 -27 31z" />
<glyph unicode="j" horiz-adv-x="589" d="M-51 -317q-10 29 22 38q58 21 106 68.5t54 104.5l111 1040q3 31 32 31h179q31 0 28 -31l-110 -1057q-15 -134 -107 -239t-225 -140q-27 -9 -37 21zM272 1229l25 227q3 31 33 31h178q32 0 29 -31l-25 -227q-3 -31 -35 -31h-178q-30 0 -27 31z" />
<glyph unicode="k" horiz-adv-x="1030" d="M74 31l151 1425q3 31 33 31h178q32 0 29 -31l-84 -788l254 270q25 25 47 25h213q10 0 16.5 -9.5t3.5 -25.5t-18 -31l-365 -365l375 -479q11 -17 4.5 -35t-26.5 -18h-207q-29 0 -53 31l-275 348v-8l-37 -340q-3 -31 -32 -31h-179q-31 0 -28 31z" />
<glyph unicode="l" horiz-adv-x="497" d="M53 31l152 1425q3 31 33 31h178q31 0 28 -31l-151 -1425q-3 -31 -33 -31h-178q-32 0 -29 31z" />
<glyph unicode="m" horiz-adv-x="1605" d="M57 31l97 901q3 31 32 31h179q31 0 28 -31l-6 -53q18 31 76.5 57.5t116.5 26.5h49q152 0 229 -103q42 46 117 74.5t160 28.5h49q160 0 230 -103q56 -82 56 -201q0 -30 -4 -63l-59 -565q-3 -31 -33 -31h-178q-32 0 -29 31l62 569q1 10 1 20q0 46 -24 80q-30 40 -86 41h-63 q-55 0 -96.5 -40t-47.5 -99l-61 -571q-3 -31 -33 -31h-178q-32 0 -29 31l56 516l6 53q1 10 1 20q-1 46 -25 80q-30 40 -85 41h-63q-55 0 -96.5 -40t-47.5 -99l-61 -571q-3 -31 -33 -31h-178q-32 0 -29 31z" />
<glyph unicode="n" horiz-adv-x="1024" d="M53 31l97 901q3 31 32 31h178q32 0 29 -31l-6 -53q18 31 76 57.5t116 26.5h50q159 0 229 -103q56 -82 57 -201q0 -30 -4 -63l-59 -565q-3 -31 -33 -31h-178q-32 0 -29 31l62 569q1 10 1 20q-1 46 -25 80q-30 40 -85 41h-63q-55 0 -96.5 -40t-47.5 -99l-61 -571 q-3 -31 -33 -31h-178q-32 0 -29 31z" />
<glyph unicode="o" horiz-adv-x="995" d="M55 365l25 233q15 152 133.5 261.5t271.5 109.5h88q151 1 247 -109q83 -95 83 -222q0 -20 -2 -40l-24 -233q-17 -152 -135 -259.5t-271 -107.5h-88q-153 0 -249 108q-82 92 -82 215q0 21 3 44zM295 365q-2 -13 -2 -24q-1 -46 25 -80q32 -42 88 -42h88q56 0 95.5 41.5 t47.5 104.5l25 233q1 10 1 20q-1 50 -27 86q-32 44 -87 44h-88q-56 0 -96 -43.5t-46 -106.5z" />
<glyph unicode="p" horiz-adv-x="1032" d="M53 -379l140 1311q3 31 32 31h178q32 0 29 -31v-8q61 39 129 39h62q97 0 173.5 -52.5t113.5 -137.5q30 -67 30 -141q0 -20 -2 -40l-25 -242q-15 -140 -135 -245t-256 -105h-61q-70 0 -123 37l-45 -416q-3 -31 -33 -31h-178q-32 0 -29 31zM367 309q3 -44 31.5 -66 t72.5 -22h76q114 0 123 103l32 294q1 9 1 17q0 44 -23 73q-27 33 -78 33h-76q-42 0 -77 -27t-48 -75z" />
<glyph unicode="q" horiz-adv-x="1017" d="M61 350l25 242q15 147 130.5 259t262.5 112h62q68 0 123 -39l2 8q3 31 32 31h179q31 0 28 -31l-139 -1311q-3 -31 -33 -31h-178q-32 0 -29 31l45 416q-63 -37 -131 -37h-61q-66 0 -127.5 28.5t-106 75t-67.5 112.5q-19 50 -19 103q0 15 2 31zM297 324q-1 -8 -1 -15 q0 -88 103 -88h76q44 0 78 22t47 64l33 328q-1 49 -30.5 77.5t-72.5 28.5h-75q-51 0 -86 -34t-39 -89z" />
<glyph unicode="r" horiz-adv-x="856" d="M53 31l97 901q3 31 32 31h178q32 0 29 -31l-6 -55q20 30 73.5 58t110.5 28h60q115 0 188 -70q22 -19 -6 -43l-123 -117q-17 -17 -45 -4q-30 12 -106 12h-41q-56 0 -95 -35t-45 -92l-61 -583q-3 -31 -33 -31h-178q-32 0 -29 31z" />
<glyph unicode="s" horiz-adv-x="956" d="M61 280q10 9 25 9h160q35 0 51 -27q27 -51 106 -51h66q45 0 81.5 20t39.5 45q2 15 -1 26.5t-14.5 26.5t-43 25.5t-80.5 14.5q-200 17 -283 91q-70 63 -70 180q0 21 2 44q15 137 122.5 212t266.5 75h58q139 -1 233 -85q84 -75 83 -182q0 -14 -1 -28q-3 -17 -10 -25t-23 -8 h-157q-41 0 -49 33q-10 28 -43 51t-74 23h-62q-37 0 -69 -19t-35 -43q-5 -13 -2 -28t11 -28t39.5 -24.5t84.5 -17.5q201 -24 287 -94q71 -59 72 -175q0 -23 -3 -49q-9 -82 -66.5 -147t-146.5 -100t-190 -35h-47q-133 0 -231 77q-97 76 -97 189q0 15 10 24z" />
<glyph unicode="t" horiz-adv-x="677" d="M63 772l19 158q3 33 33 33h100l23 213q3 30 34 30h179q29 0 26 -30l-22 -213h131q33 0 30 -31l-18 -160q-3 -31 -33 -31h-133l-39 -366q-2 -20 -2 -38q0 -49 16 -79q22 -42 93 -43q16 0 26 -9t9 -24l-15 -149q-6 -37 -35 -37h-22q-155 0 -243 67q-78 60 -78 183 q0 24 3 49l48 446h-101q-32 0 -29 31z" />
<glyph unicode="u" horiz-adv-x="983" d="M55 367l60 565q3 31 32 31h179q31 0 28 -31l-61 -570q-1 -10 -1 -20q0 -46 24 -80q29 -40 85 -41h64q55 0 96 40t47 99l62 572q3 31 32 31h179q31 0 28 -31l-96 -901q-3 -31 -33 -31h-178q-32 0 -29 31l7 53q-18 -31 -76.5 -57.5t-116.5 -26.5h-49q-108 0 -177 50.5 t-93 131.5q-16 54 -17 119q0 32 4 66z" />
<glyph unicode="v" horiz-adv-x="901" d="M53 928q-3 17 5 26t24 9h186q30 0 33 -35l88 -568l209 568q15 35 41 35h186q16 0 22 -9t-1 -26l-377 -895q-17 -33 -43 -33h-145q-14 0 -24 9t-11 24z" />
<glyph unicode="w" horiz-adv-x="1429" d="M102 928q-3 35 29 35h188q30 0 33 -35l76 -563l195 563q15 35 41 35h147q30 0 33 -35l80 -563l190 563q15 35 41 35h188q16 0 22 -9t-1 -26l-338 -895q-16 -33 -43 -33h-149q-14 0 -24 9t-11 24l-103 532l-213 -532q-17 -33 -43 -33h-149q-14 0 -24 9t-11 24z" />
<glyph unicode="x" horiz-adv-x="980" d="M10 11q-5 11 6 26l312 442l-222 447q-8 15 -0.5 26t25.5 11h201q29 0 43 -35l110 -240l160 240q24 35 51 35h201q18 0 21.5 -11t-7.5 -26l-309 -445l217 -444q8 -15 1 -26t-27 -11h-199q-29 0 -43 35l-109 237l-157 -237q-24 -35 -52 -35h-200q-18 0 -23 11z" />
<glyph unicode="y" horiz-adv-x="1114" d="M94 926q-5 16 1 26.5t22 10.5h192q29 0 39 -35l168 -549l287 549q19 35 49 35h190q34 0 15 -37l-680 -1301q-19 -35 -49 -35h-191q-35 0 -16 37l239 457z" />
<glyph unicode="z" horiz-adv-x="913" d="M12 31l15 121q0 19 12 34l479 555h-399q-32 0 -29 31l19 158q3 33 32 33h678q34 0 31 -31l-14 -125q0 -16 -13 -33l-479 -553h397q34 0 31 -31l-18 -159q-3 -31 -33 -31h-680q-32 0 -29 31z" />
<glyph unicode="{" horiz-adv-x="921" d="M139 721q-12 24 4 45l105 113q15 15 18 36l35 330q19 173 120.5 279t254.5 106h176q30 0 27 -31l-21 -184q-3 -31 -33 -31h-94q-98 0 -141 -64t-58 -198l-22 -227q-3 -22 -18 -37l-101 -115l78 -114q10 -21 8 -37l-22 -227q-15 -134 14 -198.5t127 -64.5h94q32 0 29 -30 l-21 -185q-3 -30 -34 -30h-177q-153 0 -232 106t-60 279l34 329q3 18 -10 37z" />
<glyph unicode="|" horiz-adv-x="573" d="M45 -379l209 1987q3 30 35 30h184q30 0 27 -30l-209 -1987q-3 -31 -33 -31h-184q-32 0 -29 31z" />
<glyph unicode="}" horiz-adv-x="921" d="M43 -113l20 185q3 30 33 30h94q98 0 141 64.5t58 198.5l23 227q3 21 16 37l102 114l-75 115q-13 20 -11 37l23 227q15 134 -14 198t-127 64h-95q-31 0 -28 31l20 184q3 31 35 31h176q153 0 232.5 -106t60.5 -279l-35 -330q-2 -17 10 -36l80 -113q12 -24 -4 -45l-104 -113 q-16 -16 -19 -37l-34 -329q-19 -173 -120.5 -279t-254.5 -106h-176q-30 0 -27 30z" />
<glyph unicode="~" horiz-adv-x="1142" d="M106 750q-9 24 27 45q112 72 249 83.5t234 -51.5q51 -35 108.5 -43t111 7t106.5 49q24 14 33 -17l55 -137q11 -22 -24 -45q-113 -72 -247 -83t-237 50q-153 98 -327 -12q-7 -8 -14.5 -4t-10 7t-8.5 13z" />
<glyph unicode="&#xa1;" horiz-adv-x="573" d="M45 -379l96 909q3 31 35 31h184q30 0 27 -31l-96 -909q-3 -31 -33 -31h-184q-32 0 -29 31zM160 799l26 248q3 30 33 30h205q32 0 29 -30l-27 -248q-3 -31 -35 -31h-205q-29 0 -26 31z" />
<glyph unicode="&#xa2;" horiz-adv-x="972" d="M55 365l25 233q14 142 123 251.5t254 119.5l24 225q3 31 35 31h62q29 0 26 -31l-24 -225q122 -7 207 -97t79 -196q-7 -37 -32 -37h-177q-29 0 -32 29q-11 63 -68 77l-55 -526q19 3 39.5 15t30.5 21t33 33t28 29q13 15 29 15t28 -13l107 -102q21 -21 2 -43 q-40 -42 -64.5 -64.5t-66 -52t-88.5 -43.5t-103 -16l-22 -229q-3 -31 -35 -31h-62q-29 0 -26 31l22 229q-142 10 -229 118t-70 249zM293 362q-4 -51 21.5 -89.5t66.5 -49.5l53 520q-42 -11 -75.5 -51.5t-39.5 -91.5z" />
<glyph unicode="&#xa3;" horiz-adv-x="1253" d="M94 637l19 184q3 31 34 31h146q-22 94 -27 172q-4 105 35.5 197.5t106 155t151.5 98.5t172 36h74q171 0 283 -135.5t94 -337.5q-3 -30 -33 -30h-184q-15 0 -23.5 7.5t-7.5 22.5q13 121 -30.5 174.5t-123.5 53.5h-73q-78 0 -136 -60t-53 -182q4 -67 29 -172h252 q29 0 26 -31l-18 -184q-6 -31 -35 -31h-182q0 -17 -4 -45q-20 -111 -41.5 -165.5t-77.5 -123.5q63 24 101.5 21.5t117.5 -33.5q81 -30 150 -25t180 48q16 6 23 -4t5 -27l-20 -191q-1 -14 -7.5 -18.5t-27.5 -11.5q-112 -45 -199 -44.5t-186 44.5q-105 44 -184.5 35.5 t-198.5 -68.5q-15 -7 -48.5 43t-25.5 65q13 25 46.5 88t42.5 81t30.5 64t29 72t18.5 66t18 84q4 28 4 45h-215q-33 0 -27 31z" />
<glyph unicode="&#xa4;" horiz-adv-x="1251" d="M70 90q-18 21 4 43l110 98q-19 64 -10 134l25 233q5 64 39 133l-91 98q-18 20 5 43l145 132q25 22 43 0l76 -84q90 49 188 49h88q101 0 180 -51l95 86q25 22 43 0l116 -132q21 -21 -4 -43l-112 -100q16 -65 10 -131l-25 -233q-9 -71 -39 -132l91 -100q21 -21 -5 -43 l-145 -131q-21 -21 -43 0l-76 88q-90 -49 -188 -49h-88q-97 0 -176 47l-97 -86q-21 -21 -43 0zM414 365q-8 -62 23 -104t87 -42h88q56 0 96 41.5t48 104.5l24 233q6 63 -25 106.5t-87 43.5h-88q-56 0 -96 -43.5t-46 -106.5z" />
<glyph unicode="&#xa5;" horiz-adv-x="1146" d="M70 1456q-12 31 22 31h203q27 0 39 -31l205 -547l323 547q19 31 43 31h203q16 0 21 -8t-3 -23l-493 -803l-2 -26h340q29 0 26 -31l-16 -164q-3 -31 -35 -31h-340l-8 -73h342q30 0 27 -31l-17 -164q-3 -31 -35 -31h-340l-8 -71q-3 -31 -32 -31h-185q-31 0 -28 31l8 71 h-189q-29 0 -26 31l16 164q3 31 35 31h186l8 73h-188q-30 0 -27 31l17 164q3 31 35 31h188l2 26z" />
<glyph unicode="&#xa6;" horiz-adv-x="573" d="M61 -236l70 662q3 31 33 31h184q32 0 29 -31l-70 -662q-3 -30 -35 -30h-184q-30 0 -27 30zM170 803l70 661q3 31 34 31h185q29 0 26 -31l-69 -661q-3 -31 -35 -31h-184q-30 0 -27 31z" />
<glyph unicode="&#xa7;" horiz-adv-x="1241" d="M66 0l6 59q3 31 32 31h187q31 0 28 -31l-4 -59q-4 -71 42.5 -118.5t119.5 -47.5h94q79 0 137.5 48.5t65.5 125.5q10 92 -20.5 140.5t-130.5 66.5l-117 21q-178 30 -276.5 166t-79.5 315q9 100 65 194q-37 90 -25 197q18 177 146.5 290t298.5 113h106q80 0 153 -32 t126 -88t80 -137t16 -173l-4 -39q-3 -30 -33 -30h-186q-32 0 -29 30l4 39q9 80 -36 133.5t-115 53.5h-107q-72 0 -120 -50t-56 -120q-5 -33 -0.5 -62.5t17.5 -53.5t47.5 -42.5t89.5 -28.5l117 -20q170 -30 273 -168t83 -326q-5 -42 -24 -95.5t-44 -88.5q39 -92 27 -207 q-12 -119 -82.5 -216t-174 -149.5t-216.5 -52.5h-94q-82 0 -156.5 31t-128.5 84.5t-82.5 131.5t-19.5 165zM391.5 638.5q4.5 -36.5 16 -68t46 -56.5t87.5 -35l116 -20q87 -15 158 -53q6 41 1.5 80.5t-18.5 71t-47 55t-83 32.5l-117 21q-86 15 -156 51l-2 -10 q-6 -32 -1.5 -68.5z" />
<glyph unicode="&#xa8;" horiz-adv-x="1034" d="M172 1219l27 237q3 31 32 31h240q32 0 29 -31l-27 -237q-3 -31 -33 -31h-239q-32 0 -29 31zM659 1219l27 237q3 31 33 31h239q32 0 29 -31l-26 -237q-3 -31 -33 -31h-240q-32 0 -29 31z" />
<glyph unicode="&#xa9;" horiz-adv-x="1343" d="M96 483l54 516q14 134 84.5 251t182 188t236.5 71h197q125 0 222 -71t143 -188t32 -251l-53 -516q-14 -134 -85.5 -251t-183.5 -188t-237 -71h-196q-125 0 -221.5 71t-142.5 188t-32 251zM299 467q-12 -110 54.5 -190t183.5 -80h155q118 0 200.5 79.5t94.5 190.5l57 549 q11 111 -54 189.5t-183 78.5h-156q-117 0 -200.5 -79t-94.5 -189zM385 549l41 387q7 71 33.5 121t66.5 76t83 37.5t93 11.5h43q117 0 175.5 -56t44.5 -200q0 -12 -7.5 -25.5t-17.5 -13.5h-137q-21 0 -21 18q4 42 -15 65t-48 23h-31q-31 0 -57 -21t-29 -57l-37 -346 q-3 -35 18.5 -57.5t51.5 -22.5h31q28 0 54 25.5t30 67.5q0 18 24 18h137q17 0 17 -39q-9 -76 -33 -128t-62 -79.5t-81 -39t-99 -11.5h-43q-50 0 -90.5 11.5t-75 37.5t-50.5 76t-9 121z" />
<glyph unicode="&#xaa;" horiz-adv-x="653" d="M141 1122q8 74 64 118t145 44h129q8 80 -76 80h-36q-17 0 -30.5 -1.5t-26.5 -7.5t-17.5 -8.5t-19.5 -12.5t-17 -11q-22 -15 -31 0l-39 59q-11 14 2 27q43 39 89.5 58.5t113.5 19.5h51q81 0 126 -58.5t36 -148.5l-31 -276v-29q2 -3 0 -7.5t-6 -4.5h-100q-10 0 -18 20 q-48 -20 -103 -20h-31q-81 0 -131 42t-43 117zM272 1124q-6 -41 54 -41h34q52 0 99 21l8 59h-131q-61 0 -64 -39z" />
<glyph unicode="&#xab;" horiz-adv-x="1208" d="M84 465l12 123q3 32 37 53l410 248q15 9 27 3.5t10 -20.5l-25 -217q-1 -15 -10.5 -24.5t-30.5 -20.5l-160 -84l144 -84q33 -20 30 -45l-22 -217q-2 -15 -13.5 -20t-25.5 4l-358 248q-28 21 -25 53zM614 465l13 123q3 32 37 53l409 248q15 9 27 3.5t10 -20.5l-25 -217 q-1 -15 -10.5 -24.5t-30.5 -20.5l-159 -84l143 -84q33 -20 31 -45l-23 -217q-2 -15 -13.5 -20t-25.5 4l-358 248q-28 21 -25 53z" />
<glyph unicode="&#xac;" horiz-adv-x="1052" d="M98 508l19 184q3 31 35 31h745q30 0 27 -31l-2 -24l-17 -152v-10l-22 -217q-3 -31 -35 -31h-184q-30 0 -27 31l18 188h-530q-30 0 -27 31z" />
<glyph unicode="&#xad;" horiz-adv-x="888" d="M33 426l18 184q3 31 35 31h541q29 0 26 -31l-18 -184q-3 -31 -35 -31h-541q-29 0 -26 31z" />
<glyph unicode="&#xae;" horiz-adv-x="1343" d="M96 483l54 516q14 134 84.5 251t182 188t236.5 71h197q125 0 222 -71t143 -188t32 -251l-53 -516q-14 -134 -85.5 -251t-183.5 -188t-237 -71h-196q-125 0 -221.5 71t-142.5 188t-32 251zM299 467q-12 -110 54.5 -190t183.5 -80h155q118 0 200.5 79.5t94.5 190.5l57 549 q11 111 -54 189.5t-183 78.5h-156q-117 0 -200.5 -79t-94.5 -189zM393 346l80 776q5 31 25 49.5t51 18.5h180q110 0 167.5 -70.5t45.5 -187.5q-17 -142 -113 -219q79 -72 64 -203l-16 -164q-6 -45 -46 -45h-92q-38 0 -32 45l14 148q7 72 -9 107.5t-48 35.5h-70l-31 -291 q-6 -45 -45 -45h-92q-21 0 -28.5 10.5t-4.5 34.5zM606 807h66q83 0 94 113q10 100 -72 100h-65z" />
<glyph unicode="&#xaf;" horiz-adv-x="1011" d="M201 1292l18 164q3 31 33 31h663q14 0 22 -8t7 -23l-18 -164q-3 -30 -33 -30h-664q-31 0 -28 30z" />
<glyph unicode="&#xb0;" horiz-adv-x="923" d="M209 1165l2 23q14 133 98.5 216t214.5 83h31q128 0 197 -83.5t55 -215.5l-2 -23q-14 -132 -101 -215.5t-215 -83.5h-30q-130 0 -197 83t-53 216zM399 1171q-5 -49 18.5 -77.5t71.5 -28.5h17q46 0 74.5 29t33.5 77l2 13q5 50 -18 78t-70 28h-16q-49 0 -77.5 -28t-33.5 -78 z" />
<glyph unicode="&#xb1;" horiz-adv-x="1052" d="M47 31l21 184q3 31 32 31h748q29 0 26 -31l-20 -184q-3 -31 -33 -31h-745q-32 0 -29 31zM109 610l20 185q3 30 33 30h252l24 230q3 30 35 30h184q30 0 27 -30l-25 -230h250q30 0 27 -30l-21 -185q-2 -16 -8.5 -23t-23.5 -7h-248l-25 -232q-3 -31 -35 -31h-184 q-29 0 -26 31l24 232h-252q-31 0 -28 30z" />
<glyph unicode="&#xb2;" horiz-adv-x="655" d="M123 1290v27q0 68 51.5 119t124.5 51h51q79 0 129.5 -61t50.5 -136q0 -55 -33 -103.5t-98 -113.5l-104 -104l207 4q30 0 30 -31v-59q0 -31 -30 -31h-344q-31 0 -31 31v49q0 18 4.5 32t8.5 19.5t19.5 21t22.5 23.5l144 154q8 8 25 24t27 26t19 26t9 32q0 33 -24 56.5 t-60 23.5q-32 0 -54 -19t-22 -46v-15q0 -30 -31 -30h-61q-31 0 -31 30z" />
<glyph unicode="&#xb3;" horiz-adv-x="653" d="M102 1024v27q0 30 31 30h62q30 0 30 -30v-15q0 -27 22 -46t54 -19q38 0 61 19t23 52q0 32 -22 54t-56 22h-47q-31 0 -31 31v45q0 31 31 31h47q34 0 56 21.5t22 53.5q0 33 -23.5 52.5t-60.5 19.5q-32 0 -54 -19t-22 -46v-15q0 -30 -30 -30h-62q-31 0 -31 30v27 q0 68 52 119t125 51h51q80 0 130 -56t50 -130q0 -69 -70 -132q70 -63 70 -131q0 -74 -50 -130t-130 -56h-51q-73 0 -125 51t-52 119z" />
<glyph unicode="&#xb4;" horiz-adv-x="645" d="M153 1196q-5 10 5 27l192 379q14 36 47 36h213q37 0 17 -36l-217 -379q-26 -37 -48 -37h-188q-16 0 -21 10z" />
<glyph unicode="&#xb6;" horiz-adv-x="1155" d="M135 1059q22 191 135.5 306t288.5 122h6h514q32 0 29 -31l-23 -215l-38 -369l-27 -245l-64 -596q-3 -31 -32 -31h-185q-31 0 -28 31l63 596h-84l-63 -596q-3 -31 -33 -31h-184q-32 0 -29 31l63 598q-161 15 -244.5 130.5t-64.5 299.5zM381 1059q-8 -87 15.5 -128 t74.5 -52l39 356q-55 -10 -88 -49.5t-41 -126.5zM717 872h84l39 369h-84z" />
<glyph unicode="&#xb7;" horiz-adv-x="516" d="M76 500l26 248q3 30 35 30h250q30 0 27 -30l-27 -248q-3 -31 -33 -31h-250q-31 0 -28 31z" />
<glyph unicode="&#xb8;" horiz-adv-x="782" d="M39 -242q3 21 20 21h150q8 0 14 -5t6 -12q-3 -20 11.5 -27t42.5 -7h41q22 0 33 1t20 7t10 18q2 14 -16.5 19.5t-84.5 13.5q-70 9 -120 16q-14 2 -28 9.5t-25 23.5t-12 37.5t15 54t50 70.5q13 16 24 16h170q9 0 12.5 -5t-1.5 -11q-16 -18 -20 -30t3 -17.5t17.5 -8 t28.5 -4.5q7 -1 10 -1q99 -11 137 -52.5t28 -142.5q-19 -156 -215 -156h-157q-85 0 -127.5 47t-36.5 125z" />
<glyph unicode="&#xb9;" horiz-adv-x="618" d="M246 885v571q0 31 30 31h66q31 0 31 -31v-571q0 -31 -31 -31h-66q-30 0 -30 31z" />
<glyph unicode="&#xba;" horiz-adv-x="663" d="M47 219l10 88q8 87 75.5 152t154.5 65h45q85 0 138.5 -64.5t45.5 -152.5l-10 -88q-9 -90 -76.5 -154.5t-153.5 -64.5h-45q-87 0 -140 64.5t-44 154.5zM176 233q-5 -39 17 -67.5t61 -28.5h31q35 0 63 28.5t33 67.5l6 62q4 38 -18.5 65t-57.5 27h-30q-39 0 -66.5 -26.5 t-32.5 -65.5z" />
<glyph unicode="&#xbb;" horiz-adv-x="1208" d="M53 180l23 217q2 24 43 45l160 84l-144 84q-19 11 -26.5 21t-6.5 24l25 217q2 15 13.5 20.5t23.5 -3.5l360 -248q28 -21 25 -53l-12 -123q-3 -32 -37 -53l-412 -248q-14 -9 -25 -4t-10 20zM584 180l22 217q2 24 43 45l160 84l-143 84q-19 11 -26.5 21t-6.5 24l24 217 q2 15 13.5 20.5t23.5 -3.5l361 -248q27 -20 24 -53l-12 -123q-3 -32 -37 -53l-412 -248q-14 -9 -24.5 -4t-9.5 20z" />
<glyph unicode="&#xbc;" horiz-adv-x="1511" d="M211 8q-6 8 2 23l827 1425q10 17 18.5 24t22.5 7h86q16 0 22.5 -8t-1.5 -23l-828 -1425q-10 -17 -18.5 -24t-22.5 -7h-86q-16 0 -22 8zM246 885v571q0 31 30 31h66q31 0 31 -31v-571q0 -31 -31 -31h-66q-30 0 -30 31zM946 209q0 8 8 24l217 388q7 14 29 14h98 q31 0 31 -31v-362h29q31 0 31 -31v-61q0 -31 -31 -31h-29v-88q0 -31 -31 -31h-61q-31 0 -31 31v88h-223q-28 0 -31 31zM1102 246h104v205z" />
<glyph unicode="&#xbd;" horiz-adv-x="1478" d="M211 8q-6 8 2 23l827 1425q10 17 18.5 24t22.5 7h86q16 0 22.5 -8t-1.5 -23l-828 -1425q-10 -17 -18.5 -24t-22.5 -7h-86q-16 0 -22 8zM246 885v571q0 31 30 31h66q31 0 31 -31v-571q0 -31 -31 -31h-66q-30 0 -30 31zM946 438v27q0 68 51.5 119t124.5 51h52 q79 0 129.5 -61t50.5 -136q0 -55 -33 -103.5t-98 -113.5l-105 -104l207 4q31 0 31 -31v-59q0 -31 -31 -31h-344q-31 0 -31 31v49q0 18 4.5 32t9 20t19.5 20.5t23 23.5l143 154q8 8 25 24t27 26t19 26t9 32q0 33 -24 56.5t-60 23.5q-32 0 -54 -19t-22 -46v-15q0 -30 -31 -30 h-61q-31 0 -31 30z" />
<glyph unicode="&#xbe;" horiz-adv-x="1546" d="M123 1024v27q0 30 31 30h61q31 0 31 -30v-15q0 -27 22 -46t54 -19q38 0 61 19t23 52q0 32 -22 54t-56 22h-47q-31 0 -31 31v45q0 31 31 31h47q34 0 56 21.5t22 53.5q0 33 -23.5 52.5t-60.5 19.5q-32 0 -54 -19t-22 -46v-15q0 -30 -31 -30h-61q-31 0 -31 30v27 q0 68 51.5 119t124.5 51h51q80 0 130 -56t50 -130q0 -70 -69 -132q69 -62 69 -131q0 -74 -50 -130t-130 -56h-51q-73 0 -124.5 51t-51.5 119zM246 8q-6 8 2 23l827 1425q10 17 18.5 24t22.5 7h86q16 0 22.5 -8t-1.5 -23l-828 -1425q-10 -17 -18.5 -24t-22.5 -7h-86 q-16 0 -22 8zM981 209q0 8 8 24l217 388q7 14 29 14h98q31 0 31 -31v-362h29q30 0 30 -31v-61q0 -31 -30 -31h-29v-88q0 -31 -31 -31h-61q-31 0 -31 31v88h-223q-28 0 -31 31zM1137 246h104v205z" />
<glyph unicode="&#xbf;" horiz-adv-x="1040" d="M-8 -10q10 87 30.5 144.5t64 96.5t75.5 56.5t105 49.5q22 10 34 15q6 2 24 10t23.5 10.5t19.5 9.5t19.5 11.5t15 12.5t13 15t7.5 17t5 21l8 71q3 31 35 31h184q30 0 27 -31l-12 -112q-4 -46 -17 -79t-32 -58t-60 -50t-84.5 -45.5t-122.5 -52.5q-65 -27 -87.5 -55.5 t-28.5 -87.5q-8 -81 25 -130.5t118 -49.5h86q78 0 122.5 55.5t53.5 130.5l4 39q3 31 33 31h186q32 0 29 -31l-4 -39q-14 -131 -81.5 -231.5t-164 -150.5t-205.5 -50h-86q-83 0 -154 30t-120.5 84.5t-73.5 135t-14 176.5zM455 799l26 248q3 30 33 30h205q32 0 29 -30 l-27 -248q-3 -31 -35 -31h-205q-29 0 -26 31z" />
<glyph unicode="&#xc0;" horiz-adv-x="1273" d="M16 33l594 1427q13 33 41 33h148q30 0 37 -33l292 -1427q3 -33 -28 -33h-189q-31 0 -37 33l-61 338h-412l-133 -338q-11 -33 -43 -33h-190q-33 0 -19 33zM473 2126q-15 37 25 37h192q30 0 39 -37l115 -379q4 -17 -3 -27t-22 -10h-168q-26 0 -39 37zM487 586h287l-90 495z " />
<glyph unicode="&#xc1;" horiz-adv-x="1273" d="M16 33l594 1427q13 33 41 33h148q30 0 37 -33l292 -1427q3 -33 -28 -33h-189q-31 0 -37 33l-61 338h-412l-133 -338q-11 -33 -43 -33h-190q-33 0 -19 33zM487 586h287l-90 495zM636 1720q-5 10 5 27l193 379q15 37 47 37h213q37 0 16 -37l-217 -379q-14 -20 -23.5 -28.5 t-23.5 -8.5h-189q-16 0 -21 10z" />
<glyph unicode="&#xc2;" horiz-adv-x="1273" d="M16 33l594 1427q13 33 41 33h148q30 0 37 -33l292 -1427q3 -33 -28 -33h-189q-31 0 -37 33l-61 338h-412l-133 -338q-11 -33 -43 -33h-190q-33 0 -19 33zM364.5 1736q-3.5 12 6.5 27l278 367q26 33 51 33h183q29 0 45 -33l200 -367q9 -15 2 -27t-22 -12h-190 q-14 0 -23.5 8.5t-20.5 30.5l-102 197l-147 -197q-26 -39 -52 -39h-190q-15 0 -18.5 12zM487 586h287l-90 495z" />
<glyph unicode="&#xc3;" horiz-adv-x="1273" d="M16 33l594 1427q13 33 41 33h148q30 0 37 -33l292 -1427q3 -33 -28 -33h-189q-31 0 -37 33l-61 338h-412l-133 -338q-11 -33 -43 -33h-190q-33 0 -19 33zM381 1974q-9 24 27 45q234 152 407 33q52 -36 91.5 -43t71.5 5.5t89 49.5q24 15 33 -16l55 -137q11 -21 -25 -45 q-76 -49 -142.5 -69.5t-134 -12.5t-132.5 49q-54 35 -92.5 42t-70 -5t-89.5 -49q-20 -14 -33 16zM487 586h287l-90 495z" />
<glyph unicode="&#xc4;" horiz-adv-x="1273" d="M16 33l594 1427q13 33 41 33h148q30 0 37 -33l292 -1427q3 -33 -28 -33h-189q-31 0 -37 33l-61 338h-412l-133 -338q-11 -33 -43 -33h-190q-33 0 -19 33zM352 1743l27 237q3 31 33 31h239q32 0 29 -31l-27 -237q-3 -31 -32 -31h-240q-32 0 -29 31zM487 586h287l-90 495z M840 1743l26 237q3 31 33 31h240q31 0 28 -31l-26 -237q-3 -31 -33 -31h-240q-31 0 -28 31z" />
<glyph unicode="&#xc5;" horiz-adv-x="1273" d="M16 33l594 1427q13 33 41 33h148q30 0 37 -33l292 -1427q3 -33 -28 -33h-189q-31 0 -37 33l-61 338h-412l-133 -338q-11 -33 -43 -33h-190q-33 0 -19 33zM487 586h287l-90 495zM567 1952l2 22q9 82 67.5 136.5t141.5 54.5h27q83 0 130 -54.5t38 -136.5l-2 -22 q-9 -83 -67.5 -136t-141.5 -53h-27q-83 0 -130 53t-38 136zM715 1962q-3 -23 10.5 -39t36.5 -16h6q24 0 41 15.5t20 39.5v6q2 23 -11.5 38t-37.5 15h-6q-23 0 -40 -15.5t-19 -37.5v-6z" />
<glyph unicode="&#xc6;" horiz-adv-x="1847" d="M33.5 8q-5.5 8 1.5 23l786 1425q10 17 18.5 24t22.5 7h903q32 0 29 -31l-18 -164q-3 -30 -33 -30h-586l-43 -400h453q31 0 28 -31l-18 -163q-3 -31 -33 -31h-452l-45 -412h585q32 0 29 -30l-19 -164q-3 -31 -32 -31h-801q-32 0 -29 31l35 329h-340l-182 -329 q-15 -31 -41 -31h-197q-16 0 -21.5 8zM610 606h232l55 518z" />
<glyph unicode="&#xc7;" horiz-adv-x="1165" d="M76 465l57 557q23 217 159 352t326 135h95q183 0 289.5 -133.5t87.5 -339.5q-3 -30 -35 -30h-185q-31 0 -28 30q24 228 -154 228h-94q-97 0 -149.5 -58.5t-65.5 -183.5l-57 -557q-14 -126 25 -186t136 -60h95q181 0 202 232q3 30 37 30h184q30 0 27 -30 q-20 -182 -128 -310t-263 -159q-10 -28 -2.5 -33t41.5 -10q8 -1 12 -2q99 -11 137.5 -52.5t28.5 -142.5q-19 -156 -215 -156h-158q-85 0 -127.5 47t-36.5 125q3 21 21 21h149q8 0 14.5 -5t6.5 -12q-3 -20 11 -27t42 -7h41q22 0 33.5 1t20.5 7t10 18q2 14 -17 19.5t-84 13.5 q-71 9 -121 16q-17 3 -32 13.5t-26 30t-1.5 53.5t41.5 75q-176 12 -274 147t-76 343z" />
<glyph unicode="&#xc8;" horiz-adv-x="1138" d="M72 31l151 1425q3 31 33 31h801q31 0 28 -31l-18 -164q-3 -30 -33 -30h-585l-43 -400h452q32 0 29 -31l-19 -163q-3 -31 -32 -31h-453l-45 -412h586q31 0 28 -30l-18 -164q-3 -31 -33 -31h-801q-31 0 -28 31zM418 2126q-15 37 24 37h193q30 0 39 -37l114 -379 q4 -17 -2.5 -27t-21.5 -10h-168q-26 0 -39 37z" />
<glyph unicode="&#xc9;" horiz-adv-x="1138" d="M72 31l151 1425q3 31 33 31h801q31 0 28 -31l-18 -164q-3 -30 -33 -30h-585l-43 -400h452q32 0 29 -31l-19 -163q-3 -31 -32 -31h-453l-45 -412h586q31 0 28 -30l-18 -164q-3 -31 -33 -31h-801q-31 0 -28 31zM581 1720q-5 10 5 27l192 379q15 37 47 37h213q38 0 17 -37 l-217 -379q-14 -20 -23.5 -28.5t-23.5 -8.5h-189q-16 0 -21 10z" />
<glyph unicode="&#xca;" horiz-adv-x="1138" d="M72 31l151 1425q3 31 33 31h801q31 0 28 -31l-18 -164q-3 -30 -33 -30h-585l-43 -400h452q32 0 29 -31l-19 -163q-3 -31 -32 -31h-453l-45 -412h586q31 0 28 -30l-18 -164q-3 -31 -33 -31h-801q-31 0 -28 31zM309 1736q-4 12 6 27l279 367q26 33 51 33h182q29 0 45 -33 l201 -367q9 -15 2 -27t-22 -12h-191q-14 0 -23 8.5t-20 30.5l-102 197l-148 -197q-26 -39 -51 -39h-190q-15 0 -19 12z" />
<glyph unicode="&#xcb;" horiz-adv-x="1138" d="M72 31l151 1425q3 31 33 31h801q31 0 28 -31l-18 -164q-3 -30 -33 -30h-585l-43 -400h452q32 0 29 -31l-19 -163q-3 -31 -32 -31h-453l-45 -412h586q31 0 28 -30l-18 -164q-3 -31 -33 -31h-801q-31 0 -28 31zM297 1743l27 237q3 31 32 31h240q32 0 29 -31l-27 -237 q-3 -31 -33 -31h-239q-32 0 -29 31zM784 1743l27 237q3 31 33 31h239q32 0 29 -31l-27 -237q-3 -31 -32 -31h-240q-32 0 -29 31z" />
<glyph unicode="&#xcc;" horiz-adv-x="507" d="M43 31l152 1425q3 31 32 31h189q31 0 28 -31l-151 -1425q-3 -31 -33 -31h-188q-32 0 -29 31zM74 2126q-15 37 24 37h193q30 0 39 -37l114 -379q4 -17 -2.5 -27t-21.5 -10h-168q-26 0 -39 37z" />
<glyph unicode="&#xcd;" horiz-adv-x="507" d="M43 31l152 1425q3 31 32 31h189q31 0 28 -31l-151 -1425q-3 -31 -33 -31h-188q-32 0 -29 31zM237 1720q-5 10 5 27l192 379q15 37 47 37h213q38 0 17 -37l-217 -379q-26 -37 -48 -37h-188q-16 0 -21 10z" />
<glyph unicode="&#xce;" horiz-adv-x="507" d="M-35 1736q-4 12 6 27l279 367q26 33 51 33h182q29 0 45 -33l201 -367q9 -15 2 -27t-22 -12h-191q-14 0 -23 8.5t-20 30.5l-102 197l-148 -197q-26 -39 -51 -39h-190q-15 0 -19 12zM43 31l152 1425q3 31 32 31h189q31 0 28 -31l-151 -1425q-3 -31 -33 -31h-188 q-32 0 -29 31z" />
<glyph unicode="&#xcf;" horiz-adv-x="507" d="M-47 1743l27 237q3 31 32 31h240q32 0 29 -31l-27 -237q-3 -31 -33 -31h-239q-32 0 -29 31zM43 31l152 1425q3 31 32 31h189q31 0 28 -31l-151 -1425q-3 -31 -33 -31h-188q-32 0 -29 31zM440 1743l27 237q3 31 33 31h239q32 0 29 -31l-27 -237q-3 -31 -32 -31h-240 q-32 0 -29 31z" />
<glyph unicode="&#xd0;" horiz-adv-x="1323" d="M100 651l19 185q3 30 35 30h108l64 590q3 31 32 31h490q110 0 201.5 -65t139.5 -176.5t34 -239.5l-54 -525q-14 -128 -85.5 -239.5t-176.5 -176.5t-215 -65h-489q-32 0 -29 31l64 590h-111q-30 0 -27 30zM440 225h234q222 0 250 256l53 525q28 256 -193 256h-233 l-43 -396h186q30 0 27 -30l-19 -185q-3 -30 -34 -30h-185z" />
<glyph unicode="&#xd1;" horiz-adv-x="1284" d="M43 31l152 1425q3 31 32 31h205q26 0 35 -23l405 -989l103 981q3 31 33 31h184q32 0 29 -31l-152 -1425q-3 -31 -33 -31h-205q-25 0 -34 23l-404 1011l-104 -1003q-3 -31 -33 -31h-184q-32 0 -29 31zM371 1974q-9 24 26 45q235 152 408 33q52 -36 91.5 -43t71.5 5.5 t89 49.5q24 15 33 -16l55 -137q11 -21 -25 -45q-76 -49 -142.5 -69.5t-134 -12.5t-132.5 49q-54 35 -92.5 42t-70 -5t-89.5 -49q-20 -14 -33 16z" />
<glyph unicode="&#xd2;" d="M86 463l57 557q22 202 163.5 345.5t318.5 143.5h106q116 0 208.5 -65.5t138.5 -178t32 -245.5l-57 -557q-22 -202 -164.5 -346t-319.5 -144h-106q-116 0 -208 65.5t-137.5 178.5t-31.5 246zM328 436q-10 -98 36 -167.5t136 -69.5h82q91 0 151 69.5t70 167.5l65 611 q10 98 -35.5 167.5t-136.5 69.5h-82q-90 0 -151 -70t-70 -167zM428 2126q-15 37 25 37h192q30 0 39 -37l115 -379q4 -17 -3 -27t-22 -10h-168q-26 0 -39 37z" />
<glyph unicode="&#xd3;" d="M86 463l57 557q22 202 163.5 345.5t318.5 143.5h106q116 0 208.5 -65.5t138.5 -178t32 -245.5l-57 -557q-22 -202 -164.5 -346t-319.5 -144h-106q-116 0 -208 65.5t-137.5 178.5t-31.5 246zM328 436q-10 -98 36 -167.5t136 -69.5h82q91 0 151 69.5t70 167.5l65 611 q10 98 -35.5 167.5t-136.5 69.5h-82q-90 0 -151 -70t-70 -167zM591 1720q-5 10 5 27l192 379q15 37 48 37h213q37 0 16 -37l-217 -379q-14 -20 -23.5 -28.5t-23.5 -8.5h-189q-16 0 -21 10z" />
<glyph unicode="&#xd4;" d="M86 463l57 557q22 202 163.5 345.5t318.5 143.5h106q116 0 208.5 -65.5t138.5 -178t32 -245.5l-57 -557q-22 -202 -164.5 -346t-319.5 -144h-106q-116 0 -208 65.5t-137.5 178.5t-31.5 246zM319.5 1736q-3.5 12 6.5 27l278 367q26 33 51 33h183q28 0 45 -33l200 -367 q9 -15 2 -27t-22 -12h-191q-14 0 -23 8.5t-20 30.5l-102 197l-147 -197q-26 -39 -52 -39h-190q-15 0 -18.5 12zM328 436q-10 -98 36 -167.5t136 -69.5h82q91 0 151 69.5t70 167.5l65 611q10 98 -35.5 167.5t-136.5 69.5h-82q-90 0 -151 -70t-70 -167z" />
<glyph unicode="&#xd5;" d="M86 463l57 557q22 202 163.5 345.5t318.5 143.5h106q116 0 208.5 -65.5t138.5 -178t32 -245.5l-57 -557q-22 -202 -164.5 -346t-319.5 -144h-106q-116 0 -208 65.5t-137.5 178.5t-31.5 246zM328 436q-10 -98 36 -167.5t136 -69.5h82q91 0 151 69.5t70 167.5l65 611 q10 98 -35.5 167.5t-136.5 69.5h-82q-90 0 -151 -70t-70 -167zM336 1974q-9 24 26 45q235 152 408 33q52 -36 91.5 -43t71.5 5.5t89 49.5q24 15 33 -16l55 -137q11 -21 -25 -45q-76 -49 -142.5 -69.5t-134 -12.5t-132.5 49q-54 35 -92.5 42t-70 -5t-89.5 -49q-20 -14 -33 16 z" />
<glyph unicode="&#xd6;" d="M86 463l57 557q22 202 163.5 345.5t318.5 143.5h106q116 0 208.5 -65.5t138.5 -178t32 -245.5l-57 -557q-22 -202 -164.5 -346t-319.5 -144h-106q-116 0 -208 65.5t-137.5 178.5t-31.5 246zM307 1743l27 237q3 31 33 31h239q32 0 29 -31l-27 -237q-3 -31 -33 -31h-239 q-32 0 -29 31zM328 436q-10 -98 36 -167.5t136 -69.5h82q91 0 151 69.5t70 167.5l65 611q10 98 -35.5 167.5t-136.5 69.5h-82q-90 0 -151 -70t-70 -167zM795 1743l26 237q3 31 33 31h240q31 0 28 -31l-26 -237q-3 -31 -33 -31h-240q-31 0 -28 31z" />
<glyph unicode="&#xd7;" horiz-adv-x="956" d="M94 440q-23 23 6 45l197 177l-172 192q-21 21 4 43l145 131q22 22 43 0l170 -190l197 176q22 20 41 -2l117 -131q19 -22 -4 -43l-195 -174l172 -193q18 -23 -4 -45l-143 -129q-26 -23 -45 0l-172 192l-197 -178q-25 -21 -43 0z" />
<glyph unicode="&#xd8;" d="M73 8q-5 8 3 23l69 129q-77 132 -59 303l57 557q22 202 163.5 345.5t318.5 143.5h106q72 0 139 -28q9 6 23 6h197q15 0 20 -8t-2 -23l-66 -121q86 -139 68 -315l-57 -557q-22 -202 -164.5 -346t-319.5 -144h-106q-76 0 -150 33q-9 -6 -22 -6h-197q-16 0 -21 8zM336 508 l416 768q-21 8 -56 8h-82q-90 0 -151 -70t-70 -167zM432 211q30 -12 68 -12h82q91 0 151 69.5t70 167.5l61 572z" />
<glyph unicode="&#xd9;" horiz-adv-x="1171" d="M86 446l107 1010q3 31 32 31h185q31 0 28 -31l-102 -969q-2 -36 -2 -74t12 -74.5t31.5 -64.5t55 -45.5t83.5 -17.5h37q48 0 87.5 17.5t65 45t44 65t28 74t13.5 74.5l102 969q3 31 33 31h184q32 0 29 -31l-107 -1010q-22 -199 -160.5 -329.5t-334.5 -130.5h-54 q-196 0 -307.5 131t-89.5 329zM420 2126q-15 37 24 37h193q30 0 39 -37l115 -379q4 -17 -3 -27t-22 -10h-168q-26 0 -39 37z" />
<glyph unicode="&#xda;" horiz-adv-x="1171" d="M86 446l107 1010q3 31 32 31h185q31 0 28 -31l-102 -969q-2 -36 -2 -74t12 -74.5t31.5 -64.5t55 -45.5t83.5 -17.5h37q48 0 87.5 17.5t65 45t44 65t28 74t13.5 74.5l102 969q3 31 33 31h184q32 0 29 -31l-107 -1010q-22 -199 -160.5 -329.5t-334.5 -130.5h-54 q-196 0 -307.5 131t-89.5 329zM583 1720q-5 10 5 27l192 379q15 37 47 37h213q38 0 17 -37l-217 -379q-14 -20 -23.5 -28.5t-23.5 -8.5h-189q-16 0 -21 10z" />
<glyph unicode="&#xdb;" horiz-adv-x="1171" d="M86 446l107 1010q3 31 32 31h185q31 0 28 -31l-102 -969q-2 -36 -2 -74t12 -74.5t31.5 -64.5t55 -45.5t83.5 -17.5h37q48 0 87.5 17.5t65 45t44 65t28 74t13.5 74.5l102 969q3 31 33 31h184q32 0 29 -31l-107 -1010q-22 -199 -160.5 -329.5t-334.5 -130.5h-54 q-196 0 -307.5 131t-89.5 329zM311 1736q-4 12 6 27l279 367q26 33 51 33h182q29 0 45 -33l201 -367q9 -15 2 -27t-22 -12h-191q-14 0 -23 8.5t-20 30.5l-102 197l-148 -197q-26 -39 -51 -39h-190q-15 0 -19 12z" />
<glyph unicode="&#xdc;" horiz-adv-x="1171" d="M86 446l107 1010q3 31 32 31h185q31 0 28 -31l-102 -969q-2 -36 -2 -74t12 -74.5t31.5 -64.5t55 -45.5t83.5 -17.5h37q48 0 87.5 17.5t65 45t44 65t28 74t13.5 74.5l102 969q3 31 33 31h184q32 0 29 -31l-107 -1010q-22 -199 -160.5 -329.5t-334.5 -130.5h-54 q-196 0 -307.5 131t-89.5 329zM299 1743l27 237q3 31 32 31h240q32 0 29 -31l-27 -237q-3 -31 -33 -31h-239q-32 0 -29 31zM786 1743l27 237q3 31 33 31h239q32 0 29 -31l-27 -237q-3 -31 -32 -31h-240q-32 0 -29 31z" />
<glyph unicode="&#xdd;" horiz-adv-x="1230" d="M147 1456q-6 15 0.5 23t22.5 8h203q27 0 39 -31l204 -547l324 547q19 31 43 31h203q16 0 21 -8t-3 -23l-493 -803l-66 -622q-3 -31 -33 -31h-184q-32 0 -29 31l66 622zM583 1720q-5 10 5 27l192 379q15 37 47 37h213q38 0 17 -37l-217 -379q-14 -20 -23.5 -28.5 t-23.5 -8.5h-189q-16 0 -21 10z" />
<glyph unicode="&#xde;" horiz-adv-x="1153" d="M57 31l41 389l13 119l57 528l10 107l31 282q3 31 33 31h184q32 0 29 -31l-31 -282h272q183 0 280 -116.5t75 -312.5q-20 -197 -141 -314.5t-304 -117.5h-272l-31 -282q-3 -31 -33 -31h-184q-32 0 -29 31zM356 539h252q83 0 134.5 47t62.5 159q11 113 -29.5 158t-122.5 45 h-254z" />
<glyph unicode="&#xdf;" horiz-adv-x="1067" d="M123 1171q0 146 97.5 237t254.5 91h70q154 0 256 -91.5t102 -236.5v-108q0 -223 -155 -260q110 -36 163.5 -118.5t53.5 -231.5v-86q0 -168 -118.5 -267.5t-318.5 -99.5h-43q-30 0 -30 31v180q0 31 30 31h43q103 0 150 29t47 116v127q0 89 -46.5 126.5t-139.5 37.5h-54 q-30 0 -30 31v180q0 31 30 31h54q44 0 69.5 6.5t37.5 24.5t15 36.5t3 54.5v88q0 67 -28.5 97t-90.5 30h-70q-108 0 -108 -127l-2 -1099q0 -31 -31 -31h-178q-31 0 -31 31z" />
<glyph unicode="&#xe0;" horiz-adv-x="972" d="M43 299q10 95 60 166t124 106t160 35h229l2 21q5 48 -26.5 84.5t-83.5 36.5h-62q-14 0 -27.5 -1.5t-26.5 -5t-23 -6t-22 -8.5t-18.5 -9.5t-18 -11t-15 -10t-15 -11t-12.5 -9.5q-12 -8 -27 -6t-22 14l-72 111q-18 25 0 43q142 131 334 131h82q83 0 154 -45t110.5 -128.5 t28.5 -185.5l-59 -561q0 -23 2 -31q0 -18 -8 -18h-201q-17 0 -26 13.5t-7 35.5l2 17q-96 -68 -180 -68h-70q-118 0 -198 89t-68 212zM272 1602q-14 36 25 36h192q30 0 39 -36l115 -379q4 -17 -3 -27t-22 -10h-167q-26 0 -39 37zM283 303q-3 -34 16.5 -59t56.5 -25h90 q78 0 136 55l10 111h-217q-37 0 -62 -24t-30 -58z" />
<glyph unicode="&#xe1;" horiz-adv-x="972" d="M43 299q10 95 60 166t124 106t160 35h229l2 21q5 48 -26.5 84.5t-83.5 36.5h-62q-14 0 -27.5 -1.5t-26.5 -5t-23 -6t-22 -8.5t-18.5 -9.5t-18 -11t-15 -10t-15 -11t-12.5 -9.5q-12 -8 -27 -6t-22 14l-72 111q-18 25 0 43q142 131 334 131h82q83 0 154 -45t110.5 -128.5 t28.5 -185.5l-59 -561q0 -23 2 -31q0 -18 -8 -18h-201q-17 0 -26 13.5t-7 35.5l2 17q-96 -68 -180 -68h-70q-118 0 -198 89t-68 212zM283 303q-3 -34 16.5 -59t56.5 -25h90q78 0 136 55l10 111h-217q-37 0 -62 -24t-30 -58zM435.5 1196q-5.5 10 4.5 27l193 379q14 36 47 36 h213q36 0 16 -36l-217 -379q-14 -20 -23.5 -28.5t-23.5 -8.5h-188q-16 0 -21.5 10z" />
<glyph unicode="&#xe2;" horiz-adv-x="972" d="M43 299q10 95 60 166t124 106t160 35h229l2 21q5 48 -26.5 84.5t-83.5 36.5h-62q-14 0 -27.5 -1.5t-26.5 -5t-23 -6t-22 -8.5t-18.5 -9.5t-18 -11t-15 -10t-15 -11t-12.5 -9.5q-12 -8 -27 -6t-22 14l-72 111q-18 25 0 43q142 131 334 131h82q83 0 154 -45t110.5 -128.5 t28.5 -185.5l-59 -561q0 -23 2 -31q0 -18 -8 -18h-201q-17 0 -26 13.5t-7 35.5l2 17q-96 -68 -180 -68h-70q-118 0 -198 89t-68 212zM163.5 1212q-3.5 12 6.5 27l279 367q26 32 51 32h182q29 0 45 -32l201 -367q9 -15 1.5 -27t-22.5 -12h-190q-14 0 -23 8.5t-20 30.5 l-103 197l-147 -197q-26 -39 -51 -39h-191q-15 0 -18.5 12zM283 303q-3 -34 16.5 -59t56.5 -25h90q78 0 136 55l10 111h-217q-37 0 -62 -24t-30 -58z" />
<glyph unicode="&#xe3;" horiz-adv-x="972" d="M43 299q10 95 60 166t124 106t160 35h229l2 21q5 48 -26.5 84.5t-83.5 36.5h-62q-14 0 -27.5 -1.5t-26.5 -5t-23 -6t-22 -8.5t-18.5 -9.5t-18 -11t-15 -10t-15 -11t-12.5 -9.5q-12 -8 -27 -6t-22 14l-72 111q-18 25 0 43q142 131 334 131h82q83 0 154 -45t110.5 -128.5 t28.5 -185.5l-59 -561q0 -23 2 -31q0 -18 -8 -18h-201q-17 0 -26 13.5t-7 35.5l2 17q-96 -68 -180 -68h-70q-118 0 -198 89t-68 212zM180 1450q-9 24 27 45q234 152 407 33q52 -36 91.5 -43t71.5 5.5t89 49.5q24 15 33 -16l55 -138q11 -22 -24 -45q-76 -48 -142.5 -69 t-134.5 -12.5t-133 49.5q-41 26 -70 37t-59 6.5t-54 -16.5t-69 -40q-19 -13 -32 17zM283 303q-3 -34 16.5 -59t56.5 -25h90q78 0 136 55l10 111h-217q-37 0 -62 -24t-30 -58z" />
<glyph unicode="&#xe4;" horiz-adv-x="972" d="M43 299q10 95 60 166t124 106t160 35h229l2 21q5 48 -26.5 84.5t-83.5 36.5h-62q-14 0 -27.5 -1.5t-26.5 -5t-23 -6t-22 -8.5t-18.5 -9.5t-18 -11t-15 -10t-15 -11t-12.5 -9.5q-12 -8 -27 -6t-22 14l-72 111q-18 25 0 43q142 131 334 131h82q83 0 154 -45t110.5 -128.5 t28.5 -185.5l-59 -561q0 -23 2 -31q0 -18 -8 -18h-201q-17 0 -26 13.5t-7 35.5l2 17q-96 -68 -180 -68h-70q-118 0 -198 89t-68 212zM152 1219l26 237q3 31 33 31h240q31 0 28 -31l-26 -237q-3 -31 -33 -31h-240q-31 0 -28 31zM283 303q-3 -34 16.5 -59t56.5 -25h90 q78 0 136 55l10 111h-217q-37 0 -62 -24t-30 -58zM639 1219l27 237q3 31 32 31h240q32 0 29 -31l-27 -237q-3 -31 -33 -31h-239q-32 0 -29 31z" />
<glyph unicode="&#xe5;" horiz-adv-x="972" d="M43 299q10 95 60 166t124 106t160 35h229l2 21q5 48 -26.5 84.5t-83.5 36.5h-62q-14 0 -27.5 -1.5t-26.5 -5t-23 -6t-22 -8.5t-18.5 -9.5t-18 -11t-15 -10t-15 -11t-12.5 -9.5q-12 -8 -27 -6t-22 14l-72 111q-18 25 0 43q142 131 334 131h82q83 0 154 -45t110.5 -128.5 t28.5 -185.5l-59 -561q0 -23 2 -31q0 -18 -8 -18h-201q-17 0 -26 13.5t-7 35.5l2 17q-96 -68 -180 -68h-70q-118 0 -198 89t-68 212zM283 303q-3 -34 16.5 -59t56.5 -25h90q78 0 136 55l10 111h-217q-37 0 -62 -24t-30 -58zM367 1427l2 23q9 82 67.5 136t141.5 54h26 q83 0 130 -54t38 -136l-2 -23q-9 -83 -67.5 -135.5t-141.5 -52.5h-26q-83 0 -130 52.5t-38 135.5zM514 1438q-3 -23 10.5 -39.5t36.5 -16.5h6q24 0 41.5 16t20.5 40v6q2 23 -11.5 38t-37.5 15h-7q-23 0 -40 -15.5t-19 -37.5v-6z" />
<glyph unicode="&#xe6;" horiz-adv-x="1484" d="M45 289q13 133 112 216t230 83h201l2 22q5 48 -18.5 79.5t-73.5 31.5h-82q-87 0 -142 -43q-26 -16 -41 4l-88 125q-14 21 2 41q129 119 334 119h74q116 0 197 -84q110 86 241 86h78q85 0 160 -47t117.5 -133t31.5 -189l-14 -133q-6 -61 -68 -61h-483l-4 -31l-4 -53 q0 -47 30 -75t78 -28h76q79 0 156 84q14 14 31.5 15t31.5 -11l95 -90q21 -21 2 -43q-79 -85 -154.5 -130.5t-187.5 -45.5h-74q-136 0 -229 90q-116 -90 -248 -90h-109q-114 0 -193 87t-67 204zM291 305q-3 -25 10 -43t35 -18h61q63 0 97.5 9t60.5 32l8 77h-215 q-22 0 -39 -17t-18 -40zM836 602h299l2 31q5 45 -23 80t-72 35h-77q-46 0 -84 -36t-43 -81z" />
<glyph unicode="&#xe7;" horiz-adv-x="960" d="M55 365l25 233q15 150 133 260.5t270 110.5h78q128 0 220.5 -91t84.5 -202q-7 -37 -32 -37h-177q-29 0 -32 29q-5 34 -28.5 57t-66.5 23h-69q-50 0 -93 -44.5t-49 -103.5l-26 -238q-6 -59 28.5 -101t84.5 -42h81q15 0 30.5 5t25.5 10t25.5 18.5t21.5 19t23 24t20 21.5 q13 15 29 15t28 -13l107 -102q21 -21 2 -43q-37 -39 -60 -60.5t-60 -49t-78 -43t-89 -21.5l-2 -2q-16 -18 -20 -30t3 -17.5t17.5 -8t28.5 -4.5h3.5t3 -0.5t3.5 -0.5q99 -11 137.5 -52.5t28.5 -142.5q-19 -156 -215 -156h-158q-85 0 -127.5 47t-36.5 125q4 21 21 21h149 q8 0 14.5 -5t6.5 -12q-3 -20 11 -27t42 -7h41q22 0 33 1t20 7t10 18q2 14 -16.5 19.5t-84.5 13.5q-70 9 -120 16q-14 2 -28 9.5t-25 23.5t-12 37.5t15 54t50 70.5l6 6q-126 26 -198.5 128.5t-57.5 232.5z" />
<glyph unicode="&#xe8;" horiz-adv-x="966" d="M55 365l25 233q15 150 133 260.5t270 110.5h78q85 0 160 -47t117.5 -133t31.5 -189l-14 -133q-6 -61 -68 -61h-483l-8 -68q-6 -54 25.5 -86.5t83.5 -32.5h75q79 0 156 84q14 14 31.5 15t31.5 -11l95 -90q21 -21 2 -43q-79 -85 -154.5 -130.5t-187.5 -45.5h-74 q-153 0 -248 109t-78 258zM254 1602q-14 36 25 36h192q30 0 39 -36l115 -379q4 -17 -3 -27t-22 -10h-168q-26 0 -39 37zM326 602h299l2 31q5 45 -23 80t-72 35h-77q-46 0 -84 -36t-43 -81z" />
<glyph unicode="&#xe9;" horiz-adv-x="966" d="M55 365l25 233q15 150 133 260.5t270 110.5h78q85 0 160 -47t117.5 -133t31.5 -189l-14 -133q-6 -61 -68 -61h-483l-8 -68q-6 -54 25.5 -86.5t83.5 -32.5h75q79 0 156 84q14 14 31.5 15t31.5 -11l95 -90q21 -21 2 -43q-79 -85 -154.5 -130.5t-187.5 -45.5h-74 q-153 0 -248 109t-78 258zM326 602h299l2 31q5 45 -23 80t-72 35h-77q-46 0 -84 -36t-43 -81zM417 1196q-5 10 5 27l192 379q14 36 48 36h212q37 0 17 -36l-217 -379q-14 -20 -23.5 -28.5t-23.5 -8.5h-189q-16 0 -21 10z" />
<glyph unicode="&#xea;" horiz-adv-x="966" d="M55 365l25 233q15 150 133 260.5t270 110.5h78q85 0 160 -47t117.5 -133t31.5 -189l-14 -133q-6 -61 -68 -61h-483l-8 -68q-6 -54 25.5 -86.5t83.5 -32.5h75q79 0 156 84q14 14 31.5 15t31.5 -11l95 -90q21 -21 2 -43q-79 -85 -154.5 -130.5t-187.5 -45.5h-74 q-153 0 -248 109t-78 258zM145.5 1212q-3.5 12 6.5 27l278 367q26 32 51 32h183q29 0 45 -32l200 -367q9 -15 2 -27t-22 -12h-191q-14 0 -23 8.5t-20 30.5l-102 197l-147 -197q-26 -39 -52 -39h-190q-15 0 -18.5 12zM326 602h299l2 31q5 45 -23 80t-72 35h-77q-46 0 -84 -36 t-43 -81z" />
<glyph unicode="&#xeb;" horiz-adv-x="966" d="M55 365l25 233q15 150 133 260.5t270 110.5h78q85 0 160 -47t117.5 -133t31.5 -189l-14 -133q-6 -61 -68 -61h-483l-8 -68q-6 -54 25.5 -86.5t83.5 -32.5h75q79 0 156 84q14 14 31.5 15t31.5 -11l95 -90q21 -21 2 -43q-79 -85 -154.5 -130.5t-187.5 -45.5h-74 q-153 0 -248 109t-78 258zM133 1219l27 237q3 31 33 31h239q32 0 29 -31l-27 -237q-3 -31 -33 -31h-239q-32 0 -29 31zM326 602h299l2 31q5 45 -23 80t-72 35h-77q-46 0 -84 -36t-43 -81zM621 1219l26 237q3 31 33 31h240q31 0 28 -31l-26 -237q-3 -31 -33 -31h-240 q-31 0 -28 31z" />
<glyph unicode="&#xec;" horiz-adv-x="567" d="M55 1602q-14 36 25 36h192q30 0 39 -36l115 -379q4 -17 -3 -27t-22 -10h-168q-25 0 -38 37zM88 31l96 903q3 31 33 31h178q32 0 29 -31l-96 -903q-3 -31 -33 -31h-178q-32 0 -29 31z" />
<glyph unicode="&#xed;" horiz-adv-x="567" d="M88 31l96 903q3 31 33 31h178q32 0 29 -31l-96 -903q-3 -31 -33 -31h-178q-32 0 -29 31zM218.5 1196q-5.5 10 4.5 27l193 379q14 36 47 36h213q36 0 16 -36l-217 -379q-14 -20 -23.5 -28.5t-23.5 -8.5h-188q-16 0 -21.5 10z" />
<glyph unicode="&#xee;" horiz-adv-x="567" d="M-53.5 1212q-3.5 12 6.5 27l278 367q26 32 52 32h182q29 0 45 -32l201 -367q9 -15 1.5 -27t-22.5 -12h-190q-14 0 -23 8.5t-20 30.5l-103 197l-147 -197q-26 -39 -51 -39h-191q-15 0 -18.5 12zM88 31l96 903q3 31 33 31h178q32 0 29 -31l-96 -903q-3 -31 -33 -31h-178 q-32 0 -29 31z" />
<glyph unicode="&#xef;" horiz-adv-x="567" d="M-66 1219l27 237q3 31 33 31h239q32 0 29 -31l-26 -237q-3 -31 -33 -31h-240q-32 0 -29 31zM88 31l96 903q3 31 33 31h178q32 0 29 -31l-96 -903q-3 -31 -33 -31h-178q-32 0 -29 31zM422 1219l27 237q3 31 32 31h240q32 0 29 -31l-27 -237q-3 -31 -33 -31h-239 q-32 0 -29 31z" />
<glyph unicode="&#xf0;" horiz-adv-x="1112" d="M68 422q23 254 136 375t324 121q36 0 65.5 -1t49.5 -2t39.5 -5t28 -5t23 -7.5t16.5 -7.5t17 -10t17 -10q5 54 5 69t-7 71t-10 92q-21 -21 -39 -21h-209q-19 0 -23.5 11t7.5 26l131 150h-27h-49q-31 0 -28 30l20 185q3 30 35 30h49q106 0 182 -40q14 14 31 14h209 q19 0 23 -11t-9 -26l-110 -127q51 -96 51 -227q3 -336 -64 -682q-39 -202 -155 -318t-267 -116h-124q-165 0 -260.5 114t-77.5 328zM317 418q-9 -105 22.5 -149t111.5 -44h63q3 0 25.5 -0.5t29.5 0t28.5 4t31.5 11t27.5 21.5t27.5 33.5t21.5 50t19.5 69.5q12 61 14.5 103.5 t-6.5 69.5t-23 42.5t-42.5 22.5t-57 9t-73.5 3h-15q-105 3 -148.5 -56t-56.5 -190z" />
<glyph unicode="&#xf1;" horiz-adv-x="1024" d="M53 31l97 901q3 31 32 31h178q32 0 29 -31l-6 -53q18 31 76 57.5t116 26.5h50q159 0 229.5 -103t52.5 -264l-59 -565q-3 -31 -33 -31h-178q-32 0 -29 31l62 569q6 60 -23.5 100.5t-85.5 40.5h-63q-55 0 -96.5 -40t-47.5 -99l-61 -571q-3 -31 -33 -31h-178q-32 0 -29 31z M199 1450q-9 24 26 45q235 152 408 33q52 -36 91.5 -43t71.5 5.5t89 49.5q24 15 33 -16l55 -138q11 -21 -25 -45q-76 -48 -142.5 -69t-134 -12.5t-132.5 49.5q-41 26 -70 37t-59 6.5t-54 -16.5t-69 -40q-20 -13 -33 17z" />
<glyph unicode="&#xf2;" horiz-adv-x="995" d="M55 365l25 233q15 152 133.5 261.5t271.5 109.5h88q152 0 247.5 -109.5t80.5 -261.5l-24 -233q-17 -152 -135 -259.5t-271 -107.5h-88q-153 0 -249 108t-79 259zM281 1602q-14 36 24 36h193q30 0 39 -36l114 -379q4 -17 -2.5 -27t-21.5 -10h-168q-26 0 -39 37zM295 365 q-8 -62 23.5 -104t87.5 -42h88q56 0 95.5 41.5t47.5 104.5l25 233q6 63 -25.5 106.5t-87.5 43.5h-88q-56 0 -96 -43.5t-46 -106.5z" />
<glyph unicode="&#xf3;" horiz-adv-x="995" d="M55 365l25 233q15 152 133.5 261.5t271.5 109.5h88q152 0 247.5 -109.5t80.5 -261.5l-24 -233q-17 -152 -135 -259.5t-271 -107.5h-88q-153 0 -249 108t-79 259zM295 365q-8 -62 23.5 -104t87.5 -42h88q56 0 95.5 41.5t47.5 104.5l25 233q6 63 -25.5 106.5t-87.5 43.5 h-88q-56 0 -96 -43.5t-46 -106.5zM444 1196q-5 10 5 27l192 379q14 36 47 36h213q37 0 17 -36l-218 -379q-14 -20 -23.5 -28.5t-23.5 -8.5h-188q-16 0 -21 10z" />
<glyph unicode="&#xf4;" horiz-adv-x="995" d="M55 365l25 233q15 152 133.5 261.5t271.5 109.5h88q152 0 247.5 -109.5t80.5 -261.5l-24 -233q-17 -152 -135 -259.5t-271 -107.5h-88q-153 0 -249 108t-79 259zM171.5 1212q-3.5 12 6.5 27l279 367q26 32 51 32h182q29 0 45 -32l201 -367q9 -15 1.5 -27t-22.5 -12h-190 q-14 0 -23 8.5t-20 30.5l-102 197l-148 -197q-26 -39 -51 -39h-191q-15 0 -18.5 12zM295 365q-8 -62 23.5 -104t87.5 -42h88q56 0 95.5 41.5t47.5 104.5l25 233q6 63 -25.5 106.5t-87.5 43.5h-88q-56 0 -96 -43.5t-46 -106.5z" />
<glyph unicode="&#xf5;" horiz-adv-x="995" d="M55 365l25 233q15 152 133.5 261.5t271.5 109.5h88q152 0 247.5 -109.5t80.5 -261.5l-24 -233q-17 -152 -135 -259.5t-271 -107.5h-88q-153 0 -249 108t-79 259zM188 1450q-9 24 27 45q235 152 408 33q52 -36 91.5 -43t71 5.5t88.5 49.5q24 15 33 -16l56 -138 q11 -21 -25 -45q-76 -48 -142.5 -69t-134.5 -12.5t-133 49.5q-41 26 -70 37t-59 6.5t-54 -16.5t-69 -40q-19 -13 -32 17zM295 365q-8 -62 23.5 -104t87.5 -42h88q56 0 95.5 41.5t47.5 104.5l25 233q6 63 -25.5 106.5t-87.5 43.5h-88q-56 0 -96 -43.5t-46 -106.5z" />
<glyph unicode="&#xf6;" horiz-adv-x="995" d="M55 365l25 233q15 152 133.5 261.5t271.5 109.5h88q152 0 247.5 -109.5t80.5 -261.5l-24 -233q-17 -152 -135 -259.5t-271 -107.5h-88q-153 0 -249 108t-79 259zM160 1219l26 237q3 31 33 31h240q31 0 28 -31l-26 -237q-3 -31 -33 -31h-240q-31 0 -28 31zM295 365 q-8 -62 23.5 -104t87.5 -42h88q56 0 95.5 41.5t47.5 104.5l25 233q6 63 -25.5 106.5t-87.5 43.5h-88q-56 0 -96 -43.5t-46 -106.5zM647 1219l27 237q3 31 33 31h239q32 0 29 -31l-27 -237q-3 -31 -33 -31h-239q-32 0 -29 31z" />
<glyph unicode="&#xf7;" horiz-adv-x="1052" d="M104 569l21 185q3 30 33 30h747q30 0 27 -30l-21 -185q-3 -30 -34 -30h-746q-30 0 -27 30zM332 182l22 207q3 31 33 31h209q32 0 29 -31l-23 -207q-3 -30 -33 -30h-209q-31 0 -28 30zM412 934l20 207q3 30 35 30h209q29 0 26 -30l-20 -207q-3 -31 -35 -31h-209 q-29 0 -26 31z" />
<glyph unicode="&#xf8;" horiz-adv-x="1026" d="M55 365l25 233q15 152 133.5 261.5t271.5 109.5h88q32 0 62 -6l12 2h197q15 0 20 -8t-2 -23l-41 -76q95 -110 80 -260l-24 -233q-17 -152 -135 -259.5t-271 -107.5h-88q-31 0 -47 2h-8h-197q-33 0 -18 31l32 61q-50 52 -74.5 123.5t-15.5 149.5zM295 367l207 381h-41 q-56 0 -96 -43.5t-46 -106.5zM473 219h21q56 0 95.5 41.5t47.5 104.5l20 192z" />
<glyph unicode="&#xf9;" horiz-adv-x="983" d="M55 367l60 565q3 31 32 31h179q31 0 28 -31l-61 -570q-6 -60 23 -100.5t85 -40.5h64q55 0 96 40t47 99l62 572q3 31 32 31h179q31 0 28 -31l-96 -901q-3 -31 -33 -31h-178q-32 0 -29 31l7 53q-18 -31 -76.5 -57.5t-116.5 -26.5h-49q-108 0 -177 50.5t-93.5 131.5 t-12.5 185zM276 1602q-14 36 25 36h193q29 0 38 -36l115 -379q4 -17 -2.5 -27t-21.5 -10h-168q-26 0 -39 37z" />
<glyph unicode="&#xfa;" horiz-adv-x="983" d="M55 367l60 565q3 31 32 31h179q31 0 28 -31l-61 -570q-6 -60 23 -100.5t85 -40.5h64q55 0 96 40t47 99l62 572q3 31 32 31h179q31 0 28 -31l-96 -901q-3 -31 -33 -31h-178q-32 0 -29 31l7 53q-18 -31 -76.5 -57.5t-116.5 -26.5h-49q-108 0 -177 50.5t-93.5 131.5 t-12.5 185zM439.5 1196q-5.5 10 4.5 27l193 379q14 36 47 36h213q36 0 16 -36l-217 -379q-14 -20 -23.5 -28.5t-23.5 -8.5h-188q-16 0 -21.5 10z" />
<glyph unicode="&#xfb;" horiz-adv-x="983" d="M55 367l60 565q3 31 32 31h179q31 0 28 -31l-61 -570q-6 -60 23 -100.5t85 -40.5h64q55 0 96 40t47 99l62 572q3 31 32 31h179q31 0 28 -31l-96 -901q-3 -31 -33 -31h-178q-32 0 -29 31l7 53q-18 -31 -76.5 -57.5t-116.5 -26.5h-49q-108 0 -177 50.5t-93.5 131.5 t-12.5 185zM167.5 1212q-3.5 12 6.5 27l279 367q26 32 51 32h182q29 0 45 -32l201 -367q9 -15 1.5 -27t-22.5 -12h-190q-14 0 -23 8.5t-20 30.5l-103 197l-147 -197q-26 -39 -51 -39h-191q-15 0 -18.5 12z" />
<glyph unicode="&#xfc;" horiz-adv-x="983" d="M55 367l60 565q3 31 32 31h179q31 0 28 -31l-61 -570q-6 -60 23 -100.5t85 -40.5h64q55 0 96 40t47 99l62 572q3 31 32 31h179q31 0 28 -31l-96 -901q-3 -31 -33 -31h-178q-32 0 -29 31l7 53q-18 -31 -76.5 -57.5t-116.5 -26.5h-49q-108 0 -177 50.5t-93.5 131.5 t-12.5 185zM156 1219l26 237q3 31 33 31h240q31 0 28 -31l-26 -237q-3 -31 -33 -31h-240q-31 0 -28 31zM643 1219l27 237q3 31 32 31h240q32 0 29 -31l-27 -237q-3 -31 -33 -31h-239q-32 0 -29 31z" />
<glyph unicode="&#xfd;" horiz-adv-x="1114" d="M94 926q-5 16 1 26.5t22 10.5h192q29 0 39 -35l168 -549l287 549q19 35 49 35h190q34 0 15 -37l-680 -1301q-19 -35 -49 -35h-191q-35 0 -16 37l239 457zM495 1196q-5 10 5 27l192 379q14 36 47 36h213q37 0 17 -36l-217 -379q-14 -20 -23.5 -28.5t-23.5 -8.5h-189 q-16 0 -21 10z" />
<glyph unicode="&#xfe;" horiz-adv-x="1028" d="M25 -379l194 1835q3 31 33 31h178q32 0 29 -31l-56 -532q61 39 129 39h62q97 0 173.5 -52.5t114 -137.5t27.5 -181l-24 -242q-15 -140 -135 -245t-256 -105h-62q-70 0 -123 37l-45 -416q-3 -31 -33 -31h-178q-31 0 -28 31zM338 309q1 -43 30.5 -65.5t73.5 -22.5h76 q114 0 123 103l33 294q5 56 -22.5 89.5t-78.5 33.5h-75q-42 0 -77 -27t-48 -75z" />
<glyph unicode="&#xff;" horiz-adv-x="1114" d="M94 926q-5 16 1 26.5t22 10.5h192q29 0 39 -35l168 -549l287 549q19 35 49 35h190q34 0 15 -37l-680 -1301q-19 -35 -49 -35h-191q-35 0 -16 37l239 457zM211 1219l27 237q3 31 32 31h240q32 0 29 -31l-27 -237q-3 -31 -33 -31h-239q-32 0 -29 31zM698 1219l27 237 q3 31 33 31h239q32 0 29 -31l-27 -237q-3 -31 -32 -31h-240q-32 0 -29 31z" />
<glyph unicode="&#x152;" horiz-adv-x="1830" d="M86 463l57 557q22 202 163.5 345.5t318.5 143.5h106q102 0 184 -51q3 29 33 29h801q32 0 29 -31l-19 -164q-3 -30 -33 -30h-585l-43 -400h452q32 0 29 -31l-18 -163q-3 -31 -33 -31h-453l-45 -412h586q32 0 29 -30l-19 -164q-3 -31 -33 -31h-800q-29 0 -29 23 q-98 -50 -195 -50h-106q-116 0 -208 65.5t-137.5 178.5t-31.5 246zM328 436q-10 -98 36 -167.5t136 -69.5h82q91 0 151 69.5t70 167.5l65 611q10 98 -35.5 167.5t-136.5 69.5h-82q-90 0 -151 -70t-70 -167z" />
<glyph unicode="&#x153;" horiz-adv-x="1587" d="M55 365l25 233q15 152 133.5 261.5t271.5 109.5h88q140 0 232 -92q113 92 250 92h78q85 0 160 -47t117.5 -133t31.5 -189l-15 -133q-6 -61 -67 -61h-479l-4 -41q-3 -28 -9 -50q1 -44 32 -70t77 -26h76q78 0 155 84q14 14 32 15t32 -11l94 -90q21 -21 2 -43 q-79 -85 -154.5 -130.5t-187.5 -45.5h-74q-136 0 -229 90q-118 -90 -252 -90h-88q-153 0 -249 108t-79 259zM295 365q-8 -62 23.5 -104t87.5 -42h88q44 0 78.5 26t52.5 70q0 34 2 50l24 233q4 34 8 49q-8 44 -37.5 72.5t-72.5 28.5h-88q-56 0 -96 -43.5t-46 -106.5zM901 602 h295l2 31q5 45 -23 80t-71 35h-78q-42 0 -77 -29t-46 -70q0 -31 -2 -47z" />
<glyph unicode="&#x178;" horiz-adv-x="1230" d="M147 1456q-6 15 0.5 23t22.5 8h203q27 0 39 -31l204 -547l324 547q19 31 43 31h203q16 0 21 -8t-3 -23l-493 -803l-66 -622q-3 -31 -33 -31h-184q-32 0 -29 31l66 622zM299 1743l27 237q3 31 32 31h240q32 0 29 -31l-27 -237q-3 -31 -33 -31h-239q-32 0 -29 31zM786 1743 l27 237q3 31 33 31h239q32 0 29 -31l-27 -237q-3 -31 -32 -31h-240q-32 0 -29 31z" />
<glyph unicode="&#x2c6;" horiz-adv-x="974" d="M153.5 1212q-3.5 12 6.5 27l278 367q26 32 51 32h183q29 0 45 -32l201 -367q9 -15 1.5 -27t-22.5 -12h-190q-14 0 -23 8.5t-20 30.5l-103 197l-147 -197q-26 -39 -52 -39h-190q-15 0 -18.5 12z" />
<glyph unicode="&#x2dc;" horiz-adv-x="991" d="M178 1450q-9 24 27 45q234 152 407 33q52 -36 91.5 -43t71.5 5.5t89 49.5q24 15 33 -16l55 -138q11 -22 -24 -45q-76 -48 -142.5 -69t-134.5 -12.5t-133 49.5q-41 26 -70 37t-59 6.5t-54 -16.5t-69 -40q-20 -13 -33 17z" />
<glyph unicode="&#x2000;" horiz-adv-x="1082" />
<glyph unicode="&#x2001;" horiz-adv-x="2165" />
<glyph unicode="&#x2002;" horiz-adv-x="1082" />
<glyph unicode="&#x2003;" horiz-adv-x="2165" />
<glyph unicode="&#x2004;" horiz-adv-x="721" />
<glyph unicode="&#x2005;" horiz-adv-x="541" />
<glyph unicode="&#x2006;" horiz-adv-x="360" />
<glyph unicode="&#x2007;" horiz-adv-x="360" />
<glyph unicode="&#x2008;" horiz-adv-x="270" />
<glyph unicode="&#x2009;" horiz-adv-x="433" />
<glyph unicode="&#x200a;" horiz-adv-x="120" />
<glyph unicode="&#x2010;" horiz-adv-x="888" d="M111 426l18 184q3 31 35 31h541q29 0 26 -31l-18 -184q-3 -31 -35 -31h-541q-29 0 -26 31z" />
<glyph unicode="&#x2011;" horiz-adv-x="888" d="M111 426l18 184q3 31 35 31h541q29 0 26 -31l-18 -184q-3 -31 -35 -31h-541q-29 0 -26 31z" />
<glyph unicode="&#x2012;" horiz-adv-x="888" d="M111 426l18 184q3 31 35 31h541q29 0 26 -31l-18 -184q-3 -31 -35 -31h-541q-29 0 -26 31z" />
<glyph unicode="&#x2013;" horiz-adv-x="1271" d="M86 389l18 184q3 31 35 31h965q29 0 26 -31l-18 -184q-3 -31 -35 -31h-964q-30 0 -27 31z" />
<glyph unicode="&#x2014;" horiz-adv-x="1423" d="M86 389l18 184q3 31 35 31h1116q30 0 27 -31l-18 -184q-3 -31 -35 -31h-1116q-30 0 -27 31z" />
<glyph unicode="&#x2018;" horiz-adv-x="516" d="M125 963l31 286q9 91 49.5 189.5t118.5 177.5q12 12 19.5 12.5t21.5 -12.5l75 -78q24 -24 4 -43q-36 -31 -56 -73.5t-25.5 -73t-10.5 -86.5l-18 -21h102q30 0 27 -31l-27 -247q-3 -31 -33 -31h-249q-32 0 -29 31z" />
<glyph unicode="&#x2019;" horiz-adv-x="536" d="M82 1208l24 228q3 30 35 30h244q30 0 27 -30l-29 -267q-20 -203 -154 -340q-12 -12 -19.5 -12.5t-21.5 12.5l-67 66q-24 24 -2 43q50 45 68.5 93.5t27.5 125.5l18 21h-122q-32 0 -29 30z" />
<glyph unicode="&#x201a;" horiz-adv-x="516" d="M-51 31l24 227q3 31 35 31h244q30 0 27 -31l-29 -266q-20 -203 -154 -340q-12 -12 -19.5 -12.5t-21.5 12.5l-67 65q-24 24 -2 43q50 45 68.5 93.5t27.5 126.5l18 20h-123q-31 0 -28 31z" />
<glyph unicode="&#x201c;" horiz-adv-x="978" d="M47 963l31 286q9 91 49.5 189.5t118.5 177.5q12 12 19.5 12.5t21.5 -12.5l75 -78q24 -24 5 -43q-36 -31 -56.5 -73t-26 -73.5t-10.5 -86.5l-18 -21h102q30 0 27 -31l-27 -247q-3 -31 -32 -31h-250q-32 0 -29 31zM510 963l31 286q9 91 49.5 189.5t118.5 177.5 q12 12 19.5 12.5t21.5 -12.5l75 -78q23 -24 4 -43q-36 -31 -56 -73.5t-25.5 -73t-10.5 -86.5l-18 -21h102q30 0 27 -31l-27 -247q-3 -31 -33 -31h-249q-32 0 -29 31z" />
<glyph unicode="&#x201d;" horiz-adv-x="999" d="M4 1208l25 228q3 30 34 30h244q30 0 27 -30l-29 -267q-20 -204 -153 -340q-12 -12 -19.5 -12.5t-21.5 12.5l-68 66q-24 24 -2 43q50 45 68.5 93.5t27.5 125.5l19 21h-123q-32 0 -29 30zM467 1208l25 228q3 30 34 30h244q30 0 27 -30l-29 -267q-20 -203 -154 -340 q-12 -12 -19.5 -12.5t-21.5 12.5l-67 66q-24 24 -2 43q50 45 68.5 93.5t27.5 125.5l18 21h-122q-32 0 -29 30z" />
<glyph unicode="&#x201e;" horiz-adv-x="978" d="M-51 31l24 227q3 31 35 31h244q30 0 27 -31l-29 -266q-20 -203 -154 -340q-12 -12 -19.5 -12.5t-21.5 12.5l-67 65q-24 24 -2 43q50 45 68.5 93.5t27.5 126.5l18 20h-123q-31 0 -28 31zM412 31l24 227q3 31 35 31h244q29 0 26 -31l-28 -266q-20 -203 -154 -340 q-12 -12 -19.5 -12.5t-21.5 12.5l-67 65q-24 24 -2 43q50 45 68.5 93.5t27.5 126.5l18 20h-123q-31 0 -28 31z" />
<glyph unicode="&#x2022;" horiz-adv-x="720" d="M147 588l27 248q6 67 72 67h258q69 0 63 -67l-26 -248q-6 -68 -76 -68h-258q-66 0 -60 68z" />
<glyph unicode="&#x2026;" horiz-adv-x="1753" d="M27 31l26 248q3 30 35 30h250q30 0 27 -30l-27 -248q-3 -31 -33 -31h-250q-31 0 -28 31zM645 31l27 248q3 30 35 30h249q30 0 27 -30l-27 -248q-3 -31 -32 -31h-250q-32 0 -29 31zM1264 31l26 248q3 30 35 30h250q30 0 27 -30l-27 -248q-3 -31 -33 -31h-250q-31 0 -28 31 z" />
<glyph unicode="&#x202f;" horiz-adv-x="433" />
<glyph unicode="&#x2039;" horiz-adv-x="677" d="M84 465l12 123q3 32 37 53l410 248q15 9 27 3.5t10 -20.5l-25 -217q-1 -15 -10.5 -24.5t-30.5 -20.5l-160 -84l144 -84q33 -20 30 -45l-22 -217q-2 -15 -13.5 -20t-25.5 4l-358 248q-28 21 -25 53z" />
<glyph unicode="&#x203a;" horiz-adv-x="677" d="M53 180l23 217q2 24 43 45l160 84l-144 84q-19 11 -26.5 21t-6.5 24l25 217q2 15 13.5 20.5t23.5 -3.5l360 -248q28 -21 25 -53l-12 -123q-3 -32 -37 -53l-412 -248q-14 -9 -25 -4t-10 20z" />
<glyph unicode="&#x205f;" horiz-adv-x="541" />
<glyph unicode="&#x20ac;" horiz-adv-x="1425" d="M78 510l16 164q3 31 35 31h160l8 73h-160q-31 0 -28 31l18 164q3 31 33 31h159l3 18q23 217 159 352t326 135h94q183 0 289.5 -133.5t87.5 -339.5q-3 -30 -35 -30h-184q-32 0 -29 30q24 228 -153 228h-95q-97 0 -149.5 -58.5t-65.5 -183.5l-2 -18h369q32 0 29 -31 l-19 -164q-3 -31 -33 -31h-368l-8 -73h368q30 0 27 -31l-17 -164q-3 -31 -34 -31h-367l-2 -14q-14 -126 25.5 -186t136.5 -60h94q182 0 203 232q3 30 37 30h184q30 0 27 -30q-23 -207 -159 -342.5t-319 -135.5h-94q-190 0 -297 137.5t-84 354.5l2 14h-162q-29 0 -26 31z" />
<glyph unicode="&#x2122;" horiz-adv-x="1595" d="M150 1395l8 61q3 31 32 31h490q32 0 29 -31l-9 -61q-3 -31 -32 -31h-183l-39 -371q-3 -30 -34 -30h-62q-29 0 -26 30l38 371h-184q-31 0 -28 31zM772 993l49 463q3 31 33 31h123q25 0 39 -31l151 -338l228 338q18 31 43 31h123q31 0 28 -31l-49 -463q-3 -30 -35 -30h-61 q-30 0 -27 30l35 340l-235 -340q-23 -30 -43 -30h-44q-19 0 -34 30l-166 340l-35 -340q-3 -30 -35 -30h-61q-30 0 -27 30z" />
<glyph unicode="&#x25fc;" horiz-adv-x="962" d="M0 0v963h963v-963h-963z" />
</font>
</defs>
</svg>
