<?xml version="1.0" standalone="no"?>
<!DOCTYPE svg PUBLIC "-//W3C//DTD SVG 1.1//EN" "http://www.w3.org/Graphics/SVG/1.1/DTD/svg11.dtd" >
<svg xmlns="http://www.w3.org/2000/svg" xmlns:xlink="http://www.w3.org/1999/xlink" version="1.1">
<metadata></metadata>
<defs>
<font id="manifold_cf_extendeddemi_bold" horiz-adv-x="1857" >
<font-face units-per-em="2048" ascent="1638" descent="-410" />
<missing-glyph horiz-adv-x="645" />
<glyph unicode="&#xfb01;" horiz-adv-x="2121" d="M72 811v123q0 31 30 31h119v137q0 173 90.5 279t243.5 106h944q31 0 31 -31v-123q0 -30 -31 -30h-944q-73 0 -111 -49t-38 -142v-147h1523q31 0 31 -31v-903q0 -31 -31 -31h-123q-30 0 -30 31v749h-1370v-749q0 -31 -31 -31h-123q-31 0 -31 31v749h-119q-30 0 -30 31z M1765 1282v174q0 31 31 31h141q31 0 31 -31v-174q0 -31 -31 -31h-141q-31 0 -31 31z" />
<glyph unicode="&#xfb02;" horiz-adv-x="2082" d="M72 809v123q0 31 30 31h119v139q0 173 90.5 279t243.5 106h1333q31 0 31 -31v-1425q0 -31 -31 -31h-123q-30 0 -30 31v1272h-1180q-73 0 -111 -49t-38 -142v-149h1083q31 0 31 -31v-123q0 -31 -31 -31h-1083v-747q0 -31 -31 -31h-123q-31 0 -31 31v747h-119q-30 0 -30 31 z" />
<glyph horiz-adv-x="0" />
<glyph horiz-adv-x="682" />
<glyph unicode=" "  horiz-adv-x="645" />
<glyph unicode="&#x09;" horiz-adv-x="645" />
<glyph unicode="&#xa0;" horiz-adv-x="645" />
<glyph unicode="!" horiz-adv-x="532" d="M156 31v162q0 30 30 30h142q30 0 30 -30v-162q0 -31 -30 -31h-142q-30 0 -30 31zM166 465v991q0 31 31 31h122q31 0 31 -31v-991q0 -31 -31 -31h-122q-31 0 -31 31z" />
<glyph unicode="&#x22;" horiz-adv-x="913" d="M154 856v600q0 31 30 31h140q30 0 30 -31v-600q0 -31 -30 -31h-140q-30 0 -30 31zM559 856v600q0 31 31 31h139q31 0 31 -31v-600q0 -31 -31 -31h-139q-31 0 -31 31z" />
<glyph unicode="#" horiz-adv-x="1220" d="M143 432v123q0 31 31 31h133v315h-133q-31 0 -31 31v123q0 30 31 30h133v371q0 31 31 31h123q31 0 31 -31v-371h237v371q0 31 31 31h123q30 0 30 -31v-371h134q30 0 30 -30v-123q0 -31 -30 -31h-134v-315h134q30 0 30 -31v-123q0 -31 -30 -31h-134v-370q0 -31 -30 -31 h-123q-31 0 -31 31v370h-237v-370q0 -31 -31 -31h-123q-31 0 -31 31v370h-133q-31 0 -31 31zM492 586h237v315h-237v-315z" />
<glyph unicode="$" horiz-adv-x="970" d="M102 797q0 30 31 30h96q30 0 33 -28q6 -49 49 -78t103 -37v272q-148 28 -228 91t-80 176q0 123 88 197t220 87v133q0 31 30 31h82q31 0 31 -31v-135q74 -10 139.5 -47.5t110 -101.5t47.5 -142q0 -32 -29 -32h-94q-35 0 -35 26q-1 58 -40 94.5t-99 47.5v-271 q151 -28 231 -88t80 -180q0 -110 -91 -187.5t-220 -93.5v-133q0 -30 -31 -30h-82q-30 0 -30 30v133q-74 8 -142 41.5t-116.5 93.5t-53.5 132zM260 1223q0 -56 37 -82t117 -39v252q-154 -10 -154 -131zM557 686q70 8 114 40.5t44 84.5q0 66 -38 91.5t-120 35.5v-252z" />
<glyph unicode="%" horiz-adv-x="1259" d="M82 1274v22q0 82 52.5 136.5t135.5 54.5h27q83 0 135.5 -54.5t52.5 -136.5v-22q0 -83 -52.5 -136t-135.5 -53h-27q-83 0 -135.5 53t-52.5 136zM129.5 8q-6.5 8 1.5 23l827 1425q10 17 18.5 24t22.5 7h148q16 0 22 -8t-2 -23l-827 -1425q-10 -17 -18.5 -24t-22.5 -7h-147 q-16 0 -22.5 8zM217 1280q0 -57 59 -57h13q59 0 59 57v10q0 60 -59 60h-13q-59 0 -59 -60v-10zM805 188v23q0 82 52.5 136t135.5 54h27q83 0 135.5 -54t52.5 -136v-23q0 -83 -52.5 -135.5t-135.5 -52.5h-27q-83 0 -135.5 52.5t-52.5 135.5zM940 195q0 -58 59 -58h13 q59 0 59 58v10q0 59 -59 59h-13q-59 0 -59 -59v-10z" />
<glyph unicode="&#x26;" horiz-adv-x="2338" d="M102 367v90q0 84 41 154.5t148 133.5q-31 18 -54 43t-36 56t-21.5 56.5t-11.5 62.5t-3.5 56t-0.5 54v12v60q0 147 109 256.5t280 109.5h790q171 0 280.5 -109.5t109.5 -256.5v-39q0 -76 -31 -145t-82 -111l-66 -55q-20 -17 -49 -17h-129q-20 0 -27.5 14t7.5 25l51 33 q60 39 100.5 106t40.5 140v49q0 82 -55.5 132t-159.5 50h-770q-104 0 -159.5 -50t-55.5 -132v-49q0 -40 4.5 -69.5t17 -62.5t40.5 -59.5t71 -46.5l1266 -592q27 52 27 121v145q0 118 57 160l100 80q3 2 9 7t9 6.5t8 3.5t11 2h146q21 0 28 -12.5t-8 -24.5l-137 -109 q-9 -8 -16 -16.5t-11.5 -20t-7 -19t-3.5 -23t-1 -21v-24.5v-23v-121q0 -101 -43 -189l311 -145q14 -6 7.5 -24.5t-25.5 -18.5h-258q-32 0 -80 23l-68 30q-108 -84 -254 -84h-1036q-177 0 -293.5 113t-116.5 285zM287 367q0 -92 62 -152.5t173 -60.5h1016q27 0 39 2 l-1088 495l-100 -49q-102 -52 -102 -166v-69z" />
<glyph unicode="'" horiz-adv-x="507" d="M154 856v600q0 31 30 31h140q30 0 30 -31v-600q0 -31 -30 -31h-140q-30 0 -30 31z" />
<glyph unicode="(" horiz-adv-x="714" d="M133 242v1003q0 173 90.5 279t243.5 106h84q31 0 31 -31v-122q0 -31 -31 -31h-43q-102 0 -146.5 -58.5t-44.5 -183.5v-921q0 -125 44.5 -183.5t146.5 -58.5h43q31 0 31 -31v-123q0 -30 -31 -30h-84q-153 0 -243.5 106t-90.5 279z" />
<glyph unicode=")" horiz-adv-x="714" d="M133 10q0 31 31 31h43q102 0 146 58t44 184v921q0 126 -44 184t-146 58h-43q-31 0 -31 31v122q0 31 31 31h84q153 0 243.5 -106t90.5 -279v-1003q0 -173 -90.5 -279t-243.5 -106h-84q-31 0 -31 30v123z" />
<glyph unicode="*" horiz-adv-x="782" d="M129 1106q-16 25 10 39l123 65l-123 64q-25 14 -10 41l53 84q14 22 39 10l92 -76v127q0 27 27 27h102q29 0 29 -27v-127l90 76q27 14 39 -10l53 -84q15 -27 -10 -41l-121 -64l121 -65q26 -14 10 -39l-53 -86q-12 -25 -39 -8l-90 73v-124q0 -29 -29 -29h-102q-27 0 -27 29 v124l-92 -73q-24 -15 -39 8z" />
<glyph unicode="+" horiz-adv-x="1052" d="M123 600v123q0 31 31 31h282v301q0 30 31 30h123q31 0 31 -30v-301h280q29 0 29 -31v-123q0 -31 -31 -31h-278v-303q0 -30 -31 -30h-123q-31 0 -31 30v303h-282q-31 0 -31 31z" />
<glyph unicode="," horiz-adv-x="464" d="M113 31v207q0 30 30 30h189q30 0 30 -30v-246q0 -215 -116 -348q-11 -12 -18.5 -12.5t-22.5 12.5l-66 59q-27 24 -8 43q35 33 52 74.5t19.5 71.5t2.5 88l16 20h-78q-30 0 -30 31z" />
<glyph unicode="-" horiz-adv-x="1298" d="M143 457v123q0 30 31 30h950q31 0 31 -30v-123q0 -31 -31 -31h-950q-31 0 -31 31z" />
<glyph unicode="." horiz-adv-x="440" d="M102 31v182q0 31 31 31h174q31 0 31 -31v-182q0 -31 -31 -31h-174q-31 0 -31 31z" />
<glyph unicode="/" horiz-adv-x="866" d="M44 8q-6 8 1 23l623 1425q12 31 41 31h135q32 0 20 -31l-622 -1425q-16 -31 -41 -31h-135q-16 0 -22 8z" />
<glyph unicode="0" horiz-adv-x="2062" d="M123 463v557q0 202 126.5 345.5t303.5 143.5h956q177 0 303.5 -143.5t126.5 -345.5v-557q0 -202 -126.5 -346t-303.5 -144h-956q-177 0 -303.5 144t-126.5 346zM307 455q0 -126 69.5 -211.5t176.5 -85.5h956q109 0 177.5 85t68.5 212v573q0 127 -68.5 212t-177.5 85h-956 q-107 0 -176.5 -85.5t-69.5 -211.5v-573z" />
<glyph unicode="1" horiz-adv-x="841" d="M154 1217q-20 20 0 43l221 217l8 6q8 4 18 4h123q31 0 31 -31v-1425q0 -31 -31 -31h-123q-30 0 -30 31v1186l-88 -87q-7 -10 -20 -10t-23 10z" />
<glyph unicode="2" horiz-adv-x="1978" d="M104 31q0 60 1.5 104t6.5 99t13 95.5t22 86t34 78t49 65.5t65.5 54t85.5 37t108 22l975 102q71 7 117 30.5t69.5 65.5t32.5 91.5t9 121.5q0 105 -68.5 170.5t-175.5 65.5h-905q-103 0 -170.5 -65t-67.5 -177v-35q0 -30 -31 -30h-124q-31 0 -31 30v35q0 94 36 175.5 t95.5 135.5t135.5 84.5t157 30.5h905q112 0 209.5 -52t158 -149.5t60.5 -218.5q0 -227 -81.5 -349.5t-278.5 -143.5l-938 -92q-55 -6 -98.5 -19.5t-72 -30.5t-48.5 -43t-31 -49t-16.5 -56t-7 -57t-1.5 -59h1528q31 0 31 -30v-123q0 -31 -31 -31h-1696q-31 0 -31 31z" />
<glyph unicode="3" horiz-adv-x="1968" d="M102 391v39q0 31 31 31h125q31 0 31 -31v-39q0 -99 69 -162t168 -63h906q111 0 180 61t69 162q0 254 -251 266h-887q-31 0 -31 31v135q0 31 31 31h887q126 6 181.5 70.5t55.5 187.5q0 91 -65.5 154t-169.5 63h-908q-97 0 -166 -69.5t-69 -174.5v-39q0 -30 -31 -30h-125 q-31 0 -31 30v39q0 93 36.5 174.5t96 136t135.5 86t154 31.5h908q110 0 206.5 -52.5t154.5 -144t58 -198.5q0 -141 -58.5 -226t-178.5 -134q252 -102 252 -377q0 -117 -61.5 -209t-160 -140t-212.5 -48h-906q-107 0 -203.5 48.5t-159 144t-61.5 216.5z" />
<glyph unicode="4" horiz-adv-x="1959" d="M49 569q-15 33 4 49l1006 869q25 22 41 22h211q21 0 28.5 -12t-8.5 -27l-921 -792h1110v254q0 31 30 31h123q31 0 31 -31v-254h133q31 0 31 -31v-123q0 -30 -31 -30h-133v-463q0 -31 -31 -31h-123q-30 0 -30 31v463h-1420q-25 0 -32 20z" />
<glyph unicode="5" horiz-adv-x="1982" d="M102 393v33q0 31 31 31h125q31 0 31 -31v-33q0 -111 62.5 -169t176.5 -58h906q116 0 185 61t73 191q6 168 -59.5 243.5t-205.5 75.5h-866q-42 0 -76.5 -4.5t-63 -16t-43 -18.5t-40.5 -23.5t-31 -19.5h-153q-31 0 -31 31v39l20 731q0 31 31 31h1606q30 0 30 -31v-123 q0 -30 -30 -30h-1452l-17 -445q54 37 113 55.5t151 18.5h865q96 0 177 -31t142 -92t93 -160t28 -227q-4 -108 -42 -193.5t-100 -138.5t-139.5 -80.5t-164.5 -27.5h-906q-116 0 -212.5 49.5t-155 144.5t-58.5 217z" />
<glyph unicode="6" horiz-adv-x="1982" d="M115 414q-31 338 8 682q20 181 131.5 298t290.5 117h909q179 0 301.5 -121.5t122.5 -308.5v-34q0 -31 -31 -31h-125q-30 0 -30 31v34q0 116 -67 181t-171 65h-907q-99 0 -160.5 -58.5t-75.5 -152.5q-19 -135 -16 -258q36 29 110.5 51.5t159.5 22.5h873q226 0 338.5 -130 t103.5 -380q-4 -108 -41 -193.5t-98 -138.5t-138.5 -80.5t-164.5 -27.5h-910q-175 0 -284.5 113.5t-128.5 318.5zM301 414q11 -128 73.5 -188t153.5 -60h910q107 0 179 60.5t75 191.5q5 171 -49 248t-203 77h-875q-166 0 -222 -77t-42 -252z" />
<glyph unicode="7" horiz-adv-x="1984" d="M92 1333v123q0 31 31 31h1739q30 0 30 -31v-80q2 -17 -6 -33q-208 -135 -406.5 -281t-405.5 -318.5t-399 -368t-343 -391.5q-21 -27 -43 -11l-109 84q-27 20 -6 47q301 383 623 670.5t712 528.5h-1386q-31 0 -31 30z" />
<glyph unicode="8" horiz-adv-x="1992" d="M102 360v80q0 102 50.5 192.5t136.5 135.5q-78 42 -120 129t-42 195v47q0 152 108 262t273 110h977q165 0 273 -110t108 -262v-47q0 -108 -42 -195t-120 -129q86 -45 136 -135.5t50 -192.5v-80q0 -155 -117 -266.5t-284 -111.5h-985q-168 0 -285 111.5t-117 266.5z M287 377q0 -88 63 -149.5t158 -61.5h977q95 0 158 61.5t63 149.5v78q0 89 -63 153t-158 64h-977q-95 0 -158 -64t-63 -153v-78zM313 1069q0 -89 55 -146t150 -57h957q94 0 149 57t55 146v59q0 83 -57.5 141t-151.5 58h-948q-94 0 -151.5 -58t-57.5 -141v-59z" />
<glyph unicode="9" horiz-adv-x="1982" d="M102 1071q4 108 41.5 193.5t99 138.5t139.5 80.5t165 27.5h909q175 0 284 -113.5t128 -318.5q31 -338 -8 -682q-20 -181 -131.5 -298t-290.5 -117h-910q-179 0 -301.5 121.5t-122.5 308.5v34q0 31 31 31h125q31 0 31 -31v-34q0 -116 66.5 -181t170.5 -65h908q99 0 160 59 t75 154q23 142 17 256q-35 -29 -110 -50.5t-159 -21.5h-874q-225 0 -338.5 129t-104.5 379zM291 1075q-5 -171 49 -248t203 -77h874q167 0 223.5 77t40.5 252q-11 128 -72.5 188t-152.5 60h-909q-50 0 -93 -13.5t-80 -41.5t-59 -78.5t-24 -118.5z" />
<glyph unicode=":" horiz-adv-x="542" d="M154 31v182q0 31 30 31h174q31 0 31 -31v-182q0 -31 -31 -31h-174q-30 0 -30 31zM154 750v182q0 31 30 31h174q31 0 31 -31v-182q0 -31 -31 -31h-174q-30 0 -30 31z" />
<glyph unicode=";" horiz-adv-x="544" d="M154 31v202q0 31 30 31h174q31 0 31 -31q2 -61 2 -237q-4 -180 -92 -287q-16 -20 -35 -8l-55 39q-33 15 -12 39q60 67 51 207l12 14h-76q-30 0 -30 31zM154 750v182q0 31 30 31h174q31 0 31 -31v-182q0 -31 -31 -31h-174q-30 0 -30 31z" />
<glyph unicode="&#x3c;" horiz-adv-x="983" d="M123 483q0 57 27 70l677 371q13 7 23 1.5t10 -18.5v-131q0 -38 -20 -49l-449 -244l449 -243q20 -9 20 -50v-131q0 -12 -10 -17.5t-23 1.5l-677 371q-27 16 -27 69z" />
<glyph unicode="=" horiz-adv-x="929" d="M123 420v112q0 31 31 31h622q31 0 31 -31v-112q0 -31 -31 -31h-622q-31 0 -31 31zM123 743v113q0 31 31 31h622q31 0 31 -31v-113q0 -30 -31 -30h-622q-31 0 -31 30z" />
<glyph unicode="&#x3e;" horiz-adv-x="983" d="M123 59v131q0 41 20 50l449 243l-449 244q-20 11 -20 49v131q0 13 9.5 18.5t23.5 -1.5l678 -371q26 -13 26 -70q0 -53 -26 -69l-678 -371q-14 -7 -23.5 -1.5t-9.5 17.5z" />
<glyph unicode="?" horiz-adv-x="1839" d="M82 1042v39q-1 185 118.5 308.5t284.5 123.5h865q169 0 288 -123t119 -303q0 -168 -75 -260t-195 -112q-225 -38 -512 -84q-41 -7 -53.5 -24t-12.5 -42v-100q0 -31 -30 -31h-123q-31 0 -31 31v143q0 24 7 50t22.5 55t47.5 51t75 29q118 21 298.5 47.5t221.5 33.5 q93 15 134.5 69.5t41.5 154.5q0 103 -61.5 167t-172.5 64h-843q-106 0 -167 -67t-61 -181v-39q0 -30 -30 -30h-125q-31 0 -31 30zM717 31v162q0 30 31 30h141q31 0 31 -30v-162q0 -31 -31 -31h-141q-31 0 -31 31z" />
<glyph unicode="@" horiz-adv-x="1343" d="M123 473v541q0 147 67.5 261.5t182.5 175t256 60.5h94q209 0 353.5 -136.5t144.5 -346.5v-555q0 -83 -39.5 -134.5t-112.5 -51.5h-65q-45 0 -78.5 26t-48.5 64q-31 -36 -98.5 -64t-137.5 -28h-20q-111 0 -186 78.5t-75 189.5q0 122 73.5 195t215.5 73h170v15 q0 84 -35 126t-98 42h-35q-63 0 -100.5 -16.5t-77.5 -51.5q-11 -9 -24 -9.5t-21 9.5l-51 72q-17 23 -2 41q55 60 118.5 89t163.5 29h41q129 0 205 -87t76 -249v-331q0 -23 7.5 -34t31.5 -11q23 0 31 11t8 34v512q0 157 -99 246.5t-256 89.5h-53q-157 0 -259.5 -90.5 t-102.5 -253.5v-519q0 -166 102 -257t260 -91h84q80 0 156 47q37 23 37 -16v-117q0 -25 -23 -37q-87 -41 -170 -41h-104q-217 0 -361.5 138t-144.5 362zM516 553q0 -45 30.5 -73.5t76.5 -28.5h20q128 0 176 112v94h-178q-125 0 -125 -104z" />
<glyph unicode="A" horiz-adv-x="2111" d="M90.5 8q-7.5 8 1.5 25l871 1427q7 12 11.5 18t11 10.5t15.5 4.5h109q19 0 39 -33l870 -1427q8 -17 0.5 -25t-24.5 -8h-144q-14 0 -21.5 7t-17.5 26l-217 358h-1077l-219 -358q-2 -3 -5 -8t-4 -7t-3.5 -5.5t-4 -5t-4 -3.5t-4.5 -2.5t-5 -1t-7 -0.5h-147q-17 0 -24.5 8z M631 575h852l-426 701z" />
<glyph unicode="B" horiz-adv-x="2015" d="M133 37v1413q0 37 37 37h1313q175 0 280 -99.5t105 -277.5q0 -261 -158 -346q193 -85 193 -377q0 -387 -404 -387h-1329q-37 0 -37 37zM317 184h1162q125 0 182 52.5t57 171.5q0 125 -60.5 192.5t-176.5 67.5h-1164v-484zM317 852h1166q200 0 200 238q0 213 -213 213 h-1153v-451z" />
<glyph unicode="C" horiz-adv-x="2019" d="M102 465v557q0 209 126 348t309 139h954q175 0 299 -137.5t127 -335.5q0 -30 -31 -30h-123q-32 0 -32 30q0 129 -67 209t-173 80h-954q-113 0 -181.5 -81.5t-68.5 -221.5v-557q0 -140 68.5 -223.5t181.5 -83.5h954q105 0 173 82q67 80 67 207q0 34 32 34h123q31 0 31 -30 q-1 -131 -58.5 -241t-155 -173.5t-212.5 -63.5h-954q-183 0 -309 141.5t-126 350.5z" />
<glyph unicode="D" horiz-adv-x="2011" d="M129 31v1425q0 31 31 31h1308q110 0 208.5 -65t158 -176.5t59.5 -239.5v-525q0 -128 -59.5 -239.5t-158 -176.5t-208.5 -65h-1308q-31 0 -31 31zM313 184h1145q109 0 180.5 79.5t71.5 217.5v525q0 138 -71.5 217.5t-180.5 79.5h-1145v-1119z" />
<glyph unicode="E" horiz-adv-x="1916" d="M133 31v1425q0 31 31 31h1640q31 0 31 -31v-123q0 -30 -31 -30h-1487v-461h1354q31 0 31 -31v-123q0 -31 -31 -31h-1354v-473h1487q31 0 31 -30v-123q0 -31 -31 -31h-1640q-31 0 -31 31z" />
<glyph unicode="F" horiz-adv-x="1957" d="M133 31v1425q0 31 31 31h1640q31 0 31 -31v-123q0 -30 -31 -30h-1487v-482h1354q31 0 31 -30v-123q0 -31 -31 -31h-1354v-606q0 -31 -30 -31h-123q-31 0 -31 31z" />
<glyph unicode="G" horiz-adv-x="2029" d="M102 463v559q0 209 126 348t309 139h954q175 0 299 -137.5t127 -335.5q0 -30 -31 -30h-123q-32 0 -32 30q0 130 -67 209.5t-173 79.5h-954q-113 0 -181.5 -81.5t-68.5 -221.5v-559q0 -141 68 -223t182 -82h954q108 0 175 81.5t67 215.5v131h-320q-31 0 -31 30v123 q0 31 31 31h475q31 0 31 -31v-284q0 -203 -125 -342.5t-303 -139.5h-954q-184 0 -309.5 140t-125.5 350z" />
<glyph unicode="H" horiz-adv-x="2050" d="M143 31v1425q0 31 31 31h123q31 0 31 -31v-655h1394v655q0 31 31 31h123q31 0 31 -31v-1425q0 -31 -31 -31h-123q-31 0 -31 31v585h-1394v-585q0 -31 -31 -31h-123q-31 0 -31 31z" />
<glyph unicode="I" horiz-adv-x="546" d="M180 31v1425q0 31 31 31h125q31 0 31 -31v-1425q0 -31 -31 -31h-125q-31 0 -31 31z" />
<glyph unicode="J" horiz-adv-x="1900" d="M86 268q-11 24 16 41l101 58q21 13 37 -19q90 -178 256 -178h835q116 0 189 84t73 223v979q0 31 31 31h123q31 0 31 -31v-989q0 -107 -37 -199t-98 -153t-139.5 -95t-162.5 -34h-845q-127 0 -244 79t-166 203z" />
<glyph unicode="K" horiz-adv-x="2000" d="M123 31v1425q0 31 31 31h122q31 0 31 -31v-756l1245 758q49 29 66 29h217q20 0 25 -18t-17 -33l-1155 -725l1219 -662q9 -4 11.5 -16t-4 -22.5t-20.5 -10.5h-225q-11 0 -23.5 3t-18.5 5.5t-23 10.5t-21 10l-1087 571l-189 -106v-463q0 -31 -31 -31h-122q-31 0 -31 31z " />
<glyph unicode="L" horiz-adv-x="1769" d="M143 31v1425q0 31 31 31h123q31 0 31 -31v-1272h1282q30 0 30 -30v-123q0 -31 -30 -31h-1436q-31 0 -31 31z" />
<glyph unicode="M" horiz-adv-x="2273" d="M139 31v1425q0 31 31 31h143q14 0 22.5 -7t18.5 -24l783 -1218l784 1218q10 17 18.5 24t22.5 7h143q31 0 31 -31v-1425q0 -31 -31 -31h-123q-30 0 -30 31v1128l-727 -1128q-19 -31 -39 -31h-96q-20 0 -39 31l-727 1128v-1128q0 -31 -31 -31h-123q-31 0 -31 31z" />
<glyph unicode="N" horiz-adv-x="2131" d="M143 31v1425q0 31 31 31h174q6 0 11 -2t7.5 -4t9 -8t9.5 -9l1419 -1243v1235q0 31 31 31h123q31 0 31 -31v-1425q0 -31 -31 -31h-174q-6 0 -11 2t-7.5 4t-9 8t-9.5 9l-1419 1245v-1237q0 -31 -31 -31h-123q-31 0 -31 31z" />
<glyph unicode="O" horiz-adv-x="2062" d="M123 463v557q0 202 126.5 345.5t303.5 143.5h956q177 0 303.5 -143.5t126.5 -345.5v-557q0 -202 -126.5 -346t-303.5 -144h-956q-177 0 -303.5 144t-126.5 346zM307 455q0 -126 69.5 -211.5t176.5 -85.5h956q109 0 177.5 85t68.5 212v573q0 127 -68.5 212t-177.5 85h-956 q-107 0 -176.5 -85.5t-69.5 -211.5v-573z" />
<glyph unicode="P" horiz-adv-x="1988" d="M139 31v1425q0 31 31 31h1307q183 0 291 -114t108 -310t-108 -311t-291 -115h-1153v-606q0 -31 -31 -31h-123q-31 0 -31 31zM324 821h1142q111 0 168.5 56t57.5 186t-57.5 185t-168.5 55h-1142v-482z" />
<glyph unicode="Q" horiz-adv-x="2062" d="M123 463v557q0 202 126.5 345.5t303.5 143.5h956q177 0 303.5 -143.5t126.5 -345.5v-557q0 -164 -88 -295l47 -47q22 -23 0 -45l-86 -86q-22 -22 -43 0l-47 47q-98 -64 -213 -64h-956q-177 0 -303.5 144t-126.5 346zM307 455q0 -126 69.5 -211.5t176.5 -85.5h956 q46 0 78 14l-108 109q-21 21 0 45l86 86q21 22 43 0l114 -115q33 78 33 158v573q0 127 -68.5 212t-177.5 85h-956q-107 0 -176.5 -85.5t-69.5 -211.5v-573z" />
<glyph unicode="R" horiz-adv-x="2000" d="M133 31v1425q0 31 31 31h1306q184 0 292 -114t108 -310q0 -219 -131 -334q65 -57 102 -145t37 -197v-356q0 -13 -9 -22t-22 -9h-123q-13 0 -21.5 8.5t-8.5 22.5v319q0 59 -12 108.5t-37 90.5t-69 64.5t-103 23.5h-1156v-606q0 -31 -30 -31h-123q-31 0 -31 31zM317 821 h1143q111 0 168.5 56t57.5 186t-57.5 185t-168.5 55h-1143v-482z" />
<glyph unicode="S" horiz-adv-x="1998" d="M113 387v57q0 31 30 31h125q31 0 31 -31l2 -57q4 -104 73.5 -166.5t168.5 -62.5h913q104 0 175 64.5t71 170.5q0 120 -61 187.5t-175 70.5l-931 21q-182 4 -298 128t-116 306q0 179 116 291t287 112h926q108 0 203.5 -53.5t156 -153.5t60.5 -223v-37q0 -30 -31 -30h-125 q-31 0 -31 30v37q0 110 -68.5 178t-164.5 68h-926q-99 0 -159 -61t-60 -162q0 -108 58.5 -175.5t175.5 -70.5l934 -20q173 -3 293 -127.5t120 -315.5q0 -122 -60.5 -219.5t-158 -149t-211.5 -51.5h-913q-82 0 -159.5 30.5t-137.5 83.5t-96.5 131.5t-36.5 168.5z" />
<glyph unicode="T" horiz-adv-x="1984" d="M102 1333v123q0 31 31 31h1718q31 0 31 -31v-123q0 -30 -31 -30h-766v-1272q0 -31 -30 -31h-123q-31 0 -31 31v1272h-768q-31 0 -31 30z" />
<glyph unicode="U" horiz-adv-x="2011" d="M123 446v1010q0 31 31 31h122q31 0 31 -31v-989q0 -83 26.5 -148.5t87.5 -107t148 -41.5h873q87 0 148 41.5t87.5 107t26.5 148.5v989q0 31 31 31h123q30 0 30 -31v-1010q0 -198 -125 -329t-321 -131h-873q-196 0 -321 131t-125 329z" />
<glyph unicode="V" horiz-adv-x="2080" d="M94.5 1478q4.5 9 20.5 9h151q27 0 45 -35l729 -1229l729 1229q21 35 46 35h151q16 0 21 -9t-5 -26l-841 -1417q-1 -2 -4 -6.5t-4.5 -6.5l-4.5 -6t-4.5 -5.5t-4.5 -4t-5 -3.5t-5.5 -2t-6.5 -1h-121q-20 0 -39 35l-844 1417q-8 17 -3.5 26z" />
<glyph unicode="W" horiz-adv-x="3307" d="M84 1477q5 10 20 10h154q29 0 45 -37l580 -1169l659 1149q19 36 45 36h135q23 0 45 -36l658 -1149l579 1169q19 37 45 37h154q15 0 20 -10t-4 -27l-706 -1415q-1 -2 -4 -6.5t-4.5 -6.5l-4.5 -6t-4.5 -5.5t-4.5 -4t-5 -3.5t-5.5 -2t-6.5 -1h-90q-20 0 -39 35l-692 1212 l-688 -1212q-1 -2 -4 -6.5t-4.5 -6.5l-4.5 -6t-4.5 -5.5t-4.5 -4t-5 -3.5t-5.5 -2t-6.5 -1h-90q-20 0 -39 35l-709 1415q-9 17 -4 27z" />
<glyph unicode="X" horiz-adv-x="2013" d="M104 12q-4 12 11 25l762 706l-762 707q-15 14 -11 25.5t25 11.5h184q22 0 39 -14l656 -609l653 609q17 14 37 14h186q21 0 25 -11.5t-11 -25.5l-761 -707l761 -706q10 -9 12 -17.5t-5 -14t-21 -5.5h-184q-22 0 -39 14l-653 609l-656 -609q-17 -14 -39 -14h-184 q-21 0 -25 12z" />
<glyph unicode="Y" horiz-adv-x="1984" d="M61.5 1476q3.5 11 24.5 11h172q27 0 39 -14l694 -711l697 711q14 14 38 14h172q22 0 26 -11t-11 -26l-830 -866v-553q0 -31 -30 -31h-123q-31 0 -31 31v553l-827 866q-14 15 -10.5 26z" />
<glyph unicode="Z" horiz-adv-x="1927" d="M102 31v114q0 13 9 19l1398 1139h-1376q-31 0 -31 30v123q0 31 31 31h1661q31 0 31 -31v-113q0 -15 -8 -20l-1397 -1139h1374q31 0 31 -30v-123q0 -31 -31 -31h-1661q-31 0 -31 31z" />
<glyph unicode="[" horiz-adv-x="657" d="M133 -113v1712q0 31 31 31h330q30 0 30 -31v-122q0 -31 -30 -31h-177v-1405h177q30 0 30 -31v-123q0 -30 -30 -30h-330q-31 0 -31 30z" />
<glyph unicode="\" horiz-adv-x="866" d="M2 1456q-12 31 21 31h135q29 0 41 -31l622 -1425q7 -15 1.5 -23t-21.5 -8h-135q-26 0 -41 31z" />
<glyph unicode="]" horiz-adv-x="657" d="M133 10q0 31 31 31h176v1405h-176q-31 0 -31 31v122q0 31 31 31h330q30 0 30 -31v-1712q0 -30 -30 -30h-330q-31 0 -31 30v123z" />
<glyph unicode="^" horiz-adv-x="862" d="M105 940q-6 8 1 23l238 493q14 31 41 31h94q16 0 24 -7.5t17 -23.5l238 -493q12 -31 -21 -31h-135q-29 0 -41 31l-129 280l-129 -280q-15 -31 -41 -31h-135q-16 0 -22 8z" />
<glyph unicode="_" horiz-adv-x="1212" d="M102 31v123q0 30 31 30h930q31 0 31 -30v-123q0 -31 -31 -31h-930q-31 0 -31 31z" />
<glyph unicode="`" horiz-adv-x="573" d="M109 1602q-17 36 20 36h141q31 0 43 -36l154 -379q7 -17 1 -27t-22 -10h-116q-24 0 -43 37z" />
<glyph unicode="a" horiz-adv-x="1810" d="M102 291q0 134 85.5 214.5t215.5 80.5h1100v32q0 79 -41 121.5t-108 42.5h-918q-67 0 -105.5 -13.5t-70.5 -45.5q-22 -19 -43 2l-72 82q-18 22 -2 41q107 119 310 119h915q128 0 224 -101t96 -256v-561q0 -15 4 -31q4 -18 -6 -18h-148q-35 0 -35 49v31q-96 -82 -194 -82 h-916q-114 0 -202.5 88t-88.5 205zM287 299q0 -49 33 -83t79 -34h924q63 0 103.5 23.5t76.5 66.5v140h-1104q-54 0 -83 -29.5t-29 -83.5z" />
<glyph unicode="b" horiz-adv-x="1830" d="M143 31v1425q0 31 31 31h123q31 0 31 -31v-536q81 43 161 43h895q94 0 174.5 -53.5t125.5 -137.5t45 -176v-250q0 -136 -106.5 -241t-238.5 -105h-895q-80 0 -161 43v-12q0 -31 -31 -31h-123q-31 0 -31 31zM328 272q28 -38 73 -63t88 -25h893q69 0 115.5 46t46.5 116v252 q0 74 -44 127t-118 53h-893q-62 0 -111 -44.5t-50 -106.5v-355z" />
<glyph unicode="c" horiz-adv-x="1804" d="M113 365v233q0 148 109 259.5t255 111.5h893q80 0 159.5 -42.5t130 -111t52.5 -139.5q0 -35 -29 -35h-124q-14 0 -24 8t-11 21q-5 46 -50.5 80t-103.5 34h-895q-71 0 -124.5 -54t-53.5 -132v-233q0 -76 53.5 -129.5t124.5 -53.5h901q52 0 94 29.5t86 81.5q23 26 48 4 l88 -80q24 -19 6 -43q-67 -82 -143 -129t-185 -47h-893q-146 0 -255 109.5t-109 257.5z" />
<glyph unicode="d" horiz-adv-x="1845" d="M113 346v250q0 142 101 254.5t243 112.5h899q81 0 162 -43v536q0 31 30 31h123q31 0 31 -31v-1425q0 -31 -31 -31h-123q-30 0 -30 31v12q-81 -43 -162 -43h-899q-132 0 -238 105t-106 241zM297 346q0 -70 47 -116t115 -46h897q43 0 88.5 25t73.5 63v355q-1 62 -50 106.5 t-112 44.5h-897q-72 0 -117 -53t-45 -127v-252z" />
<glyph unicode="e" horiz-adv-x="1814" d="M109 365v233q0 148 109 259.5t255 111.5h897q61 0 123 -29t112 -78t81.5 -120t31.5 -148v-113q0 -61 -61 -61h-1364v-55q0 -77 53 -130t125 -53h903q95 0 185 105q24 24 47 4l84 -74q23 -20 6 -43q-43 -53 -82.5 -87.5t-104 -61.5t-139.5 -27h-897q-146 0 -255 109.5 t-109 257.5zM293 580h1241v30q0 73 -53.5 123.5t-112.5 50.5h-897q-69 0 -123.5 -52.5t-54.5 -121.5v-30z" />
<glyph unicode="f" horiz-adv-x="1540" d="M72 809v123q0 31 30 31h119v139q0 173 90.5 279t243.5 106h954q31 0 31 -31v-123q0 -30 -31 -30h-954q-73 0 -111 -49t-38 -142v-149h1083q31 0 31 -31v-123q0 -31 -31 -31h-1083v-747q0 -31 -31 -31h-123q-31 0 -31 31v747h-119q-30 0 -30 31z" />
<glyph unicode="g" horiz-adv-x="1820" d="M102 365v233q0 94 49 179.5t133 138.5t179 53h880q86 0 166 -56l2 25q0 25 29 25h127q31 0 31 -31v-1034q0 -115 -102 -211.5t-234 -96.5h-870q-107 0 -201.5 57t-147.5 150q-16 28 17 41l100 51q24 11 45 -14q33 -46 79.5 -73t96.5 -27h881q53 0 100 36t47 93v135 q-77 -41 -155 -41h-881q-146 0 -258.5 112t-112.5 255zM287 365q0 -73 56.5 -128t127.5 -55h889q72 0 149 70v422q-7 44 -57.5 77t-108.5 33h-882q-70 0 -122 -55.5t-52 -130.5v-233z" />
<glyph unicode="h" horiz-adv-x="1861" d="M154 31v1425q0 31 30 31h123q31 0 31 -31v-557q84 64 182 64h875q142 0 243 -112.5t101 -254.5v-565q0 -31 -31 -31h-123q-31 0 -31 31v567q0 76 -43.5 128t-113.5 52h-877q-64 0 -122.5 -44t-59.5 -101v-602q0 -31 -31 -31h-123q-30 0 -30 31z" />
<glyph unicode="i" horiz-adv-x="509" d="M154 1282v174q0 31 30 31h142q30 0 30 -31v-174q0 -31 -30 -31h-142q-30 0 -30 31zM164 31v903q0 31 31 31h122q31 0 31 -31v-903q0 -31 -31 -31h-122q-31 0 -31 31z" />
<glyph unicode="j" horiz-adv-x="505" d="M-4 -311q-10 30 20 39q58 21 100 65t42 101v1040q0 31 30 31h123q31 0 31 -31v-1047q0 -112 -72.5 -206.5t-185.5 -129.5q-26 -9 -39 21zM150 1282v174q0 31 30 31h142q30 0 30 -31v-174q0 -31 -30 -31h-142q-30 0 -30 31z" />
<glyph unicode="k" horiz-adv-x="1792" d="M143 31v1425q0 31 31 31h123q31 0 31 -31v-919l1032 405q57 21 76 21h231q20 0 25 -21.5t-17 -32.5l-946 -393l1022 -465q9 -4 11.5 -16.5t-3.5 -23.5t-20 -11h-217q-30 0 -90 27l-902 407l-202 -74v-329q0 -31 -31 -31h-123q-31 0 -31 31z" />
<glyph unicode="l" horiz-adv-x="512" d="M164 31v1425q0 31 31 31h122q31 0 31 -31v-1425q0 -31 -31 -31h-122q-31 0 -31 31z" />
<glyph unicode="m" horiz-adv-x="3346" d="M154 31v901q0 31 30 31h123q31 0 31 -31v-31q96 62 182 62h895q152 0 256 -119q54 55 127.5 87t145.5 32h895q150 0 252 -112t102 -255v-565q0 -31 -31 -31h-123q-30 0 -30 31v565q0 77 -49 129.5t-121 52.5h-908q-60 0 -111.5 -38.5t-58.5 -96.5q4 -28 4 -47v-565 q0 -31 -30 -31h-123q-31 0 -31 31v565q0 15 -4 39v2q-12 62 -56.5 101.5t-105.5 39.5h-907q-63 0 -116 -42t-54 -103v-602q0 -31 -31 -31h-123q-30 0 -30 31z" />
<glyph unicode="n" horiz-adv-x="1865" d="M137 31v901q0 31 31 31h123q31 0 31 -31v-49q34 34 85.5 57t100.5 23h907q149 0 238.5 -107.5t89.5 -259.5v-565q0 -31 -31 -31h-123q-30 0 -30 31v565q0 74 -47 128t-117 54h-910q-61 0 -111.5 -44.5t-51.5 -100.5v-602q0 -31 -31 -31h-123q-31 0 -31 31z" />
<glyph unicode="o" d="M113 375v213q0 155 107 268t259 113h899q152 0 259.5 -113t107.5 -268v-213q0 -155 -107 -266t-260 -111h-899q-153 0 -259.5 111t-106.5 266zM297 375q0 -80 48.5 -136.5t131.5 -56.5h903q82 0 131.5 56.5t49.5 136.5v213q0 80 -49.5 138t-131.5 58h-903 q-83 0 -131.5 -57.5t-48.5 -138.5v-213z" />
<glyph unicode="p" d="M143 -379v1311q0 31 31 31h123q31 0 31 -31v-25q82 56 161 56h902q142 0 243 -112.5t101 -254.5v-250q0 -136 -106 -241t-238 -105h-902q-80 0 -161 43v-422q0 -31 -31 -31h-123q-31 0 -31 31zM328 272q28 -38 73 -63t88 -25h900q69 0 115 46t46 116v252q0 74 -44 127 t-117 53h-900q-62 0 -111 -44.5t-50 -106.5v-355z" />
<glyph unicode="q" d="M123 346v250q0 142 101 254.5t243 112.5h901q79 0 162 -54v23q0 31 31 31h122q31 0 31 -31v-1311q0 -31 -31 -31h-122q-31 0 -31 31v422q-81 -43 -162 -43h-901q-132 0 -238 105t-106 241zM307 346q0 -70 47 -116t115 -46h899q43 0 88.5 25t73.5 63v375q-9 55 -56.5 93 t-105.5 38h-899q-72 0 -117 -53t-45 -127v-252z" />
<glyph unicode="r" horiz-adv-x="1673" d="M129 31v901q0 31 31 31h123q30 0 30 -31v-60q75 93 228 93h839q141 0 230 -82q24 -21 0 -45l-84 -90q-23 -23 -49 -3q-47 35 -158 35h-821q-75 0 -129 -46t-56 -111v-592q0 -31 -30 -31h-123q-31 0 -31 31z" />
<glyph unicode="s" horiz-adv-x="1789" d="M102 258q0 31 31 31h117q38 0 55 -27q13 -42 65 -65t124 -23h813q196 0 196 105q0 65 -67 81q-39 10 -537 31q-453 20 -569 35q-106 21 -165 79.5t-59 174.5q0 95 51.5 163t129.5 98t174 30h862q81 0 160 -37t133 -106.5t57 -151.5q0 -33 -28 -33h-111q-38 0 -53 33 q-10 54 -73 82t-146 28h-785q-93 0 -139.5 -23t-46.5 -83q0 -59 78 -80q67 -15 530 -31q447 -16 576 -32q95 -17 154 -80t59 -181q0 -85 -53 -152t-135 -100.5t-175 -33.5h-872q-122 0 -233.5 78.5t-117.5 189.5z" />
<glyph unicode="t" horiz-adv-x="1441" d="M72 809v121q0 33 30 33h109v213q0 30 31 30h123q30 0 30 -30v-213h908q32 0 32 -31v-123q0 -31 -30 -31h-910v-444q0 -84 33.5 -115t101.5 -31h785q33 0 33 -26l2 -133q0 -33 -27 -33h-842q-107 2 -188.5 73t-81.5 205v504h-109q-30 0 -30 31z" />
<glyph unicode="u" horiz-adv-x="1882" d="M133 365v567q0 31 31 31h123q30 0 30 -31v-567q0 -75 47.5 -128t120.5 -53h906q60 0 111 44.5t52 101.5v602q0 31 31 31h123q31 0 31 -31v-901q0 -31 -31 -31h-123q-31 0 -31 31v49q-34 -34 -85.5 -58t-100.5 -24h-903q-151 0 -241.5 106.5t-90.5 260.5z" />
<glyph unicode="v" horiz-adv-x="1761" d="M73.5 955q3.5 10 20.5 10h182q22 0 50 -35l555 -686l555 686q28 35 49 35h184q15 0 19 -10t-7 -25l-725 -893q-27 -35 -45 -35h-59q-19 0 -45 35l-725 893q-12 15 -8.5 25z" />
<glyph unicode="w" horiz-adv-x="2938" d="M82 928q-24 35 12 35h180q26 0 50 -35l475 -680l551 680q28 35 49 35h141q21 0 49 -35l553 -680l475 680q25 35 49 35h181q15 0 18.5 -10t-6.5 -25l-625 -893q-27 -35 -45 -35h-94q-7 0 -14 4t-10 7t-11.5 12.5t-9.5 11.5l-580 725l-579 -725q-27 -35 -45 -35h-92 q-19 0 -45 35z" />
<glyph unicode="x" horiz-adv-x="1769" d="M120.5 12.5q-4.5 12.5 14.5 24.5l606 444l-606 445q-18 14 -14 25.5t26 11.5h207q17 0 37 -13l496 -362l493 362q20 13 37 13h207q22 0 26 -11.5t-14 -25.5l-606 -445l606 -444q19 -12 14.5 -24.5t-26.5 -12.5h-207q-19 0 -37 12l-493 363l-496 -363q-18 -12 -37 -12 h-207q-22 0 -26.5 12.5z" />
<glyph unicode="y" horiz-adv-x="2115" d="M72 953q4 10 26 10h191q21 0 37 -13l718 -676l744 676q16 13 37 13h192q22 0 26.5 -10t-13.5 -27l-1442 -1323q-16 -13 -37 -13h-203q-22 0 -25.5 11t13.5 26l567 516l-817 783q-18 17 -14 27z" />
<glyph unicode="z" horiz-adv-x="1734" d="M88 31v96q0 28 12 35l1110 616h-1091q-31 0 -31 31v121q0 33 31 33h1497q33 0 33 -31v-103q0 -23 -13 -30l-1110 -615h1090q33 0 33 -30v-123q0 -31 -31 -31h-1499q-31 0 -31 31z" />
<glyph unicode="{" horiz-adv-x="860" d="M141 721q-14 23 0 45l92 113q15 18 15 36v330q0 173 90.5 279t243.5 106h114q31 0 31 -31v-122q0 -31 -31 -31h-73q-101 0 -146 -67t-45 -195v-289q0 -20 -14 -37l-88 -115l90 -114q12 -18 12 -37v-289q0 -128 45 -195t146 -67h73q31 0 31 -31v-123q0 -30 -31 -30h-114 q-153 0 -243.5 106t-90.5 279v329q0 19 -15 37z" />
<glyph unicode="|" horiz-adv-x="512" d="M164 -379v1987q0 30 31 30h122q31 0 31 -30v-1987q0 -31 -31 -31h-122q-31 0 -31 31z" />
<glyph unicode="}" horiz-adv-x="860" d="M133 10q0 31 31 31h74q101 0 145.5 67t44.5 195v289q0 19 12 37l90 114l-88 115q-14 17 -14 37v289q0 128 -44.5 195t-145.5 67h-74q-31 0 -31 31v122q0 31 31 31h115q153 0 243 -106t90 -279v-330q0 -18 15 -36l92 -113q14 -22 0 -45l-92 -113q-15 -18 -15 -37v-329 q0 -173 -90 -279t-243 -106h-115q-31 0 -31 30v123z" />
<glyph unicode="~" horiz-adv-x="1107" d="M106 748q-11 24 21 45q104 74 227.5 80.5t227.5 -58.5q94 -56 171 -52t167 64q15 7 21 3t13 -19l50 -96q14 -22 -21 -45q-104 -73 -226 -80t-227 57q-95 56 -173 52.5t-167 -64.5q-7 -8 -15 -4.5t-11 7.5t-8 13z" />
<glyph unicode="&#xa1;" horiz-adv-x="509" d="M154 885v162q0 30 30 30h142q30 0 30 -30v-162q0 -31 -30 -31h-142q-30 0 -30 31zM164 -379v991q0 31 31 31h122q31 0 31 -31v-991q0 -31 -31 -31h-122q-31 0 -31 31z" />
<glyph unicode="&#xa2;" horiz-adv-x="1804" d="M113 365v233q0 148 109 259.5t255 111.5h375v225q0 31 31 31h61q31 0 31 -31v-225h395q80 0 159.5 -42.5t130 -111t52.5 -139.5q0 -35 -29 -35h-124q-14 0 -24 8t-11 21q-5 46 -50.5 80t-103.5 34h-395v-602h401q52 0 94 29.5t86 81.5q23 26 48 4l88 -80q24 -19 6 -43 q-67 -82 -143 -129t-185 -47h-395v-229q0 -31 -31 -31h-61q-31 0 -31 31v229h-375q-146 0 -255 109.5t-109 257.5zM297 365q0 -76 53.5 -129.5t124.5 -53.5h377v602h-377q-71 0 -124.5 -54t-53.5 -132v-233z" />
<glyph unicode="&#xa3;" horiz-adv-x="2111" d="M104 668v123q0 30 31 30h197q-41 109 -56 203q-14 101 16 193t89.5 155.5t141 101t167.5 37.5h893q169 0 296 -138.5t130 -334.5q0 -30 -31 -30h-123q-32 0 -32 30q0 132 -69.5 210.5t-170.5 78.5h-893q-49 0 -93.5 -20.5t-78 -58t-48 -96t-3.5 -128.5q11 -68 55 -203 h264q31 0 31 -30v-123q0 -31 -31 -31h-208q7 -41 4 -76q-6 -112 -25 -185t-68 -157q128 19 264 22t238 -5t234 -25q128 -16 252 -24t252 -1t194 35q14 6 22.5 -4.5t8.5 -26.5v-129q0 -4 -0.5 -7t-1 -5t-3 -4t-3.5 -3.5t-4.5 -3t-5 -2t-6.5 -2.5t-7 -3q-66 -28 -202.5 -32.5 t-268.5 7.5t-272 33q-415 63 -842 -41q-14 -5 -50 38t-30 58q52 126 71 177t37 127.5t23 162.5q3 35 -4 76h-250q-31 0 -31 31z" />
<glyph unicode="&#xa4;" horiz-adv-x="1994" d="M123 68q-21 22 0 43l96 96q-39 76 -39 168v213q0 90 39 170l-96 94q-21 22 0 43l88 88q21 21 43 0l84 -84q96 70 209 70h899q115 0 211 -70l84 84q21 21 43 0l88 -88q22 -21 0 -43l-98 -96q38 -78 38 -168v-213q0 -90 -38 -168l96 -96q22 -21 0 -43l-86 -88 q-22 -22 -43 0l-86 86q-93 -68 -209 -68h-899q-116 0 -209 68l-84 -86q-22 -22 -43 0zM365 375q0 -80 48.5 -136.5t131.5 -56.5h903q82 0 131 56.5t49 136.5v213q0 80 -49.5 138t-130.5 58h-903q-83 0 -131.5 -57.5t-48.5 -138.5v-213z" />
<glyph unicode="&#xa5;" horiz-adv-x="1986" d="M61.5 1476q3.5 11 24.5 11h172q27 0 39 -14l694 -711l697 711q14 14 38 14h172q22 0 26 -11t-11 -26l-811 -848h280q31 0 31 -31v-112q0 -31 -31 -31h-299v-94h299q31 0 31 -31v-113q0 -30 -31 -30h-299v-129q0 -31 -30 -31h-123q-31 0 -31 31v129h-291q-30 0 -30 30v113 q0 31 30 31h291v94h-291q-30 0 -30 31v112q0 31 30 31h273l-809 848q-14 15 -10.5 26z" />
<glyph unicode="&#xa6;" horiz-adv-x="512" d="M164 -236v662q0 31 31 31h122q31 0 31 -31v-662q0 -30 -31 -30h-122q-31 0 -31 30zM164 803v661q0 31 31 31h122q31 0 31 -31v-661q0 -31 -31 -31h-122q-31 0 -31 31z" />
<glyph unicode="&#xa7;" horiz-adv-x="1241" d="M143 2v59q0 31 31 31h125q31 0 31 -31l2 -59q4 -102 73.5 -165.5t167.5 -63.5h95q104 0 174.5 65t70.5 172q0 112 -57.5 169.5t-177.5 78.5l-113 21q-187 33 -300 150.5t-113 291.5q0 121 59 215q-59 92 -59 217q0 177 116.5 290t286.5 113h107q167 0 293.5 -123.5 t125.5 -306.5v-39q0 -30 -30 -30h-125q-31 0 -31 30v39q0 109 -69 178.5t-164 69.5h-107q-98 0 -158.5 -63t-60.5 -164q0 -99 55.5 -155t177.5 -79l115 -20q178 -33 296 -151.5t118 -301.5q0 -118 -62 -209q62 -97 62 -223q0 -120 -60 -217.5t-158 -150t-212 -52.5h-95 q-110 0 -208 52t-160 148.5t-62 213.5zM336 717q0 -212 233 -254l115 -21q125 -22 215 -80q14 35 14 78q0 228 -235 269l-113 20q-120 21 -213 76q-16 -43 -16 -88z" />
<glyph unicode="&#xa8;" horiz-adv-x="1024" d="M123 1274v182q0 31 31 31h174q30 0 30 -31v-182q0 -31 -30 -31h-174q-31 0 -31 31zM666 1274v182q0 31 30 31h174q31 0 31 -31v-182q0 -31 -31 -31h-174q-30 0 -30 31z" />
<glyph unicode="&#xa9;" horiz-adv-x="1312" d="M123 473v539q0 133 60.5 248t164.5 183t225 68h166q121 0 225 -68t165 -183t61 -248v-539q0 -133 -61 -248.5t-165 -183.5t-225 -68h-166q-90 0 -173.5 40.5t-144 108t-96.5 160t-36 191.5zM287 465q0 -132 86.5 -225t210.5 -93h145q125 0 211 92.5t86 225.5v555 q0 133 -86 225t-211 92h-145q-124 0 -210.5 -92.5t-86.5 -224.5v-555zM385 539v407q0 132 72 199t180 67h51q110 0 177.5 -66t68.5 -200q0 -28 -21 -28h-110q-23 0 -23 18q0 58 -26 88.5t-70 30.5h-45q-49 0 -76.5 -29.5t-27.5 -89.5v-387q0 -59 28 -90t76 -31h45 q44 0 70.5 32.5t25.5 90.5q0 18 23 18h110q10 0 15.5 -9t5.5 -19q-1 -135 -68.5 -202t-177.5 -67h-51q-108 0 -180 67.5t-72 199.5z" />
<glyph unicode="&#xaa;" horiz-adv-x="1062" d="M102 1122q0 74 52 118t139 44h561q0 98 -92 98h-453q-31 0 -56 -7.5t-36.5 -14.5t-32.5 -23q-18 -15 -30 0l-35 45q-12 15 0 27q75 78 196 78h459q81 0 131.5 -59t50.5 -148v-281q0 -18 2 -24q2 -3 1 -7.5t-5 -4.5h-77q-19 0 -23 32q-53 -32 -121 -32h-440 q-80 0 -135.5 42.5t-55.5 116.5zM211 1124q0 -57 82 -57h442q68 0 119 35v78h-561q-82 0 -82 -56z" />
<glyph unicode="&#xab;" horiz-adv-x="1202" d="M113 477v98q0 28 30 48l385 266q14 10 25.5 4t11.5 -21v-165q0 -14 -8 -23t-29 -22l-202 -136l202 -135q37 -21 37 -45v-166q0 -15 -11.5 -20t-25.5 4l-385 266q-30 23 -30 47zM637 477v98q0 27 31 48l385 266q13 10 25 4t12 -21v-165q0 -10 -5.5 -18t-11 -12.5 t-20.5 -14.5l-203 -136l203 -135q19 -12 28 -21.5t9 -23.5v-166q0 -15 -12 -20t-25 4l-385 266q-12 9 -17 13.5t-9.5 13.5t-4.5 20z" />
<glyph unicode="&#xac;" horiz-adv-x="1052" d="M123 569v123q0 31 31 31h745q31 0 31 -31v-403q0 -31 -31 -31h-123q-31 0 -31 31v250h-591q-31 0 -31 30z" />
<glyph unicode="&#xad;" horiz-adv-x="888" d="M143 457v123q0 30 31 30h950q31 0 31 -30v-123q0 -31 -31 -31h-950q-31 0 -31 31z" />
<glyph unicode="&#xae;" horiz-adv-x="1312" d="M123 473v539q0 133 60.5 248t164.5 183t225 68h166q121 0 225 -68t165 -183t61 -248v-539q0 -133 -61 -248.5t-165 -183.5t-225 -68h-166q-90 0 -173.5 40.5t-144 108t-96.5 160t-36 191.5zM287 465q0 -132 86.5 -225t210.5 -93h145q125 0 211 92.5t86 225.5v555 q0 133 -86 225t-211 92h-145q-124 0 -210.5 -92.5t-86.5 -224.5v-555zM412 334v803q0 28 17.5 45.5t45.5 17.5h201q110 0 174.5 -71t64.5 -191q0 -141 -88 -219q84 -72 84 -205v-180q0 -41 -34 -41h-74q-35 0 -35 41v170q0 77 -22.5 112t-73.5 35h-115v-317q0 -41 -35 -41 h-76q-34 0 -34 41zM555 797h113q57 0 79.5 31.5t22.5 103.5q0 69 -22 96t-80 27h-113v-258z" />
<glyph unicode="&#xaf;" horiz-adv-x="1011" d="M143 1333v123q0 31 31 31h664q30 0 30 -31v-123q0 -30 -30 -30h-664q-31 0 -31 30z" />
<glyph unicode="&#xb0;" horiz-adv-x="923" d="M164 1165v23q0 133 76 216t206 83h31q128 0 205.5 -83.5t77.5 -215.5v-23q0 -132 -77.5 -215.5t-205.5 -83.5h-31q-130 0 -206 83t-76 216zM319 1169q0 -66 34.5 -103.5t99.5 -37.5h22q63 0 97 37.5t34 103.5v17q0 67 -33.5 105t-97.5 38h-22q-65 0 -99.5 -38t-34.5 -105 v-17z" />
<glyph unicode="&#xb1;" horiz-adv-x="1052" d="M123 31v123q0 30 31 30h747q29 0 29 -30v-123q0 -31 -31 -31h-745q-31 0 -31 31zM123 621v122q0 31 31 31h282v281q0 30 31 30h123q31 0 31 -30v-281h280q29 0 29 -31v-122q0 -31 -31 -31h-278v-283q0 -31 -31 -31h-123q-31 0 -31 31v283h-282q-31 0 -31 31z" />
<glyph unicode="&#xb2;" horiz-adv-x="655" d="M123 1290v27q0 68 51.5 119t124.5 51h51q79 0 129.5 -61t50.5 -136q0 -55 -33 -103.5t-98 -113.5l-104 -104l207 4q30 0 30 -31v-59q0 -31 -30 -31h-344q-31 0 -31 31v49q0 18 4.5 32t8.5 19.5t19.5 21t22.5 23.5l144 154q8 8 25 24t27 26t19 26t9 32q0 33 -24 56.5 t-60 23.5q-32 0 -54 -19t-22 -46v-15q0 -30 -31 -30h-61q-31 0 -31 30z" />
<glyph unicode="&#xb3;" horiz-adv-x="653" d="M113 1024v27q0 30 30 30h62q31 0 31 -30v-15q0 -27 21.5 -46t53.5 -19q38 0 61 19t23 52q0 32 -22 54t-56 22h-47q-30 0 -30 31v45q0 31 30 31h47q34 0 56 21.5t22 53.5q0 33 -23.5 52.5t-60.5 19.5q-32 0 -53.5 -19t-21.5 -46v-15q0 -30 -31 -30h-62q-30 0 -30 30v27 q0 68 51.5 119t124.5 51h51q80 0 130 -56t50 -130q0 -70 -69 -132q69 -62 69 -131q0 -74 -50 -130t-130 -56h-51q-73 0 -124.5 51t-51.5 119z" />
<glyph unicode="&#xb4;" horiz-adv-x="583" d="M105 1196q-6 10 1 27l154 379q12 36 43 36h152q37 0 20 -36l-178 -379q-19 -37 -43 -37h-127q-16 0 -22 10z" />
<glyph unicode="&#xb6;" horiz-adv-x="1155" d="M102 1063q0 196 108 310t292 114h493q31 0 31 -31v-1425q0 -31 -31 -31h-123q-30 0 -30 31v606h-109v-606q0 -31 -31 -31h-122q-31 0 -31 31v606h-47q-183 0 -291.5 115t-108.5 311zM287 1063q0 -130 57 -186t168 -56h37v482h-37q-111 0 -168 -55t-57 -185zM733 821h109 v482h-109v-482z" />
<glyph unicode="&#xb7;" horiz-adv-x="440" d="M102 532v183q0 30 31 30h174q31 0 31 -30v-183q0 -30 -31 -30h-174q-31 0 -31 30z" />
<glyph unicode="&#xb8;" horiz-adv-x="741" d="M143 -242q0 21 19 21h117q8 0 14 -5t6 -12q0 -49 74 -49h35q24 0 34 0.5t21.5 3.5t15.5 10.5t4 20.5q0 22 -25 29.5t-117 18.5q-53 7 -87 11q-13 2 -27 9t-26 22.5t-15 36t8.5 53t41.5 70.5q13 16 22 16h129q9 0 13 -5t-1 -11q-8 -11 -12.5 -20l-8 -16t-2 -13t1.5 -9.5 t6.5 -7t8 -5t11.5 -3.5t12 -2.5t14.5 -2t13.5 -1.5q51 -6 82.5 -14t59.5 -26.5t40.5 -51.5t12.5 -84q0 -156 -190 -156h-125q-85 0 -132 47t-49 125z" />
<glyph unicode="&#xb9;" horiz-adv-x="618" d="M246 885v571q0 31 30 31h66q31 0 31 -31v-571q0 -31 -31 -31h-66q-30 0 -30 31z" />
<glyph unicode="&#xba;" horiz-adv-x="1073" d="M102 219v88q0 88 60 152.5t147 64.5h455q85 0 146 -65t61 -152v-88q0 -90 -60.5 -154.5t-146.5 -64.5h-455q-87 0 -147 64.5t-60 154.5zM211 227q0 -47 29 -80.5t75 -33.5h445q44 0 74 34t30 80v74q0 46 -30 78.5t-74 32.5h-445q-46 0 -75 -32t-29 -79v-74z" />
<glyph unicode="&#xbb;" horiz-adv-x="1202" d="M113 180v166q0 14 9 23.5t28 21.5l202 135l-202 136q-15 10 -20.5 14.5t-11 12.5t-5.5 18v165q0 15 11.5 21t25.5 -4l385 -266q30 -20 30 -48v-98q0 -24 -30 -47l-385 -266q-14 -9 -25.5 -4t-11.5 20zM637 180v166q0 24 37 45l203 135l-203 136q-21 13 -29 22t-8 23v165 q0 15 11.5 21t25.5 -4l385 -266q31 -21 31 -48v-98q0 -16 -7 -25t-24 -22l-385 -266q-14 -9 -25.5 -4t-11.5 20z" />
<glyph unicode="&#xbc;" horiz-adv-x="1511" d="M211 8q-6 8 2 23l827 1425q10 17 18.5 24t22.5 7h86q16 0 22.5 -8t-1.5 -23l-828 -1425q-10 -17 -18.5 -24t-22.5 -7h-86q-16 0 -22 8zM246 885v571q0 31 30 31h66q31 0 31 -31v-571q0 -31 -31 -31h-66q-30 0 -30 31zM946 209q0 8 8 24l217 388q7 14 29 14h98 q31 0 31 -31v-362h29q31 0 31 -31v-61q0 -31 -31 -31h-29v-88q0 -31 -31 -31h-61q-31 0 -31 31v88h-223q-28 0 -31 31zM1102 246h104v205z" />
<glyph unicode="&#xbd;" horiz-adv-x="1478" d="M211 8q-6 8 2 23l827 1425q10 17 18.5 24t22.5 7h86q16 0 22.5 -8t-1.5 -23l-828 -1425q-10 -17 -18.5 -24t-22.5 -7h-86q-16 0 -22 8zM246 885v571q0 31 30 31h66q31 0 31 -31v-571q0 -31 -31 -31h-66q-30 0 -30 31zM946 438v27q0 68 51.5 119t124.5 51h52 q79 0 129.5 -61t50.5 -136q0 -55 -33 -103.5t-98 -113.5l-105 -104l207 4q31 0 31 -31v-59q0 -31 -31 -31h-344q-31 0 -31 31v49q0 18 4.5 32t9 20t19.5 20.5t23 23.5l143 154q8 8 25 24t27 26t19 26t9 32q0 33 -24 56.5t-60 23.5q-32 0 -54 -19t-22 -46v-15q0 -30 -31 -30 h-61q-31 0 -31 30z" />
<glyph unicode="&#xbe;" horiz-adv-x="1546" d="M123 1024v27q0 30 31 30h61q31 0 31 -30v-15q0 -27 22 -46t54 -19q38 0 61 19t23 52q0 32 -22 54t-56 22h-47q-31 0 -31 31v45q0 31 31 31h47q34 0 56 21.5t22 53.5q0 33 -23.5 52.5t-60.5 19.5q-32 0 -54 -19t-22 -46v-15q0 -30 -31 -30h-61q-31 0 -31 30v27 q0 68 51.5 119t124.5 51h51q80 0 130 -56t50 -130q0 -70 -69 -132q69 -62 69 -131q0 -74 -50 -130t-130 -56h-51q-73 0 -124.5 51t-51.5 119zM246 8q-6 8 2 23l827 1425q10 17 18.5 24t22.5 7h86q16 0 22.5 -8t-1.5 -23l-828 -1425q-10 -17 -18.5 -24t-22.5 -7h-86 q-16 0 -22 8zM981 209q0 8 8 24l217 388q7 14 29 14h98q31 0 31 -31v-362h29q30 0 30 -31v-61q0 -31 -30 -31h-29v-88q0 -31 -31 -31h-61q-31 0 -31 31v88h-223q-28 0 -31 31zM1137 246h104v205z" />
<glyph unicode="&#xbf;" horiz-adv-x="1839" d="M82 -10q0 170 75 262.5t195 112.5q225 38 512 84q41 7 53.5 23.5t12.5 41.5v100q0 31 31 31h122q31 0 31 -31v-143q0 -24 -7 -50t-22 -54.5t-47 -50.5t-75 -29q-119 -21 -301 -48.5t-220 -33.5q-94 -15 -135 -69t-41 -154q0 -103 61.5 -168.5t172.5 -65.5h843 q106 0 167 67t61 181v41q0 31 31 31h124q31 0 31 -31v-41q1 -185 -118.5 -308.5t-284.5 -123.5h-865q-169 0 -288 123t-119 303zM922 887v162q0 30 30 30h142q30 0 30 -30v-162q0 -31 -30 -31h-142q-30 0 -30 31z" />
<glyph unicode="&#xc0;" horiz-adv-x="2111" d="M90.5 8q-7.5 8 1.5 25l871 1427q7 12 11.5 18t11 10.5t15.5 4.5h109q19 0 39 -33l870 -1427q8 -17 0.5 -25t-24.5 -8h-144q-14 0 -21.5 7t-17.5 26l-217 358h-1077l-219 -358q-2 -3 -5 -8t-4 -7t-3.5 -5.5t-4 -5t-4 -3.5t-4.5 -2.5t-5 -1t-7 -0.5h-147q-17 0 -24.5 8z M631 575h852l-426 701zM770 2126q-18 37 21 37h141q31 0 43 -37l153 -379q7 -17 1 -27t-21 -10h-117q-24 0 -43 37z" />
<glyph unicode="&#xc1;" horiz-adv-x="2111" d="M90.5 8q-7.5 8 1.5 25l871 1427q7 12 11.5 18t11 10.5t15.5 4.5h109q19 0 39 -33l870 -1427q8 -17 0.5 -25t-24.5 -8h-144q-14 0 -21.5 7t-17.5 26l-217 358h-1077l-219 -358q-2 -3 -5 -8t-4 -7t-3.5 -5.5t-4 -5t-4 -3.5t-4.5 -2.5t-5 -1t-7 -0.5h-147q-17 0 -24.5 8z M631 575h852l-426 701zM972 1720q-6 10 1 27l153 379q12 37 43 37h152q38 0 20 -37l-178 -379q-19 -37 -43 -37h-127q-15 0 -21 10z" />
<glyph unicode="&#xc2;" horiz-adv-x="2111" d="M90.5 8q-7.5 8 1.5 25l871 1427q7 12 11.5 18t11 10.5t15.5 4.5h109q19 0 39 -33l870 -1427q8 -17 0.5 -25t-24.5 -8h-144q-14 0 -21.5 7t-17.5 26l-217 358h-1077l-219 -358q-2 -3 -5 -8t-4 -7t-3.5 -5.5t-4 -5t-4 -3.5t-4.5 -2.5t-5 -1t-7 -0.5h-147q-17 0 -24.5 8z M631 575h852l-426 701zM684 1737q-6 13 4 26l260 367q12 18 21.5 25.5t25.5 7.5h121q26 0 49 -33l260 -367q10 -13 4.5 -26t-20.5 -13h-137q-14 0 -23.5 9t-23.5 30l-168 238l-168 -238q-14 -21 -23.5 -30t-23.5 -9h-137q-15 0 -21 13z" />
<glyph unicode="&#xc3;" horiz-adv-x="2111" d="M90.5 8q-7.5 8 1.5 25l871 1427q7 12 11.5 18t11 10.5t15.5 4.5h109q19 0 39 -33l870 -1427q8 -17 0.5 -25t-24.5 -8h-144q-14 0 -21.5 7t-17.5 26l-217 358h-1077l-219 -358q-2 -3 -5 -8t-4 -7t-3.5 -5.5t-4 -5t-4 -3.5t-4.5 -2.5t-5 -1t-7 -0.5h-147q-17 0 -24.5 8z M631 575h852l-426 701zM676 1964q-13 23 20 45q105 75 192.5 81.5t192.5 -58.5q63 -39 101.5 -47.5t72 4t97.5 55.5q20 13 34 -16l50 -97q14 -22 -21 -45q-105 -73 -192 -79t-193 57q-64 39 -102 47.5t-71 -4t-97 -56.5q-8 -8 -15.5 -4t-11 8t-8.5 13z" />
<glyph unicode="&#xc4;" horiz-adv-x="2111" d="M90.5 8q-7.5 8 1.5 25l871 1427q7 12 11.5 18t11 10.5t15.5 4.5h109q19 0 39 -33l870 -1427q8 -17 0.5 -25t-24.5 -8h-144q-14 0 -21.5 7t-17.5 26l-217 358h-1077l-219 -358q-2 -3 -5 -8t-4 -7t-3.5 -5.5t-4 -5t-4 -3.5t-4.5 -2.5t-5 -1t-7 -0.5h-147q-17 0 -24.5 8z M631 575h852l-426 701zM668 1798v182q0 31 30 31h174q31 0 31 -31v-182q0 -31 -31 -31h-174q-30 0 -30 31zM1210 1798v182q0 31 31 31h174q31 0 31 -31v-182q0 -31 -31 -31h-174q-31 0 -31 31z" />
<glyph unicode="&#xc5;" horiz-adv-x="2111" d="M90.5 8q-7.5 8 1.5 25l871 1427q7 12 11.5 18t11 10.5t15.5 4.5h109q19 0 39 -33l870 -1427q8 -17 0.5 -25t-24.5 -8h-144q-14 0 -21.5 7t-17.5 26l-217 358h-1077l-219 -358q-2 -3 -5 -8t-4 -7t-3.5 -5.5t-4 -5t-4 -3.5t-4.5 -2.5t-5 -1t-7 -0.5h-147q-17 0 -24.5 8z M631 575h852l-426 701zM854 1952v22q0 82 52.5 136.5t135.5 54.5h27q83 0 135.5 -54.5t52.5 -136.5v-22q0 -83 -52.5 -136t-135.5 -53h-27q-83 0 -135.5 53t-52.5 136zM979 1960q0 -34 19 -54t53 -20h12q34 0 54 20t20 54v10q0 32 -20 52t-54 20h-12q-33 0 -52.5 -19.5 t-19.5 -52.5v-10z" />
<glyph unicode="&#xc6;" horiz-adv-x="3266" d="M96.5 9q-6.5 9 5.5 24l1319 1421q3 3 8 9t7.5 8.5l6.5 6.5t7 5.5t7 2.5t9 1h1688q31 0 31 -31v-123q0 -30 -31 -30h-1487v-461h1354q31 0 31 -31v-123q0 -31 -31 -31h-1354v-473h1487q31 0 31 -30v-123q0 -31 -31 -31h-1641q-30 0 -30 31v360h-805l-332 -358 q-5 -5 -12.5 -13t-10.5 -11t-9 -6t-13 -3h-182q-16 0 -22.5 9zM850 575h633v682z" />
<glyph unicode="&#xc7;" horiz-adv-x="2019" d="M102 465v557q0 209 126 348t309 139h954q175 0 299 -137.5t127 -335.5q0 -30 -31 -30h-123q-32 0 -32 30q0 129 -67 209t-173 80h-954q-113 0 -181.5 -81.5t-68.5 -221.5v-557q0 -140 68.5 -223.5t181.5 -83.5h954q106 0 173.5 81.5t66.5 211.5q0 30 32 30h123 q31 0 31 -30q-1 -131 -58.5 -241t-155 -173.5t-212.5 -63.5h-422q-4 -8 -6 -14.5t-1 -11.5t2.5 -8.5t6.5 -6.5t8.5 -4.5t11 -3.5t12 -2.5t14 -1.5t13.5 -2q51 -6 82.5 -14t59.5 -26.5t40.5 -51.5t12.5 -84q0 -156 -190 -156h-125q-85 0 -132 47t-49 125q0 21 19 21h117 q8 0 14 -5t6 -12q0 -49 74 -49h35q24 0 34 0.5t21.5 3.5t15.5 10.5t4 20.5q0 22 -25 29.5t-117 18.5q-53 7 -87 11q-16 3 -32 13t-29 28.5t-8 51.5t32 73h-366q-183 0 -309 141.5t-126 350.5z" />
<glyph unicode="&#xc8;" horiz-adv-x="1916" d="M133 31v1425q0 31 31 31h1640q31 0 31 -31v-123q0 -30 -31 -30h-1487v-461h1354q31 0 31 -31v-123q0 -31 -31 -31h-1354v-473h1487q31 0 31 -30v-123q0 -31 -31 -31h-1640q-31 0 -31 31zM672 2126q-18 37 20 37h142q31 0 43 -37l153 -379q7 -17 1 -27t-21 -10h-117 q-24 0 -43 37z" />
<glyph unicode="&#xc9;" horiz-adv-x="1916" d="M133 31v1425q0 31 31 31h1640q31 0 31 -31v-123q0 -30 -31 -30h-1487v-461h1354q31 0 31 -31v-123q0 -31 -31 -31h-1354v-473h1487q31 0 31 -30v-123q0 -31 -31 -31h-1640q-31 0 -31 31zM873 1720q-6 10 1 27l154 379q12 37 43 37h152q38 0 20 -37l-178 -379 q-19 -37 -43 -37h-127q-16 0 -22 10z" />
<glyph unicode="&#xca;" horiz-adv-x="1916" d="M133 31v1425q0 31 31 31h1640q31 0 31 -31v-123q0 -30 -31 -30h-1487v-461h1354q31 0 31 -31v-123q0 -31 -31 -31h-1354v-473h1487q31 0 31 -30v-123q0 -31 -31 -31h-1640q-31 0 -31 31zM587.5 1737q-5.5 13 4.5 26l260 367q12 18 21.5 25.5t25.5 7.5h121q26 0 49 -33 l260 -367q10 -13 4.5 -26t-20.5 -13h-137q-23 0 -48 39l-167 238l-168 -238q-25 -39 -48 -39h-137q-15 0 -20.5 13z" />
<glyph unicode="&#xcb;" horiz-adv-x="1916" d="M133 31v1425q0 31 31 31h1640q31 0 31 -31v-123q0 -30 -31 -30h-1487v-461h1354q31 0 31 -31v-123q0 -31 -31 -31h-1354v-473h1487q31 0 31 -30v-123q0 -31 -31 -31h-1640q-31 0 -31 31zM569 1798v182q0 31 31 31h174q31 0 31 -31v-182q0 -31 -31 -31h-174q-31 0 -31 31z M1112 1798v182q0 31 31 31h174q31 0 31 -31v-182q0 -31 -31 -31h-174q-31 0 -31 31z" />
<glyph unicode="&#xcc;" horiz-adv-x="546" d="M-16 2126q-18 37 22 37h141q31 0 43 -37l154 -379q7 -17 1 -27t-21 -10h-117q-24 0 -43 37zM180 31v1425q0 31 31 31h125q31 0 31 -31v-1425q0 -31 -31 -31h-125q-31 0 -31 31z" />
<glyph unicode="&#xcd;" horiz-adv-x="546" d="M180 31v1425q0 31 31 31h125q31 0 31 -31v-1425q0 -31 -31 -31h-125q-31 0 -31 31zM187 1720q-6 10 1 27l154 379q12 37 43 37h152q38 0 20 -37l-178 -379q-19 -37 -43 -37h-127q-16 0 -22 10z" />
<glyph unicode="&#xce;" horiz-adv-x="546" d="M-102 1737q-5 13 4 26l262 367q12 18 21.5 25.5t25.5 7.5h121q26 0 49 -33l260 -367q10 -13 4.5 -26t-20.5 -13h-138q-14 0 -23.5 9t-23.5 30l-168 238l-168 -238q-14 -21 -23.5 -30t-23.5 -9h-139q-15 0 -20 13zM180 31v1425q0 31 31 31h125q31 0 31 -31v-1425 q0 -31 -31 -31h-125q-31 0 -31 31z" />
<glyph unicode="&#xcf;" horiz-adv-x="546" d="M-117 1798v182q0 31 31 31h174q31 0 31 -31v-182q0 -31 -31 -31h-174q-31 0 -31 31zM180 31v1425q0 31 31 31h125q31 0 31 -31v-1425q0 -31 -31 -31h-125q-31 0 -31 31zM426 1798v182q0 31 31 31h174q31 0 31 -31v-182q0 -31 -31 -31h-174q-31 0 -31 31z" />
<glyph unicode="&#xd0;" horiz-adv-x="2138" d="M129 700v123q0 31 31 31h96v602q0 31 31 31h1308q110 0 208.5 -65t158 -176.5t59.5 -239.5v-525q0 -128 -59.5 -239.5t-158 -176.5t-208.5 -65h-1308q-31 0 -31 31v639h-96q-31 0 -31 30zM440 184h1145q109 0 180.5 79.5t71.5 217.5v525q0 138 -71.5 217.5t-180.5 79.5 h-1145v-449h670q31 0 31 -31v-123q0 -30 -31 -30h-670v-486z" />
<glyph unicode="&#xd1;" horiz-adv-x="2131" d="M143 31v1425q0 31 31 31h174q6 0 11 -2t7.5 -4t9 -8t9.5 -9l1419 -1243v1235q0 31 31 31h123q31 0 31 -31v-1425q0 -31 -31 -31h-174q-6 0 -11 2t-7.5 4t-9 8t-9.5 9l-1419 1245v-1237q0 -31 -31 -31h-123q-31 0 -31 31zM688 1964q-13 23 21 45q105 75 192.5 81.5 t192.5 -58.5q63 -39 101.5 -47.5t71.5 4t97 55.5q20 14 35 -16l49 -97q14 -22 -21 -45q-105 -73 -192 -79t-193 57q-64 39 -102 47.5t-71 -4t-97 -56.5q-8 -8 -15.5 -4t-11 8t-8.5 13z" />
<glyph unicode="&#xd2;" horiz-adv-x="2062" d="M123 463v557q0 202 126.5 345.5t303.5 143.5h956q177 0 303.5 -143.5t126.5 -345.5v-557q0 -202 -126.5 -346t-303.5 -144h-956q-177 0 -303.5 144t-126.5 346zM307 455q0 -126 69.5 -211.5t176.5 -85.5h956q109 0 177.5 85t68.5 212v573q0 127 -68.5 212t-177.5 85h-956 q-107 0 -176.5 -85.5t-69.5 -211.5v-573zM735 2126q-18 37 21 37h141q31 0 43 -37l154 -379q7 -17 1 -27t-22 -10h-117q-24 0 -43 37z" />
<glyph unicode="&#xd3;" horiz-adv-x="2062" d="M123 463v557q0 202 126.5 345.5t303.5 143.5h956q177 0 303.5 -143.5t126.5 -345.5v-557q0 -202 -126.5 -346t-303.5 -144h-956q-177 0 -303.5 144t-126.5 346zM307 455q0 -126 69.5 -211.5t176.5 -85.5h956q109 0 177.5 85t68.5 212v573q0 127 -68.5 212t-177.5 85h-956 q-107 0 -176.5 -85.5t-69.5 -211.5v-573zM937 1720q-6 10 1 27l154 379q12 37 43 37h151q39 0 21 -37l-179 -379q-19 -37 -43 -37h-127q-15 0 -21 10z" />
<glyph unicode="&#xd4;" horiz-adv-x="2062" d="M123 463v557q0 202 126.5 345.5t303.5 143.5h956q177 0 303.5 -143.5t126.5 -345.5v-557q0 -202 -126.5 -346t-303.5 -144h-956q-177 0 -303.5 144t-126.5 346zM307 455q0 -126 69.5 -211.5t176.5 -85.5h956q109 0 177.5 85t68.5 212v573q0 127 -68.5 212t-177.5 85h-956 q-107 0 -176.5 -85.5t-69.5 -211.5v-573zM649 1737q-6 13 4 26l260 367q23 33 48 33h120q26 0 49 -33l261 -367q10 -13 4 -26t-21 -13h-137q-14 0 -23.5 9t-23.5 30l-168 238l-168 -238q-14 -21 -23.5 -30t-23.5 -9h-137q-15 0 -21 13z" />
<glyph unicode="&#xd5;" horiz-adv-x="2062" d="M123 463v557q0 202 126.5 345.5t303.5 143.5h956q177 0 303.5 -143.5t126.5 -345.5v-557q0 -202 -126.5 -346t-303.5 -144h-956q-177 0 -303.5 144t-126.5 346zM307 455q0 -126 69.5 -211.5t176.5 -85.5h956q109 0 177.5 85t68.5 212v573q0 127 -68.5 212t-177.5 85h-956 q-107 0 -176.5 -85.5t-69.5 -211.5v-573zM641 1964q-13 23 21 45q105 75 192.5 81.5t192.5 -58.5q63 -39 101.5 -47.5t71.5 4t97 55.5q20 14 35 -16l49 -97q14 -22 -21 -45q-105 -73 -192 -79t-193 57q-64 39 -102 47.5t-71 -4t-97 -56.5q-8 -8 -15.5 -4t-11 8t-8.5 13z" />
<glyph unicode="&#xd6;" horiz-adv-x="2062" d="M123 463v557q0 202 126.5 345.5t303.5 143.5h956q177 0 303.5 -143.5t126.5 -345.5v-557q0 -202 -126.5 -346t-303.5 -144h-956q-177 0 -303.5 144t-126.5 346zM307 455q0 -126 69.5 -211.5t176.5 -85.5h956q109 0 177.5 85t68.5 212v573q0 127 -68.5 212t-177.5 85h-956 q-107 0 -176.5 -85.5t-69.5 -211.5v-573zM633 1798v182q0 31 31 31h174q30 0 30 -31v-182q0 -31 -30 -31h-174q-31 0 -31 31zM1176 1798v182q0 31 30 31h174q31 0 31 -31v-182q0 -31 -31 -31h-174q-30 0 -30 31z" />
<glyph unicode="&#xd7;" horiz-adv-x="899" d="M115 868q-21 22 0 43l86 88q21 21 43 0l207 -206l198 198q21 21 41 -2l88 -86q22 -21 0 -43l-198 -196l206 -207q21 -24 0 -45l-86 -86q-22 -22 -43 0l-206 206l-201 -198q-22 -22 -43 0l-86 86q-25 22 0 43l201 201z" />
<glyph unicode="&#xd8;" horiz-adv-x="2062" d="M123 463v557q0 202 126.5 345.5t303.5 143.5h956q177 0 303.5 -143.5t126.5 -345.5v-557q0 -202 -126.5 -346t-303.5 -144h-956q-177 0 -303.5 144t-126.5 346zM307 455q0 -126 69.5 -211.5t176.5 -85.5h115l510 1167h-625q-107 0 -176.5 -85.5t-69.5 -211.5v-573z M864 158h645q109 0 177.5 85t68.5 212v573q0 127 -68.5 212t-177.5 85h-135z" />
<glyph unicode="&#xd9;" horiz-adv-x="2011" d="M123 446v1010q0 31 31 31h122q31 0 31 -31v-989q0 -83 26.5 -148.5t87.5 -107t148 -41.5h873q87 0 148 41.5t87.5 107t26.5 148.5v989q0 31 31 31h123q30 0 30 -31v-1010q0 -198 -125 -329t-321 -131h-873q-196 0 -321 131t-125 329zM723 2126q-18 37 20 37h142 q31 0 43 -37l153 -379q7 -17 1 -27t-21 -10h-117q-24 0 -43 37z" />
<glyph unicode="&#xda;" horiz-adv-x="2011" d="M123 446v1010q0 31 31 31h122q31 0 31 -31v-989q0 -83 26.5 -148.5t87.5 -107t148 -41.5h873q87 0 148 41.5t87.5 107t26.5 148.5v989q0 31 31 31h123q30 0 30 -31v-1010q0 -198 -125 -329t-321 -131h-873q-196 0 -321 131t-125 329zM925 1720q-6 10 1 27l153 379 q12 37 43 37h152q38 0 20 -37l-178 -379q-19 -37 -43 -37h-127q-15 0 -21 10z" />
<glyph unicode="&#xdb;" horiz-adv-x="2011" d="M123 446v1010q0 31 31 31h122q31 0 31 -31v-989q0 -83 26.5 -148.5t87.5 -107t148 -41.5h873q87 0 148 41.5t87.5 107t26.5 148.5v989q0 31 31 31h123q30 0 30 -31v-1010q0 -198 -125 -329t-321 -131h-873q-196 0 -321 131t-125 329zM636.5 1737q-5.5 13 4.5 26l260 367 q12 18 21.5 25.5t25.5 7.5h121q26 0 49 -33l260 -367q10 -13 4.5 -26t-20.5 -13h-137q-14 0 -23.5 9t-23.5 30l-168 238l-168 -238q-14 -21 -23.5 -30t-23.5 -9h-138q-15 0 -20.5 13z" />
<glyph unicode="&#xdc;" horiz-adv-x="2011" d="M123 446v1010q0 31 31 31h122q31 0 31 -31v-989q0 -83 26.5 -148.5t87.5 -107t148 -41.5h873q87 0 148 41.5t87.5 107t26.5 148.5v989q0 31 31 31h123q30 0 30 -31v-1010q0 -198 -125 -329t-321 -131h-873q-196 0 -321 131t-125 329zM621 1798v182q0 31 30 31h174 q31 0 31 -31v-182q0 -31 -31 -31h-174q-30 0 -30 31zM1163 1798v182q0 31 31 31h174q31 0 31 -31v-182q0 -31 -31 -31h-174q-31 0 -31 31z" />
<glyph unicode="&#xdd;" horiz-adv-x="1984" d="M61.5 1476q3.5 11 24.5 11h172q27 0 39 -14l694 -711l697 711q14 14 38 14h172q22 0 26 -11t-11 -26l-830 -866v-553q0 -31 -30 -31h-123q-31 0 -31 31v553l-827 866q-14 15 -10.5 26zM908 1720q-6 10 1 27l154 379q12 37 43 37h151q39 0 21 -37l-178 -379 q-19 -37 -43 -37h-127q-16 0 -22 10z" />
<glyph unicode="&#xde;" horiz-adv-x="1972" d="M133 31v1425q0 31 31 31h123q30 0 30 -31v-287h1153q184 0 292 -114t108 -310t-108.5 -311t-291.5 -115h-1153v-288q0 -31 -30 -31h-123q-31 0 -31 31zM317 504h1143q111 0 168.5 55.5t57.5 185.5t-57.5 185t-168.5 55h-1143v-481z" />
<glyph unicode="&#xdf;" horiz-adv-x="1886" d="M123 1171q0 145 98 236.5t254 91.5h889q152 0 255 -95.5t103 -236.5v-84q0 -92 -42.5 -168.5t-123.5 -111.5q108 -46 168 -131.5t60 -229.5v-65q0 -165 -127.5 -271t-308.5 -106h-863q-30 0 -30 31v123q0 30 30 30h863q109 0 180 51t71 152v86q0 110 -71 172t-170 62 h-873q-30 0 -30 30v123q0 31 30 31h873q88 0 134 50.5t46 131.5v74q0 80 -45 124t-129 44h-889q-164 0 -164 -164l-2 -1120q0 -31 -30 -31h-123q-31 0 -31 31z" />
<glyph unicode="&#xe0;" horiz-adv-x="1810" d="M102 291q0 134 85.5 214.5t215.5 80.5h1100v32q0 79 -41 121.5t-108 42.5h-918q-67 0 -105.5 -13.5t-70.5 -45.5q-22 -19 -43 2l-72 82q-18 22 -2 41q107 119 310 119h915q128 0 224 -101t96 -256v-561q0 -15 4 -31q4 -18 -6 -18h-148q-35 0 -35 49v31q-96 -82 -194 -82 h-916q-114 0 -202.5 88t-88.5 205zM287 299q0 -49 33 -83t79 -34h924q63 0 103.5 23.5t76.5 66.5v140h-1104q-54 0 -83 -29.5t-29 -83.5zM618 1602q-17 36 21 36h141q31 0 43 -36l154 -379q7 -17 1 -27t-22 -10h-116q-24 0 -43 37z" />
<glyph unicode="&#xe1;" horiz-adv-x="1810" d="M102 291q0 134 85.5 214.5t215.5 80.5h1100v32q0 79 -41 121.5t-108 42.5h-918q-67 0 -105.5 -13.5t-70.5 -45.5q-22 -19 -43 2l-72 82q-18 22 -2 41q107 119 310 119h915q128 0 224 -101t96 -256v-561q0 -15 4 -31q4 -18 -6 -18h-148q-35 0 -35 49v31q-96 -82 -194 -82 h-916q-114 0 -202.5 88t-88.5 205zM287 299q0 -49 33 -83t79 -34h924q63 0 103.5 23.5t76.5 66.5v140h-1104q-54 0 -83 -29.5t-29 -83.5zM820 1196q-6 10 1 27l154 379q12 36 43 36h151q38 0 21 -36l-178 -379q-19 -37 -43 -37h-127q-16 0 -22 10z" />
<glyph unicode="&#xe2;" horiz-adv-x="1810" d="M102 291q0 134 85.5 214.5t215.5 80.5h1100v32q0 79 -41 121.5t-108 42.5h-918q-67 0 -105.5 -13.5t-70.5 -45.5q-22 -19 -43 2l-72 82q-18 22 -2 41q107 119 310 119h915q128 0 224 -101t96 -256v-561q0 -15 4 -31q4 -18 -6 -18h-148q-35 0 -35 49v31q-96 -82 -194 -82 h-916q-114 0 -202.5 88t-88.5 205zM287 299q0 -49 33 -83t79 -34h924q63 0 103.5 23.5t76.5 66.5v140h-1104q-54 0 -83 -29.5t-29 -83.5zM534.5 1213q-5.5 13 4.5 26l260 367q22 32 47 32h121q27 0 49 -32l260 -367q10 -13 4.5 -26t-20.5 -13h-138q-14 0 -23.5 9t-23.5 30 l-168 238l-168 -238q-14 -21 -23.5 -30t-23.5 -9h-137q-15 0 -20.5 13z" />
<glyph unicode="&#xe3;" horiz-adv-x="1810" d="M102 291q0 134 85.5 214.5t215.5 80.5h1100v32q0 79 -41 121.5t-108 42.5h-918q-67 0 -105.5 -13.5t-70.5 -45.5q-22 -19 -43 2l-72 82q-18 22 -2 41q107 119 310 119h915q128 0 224 -101t96 -256v-561q0 -15 4 -31q4 -18 -6 -18h-148q-35 0 -35 49v31q-96 -82 -194 -82 h-916q-114 0 -202.5 88t-88.5 205zM287 299q0 -49 33 -83t79 -34h924q63 0 103.5 23.5t76.5 66.5v140h-1104q-54 0 -83 -29.5t-29 -83.5zM526 1440q-13 23 21 45q104 75 192.5 81t192.5 -59q48 -30 77 -42t61 -8.5t57.5 17t74.5 46.5q20 13 35 -17l49 -96q14 -22 -20 -45 q-105 -73 -192 -79.5t-193 56.5q-64 39 -102 48t-71.5 -3.5t-97.5 -56.5q-19 -12 -35 16z" />
<glyph unicode="&#xe4;" horiz-adv-x="1810" d="M102 291q0 134 85.5 214.5t215.5 80.5h1100v32q0 79 -41 121.5t-108 42.5h-918q-67 0 -105.5 -13.5t-70.5 -45.5q-22 -19 -43 2l-72 82q-18 22 -2 41q107 119 310 119h915q128 0 224 -101t96 -256v-561q0 -15 4 -31q4 -18 -6 -18h-148q-35 0 -35 49v31q-96 -82 -194 -82 h-916q-114 0 -202.5 88t-88.5 205zM287 299q0 -49 33 -83t79 -34h924q63 0 103.5 23.5t76.5 66.5v140h-1104q-54 0 -83 -29.5t-29 -83.5zM516 1274v182q0 31 31 31h174q31 0 31 -31v-182q0 -31 -31 -31h-174q-31 0 -31 31zM1059 1274v182q0 31 31 31h174q30 0 30 -31v-182 q0 -31 -30 -31h-174q-31 0 -31 31z" />
<glyph unicode="&#xe5;" horiz-adv-x="1810" d="M102 291q0 134 85.5 214.5t215.5 80.5h1100v32q0 79 -41 121.5t-108 42.5h-918q-67 0 -105.5 -13.5t-70.5 -45.5q-22 -19 -43 2l-72 82q-18 22 -2 41q107 119 310 119h915q128 0 224 -101t96 -256v-561q0 -15 4 -31q4 -18 -6 -18h-148q-35 0 -35 49v31q-96 -82 -194 -82 h-916q-114 0 -202.5 88t-88.5 205zM287 299q0 -49 33 -83t79 -34h924q63 0 103.5 23.5t76.5 66.5v140h-1104q-54 0 -83 -29.5t-29 -83.5zM702 1427v23q0 82 53 136t136 54h27q83 0 135.5 -54t52.5 -136v-23q0 -83 -52.5 -135.5t-135.5 -52.5h-27q-83 0 -136 52.5t-53 135.5z M827 1436q0 -34 19 -54t53 -20h12q34 0 54 20t20 54v10q0 32 -20 52t-54 20h-12q-33 0 -52.5 -19.5t-19.5 -52.5v-10z" />
<glyph unicode="&#xe6;" horiz-adv-x="3205" d="M102 287q0 129 85.5 208.5t215.5 79.5h1092v35q0 79 -41 125.5t-108 46.5h-897q-116 0 -187 -61q-26 -18 -43 2l-69 84q-19 22 -3 41q116 119 322 119h893q66 0 129 -31t108 -88q52 56 121.5 88.5t143.5 32.5h897q61 0 123 -29t112 -78t81.5 -120t31.5 -148v-113 q0 -61 -62 -61h-1364v-55q0 -77 53.5 -130t125.5 -53h903q94 0 184 105q24 24 47 4l84 -74q23 -20 6 -43q-44 -53 -82.5 -87.5t-103 -61.5t-139.5 -27h-897q-77 0 -148 33.5t-123 91.5q-116 -125 -272 -125h-928q-114 0 -202.5 86t-88.5 203zM287 295q0 -49 32.5 -81 t77.5 -32h903q69 0 113.5 24t81.5 68v127h-1098q-53 0 -81.5 -27.5t-28.5 -78.5zM1683 580h1242v30q0 73 -53.5 123.5t-112.5 50.5h-897q-69 0 -124 -52.5t-55 -121.5v-30z" />
<glyph unicode="&#xe7;" horiz-adv-x="1804" d="M113 365v233q0 148 109 259.5t255 111.5h893q80 0 159.5 -42.5t130 -111t52.5 -139.5q0 -35 -29 -35h-124q-14 0 -24 8t-11 21q-5 46 -50.5 80t-103.5 34h-895q-71 0 -124.5 -54t-53.5 -132v-233q0 -76 53.5 -129.5t124.5 -53.5h901q52 0 94 29.5t86 81.5q23 26 48 4 l88 -80q24 -19 6 -43q-67 -82 -143 -129t-185 -47h-381q-8 -11 -12.5 -20l-8 -16t-2 -13t1.5 -9.5t6.5 -7t8 -5t11.5 -3.5t12 -2.5t14.5 -2t13.5 -1.5q51 -6 82.5 -14t59.5 -26.5t40.5 -51.5t12.5 -84q0 -156 -191 -156h-125q-84 0 -131 47t-49 125q0 21 19 21h116 q8 0 14.5 -5t6.5 -12q0 -49 74 -49h34q24 0 34 0.5t22 3.5t16 10.5t4 20.5q0 22 -25 29.5t-117 18.5q-53 7 -87 11q-18 3 -34.5 14.5t-28.5 33t-2 59t46 84.5h-348q-146 0 -255 109.5t-109 257.5z" />
<glyph unicode="&#xe8;" horiz-adv-x="1814" d="M109 365v233q0 148 109 259.5t255 111.5h897q61 0 123 -29t112 -78t81.5 -120t31.5 -148v-113q0 -61 -61 -61h-1364v-55q0 -77 53 -130t125 -53h903q95 0 185 105q24 24 47 4l84 -74q23 -20 6 -43q-43 -53 -82.5 -87.5t-104 -61.5t-139.5 -27h-897q-146 0 -255 109.5 t-109 257.5zM293 580h1241v30q0 73 -53.5 123.5t-112.5 50.5h-897q-69 0 -123.5 -52.5t-54.5 -121.5v-30zM616 1602q-17 36 21 36h141q31 0 43 -36l154 -379q7 -17 1 -27t-22 -10h-116q-24 0 -43 37z" />
<glyph unicode="&#xe9;" horiz-adv-x="1814" d="M109 365v233q0 148 109 259.5t255 111.5h897q61 0 123 -29t112 -78t81.5 -120t31.5 -148v-113q0 -61 -61 -61h-1364v-55q0 -77 53 -130t125 -53h903q95 0 185 105q24 24 47 4l84 -74q23 -20 6 -43q-43 -53 -82.5 -87.5t-104 -61.5t-139.5 -27h-897q-146 0 -255 109.5 t-109 257.5zM293 580h1241v30q0 73 -53.5 123.5t-112.5 50.5h-897q-69 0 -123.5 -52.5t-54.5 -121.5v-30zM818 1196q-6 10 1 27l154 379q12 36 43 36h151q38 0 21 -36l-178 -379q-19 -37 -43 -37h-127q-16 0 -22 10z" />
<glyph unicode="&#xea;" horiz-adv-x="1814" d="M109 365v233q0 148 109 259.5t255 111.5h897q61 0 123 -29t112 -78t81.5 -120t31.5 -148v-113q0 -61 -61 -61h-1364v-55q0 -77 53 -130t125 -53h903q95 0 185 105q24 24 47 4l84 -74q23 -20 6 -43q-43 -53 -82.5 -87.5t-104 -61.5t-139.5 -27h-897q-146 0 -255 109.5 t-109 257.5zM293 580h1241v30q0 73 -53.5 123.5t-112.5 50.5h-897q-69 0 -123.5 -52.5t-54.5 -121.5v-30zM530.5 1213q-5.5 13 4.5 26l260 367q22 32 47 32h121q27 0 49 -32l260 -367q10 -13 4 -26t-21 -13h-137q-14 0 -23.5 9t-23.5 30l-168 238l-168 -238 q-14 -21 -23.5 -30t-23.5 -9h-137q-15 0 -20.5 13z" />
<glyph unicode="&#xeb;" horiz-adv-x="1814" d="M109 365v233q0 148 109 259.5t255 111.5h897q61 0 123 -29t112 -78t81.5 -120t31.5 -148v-113q0 -61 -61 -61h-1364v-55q0 -77 53 -130t125 -53h903q95 0 185 105q24 24 47 4l84 -74q23 -20 6 -43q-43 -53 -82.5 -87.5t-104 -61.5t-139.5 -27h-897q-146 0 -255 109.5 t-109 257.5zM293 580h1241v30q0 73 -53.5 123.5t-112.5 50.5h-897q-69 0 -123.5 -52.5t-54.5 -121.5v-30zM514 1274v182q0 31 31 31h174q31 0 31 -31v-182q0 -31 -31 -31h-174q-31 0 -31 31zM1057 1274v182q0 31 30 31h175q30 0 30 -31v-182q0 -31 -30 -31h-175 q-30 0 -30 31z" />
<glyph unicode="&#xec;" horiz-adv-x="512" d="M-33 1602q-17 36 21 36h143q31 0 43 -36l154 -379q7 -17 1 -27t-22 -10h-117q-24 0 -43 37zM164 31v903q0 31 31 31h122q31 0 31 -31v-903q0 -31 -31 -31h-122q-31 0 -31 31z" />
<glyph unicode="&#xed;" horiz-adv-x="512" d="M164 31v903q0 31 31 31h122q31 0 31 -31v-903q0 -31 -31 -31h-122q-31 0 -31 31zM171 1196q-6 10 1 27l154 379q12 36 43 36h151q38 0 21 -36l-179 -379q-19 -37 -43 -37h-126q-16 0 -22 10z" />
<glyph unicode="&#xee;" horiz-adv-x="512" d="M-118.5 1213q-5.5 13 3.5 26l262 367q22 32 48 32h120q28 0 50 -32l260 -367q10 -13 4 -26t-21 -13h-137q-14 0 -23.5 9t-23.5 30l-168 238l-168 -238q-14 -21 -23.5 -30t-23.5 -9h-139q-15 0 -20.5 13zM164 31v903q0 31 31 31h122q31 0 31 -31v-903q0 -31 -31 -31h-122 q-31 0 -31 31z" />
<glyph unicode="&#xef;" horiz-adv-x="512" d="M-133 1274v182q0 31 31 31h174q30 0 30 -31v-182q0 -31 -30 -31h-174q-31 0 -31 31zM164 31v903q0 31 31 31h122q31 0 31 -31v-903q0 -31 -31 -31h-122q-31 0 -31 31zM410 1274v182q0 31 30 31h174q31 0 31 -31v-182q0 -31 -31 -31h-174q-30 0 -30 31z" />
<glyph unicode="&#xf0;" horiz-adv-x="1970" d="M102 422q-4 254 96 375t312 121h850q94 0 164 -32t106 -79q11 147 -20 319v4l-13 -14q-26 -35 -47 -35h-147q-19 0 -25.5 11.5t4.5 25.5l129 168q-70 43 -196 43h-807q-31 0 -31 31v123q0 30 31 30h868q142 0 248 -79l23 28q18 24 26 29.5t21 5.5h147q19 0 25 -11t-6 -26 l-123 -162q49 -87 61 -202q39 -344 8 -682q-19 -205 -120.5 -319.5t-264.5 -114.5h-915q-87 0 -159 27.5t-126.5 81.5t-85.5 139t-33 194zM291 424q0 -260 211 -260h889q48 0 84 10t68.5 36t52 77t24.5 127q12 170 -41 239.5t-195 69.5h-880q-67 0 -110 -18.5t-65 -59.5 t-30 -91.5t-8 -129.5z" />
<glyph unicode="&#xf1;" horiz-adv-x="1865" d="M137 31v901q0 31 31 31h123q31 0 31 -31v-49q34 34 85.5 57t100.5 23h907q149 0 238.5 -107.5t89.5 -259.5v-565q0 -31 -31 -31h-123q-30 0 -30 31v565q0 74 -47 128t-117 54h-910q-61 0 -111.5 -44.5t-51.5 -100.5v-602q0 -31 -31 -31h-123q-31 0 -31 31zM553 1440 q-13 23 20 45q104 75 192.5 81t192.5 -59q48 -29 77.5 -41.5t61 -9t57.5 17t75 46.5q20 13 35 -17l49 -96q14 -22 -21 -45q-105 -73 -192 -79.5t-193 56.5q-64 39 -102 48t-71 -3.5t-97 -56.5q-19 -12 -35 16z" />
<glyph unicode="&#xf2;" d="M113 375v213q0 155 107 268t259 113h899q152 0 259.5 -113t107.5 -268v-213q0 -155 -107 -266t-260 -111h-899q-153 0 -259.5 111t-106.5 266zM297 375q0 -80 48.5 -136.5t131.5 -56.5h903q82 0 131.5 56.5t49.5 136.5v213q0 80 -49.5 138t-131.5 58h-903 q-83 0 -131.5 -57.5t-48.5 -138.5v-213zM643 1602q-17 36 21 36h141q31 0 43 -36l153 -379q7 -17 1 -27t-21 -10h-117q-24 0 -43 37z" />
<glyph unicode="&#xf3;" d="M113 375v213q0 155 107 268t259 113h899q152 0 259.5 -113t107.5 -268v-213q0 -155 -107 -266t-260 -111h-899q-153 0 -259.5 111t-106.5 266zM297 375q0 -80 48.5 -136.5t131.5 -56.5h903q82 0 131.5 56.5t49.5 136.5v213q0 80 -49.5 138t-131.5 58h-903 q-83 0 -131.5 -57.5t-48.5 -138.5v-213zM845 1196q-6 10 1 27l153 379q12 36 43 36h152q37 0 20 -36l-178 -379q-19 -37 -43 -37h-127q-15 0 -21 10z" />
<glyph unicode="&#xf4;" d="M113 375v213q0 155 107 268t259 113h899q152 0 259.5 -113t107.5 -268v-213q0 -155 -107 -266t-260 -111h-899q-153 0 -259.5 111t-106.5 266zM297 375q0 -80 48.5 -136.5t131.5 -56.5h903q82 0 131.5 56.5t49.5 136.5v213q0 80 -49.5 138t-131.5 58h-903 q-83 0 -131.5 -57.5t-48.5 -138.5v-213zM559 1213q-6 13 4 26l260 367q22 32 47 32h121q27 0 49 -32l260 -367q10 -13 4.5 -26t-20.5 -13h-137q-14 0 -23.5 9t-23.5 30l-168 238l-168 -238q-14 -21 -23.5 -30t-23.5 -9h-137q-15 0 -21 13z" />
<glyph unicode="&#xf5;" d="M113 375v213q0 155 107 268t259 113h899q152 0 259.5 -113t107.5 -268v-213q0 -155 -107 -266t-260 -111h-899q-153 0 -259.5 111t-106.5 266zM297 375q0 -80 48.5 -136.5t131.5 -56.5h903q82 0 131.5 56.5t49.5 136.5v213q0 80 -49.5 138t-131.5 58h-903 q-83 0 -131.5 -57.5t-48.5 -138.5v-213zM551 1440q-13 23 20 45q104 75 192.5 81t192.5 -59q48 -29 77.5 -41.5t61 -9t57.5 17t75 46.5q20 13 35 -17l49 -96q14 -22 -21 -45q-105 -73 -192 -79.5t-193 56.5q-64 39 -102 48t-71 -3.5t-97 -56.5q-19 -12 -35 16z" />
<glyph unicode="&#xf6;" d="M113 375v213q0 155 107 268t259 113h899q152 0 259.5 -113t107.5 -268v-213q0 -155 -107 -266t-260 -111h-899q-153 0 -259.5 111t-106.5 266zM297 375q0 -80 48.5 -136.5t131.5 -56.5h903q82 0 131.5 56.5t49.5 136.5v213q0 80 -49.5 138t-131.5 58h-903 q-83 0 -131.5 -57.5t-48.5 -138.5v-213zM541 1274v182q0 31 30 31h174q31 0 31 -31v-182q0 -31 -31 -31h-174q-30 0 -30 31zM1083 1274v182q0 31 31 31h174q31 0 31 -31v-182q0 -31 -31 -31h-174q-31 0 -31 31z" />
<glyph unicode="&#xf7;" horiz-adv-x="1052" d="M123 600v123q0 31 31 31h747q29 0 29 -31v-123q0 -31 -31 -31h-745q-31 0 -31 31zM420 238v161q0 31 31 31h153q31 0 31 -31v-161q0 -31 -31 -31h-153q-31 0 -31 31zM420 924v161q0 31 31 31h153q31 0 31 -31v-161q0 -31 -31 -31h-153q-31 0 -31 31z" />
<glyph unicode="&#xf8;" d="M113 375v213q0 155 107 268t259 113h899q152 0 259.5 -113t107.5 -268v-213q0 -155 -107 -266t-260 -111h-899q-153 0 -259.5 111t-106.5 266zM297 375q0 -80 48.5 -136.5t131.5 -56.5h221l265 602h-486q-83 0 -131.5 -57.5t-48.5 -138.5v-213zM895 182h485 q82 0 131.5 56.5t49.5 136.5v213q0 80 -49.5 138t-131.5 58h-221z" />
<glyph unicode="&#xf9;" horiz-adv-x="1882" d="M133 365v567q0 31 31 31h123q30 0 30 -31v-567q0 -75 47.5 -128t120.5 -53h906q60 0 111 44.5t52 101.5v602q0 31 31 31h123q31 0 31 -31v-901q0 -31 -31 -31h-123q-31 0 -31 31v49q-34 -34 -85.5 -58t-100.5 -24h-903q-151 0 -241.5 106.5t-90.5 260.5zM655 1602 q-17 36 21 36h141q31 0 43 -36l154 -379q7 -17 1 -27t-22 -10h-116q-24 0 -43 37z" />
<glyph unicode="&#xfa;" horiz-adv-x="1882" d="M133 365v567q0 31 31 31h123q30 0 30 -31v-567q0 -75 47.5 -128t120.5 -53h906q60 0 111 44.5t52 101.5v602q0 31 31 31h123q31 0 31 -31v-901q0 -31 -31 -31h-123q-31 0 -31 31v49q-34 -34 -85.5 -58t-100.5 -24h-903q-151 0 -241.5 106.5t-90.5 260.5zM857 1196 q-6 10 1 27l154 379q12 36 43 36h151q38 0 21 -36l-178 -379q-19 -37 -43 -37h-127q-16 0 -22 10z" />
<glyph unicode="&#xfb;" horiz-adv-x="1882" d="M133 365v567q0 31 31 31h123q30 0 30 -31v-567q0 -75 47.5 -128t120.5 -53h906q60 0 111 44.5t52 101.5v602q0 31 31 31h123q31 0 31 -31v-901q0 -31 -31 -31h-123q-31 0 -31 31v49q-34 -34 -85.5 -58t-100.5 -24h-903q-151 0 -241.5 106.5t-90.5 260.5zM569 1213 q-6 13 4 26l261 367q22 32 47 32h120q28 0 50 -32l260 -367q10 -13 4 -26t-21 -13h-137q-14 0 -23.5 9t-23.5 30l-168 238l-168 -238q-14 -21 -23.5 -30t-23.5 -9h-137q-15 0 -21 13z" />
<glyph unicode="&#xfc;" horiz-adv-x="1882" d="M133 365v567q0 31 31 31h123q30 0 30 -31v-567q0 -75 47.5 -128t120.5 -53h906q60 0 111 44.5t52 101.5v602q0 31 31 31h123q31 0 31 -31v-901q0 -31 -31 -31h-123q-31 0 -31 31v49q-34 -34 -85.5 -58t-100.5 -24h-903q-151 0 -241.5 106.5t-90.5 260.5zM553 1274v182 q0 31 31 31h174q30 0 30 -31v-182q0 -31 -30 -31h-174q-31 0 -31 31zM1096 1274v182q0 31 30 31h174q31 0 31 -31v-182q0 -31 -31 -31h-174q-30 0 -30 31z" />
<glyph unicode="&#xfd;" horiz-adv-x="2115" d="M72 953q4 10 26 10h191q21 0 37 -13l718 -676l744 676q16 13 37 13h192q22 0 26.5 -10t-13.5 -27l-1442 -1323q-16 -13 -37 -13h-203q-22 0 -25.5 11t13.5 26l567 516l-817 783q-18 17 -14 27zM974 1196q-6 10 1 27l153 379q12 36 43 36h152q37 0 20 -36l-178 -379 q-19 -37 -43 -37h-127q-15 0 -21 10z" />
<glyph unicode="&#xfe;" d="M143 -379v1835q0 31 31 31h123q31 0 31 -31v-549q82 56 161 56h902q142 0 243 -112.5t101 -254.5v-250q0 -136 -106 -241t-238 -105h-902q-80 0 -161 43v-422q0 -31 -31 -31h-123q-31 0 -31 31zM328 272q28 -38 73 -63t88 -25h900q69 0 115 46t46 116v252q0 74 -44 127 t-117 53h-900q-62 0 -111 -44.5t-50 -106.5v-355z" />
<glyph unicode="&#xff;" horiz-adv-x="2115" d="M72 953q4 10 26 10h191q21 0 37 -13l718 -676l744 676q16 13 37 13h192q22 0 26.5 -10t-13.5 -27l-1442 -1323q-16 -13 -37 -13h-203q-22 0 -25.5 11t13.5 26l567 516l-817 783q-18 17 -14 27zM670 1274v182q0 31 30 31h174q31 0 31 -31v-182q0 -31 -31 -31h-174 q-30 0 -30 31zM1212 1274v182q0 31 31 31h174q31 0 31 -31v-182q0 -31 -31 -31h-174q-31 0 -31 31z" />
<glyph unicode="&#x152;" horiz-adv-x="3543" d="M123 463v557q0 202 126.5 345.5t303.5 143.5h956q134 0 250 -92v39q0 31 31 31h1640q31 0 31 -31v-123q0 -30 -31 -30h-1486v-461h1353q31 0 31 -31v-123q0 -31 -31 -31h-1353v-473h1486q31 0 31 -30v-123q0 -31 -31 -31h-1640q-31 0 -31 31v35q-117 -93 -250 -93h-956 q-177 0 -303.5 144t-126.5 346zM307 455q0 -126 69.5 -211.5t176.5 -85.5h956q109 0 177.5 85t68.5 212v573q0 127 -68.5 212t-177.5 85h-956q-107 0 -176.5 -85.5t-69.5 -211.5v-573z" />
<glyph unicode="&#x153;" horiz-adv-x="3260" d="M113 375v213q0 155 107 268t259 113h899q162 0 273 -127q52 60 121.5 93.5t146.5 33.5h897q61 0 123 -29t112 -78t81.5 -120t31.5 -148v-113q0 -61 -61 -61h-1358v-45q0 -31 -2 -45q12 -64 61.5 -106t112.5 -42h903q94 0 184 105q25 25 48 4l83 -74q24 -21 7 -43 q-43 -53 -82.5 -87.5t-104 -61.5t-139.5 -27h-897q-76 0 -146 33.5t-122 91.5q-112 -125 -273 -125h-899q-153 0 -259.5 111t-106.5 266zM297 375q0 -80 48.5 -136.5t131.5 -56.5h903q69 0 116 42t60 106l-2 35v233l2 35q-13 66 -59.5 108.5t-116.5 42.5h-903 q-83 0 -131.5 -57.5t-48.5 -138.5v-213zM1741 639q4 -32 4 -51v-8h1235v30q0 73 -53.5 123.5t-112.5 50.5h-897q-62 0 -113 -42t-63 -103z" />
<glyph unicode="&#x178;" horiz-adv-x="1984" d="M61.5 1476q3.5 11 24.5 11h172q27 0 39 -14l694 -711l697 711q14 14 38 14h172q22 0 26 -11t-11 -26l-830 -866v-553q0 -31 -30 -31h-123q-31 0 -31 31v553l-827 866q-14 15 -10.5 26zM604 1798v182q0 31 31 31h174q31 0 31 -31v-182q0 -31 -31 -31h-174q-31 0 -31 31z M1147 1798v182q0 31 31 31h174q30 0 30 -31v-182q0 -31 -30 -31h-174q-31 0 -31 31z" />
<glyph unicode="&#x2c6;" horiz-adv-x="956" d="M106.5 1213q-5.5 13 4.5 26l260 367q22 32 47 32h121q27 0 49 -32l260 -367q10 -13 4 -26t-21 -13h-137q-14 0 -23.5 9t-23.5 30l-168 238l-168 -238q-14 -21 -23.5 -30t-23.5 -9h-137q-15 0 -20.5 13z" />
<glyph unicode="&#x2dc;" horiz-adv-x="970" d="M106 1440q-13 23 21 45q104 75 192.5 81t192.5 -59q48 -30 77 -42t61 -8.5t57.5 17t74.5 46.5q20 13 35 -17l49 -96q14 -22 -20 -45q-105 -73 -192 -79.5t-193 56.5q-64 39 -102 48t-71.5 -3.5t-97.5 -56.5q-7 -8 -15 -4.5t-11 7.5t-8 13z" />
<glyph unicode="&#x2000;" horiz-adv-x="1082" />
<glyph unicode="&#x2001;" horiz-adv-x="2165" />
<glyph unicode="&#x2002;" horiz-adv-x="1082" />
<glyph unicode="&#x2003;" horiz-adv-x="2165" />
<glyph unicode="&#x2004;" horiz-adv-x="721" />
<glyph unicode="&#x2005;" horiz-adv-x="541" />
<glyph unicode="&#x2006;" horiz-adv-x="360" />
<glyph unicode="&#x2007;" horiz-adv-x="360" />
<glyph unicode="&#x2008;" horiz-adv-x="270" />
<glyph unicode="&#x2009;" horiz-adv-x="433" />
<glyph unicode="&#x200a;" horiz-adv-x="120" />
<glyph unicode="&#x2010;" horiz-adv-x="1298" d="M143 457v123q0 30 31 30h950q31 0 31 -30v-123q0 -31 -31 -31h-950q-31 0 -31 31z" />
<glyph unicode="&#x2011;" horiz-adv-x="1298" d="M143 457v123q0 30 31 30h950q31 0 31 -30v-123q0 -31 -31 -31h-950q-31 0 -31 31z" />
<glyph unicode="&#x2012;" horiz-adv-x="1298" d="M143 457v123q0 30 31 30h950q31 0 31 -30v-123q0 -31 -31 -31h-950q-31 0 -31 31z" />
<glyph unicode="&#x2013;" horiz-adv-x="1271" d="M123 420v123q0 30 31 30h964q31 0 31 -30v-123q0 -31 -31 -31h-964q-31 0 -31 31z" />
<glyph unicode="&#x2014;" horiz-adv-x="1423" d="M123 420v123q0 30 31 30h1116q30 0 30 -30v-123q0 -31 -30 -31h-1116q-31 0 -31 31z" />
<glyph unicode="&#x2018;" horiz-adv-x="464" d="M102 963v245q0 211 119 348q11 12 18.5 12.5t22.5 -12.5l64 -59q27 -24 8 -43q-34 -33 -51 -74t-20 -72t-3 -87l-16 -21h78q30 0 30 -31v-206q0 -31 -30 -31h-189q-31 0 -31 31z" />
<glyph unicode="&#x2019;" horiz-adv-x="487" d="M125 1249v207q0 31 31 31h188q31 0 31 -31v-246q0 -211 -119 -348q-11 -12 -18.5 -12.5t-22.5 12.5l-63 60q-26 26 -9 43q49 49 61.5 100t12.5 133l16 21h-77q-31 0 -31 30z" />
<glyph unicode="&#x201a;" horiz-adv-x="464" d="M113 31v207q0 30 30 30h189q30 0 30 -30v-246q0 -215 -116 -348q-11 -12 -18.5 -12.5t-22.5 12.5l-66 59q-27 24 -8 43q35 33 52 74.5t19.5 71.5t2.5 88l16 20h-78q-30 0 -30 31z" />
<glyph unicode="&#x201c;" horiz-adv-x="868" d="M102 963v245q0 211 119 348q11 12 18.5 12.5t22.5 -12.5l64 -59q27 -24 8 -43q-34 -33 -51 -74t-20 -72t-3 -87l-16 -21h78q30 0 30 -31v-206q0 -31 -30 -31h-189q-31 0 -31 31zM506 963v245q0 211 119 348q11 12 18.5 12.5t22.5 -12.5l63 -59q27 -24 8 -43 q-34 -33 -51 -74t-19.5 -71.5t-2.5 -87.5l-17 -21h78q31 0 31 -31v-206q0 -31 -31 -31h-188q-31 0 -31 31z" />
<glyph unicode="&#x201d;" horiz-adv-x="888" d="M123 1249v207q0 31 31 31h188q31 0 31 -31v-246q0 -213 -117 -348q-11 -12 -18.5 -12.5t-22.5 12.5l-65 60q-26 26 -9 43q35 34 52 75.5t19.5 71t2.5 86.5l16 21h-77q-31 0 -31 30zM526 1249v207q0 31 31 31h188q31 0 31 -31v-246q0 -213 -117 -348q-11 -12 -18.5 -12.5 t-22.5 12.5l-65 60q-14 14 -16 23t8 20q27 26 42.5 52.5t22 60t7.5 55t1 65.5l17 21h-78q-31 0 -31 30z" />
<glyph unicode="&#x201e;" horiz-adv-x="868" d="M113 31v207q0 30 30 30h189q30 0 30 -30v-246q0 -215 -116 -348q-11 -12 -18.5 -12.5t-22.5 12.5l-66 59q-27 24 -8 43q35 33 52 74.5t19.5 71.5t2.5 88l16 20h-78q-30 0 -30 31zM516 31v207q0 30 31 30h188q31 0 31 -30v-246q0 -213 -117 -348q-11 -12 -18.5 -12.5 t-22.5 12.5l-65 59q-27 24 -8 43q27 25 42.5 51.5t22 60.5t7.5 55.5t1 66.5l17 20h-78q-31 0 -31 31z" />
<glyph unicode="&#x2022;" horiz-adv-x="659" d="M164 618v187q0 67 65 67h197q70 0 70 -67v-187q0 -67 -70 -67h-197q-65 0 -65 67z" />
<glyph unicode="&#x2026;" horiz-adv-x="1368" d="M102 31v162q0 30 31 30h164q31 0 31 -30v-162q0 -31 -31 -31h-164q-31 0 -31 31zM571 31v162q0 30 31 30h164q31 0 31 -30v-162q0 -31 -31 -31h-164q-31 0 -31 31zM1040 31v162q0 30 31 30h164q31 0 31 -30v-162q0 -31 -31 -31h-164q-31 0 -31 31z" />
<glyph unicode="&#x202f;" horiz-adv-x="433" />
<glyph unicode="&#x2039;" horiz-adv-x="677" d="M113 477v98q0 28 30 48l385 266q14 10 25.5 4t11.5 -21v-165q0 -14 -8 -23t-29 -22l-202 -136l202 -135q37 -21 37 -45v-166q0 -15 -11.5 -20t-25.5 4l-385 266q-30 23 -30 47z" />
<glyph unicode="&#x203a;" horiz-adv-x="677" d="M113 180v166q0 14 9 23.5t28 21.5l202 135l-202 136q-15 10 -20.5 14.5t-11 12.5t-5.5 18v165q0 15 11.5 21t25.5 -4l385 -266q30 -20 30 -48v-98q0 -24 -30 -47l-385 -266q-14 -9 -25.5 -4t-11.5 20z" />
<glyph unicode="&#x205f;" horiz-adv-x="541" />
<glyph unicode="&#x20ac;" horiz-adv-x="2293" d="M102 551v113q0 30 31 30h244v94h-244q-31 0 -31 31v113q0 31 31 31h244v59q0 209 125.5 348t308.5 139h954q175 0 299 -137.5t127 -335.5q0 -30 -30 -30h-123q-33 0 -33 30q0 129 -67 209t-173 80h-954q-113 0 -181.5 -81.5t-68.5 -221.5v-59h346q31 0 31 -31v-113 q0 -31 -31 -31h-346v-94h346q31 0 31 -30v-113q0 -31 -31 -31h-346v-55q0 -140 68.5 -223.5t181.5 -83.5h954q106 0 173.5 81.5t66.5 211.5q0 30 33 30h123q30 0 30 -30q-1 -131 -58.5 -241t-155 -173.5t-212.5 -63.5h-954q-120 0 -219.5 64t-157 177t-57.5 251v55h-244 q-31 0 -31 31z" />
<glyph unicode="&#x2122;" horiz-adv-x="1595" d="M82 1395v61q0 31 31 31h489q31 0 31 -31v-61q0 -31 -31 -31h-182v-371q0 -30 -31 -30h-61q-31 0 -31 30v371h-184q-31 0 -31 31zM745 993v463q0 31 31 31h123q24 0 41 -31l188 -338l191 338q18 31 41 31h123q30 0 30 -31v-463q0 -30 -30 -30h-62q-30 0 -30 30v340 l-201 -340q-19 -30 -39 -30h-43q-20 0 -39 30l-201 340v-340q0 -30 -30 -30h-62q-31 0 -31 30z" />
<glyph unicode="&#x25fc;" horiz-adv-x="962" d="M0 0v963h963v-963h-963z" />
</font>
</defs>
</svg>
